<?xml version="1.0" encoding="utf-8"?>
<!-- Generator: Adobe Illustrator 24.3.0, SVG Export Plug-In . SVG Version: 6.00 Build 0)  -->
<svg version="1.1" id="Layer_1" xmlns="http://www.w3.org/2000/svg" xmlns:xlink="http://www.w3.org/1999/xlink" x="0px" y="0px"
	 viewBox="0 0 239.8 239.8" style="enable-background:new 0 0 239.8 239.8;" xml:space="preserve">
<style type="text/css">
	.st0{fill:none;stroke:#000000;stroke-width:0.8;stroke-linejoin:round;stroke-miterlimit:10;}
	
		.st1{clip-path:url(#SVGID_2_);fill:none;stroke:#1F77B4;stroke-width:1.5;stroke-linecap:square;stroke-linejoin:round;stroke-miterlimit:10;}
	
		.st2{clip-path:url(#SVGID_4_);fill:none;stroke:#FF7F0E;stroke-width:1.5;stroke-linecap:square;stroke-linejoin:round;stroke-miterlimit:10;}
	.st3{fill:none;stroke:#000000;stroke-width:0.8;stroke-linecap:square;stroke-miterlimit:10;}
</style>
<g>
	<line class="st0" x1="42" y1="205.7" x2="42" y2="209.2"/>
	<g>
		<path d="M40,218c0.2,0.1,0.7,0.3,1.2,0.3c0.9,0,1.2-0.6,1.2-1c0-0.7-0.7-1-1.3-1h-0.4v-0.5H41c0.5,0,1.2-0.3,1.2-0.9
			c0-0.4-0.3-0.8-0.9-0.8c-0.4,0-0.8,0.2-1,0.3l-0.2-0.5c0.3-0.2,0.8-0.4,1.4-0.4c1,0,1.5,0.6,1.5,1.2c0,0.5-0.3,1-1,1.2v0
			c0.6,0.1,1.2,0.6,1.2,1.3c0,0.8-0.6,1.6-1.9,1.6c-0.6,0-1.1-0.2-1.4-0.4L40,218z"/>
	</g>
	<line class="st0" x1="89.1" y1="205.7" x2="89.1" y2="209.2"/>
	<g>
		<path d="M89.1,218.8v-1.4h-2.4v-0.5l2.3-3.3h0.8v3.2h0.7v0.6h-0.7v1.4H89.1z M89.1,216.8v-1.7c0-0.3,0-0.5,0-0.8h0
			c-0.2,0.3-0.3,0.5-0.4,0.8l-1.3,1.8v0H89.1z"/>
	</g>
	<line class="st0" x1="136.2" y1="205.7" x2="136.2" y2="209.2"/>
	<g>
		<path d="M137.1,214.2h-2l-0.2,1.3c0.1,0,0.2,0,0.4,0c0.4,0,0.8,0.1,1.1,0.3c0.4,0.2,0.7,0.7,0.7,1.3c0,1-0.8,1.8-1.9,1.8
			c-0.6,0-1-0.2-1.3-0.3l0.2-0.5c0.2,0.1,0.6,0.3,1.1,0.3c0.7,0,1.2-0.4,1.2-1.1c0-0.7-0.5-1.2-1.5-1.2c-0.3,0-0.5,0-0.7,0.1
			l0.3-2.5h2.5V214.2z"/>
	</g>
	<line class="st0" x1="183.3" y1="205.7" x2="183.3" y2="209.2"/>
	<g>
		<path d="M184.1,214.1c-0.1,0-0.3,0-0.5,0c-1.1,0.2-1.7,1-1.8,1.8h0c0.2-0.3,0.7-0.6,1.3-0.6c0.9,0,1.6,0.7,1.6,1.7
			c0,1-0.6,1.8-1.7,1.8c-1.1,0-1.8-0.9-1.8-2.2c0-1,0.4-1.8,0.9-2.3c0.4-0.4,1-0.7,1.7-0.8c0.2,0,0.4,0,0.5,0V214.1z M183.9,217.1
			c0-0.7-0.4-1.2-1.1-1.2c-0.4,0-0.8,0.3-1,0.6c0,0.1-0.1,0.2-0.1,0.3c0,0.9,0.4,1.5,1.1,1.5C183.5,218.3,183.9,217.8,183.9,217.1z"
			/>
	</g>
	<g>
		<path d="M105.8,230.5l-1.8-5.4h0.8l0.8,2.7c0.2,0.7,0.4,1.4,0.6,2h0c0.2-0.6,0.4-1.3,0.6-2l0.9-2.7h0.7l-1.9,5.4H105.8z"/>
		<path d="M109.4,228.7c0,1,0.6,1.3,1.3,1.3c0.5,0,0.8-0.1,1.1-0.2l0.1,0.5c-0.2,0.1-0.7,0.2-1.3,0.2c-1.2,0-1.9-0.8-1.9-2
			s0.7-2.1,1.8-2.1c1.3,0,1.6,1.1,1.6,1.8c0,0.1,0,0.3,0,0.3H109.4z M111.5,228.2c0-0.4-0.2-1.1-1-1.1c-0.7,0-1,0.7-1.1,1.1H111.5z"
			/>
		<path d="M113.1,224.9h0.7v5.7h-0.7V224.9z"/>
		<path d="M118.5,228.6c0,1.4-1,2.1-1.9,2.1c-1,0-1.9-0.8-1.9-2c0-1.3,0.8-2.1,1.9-2.1C117.7,226.6,118.5,227.4,118.5,228.6z
			 M115.4,228.6c0,0.8,0.5,1.5,1.2,1.5c0.7,0,1.2-0.6,1.2-1.5c0-0.7-0.3-1.5-1.2-1.5C115.7,227.1,115.4,227.9,115.4,228.6z"/>
		<path d="M122.1,230.4c-0.2,0.1-0.6,0.2-1.1,0.2c-1.2,0-1.9-0.8-1.9-2c0-1.2,0.8-2.1,2.1-2.1c0.4,0,0.8,0.1,1,0.2l-0.2,0.5
			c-0.2-0.1-0.4-0.2-0.8-0.2c-0.9,0-1.4,0.7-1.4,1.5c0,0.9,0.6,1.4,1.3,1.4c0.4,0,0.7-0.1,0.9-0.2L122.1,230.4z"/>
		<path d="M123.7,225.6c0,0.2-0.2,0.4-0.4,0.4c-0.2,0-0.4-0.2-0.4-0.4c0-0.2,0.2-0.4,0.4-0.4C123.5,225.2,123.7,225.3,123.7,225.6z
			 M122.9,230.5v-3.9h0.7v3.9H122.9z"/>
		<path d="M125.6,225.6v1.1h1v0.5h-1v2.1c0,0.5,0.1,0.8,0.5,0.8c0.2,0,0.3,0,0.4,0l0,0.5c-0.1,0.1-0.4,0.1-0.6,0.1
			c-0.3,0-0.6-0.1-0.8-0.3c-0.2-0.2-0.3-0.6-0.3-1v-2.1h-0.6v-0.5h0.6v-0.9L125.6,225.6z"/>
		<path d="M127.7,226.7l0.8,2.3c0.1,0.3,0.2,0.6,0.2,0.8h0c0.1-0.2,0.2-0.5,0.2-0.8l0.8-2.3h0.7l-1.1,2.8c-0.5,1.3-0.8,2-1.3,2.4
			c-0.3,0.3-0.7,0.4-0.9,0.5l-0.2-0.6c0.2-0.1,0.4-0.2,0.6-0.3c0.2-0.2,0.4-0.4,0.6-0.8c0-0.1,0.1-0.1,0.1-0.2s0-0.1,0-0.2l-1.4-3.6
			H127.7z"/>
		<path d="M134.4,225c-0.6,0.8-1,1.8-1,3.3c0,1.4,0.4,2.4,1,3.2h-0.6c-0.5-0.7-1-1.7-1-3.2c0-1.6,0.5-2.6,1-3.3H134.4z"/>
		<path d="M135.9,228.5L135.9,228.5c0.1-0.1,0.2-0.3,0.4-0.4l1.1-1.3h0.8l-1.5,1.6l1.7,2.3h-0.9l-1.3-1.9l-0.4,0.4v1.5h-0.7v-5.7
			h0.7V228.5z"/>
		<path d="M138.9,227.7c0-0.4,0-0.7,0-1h0.6l0,0.6h0c0.2-0.4,0.6-0.7,1.2-0.7c0.5,0,0.9,0.3,1.1,0.8h0c0.1-0.2,0.3-0.4,0.4-0.5
			c0.2-0.2,0.5-0.3,0.9-0.3c0.5,0,1.3,0.3,1.3,1.7v2.3h-0.7v-2.2c0-0.7-0.3-1.2-0.8-1.2c-0.4,0-0.7,0.3-0.8,0.6
			c0,0.1-0.1,0.2-0.1,0.4v2.4h-0.7v-2.3c0-0.6-0.3-1.1-0.8-1.1c-0.4,0-0.8,0.4-0.9,0.7c0,0.1-0.1,0.2-0.1,0.3v2.3h-0.7V227.7z"/>
		<path d="M145,230.9l2.2-5.8h0.5l-2.2,5.8H145z"/>
		<path d="M148.3,229.8c0.2,0.1,0.6,0.3,0.9,0.3c0.5,0,0.8-0.3,0.8-0.6c0-0.3-0.2-0.5-0.7-0.7c-0.7-0.2-1-0.6-1-1.1
			c0-0.6,0.5-1.1,1.3-1.1c0.4,0,0.7,0.1,1,0.2l-0.2,0.5c-0.2-0.1-0.4-0.2-0.8-0.2c-0.4,0-0.6,0.2-0.6,0.5c0,0.3,0.2,0.5,0.7,0.7
			c0.7,0.3,1,0.6,1,1.2c0,0.7-0.5,1.2-1.4,1.2c-0.4,0-0.8-0.1-1.1-0.3L148.3,229.8z"/>
		<path d="M151.1,231.5c0.6-0.8,1-1.8,1-3.3c0-1.4-0.4-2.5-1-3.2h0.5c0.5,0.7,1,1.7,1,3.3c0,1.6-0.5,2.6-1,3.3H151.1z"/>
	</g>
	<line class="st0" x1="39.5" y1="32.8" x2="36" y2="32.8"/>
	<g>
		<path d="M23.6,33.2c0,1.8-0.7,2.7-1.8,2.7c-1,0-1.7-1-1.7-2.7c0-1.7,0.8-2.7,1.8-2.7C23,30.6,23.6,31.6,23.6,33.2z M20.8,33.3
			c0,1.4,0.4,2.1,1.1,2.1c0.7,0,1.1-0.8,1.1-2.2c0-1.3-0.3-2.1-1.1-2.1C21.2,31.1,20.8,31.9,20.8,33.3z"/>
		<path d="M24.3,35.4c0-0.3,0.2-0.5,0.5-0.5s0.5,0.2,0.5,0.5c0,0.3-0.2,0.5-0.5,0.5C24.5,35.9,24.3,35.7,24.3,35.4z"/>
		<path d="M29.4,33.2c0,1.8-0.7,2.7-1.8,2.7c-1,0-1.7-1-1.7-2.7c0-1.7,0.8-2.7,1.8-2.7C28.7,30.6,29.4,31.6,29.4,33.2z M26.5,33.3
			c0,1.4,0.4,2.1,1.1,2.1c0.7,0,1.1-0.8,1.1-2.2c0-1.3-0.3-2.1-1.1-2.1C27,31.1,26.5,31.9,26.5,33.3z"/>
	</g>
	<line class="st0" x1="39.5" y1="64.9" x2="36" y2="64.9"/>
	<g>
		<path d="M23.6,65.2c0,1.8-0.7,2.7-1.8,2.7c-1,0-1.7-1-1.7-2.7c0-1.7,0.8-2.7,1.8-2.7C23,62.6,23.6,63.6,23.6,65.2z M20.8,65.3
			c0,1.4,0.4,2.1,1.1,2.1c0.7,0,1.1-0.8,1.1-2.2c0-1.3-0.3-2.1-1.1-2.1C21.2,63.2,20.8,63.9,20.8,65.3z"/>
		<path d="M24.3,67.5c0-0.3,0.2-0.5,0.5-0.5s0.5,0.2,0.5,0.5c0,0.3-0.2,0.5-0.5,0.5C24.5,68,24.3,67.8,24.3,67.5z"/>
		<path d="M25.9,67.9v-0.4l0.6-0.5c1.3-1.3,1.9-1.9,1.9-2.7c0-0.5-0.3-1-1-1c-0.5,0-0.9,0.2-1.1,0.4L26,63.1
			c0.4-0.3,0.9-0.5,1.5-0.5c1.1,0,1.6,0.8,1.6,1.5c0,1-0.7,1.7-1.8,2.8l-0.4,0.4v0h2.3v0.6H25.9z"/>
	</g>
	<line class="st0" x1="39.5" y1="96.9" x2="36" y2="96.9"/>
	<g>
		<path d="M23.6,97.3c0,1.8-0.7,2.7-1.8,2.7c-1,0-1.7-1-1.7-2.7c0-1.7,0.8-2.7,1.8-2.7C23,94.7,23.6,95.6,23.6,97.3z M20.8,97.4
			c0,1.4,0.4,2.1,1.1,2.1c0.7,0,1.1-0.8,1.1-2.2c0-1.3-0.3-2.1-1.1-2.1C21.2,95.2,20.8,96,20.8,97.4z"/>
		<path d="M24.3,99.5c0-0.3,0.2-0.5,0.5-0.5s0.5,0.2,0.5,0.5c0,0.3-0.2,0.5-0.5,0.5C24.5,100,24.3,99.8,24.3,99.5z"/>
		<path d="M28.1,99.9v-1.4h-2.4v-0.5l2.3-3.3h0.8V98h0.7v0.6h-0.7v1.4H28.1z M28.1,98v-1.7c0-0.3,0-0.5,0-0.8h0
			c-0.2,0.3-0.3,0.5-0.4,0.8L26.4,98v0H28.1z"/>
	</g>
	<line class="st0" x1="39.5" y1="128.9" x2="36" y2="128.9"/>
	<g>
		<path d="M23.6,129.3c0,1.8-0.7,2.7-1.8,2.7c-1,0-1.7-1-1.7-2.7c0-1.7,0.8-2.7,1.8-2.7C23,126.7,23.6,127.7,23.6,129.3z
			 M20.8,129.4c0,1.4,0.4,2.1,1.1,2.1c0.7,0,1.1-0.8,1.1-2.2c0-1.3-0.3-2.1-1.1-2.1C21.2,127.2,20.8,128,20.8,129.4z"/>
		<path d="M24.3,131.6c0-0.3,0.2-0.5,0.5-0.5s0.5,0.2,0.5,0.5c0,0.3-0.2,0.5-0.5,0.5C24.5,132.1,24.3,131.9,24.3,131.6z"/>
		<path d="M28.9,127.3c-0.1,0-0.3,0-0.5,0c-1.1,0.2-1.7,1-1.8,1.8h0c0.2-0.3,0.7-0.6,1.3-0.6c0.9,0,1.6,0.7,1.6,1.7
			c0,1-0.6,1.8-1.7,1.8c-1.1,0-1.8-0.9-1.8-2.2c0-1,0.4-1.8,0.9-2.3c0.4-0.4,1-0.7,1.7-0.8c0.2,0,0.4,0,0.5,0V127.3z M28.7,130.3
			c0-0.7-0.4-1.2-1.1-1.2c-0.4,0-0.8,0.3-1,0.6c0,0.1-0.1,0.2-0.1,0.3c0,0.9,0.4,1.5,1.1,1.5C28.3,131.5,28.7,131,28.7,130.3z"/>
	</g>
	<line class="st0" x1="39.5" y1="161" x2="36" y2="161"/>
	<g>
		<path d="M23.6,161.4c0,1.8-0.7,2.7-1.8,2.7c-1,0-1.7-1-1.7-2.7c0-1.7,0.8-2.7,1.8-2.7C23,158.7,23.6,159.7,23.6,161.4z
			 M20.8,161.5c0,1.4,0.4,2.1,1.1,2.1c0.7,0,1.1-0.8,1.1-2.2c0-1.3-0.3-2.1-1.1-2.1C21.2,159.3,20.8,160,20.8,161.5z"/>
		<path d="M24.3,163.6c0-0.3,0.2-0.5,0.5-0.5s0.5,0.2,0.5,0.5c0,0.3-0.2,0.5-0.5,0.5C24.5,164.1,24.3,163.9,24.3,163.6z"/>
		<path d="M25.9,162.7c0-0.7,0.4-1.1,1-1.4l0,0c-0.6-0.3-0.8-0.7-0.8-1.2c0-0.8,0.7-1.4,1.6-1.4c1,0,1.5,0.6,1.5,1.3
			c0,0.4-0.2,0.9-0.9,1.2v0c0.6,0.3,1,0.7,1,1.3c0,0.9-0.8,1.5-1.8,1.5C26.5,164.1,25.9,163.5,25.9,162.7z M28.6,162.7
			c0-0.6-0.4-0.9-1.1-1.1c-0.6,0.2-0.9,0.6-0.9,1.1c0,0.5,0.4,1,1,1C28.2,163.6,28.6,163.2,28.6,162.7z M26.7,160.1
			c0,0.5,0.4,0.8,1,1c0.4-0.2,0.8-0.5,0.8-0.9c0-0.4-0.2-0.8-0.9-0.8C27,159.2,26.7,159.6,26.7,160.1z"/>
	</g>
	<line class="st0" x1="39.5" y1="193" x2="36" y2="193"/>
	<g>
		<path d="M21.7,191.5L21.7,191.5l-0.9,0.5l-0.1-0.5l1.1-0.6h0.6v5.2h-0.7V191.5z"/>
		<path d="M24.3,195.7c0-0.3,0.2-0.5,0.5-0.5s0.5,0.2,0.5,0.5c0,0.3-0.2,0.5-0.5,0.5C24.5,196.2,24.3,195.9,24.3,195.7z"/>
		<path d="M29.4,193.4c0,1.8-0.7,2.7-1.8,2.7c-1,0-1.7-1-1.7-2.7c0-1.7,0.8-2.7,1.8-2.7C28.7,190.8,29.4,191.8,29.4,193.4z
			 M26.5,193.5c0,1.4,0.4,2.1,1.1,2.1c0.7,0,1.1-0.8,1.1-2.2c0-1.3-0.3-2.1-1.1-2.1C27,191.3,26.5,192.1,26.5,193.5z"/>
	</g>
	<g>
		<path d="M13.7,121l-2.3-1.8c-0.2-0.2-0.4-0.3-0.6-0.5h0v2.1h-0.6v-3l0.4,0l2.2,1.7c0.2,0.2,0.4,0.3,0.6,0.5h0v-2.3h0.6v3.1H13.7z"
			/>
		<path d="M8.6,113.9c0.8,0.6,1.8,1,3.3,1c1.4,0,2.4-0.4,3.2-1v0.6c-0.7,0.5-1.7,1-3.2,1c-1.6,0-2.6-0.5-3.3-1V113.9z"/>
		<path d="M12,112.5L12,112.5c-0.1-0.1-0.3-0.2-0.4-0.4l-1.3-1.1v-0.8l1.6,1.5l2.3-1.7v0.9l-1.9,1.3l0.4,0.4h1.5v0.7H8.4v-0.7H12z"
			/>
		<path d="M11.3,109.4c-0.4,0-0.7,0-1,0v-0.6l0.6,0v0c-0.4-0.2-0.7-0.6-0.7-1.2c0-0.5,0.3-0.9,0.8-1.1v0c-0.2-0.1-0.4-0.3-0.5-0.4
			c-0.2-0.2-0.3-0.5-0.3-0.9c0-0.5,0.3-1.3,1.7-1.3h2.3v0.7h-2.2c-0.7,0-1.2,0.3-1.2,0.8c0,0.4,0.3,0.7,0.6,0.8
			c0.1,0,0.2,0.1,0.4,0.1h2.4v0.7h-2.3c-0.6,0-1.1,0.3-1.1,0.8c0,0.4,0.4,0.8,0.7,0.9c0.1,0,0.2,0.1,0.3,0.1h2.3v0.7H11.3z"/>
		<path d="M15.1,103.2c-0.8-0.6-1.8-1-3.3-1c-1.4,0-2.5,0.4-3.2,1v-0.5c0.7-0.5,1.7-1,3.3-1c1.6,0,2.6,0.5,3.3,1V103.2z"/>
	</g>
	<g>
		<defs>
			<rect id="SVGID_1_" x="39.5" y="11.2" width="189.1" height="194.6"/>
		</defs>
		<clipPath id="SVGID_2_">
			<use xlink:href="#SVGID_1_"  style="overflow:visible;"/>
		</clipPath>
		<polyline class="st1" points="94,20 106.7,20.1 104.9,20.2 93,20.3 144.7,20.6 86.9,20.8 87.2,20.8 86.5,20.9 74.9,21 78.8,21 
			91.1,21.2 104.9,21.3 89.1,21.4 94.7,21.5 108.5,21.6 120.2,21.7 119.6,21.8 119.9,21.8 148.2,21.9 194.1,22 162.1,22.1 106,22.3 
			102.8,22.4 103.2,22.5 116.1,22.8 116.8,22.8 112,22.9 89.5,23.1 91.3,23.1 95.5,23.2 94.8,23.3 93.9,23.3 94.5,23.4 98.9,23.5 
			98,23.5 94,23.8 94.8,23.8 97,23.9 127.8,24 120.5,24 95.8,24.1 96.6,24.2 96.8,24.2 104.5,24.3 103.9,24.3 90,24.5 90.8,24.6 
			105.5,24.7 97.9,24.8 99.7,24.8 135.3,25.1 128.6,25.1 89.7,25.3 94.5,25.4 112.7,25.7 101.1,25.9 101.5,25.9 102.4,25.9 
			128.1,26.1 121.8,26.1 102.2,26.2 103.5,26.3 97.6,26.4 94.8,26.4 109.7,26.5 107.3,26.5 94.5,26.7 96.5,26.8 97.2,26.9 
			110.5,27.1 123.6,27.1 94.4,27.4 92.4,27.5 98.5,27.6 117.4,27.7 114.6,27.8 95.9,27.9 96,28 136.1,28.2 137,28.2 110.2,28.5 
			112,28.6 120.3,28.7 116.4,28.7 97.5,28.8 98.3,28.8 103.6,29 101.8,29 99.9,29.1 121.2,29.3 118.1,29.3 98.6,29.5 110,29.9 
			117.3,30 102.8,30.2 102.9,30.3 103.1,30.4 118.7,30.5 117.5,30.6 94.6,30.9 97.4,31 97.2,31 94.5,31.1 94.9,31.2 114.2,31.4 
			95.7,31.5 103.4,31.5 115.8,31.7 96.6,31.8 99.1,31.9 105.8,32 104.7,32.1 98.1,32.1 86.2,32.3 88.8,32.3 95.8,32.4 94.2,32.4 
			92.4,32.5 93.3,32.5 132.2,32.7 146.7,32.7 145.4,32.7 93.3,33 89.3,33.2 89.5,33.2 110.1,33.7 112.9,33.7 112.2,33.8 105.1,34 
			106.4,34 144.3,34.2 140.4,34.3 108.8,34.5 108.5,34.5 108.8,34.6 113.3,34.8 112.6,34.8 103.5,35 99.2,35.1 99.4,35.1 
			100.6,35.2 99.5,35.3 100.5,35.4 112.9,35.5 111.2,35.6 105.4,35.7 106.2,35.8 111.2,35.9 111,36 108.7,36.1 109.2,36.1 
			132.4,36.2 143.7,36.3 138.9,36.4 108.5,36.6 112.8,36.7 111.6,36.7 90.1,37 91.2,37 110.3,37.3 109.4,37.4 101.5,37.5 
			102.1,37.6 106.9,37.6 119,37.8 114.4,37.9 103,38 103.2,38.1 108.5,38.2 108.3,38.2 105.3,38.4 105.4,38.5 113.9,38.7 
			135.2,38.8 87.2,39 98.3,39.1 109.2,39.2 106.9,39.2 100,39.3 102.1,39.4 111.4,39.5 110.8,39.6 111.8,39.6 135,39.8 105.2,40.1 
			105.8,40.1 137.2,40.3 130.5,40.3 102.6,40.5 103.4,40.7 103.1,40.7 103.3,40.8 107.3,41 107.3,41 107.1,41 108.8,41.1 
			107.8,41.2 98.5,41.3 99.4,41.4 97,41.5 97.7,41.6 102.9,41.8 107.2,41.9 106.6,41.9 106.3,41.9 115,42.3 113,42.4 113.9,42.4 
			116.3,42.5 115.8,42.5 114.1,42.5 114.6,42.6 130.9,42.8 128.9,42.8 103.4,43 103.7,43.1 120.4,43.3 117.5,43.4 109.2,43.5 
			109,43.6 106.2,43.7 107.6,43.8 116.5,43.9 148,44.1 140.9,44.2 106.4,44.4 108.1,44.4 111.5,44.6 113.5,44.7 112.7,44.8 
			105.2,44.9 107.6,45 128.6,45.2 125.6,45.3 104.4,45.5 108.2,45.8 104.4,45.9 104.7,45.9 104.6,46 102.5,46.1 102.9,46.1 
			122.8,46.3 115.9,46.4 104.7,46.5 105.6,46.5 132.9,46.7 124.1,46.8 103.8,46.9 106.1,46.9 113.1,47 92.4,47.2 95.4,47.2 
			137.3,47.3 130,47.4 108.3,47.5 109.9,47.5 108.2,47.6 105.9,47.6 108.1,47.7 125,47.9 121.7,48 109.1,48.3 111.6,48.3 
			137.9,48.5 85.5,48.7 93.8,48.7 136.8,48.9 103.3,49.2 106.4,49.3 124.2,49.5 127,49.6 108.4,49.6 95.9,49.7 99.1,49.8 
			116.5,49.9 114.4,49.9 107.6,50 108,50.1 128.7,50.4 122.3,50.5 119.1,50.5 88.7,50.7 89.2,50.7 102.2,50.9 112.3,51 110.4,51 
			98.5,51.2 101.2,51.2 116.1,51.5 122.2,51.6 122.2,51.6 120.8,51.7 100.4,51.9 105.8,52 95.3,52.3 95.4,52.4 104.3,52.5 
			109.5,52.5 108.7,52.6 99.3,52.7 100.2,52.7 122.8,53 121,53 98.1,53.3 100.4,53.4 101.1,53.5 97.1,53.6 98.5,53.6 109.9,53.8 
			107.7,53.8 99.5,54 98.3,54.1 99.2,54.2 109.9,54.3 107.8,54.3 95.9,54.5 97.8,54.5 138.1,54.7 132.4,54.7 101.7,54.9 106.9,54.9 
			121.7,55 118.4,55 98.4,55.2 99.8,55.2 104.2,55.3 135,55.5 146.2,55.5 111.6,55.8 111.8,55.8 114.5,55.9 113.5,56 96.9,56.1 
			98.4,56.2 110.3,56.4 110.6,56.4 102.6,56.6 94,56.7 94.3,56.7 94.1,56.8 85.5,56.9 86.9,57 105.3,57.2 103.8,57.3 106.4,57.3 
			105.8,57.4 93.9,57.7 94.8,57.7 100.7,57.9 95.2,58 97.3,58 100.4,58.1 100.4,58.2 97,58.3 106.6,58.4 128.6,58.5 127.6,58.6 
			116.6,58.8 99.7,59 95.2,59.1 86.6,59.2 87.7,59.2 95.9,59.3 146.7,59.5 167.5,59.6 91,59.9 91.7,59.9 98.7,60.1 96.6,60.1 
			90.4,60.3 102.3,60.4 110.9,60.5 106.5,60.5 97.2,60.6 97.3,60.7 104.7,60.8 103.1,60.8 101.3,60.9 102.2,60.9 107.7,61 106.6,61 
			88.5,61.2 88.8,61.3 92.7,61.4 101.7,61.6 104,61.7 87,62 88.7,62 109,62.3 100.2,62.4 93.4,62.5 93.5,62.6 84,62.8 85.2,62.8 
			104,63 102.7,63 89.5,63.2 90.4,63.2 96.3,63.3 95.5,63.4 94.3,63.4 94.9,63.5 97.7,63.6 94.6,63.7 101.4,63.8 122.9,63.9 
			122.5,64 96.8,64.1 100.9,64.2 136.4,64.4 131.9,64.4 96.2,64.7 104.5,64.9 108,65 106.9,65.1 91.5,65.4 92.3,65.4 103.5,65.6 
			102.8,65.6 102.4,65.7 122.3,65.8 115.4,65.9 85.7,66 92.7,66.3 114.7,66.6 113.9,66.7 102.6,66.9 91.5,67.1 93.7,67.2 
			104.6,67.3 100,67.5 100.3,67.5 101.5,67.6 101.4,67.6 97.7,67.8 98.9,67.8 116.2,68.1 137.5,68.3 99.8,68.5 100.7,68.5 
			102.2,68.6 101.9,68.7 99.5,68.8 100,68.8 101.9,69 116.1,69.1 129.4,69.3 95.9,69.6 96.1,69.7 96.4,69.7 96,69.7 92.2,70 
			92.8,70 99.5,70.1 113.2,70.3 110.2,70.3 97.7,70.4 116.5,70.8 113.4,70.8 106.5,70.9 107.5,70.9 128.1,71.3 125.9,71.3 
			97.7,71.6 105.8,71.7 118.2,71.8 117.3,71.8 98.2,71.9 101.9,72 125.8,72.2 124.7,72.2 98.2,72.4 99.5,72.5 116.1,72.7 
			135.5,72.8 130.3,72.9 99.6,73.1 98.9,73.2 99.7,73.2 121.9,73.4 138.9,73.4 135.8,73.5 107.7,73.7 108.6,73.8 119.1,73.9 
			117.8,74 106.8,74.1 107.1,74.2 125.1,74.3 119.8,74.4 92.6,74.8 95.7,74.8 119.7,75 118.4,75 111.3,75.2 112.5,75.2 114.5,75.2 
			113.6,75.3 107.3,75.4 107.4,75.5 126.3,75.7 121.5,75.7 102.6,75.9 104.2,76 105.4,76.1 103.4,76.2 104.4,76.2 123.2,76.4 
			115.9,76.5 100.7,76.6 100,76.8 94.4,76.9 94.4,77 122.3,77.1 113.3,77.2 109.2,77.3 109.8,77.3 137,77.5 131.4,77.6 100.8,77.8 
			100.7,77.8 104.1,78 106,78.2 109.8,78.3 109,78.3 101.8,78.5 102.3,78.5 111.9,78.6 122.2,78.8 120.7,78.8 106.2,79 106.6,79 
			104.6,79.1 101.5,79.2 102.7,79.2 112.3,79.4 133.6,79.6 99.5,79.7 100.8,79.8 121.2,79.9 120.4,80 85.9,80.2 88.5,80.3 120,80.5 
			116.5,80.5 99.6,80.6 100.9,80.7 104.3,80.8 103.2,80.8 96.7,80.9 97.1,81 100.3,81.1 105.2,81.3 102.6,81.4 104.4,81.4 119,81.6 
			116.8,81.7 111.1,81.7 115,81.8 128.8,81.9 94.9,82.1 95.4,82.2 96.5,82.3 103.7,82.5 103.4,82.6 102.9,82.6 103.4,82.6 
			117.5,82.8 115.9,82.9 96.8,83 99,83 103.2,83.1 102.6,83.2 84.7,83.3 85,83.4 96.6,83.6 96.3,83.6 96.5,83.7 98.3,83.8 
			97.7,83.8 96.4,83.9 105.4,84.1 104.9,84.2 98,84.3 99.3,84.3 126.5,84.5 119.2,84.6 84.5,84.8 85.3,84.9 90.8,85 90.4,85.1 
			88.3,85.1 89.8,85.2 106.4,85.4 103.7,85.4 94.4,85.6 95.8,85.6 114.1,85.7 140.1,85.8 92.4,86.1 96.1,86.2 98.4,86.3 93,86.3 
			94.6,86.4 113.4,86.6 109.6,86.6 109.6,86.7 110.2,86.8 101.2,86.9 104.3,87 107.5,87.1 97.8,87.2 99.5,87.3 107.3,87.4 
			105.4,87.5 104.2,87.5 104.4,87.6 120.3,87.7 114.7,87.7 89,87.9 95.4,88 121,88.2 118.6,88.2 96,88.4 99.8,88.5 110.7,88.7 
			108,88.8 108.7,88.8 113,88.9 111.6,88.9 105.6,89.1 106,89.1 106.4,89.2 112,89.3 134.8,89.4 133.7,89.5 112.3,89.7 115.1,89.7 
			116.3,89.7 115.2,89.8 108.7,89.9 109.2,89.9 116.2,90 140.9,90.2 139.4,90.3 117.8,90.5 93.8,90.7 96.8,90.7 122.5,90.9 
			118.9,91 93.4,91.2 98.4,91.4 97.4,91.4 97.5,91.5 114.9,91.7 111.1,91.7 109.6,91.8 110.6,91.8 121.9,92 132.6,92.1 156,92.2 
			155.4,92.2 123.2,92.5 112.9,92.6 115.3,92.6 119.2,92.7 111.4,92.8 111.7,92.8 128.3,92.9 164.8,93.1 163,93.1 116.7,93.3 
			125.7,93.4 131.1,93.4 128.3,93.4 121.7,93.5 122,93.6 123,93.6 121.9,93.7 107.5,93.8 112.2,93.8 122.2,93.9 119.2,94 
			108.1,94.1 114.5,94.2 108.4,94.4 134.5,94.5 151.3,94.6 146.5,94.6 125.3,94.8 122.6,94.9 108.7,95 115.4,95.1 147.2,95.3 
			140.4,95.3 128.7,95.4 130.6,95.5 135.3,95.6 101.9,95.8 107.5,95.8 124.5,95.9 120.7,96 112.7,96.1 114.6,96.1 115,96.2 
			100.4,96.3 104.3,96.4 119.4,96.5 144.2,96.7 136.5,96.7 129.8,96.8 133.2,96.8 135.8,96.9 134.1,96.9 100.8,97.1 107.9,97.1 
			131,97.3 124.9,97.3 88.4,97.5 87.8,97.6 99.4,97.8 97.7,97.8 92.5,97.9 113.8,98 123.7,98.1 123,98.1 80.7,98.3 85.6,98.4 
			85,98.4 68.9,98.5 76.4,98.6 115.3,98.7 103.6,98.8 89.6,98.8 92.6,98.9 117.3,99 74.8,99.2 76.1,99.2 78.7,99.3 118.5,99.4 
			105.8,99.5 76.8,99.7 76.5,99.7 82.4,99.9 82.6,100 82.6,100 77.2,100.2 78.3,100.3 80.7,100.4 89.8,100.7 71.5,101.1 70.1,101.2 
			68.8,101.3 69,101.3 77.2,101.5 76.4,101.5 67.3,101.8 68.2,101.9 83.9,102 156.6,102.2 150.6,102.3 75.5,102.5 75.6,102.5 
			75.5,102.6 74.5,102.7 74.7,102.8 75.7,102.9 76.7,103 76,103.1 75,103.2 87.5,103.3 85,103.5 85.1,103.5 86,103.6 103.7,103.7 
			111.4,103.7 111.3,103.8 71.6,103.9 72.6,103.9 78.9,104.1 76.9,104.2 71,104.2 71.1,104.3 77.4,104.5 77.2,104.5 76.6,104.6 
			76.8,104.6 89.1,104.8 96.9,104.9 89.7,105 100.2,105.1 113.4,105.2 110.8,105.2 71.8,105.4 74.8,105.5 75.9,105.5 75.6,105.5 
			75,105.6 79.4,105.8 79.3,105.8 76.5,105.9 76.7,105.9 79.2,106 121.7,106.1 164.1,106.2 78.1,106.4 88.8,106.6 87.3,106.7 
			75.6,106.8 66.6,107.1 68.2,107.2 75.5,107.3 75.3,107.4 75.5,107.4 97.2,107.6 112.9,107.6 111.6,107.7 67.6,108.1 69.8,108.1 
			88.3,108.3 87.4,108.3 74.6,108.5 71.5,108.7 71.9,108.8 73,108.9 75.8,109.1 75,109.2 76,109.2 79.6,109.3 93.6,109.5 
			91.3,109.5 73.2,109.7 75.5,109.8 89.4,109.9 86.8,109.9 78.6,110 80.5,110.1 88.3,110.1 86.9,110.2 66,110.4 76.5,110.7 
			88.8,110.9 66.5,111.1 66.9,111.1 66.3,111.2 68.4,111.3 110.6,111.6 108.6,111.6 86.7,111.7 89.8,111.7 111.7,111.9 107.3,111.9 
			95.4,112 99.5,112.1 114.6,112.2 108,112.2 62.5,112.5 63.2,112.5 65.9,112.6 85,112.9 82.1,113 61,113.2 60.6,113.3 68.7,113.4 
			94.3,113.5 92.4,113.6 114,113.8 104.3,113.8 65.2,114 65.9,114.1 81.7,114.2 79.1,114.3 74.2,114.4 76.1,114.4 84.4,114.5 
			83.9,114.5 70.7,114.7 71.4,114.7 76.1,114.8 88.2,115 86.6,115 69.3,115.1 71.1,115.2 114.5,115.3 53.6,115.5 53.6,115.6 
			53.5,115.6 54.6,115.7 54.6,115.8 53.4,115.9 54.4,115.9 71.1,116 145.9,116.3 144.5,116.3 71.5,116.5 75.9,116.6 112.6,116.7 
			137.6,116.8 130.7,116.9 118.6,116.9 120.7,117 119.3,117 88.9,117.2 91.1,117.3 148.2,117.6 142.8,117.6 80.9,117.8 82.2,117.8 
			68.6,118 75,118 159.9,118.2 138.6,118.3 70.3,118.4 72.5,118.4 83.9,118.6 107.7,118.7 106.6,118.8 48.1,119.1 68.4,119.2 
			113.1,119.3 108,119.4 80.8,119.6 99.4,119.8 97.7,119.8 91.9,119.9 92.6,120 110.4,120 162.1,120.2 158.6,120.3 138.6,120.4 
			58.1,120.6 63.2,120.7 60.9,120.7 63.3,120.8 99.6,120.9 99.1,120.9 63.4,121.1 63.4,121.2 69.9,121.2 67.5,121.3 67.8,121.3 
			79.3,121.4 72,121.5 69,121.5 71.2,121.5 72.9,121.6 59.9,121.8 76.3,122.1 78.7,122.1 78.3,122.2 71.5,122.4 79.7,122.7 
			79.1,122.7 71.7,122.8 71.7,122.8 84.8,123 95.6,123 79.7,123.1 81.9,123.2 88.6,123.4 100.9,123.4 158.5,123.6 147.8,123.6 
			55.3,123.8 56.8,123.8 73.3,123.9 102.6,124.1 103.3,124.1 67.8,124.3 78.7,124.3 102.4,124.4 97.8,124.5 70.5,124.7 73.6,124.8 
			83,124.9 82.6,124.9 83.4,125 82.5,125 70.8,125.2 73.4,125.2 83.4,125.3 82.3,125.3 54.8,125.4 56.8,125.5 97.1,125.8 
			95.2,125.9 69.6,126.1 71.8,126.1 93.7,126.4 93.1,126.4 71.9,126.8 72.6,126.8 74,126.9 72.3,127 73.5,127.1 74.1,127.1 
			70.9,127.2 71.3,127.3 88.2,127.4 86.7,127.5 95.6,127.6 113.6,127.7 105.3,127.7 83.5,127.9 83.5,127.9 83.8,128 82.6,128 
			83.4,128.1 93.2,128.2 135,128.3 149.2,128.4 142.5,128.4 94.9,128.6 97.3,128.6 102.6,128.8 101.2,128.9 92.5,128.9 80.9,129 
			82.8,129.1 136.2,129.2 159,129.3 95.3,129.4 101.3,129.5 102.7,129.5 93.6,129.6 98.3,129.7 104,129.8 80.5,129.9 84.9,130 
			131.6,130.1 129.8,130.2 78.4,130.3 89.5,130.4 93.3,130.4 93.2,130.5 79,130.7 78.2,130.8 82.6,130.9 90.1,131 70.8,131.3 
			92.7,131.4 101.1,131.4 99.4,131.5 79.1,131.7 95.6,131.7 122.1,131.9 109,131.9 78.9,132 80.6,132.1 128.7,132.3 121,132.3 
			86,132.5 85.6,132.5 78.7,132.6 79.1,132.7 93,132.8 135.4,132.9 122.3,132.9 86.1,133 86.8,133.1 84.1,133.2 76.1,133.4 
			84.6,133.5 99.2,133.6 75,133.8 68.8,134 78.7,134.2 87.2,134.3 86.7,134.3 83.9,134.4 85.9,134.4 89.1,134.5 87.1,134.5 
			71.6,134.8 70.1,134.8 70.2,134.8 71.1,134.9 71,135 71,135 65.5,135.2 60,135.3 60.6,135.4 91.8,135.5 80,135.6 58,135.7 
			58.5,135.7 65.5,135.8 76,135.9 74.6,136 66.2,136.1 66.6,136.1 69.5,136.3 68.7,136.3 67.2,136.6 67.3,136.6 68.2,136.8 
			68.1,136.9 70.3,137 70,137 69.7,137.1 66.6,137.5 67.3,137.7 67.3,137.8 64.9,138.1 63.7,138.2 64.3,138.2 73.5,138.6 
			66.8,138.8 67.2,138.9 67.5,138.9 67.1,139 62.5,139.1 63.7,139.2 70.2,139.4 73,139.5 71.7,139.6 69.3,139.8 69.5,139.8 
			69.4,139.9 68.2,140 68.6,140 69,140.1 68.3,140.2 68.6,140.2 81.1,140.5 78.1,140.6 60.6,140.7 62.4,140.9 62.6,140.9 61.7,141 
			67.1,141.2 66.6,141.2 62.9,141.3 64.6,141.3 76.8,141.5 76.2,141.6 69.6,141.7 67.7,141.9 73.3,142 72.7,142.1 72.3,142.2 
			72.9,142.2 78.6,142.3 71.1,142.4 71.4,142.4 76.6,142.5 69.6,142.6 70.3,142.6 79.8,142.7 77.1,142.8 73.2,142.9 73.5,142.9 
			85.6,143.1 85.3,143.1 62.9,143.6 64.2,143.6 105.2,143.9 100,143.9 74.4,144 75.2,144.1 74,144.1 74.1,144.2 78.1,144.3 
			93.4,144.4 91,144.4 70.5,144.7 80.1,144.9 78.3,144.9 73.1,145.1 74.6,145.1 83,145.2 80.8,145.3 76.2,145.4 77.1,145.5 
			78.5,145.5 78.1,145.6 75.6,145.7 76.2,145.7 76.1,145.8 80.1,146.1 78.9,146.1 71.9,146.2 51.8,146.4 58.4,146.5 76.5,146.7 
			68.5,146.8 68.8,146.8 81.1,146.9 81.1,147 80.8,147 81.1,147.1 83.4,147.1 67.6,147.3 70.9,147.4 71,147.4 69.7,147.5 
			70.9,147.5 74.5,147.6 87.6,147.8 86,147.8 59.4,148 66.3,148.3 66.2,148.4 67.6,148.6 70.2,148.7 76.7,148.9 76.1,149 76.4,149 
			79,149 98.1,149.2 96.2,149.2 81.6,149.3 65.5,149.4 66,149.4 74.4,149.6 74.1,149.6 82.1,149.8 80.8,149.8 59.1,150 66.2,150.1 
			78.4,150.2 78,150.2 64.1,150.3 79.2,150.4 74.5,150.5 53.6,150.6 72.3,150.7 72.2,150.8 66.8,150.9 67.1,150.9 68.3,151 
			68.8,151.1 68.2,151.1 68.1,151.1 72.7,151.4 71.7,151.4 56.6,151.6 52.5,151.7 52.9,151.8 61.1,151.9 84,152.2 50,152.4 
			51.4,152.5 50.5,152.5 49.6,152.6 49.7,152.6 52.7,152.7 59.6,152.8 58.7,152.9 54.3,153 55.1,153 63.3,153.1 107.9,153.3 
			101.6,153.4 77.8,153.6 78.5,153.7 93.5,153.8 93,153.9 79.3,154 75.9,154.1 78,154.1 80.1,154.2 79.5,154.2 71.3,154.3 
			54.2,154.4 57.1,154.5 89.9,154.7 86.9,154.8 63.2,155.1 64.8,155.1 62.9,155.2 63.6,155.3 61.8,155.4 53.8,155.6 71.1,155.7 
			80,155.8 79.8,155.9 75.4,156 76.2,156 77.5,156.1 77.4,156.1 73.5,156.2 60.1,156.4 61.7,156.5 89.9,156.7 56.2,157.1 
			56.8,157.3 66.5,157.4 85.2,157.6 78.7,157.7 67.9,157.9 68.2,158 68.6,158 76.8,158.1 99.4,158.2 56.1,158.6 59.3,158.7 
			70.5,158.8 91.6,159 89.8,159 82.8,159.1 85.2,159.1 133.3,159.2 125.7,159.3 85.3,159.4 86.3,159.4 86.1,159.5 87.1,159.6 
			86.6,159.6 86.3,159.7 81.2,159.8 53.4,159.9 60.5,160 93.8,160.2 93.8,160.2 93.6,160.3 86.7,160.6 86.8,160.6 91.2,160.7 
			94.2,160.8 93.1,160.9 75.1,161 59.4,161 60.8,161.1 60.2,161.1 60.4,161.2 62,161.2 62,161.3 50.8,161.4 53.6,161.4 64.4,161.5 
			59.8,161.6 58.7,161.6 60,161.6 59.3,161.7 60.7,161.7 100,162 122,162.1 69,162.4 68.9,162.4 63.5,162.6 50.1,162.8 54.6,162.8 
			62.4,163 65.2,163.1 55.9,163.2 57.8,163.2 61.2,163.3 72.9,163.6 73.1,163.6 69.4,163.8 65.6,163.8 66.1,163.8 89.9,164 
			192.3,164.4 194.7,164.4 193.9,164.5 191.9,164.5 192.3,164.6 196.8,164.7 195.7,164.8 191,165 184.5,165.2 177.7,165.3 
			177.9,165.3 180.7,165.4 194.6,165.7 194.3,165.7 184,165.9 185.1,166 185.2,166 181,166.2 186.1,166.4 195.7,166.6 186.5,166.7 
			161.7,166.9 163.4,167 180.9,167.2 180.8,167.2 180.3,167.3 171.1,167.5 172.2,167.5 189,167.7 187.5,167.7 166.9,167.9 
			168.6,168 164.5,168.1 165.8,168.1 183,168.3 177.7,168.4 169.1,168.5 176,168.7 168.1,168.8 169.8,168.8 179.7,169 172.9,169.2 
			173.1,169.2 172.2,169.3 182.3,169.4 186.4,169.5 185.7,169.5 163.8,169.7 157.9,169.8 159.3,169.8 176,169.9 175,169.9 
			169.8,170 171.3,170.1 185.5,170.3 186.6,170.4 186.1,170.4 186.1,170.5 186.5,170.5 178.4,170.6 156.3,170.8 174.2,171 
			171.9,171 170.2,171.1 172.6,171.1 184.9,171.2 178.4,171.2 151.8,171.4 186.1,171.6 184,171.6 161.6,171.8 166,172 189.2,172.1 
			188,172.2 185.7,172.4 184.2,172.4 198.9,172.7 197.5,172.7 160.3,172.9 134.7,173 135.6,173.1 187.8,173.3 185.3,173.3 
			160,173.4 164.8,173.5 196.7,173.6 194.6,173.7 187,173.8 189.1,173.9 218.2,174.3 220,174.4 218.9,174.4 149,174.6 151.4,174.8 
			151.9,174.9 151.8,174.9 137.6,175.2 138.8,175.2 203.4,175.4 199.4,175.5 196.5,175.6 198.2,175.6 200.8,175.7 176.1,175.9 
			180.8,176 199.4,176.1 195.9,176.1 184.4,176.3 184.5,176.3 200.1,176.7 210.2,176.7 209.1,176.8 168,177 171.2,177.1 
			172.6,177.1 152.8,177.3 154.7,177.4 164.1,177.6 163.4,177.6 171.5,177.7 175.3,177.7 171.1,177.8 130.6,178 134.5,178 
			180,178.3 176.2,178.4 180.2,178.5 185.8,178.6 184.4,178.6 137.1,179 99.9,179.1 103.1,179.2 162.4,179.4 152.1,179.5 
			128.1,179.6 128.7,179.6 142,180 141.6,180.1 147.5,180.2 161.7,180.4 151.1,180.5 151.7,180.6 167.8,180.7 163.9,180.8 
			166.5,180.9 173,181 171.7,181.1 128.6,181.4 130.4,181.4 156.6,181.6 196.9,181.9 188.2,182 181.3,182 185.1,182.1 189,182.2 
			188.4,182.2 183.6,182.3 156.3,182.5 159,182.6 173.7,182.7 182.1,183 181.2,183 158.6,183.4 156.3,183.5 157.5,183.5 
			162.4,183.7 168.3,183.8 142.3,183.8 157.9,183.9 185.1,184.1 		"/>
	</g>
	<g>
		<defs>
			<rect id="SVGID_3_" x="39.5" y="11.2" width="189.1" height="194.6"/>
		</defs>
		<clipPath id="SVGID_4_">
			<use xlink:href="#SVGID_3_"  style="overflow:visible;"/>
		</clipPath>
		<polyline class="st2" points="110.2,32.8 110.2,55 101.1,55.1 101.1,66.8 106.7,67 106.7,88.3 119.2,88.5 119.2,98.4 81.5,98.6 
			81.5,140.4 73.6,140.6 73.6,151.2 71,151.3 71,163 179.1,163.2 179.1,180.7 172.1,180.8 172.1,196.9 		"/>
	</g>
	<line class="st3" x1="39.5" y1="205.7" x2="39.5" y2="11.2"/>
	<line class="st3" x1="228.6" y1="205.7" x2="228.6" y2="11.2"/>
	<line class="st3" x1="39.5" y1="205.7" x2="228.6" y2="205.7"/>
	<line class="st3" x1="39.5" y1="11.2" x2="228.6" y2="11.2"/>
</g>
</svg>
