<svg id="Layer_1" data-name="Layer 1" xmlns="http://www.w3.org/2000/svg" xmlns:xlink="http://www.w3.org/1999/xlink" viewBox="0 0 239.76 239.76"><defs><style>.cls-1,.cls-12,.cls-15,.cls-5,.cls-6,.cls-9{fill:none;}.cls-2{clip-path:url(#clip-path);}.cls-3{fill:red;}.cls-11,.cls-14,.cls-3,.cls-8{opacity:0.4;isolation:isolate;}.cls-4,.cls-6{stroke:#000;stroke-width:0.8px;}.cls-12,.cls-15,.cls-4,.cls-5,.cls-9{stroke-linejoin:round;}.cls-5{stroke:red;}.cls-12,.cls-15,.cls-5,.cls-6,.cls-9{stroke-linecap:square;}.cls-12,.cls-15,.cls-5,.cls-9{stroke-width:1.5px;}.cls-7{clip-path:url(#clip-path-42);}.cls-8{fill:blue;}.cls-9{stroke:blue;}.cls-10{clip-path:url(#clip-path-90);}.cls-11{fill:orange;}.cls-12{stroke:orange;}.cls-13{clip-path:url(#clip-path-135);}.cls-14{fill:purple;}.cls-15{stroke:purple;}.cls-16,.cls-17,.cls-18,.cls-19{font-size:14px;font-family:Arial-Black, Arial;font-weight:800;}.cls-16{fill:#ff9815;}.cls-17{fill:#f40000;}.cls-18{fill:#0032ff;}.cls-19{fill:#a500ff;}</style><clipPath id="clip-path"><rect class="cls-1" x="38.27" y="13.88" width="88.19" height="81.96"/></clipPath><clipPath id="clip-path-42"><rect class="cls-1" x="140.76" y="13.88" width="88.19" height="81.96"/></clipPath><clipPath id="clip-path-90"><rect class="cls-1" x="38.27" y="115.84" width="88.19" height="81.96"/></clipPath><clipPath id="clip-path-135"><rect class="cls-1" x="140.76" y="115.84" width="88.19" height="81.96"/></clipPath></defs><g id="figure_1" data-name="figure 1"><g id="patch_1" data-name="patch 1"><path class="cls-1" d="M0,239.76H239.76V0H0Z"/></g><g id="axes_1" data-name="axes 1"><g id="patch_2" data-name="patch 2"><path class="cls-1" d="M38.27,95.84h88.19v-82H38.27Z"/></g><g id="patch_3" data-name="patch 3"><g class="cls-2"><path class="cls-3" d="M43.36,95.84h.29V85.06h-.29Z"/></g></g><g id="patch_4" data-name="patch 4"><g class="cls-2"><path class="cls-3" d="M43.65,95.84h.29V77.42h-.29Z"/></g></g><g id="patch_5" data-name="patch 5"><g class="cls-2"><path class="cls-3" d="M43.94,95.84h.3V70.14h-.3Z"/></g></g><g id="patch_6" data-name="patch 6"><g class="cls-2"><path class="cls-3" d="M44.24,95.84h.29V80.55h-.29Z"/></g></g><g id="patch_7" data-name="patch 7"><g class="cls-2"><path class="cls-3" d="M44.53,95.84h.29V68.61h-.29Z"/></g></g><g id="patch_8" data-name="patch 8"><g class="cls-2"><path class="cls-3" d="M44.82,95.84h.3V71.52h-.3Z"/></g></g><g id="patch_9" data-name="patch 9"><g class="cls-2"><path class="cls-3" d="M45.12,95.84h.29V74.21h-.29Z"/></g></g><g id="patch_10" data-name="patch 10"><g class="cls-2"><path class="cls-3" d="M45.41,95.84h.3V49.53h-.3Z"/></g></g><g id="patch_11" data-name="patch 11"><g class="cls-2"><path class="cls-3" d="M45.71,95.84H46V35.18h-.29Z"/></g></g><g id="patch_12" data-name="patch 12"><g class="cls-2"><path class="cls-3" d="M46,95.84h.29V19.24H46Z"/></g></g><g id="patch_13" data-name="patch 13"><g class="cls-2"><path class="cls-3" d="M46.29,95.84h.3V17.78h-.3Z"/></g></g><g id="patch_14" data-name="patch 14"><g class="cls-2"><path class="cls-3" d="M46.59,95.84h.29V22h-.29Z"/></g></g><g id="patch_15" data-name="patch 15"><g class="cls-2"><path class="cls-3" d="M46.88,95.84h.29V40.35h-.29Z"/></g></g><g id="patch_16" data-name="patch 16"><g class="cls-2"><path class="cls-3" d="M47.17,95.84h.3V49.31h-.3Z"/></g></g><g id="patch_17" data-name="patch 17"><g class="cls-2"><path class="cls-3" d="M47.47,95.84h.29V38.32h-.29Z"/></g></g><g id="patch_18" data-name="patch 18"><g class="cls-2"><path class="cls-3" d="M47.76,95.84h.29V36.64h-.29Z"/></g></g><g id="patch_19" data-name="patch 19"><g class="cls-2"><path class="cls-3" d="M48.05,95.84h.3V31.76h-.3Z"/></g></g><g id="patch_20" data-name="patch 20"><g class="cls-2"><path class="cls-3" d="M48.35,95.84h.29V32.34h-.29Z"/></g></g><g id="patch_21" data-name="patch 21"><g class="cls-2"><path class="cls-3" d="M48.64,95.84h.3v-55h-.3Z"/></g></g><g id="patch_22" data-name="patch 22"><g class="cls-2"><path class="cls-3" d="M48.94,95.84h.29V28.27h-.29Z"/></g></g><g id="patch_23" data-name="patch 23"><g class="cls-2"><path class="cls-3" d="M49.23,95.84h.29V42h-.29Z"/></g></g><g id="patch_24" data-name="patch 24"><g class="cls-2"><path class="cls-3" d="M49.52,95.84h.3V53.53h-.3Z"/></g></g><g id="patch_25" data-name="patch 25"><g class="cls-2"><path class="cls-3" d="M49.82,95.84h.29V52.15h-.29Z"/></g></g><g id="patch_26" data-name="patch 26"><g class="cls-2"><path class="cls-3" d="M50.11,95.84h.29V58.92h-.29Z"/></g></g><g id="patch_27" data-name="patch 27"><g class="cls-2"><path class="cls-3" d="M50.4,95.84h.3V68.1h-.3Z"/></g></g><g id="patch_28" data-name="patch 28"><g class="cls-2"><path class="cls-3" d="M50.7,95.84H51V55.21H50.7Z"/></g></g><g id="patch_29" data-name="patch 29"><g class="cls-2"><path class="cls-3" d="M51,95.84h.3V39.26H51Z"/></g></g><g id="patch_30" data-name="patch 30"><g class="cls-2"><path class="cls-3" d="M51.29,95.84h.29V44.29h-.29Z"/></g></g><g id="patch_31" data-name="patch 31"><g class="cls-2"><path class="cls-3" d="M51.58,95.84h.29V52.51h-.29Z"/></g></g><g id="patch_32" data-name="patch 32"><g class="cls-2"><path class="cls-3" d="M51.87,95.84h.3V56.23h-.3Z"/></g></g><g id="patch_33" data-name="patch 33"><g class="cls-2"><path class="cls-3" d="M52.17,95.84h.29V77.93h-.29Z"/></g></g><g id="patch_34" data-name="patch 34"><g class="cls-2"><path class="cls-3" d="M52.46,95.84h.29V83.24h-.29Z"/></g></g><g id="patch_35" data-name="patch 35"><g class="cls-2"><path class="cls-3" d="M52.75,95.84h.3V83.1h-.3Z"/></g></g><g id="patch_36" data-name="patch 36"><g class="cls-2"><path class="cls-3" d="M53.05,95.84h.29V82.51h-.29Z"/></g></g><g id="patch_37" data-name="patch 37"><g class="cls-2"><path class="cls-3" d="M53.34,95.84h.3V77.56h-.3Z"/></g></g><g id="patch_38" data-name="patch 38"><g class="cls-2"><path class="cls-3" d="M53.64,95.84h.29V74.29h-.29Z"/></g></g><g id="patch_39" data-name="patch 39"><g class="cls-2"><path class="cls-3" d="M53.93,95.84h.29V77.56h-.29Z"/></g></g><g id="patch_40" data-name="patch 40"><g class="cls-2"><path class="cls-3" d="M54.22,95.84h.3V83.1h-.3Z"/></g></g><g id="patch_41" data-name="patch 41"><g class="cls-2"><path class="cls-3" d="M54.52,95.84h.29V83.32h-.29Z"/></g></g><g id="patch_42" data-name="patch 42"><g class="cls-2"><path class="cls-3" d="M54.81,95.84h.29V93.73h-.29Z"/></g></g><g id="matplotlib.axis_1" data-name="matplotlib.axis 1"><g id="xtick_1" data-name="xtick 1"><g id="line2d_1" data-name="line2d 1"><path id="m2942d698e0" class="cls-4" d="M44.9,95.84v3.5"/></g></g><g id="xtick_2" data-name="xtick 2"><g id="line2d_2" data-name="line2d 2"><path id="m2942d698e0-2" data-name="m2942d698e0" class="cls-4" d="M72.54,95.84v3.5"/></g></g><g id="xtick_3" data-name="xtick 3"><g id="line2d_3" data-name="line2d 3"><path id="m2942d698e0-3" data-name="m2942d698e0" class="cls-4" d="M100.17,95.84v3.5"/></g></g></g><g id="matplotlib.axis_2" data-name="matplotlib.axis 2"><g id="ytick_1" data-name="ytick 1"><g id="line2d_4" data-name="line2d 4"><path id="md36c59c1ae" class="cls-4" d="M38.27,95.84h-3.5"/></g><g id="text_1" data-name="text 1"><path id="DejaVuSans-48" d="M28.09,93a1.23,1.23,0,0,0-1.15.75,6.85,6.85,0,0,0,0,4.5,1.26,1.26,0,0,0,2.3,0,6.85,6.85,0,0,0,0-4.5A1.23,1.23,0,0,0,28.09,93Zm0-.78a2.11,2.11,0,0,1,1.87,1,6.4,6.4,0,0,1,0,5.62,2.3,2.3,0,0,1-3.75,0,6.49,6.49,0,0,1,0-5.62A2.11,2.11,0,0,1,28.09,92.22Z"/></g></g><g id="ytick_2" data-name="ytick 2"><g id="line2d_5" data-name="line2d 5"><path id="md36c59c1ae-2" data-name="md36c59c1ae" class="cls-4" d="M38.27,55.29h-3.5"/></g><g id="text_2" data-name="text 2"><path id="DejaVuSans-49" d="M26.15,58.26h1.61V52.7L26,53.05v-.9l1.74-.35h1v6.46h1.61v.83h-4.2Z"/></g></g><g id="ytick_3" data-name="ytick 3"><g id="line2d_6" data-name="line2d 6"><path id="md36c59c1ae-3" data-name="md36c59c1ae" class="cls-4" d="M38.27,14.74h-3.5"/></g><g id="text_3" data-name="text 3"><path id="DejaVuSans-50" d="M26.83,17.71h3.44v.83H25.64v-.83q.55-.59,1.53-1.56c.65-.65,1-1.07,1.22-1.26a5.51,5.51,0,0,0,.66-.9,1.56,1.56,0,0,0,.19-.73,1.23,1.23,0,0,0-.41-.95A1.55,1.55,0,0,0,27.77,12a3.18,3.18,0,0,0-1,.16,5.41,5.41,0,0,0-1.1.49v-1a7.87,7.87,0,0,1,1.11-.36,4.25,4.25,0,0,1,.95-.12,2.78,2.78,0,0,1,1.81.56,1.92,1.92,0,0,1,.67,1.52,2.22,2.22,0,0,1-.17.85,4.32,4.32,0,0,1-.61.95c-.08.09-.34.37-.78.82Z"/></g></g><g id="text_4" data-name="text 4"><path id="DejaVuSans-68" d="M12.35,71.9H18V70.71a3,3,0,0,0-.69-2.21,2.88,2.88,0,0,0-2.16-.7,2.86,2.86,0,0,0-2.14.7,3.09,3.09,0,0,0-.68,2.21Zm-.81,1v-2a4.58,4.58,0,0,1,.88-3.11,3.5,3.5,0,0,1,2.75-1,3.49,3.49,0,0,1,2.77,1,4.55,4.55,0,0,1,.89,3.1v2Z"/><path id="DejaVuSans-101" d="M15.87,60.55h.44v4.13a2.08,2.08,0,0,0,1.41-.56,1.89,1.89,0,0,0,.49-1.39,3.78,3.78,0,0,0-.13-1,4.26,4.26,0,0,0-.38-1h.85a4.94,4.94,0,0,1,.31,1,5.07,5.07,0,0,1,.11,1,2.64,2.64,0,0,1-2.82,2.84A3,3,0,0,1,14,64.89a2.5,2.5,0,0,1-.79-2,2.21,2.21,0,0,1,.71-1.74A2.74,2.74,0,0,1,15.87,60.55Zm-.27.9a1.65,1.65,0,0,0-1.17.41A1.39,1.39,0,0,0,14,62.93a1.69,1.69,0,0,0,.42,1.2,1.85,1.85,0,0,0,1.2.52Z"/><path id="DejaVuSans-110" d="M15.53,54.53h3.3v.89H15.56a1.9,1.9,0,0,0-1.17.31,1.09,1.09,0,0,0-.38.91,1.46,1.46,0,0,0,.46,1.14,1.82,1.82,0,0,0,1.27.42h3.09v.91H13.36V58.2h.85a2.06,2.06,0,0,1-.74-.76,2,2,0,0,1-.24-1A1.74,1.74,0,0,1,13.81,55,2.65,2.65,0,0,1,15.53,54.53Z"/><path id="DejaVuSans-115" d="M13.52,49.25h.85a3.26,3.26,0,0,0-.29.79,3.41,3.41,0,0,0-.1.85,2,2,0,0,0,.2,1,.68.68,0,0,0,.62.34.58.58,0,0,0,.49-.24,2.85,2.85,0,0,0,.34-1l.07-.31a2.84,2.84,0,0,1,.58-1.36,1.33,1.33,0,0,1,1-.4,1.43,1.43,0,0,1,1.21.6A2.77,2.77,0,0,1,19,51.22a4.92,4.92,0,0,1-.09.91,7.42,7.42,0,0,1-.25,1H17.7a5.34,5.34,0,0,0,.39-1,4,4,0,0,0,.13-.95,1.87,1.87,0,0,0-.22-1,.69.69,0,0,0-.61-.34.65.65,0,0,0-.56.25,2.92,2.92,0,0,0-.38,1.08l-.07.31a2.48,2.48,0,0,1-.54,1.21,1.38,1.38,0,0,1-1,.37,1.42,1.42,0,0,1-1.19-.55A2.51,2.51,0,0,1,13.23,51a5.53,5.53,0,0,1,.07-.94A4,4,0,0,1,13.52,49.25Z"/><path id="DejaVuSans-105" d="M13.36,47.53v-.9h5.47v.9Zm-2.13,0v-.9h1.14v.9Z"/><path id="DejaVuSans-116" d="M11.81,43.86h1.55V42h.7v1.85h3a1.38,1.38,0,0,0,.86-.18,1.13,1.13,0,0,0,.19-.75V42h.75v.92a2.07,2.07,0,0,1-.39,1.44,2,2,0,0,1-1.41.39h-3v.66h-.7v-.66H11.81Z"/><path id="DejaVuSans-121" d="M19.34,38.55a3.22,3.22,0,0,1,1.27.74,1.48,1.48,0,0,1,.3,1V41h-.75v-.53a.86.86,0,0,0-.18-.58,2.41,2.41,0,0,0-.83-.45l-.41-.16-5.38,2.21v-.95l4.28-1.71L13.36,37.1v-1Z"/></g></g><g id="line2d_7" data-name="line2d 7"><g class="cls-2"><path class="cls-5" d="M42.28,95.83l.14,0,.14-.09.14-.23.14-.49.14-.89.14-1.43.14-2.07.14-2.65.14-3,.14-3.11L43.82,79,44,77l.14-1.29.14-.8.15-.71.14-.91.14-1.09L44.81,71,45,69.5l.14-2.15L45.23,64l.14-4.73.14-5.92.14-6.57.14-6.56.14-6,.14-4.94.14-3.56.14-1.9.14-.07.14,1.68.14,3.11.14,3.88.14,3.82.14,3,.14,1.59.14.17.15-.92.14-1.48L47.9,37,48,35.71l.14-.93.14-.48.14-.07.14.2.14.4.14.64L49,36.58l.14,1.78.14,2.47.14,2.92.14,3,.14,2.9.14,2.68L50,54.82,50.14,57l.14,1.61.14.65.14-.66.14-2,.14-3,.15-3.1.14-2.39.14-1.06.14.4.14,1.69.14,2.75.14,3.63.14,4.4.14,4.93.14,5,.14,4.49.14,3.51.14,2.34.14,1.23.14.34.14-.33.14-.77.14-1,.14-1,.14-.77.14-.28.14.32.14.89.15,1.36.14,1.7.14,1.94.14,2.12.14,2.21.14,2.15.14,1.88.14,1.48.14,1,.14.62.14.33.14.16.14.06.14,0h.14"/></g></g><g id="patch_43" data-name="patch 43"><path class="cls-6" d="M38.27,95.84v-82"/></g><g id="patch_44" data-name="patch 44"><path class="cls-6" d="M126.46,95.84v-82"/></g><g id="patch_45" data-name="patch 45"><path class="cls-6" d="M38.27,95.84h88.19"/></g><g id="patch_46" data-name="patch 46"><path class="cls-6" d="M38.27,13.88h88.19"/></g></g><g id="axes_2" data-name="axes 2"><g id="patch_47" data-name="patch 47"><path class="cls-1" d="M140.76,95.84H229v-82h-88.2Z"/></g><g id="patch_48" data-name="patch 48"><g class="cls-7"><path class="cls-8" d="M152.41,95.84h1.42V88.47h-1.42Z"/></g></g><g id="patch_49" data-name="patch 49"><g class="cls-7"><path class="cls-8" d="M153.83,95.84h1.42V83.37h-1.42Z"/></g></g><g id="patch_50" data-name="patch 50"><g class="cls-7"><path class="cls-8" d="M155.25,95.84h1.43V66.57h-1.43Z"/></g></g><g id="patch_51" data-name="patch 51"><g class="cls-7"><path class="cls-8" d="M156.68,95.84h1.42V65.7h-1.42Z"/></g></g><g id="patch_52" data-name="patch 52"><g class="cls-7"><path class="cls-8" d="M158.1,95.84h1.42V73.32H158.1Z"/></g></g><g id="patch_53" data-name="patch 53"><g class="cls-7"><path class="cls-8" d="M159.52,95.84h1.42V75.26h-1.42Z"/></g></g><g id="patch_54" data-name="patch 54"><g class="cls-7"><path class="cls-8" d="M160.94,95.84h1.42v-12h-1.42Z"/></g></g><g id="patch_55" data-name="patch 55"><g class="cls-7"><path class="cls-8" d="M162.36,95.84h1.43V84.29h-1.43Z"/></g></g><g id="patch_56" data-name="patch 56"><g class="cls-7"><path class="cls-8" d="M163.79,95.84h1.42V84.72h-1.42Z"/></g></g><g id="patch_57" data-name="patch 57"><g class="cls-7"><path class="cls-8" d="M165.21,95.84h1.42V82.45h-1.42Z"/></g></g><g id="patch_58" data-name="patch 58"><g class="cls-7"><path class="cls-8" d="M166.63,95.84h1.42V80.08h-1.42Z"/></g></g><g id="patch_59" data-name="patch 59"><g class="cls-7"><path class="cls-8" d="M168.05,95.84h1.42V86.17h-1.42Z"/></g></g><g id="patch_60" data-name="patch 60"><g class="cls-7"><path class="cls-8" d="M169.47,95.84h1.43V86.09h-1.43Z"/></g></g><g id="patch_61" data-name="patch 61"><g class="cls-7"><path class="cls-8" d="M170.9,95.84h1.42V86.76H170.9Z"/></g></g><g id="patch_62" data-name="patch 62"><g class="cls-7"><path class="cls-8" d="M172.32,95.84h1.42V90.4h-1.42Z"/></g></g><g id="patch_63" data-name="patch 63"><g class="cls-7"><path class="cls-8" d="M173.74,95.84h1.42V92.43h-1.42Z"/></g></g><g id="patch_64" data-name="patch 64"><g class="cls-7"><path class="cls-8" d="M175.16,95.84h1.43V91.73h-1.43Z"/></g></g><g id="patch_65" data-name="patch 65"><g class="cls-7"><path class="cls-8" d="M176.59,95.84H178V87.18h-1.42Z"/></g></g><g id="patch_66" data-name="patch 66"><g class="cls-7"><path class="cls-8" d="M178,95.84h1.42V86.5H178Z"/></g></g><g id="patch_67" data-name="patch 67"><g class="cls-7"><path class="cls-8" d="M179.43,95.84h1.42v-8h-1.42Z"/></g></g><g id="patch_68" data-name="patch 68"><g class="cls-7"><path class="cls-8" d="M180.85,95.84h1.42V87.57h-1.42Z"/></g></g><g id="patch_69" data-name="patch 69"><g class="cls-7"><path class="cls-8" d="M182.27,95.84h1.43V90.2h-1.43Z"/></g></g><g id="patch_70" data-name="patch 70"><g class="cls-7"><path class="cls-8" d="M183.7,95.84h1.42V90.52H183.7Z"/></g></g><g id="patch_71" data-name="patch 71"><g class="cls-7"><path class="cls-8" d="M185.12,95.84h1.42V89.25h-1.42Z"/></g></g><g id="patch_72" data-name="patch 72"><g class="cls-7"><path class="cls-8" d="M186.54,95.84H188v-5h-1.42Z"/></g></g><g id="patch_73" data-name="patch 73"><g class="cls-7"><path class="cls-8" d="M188,95.84h1.42V92.41H188Z"/></g></g><g id="patch_74" data-name="patch 74"><g class="cls-7"><path class="cls-8" d="M189.38,95.84h1.43V92h-1.43Z"/></g></g><g id="patch_75" data-name="patch 75"><g class="cls-7"><path class="cls-8" d="M190.81,95.84h1.42v-3.2h-1.42Z"/></g></g><g id="patch_76" data-name="patch 76"><g class="cls-7"><path class="cls-8" d="M192.23,95.84h1.42V93h-1.42Z"/></g></g><g id="patch_77" data-name="patch 77"><g class="cls-7"><path class="cls-8" d="M193.65,95.84h1.42V93.72h-1.42Z"/></g></g><g id="patch_78" data-name="patch 78"><g class="cls-7"><path class="cls-8" d="M195.07,95.84h1.42V94.11h-1.42Z"/></g></g><g id="patch_79" data-name="patch 79"><g class="cls-7"><path class="cls-8" d="M196.49,95.84h1.43v-1.1h-1.43Z"/></g></g><g id="patch_80" data-name="patch 80"><g class="cls-7"><path class="cls-8" d="M197.92,95.84h1.42v-.6h-1.42Z"/></g></g><g id="patch_81" data-name="patch 81"><g class="cls-7"><path class="cls-8" d="M199.34,95.84h1.42v-.63h-1.42Z"/></g></g><g id="patch_82" data-name="patch 82"><g class="cls-7"><path class="cls-8" d="M200.76,95.84h1.42v-.57h-1.42Z"/></g></g><g id="patch_83" data-name="patch 83"><g class="cls-7"><path class="cls-8" d="M202.18,95.84h1.42v-.5h-1.42Z"/></g></g><g id="patch_84" data-name="patch 84"><g class="cls-7"><path class="cls-8" d="M203.6,95.84H205v-.48H203.6Z"/></g></g><g id="patch_85" data-name="patch 85"><g class="cls-7"><path class="cls-8" d="M205,95.84h1.42V95.4H205Z"/></g></g><g id="patch_86" data-name="patch 86"><g class="cls-7"><path class="cls-8" d="M206.45,95.84h1.42v-.65h-1.42Z"/></g></g><g id="patch_87" data-name="patch 87"><g class="cls-7"><path class="cls-8" d="M207.87,95.84h1.42v-.66h-1.42Z"/></g></g><g id="patch_88" data-name="patch 88"><g class="cls-7"><path class="cls-8" d="M209.29,95.84h1.43V95h-1.43Z"/></g></g><g id="patch_89" data-name="patch 89"><g class="cls-7"><path class="cls-8" d="M210.72,95.84h1.42v-.71h-1.42Z"/></g></g><g id="patch_90" data-name="patch 90"><g class="cls-7"><path class="cls-8" d="M212.14,95.84h1.42v-1h-1.42Z"/></g></g><g id="patch_91" data-name="patch 91"><g class="cls-7"><path class="cls-8" d="M213.56,95.84H215V94.4h-1.42Z"/></g></g><g id="patch_92" data-name="patch 92"><g class="cls-7"><path class="cls-8" d="M215,95.84h1.42v-1H215Z"/></g></g><g id="patch_93" data-name="patch 93"><g class="cls-7"><path class="cls-8" d="M216.4,95.84h1.43V94.7H216.4Z"/></g></g><g id="patch_94" data-name="patch 94"><g class="cls-7"><path class="cls-8" d="M217.83,95.84h1.42V94.07h-1.42Z"/></g></g><g id="matplotlib.axis_3" data-name="matplotlib.axis 3"><g id="xtick_4" data-name="xtick 4"><g id="line2d_8" data-name="line2d 8"><path id="m2942d698e0-4" data-name="m2942d698e0" class="cls-4" d="M147.4,95.84v3.5"/></g></g><g id="xtick_5" data-name="xtick 5"><g id="line2d_9" data-name="line2d 9"><path id="m2942d698e0-5" data-name="m2942d698e0" class="cls-4" d="M175,95.84v3.5"/></g></g><g id="xtick_6" data-name="xtick 6"><g id="line2d_10" data-name="line2d 10"><path id="m2942d698e0-6" data-name="m2942d698e0" class="cls-4" d="M202.67,95.84v3.5"/></g></g></g><g id="matplotlib.axis_4" data-name="matplotlib.axis 4"><g id="ytick_4" data-name="ytick 4"><g id="line2d_11" data-name="line2d 11"><path id="md36c59c1ae-4" data-name="md36c59c1ae" class="cls-4" d="M140.76,95.84h-3.5"/></g></g><g id="ytick_5" data-name="ytick 5"><g id="line2d_12" data-name="line2d 12"><path id="md36c59c1ae-5" data-name="md36c59c1ae" class="cls-4" d="M140.76,55.29h-3.5"/></g></g><g id="ytick_6" data-name="ytick 6"><g id="line2d_13" data-name="line2d 13"><path id="md36c59c1ae-6" data-name="md36c59c1ae" class="cls-4" d="M140.76,14.74h-3.5"/></g></g></g><g id="line2d_14" data-name="line2d 14"><g class="cls-7"><path class="cls-9" d="M146.71,95.83l.79,0,.79-.07.79-.18.79-.42.79-.82.79-1.42.79-2.19.79-3,.79-3.75.79-4.09L155.4,76l.79-2.92.79-1.53.79-.06.79,1.13.79,1.86.79,2.17.79,2.17.79,1.9.79,1.45.79.86.79.3.79-.1.79-.22.8-.07.79.27.79.62.79.84.79.91.79.9.79.91.79.94.79.93.79.77.79.43h.79L176,90l.79-.72.79-.74.79-.57.79-.28.79,0,.79.26.79.42.79.48.79.45.79.37.79.27.79.24.79.27.79.33.79.39.79.38.8.35.79.29.79.27.79.26.79.27.79.27.79.28.79.28.79.29.79.27.79.25.79.21.79.16.79.11.79.07.79,0,.79,0,.79,0,.79,0h1.58l.79,0,.79,0,.79-.05.79,0,.79,0,.79,0,.79,0,.8-.06.79-.07.79-.07.79-.06.79,0h1.58l.79,0,.79.07.79.13.79.18.79.2.79.19.79.14.79.1.79,0,.79,0H225"/></g></g><g id="patch_95" data-name="patch 95"><path class="cls-6" d="M140.76,95.84v-82"/></g><g id="patch_96" data-name="patch 96"><path class="cls-6" d="M229,95.84v-82"/></g><g id="patch_97" data-name="patch 97"><path class="cls-6" d="M140.76,95.84H229"/></g><g id="patch_98" data-name="patch 98"><path class="cls-6" d="M140.76,13.88H229"/></g></g><g id="axes_3" data-name="axes 3"><g id="patch_99" data-name="patch 99"><path class="cls-1" d="M38.27,197.8h88.19v-82H38.27Z"/></g><g id="patch_100" data-name="patch 100"><g class="cls-10"><path class="cls-11" d="M61.38,197.8h1.26v-.66H61.38Z"/></g></g><g id="patch_101" data-name="patch 101"><g class="cls-10"><path class="cls-11" d="M62.64,197.8H63.9v-2.33H62.64Z"/></g></g><g id="patch_102" data-name="patch 102"><g class="cls-10"><path class="cls-11" d="M63.9,197.8h1.25v-4.64H63.9Z"/></g></g><g id="patch_103" data-name="patch 103"><g class="cls-10"><path class="cls-11" d="M65.15,197.8h1.26v-7.34H65.15Z"/></g></g><g id="patch_104" data-name="patch 104"><g class="cls-10"><path class="cls-11" d="M66.41,197.8h1.26V186.94H66.41Z"/></g></g><g id="patch_105" data-name="patch 105"><g class="cls-10"><path class="cls-11" d="M67.67,197.8h1.26V179.9H67.67Z"/></g></g><g id="patch_106" data-name="patch 106"><g class="cls-10"><path class="cls-11" d="M68.93,197.8h1.26V182.33H68.93Z"/></g></g><g id="patch_107" data-name="patch 107"><g class="cls-10"><path class="cls-11" d="M70.19,197.8h1.26V182.39H70.19Z"/></g></g><g id="patch_108" data-name="patch 108"><g class="cls-10"><path class="cls-11" d="M71.45,197.8h1.26v-13H71.45Z"/></g></g><g id="patch_109" data-name="patch 109"><g class="cls-10"><path class="cls-11" d="M72.71,197.8H74V184.24H72.71Z"/></g></g><g id="patch_110" data-name="patch 110"><g class="cls-10"><path class="cls-11" d="M74,197.8h1.26V183.39H74Z"/></g></g><g id="patch_111" data-name="patch 111"><g class="cls-10"><path class="cls-11" d="M75.22,197.8h1.26V185.07H75.22Z"/></g></g><g id="patch_112" data-name="patch 112"><g class="cls-10"><path class="cls-11" d="M76.48,197.8h1.26V183H76.48Z"/></g></g><g id="patch_113" data-name="patch 113"><g class="cls-10"><path class="cls-11" d="M77.74,197.8H79V183.37H77.74Z"/></g></g><g id="patch_114" data-name="patch 114"><g class="cls-10"><path class="cls-11" d="M79,197.8h1.26V186.16H79Z"/></g></g><g id="patch_115" data-name="patch 115"><g class="cls-10"><path class="cls-11" d="M80.26,197.8h1.26V186.14H80.26Z"/></g></g><g id="patch_116" data-name="patch 116"><g class="cls-10"><path class="cls-11" d="M81.52,197.8h1.25V187.48H81.52Z"/></g></g><g id="patch_117" data-name="patch 117"><g class="cls-10"><path class="cls-11" d="M82.77,197.8H84v-13H82.77Z"/></g></g><g id="patch_118" data-name="patch 118"><g class="cls-10"><path class="cls-11" d="M84,197.8h1.26V184.41H84Z"/></g></g><g id="patch_119" data-name="patch 119"><g class="cls-10"><path class="cls-11" d="M85.29,197.8h1.26V184H85.29Z"/></g></g><g id="patch_120" data-name="patch 120"><g class="cls-10"><path class="cls-11" d="M86.55,197.8h1.26V183.3H86.55Z"/></g></g><g id="patch_121" data-name="patch 121"><g class="cls-10"><path class="cls-11" d="M87.81,197.8h1.26V186.55H87.81Z"/></g></g><g id="patch_122" data-name="patch 122"><g class="cls-10"><path class="cls-11" d="M89.07,197.8h1.25V189H89.07Z"/></g></g><g id="patch_123" data-name="patch 123"><g class="cls-10"><path class="cls-11" d="M90.32,197.8h1.26v-7.48H90.32Z"/></g></g><g id="patch_124" data-name="patch 124"><g class="cls-10"><path class="cls-11" d="M91.58,197.8h1.26v-6.41H91.58Z"/></g></g><g id="patch_125" data-name="patch 125"><g class="cls-10"><path class="cls-11" d="M92.84,197.8H94.1v-6.59H92.84Z"/></g></g><g id="patch_126" data-name="patch 126"><g class="cls-10"><path class="cls-11" d="M94.1,197.8h1.26V192H94.1Z"/></g></g><g id="patch_127" data-name="patch 127"><g class="cls-10"><path class="cls-11" d="M95.36,197.8h1.26V193H95.36Z"/></g></g><g id="patch_128" data-name="patch 128"><g class="cls-10"><path class="cls-11" d="M96.62,197.8h1.26v-4.13H96.62Z"/></g></g><g id="patch_129" data-name="patch 129"><g class="cls-10"><path class="cls-11" d="M97.88,197.8h1.25v-3.72H97.88Z"/></g></g><g id="patch_130" data-name="patch 130"><g class="cls-10"><path class="cls-11" d="M99.13,197.8h1.26v-3.93H99.13Z"/></g></g><g id="patch_131" data-name="patch 131"><g class="cls-10"><path class="cls-11" d="M100.39,197.8h1.26V194h-1.26Z"/></g></g><g id="patch_132" data-name="patch 132"><g class="cls-10"><path class="cls-11" d="M101.65,197.8h1.26v-4.06h-1.26Z"/></g></g><g id="patch_133" data-name="patch 133"><g class="cls-10"><path class="cls-11" d="M102.91,197.8h1.26v-3.42h-1.26Z"/></g></g><g id="patch_134" data-name="patch 134"><g class="cls-10"><path class="cls-11" d="M104.17,197.8h1.26V194h-1.26Z"/></g></g><g id="patch_135" data-name="patch 135"><g class="cls-10"><path class="cls-11" d="M105.43,197.8h1.26v-3.57h-1.26Z"/></g></g><g id="patch_136" data-name="patch 136"><g class="cls-10"><path class="cls-11" d="M106.69,197.8h1.25v-4h-1.25Z"/></g></g><g id="patch_137" data-name="patch 137"><g class="cls-10"><path class="cls-11" d="M107.94,197.8h1.26v-2.94h-1.26Z"/></g></g><g id="patch_138" data-name="patch 138"><g class="cls-10"><path class="cls-11" d="M109.2,197.8h1.26v-2.72H109.2Z"/></g></g><g id="patch_139" data-name="patch 139"><g class="cls-10"><path class="cls-11" d="M110.46,197.8h1.26v-2.94h-1.26Z"/></g></g><g id="patch_140" data-name="patch 140"><g class="cls-10"><path class="cls-11" d="M111.72,197.8H113v-3.65h-1.26Z"/></g></g><g id="patch_141" data-name="patch 141"><g class="cls-10"><path class="cls-11" d="M113,197.8h1.26v-3.2H113Z"/></g></g><g id="patch_142" data-name="patch 142"><g class="cls-10"><path class="cls-11" d="M114.24,197.8h1.26v-3h-1.26Z"/></g></g><g id="patch_143" data-name="patch 143"><g class="cls-10"><path class="cls-11" d="M115.5,197.8h1.25v-6.19H115.5Z"/></g></g><g id="matplotlib.axis_5" data-name="matplotlib.axis 5"><g id="xtick_7" data-name="xtick 7"><g id="line2d_15" data-name="line2d 15"><path id="m2942d698e0-7" data-name="m2942d698e0" class="cls-4" d="M44.9,197.8v3.5"/></g><g id="text_5" data-name="text 5"><path id="DejaVuSans-50-2" data-name="DejaVuSans-50" d="M38.87,211.57h3.44v.83H37.68v-.83L39.21,210c.65-.65,1.06-1.08,1.22-1.26a4.52,4.52,0,0,0,.66-.9,1.56,1.56,0,0,0,.19-.73,1.2,1.2,0,0,0-.41-1,1.53,1.53,0,0,0-1.06-.36,3.23,3.23,0,0,0-1,.16,5.41,5.41,0,0,0-1.1.49v-1a7.87,7.87,0,0,1,1.11-.36,4.33,4.33,0,0,1,.95-.12,2.76,2.76,0,0,1,1.81.56,1.88,1.88,0,0,1,.67,1.52,2.05,2.05,0,0,1-.17.85,4,4,0,0,1-.61,1c-.08.09-.34.37-.78.82Z"/><path id="DejaVuSans-46" d="M44.38,211.16h1v1.24h-1Z"/><path id="DejaVuSans-53" d="M47.57,205.11h3.87v.83h-3v1.78a3.77,3.77,0,0,1,.43-.1,2.15,2.15,0,0,1,.43,0,2.71,2.71,0,0,1,1.94.67,2.37,2.37,0,0,1,.71,1.81,2.33,2.33,0,0,1-.73,1.83,3,3,0,0,1-2.07.65,5.94,5.94,0,0,1-.93-.08,7.8,7.8,0,0,1-1-.23v-1a4.06,4.06,0,0,0,.91.35,4,4,0,0,0,1,.12,2,2,0,0,0,1.34-.44,1.74,1.74,0,0,0,0-2.42,2,2,0,0,0-1.34-.44,3.61,3.61,0,0,0-.79.09,4.44,4.44,0,0,0-.8.27Z"/></g></g><g id="xtick_8" data-name="xtick 8"><g id="line2d_16" data-name="line2d 16"><path id="m2942d698e0-8" data-name="m2942d698e0" class="cls-4" d="M72.54,197.8v3.5"/></g><g id="text_6" data-name="text 6"><path id="DejaVuSans-53-2" data-name="DejaVuSans-53" d="M65.67,205.11h3.87v.83h-3v1.78a3,3,0,0,1,.43-.1,2,2,0,0,1,.43,0,2.68,2.68,0,0,1,1.93.67,2.63,2.63,0,0,1,0,3.64,3,3,0,0,1-2.06.65,6.07,6.07,0,0,1-.94-.08,7.66,7.66,0,0,1-1-.23v-1a3.72,3.72,0,0,0,.91.35,4,4,0,0,0,1,.12,1.92,1.92,0,0,0,1.33-.44,1.71,1.71,0,0,0,0-2.42,1.92,1.92,0,0,0-1.33-.44,3.48,3.48,0,0,0-.79.09,4.44,4.44,0,0,0-.8.27Z"/><path id="DejaVuSans-46-2" data-name="DejaVuSans-46" d="M72,211.16h1v1.24H72Z"/><path id="DejaVuSans-48-2" data-name="DejaVuSans-48" d="M77.31,205.76a1.23,1.23,0,0,0-1.15.75,6.85,6.85,0,0,0,0,4.5,1.26,1.26,0,0,0,2.3,0,6.85,6.85,0,0,0,0-4.5A1.23,1.23,0,0,0,77.31,205.76Zm0-.78a2.11,2.11,0,0,1,1.87,1,6.4,6.4,0,0,1,0,5.62,2.3,2.3,0,0,1-3.75,0,6.49,6.49,0,0,1,0-5.62A2.11,2.11,0,0,1,77.31,205Z"/></g></g><g id="xtick_9" data-name="xtick 9"><g id="line2d_17" data-name="line2d 17"><path id="m2942d698e0-9" data-name="m2942d698e0" class="cls-4" d="M100.17,197.8v3.5"/></g><g id="text_7" data-name="text 7"><path id="DejaVuSans-55" d="M93,205.11h4.69v.42l-2.65,6.87h-1l2.49-6.46H93Z"/><path id="DejaVuSans-46-3" data-name="DejaVuSans-46" d="M99.65,211.16h1v1.24h-1Z"/><path id="DejaVuSans-53-3" data-name="DejaVuSans-53" d="M102.84,205.11h3.87v.83h-3v1.78a3.2,3.2,0,0,1,.42-.1,2.15,2.15,0,0,1,.43,0,2.71,2.71,0,0,1,1.94.67,2.37,2.37,0,0,1,.71,1.81,2.33,2.33,0,0,1-.73,1.83,3,3,0,0,1-2.07.65,5.94,5.94,0,0,1-.93-.08,7.8,7.8,0,0,1-1-.23v-1a4.06,4.06,0,0,0,.91.35,4,4,0,0,0,1,.12,2,2,0,0,0,1.34-.44,1.74,1.74,0,0,0,0-2.42,2,2,0,0,0-1.34-.44,3.61,3.61,0,0,0-.79.09,4.71,4.71,0,0,0-.8.27Z"/></g></g><g id="text_8" data-name="text 8"><path id="DejaVuSans-86" d="M48.07,226.08l-2.79-7.29h1l2.32,6.13,2.31-6.13h1l-2.77,7.29Z"/><path id="DejaVuSans-101-2" data-name="DejaVuSans-101" d="M56.89,223.12v.44H52.76a2.08,2.08,0,0,0,.56,1.41,1.93,1.93,0,0,0,1.39.49,4.13,4.13,0,0,0,2-.51v.85a5.68,5.68,0,0,1-1,.31,5.07,5.07,0,0,1-1,.11,2.64,2.64,0,0,1-2.84-2.82,3,3,0,0,1,.73-2.13,2.5,2.5,0,0,1,2-.79,2.21,2.21,0,0,1,1.74.71A2.74,2.74,0,0,1,56.89,223.12Zm-.9-.27a1.65,1.65,0,0,0-.41-1.17,1.35,1.35,0,0,0-1.07-.44,1.69,1.69,0,0,0-1.2.42,1.83,1.83,0,0,0-.52,1.2Z"/><path id="DejaVuSans-108" d="M58.37,218.48h.9v7.6h-.9Z"/><path id="DejaVuSans-111" d="M63.26,221.24a1.36,1.36,0,0,0-1.14.56,2.55,2.55,0,0,0-.42,1.55,2.51,2.51,0,0,0,.42,1.54,1.42,1.42,0,0,0,2.28,0,3,3,0,0,0,0-3.08A1.34,1.34,0,0,0,63.26,221.24Zm0-.76a2.29,2.29,0,0,1,1.84.76,3.64,3.64,0,0,1,0,4.21,2.3,2.3,0,0,1-1.84.77,2.33,2.33,0,0,1-1.84-.77,3.64,3.64,0,0,1,0-4.21A2.32,2.32,0,0,1,63.26,220.48Z"/><path id="DejaVuSans-99" d="M71.2,220.82v.84a3.52,3.52,0,0,0-.76-.32,3,3,0,0,0-.78-.1,1.72,1.72,0,0,0-1.36.55,2.76,2.76,0,0,0,0,3.11,1.73,1.73,0,0,0,1.36.56,3,3,0,0,0,.78-.11,3.47,3.47,0,0,0,.76-.31v.83a4.2,4.2,0,0,1-.78.26,3.91,3.91,0,0,1-.86.09,2.55,2.55,0,0,1-2-.78,3.37,3.37,0,0,1,0-4.2,2.65,2.65,0,0,1,2-.76,4.28,4.28,0,0,1,.81.08A3.49,3.49,0,0,1,71.2,220.82Z"/><path id="DejaVuSans-105-2" data-name="DejaVuSans-105" d="M72.76,220.61h.9v5.47h-.9Zm0-2.13h.9v1.14h-.9Z"/><path id="DejaVuSans-116-2" data-name="DejaVuSans-116" d="M76.43,219.05v1.56h1.85v.7H76.43v3a1.32,1.32,0,0,0,.18.85,1,1,0,0,0,.75.2h.92v.75h-.92a2,2,0,0,1-1.44-.39,2,2,0,0,1-.39-1.41v-3h-.66v-.7h.66v-1.56Z"/><path id="DejaVuSans-121-2" data-name="DejaVuSans-121" d="M81.74,226.58a3.19,3.19,0,0,1-.75,1.28,1.45,1.45,0,0,1-1,.3h-.72v-.76h.53a.83.83,0,0,0,.57-.17,2.32,2.32,0,0,0,.46-.83L81,226l-2.21-5.38h1l1.71,4.27,1.71-4.27h1Z"/><path id="DejaVuSans-40" d="M90.72,218.49a10.19,10.19,0,0,0-1,2.22,8.06,8.06,0,0,0-.31,2.23,7.76,7.76,0,0,0,.32,2.23,9.56,9.56,0,0,0,1,2.23h-.79a10.35,10.35,0,0,1-1.09-2.26,7.1,7.1,0,0,1-.37-2.2,6.72,6.72,0,0,1,.37-2.19,9.92,9.92,0,0,1,1.09-2.26Z"/><path id="DejaVuSans-107" d="M92.42,218.48h.91V223L96,220.61h1.15l-2.9,2.56,3,2.91H96.11l-2.78-2.67v2.67h-.91Z"/><path id="DejaVuSans-109" d="M102.51,221.66a2.37,2.37,0,0,1,.8-.9,2.11,2.11,0,0,1,1.11-.28,1.57,1.57,0,0,1,1.32.6,2.69,2.69,0,0,1,.46,1.7v3.3h-.9V222.8a2,2,0,0,0-.28-1.16,1,1,0,0,0-.85-.38,1.39,1.39,0,0,0-1.11.46,1.86,1.86,0,0,0-.4,1.27v3.09h-.9V222.8a2,2,0,0,0-.28-1.16,1,1,0,0,0-.86-.38,1.38,1.38,0,0,0-1.1.46,1.86,1.86,0,0,0-.4,1.27v3.09h-.9v-5.47h.9v.85a1.94,1.94,0,0,1,.74-.74,2,2,0,0,1,1-.24,1.7,1.7,0,0,1,1,.3A1.76,1.76,0,0,1,102.51,221.66Z"/><path id="DejaVuSans-47" d="M109.59,218.79h.83L107.88,227h-.83Z"/><path id="DejaVuSans-115-2" data-name="DejaVuSans-115" d="M114.85,220.77v.85a3.43,3.43,0,0,0-.79-.29,3.47,3.47,0,0,0-.85-.1,2.07,2.07,0,0,0-1,.2.68.68,0,0,0-.33.62.58.58,0,0,0,.24.49,2.85,2.85,0,0,0,1,.34l.31.07a2.89,2.89,0,0,1,1.36.58,1.32,1.32,0,0,1,.4,1,1.43,1.43,0,0,1-.6,1.21,2.82,2.82,0,0,1-1.66.44,5,5,0,0,1-.92-.09,7.3,7.3,0,0,1-1-.25V225a5.26,5.26,0,0,0,1,.39,4,4,0,0,0,1,.13,1.83,1.83,0,0,0,1-.22.7.7,0,0,0,.35-.61.68.68,0,0,0-.25-.56,2.74,2.74,0,0,0-1.08-.38l-.31-.07a2.48,2.48,0,0,1-1.21-.54,1.34,1.34,0,0,1-.37-1,1.39,1.39,0,0,1,.55-1.19,2.49,2.49,0,0,1,1.55-.42,5.69,5.69,0,0,1,.94.07A4,4,0,0,1,114.85,220.77Z"/><path id="DejaVuSans-41" d="M116.43,218.49h.78a10.41,10.41,0,0,1,1.1,2.26,7,7,0,0,1,.36,2.19,7.08,7.08,0,0,1-.36,2.2,10.41,10.41,0,0,1-1.1,2.26h-.78a10.48,10.48,0,0,0,1-2.23,7.93,7.93,0,0,0,0-4.46A10.63,10.63,0,0,0,116.43,218.49Z"/></g></g><g id="matplotlib.axis_6" data-name="matplotlib.axis 6"><g id="ytick_7" data-name="ytick 7"><g id="line2d_18" data-name="line2d 18"><path id="md36c59c1ae-7" data-name="md36c59c1ae" class="cls-4" d="M38.27,197.8h-3.5"/></g><g id="text_9" data-name="text 9"><path id="DejaVuSans-48-3" data-name="DejaVuSans-48" d="M28.09,195a1.23,1.23,0,0,0-1.15.75,6.85,6.85,0,0,0,0,4.5,1.26,1.26,0,0,0,2.3,0,6.85,6.85,0,0,0,0-4.5A1.23,1.23,0,0,0,28.09,195Zm0-.78a2.11,2.11,0,0,1,1.87,1,6.4,6.4,0,0,1,0,5.62,2.3,2.3,0,0,1-3.75,0,6.49,6.49,0,0,1,0-5.62A2.11,2.11,0,0,1,28.09,194.18Z"/></g></g><g id="ytick_8" data-name="ytick 8"><g id="line2d_19" data-name="line2d 19"><path id="md36c59c1ae-8" data-name="md36c59c1ae" class="cls-4" d="M38.27,157.25h-3.5"/></g><g id="text_10" data-name="text 10"><path id="DejaVuSans-49-2" data-name="DejaVuSans-49" d="M26.15,160.22h1.61v-5.56L26,155v-.9l1.74-.35h1v6.46h1.61v.83h-4.2Z"/></g></g><g id="ytick_9" data-name="ytick 9"><g id="line2d_20" data-name="line2d 20"><path id="md36c59c1ae-9" data-name="md36c59c1ae" class="cls-4" d="M38.27,116.7h-3.5"/></g><g id="text_11" data-name="text 11"><path id="DejaVuSans-50-3" data-name="DejaVuSans-50" d="M26.83,119.67h3.44v.83H25.64v-.83q.55-.58,1.53-1.56c.65-.65,1-1.07,1.22-1.26a5.51,5.51,0,0,0,.66-.9,1.56,1.56,0,0,0,.19-.73,1.23,1.23,0,0,0-.41-1,1.55,1.55,0,0,0-1.06-.36,3.18,3.18,0,0,0-1,.16,5.41,5.41,0,0,0-1.1.49v-1a7.87,7.87,0,0,1,1.11-.36,4.25,4.25,0,0,1,.95-.12,2.78,2.78,0,0,1,1.81.56,1.92,1.92,0,0,1,.67,1.52,2.22,2.22,0,0,1-.17.85,4.32,4.32,0,0,1-.61.95c-.08.09-.34.37-.78.82Z"/></g></g><g id="text_12" data-name="text 12"><path id="DejaVuSans-68-2" data-name="DejaVuSans-68" d="M12.35,173.86H18v-1.19a3,3,0,0,0-.69-2.21,2.88,2.88,0,0,0-2.16-.7,2.86,2.86,0,0,0-2.14.7,3.09,3.09,0,0,0-.68,2.21Zm-.81,1v-2a4.58,4.58,0,0,1,.88-3.11,3.5,3.5,0,0,1,2.75-1,3.49,3.49,0,0,1,2.77,1,4.55,4.55,0,0,1,.89,3.1v2Z"/><path id="DejaVuSans-101-3" data-name="DejaVuSans-101" d="M15.87,162.51h.44v4.13a2.08,2.08,0,0,0,1.41-.56,1.89,1.89,0,0,0,.49-1.39,3.78,3.78,0,0,0-.13-1,4.26,4.26,0,0,0-.38-1h.85a4.94,4.94,0,0,1,.31,1,5.07,5.07,0,0,1,.11,1,2.64,2.64,0,0,1-2.82,2.84,3,3,0,0,1-2.13-.73,2.5,2.5,0,0,1-.79-2,2.21,2.21,0,0,1,.71-1.74A2.74,2.74,0,0,1,15.87,162.51Zm-.27.9a1.65,1.65,0,0,0-1.17.41,1.39,1.39,0,0,0-.44,1.07,1.69,1.69,0,0,0,.42,1.2,1.85,1.85,0,0,0,1.2.52Z"/><path id="DejaVuSans-110-2" data-name="DejaVuSans-110" d="M15.53,156.49h3.3v.89H15.56a1.9,1.9,0,0,0-1.17.31,1.09,1.09,0,0,0-.38.91,1.46,1.46,0,0,0,.46,1.14,1.82,1.82,0,0,0,1.27.42h3.09v.91H13.36v-.91h.85a2.06,2.06,0,0,1-.74-.76,2,2,0,0,1-.24-1,1.74,1.74,0,0,1,.58-1.43A2.65,2.65,0,0,1,15.53,156.49Z"/><path id="DejaVuSans-115-3" data-name="DejaVuSans-115" d="M13.52,151.21h.85a3.26,3.26,0,0,0-.29.79,3.41,3.41,0,0,0-.1.85,2,2,0,0,0,.2,1,.68.68,0,0,0,.62.34.58.58,0,0,0,.49-.24,2.85,2.85,0,0,0,.34-1l.07-.31a2.84,2.84,0,0,1,.58-1.36,1.33,1.33,0,0,1,1-.4,1.43,1.43,0,0,1,1.21.6,2.77,2.77,0,0,1,.44,1.66,4.92,4.92,0,0,1-.09.91,7.42,7.42,0,0,1-.25,1H17.7a5.34,5.34,0,0,0,.39-1,4,4,0,0,0,.13-1,1.87,1.87,0,0,0-.22-1,.69.69,0,0,0-.61-.34.65.65,0,0,0-.56.25,2.92,2.92,0,0,0-.38,1.08l-.07.31a2.48,2.48,0,0,1-.54,1.21,1.38,1.38,0,0,1-1,.37,1.42,1.42,0,0,1-1.19-.55,2.51,2.51,0,0,1-.42-1.55,5.53,5.53,0,0,1,.07-.94A4,4,0,0,1,13.52,151.21Z"/><path id="DejaVuSans-105-3" data-name="DejaVuSans-105" d="M13.36,149.49v-.9h5.47v.9Zm-2.13,0v-.9h1.14v.9Z"/><path id="DejaVuSans-116-3" data-name="DejaVuSans-116" d="M11.81,145.82h1.55V144h.7v1.85h3a1.38,1.38,0,0,0,.86-.18,1.13,1.13,0,0,0,.19-.75V144h.75v.92a2.07,2.07,0,0,1-.39,1.44,2,2,0,0,1-1.41.39h-3v.66h-.7v-.66H11.81Z"/><path id="DejaVuSans-121-3" data-name="DejaVuSans-121" d="M19.34,140.51a3.22,3.22,0,0,1,1.27.74,1.48,1.48,0,0,1,.3,1v.72h-.75v-.53a.86.86,0,0,0-.18-.58,2.41,2.41,0,0,0-.83-.45l-.41-.16-5.38,2.21v-1l4.28-1.71-4.28-1.71v-.95Z"/></g></g><g id="line2d_21" data-name="line2d 21"><g class="cls-10"><path class="cls-12" d="M56,197.8h1.34l.67,0,.67,0,.67-.08.66-.14.67-.23.67-.37.67-.54.67-.72.67-.92.67-1.12.66-1.32.67-1.5.67-1.67.67-1.72.67-1.63.67-1.37.67-1,.66-.5.67-.11.67.17.67.29.67.29.67.2.67.11.66,0h1.34l.67,0,.67.06.67.15.67.24.66.35.67.39.67.38.67.27.67.12.67-.05.67-.21.66-.31.67-.34.67-.29.67-.16h.67l.67.25.67.49.66.73.67.88.67.94.67.91.67.8.67.65.66.5.67.41.67.35.67.34.67.34.67.36.67.35.66.31.67.26.67.19.67.14.67.08.67.06.67,0,.66,0,.67,0,.67,0,.67,0,.67,0,.67,0,.67,0,.66,0,.67.07.67.1.67.12.67.12.67.09.67,0h.66l.67-.05.67-.06.67-.07.67,0h.67l.67.05.66.16.67.31.67.45.67.55.67.55.67.48.67.34.66.22.67.12.67.06.67,0"/></g></g><g id="patch_144" data-name="patch 144"><path class="cls-6" d="M38.27,197.8v-82"/></g><g id="patch_145" data-name="patch 145"><path class="cls-6" d="M126.46,197.8v-82"/></g><g id="patch_146" data-name="patch 146"><path class="cls-6" d="M38.27,197.8h88.19"/></g><g id="patch_147" data-name="patch 147"><path class="cls-6" d="M38.27,115.84h88.19"/></g></g><g id="axes_4" data-name="axes 4"><g id="patch_148" data-name="patch 148"><path class="cls-1" d="M140.76,197.8H229v-82h-88.2Z"/></g><g id="patch_149" data-name="patch 149"><g class="cls-13"><path class="cls-14" d="M171.17,197.8h1.18v-1h-1.18Z"/></g></g><g id="patch_150" data-name="patch 150"><g class="cls-13"><path class="cls-14" d="M172.35,197.8h1.17v-1.2h-1.17Z"/></g></g><g id="patch_151" data-name="patch 151"><g class="cls-13"><path class="cls-14" d="M173.52,197.8h1.17v-1.7h-1.17Z"/></g></g><g id="patch_152" data-name="patch 152"><g class="cls-13"><path class="cls-14" d="M174.69,197.8h1.17v-2.92h-1.17Z"/></g></g><g id="patch_153" data-name="patch 153"><g class="cls-13"><path class="cls-14" d="M175.86,197.8H177v-1.17h-1.18Z"/></g></g><g id="patch_154" data-name="patch 154"><g class="cls-13"><path class="cls-14" d="M177,197.8h1.17v-.44H177Z"/></g></g><g id="patch_155" data-name="patch 155"><g class="cls-13"><path class="cls-14" d="M178.21,197.8h1.17v-1h-1.17Z"/></g></g><g id="patch_156" data-name="patch 156"><g class="cls-13"><path class="cls-14" d="M179.38,197.8h1.17v-2.66h-1.17Z"/></g></g><g id="patch_157" data-name="patch 157"><g class="cls-13"><path class="cls-14" d="M180.55,197.8h1.18v-4h-1.18Z"/></g></g><g id="patch_158" data-name="patch 158"><g class="cls-13"><path class="cls-14" d="M181.73,197.8h1.17v-6.48h-1.17Z"/></g></g><g id="patch_159" data-name="patch 159"><g class="cls-13"><path class="cls-14" d="M182.9,197.8h1.17v-8.43H182.9Z"/></g></g><g id="patch_160" data-name="patch 160"><g class="cls-13"><path class="cls-14" d="M184.07,197.8h1.17v-8.06h-1.17Z"/></g></g><g id="patch_161" data-name="patch 161"><g class="cls-13"><path class="cls-14" d="M185.24,197.8h1.18v-8.92h-1.18Z"/></g></g><g id="patch_162" data-name="patch 162"><g class="cls-13"><path class="cls-14" d="M186.42,197.8h1.17v-8.28h-1.17Z"/></g></g><g id="patch_163" data-name="patch 163"><g class="cls-13"><path class="cls-14" d="M187.59,197.8h1.17v-8.08h-1.17Z"/></g></g><g id="patch_164" data-name="patch 164"><g class="cls-13"><path class="cls-14" d="M188.76,197.8h1.18V189h-1.18Z"/></g></g><g id="patch_165" data-name="patch 165"><g class="cls-13"><path class="cls-14" d="M189.94,197.8h1.17V187.71h-1.17Z"/></g></g><g id="patch_166" data-name="patch 166"><g class="cls-13"><path class="cls-14" d="M191.11,197.8h1.17V187.31h-1.17Z"/></g></g><g id="patch_167" data-name="patch 167"><g class="cls-13"><path class="cls-14" d="M192.28,197.8h1.17V186.89h-1.17Z"/></g></g><g id="patch_168" data-name="patch 168"><g class="cls-13"><path class="cls-14" d="M193.45,197.8h1.18V184.94h-1.18Z"/></g></g><g id="patch_169" data-name="patch 169"><g class="cls-13"><path class="cls-14" d="M194.63,197.8h1.17V185.67h-1.17Z"/></g></g><g id="patch_170" data-name="patch 170"><g class="cls-13"><path class="cls-14" d="M195.8,197.8H197V184.65H195.8Z"/></g></g><g id="patch_171" data-name="patch 171"><g class="cls-13"><path class="cls-14" d="M197,197.8h1.17V185H197Z"/></g></g><g id="patch_172" data-name="patch 172"><g class="cls-13"><path class="cls-14" d="M198.14,197.8h1.18V183h-1.18Z"/></g></g><g id="patch_173" data-name="patch 173"><g class="cls-13"><path class="cls-14" d="M199.32,197.8h1.17V183h-1.17Z"/></g></g><g id="patch_174" data-name="patch 174"><g class="cls-13"><path class="cls-14" d="M200.49,197.8h1.17V183.26h-1.17Z"/></g></g><g id="patch_175" data-name="patch 175"><g class="cls-13"><path class="cls-14" d="M201.66,197.8h1.17V182.73h-1.17Z"/></g></g><g id="patch_176" data-name="patch 176"><g class="cls-13"><path class="cls-14" d="M202.83,197.8H204V183.08h-1.18Z"/></g></g><g id="patch_177" data-name="patch 177"><g class="cls-13"><path class="cls-14" d="M204,197.8h1.17V184.45H204Z"/></g></g><g id="patch_178" data-name="patch 178"><g class="cls-13"><path class="cls-14" d="M205.18,197.8h1.17v-14h-1.17Z"/></g></g><g id="patch_179" data-name="patch 179"><g class="cls-13"><path class="cls-14" d="M206.35,197.8h1.17V183.24h-1.17Z"/></g></g><g id="patch_180" data-name="patch 180"><g class="cls-13"><path class="cls-14" d="M207.52,197.8h1.18V184.19h-1.18Z"/></g></g><g id="patch_181" data-name="patch 181"><g class="cls-13"><path class="cls-14" d="M208.7,197.8h1.17V185.16H208.7Z"/></g></g><g id="patch_182" data-name="patch 182"><g class="cls-13"><path class="cls-14" d="M209.87,197.8H211V186h-1.17Z"/></g></g><g id="patch_183" data-name="patch 183"><g class="cls-13"><path class="cls-14" d="M211,197.8h1.17V187.37H211Z"/></g></g><g id="patch_184" data-name="patch 184"><g class="cls-13"><path class="cls-14" d="M212.21,197.8h1.18v-11h-1.18Z"/></g></g><g id="patch_185" data-name="patch 185"><g class="cls-13"><path class="cls-14" d="M213.39,197.8h1.17v-9.94h-1.17Z"/></g></g><g id="patch_186" data-name="patch 186"><g class="cls-13"><path class="cls-14" d="M214.56,197.8h1.17V187.73h-1.17Z"/></g></g><g id="patch_187" data-name="patch 187"><g class="cls-13"><path class="cls-14" d="M215.73,197.8h1.17v-9.18h-1.17Z"/></g></g><g id="patch_188" data-name="patch 188"><g class="cls-13"><path class="cls-14" d="M216.9,197.8h1.18v-7.22H216.9Z"/></g></g><g id="patch_189" data-name="patch 189"><g class="cls-13"><path class="cls-14" d="M218.08,197.8h1.17v-15h-1.17Z"/></g></g><g id="matplotlib.axis_7" data-name="matplotlib.axis 7"><g id="xtick_10" data-name="xtick 10"><g id="line2d_22" data-name="line2d 22"><path id="m2942d698e0-10" data-name="m2942d698e0" class="cls-4" d="M147.4,197.8v3.5"/></g><g id="text_13" data-name="text 13"><path id="DejaVuSans-50-4" data-name="DejaVuSans-50" d="M141.36,211.57h3.45v.83h-4.63v-.83q.56-.58,1.53-1.56c.64-.65,1-1.08,1.22-1.26a5.51,5.51,0,0,0,.66-.9,1.69,1.69,0,0,0,.19-.73,1.23,1.23,0,0,0-.41-1,1.55,1.55,0,0,0-1.06-.36,3.18,3.18,0,0,0-1,.16,5.18,5.18,0,0,0-1.1.49v-1a7.12,7.12,0,0,1,1.11-.36,4.19,4.19,0,0,1,.95-.12,2.75,2.75,0,0,1,1.8.56,1.88,1.88,0,0,1,.68,1.52,2.22,2.22,0,0,1-.17.85,4.32,4.32,0,0,1-.61,1c-.09.09-.34.37-.78.82Z"/><path id="DejaVuSans-46-4" data-name="DejaVuSans-46" d="M146.88,211.16h1v1.24h-1Z"/><path id="DejaVuSans-53-4" data-name="DejaVuSans-53" d="M150.07,205.11h3.87v.83h-3v1.78a3,3,0,0,1,.43-.1,2,2,0,0,1,.43,0,2.68,2.68,0,0,1,1.93.67,2.63,2.63,0,0,1,0,3.64,3,3,0,0,1-2.06.65,6.07,6.07,0,0,1-.94-.08,7.66,7.66,0,0,1-1-.23v-1a3.72,3.72,0,0,0,.91.35,4,4,0,0,0,1,.12,1.92,1.92,0,0,0,1.33-.44,1.71,1.71,0,0,0,0-2.42,1.92,1.92,0,0,0-1.33-.44,3.48,3.48,0,0,0-.79.09,4.44,4.44,0,0,0-.8.27Z"/></g></g><g id="xtick_11" data-name="xtick 11"><g id="line2d_23" data-name="line2d 23"><path id="m2942d698e0-11" data-name="m2942d698e0" class="cls-4" d="M175,197.8v3.5"/></g><g id="text_14" data-name="text 14"><path id="DejaVuSans-53-5" data-name="DejaVuSans-53" d="M168.16,205.11H172v.83h-3v1.78a3.77,3.77,0,0,1,.43-.1,2.15,2.15,0,0,1,.43,0,2.71,2.71,0,0,1,1.94.67,2.37,2.37,0,0,1,.71,1.81,2.33,2.33,0,0,1-.73,1.83,3,3,0,0,1-2.07.65,5.94,5.94,0,0,1-.93-.08,7.8,7.8,0,0,1-1-.23v-1a4.06,4.06,0,0,0,.91.35,4,4,0,0,0,1,.12,2,2,0,0,0,1.34-.44,1.74,1.74,0,0,0,0-2.42,2,2,0,0,0-1.34-.44,3.55,3.55,0,0,0-.79.09,4.44,4.44,0,0,0-.8.27Z"/><path id="DejaVuSans-46-5" data-name="DejaVuSans-46" d="M174.51,211.16h1v1.24h-1Z"/><path id="DejaVuSans-48-4" data-name="DejaVuSans-48" d="M179.8,205.76a1.23,1.23,0,0,0-1.15.75,6.85,6.85,0,0,0,0,4.5,1.26,1.26,0,0,0,2.3,0,6.85,6.85,0,0,0,0-4.5A1.23,1.23,0,0,0,179.8,205.76Zm0-.78a2.1,2.1,0,0,1,1.87,1,6.4,6.4,0,0,1,0,5.62,2.29,2.29,0,0,1-3.74,0,6.4,6.4,0,0,1,0-5.62A2.1,2.1,0,0,1,179.8,205Z"/></g></g><g id="xtick_12" data-name="xtick 12"><g id="line2d_24" data-name="line2d 24"><path id="m2942d698e0-12" data-name="m2942d698e0" class="cls-4" d="M202.67,197.8v3.5"/></g><g id="text_15" data-name="text 15"><path id="DejaVuSans-55-2" data-name="DejaVuSans-55" d="M195.54,205.11h4.68v.42l-2.64,6.87h-1l2.49-6.46h-3.5Z"/><path id="DejaVuSans-46-6" data-name="DejaVuSans-46" d="M202.15,211.16h1v1.24h-1Z"/><path id="DejaVuSans-53-6" data-name="DejaVuSans-53" d="M205.34,205.11h3.87v.83h-3v1.78a3.34,3.34,0,0,1,.43-.1,2.09,2.09,0,0,1,.43,0,2.68,2.68,0,0,1,1.93.67,2.63,2.63,0,0,1,0,3.64,3,3,0,0,1-2.06.65,6.07,6.07,0,0,1-.94-.08,8.08,8.08,0,0,1-1-.23v-1a3.72,3.72,0,0,0,.91.35,4,4,0,0,0,1,.12,2,2,0,0,0,1.34-.44,1.74,1.74,0,0,0,0-2.42,2,2,0,0,0-1.34-.44,3.48,3.48,0,0,0-.79.09,4.44,4.44,0,0,0-.8.27Z"/></g></g><g id="text_16" data-name="text 16"><path id="DejaVuSans-86-2" data-name="DejaVuSans-86" d="M150.56,226.08l-2.78-7.29h1l2.31,6.13,2.31-6.13h1l-2.78,7.29Z"/><path id="DejaVuSans-101-4" data-name="DejaVuSans-101" d="M159.39,223.12v.44h-4.13a2,2,0,0,0,.56,1.41,1.91,1.91,0,0,0,1.39.49,4.21,4.21,0,0,0,2-.51v.85a6,6,0,0,1-1,.31,5.15,5.15,0,0,1-1,.11,2.62,2.62,0,0,1-2.84-2.82,3,3,0,0,1,.72-2.13,2.53,2.53,0,0,1,2-.79,2.22,2.22,0,0,1,1.75.71A2.79,2.79,0,0,1,159.39,223.12Zm-.9-.27a1.7,1.7,0,0,0-.41-1.17,1.37,1.37,0,0,0-1.07-.44,1.69,1.69,0,0,0-1.2.42,1.78,1.78,0,0,0-.52,1.2Z"/><path id="DejaVuSans-108-2" data-name="DejaVuSans-108" d="M160.86,218.48h.9v7.6h-.9Z"/><path id="DejaVuSans-111-2" data-name="DejaVuSans-111" d="M165.76,221.24a1.36,1.36,0,0,0-1.14.56,2.55,2.55,0,0,0-.42,1.55,2.58,2.58,0,0,0,.41,1.54,1.44,1.44,0,0,0,2.29,0,3,3,0,0,0,0-3.08A1.34,1.34,0,0,0,165.76,221.24Zm0-.76a2.32,2.32,0,0,1,1.84.76,3.64,3.64,0,0,1,0,4.21,2.33,2.33,0,0,1-1.84.77,2.3,2.3,0,0,1-1.84-.77,3.64,3.64,0,0,1,0-4.21A2.29,2.29,0,0,1,165.76,220.48Z"/><path id="DejaVuSans-99-2" data-name="DejaVuSans-99" d="M173.69,220.82v.84a3.33,3.33,0,0,0-.76-.32,2.86,2.86,0,0,0-.77-.1,1.69,1.69,0,0,0-1.36.55,2.71,2.71,0,0,0,0,3.11,1.7,1.7,0,0,0,1.36.56,2.87,2.87,0,0,0,.77-.11,3.29,3.29,0,0,0,.76-.31v.83a4.2,4.2,0,0,1-.78.26,3.82,3.82,0,0,1-.85.09,2.57,2.57,0,0,1-2-.78,3.4,3.4,0,0,1,0-4.2,2.66,2.66,0,0,1,2-.76,4.45,4.45,0,0,1,.81.08A3.41,3.41,0,0,1,173.69,220.82Z"/><path id="DejaVuSans-105-4" data-name="DejaVuSans-105" d="M175.26,220.61h.89v5.47h-.89Zm0-2.13h.89v1.14h-.89Z"/><path id="DejaVuSans-116-4" data-name="DejaVuSans-116" d="M178.92,219.05v1.56h1.85v.7h-1.85v3a1.25,1.25,0,0,0,.19.85,1,1,0,0,0,.74.2h.92v.75h-.92a2,2,0,0,1-1.43-.39,1.93,1.93,0,0,1-.4-1.41v-3h-.66v-.7H178v-1.56Z"/><path id="DejaVuSans-121-4" data-name="DejaVuSans-121" d="M184.23,226.58a3.2,3.2,0,0,1-.74,1.28,1.46,1.46,0,0,1-1,.3h-.72v-.76h.53a.85.85,0,0,0,.58-.17,2.35,2.35,0,0,0,.45-.83l.16-.41-2.21-5.38h.95l1.71,4.27,1.71-4.27h.95Z"/><path id="DejaVuSans-40-2" data-name="DejaVuSans-40" d="M193.21,218.49a9.68,9.68,0,0,0-1,2.22,7.93,7.93,0,0,0,0,4.46,10,10,0,0,0,1,2.23h-.78a10.41,10.41,0,0,1-1.1-2.26,7.08,7.08,0,0,1-.36-2.2,7,7,0,0,1,.36-2.19,10,10,0,0,1,1.1-2.26Z"/><path id="DejaVuSans-107-2" data-name="DejaVuSans-107" d="M194.92,218.48h.9V223l2.68-2.36h1.15l-2.9,2.56,3,2.91H198.6l-2.78-2.67v2.67h-.9Z"/><path id="DejaVuSans-109-2" data-name="DejaVuSans-109" d="M205,221.66a2.47,2.47,0,0,1,.81-.9,2.07,2.07,0,0,1,1.1-.28,1.57,1.57,0,0,1,1.32.6,2.69,2.69,0,0,1,.46,1.7v3.3h-.9V222.8a1.93,1.93,0,0,0-.28-1.16,1,1,0,0,0-.85-.38,1.38,1.38,0,0,0-1.1.46,1.86,1.86,0,0,0-.41,1.27v3.09h-.9V222.8a1.93,1.93,0,0,0-.28-1.16,1,1,0,0,0-.86-.38,1.36,1.36,0,0,0-1.09.46,1.86,1.86,0,0,0-.41,1.27v3.09h-.9v-5.47h.9v.85a2,2,0,0,1,.74-.74,2.08,2.08,0,0,1,1-.24,1.71,1.71,0,0,1,1,.3A1.75,1.75,0,0,1,205,221.66Z"/><path id="DejaVuSans-47-2" data-name="DejaVuSans-47" d="M212.08,218.79h.83L210.37,227h-.83Z"/><path id="DejaVuSans-115-4" data-name="DejaVuSans-115" d="M217.34,220.77v.85a3.26,3.26,0,0,0-.79-.29,3.41,3.41,0,0,0-.85-.1,2,2,0,0,0-1,.2.67.67,0,0,0-.34.62.58.58,0,0,0,.24.49,2.85,2.85,0,0,0,1,.34l.31.07a2.84,2.84,0,0,1,1.36.58,1.32,1.32,0,0,1,.4,1,1.43,1.43,0,0,1-.6,1.21,2.77,2.77,0,0,1-1.66.44,4.92,4.92,0,0,1-.91-.09,7,7,0,0,1-1-.25V225a5,5,0,0,0,1,.39,4,4,0,0,0,.95.13,1.87,1.87,0,0,0,1-.22.69.69,0,0,0,.34-.61.65.65,0,0,0-.25-.56,2.74,2.74,0,0,0-1.08-.38l-.31-.07a2.48,2.48,0,0,1-1.21-.54,1.38,1.38,0,0,1-.37-1,1.42,1.42,0,0,1,.55-1.19,2.51,2.51,0,0,1,1.55-.42,5.53,5.53,0,0,1,.94.07A4,4,0,0,1,217.34,220.77Z"/><path id="DejaVuSans-41-2" data-name="DejaVuSans-41" d="M218.92,218.49h.79a10.35,10.35,0,0,1,1.09,2.26,7,7,0,0,1,.37,2.19,7.1,7.1,0,0,1-.37,2.2,10.35,10.35,0,0,1-1.09,2.26h-.79a9.56,9.56,0,0,0,1-2.23,7.93,7.93,0,0,0,0-4.46A9.68,9.68,0,0,0,218.92,218.49Z"/></g></g><g id="matplotlib.axis_8" data-name="matplotlib.axis 8"><g id="ytick_10" data-name="ytick 10"><g id="line2d_25" data-name="line2d 25"><path id="md36c59c1ae-10" data-name="md36c59c1ae" class="cls-4" d="M140.76,197.8h-3.5"/></g></g><g id="ytick_11" data-name="ytick 11"><g id="line2d_26" data-name="line2d 26"><path id="md36c59c1ae-11" data-name="md36c59c1ae" class="cls-4" d="M140.76,157.25h-3.5"/></g></g><g id="ytick_12" data-name="ytick 12"><g id="line2d_27" data-name="line2d 27"><path id="md36c59c1ae-12" data-name="md36c59c1ae" class="cls-4" d="M140.76,116.7h-3.5"/></g></g></g><g id="line2d_28" data-name="line2d 28"><g class="cls-13"><path class="cls-15" d="M166.7,197.8h1.15l.58,0,.58,0,.57-.07.58-.12.57-.16.58-.21.58-.23.57-.25.58-.25.57-.23.58-.16.58-.08.57.05.58.15.57.19.58.17.58.05.57-.11.58-.3.57-.47.58-.63.58-.74.57-.82.58-.86.57-.84.58-.76.57-.62L184,190l.58-.32.57-.18.58-.08h1.15l.58,0,.57-.1.58-.19.57-.27.58-.33.58-.35.57-.36.58-.37L192,187l.58-.37.58-.36.57-.34.58-.29.57-.25.58-.22.58-.22.57-.24.58-.28.57-.31.58-.32.58-.28.57-.22.58-.14.57-.08.58,0,.57,0,.58.08.58.13.57.16.58.15.57.1.58.06.58,0,.57.05.58.11.57.19.58.28.58.36.57.41.58.42.57.41.58.37.58.31.57.26.58.22.57.21.58.23.58.25.57.27.58.27.57.26.58.24.58.26.57.41.58.71.57,1.1.58,1.41.57,1.49.58,1.32.58,1,.57.63.58.33.57.15.58.06"/></g></g><g id="patch_190" data-name="patch 190"><path class="cls-6" d="M140.76,197.8v-82"/></g><g id="patch_191" data-name="patch 191"><path class="cls-6" d="M229,197.8v-82"/></g><g id="patch_192" data-name="patch 192"><path class="cls-6" d="M140.76,197.8H229"/></g><g id="patch_193" data-name="patch 193"><path class="cls-6" d="M140.76,115.84H229"/></g></g></g><text class="cls-16" transform="translate(113.8 129.9)">3</text><text class="cls-17" transform="translate(112.72 26.85)">1</text><text class="cls-18" transform="translate(216.34 26.85)">2</text><text class="cls-19" transform="translate(216.34 129.9)">4</text></svg>