<?xml version="1.0" encoding="utf-8"?>
<!-- Generator: Adobe Illustrator 24.3.0, SVG Export Plug-In . SVG Version: 6.00 Build 0)  -->
<svg version="1.1" id="Layer_1" xmlns="http://www.w3.org/2000/svg" xmlns:xlink="http://www.w3.org/1999/xlink" x="0px" y="0px"
	 viewBox="0 0 1001.7 1200" style="enable-background:new 0 0 1001.7 1200;" xml:space="preserve">
<style type="text/css">
	.st0{fill:#154734;}
	.st1{fill:#E87500;}
</style>
<g>
	<path class="st0" d="M329.9,1200c-1.8-0.4-3.5-1-5.3-1.1c-7.9-0.6-15.3-2.8-22.2-6.8c-79.7-46.2-159.6-91.8-238.9-138.6
		c-27.7-16.3-42.2-42.4-42.6-74.7c-0.7-53-0.3-106-0.4-159c-0.1-39-0.4-78-0.4-117c0-21.7,5.6-41.7,18.6-59.5
		c5.4-7.3,12-12.9,19.8-17.3c69.5-39.8,138.9-79.7,208.4-119.5c7.9-4.6,16-9,23.8-13.7c11.1-6.8,23.1-11,36.1-12.2
		c1.3-0.1,2.6-0.5,4.2-0.8c-1.2-2.1-2.2-4-3.2-5.9c-19-33-38.5-65.8-57-99.2c-16.2-29.1-16.5-59.3-0.1-88.2
		c43.6-76.7,88.2-152.9,131.8-229.5c12.4-21.8,29.5-38,51.2-49.7c5.8-3.1,12.9-5.1,19.4-5.1c82.8-0.3,165.7-0.1,248.5,0
		c12.8,0,25.8-0.8,38.4,0.9c28.6,3.9,51.5,18,66.2,43.2c43.7,74.9,86.7,150.3,130.6,225.1c10.7,18.2,17.5,37.2,20.5,57.8
		c2,13.7,0.1,26.4-7.2,38.8c-45.3,77.5-89.9,155.3-135.1,232.9c-17.8,30.5-44.8,46.1-80.2,46.4c-35.5,0.2-71,0.2-106.5,0.2
		c-1.6,0-3.3,0-6.2,0c1.9,2.4,3.1,3.8,4.2,5.3c7.9,10.1,15.8,20.2,18.9,33.1c0.6,2.6,0.9,5.3,0.9,7.9c0,92.5,0.3,185-0.4,277.5
		c-0.3,32.8-15.4,59-43.8,75.6c-77.5,45.5-155.6,90.2-233.3,135.3c-12,7-24,13.7-37.8,16.3c-2.6,0.5-5.2,1.1-7.8,1.6
		C338.6,1200,334.2,1200,329.9,1200z M337.5,822.8c14-0.4,27.3-3.1,39.7-10.2C456,767,535,721.6,613.9,676.1
		c3.2-1.8,6.3-3.8,9.1-6.1c11.9-9.8,11.8-24.4-0.2-34.2c-2.4-2-5.1-3.7-7.9-5.3c-79.5-45.8-158.8-91.9-238.5-137.2
		c-25.5-14.5-52.7-14.5-78.3,0.1c-79.4,45.2-158.5,91.1-237.7,136.7c-3,1.7-6,3.6-8.7,5.8c-11.9,9.8-11.9,24.4,0.2,34.2
		c2.8,2.3,6,4.2,9.1,6c78.6,45.3,157.3,90.5,235.8,136C309.6,819.5,323.1,822.4,337.5,822.8z M340.9,1027.6c0,0-0.1,0-0.1,0
		c0-45.8,0.5-91.7-0.2-137.5c-0.4-29.8-13.8-53.5-39.6-68.6C222.3,775.4,143.2,730,64.2,684.3c-3.2-1.8-6.4-3.5-9.9-4.8
		c-14.7-5.3-27.5,2.5-29.4,18.1c-0.4,3.5-0.5,7-0.5,10.5c0.1,90.8-0.1,181.6,0.4,272.4c0.2,30.3,14,54,40.1,69.3
		c78.5,45.9,157.3,91.2,236,136.6c3.3,1.9,6.7,3.7,10.3,5c14.1,5,26-1.8,28.8-16.5c0.7-3.6,0.9-7.3,0.9-10.9
		C341,1118.6,340.9,1073.1,340.9,1027.6z M345.7,1018.7c-0.1,0-0.2,0-0.3,0c0,32.8-0.1,65.7,0,98.5c0,16-0.3,32,0.7,48
		c1,16.4,14.7,24.5,30,18.6c3.5-1.4,6.9-3.3,10.2-5.2c78.3-45.2,156.6-90.3,234.7-135.9c26.7-15.6,40.5-39.8,40.7-70.6
		c0.5-91,0.3-182,0.3-272.9c0-3.6-0.3-7.3-0.9-10.9c-2.7-14.1-14.4-20.9-28.1-16.4c-3.9,1.3-7.7,3.2-11.2,5.3
		c-78.5,45.4-157.2,90.7-235.5,136.4c-26.3,15.4-40,39.1-40.3,69.7C345.4,928.4,345.7,973.6,345.7,1018.7z M486.9,552
		c1.2-2,2.2-3.6,3.1-5.2c33.7-58.6,67.7-117,101.1-175.8c15.2-26.7,15.3-54.3,0-80.9C546,211.1,500.5,132.5,455,53.7
		c-1.9-3.3-4-6.6-6.5-9.5c-9.6-11-23.3-11-32.9,0c-2.5,2.9-4.6,6.1-6.5,9.4c-45.6,79-91.4,158-136.5,237.3
		c-14.8,25.9-14.5,53.1,0,79.2c19.7,35.4,40.3,70.2,60.4,105.3c1.8,3.2,3.7,4.9,7.7,4.7c4.6-0.1,9.5,0.1,13.9,1.4
		c9.6,3.1,19.6,5.8,28.3,10.7C417.6,511.7,451.9,531.8,486.9,552z M796.9,322.2c0,0.1,0,0.3,0,0.4c36,0,72,0.1,108,0
		c13.3,0,26.7,0.3,40-0.8c15.9-1.2,23.8-14.4,18.3-29.5c-1.2-3.3-2.8-6.4-4.6-9.4c-45.7-79.1-91.3-158.4-137.5-237.2
		c-15-25.6-38.7-39.2-68.2-39.4C661.2,5.8,569.5,6,477.9,6c-3.6,0-7.4,0.3-10.9,1c-13.4,2.7-20.2,13.9-16.2,27
		c1.3,4.4,3.5,8.6,5.8,12.6C502,125.2,547.2,203.8,593,282.2c15.2,25.9,38.8,39.5,68.9,39.9C706.9,322.6,751.9,322.2,796.9,322.2z
		 M571.7,600.8c14.2,8.2,28.6,16.2,42.7,24.7c6.8,4.1,13.2,9,19.2,14.1c3,2.5,5.8,3.8,9.7,3.8c38.8-0.2,77.7,0.2,116.5-0.3
		c30.1-0.4,53.8-13.9,69-39.8c46.1-78.7,91.5-157.8,137.2-236.8c2.3-4,4.4-8.3,5.5-12.8c3-11.3-2-20.9-13.1-24.5
		c-4.9-1.6-10.5-2.1-15.7-2.1c-90.7-0.1-181.3-0.2-272,0.2c-30.8,0.1-55,13.9-70.6,40.6c-35,59.8-69.5,119.8-104.2,179.8
		c-1.3,2.3-2.6,4.6-4.1,7.2c9,5.2,17.7,10.2,26.2,15.1c3.8-3.3,7-6.5,10.6-9.1c13.9-10.2,29.1-16.9,46.8-15.8
		c17.2,1,25.3,13.8,18.4,29.7c-2.1,4.8-5.2,9.3-8.6,13.3C581.2,592.5,576.4,596.4,571.7,600.8z"/>
	<path class="st1" d="M337.2,681.1c-11.7,0.2-22.9-1.9-33.2-7.5c-8.3-4.5-15.7-10.3-15.6-20.8c0.1-10.3,7.1-16.4,15.4-20.4
		c22.2-10.7,44.7-10.7,66.9-0.1c8.5,4.1,15.7,10.3,15.6,20.8c-0.1,10.5-7.5,16.3-15.9,20.7C360.1,679.3,348.9,681.4,337.2,681.1z"/>
	<path class="st1" d="M241.9,1077.8c0.4-2.7,0.7-5.9,1.5-9c3.2-12.2,12.8-18.2,24.7-13.8c7.1,2.6,14.1,6.9,19.7,12.1
		c13.7,12.8,21.8,28.9,23.5,47.7c0.4,4.2,0.1,8.7-0.9,12.8c-3,12.8-12.8,18.6-25.3,14.2c-6.1-2.2-12.1-5.7-17-10
		C252.1,1117.8,243.4,1099.7,241.9,1077.8z"/>
	<path class="st1" d="M123.2,792.2c-0.1,2-0.1,4-0.4,6c-1.9,15.4-13.4,22.5-28,17.2c-2.2-0.8-4.4-1.7-6.3-3
		c-21.5-14.6-33.3-34.8-34.6-60.8c-0.1-2.9,0.4-6,1.1-8.9c2.9-11.9,12.5-17.5,24.3-14.2c3.3,0.9,6.7,2.2,9.6,4.1
		C110.1,746.8,121,767,123.2,792.2z"/>
	<path class="st1" d="M562.8,784.3c2.7-24.7,13.5-44.9,34.7-59.2c0.1-0.1,0.3-0.2,0.4-0.2c7.9-4.1,16-7.3,24.6-2.2
		c8.7,5.2,10.5,14.1,9.9,23.1c-1.6,24.2-12.7,43.4-32.2,57.7c-2.5,1.8-5.4,3.3-8.4,4.4c-14.6,5.5-25.4-0.8-28.1-16.2
		C563.3,789.3,563.2,787,562.8,784.3z"/>
	<path class="st1" d="M444.3,1074c-2.4,22.7-13.3,42.7-34.2,56.9c-1.2,0.8-2.6,1.5-4,2.1c-17,7.8-31.1-0.5-31.1-19.3
		c0.1-26.8,12.3-47.6,34.4-62.3c7.3-4.9,15.9-7.5,24.5-2.6C442.7,1053.8,443.9,1062.6,444.3,1074z"/>
	<path class="st1" d="M538.2,913.1c-2.2,20.3-12.7,40.1-33.1,54c-7.8,5.3-16.6,8.7-25.8,3.4c-9.2-5.2-11-14.5-10.2-23.9
		c2-24.9,13.4-44.7,34.4-58.4c7.6-4.9,16.1-7.6,24.9-2.5C535.2,889.7,538.6,897.9,538.2,913.1z"/>
	<path class="st0" d="M460.3,331.4c0,11-2,22.2-7.5,32.5c-4.5,8.3-10.4,15.7-20.9,15.5c-10.2-0.1-16.4-7.2-20.3-15.5
		c-10.7-22.4-10.7-45,0.2-67.3c4.1-8.3,10.2-15.2,20.6-15.1c10.1,0.1,15.8,7.1,20.2,15C458.4,307.2,460.4,318.7,460.3,331.4z"/>
	<path class="st0" d="M525.8,35.2c23.5,2.4,43.6,13,57.7,33.8c5.2,7.6,8.3,16.4,3.2,25.4c-5.2,9.2-14.5,11-23.9,10.2
		c-24.7-2-44.2-13.4-58.3-33.9c-0.1-0.1-0.2-0.3-0.3-0.4c-4.2-8-7.5-16.3-2.3-25C507,36.8,515.7,35.8,525.8,35.2z"/>
	<path class="st0" d="M635.3,223.4c23.1,2.3,43.4,13.1,57.4,34.4c5,7.6,7.8,16.2,2.6,24.9c-5,8.5-13.7,10.5-22.6,10
		c-25.6-1.6-45.8-13.2-59.8-34.7c-4.8-7.4-7.5-15.9-2.4-24.5C615.7,225,624.3,223.9,635.3,223.4z"/>
	<path class="st0" d="M850.8,223.9c25.1,2.3,45.3,13.1,59.5,34.3c0.6,0.8,1,1.7,1.5,2.6c8.7,17.5,0.2,32.2-19.3,32
		c-26.8-0.2-47.3-12.7-62.2-34.7c-0.7-1.1-1.3-2.3-1.8-3.5c-7.5-16.6,0.8-30,19-30.8C848.5,223.8,849.6,223.9,850.8,223.9z"/>
	<path class="st0" d="M777.7,104.9c-21.6-2.3-41.9-13.1-56.2-34.6c-0.6-1-1.1-2-1.6-3.1c-8.1-17,0-31.2,18.7-31.4
		c27.3-0.2,48.6,12.1,63,34.8C813.3,89.2,803.5,105,777.7,104.9z"/>
	<path class="st0" d="M896.8,356c4,0.5,7,0.7,9.9,1.4c13.1,3.1,18.9,12.9,14.4,25.6c-2,5.7-5.2,11.3-9.1,15.8
		c-13.3,15.5-30.4,24.5-50.8,26.8c-3.1,0.3-6.3,0.1-9.4-0.4c-16.6-2.7-23.4-14.6-16.1-29.8c9.2-19.3,25.8-30,45.4-36.3
		C886.4,357.4,892.1,356.9,896.8,356z"/>
	<path class="st0" d="M786.4,544.4c10.9,0.5,19.6,1.5,24.7,10.1c5.2,8.8,2.5,17.4-2.5,24.9c-14,21.2-34.1,32.5-59.4,34.5
		c-1,0.1-2,0-3-0.1c-19.3-1.1-28-15.3-18.6-32.2C740.8,558.1,762.3,547.2,786.4,544.4z"/>
	<path class="st0" d="M694.9,519.8c-1.3,0-2.7,0.1-4,0c-18.3-1.7-26.3-15.1-17.8-31.4c10.5-20.2,28.3-31.4,50-36.3
		c6.9-1.5,14.7-1.4,21.6,0c11.8,2.3,17,12.2,13.9,23.9c-2.7,10-9,17.7-16.7,24.3C728.4,512,712.9,519,694.9,519.8z"/>
	<path class="st0" d="M678.4,356.6c10.6,0.3,19.2,1.5,24.3,10c5.1,8.7,2.5,17.4-2.5,24.9c-14.4,21.6-34.9,33.2-60.9,34.4
		c-3.1,0.1-6.3-0.5-9.3-1.4c-11.4-3.2-17.1-12.7-13.2-23.9c2.2-6.4,5.8-12.9,10.2-18C640.9,366.8,658.7,357.9,678.4,356.6z"/>
</g>
</svg>
