<?xml version="1.0" encoding="utf-8"?>
<!-- Generator: Adobe Illustrator 24.3.0, SVG Export Plug-In . SVG Version: 6.00 Build 0)  -->
<svg version="1.1" id="Layer_3" xmlns="http://www.w3.org/2000/svg" xmlns:xlink="http://www.w3.org/1999/xlink" x="0px" y="0px"
	 viewBox="0 0 886.6 842.6" style="enable-background:new 0 0 886.6 842.6;" xml:space="preserve">
<style type="text/css">
	.st0{fill:#808080;}
	.st1{fill:none;stroke:#808080;stroke-width:4;stroke-miterlimit:10;}
	.st2{fill:#FF0000;}
	.st3{fill:none;stroke:#FF0000;stroke-width:4;stroke-miterlimit:10;}
	.st4{fill:none;}
	.st5{fill:none;stroke:#000000;stroke-width:4;stroke-linecap:round;stroke-miterlimit:10;}
	.st6{fill:none;stroke:#000000;stroke-width:4;stroke-miterlimit:10;}
	.st7{stroke:#000000;stroke-width:4;stroke-miterlimit:10;}
</style>
<g>
	<path class="st0" d="M338,509l-0.7-1.5C337.5,508,337.7,508.6,338,509z"/>
	<path class="st0" d="M325.4,490.2c0.8-1.3,1.8-2.4,2.9-3.3l-2.9-6.7v2.5c0,1.2-0.4,2.3-1.2,3.2c0.5,0.8,0.9,1.8,0.9,2.8v0.8
		L325.4,490.2z"/>
	<path class="st0" d="M344.3,523.6c-1.3,0.3-2.6,0.5-4.1,0.5l131,300.7l3.7-1.6L344.3,523.6z"/>
	<path class="st0" d="M320.4,472.3c0.6,0,1.2,0.1,1.7,0.3l-26.3-60.4l-3.7,1.6l25.5,58.5H320.4z"/>
</g>
<line class="st1" x1="429" y1="413" x2="474" y2="458"/>
<g>
	<path class="st0" d="M702.1,368.9l-9.7-3.2c0,0.3-0.1,0.5-0.1,0.9v3.3l9.7,3.2V368.9z"/>
	<path class="st0" d="M665.4,358c-0.1-0.4-0.2-0.8-0.3-1.2l-7.7-2.5c-0.6,0.7-1.2,1.8-1.5,3.7l5,1.6h5.2
		C665.8,359.2,665.5,358.6,665.4,358z"/>
	<path class="st0" d="M642.8,349.5l-215.2-70.4l-1.2,3.8l215.1,70.4C641.9,351.9,642.3,350.7,642.8,349.5z"/>
	<path class="st0" d="M749.1,384.3v1.2c0,1-0.3,2-0.8,2.8l121.1,39.6l1.2-3.8L749.1,384.3z"/>
</g>
<g>
	<path class="st2" d="M425.5,17.5v392h-392v-392H425.5 M429.5,13.5h-400v400h400V13.5L429.5,13.5z"/>
</g>
<g>
	<line class="st3" x1="162.7" y1="414" x2="162.7" y2="14"/>
</g>
<g>
	<line class="st3" x1="30" y1="414" x2="30" y2="14"/>
</g>
<g>
	<line class="st3" x1="428" y1="414" x2="428" y2="14"/>
</g>
<g>
	<line class="st3" x1="29" y1="280.3" x2="429" y2="280.3"/>
</g>
<g>
	<line class="st3" x1="29" y1="147.7" x2="429" y2="147.7"/>
</g>
<g>
	<line class="st3" x1="29" y1="15" x2="429" y2="15"/>
</g>
<g>
	<line class="st3" x1="29" y1="413" x2="429" y2="413"/>
</g>
<g>
	<g>
		<path class="st2" d="M278.6,230.4l11.8-16.1l-11.8-15.7h7.2l8.8,11.8l8.1-11.8h5.7l-10.8,15.7l12.1,16.1h-7.2l-9.1-12.2l-8.9,12.2
			H278.6z"/>
	</g>
	<g>
		<path class="st2" d="M146.3,230.4l11.8-16.1l-11.8-15.7h7.2l8.8,11.8l8.1-11.8h5.7l-10.8,15.7l12.1,16.1h-7.2l-9.1-12.2l-8.9,12.2
			H146.3z"/>
	</g>
	<g>
		<path class="st2" d="M14,230.4l11.8-16.1L14,198.6h7.2l8.8,11.8l8.1-11.8h5.7L33,214.3l12.1,16.1h-7.2l-9.1-12.2l-8.9,12.2H14z"/>
	</g>
	<g>
		<path class="st2" d="M411,230.4l11.8-16.1L411,198.6h7.2l8.8,11.8l8.1-11.8h5.7L430,214.3l12.1,16.1h-7.2l-9.1-12.2l-8.9,12.2H411
			z"/>
	</g>
</g>
<g>
	<path class="st2" d="M278.6,95.4l11.8-16.1l-11.8-15.7h7.2l8.8,11.8l8.1-11.8h5.7l-10.8,15.7l12.1,16.1h-7.2l-9.1-12.2l-8.9,12.2
		H278.6z"/>
</g>
<g>
	<path class="st2" d="M146.3,95.4l11.8-16.1l-11.8-15.7h7.2l8.8,11.8l8.1-11.8h5.7l-10.8,15.7l12.1,16.1h-7.2l-9.1-12.2l-8.9,12.2
		H146.3z"/>
</g>
<g>
	<path class="st2" d="M14,95.4l11.8-16.1L14,63.6h7.2l8.8,11.8l8.1-11.8h5.7L33,79.3l12.1,16.1h-7.2l-9.1-12.2l-8.9,12.2H14z"/>
</g>
<g>
	<path class="st2" d="M411,95.4l11.8-16.1L411,63.6h7.2l8.8,11.8l8.1-11.8h5.7L430,79.3l12.1,16.1h-7.2l-9.1-12.2l-8.9,12.2H411z"/>
</g>
<g>
	<g>
		<path class="st2" d="M279.6,365.4l11.8-16.1l-11.8-15.7h7.2l8.8,11.8l8.1-11.8h5.7l-10.8,15.7l12.1,16.1h-7.2l-9.1-12.2l-8.9,12.2
			H279.6z"/>
	</g>
	<g>
		<path class="st2" d="M147.3,365.4l11.8-16.1l-11.8-15.7h7.2l8.8,11.8l8.1-11.8h5.7l-10.8,15.7l12.1,16.1h-7.2l-9.1-12.2l-8.9,12.2
			H147.3z"/>
	</g>
	<g>
		<path class="st2" d="M15,365.4l11.8-16.1L15,333.6h7.2l8.8,11.8l8.1-11.8h5.7L34,349.3l12.1,16.1h-7.2l-9.1-12.2l-8.9,12.2H15z"/>
	</g>
	<g>
		<path class="st2" d="M412,365.4l11.8-16.1L412,333.6h7.2l8.8,11.8l8.1-11.8h5.7L431,349.3l12.1,16.1h-7.2l-9.1-12.2l-8.9,12.2H412
			z"/>
	</g>
</g>
<g>
	<path class="st2" d="M109.8,163.9l-16.1-11.8L78,163.9v-7.2l11.8-8.8L78,139.8v-5.7l15.7,10.8l16.1-12.1v7.2l-12.2,9.1l12.2,8.9
		V163.9z"/>
</g>
<g>
	<path class="st2" d="M109.8,296.3l-16.1-11.8L78,296.2V289l11.8-8.8L78,272.1v-5.7l15.7,10.8l16.1-12.1v7.2l-12.2,9.1l12.2,8.9
		V296.3z"/>
</g>
<g>
	<path class="st2" d="M109.8,428.6l-16.1-11.8L78,428.5v-7.2l11.8-8.8L78,404.5v-5.7l15.7,10.8l16.1-12.1v7.2l-12.2,9.1l12.2,8.9
		V428.6z"/>
</g>
<g>
	<path class="st2" d="M109.8,31.6L93.8,19.8L78,31.6v-7.2l11.8-8.8L78,7.5V1.8l15.7,10.8l16.1-12.1v7.2l-12.2,9.1l12.2,8.9V31.6z"/>
</g>
<g>
	<g>
		<path class="st2" d="M245.8,163.9l-16.1-11.8L214,163.9v-7.2l11.8-8.8l-11.8-8.1v-5.7l15.7,10.8l16.1-12.1v7.2l-12.2,9.1l12.2,8.9
			V163.9z"/>
	</g>
	<g>
		<path class="st2" d="M245.8,296.3l-16.1-11.8L214,296.2V289l11.8-8.8l-11.8-8.1v-5.7l15.7,10.8l16.1-12.1v7.2l-12.2,9.1l12.2,8.9
			V296.3z"/>
	</g>
	<g>
		<path class="st2" d="M245.8,428.6l-16.1-11.8L214,428.5v-7.2l11.8-8.8l-11.8-8.1v-5.7l15.7,10.8l16.1-12.1v7.2l-12.2,9.1l12.2,8.9
			V428.6z"/>
	</g>
	<g>
		<path class="st2" d="M245.8,31.6l-16.1-11.8L214,31.6v-7.2l11.8-8.8L214,7.5V1.8l15.7,10.8l16.1-12.1v7.2l-12.2,9.1l12.2,8.9V31.6
			z"/>
	</g>
</g>
<g>
	<g>
		<path class="st2" d="M378.8,163.9l-16.1-11.8L347,163.9v-7.2l11.8-8.8l-11.8-8.1v-5.7l15.7,10.8l16.1-12.1v7.2l-12.2,9.1l12.2,8.9
			V163.9z"/>
	</g>
	<g>
		<path class="st2" d="M378.8,296.3l-16.1-11.8L347,296.2V289l11.8-8.8l-11.8-8.1v-5.7l15.7,10.8l16.1-12.1v7.2l-12.2,9.1l12.2,8.9
			V296.3z"/>
	</g>
	<g>
		<path class="st2" d="M378.8,428.6l-16.1-11.8L347,428.5v-7.2l11.8-8.8l-11.8-8.1v-5.7l15.7,10.8l16.1-12.1v7.2l-12.2,9.1l12.2,8.9
			V428.6z"/>
	</g>
	<g>
		<path class="st2" d="M378.8,31.6l-16.1-11.8L347,31.6v-7.2l11.8-8.8L347,7.5V1.8l15.7,10.8l16.1-12.1v7.2l-12.2,9.1l12.2,8.9V31.6
			z"/>
	</g>
</g>
<line class="st4" x1="-381" y1="64" x2="-381" y2="-336"/>
<g>
	<g>
		<path class="st5" d="M54.2,497.2c-35.4-6.8-42-24.8-34.2-48.5"/>
		<g>
			<polygon points="29.5,465.1 18.5,453.4 2.4,453.2 30,427 			"/>
		</g>
	</g>
</g>
<g>
	<line class="st6" x1="737.5" y1="823.3" x2="737.5" y2="425.3"/>
</g>
<g>
	<line class="st6" x1="604.8" y1="823.3" x2="604.8" y2="425.3"/>
</g>
<g>
	<line class="st6" x1="473.2" y1="691.6" x2="871.2" y2="691.6"/>
</g>
<g>
	<line class="st6" x1="473.2" y1="558.9" x2="871.2" y2="558.9"/>
</g>
<g>
	<path class="st2" d="M456.1,641.7l11.8-16.1l-11.8-15.7h7.2l8.8,11.8l8.1-11.8h5.7l-10.8,15.7l12.1,16.1H480l-9.1-12.2l-8.9,12.2
		H456.1z"/>
</g>
<g>
	<path class="st2" d="M853.1,641.7l11.8-16.1l-11.8-15.7h7.2l8.8,11.8l8.1-11.8h5.7l-10.8,15.7l12.1,16.1H877l-9.1-12.2l-8.9,12.2
		H853.1z"/>
</g>
<g>
	<path class="st2" d="M688,839.9L671.9,828l-15.7,11.8v-7.2l11.8-8.8l-11.8-8.1V810l15.7,10.8l16.1-12.1v7.2l-12.2,9.1L688,834
		V839.9z"/>
</g>
<g>
	<path class="st2" d="M688,442.9L671.9,431l-15.7,11.8v-7.2l11.8-8.8l-11.8-8.1V413l15.7,10.8l16.1-12.1v7.2l-12.2,9.1L688,437
		V442.9z"/>
</g>
<line class="st1" x1="295" y1="280" x2="476" y2="429"/>
<g>
	<path class="st2" d="M867.7,428.8v392h-392v-392H867.7 M871.7,424.8h-400v400h400V424.8L871.7,424.8z"/>
</g>
<g>
	<path d="M721,508.3l11.8-16.1L721,476.4h7.2l8.8,11.8l8.1-11.8h5.7L740,492.2l12.1,16.1h-7.2l-9.1-12.2l-8.9,12.2H721z"/>
</g>
<g>
	<path d="M588.6,508.3l11.8-16.1l-11.8-15.7h7.2l8.8,11.8l8.1-11.8h5.7l-10.8,15.7l12.1,16.1h-7.2l-9.1-12.2l-8.9,12.2H588.6z"/>
</g>
<g>
	<path d="M721,774.3l11.8-16.1L721,742.4h7.2l8.8,11.8l8.1-11.8h5.7L740,758.2l12.1,16.1h-7.2l-9.1-12.2l-8.9,12.2H721z"/>
</g>
<g>
	<path d="M588.6,774.3l11.8-16.1l-11.8-15.7h7.2l8.8,11.8l8.1-11.8h5.7l-10.8,15.7l12.1,16.1h-7.2l-9.1-12.2l-8.9,12.2H588.6z"/>
</g>
<g>
	<path d="M721,638.3l11.8-16.1L721,606.4h7.2l8.8,11.8l8.1-11.8h5.7L740,622.2l12.1,16.1h-7.2l-9.1-12.2l-8.9,12.2H721z"/>
</g>
<g>
	<path d="M588.6,638.3l11.8-16.1l-11.8-15.7h7.2l8.8,11.8l8.1-11.8h5.7l-10.8,15.7l12.1,16.1h-7.2l-9.1-12.2l-8.9,12.2H588.6z"/>
</g>
<g>
	<path d="M555.2,574.4l-16.1-11.8l-15.7,11.8v-7.2l11.8-8.8l-11.8-8.1v-5.7l15.7,10.8l16.1-12.1v7.2l-12.2,9.1l12.2,8.9V574.4z"/>
</g>
<g>
	<path d="M555.2,706.7l-16.1-11.8l-15.7,11.8v-7.2l11.8-8.8l-11.8-8.1v-5.7l15.7,10.8l16.1-12.1v7.2l-12.2,9.1l12.2,8.9V706.7z"/>
</g>
<g>
	<path d="M821.2,574.4l-16.1-11.8l-15.7,11.8v-7.2l11.8-8.8l-11.8-8.1v-5.7l15.7,10.8l16.1-12.1v7.2l-12.2,9.1l12.2,8.9V574.4z"/>
</g>
<g>
	<path d="M821.2,706.7l-16.1-11.8l-15.7,11.8v-7.2l11.8-8.8l-11.8-8.1v-5.7l15.7,10.8l16.1-12.1v7.2l-12.2,9.1l12.2,8.9V706.7z"/>
</g>
<g>
	<path d="M685.2,574.4l-16.1-11.8l-15.7,11.8v-7.2l11.8-8.8l-11.8-8.1v-5.7l15.7,10.8l16.1-12.1v7.2l-12.2,9.1l12.2,8.9V574.4z"/>
</g>
<g>
	<path d="M685.2,706.7l-16.1-11.8l-15.7,11.8v-7.2l11.8-8.8l-11.8-8.1v-5.7l15.7,10.8l16.1-12.1v7.2l-12.2,9.1l12.2,8.9V706.7z"/>
</g>
<circle class="st7" cx="536.5" cy="492.5" r="6.5"/>
<circle class="st7" cx="669.5" cy="492.5" r="6.5"/>
<circle class="st7" cx="804.5" cy="492.5" r="6.5"/>
<circle class="st7" cx="536.5" cy="622.5" r="6.5"/>
<circle class="st7" cx="669.5" cy="622.5" r="6.5"/>
<circle class="st7" cx="804.5" cy="622.5" r="6.5"/>
<circle class="st7" cx="536.5" cy="758.5" r="6.5"/>
<circle class="st7" cx="669.5" cy="758.5" r="6.5"/>
<circle class="st7" cx="804.5" cy="758.5" r="6.5"/>
<g>
	<g>
		<path class="st4" d="M220.7,483.2c-6.2,0-11,2.5-13.9,7c-3.1-4.7-8-7-14.9-7c-4.9,0-8.6,1.4-11.1,3.5c-2.7-2.4-6.1-3.5-10.3-3.5
			c-1.9,0-3.6,0.3-5.2,0.8c-0.6-0.2-1.2-0.3-1.8-0.3h-4.8c-2.8,0-5,2.2-5,5v0.6c-2.2-3.5-6.5-6.1-14.2-6.1c-4.8,0-10.8,0.8-14.8,6.8
			c-3-4.4-7.9-6.8-14.3-6.8c-4.9,0-9.1,1.6-12.1,4.4c-2.1-10.1-9.1-15.8-19.5-15.8c-6,0-20,2.3-20,23.9v4.6c0,21.6,14,23.9,20,23.9
			c7.4,0,13.1-2.9,16.5-8.3c2.9,5.2,8.2,8.3,15.1,8.3c6.3,0,11.2-2.5,14.2-6.8c2.5,4.3,7.4,6.8,13.8,6.8c2,0,4-0.1,5.9-0.8
			c0.5,0.2,1.1,0.3,1.7,0.3h4.8c1.6,0,3-0.8,3.9-1.9c0.9,1.2,2.3,1.9,3.9,1.9h4.8c2.8,0,5-2.2,5-5v-18.8c0-2.3,1.1-2.3,1.4-2.3
			c0.7,0,0.7,0.1,1,0.5c1,1.4,2.5,2.1,4.1,2.1c0.5,0,1-0.1,1.5-0.2c0.7,3.2,2.4,5.8,5,7.7l-3.5,2.5c-1.1,0.8-1.8,2-2,3.3
			c-0.2,1.3,0.1,2.7,0.9,3.8c3.5,4.8,8.5,7,15.6,7c7.9,0,12.5-3.1,14.7-7.2c3.1,4.5,8.2,7.2,14.6,7.2c4.5,0,11-0.8,14.8-7.6
			c1.3-2.2,0.7-5.1-1.4-6.6l-0.8-0.6c1.9-0.7,3.3-2.5,3.3-4.7v-3.1C237.5,490.1,231.2,483.2,220.7,483.2z M83.8,504.7
			c-1,4.5-2.6,4.8-5,4.8c-2,0-4.8,0-4.8-9.2v-4.6c0-9.2,2.8-9.2,4.8-9.2c2.4,0,3.9,0.2,5,4.8c0.5,2.3,2.5,3.9,4.9,3.9h5
			c0,0,0.1,0,0.1,0c-0.5,1.7-0.8,3.6-0.9,5.6h-4.3C86.4,500.8,84.4,502.4,83.8,504.7z M113.1,505.6c0,1.9-0.5,4.2-2.7,4.2
			c-1.1,0-2.7,0-2.7-4.2v-4c0-4.1,1.7-4.1,2.7-4.1s2.7,0,2.7,4.1V505.6z M127.8,499.2c0-0.2,0-0.4-0.1-0.6l0.4,0.3
			C128,499.1,127.9,499.2,127.8,499.2z M204,498.4c-0.1,0.4-0.1,0.9-0.1,1.3c-0.3-0.2-0.6-0.4-0.9-0.6L204,498.4z M221.3,509.8
			c-0.2,0-0.5,0-0.8-0.1h2.2C222.3,509.8,221.8,509.8,221.3,509.8z"/>
		<path class="st4" d="M352.3,472.3h-4.8c-2.8,0-5,2.2-5,5v6.2c-1-0.2-2.1-0.2-3.2-0.2c-6.4,0-11.3,2.7-14.2,7.5v-2
			c0-1-0.3-2-0.9-2.8c0.7-0.9,1.2-2,1.2-3.2v-5.4c0-2.8-2.2-5-5-5H315c-2.8,0-5,2.2-5,5v5.4c0,0.9,0.3,1.8,0.7,2.6
			c-2.3-1.4-5-2-8.2-2c-1.9,0-3.6,0.3-5.2,0.8c-0.6-0.2-1.2-0.3-1.8-0.3h-4.8c-1.3,0-2.5,0.5-3.3,1.3c-2.7-8.4-9.4-13.2-18.8-13.2
			c-6,0-20,2.3-20,23.9v4.6c0,21.6,14,23.9,20,23.9c4.3,0,12.6-1.2,17.1-9.5v4c0,2.8,2.2,5,5,5h4.8c2.8,0,5-2.2,5-5v-18.8
			c0-2.3,1.1-2.3,1.4-2.3c0.7,0,0.7,0.1,1,0.5c1,1.4,2.5,2.1,4.1,2.1c1,0,2-0.3,2.9-0.9l0.4-0.3v19.7c0,2.8,2.2,5,5,5h4.8
			c2.8,0,5-2.2,5-5v-2c2.9,4.7,7.8,7.5,14.2,7.5c2.3,0,4.4-0.3,6.2-0.9c0.6,0.3,1.3,0.4,2,0.4h4.8c2.8,0,5-2.2,5-5v-41.4
			C357.3,474.5,355,472.3,352.3,472.3z M268.6,509.5c-1.7,0-4,0-4.7-5.7c0.5,2.2,2.5,3.8,4.8,3.8h3.7
			C271.4,509.5,269.9,509.5,268.6,509.5z M268.8,492.9c-2.8,0-5,2.2-5,5v3.7c0-0.4,0-0.8,0-1.3v-4.6c0-9.2,2.8-9.2,4.8-9.2
			c2.4,0,4,0.3,5,4.7c0.1,0.6,0.4,1.1,0.7,1.6H268.8z M342.5,506c0,3.8-1.6,3.8-2.7,3.8c-2.2,0-2.7-2.3-2.7-4.2v-4
			c0-4.1,1.7-4.1,2.7-4.1s2.7,0,2.7,4.1V506z"/>
	</g>
	<path d="M88.7,490.2c-1.4-6.5-4.7-8.7-9.8-8.7c-6.4,0-9.8,4-9.8,14.2v4.6c0,10.3,3.5,14.2,9.8,14.2c5.4,0,8.5-2.6,9.8-8.7h5
		c-1.3,9.3-7,13.4-14.8,13.4c-9.2,0-15-5.5-15-18.9v-4.6c0-13.4,5.8-18.9,15-18.9c8.2,0,13.6,4.3,14.9,13.4H88.7z"/>
	<path d="M122.9,505.6c0,7.8-3.8,13.6-12.5,13.6c-8,0-12.5-5.3-12.5-13.6v-4c0-8.5,4.6-13.4,12.5-13.4c7.9,0,12.5,4.9,12.5,13.4
		V505.6z M118.1,505.6v-4c0-5.7-2.8-9.1-7.7-9.1s-7.7,3.5-7.7,9.1v4c0,5.2,2.2,9.2,7.7,9.2C115.5,514.8,118.1,510.7,118.1,505.6z"/>
	<path d="M138.9,501.3h7.1v-3.5c0-4.3-2-5.2-6.7-5.2c-3.6,0-5.5,0.3-7.2,3.1l-3.6-2.5c2.1-3.5,5.2-5,10.9-5c7.6,0,11.4,2.5,11.4,9.7
		v20.8h-4.8v-2.9c-1.7,2.8-3.7,3.4-7.6,3.4c-7,0-10.7-3.4-10.7-9.2C127.7,503.4,132.3,501.3,138.9,501.3z M146.1,505.4h-7.1
		c-4.7,0-6.4,1.6-6.4,4.6c0,3.4,2.4,4.7,5.9,4.7c4.4,0,7.6-0.8,7.6-7.6V505.4z"/>
	<path d="M174.9,495.2c-1.3-1.7-2.8-2.5-5-2.5c-3.7,0-6.4,2.8-6.4,7.3v18.8h-4.8v-30h4.8v2.9c1.3-2.1,3.3-3.4,7-3.4
		c4.1,0,6.7,1.4,8.6,4.1L174.9,495.2z"/>
	<path d="M199.2,495.7c-1.6-2.1-3.3-3.1-7.4-3.1c-3.5,0-5.8,1.4-5.8,4c0,3.4,3,4.4,7,4.7c5.6,0.4,10.8,2,10.8,8.9
		c0,5.2-3.5,8.8-11.3,8.8c-6.1,0-9.3-1.9-11.6-5l3.5-2.5c1.6,2.2,3.8,3.1,8.1,3.1c4,0,6.4-1.6,6.4-4.3c0-3.2-1.9-4.4-7.7-4.8
		c-5-0.4-10-2.4-10-8.9c0-5,3.6-8.5,10.7-8.5c4.9,0,8.6,1.3,10.9,5L199.2,495.7z"/>
	<path d="M232.1,514.1c-2.1,3.7-5.3,5-10.5,5c-8,0-12.8-5.2-12.8-13.6v-4c0-8.5,4-13.4,11.9-13.4c7.9,0,11.9,4.9,11.9,13.4v3.1h-19
		v0.8c0,5.2,2.5,9.2,7.7,9.2c3.9,0,5.9-1.1,7.1-3.4L232.1,514.1z M213.6,500.6h14.1c-0.2-5-2.5-8-7-8
		C216,492.5,213.9,495.6,213.6,500.6z"/>
	<path d="M283.9,497.9v2.4c0,13.4-6.1,18.9-15.2,18.9c-9.2,0-15-5.5-15-18.9v-4.6c0-13.4,5.8-18.9,15-18.9c8,0,13.6,4.3,14.9,13.4
		h-5c-1.3-6.2-4.6-8.7-9.8-8.7c-6.4,0-9.8,4-9.8,14.2v4.6c0,10.3,3.5,14.2,9.8,14.2c5.8,0,9.5-3.4,10-11.9h-9.8v-4.7H283.9z"/>
	<path d="M307,495.2c-1.3-1.7-2.8-2.5-5-2.5c-3.7,0-6.4,2.8-6.4,7.3v18.8h-4.8v-30h4.8v2.9c1.3-2.1,3.3-3.4,7-3.4
		c4.1,0,6.7,1.4,8.6,4.1L307,495.2z"/>
	<path d="M315,477.3h5.4v5.4H315V477.3z M315.3,488.7h4.8v30h-4.8V488.7z"/>
	<path d="M347.5,477.3h4.8v41.4h-4.8V516c-1.6,2.1-4.2,3.1-8.2,3.1c-8.2,0-12-5.8-12-13.6v-4c0-8.6,4.6-13.4,12-13.4
		c4,0,6.5,1.3,8.2,3.5V477.3z M347.5,506v-4.4c0-5.6-2.8-9.1-7.7-9.1s-7.7,3.4-7.7,9.1v4c0,5.1,2.6,9.2,7.7,9.2
		C345.1,514.8,347.5,511,347.5,506z"/>
</g>
<g>
	<path d="M550.4,344.1v4.7h-19.8v13.9h18v4.7h-18v18.1h-5.2v-41.4H550.4z"/>
	<path d="M556.7,344.1h5.4v5.4h-5.4V344.1z M557,355.5h4.8v30H557V355.5z"/>
	<path d="M570.5,355.5h4.8v2.9c1.5-2.3,3.6-3.4,8-3.4c6.4,0,10.9,3.4,10.9,11.8v18.7h-4.8v-18.7c0-6.1-3.3-7.4-6.8-7.4
		c-4.5,0-7.3,3.2-7.3,7.3v18.7h-4.8V355.5z"/>
	<path d="M623.9,380.9c-2.1,3.7-5.3,5-10.5,5c-8,0-12.8-5.2-12.8-13.6v-4c0-8.5,4-13.4,11.9-13.4c7.9,0,11.9,4.9,11.9,13.4v3.1h-19
		v0.8c0,5.2,2.5,9.2,7.7,9.2c3.9,0,5.9-1.1,7.1-3.4L623.9,380.9z M605.4,367.4h14.1c-0.2-5-2.5-8-7-8
		C607.8,359.3,605.7,362.4,605.4,367.4z"/>
	<path d="M675.7,364.7v2.4c0,13.4-6.1,18.9-15.2,18.9s-15-5.5-15-18.9v-4.6c0-13.4,5.8-18.9,15-18.9c8,0,13.6,4.3,14.9,13.4h-5
		c-1.3-6.2-4.6-8.7-9.8-8.7c-6.4,0-9.8,4-9.8,14.2v4.6c0,10.3,3.5,14.2,9.8,14.2c5.8,0,9.5-3.4,10-11.9h-9.8v-4.7H675.7z"/>
	<path d="M698.8,362c-1.3-1.7-2.8-2.5-5-2.5c-3.7,0-6.4,2.8-6.4,7.3v18.8h-4.8v-30h4.8v2.9c1.3-2.1,3.3-3.4,7-3.4
		c4.1,0,6.7,1.4,8.6,4.1L698.8,362z"/>
	<path d="M706.8,344.1h5.4v5.4h-5.4V344.1z M707.1,355.5h4.8v30h-4.8V355.5z"/>
	<g>
		<path class="st4" d="M612.4,350c-6.9,0-12,3.1-14.7,8.5c-2.4-5.4-7.4-8.5-14.4-8.5c-1.9,0-4,0.1-6.1,0.9c-0.6-0.2-1.2-0.4-1.9-0.4
			h-4.8c-1.9,0-3.5,1-4.3,2.6c-0.1-0.1-0.1-0.3-0.2-0.4c0.7-0.9,1.2-2,1.2-3.2v-5.4c0-2.8-2.2-5-5-5h-5.4c-1.2,0-2.3,0.4-3.2,1.1
			c-0.9-0.7-1.9-1.1-3.2-1.1h-25c-2.8,0-5,2.2-5,5v41.4c0,2.8,2.2,5,5,5h5.2c2.8,0,5-2.2,5-5v-13.1h13c1.3,0,2.5-0.5,3.4-1.4v14.5
			c0,2.8,2.2,5,5,5h4.8c1.9,0,3.5-1,4.3-2.6c0.9,1.5,2.5,2.6,4.3,2.6h4.8c2.8,0,5-2.2,5-5v-18.7c0-2.3,1.7-2.3,2.3-2.3
			c1.1,0,1.5,0.2,1.5,0.2c0,0,0.4,0.5,0.4,2.2v18.7c0,2.8,2.2,5,5,5h4.8c2.8,0,5-2.2,5-5v-1.1c3.1,4.1,8.1,6.6,14.1,6.6
			c4.5,0,11-0.8,14.8-7.6c1.3-2.2,0.7-5.1-1.4-6.6l-0.8-0.6c1.9-0.7,3.3-2.5,3.3-4.7v-3.1C629.3,356.9,623,350,612.4,350z
			 M548.6,357.7h-13v-3.9h14.8c0.8,0,1.5-0.2,2.1-0.5c-0.3,0.7-0.5,1.4-0.5,2.2v3.6C551.1,358.2,549.9,357.7,548.6,357.7z
			 M613,376.6c-0.2,0-0.5,0-0.8-0.1h2.2C614.1,376.6,613.6,376.6,613,376.6z"/>
		<path class="st4" d="M744.1,339.1h-4.8c-2.8,0-5,2.2-5,5v6.2c-1-0.2-2.1-0.2-3.2-0.2c-6.4,0-11.3,2.7-14.2,7.5v-2
			c0-1-0.3-2-0.9-2.8c0.7-0.9,1.2-2,1.2-3.2v-5.4c0-2.8-2.2-5-5-5h-5.4c-2.8,0-5,2.2-5,5v5.4c0,0.9,0.3,1.8,0.7,2.6
			c-2.3-1.4-5-2-8.2-2c-1.9,0-3.6,0.3-5.2,0.8c-0.6-0.2-1.2-0.3-1.8-0.3h-4.8c-1.3,0-2.5,0.5-3.3,1.3c-2.7-8.4-9.4-13.2-18.8-13.2
			c-6,0-20,2.3-20,23.9v4.6c0,21.6,14,23.9,20,23.9c4.3,0,12.6-1.2,17.1-9.5v4c0,2.8,2.2,5,5,5h4.8c2.8,0,5-2.2,5-5v-18.8
			c0-2.3,1.1-2.3,1.4-2.3c0.7,0,0.7,0.1,1,0.5c1,1.3,2.5,2.1,4.1,2.1c1,0,2-0.3,2.9-0.9l0.4-0.3v19.7c0,2.8,2.2,5,5,5h4.8
			c2.8,0,5-2.2,5-5v-2c2.9,4.7,7.8,7.5,14.2,7.5c2.3,0,4.4-0.3,6.2-0.9c0.6,0.3,1.3,0.4,2,0.4h4.8c2.8,0,5-2.2,5-5v-41.4
			C749.1,341.3,746.8,339.1,744.1,339.1z M660.4,376.3c-1.7,0-4,0-4.7-5.7c0.5,2.2,2.5,3.8,4.8,3.8h3.7
			C663.2,376.3,661.7,376.3,660.4,376.3z M660.6,359.7c-2.8,0-5,2.2-5,5v3.7c0-0.4,0-0.8,0-1.3v-4.6c0-9.2,2.8-9.2,4.8-9.2
			c2.4,0,4,0.3,5,4.7c0.1,0.6,0.4,1.1,0.7,1.6H660.6z M734.3,372.8c0,3.8-1.6,3.8-2.7,3.8c-2.2,0-2.7-2.3-2.7-4.2v-4
			c0-4.1,1.7-4.1,2.7-4.1c0.9,0,2.7,0,2.7,4.1V372.8z"/>
	</g>
	<path d="M739.3,344.1h4.8v41.4h-4.8v-2.6c-1.6,2.1-4.2,3.1-8.2,3.1c-8.2,0-12-5.8-12-13.6v-4c0-8.6,4.6-13.4,12-13.4
		c4,0,6.5,1.3,8.2,3.5V344.1z M739.3,372.8v-4.4c0-5.6-2.8-9.1-7.7-9.1c-4.9,0-7.7,3.4-7.7,9.1v4c0,5.1,2.6,9.2,7.7,9.2
		C736.9,381.6,739.3,377.8,739.3,372.8z"/>
</g>
<g>
	<g>
		<path class="st5" d="M764,354c51.2-58,107-28.9,100.8,34.6"/>
		<g>
			<polygon points="851.9,374.8 865.3,383.7 881,380.2 860,412 			"/>
		</g>
	</g>
</g>
<g>
	<line class="st3" x1="295.3" y1="414" x2="295.3" y2="14"/>
</g>
<g>
</g>
<g>
</g>
<g>
</g>
<g>
</g>
<g>
</g>
<g>
</g>
<g>
</g>
<g>
</g>
<g>
</g>
<g>
</g>
<g>
</g>
<g>
</g>
<g>
</g>
<g>
</g>
<g>
</g>
<g>
</g>
</svg>
