<?xml version="1.0" encoding="utf-8"?>
<!-- Generator: Adobe Illustrator 24.3.0, SVG Export Plug-In . SVG Version: 6.00 Build 0)  -->
<svg version="1.1" id="Layer_1" xmlns="http://www.w3.org/2000/svg" xmlns:xlink="http://www.w3.org/1999/xlink" x="0px" y="0px"
	 viewBox="0 0 366.2 212.7" style="enable-background:new 0 0 366.2 212.7;" xml:space="preserve">
<style type="text/css">
	.st0{clip-path:url(#SVGID_2_);}
	.st1{clip-path:url(#SVGID_2_);fill:#7AC143;}
	.st2{clip-path:url(#SVGID_2_);fill:#005DAA;}
	.st3{clip-path:url(#SVGID_2_);fill:#E36F1E;}
	.st4{clip-path:url(#SVGID_2_);fill:#008752;}
	.st5{opacity:0;clip-path:url(#SVGID_2_);fill:none;stroke:#000000;stroke-width:9.999999e-07;stroke-miterlimit:10;}
	.st6{opacity:0;fill:none;stroke:#000000;stroke-width:1.000000e-06;stroke-miterlimit:10;}
	.st7{fill:#E36F1E;}
	.st8{fill:none;stroke:#E36F1E;stroke-width:6;stroke-linecap:round;stroke-miterlimit:10;}
	.st9{fill:none;}
	.st10{fill:#E36F1E;stroke:#E36F1E;stroke-miterlimit:10;}
	.st11{fill:none;stroke:#008752;stroke-width:6;stroke-linecap:round;stroke-miterlimit:10;}
	.st12{fill:#008752;}
	.st13{fill:#008752;stroke:#008752;stroke-miterlimit:10;}
	.st14{fill:none;stroke:#7AC143;stroke-width:6;stroke-linecap:round;stroke-miterlimit:10;}
	.st15{fill:#7AC143;}
	.st16{fill:#008752;stroke:#7AC143;stroke-miterlimit:10;}
	.st17{fill:none;stroke:#005DAA;stroke-width:6;stroke-linecap:round;stroke-miterlimit:10;}
	.st18{fill:#005DAA;}
	.st19{fill:#008752;stroke:#005DAA;stroke-miterlimit:10;}
	.st20{fill:none;stroke:#231F20;stroke-width:6;stroke-linecap:round;stroke-miterlimit:10;}
	.st21{fill:#231F20;}
	.st22{fill:#008752;stroke:#231F20;stroke-miterlimit:10;}
</style>
<g>
	<defs>
		<rect id="SVGID_1_" x="2.8" y="89.7" width="353" height="37"/>
	</defs>
	<clipPath id="SVGID_2_">
		<use xlink:href="#SVGID_1_"  style="overflow:visible;"/>
	</clipPath>
	<path class="st0" d="M29.7,95.5c0.3-1.3,0.4-1.7,3-1.7c0.9,0,1.2,0,1.2-0.7c0-0.4-0.4-0.4-0.5-0.4c-1,0-3.6,0.1-4.6,0.1
		c-1,0-3.6-0.1-4.6-0.1c-0.3,0-0.7,0-0.7,0.7c0,0.4,0.3,0.4,1,0.4c0.1,0,0.8,0,1.4,0.1c0.6,0.1,1,0.1,1,0.6c0,0.1,0,0.2-0.1,0.7
		l-2.2,8.8h-11l2.1-8.4c0.3-1.3,0.4-1.7,3-1.7c0.9,0,1.2,0,1.2-0.7c0-0.4-0.4-0.4-0.5-0.4c-1,0-3.6,0.1-4.6,0.1
		c-1,0-3.6-0.1-4.6-0.1c-0.3,0-0.7,0-0.7,0.7c0,0.4,0.3,0.4,1,0.4c0.1,0,0.8,0,1.4,0.1c0.6,0.1,1,0.1,1,0.6c0,0.1,0,0.3-0.1,0.7
		l-4.8,19.3c-0.4,1.4-0.4,1.7-3.3,1.7c-0.6,0-1,0-1,0.7c0,0.4,0.4,0.4,0.5,0.4c1,0,3.6-0.1,4.6-0.1c0.8,0,1.5,0,2.3,0
		c0.8,0,1.6,0.1,2.3,0.1c0.3,0,0.7,0,0.7-0.7c0-0.4-0.3-0.4-1-0.4c-1.3,0-2.3,0-2.3-0.6c0-0.2,0.1-0.4,0.1-0.6l2.4-9.8h11
		c-1.5,6-2.3,9.4-2.5,9.9c-0.4,1.1-1,1.2-3.3,1.2c-0.5,0-0.9,0-0.9,0.7c0,0.4,0.4,0.4,0.5,0.4c1,0,3.6-0.1,4.6-0.1
		c0.8,0,1.5,0,2.3,0c0.8,0,1.6,0.1,2.3,0.1c0.3,0,0.7,0,0.7-0.7c0-0.4-0.3-0.4-1-0.4c-1.3,0-2.3,0-2.3-0.6c0-0.2,0.1-0.4,0.1-0.6
		L29.7,95.5"/>
	<path class="st0" d="M46.9,125.9c0-0.1,0-0.2-0.6-0.8c-4.5-4.5-5.6-11.3-5.6-16.8c0-6.3,1.4-12.5,5.8-17c0.5-0.4,0.5-0.5,0.5-0.6
		c0-0.3-0.1-0.4-0.4-0.4c-0.4,0-3.6,2.4-5.7,7c-1.8,4-2.3,7.9-2.3,11c0,2.8,0.4,7.1,2.4,11.2c2.2,4.4,5.2,6.8,5.6,6.8
		C46.8,126.3,46.9,126.1,46.9,125.9"/>
	<path class="st1" d="M55.2,116.9c-2.2,0-2.3-2.8-2.3-3.4c0-1.7,1-5.6,1.7-7.1c1.1-2.7,3-4.2,4.5-4.2c2.3,0,2.8,2.9,2.8,3.2
		c0,0.2-2,8.1-2.1,8.2C59.3,114.6,57.3,116.9,55.2,116.9 M65.2,101.8c0-0.1-0.1-0.4-0.4-0.4c-0.4,0-1.8,1.4-2.4,2.5
		c-0.8-1.9-2.2-2.5-3.3-2.5c-4.2,0-8.7,5.3-8.7,10.5c0,3.5,2.1,5.7,4.7,5.7c1.5,0,2.9-0.9,4.2-2.2c-0.3,1.3-1.5,6.1-1.6,6.4
		c-0.3,1-0.6,1.2-2.6,1.2c-0.5,0-0.8,0-0.8,0.7c0,0,0,0.4,0.5,0.4c1.1,0,2.4-0.1,3.6-0.1c1.2,0,2.5,0.1,3.7,0.1c0.2,0,0.6,0,0.6-0.7
		c0-0.4-0.4-0.4-0.9-0.4c-1.7,0-1.7-0.3-1.7-0.6c0-0.3,0.1-0.5,0.1-0.8L65.2,101.8z"/>
	<path class="st0" d="M73.5,117.2c0-2.4-0.9-3.8-2.3-3.8c-1.2,0-1.9,0.9-1.9,1.9c0,1,0.7,1.9,1.9,1.9c0.4,0,0.9-0.1,1.3-0.5
		c0.1-0.1,0.1-0.1,0.2-0.1c0,0,0.1,0,0.1,0.5c0,2.7-1.3,4.8-2.4,6c-0.4,0.4-0.4,0.5-0.4,0.6c0,0.3,0.2,0.4,0.4,0.4
		C70.7,124.2,73.5,121.4,73.5,117.2"/>
	<path class="st2" d="M90.1,106.1c0.3-1,1.2-2,1.9-2.5c1.3-1.1,2.3-1.4,2.9-1.4c1.4,0,2.3,1.3,2.3,3.4c0,2.1-1.2,6.2-1.8,7.6
		c-1.2,2.5-2.9,3.7-4.3,3.7c-2.4,0-2.8-3-2.8-3.2c0-0.1,0-0.1,0.1-0.6L90.1,106.1 M83.8,121.7c-0.3,1.2-0.4,1.5-1.9,1.5
		c-0.4,0-0.8,0-0.8,0.7c0,0.3,0.2,0.4,0.5,0.4c1,0,2-0.1,3-0.1c1.2,0,2.4,0.1,3.6,0.1c0.2,0,0.6,0,0.6-0.7c0-0.4-0.4-0.4-0.9-0.4
		c-1.8,0-1.8-0.3-1.8-0.6c0-0.4,1.5-6.3,1.8-7.2c0.5,1,1.5,2.3,3.3,2.3c4.2,0,8.7-5.2,8.7-10.5c0-3.4-2-5.7-4.8-5.7
		c-1.8,0-3.5,1.3-4.7,2.7c-0.4-1.9-1.9-2.7-3.2-2.7c-1.7,0-2.3,1.4-2.7,2c-0.6,1.2-1.1,3.4-1.1,3.5c0,0.4,0.4,0.4,0.4,0.4
		c0.4,0,0.4,0,0.6-0.8c0.6-2.5,1.3-4.3,2.6-4.3c0.6,0,1.1,0.3,1.1,1.7c0,0.8-0.1,1.2-0.3,1.8L83.8,121.7z"/>
	<path class="st0" d="M110.6,108.3c0-2.8-0.4-7.1-2.4-11.2c-2.2-4.4-5.2-6.8-5.6-6.8c-0.2,0-0.4,0.1-0.4,0.4c0,0.1,0,0.2,0.7,0.8
		c3.5,3.6,5.6,9.3,5.6,16.8c0,6.1-1.3,12.5-5.8,17c-0.5,0.4-0.5,0.5-0.5,0.6c0,0.2,0.1,0.4,0.4,0.4c0.4,0,3.6-2.4,5.7-7
		C110.2,115.3,110.6,111.3,110.6,108.3"/>
	<path class="st0" d="M148.9,112.5c0.5,0,1.2,0,1.2-0.7c0-0.7-0.7-0.7-1.2-0.7h-21.4c-0.5,0-1.2,0-1.2,0.7c0,0.7,0.7,0.7,1.2,0.7
		H148.9 M148.8,105.5c0.5,0,1.2,0,1.2-0.7c0-0.7-0.7-0.7-1.2-0.7h-21.5c-0.5,0-1.2,0-1.2,0.7c0,0.7,0.7,0.7,1.2,0.7H148.8z"/>
	<path class="st3" d="M184.9,96.5c0.4-1.5,1-2.6,3.9-2.7c0.2,0,0.6,0,0.6-0.7c0,0,0-0.4-0.5-0.4c-1.2,0-2.4,0.1-3.7,0.1
		c-1.2,0-2.6-0.1-3.7-0.1c-0.2,0-0.6,0-0.6,0.7c0,0.4,0.4,0.4,0.6,0.4c2,0,2.4,0.8,2.4,1.6c0,0.1-0.1,0.6-0.1,0.8l-3.2,12.8
		c-1.2,4.8-5.4,7.9-8.9,7.9c-2.4,0-4.4-1.6-4.4-4.7c0-0.1,0-1.2,0.4-2.8l3.5-14c0.3-1.3,0.4-1.7,3-1.7c0.9,0,1.2,0,1.2-0.7
		c0-0.4-0.4-0.4-0.5-0.4c-1,0-3.6,0.1-4.6,0.1c-1,0-3.6-0.1-4.6-0.1c-0.3,0-0.7,0-0.7,0.7c0,0.4,0.3,0.4,1,0.4c0.1,0,0.8,0,1.4,0.1
		c0.6,0.1,1,0.1,1,0.6c0,0.2-0.4,1.7-0.6,2.6l-0.8,3.2c-0.3,1.4-2,8.2-2.2,8.9c-0.3,1-0.3,1.5-0.3,2.1c0,4.4,3.3,6.9,7,6.9
		c4.5,0,9-4.1,10.2-8.8L184.9,96.5"/>
	<path class="st3" d="M202.3,125.9c0-0.1,0-0.2-0.6-0.8c-4.5-4.5-5.6-11.3-5.6-16.8c0-6.3,1.4-12.5,5.8-17c0.5-0.4,0.5-0.5,0.5-0.6
		c0-0.3-0.1-0.4-0.4-0.4c-0.4,0-3.6,2.4-5.7,7c-1.8,4-2.3,7.9-2.3,11c0,2.8,0.4,7.1,2.4,11.2c2.2,4.4,5.2,6.8,5.6,6.8
		C202.2,126.3,202.3,126.1,202.3,125.9"/>
	<path class="st1" d="M210.6,116.9c-2.2,0-2.3-2.8-2.3-3.4c0-1.7,1-5.6,1.7-7.1c1.1-2.7,3-4.2,4.5-4.2c2.3,0,2.8,2.9,2.8,3.2
		c0,0.2-2,8.1-2.1,8.2C214.7,114.6,212.7,116.9,210.6,116.9 M220.6,101.8c0-0.1-0.1-0.4-0.4-0.4c-0.4,0-1.8,1.4-2.4,2.5
		c-0.8-1.9-2.2-2.5-3.3-2.5c-4.2,0-8.7,5.3-8.7,10.5c0,3.5,2.1,5.7,4.7,5.7c1.5,0,2.9-0.9,4.2-2.2c-0.3,1.3-1.5,6.1-1.6,6.4
		c-0.3,1-0.6,1.2-2.6,1.2c-0.5,0-0.8,0-0.8,0.7c0,0,0,0.4,0.5,0.4c1.1,0,2.4-0.1,3.6-0.1c1.2,0,2.5,0.1,3.7,0.1c0.2,0,0.6,0,0.6-0.7
		c0-0.4-0.4-0.4-0.9-0.4c-1.7,0-1.7-0.3-1.7-0.6c0-0.3,0.1-0.5,0.1-0.8L220.6,101.8z"/>
	<path class="st3" d="M232,108.3c0-2.8-0.4-7.1-2.4-11.2c-2.2-4.4-5.2-6.8-5.6-6.8c-0.2,0-0.4,0.1-0.4,0.4c0,0.1,0,0.2,0.7,0.8
		c3.5,3.6,5.6,9.3,5.6,16.8c0,6.1-1.3,12.5-5.8,17c-0.5,0.4-0.5,0.5-0.5,0.6c0,0.2,0.1,0.4,0.4,0.4c0.4,0,3.6-2.4,5.7-7
		C231.6,115.3,232,111.3,232,108.3"/>
	<path class="st0" d="M258.2,109h10c0.5,0,1.2,0,1.2-0.7c0-0.7-0.7-0.7-1.2-0.7h-10V97.5c0-0.5,0-1.2-0.7-1.2
		c-0.7,0-0.7,0.7-0.7,1.2v10.1h-10.1c-0.5,0-1.2,0-1.2,0.7c0,0.7,0.7,0.7,1.2,0.7h10.1v10.1c0,0.5,0,1.2,0.7,1.2
		c0.7,0,0.7-0.7,0.7-1.2V109"/>
	<path class="st4" d="M297.7,102.8c0-0.1-0.2-0.4-0.2-0.5c0,0,0.6-0.5,1-0.8l6.3-4.8c3.4-2.5,4.8-2.6,5.9-2.7c0.3,0,0.6-0.1,0.6-0.7
		c0-0.1-0.1-0.4-0.4-0.4c-0.8,0-1.7,0.1-2.6,0.1c-1.3,0-2.7-0.1-4-0.1c-0.3,0-0.7,0-0.7,0.7c0,0.3,0.2,0.4,0.4,0.4
		c0.8,0.1,1.1,0.3,1.1,0.8c0,0.6-1.1,1.5-1.3,1.7L290,107l2.9-11.5c0.3-1.3,0.4-1.7,3-1.7c0.9,0,1.2,0,1.2-0.7
		c0-0.3-0.3-0.4-0.5-0.4c-1,0-3.6,0.1-4.6,0.1c-1,0-3.6-0.1-4.6-0.1c-0.3,0-0.7,0-0.7,0.7c0,0.4,0.3,0.4,1,0.4c0.5,0,1.1,0,1.5,0.1
		c0.6,0.1,0.8,0.2,0.8,0.6c0,0.1,0,0.3-0.1,0.7l-4.8,19.3c-0.4,1.4-0.4,1.7-3.3,1.7c-0.6,0-1,0-1,0.7c0,0.4,0.4,0.4,0.5,0.4
		c1,0,3.6-0.1,4.6-0.1c0.8,0,1.5,0,2.3,0c0.8,0,1.6,0.1,2.3,0.1c0.3,0,0.7,0,0.7-0.7c0-0.4-0.3-0.4-1-0.4c-1.3,0-2.3,0-2.3-0.6
		c0-0.3,0.2-1,0.3-1.6c0.5-1.9,1-3.8,1.4-5.6l5.4-4.2l4.2,9.7c0.4,1,0.4,1,0.4,1.3c0,1.1-1.5,1.1-1.9,1.1c-0.4,0-0.8,0-0.8,0.7
		c0,0.4,0.4,0.4,0.5,0.4c1.4,0,2.9-0.1,4.4-0.1c0.8,0,2.7,0.1,3.5,0.1c0.2,0,0.6,0,0.6-0.7c0-0.4-0.4-0.4-0.7-0.4
		c-1.5,0-1.9-0.4-2.5-1.6L297.7,102.8"/>
	<path class="st4" d="M324.3,125.9c0-0.1,0-0.2-0.6-0.8c-4.5-4.5-5.6-11.3-5.6-16.8c0-6.3,1.4-12.5,5.8-17c0.5-0.4,0.5-0.5,0.5-0.6
		c0-0.3-0.1-0.4-0.4-0.4c-0.4,0-3.6,2.4-5.7,7c-1.8,4-2.3,7.9-2.3,11c0,2.8,0.4,7.1,2.4,11.2c2.2,4.4,5.2,6.8,5.6,6.8
		C324.2,126.3,324.3,126.1,324.3,125.9"/>
	<path class="st2" d="M334.4,106.1c0.3-1,1.2-2,1.9-2.5c1.3-1.1,2.3-1.4,2.9-1.4c1.4,0,2.3,1.3,2.3,3.4c0,2.1-1.2,6.2-1.8,7.6
		c-1.2,2.5-2.9,3.7-4.3,3.7c-2.4,0-2.8-3-2.8-3.2c0-0.1,0-0.1,0.1-0.6L334.4,106.1 M328.1,121.7c-0.3,1.2-0.4,1.5-1.9,1.5
		c-0.4,0-0.8,0-0.8,0.7c0,0.3,0.2,0.4,0.5,0.4c1,0,2-0.1,3-0.1c1.2,0,2.4,0.1,3.6,0.1c0.2,0,0.6,0,0.6-0.7c0-0.4-0.4-0.4-0.9-0.4
		c-1.8,0-1.8-0.3-1.8-0.6c0-0.4,1.5-6.3,1.8-7.2c0.5,1,1.5,2.3,3.3,2.3c4.2,0,8.7-5.2,8.7-10.5c0-3.4-2-5.7-4.8-5.7
		c-1.8,0-3.5,1.3-4.7,2.7c-0.4-1.9-1.9-2.7-3.2-2.7c-1.7,0-2.3,1.4-2.7,2c-0.6,1.2-1.1,3.4-1.1,3.5c0,0.4,0.4,0.4,0.4,0.4
		c0.4,0,0.4,0,0.6-0.8c0.6-2.5,1.3-4.3,2.6-4.3c0.6,0,1.1,0.3,1.1,1.7c0,0.8-0.1,1.2-0.3,1.8L328.1,121.7z"/>
	<path class="st4" d="M354.8,108.3c0-2.8-0.4-7.1-2.4-11.2c-2.2-4.4-5.2-6.8-5.6-6.8c-0.2,0-0.4,0.1-0.4,0.4c0,0.1,0,0.2,0.7,0.8
		c3.5,3.6,5.6,9.3,5.6,16.8c0,6.1-1.3,12.5-5.8,17c-0.5,0.4-0.5,0.5-0.5,0.6c0,0.2,0.1,0.4,0.4,0.4c0.4,0,3.6-2.4,5.7-7
		C354.4,115.3,354.8,111.3,354.8,108.3"/>
	<path class="st5" d="M179.3,108.2"/>
</g>
<polygon class="st6" points="178.3,108.6 178.3,108.6 178.3,108.6 178.3,108.6 178.3,108.6 178.3,108.6 178.3,108.6 178.3,108.6 
	178.3,108.6 178.3,108.6 178.3,108.6 178.3,108.6 178.3,108.6 178.3,108.6 178.3,108.6 178.3,108.6 178.3,108.6 178.3,108.6 
	178.3,108.6 178.3,108.6 178.3,108.6 178.3,108.6 178.3,108.6 178.3,108.6 178.3,108.6 178.3,108.6 178.3,108.6 178.3,108.6 
	178.3,108.6 178.3,108.6 178.3,108.6 178.3,108.6 178.3,108.6 178.3,108.6 178.3,108.6 178.3,108.6 178.3,108.6 178.3,108.6 
	178.3,108.6 178.3,108.6 178.3,108.6 178.3,108.6 178.3,108.6 178.3,108.6 178.3,108.6 178.3,108.6 178.3,108.6 178.3,108.6 
	178.3,108.6 178.3,108.6 178.3,108.6 178.3,108.6 178.3,108.6 178.3,108.6 178.3,108.6 178.3,108.6 178.3,108.6 178.3,108.6 
	178.3,108.6 178.3,108.6 178.3,108.6 178.3,108.6 178.3,108.6 178.3,108.6 178.3,108.6 178.3,108.6 178.3,108.6 178.3,108.6 
	178.3,108.6 178.3,108.6 178.3,108.6 178.3,108.6 178.3,108.6 178.3,108.6 178.3,108.6 178.3,108.6 178.3,108.6 178.3,108.6 
	178.3,108.6 178.3,108.6 178.3,108.6 178.3,108.6 178.3,108.6 178.3,108.6 178.3,108.6 178.3,108.6 178.3,108.6 178.3,108.6 
	178.3,108.6 178.3,108.6 "/>
<g>
	<line class="st7" x1="131.4" y1="45.2" x2="161.6" y2="83.8"/>
	<g>
		<line class="st8" x1="131.4" y1="45.2" x2="150.9" y2="70.1"/>
		<g>
			<polygon class="st7" points="161.6,83.8 138.6,70.6 150.1,69 154.4,58.3 			"/>
		</g>
	</g>
</g>
<g>
	<rect x="36.5" y="4.2" class="st9" width="164.7" height="52.4"/>
	<path class="st10" d="M39.5,14v6.8h-0.7V4.2h4.8c3.8,0,6,1.8,6,4.9c0,3-2.2,4.9-6,4.9H39.5z M43.6,13.3c3.6,0,5.3-1.5,5.3-4.2
		c0-2.6-1.7-4.2-5.3-4.2h-4.1v8.3H43.6z"/>
	<path class="st10" d="M55.7,20.9c-3,0-4.8-1.7-4.8-5.1v-2c0-3.4,1.8-5.1,4.8-5.1c3,0,4.8,1.7,4.8,5.1v2
		C60.5,19.2,58.7,20.9,55.7,20.9z M59.8,13.8c0-3-1.4-4.4-4-4.4s-4,1.4-4,4.4v2c0,3,1.4,4.4,4,4.4s4-1.4,4-4.4V13.8z"/>
	<path class="st10" d="M62.4,8.8H64V6.1h0.7v2.6h3.2v0.7h-3.2v7.3c0,2.2,0.3,3.2,2.5,3.2h0.6v0.7h-0.7c-2.5,0-3.2-1.2-3.2-3.7V9.5
		h-1.5V8.8z"/>
	<path class="st10" d="M70.6,15v0.8c0,2.7,1.2,4.5,4.2,4.5c1.4,0,2.6-0.4,3.4-1.6l0.6,0.4c-0.8,1.2-2.2,1.9-4,1.9
		c-3.1,0-4.9-1.9-4.9-5.2v-2c0-3.4,1.7-5.1,4.5-5.1c2.8,0,4.5,1.7,4.5,5.1V15H70.6z M70.6,14.3h7.6v-0.5c0-3-1.4-4.4-3.8-4.4
		c-2.4,0-3.8,1.5-3.8,4.4V14.3z"/>
	<path class="st10" d="M82.1,8.8h0.7v2c0.7-1.4,2-2.2,3.9-2.2c2.8,0,4.4,1.9,4.4,5.4v6.8h-0.7V14c0-3-1.4-4.7-3.7-4.7
		c-2.7,0-3.8,1.7-3.9,4.4v7h-0.7V8.8z"/>
	<path class="st10" d="M93.6,8.8h1.5V6.1h0.7v2.6H99v0.7h-3.2v7.3c0,2.2,0.3,3.2,2.5,3.2H99v0.7h-0.7c-2.5,0-3.2-1.2-3.2-3.7V9.5
		h-1.5V8.8z"/>
	<path class="st10" d="M102.1,4.2h1.1v1.1h-1.1V4.2z M102.3,8.8h0.7v12h-0.7V8.8z"/>
	<path class="st10" d="M110,14.1h4.2v-1.6c0-2.4-0.8-3.1-3.4-3.1c-1.4,0-2.5,0-3.4,1.5l-0.6-0.4c0.8-1.4,2-1.8,4-1.8
		c2.8,0,4.1,0.8,4.1,3.8v8.3h-0.7V19c-0.7,1.4-2.3,1.9-3.8,1.9c-2.5,0-4.1-1.2-4.1-3.5C106.4,15.4,107.7,14.1,110,14.1z M114.2,14.8
		H110c-2.2,0-3,1.3-3,2.6c0,2,1.4,2.8,3.3,2.8c2.1,0,3.8-1,3.8-3.7V14.8z"/>
	<path class="st10" d="M118.5,4.2h0.7V17c0,2.1,0.3,3.2,2.5,3.2v0.7c-2.5,0-3.2-1.2-3.2-3.7V4.2z"/>
	<path class="st10" d="M48.3,33v0.7h-8.8v6.9h8.1v0.7h-8.1v7.5h8.8v0.7h-9.5V33H48.3z"/>
	<path class="st10" d="M51.4,37.6h0.7v2c0.7-1.4,2-2.2,3.9-2.2c2.8,0,4.4,1.9,4.4,5.4v6.8h-0.7v-6.8c0-3-1.4-4.7-3.7-4.7
		c-2.7,0-3.8,1.7-3.9,4.4v7h-0.7V37.6z"/>
	<path class="st10" d="M64.1,43.8v0.8c0,2.7,1.2,4.5,4.2,4.5c1.4,0,2.6-0.4,3.4-1.6l0.6,0.4c-0.8,1.2-2.2,1.9-4,1.9
		c-3.1,0-4.9-1.9-4.9-5.2v-2c0-3.4,1.7-5.1,4.5-5.1c2.8,0,4.5,1.7,4.5,5.1v1.2H64.1z M64.1,43.1h7.6v-0.5c0-3-1.4-4.4-3.8-4.4
		c-2.4,0-3.8,1.5-3.8,4.4V43.1z"/>
	<path class="st10" d="M76.3,42.6v7h-0.7v-12h0.7v2c0.5-1.3,1.7-2.2,3.3-2.2c1.5,0,2.5,0.6,3.3,1.7l-0.6,0.5
		c-0.7-0.9-1.6-1.4-2.8-1.4C77.3,38.2,76.3,40,76.3,42.6z"/>
	<path class="st10" d="M83.9,42.6c0-3.4,1.6-5.1,4.6-5.1c2,0,3.3,0.6,4,1.9v-1.8h0.7v11.3c0,3.3-1.7,5.4-4.7,5.4
		c-1.7,0-3-0.7-3.8-1.9l0.6-0.4c0.8,1.2,1.9,1.6,3.2,1.6c2.8,0,3.9-2,3.9-4.7v-1.1c-0.7,1.4-2,1.9-4,1.9c-3,0-4.6-1.7-4.6-5.2V42.6z
		 M92.5,44.8v-2.4c0-2.5-0.9-4.2-4-4.2c-2.6,0-3.8,1.5-3.8,4.4v2c0,3,1.2,4.5,3.8,4.5C91.6,49,92.4,47.3,92.5,44.8z"/>
	<path class="st10" d="M96.8,53.4c2.2,0,2.6-1,3.5-3.5l0-0.2l-5.1-12.2H96l3.6,8.6l1.1,2.5l4-11.2h0.7L101,50.1c-1,2.9-1.9,4-4.2,4
		V53.4z"/>
</g>
<g>
	<line class="st7" x1="299.9" y1="35.1" x2="303.1" y2="83.9"/>
	<g>
		<line class="st11" x1="299.9" y1="35.1" x2="302" y2="66.6"/>
		<g>
			<polygon class="st12" points="303.1,83.9 291.5,60.1 301.9,65.3 311.5,58.8 			"/>
		</g>
	</g>
</g>
<g>
	<rect x="201.5" y="4.2" class="st9" width="164.7" height="52.4"/>
	<path class="st13" d="M214.8,20.8l-6.6-9.4l-3.7,4.2v5.2h-0.7V4.2h0.7v10.3l9-10.3h1l-5.8,6.6l7,10H214.8z"/>
	<path class="st13" d="M217.9,4.2h1.1v1.1h-1.1V4.2z M218.1,8.8h0.7v12h-0.7V8.8z"/>
	<path class="st13" d="M222.8,8.8h0.7v2c0.7-1.4,2-2.2,3.9-2.2c2.8,0,4.4,1.9,4.4,5.4v6.8h-0.7V14c0-3-1.4-4.7-3.7-4.7
		c-2.7,0-3.8,1.7-3.9,4.4v7h-0.7V8.8z"/>
	<path class="st13" d="M235.5,15v0.8c0,2.7,1.2,4.5,4.2,4.5c1.4,0,2.6-0.4,3.4-1.6l0.6,0.4c-0.8,1.2-2.2,1.9-4,1.9
		c-3.1,0-4.9-1.9-4.9-5.2v-2c0-3.4,1.7-5.1,4.5-5.1c2.8,0,4.5,1.7,4.5,5.1V15H235.5z M235.5,14.3h7.6v-0.5c0-3-1.4-4.4-3.8-4.4
		c-2.4,0-3.8,1.5-3.8,4.4V14.3z"/>
	<path class="st13" d="M245.9,8.8h1.5V6.1h0.7v2.6h3.2v0.7h-3.2v7.3c0,2.2,0.3,3.2,2.5,3.2h0.6v0.7h-0.7c-2.5,0-3.2-1.2-3.2-3.7V9.5
		h-1.5V8.8z"/>
	<path class="st13" d="M254.4,4.2h1.1v1.1h-1.1V4.2z M254.5,8.8h0.7v12h-0.7V8.8z"/>
	<path class="st13" d="M267.6,19c-0.8,1.2-2.2,1.9-4,1.9c-3.1,0-4.9-1.8-4.9-5.2v-2c0-3.4,1.8-5.1,4.9-5.1c1.7,0,3.1,0.6,4,1.8
		l-0.6,0.4c-0.8-1.1-2.1-1.5-3.4-1.5c-2.7,0-4.2,1.5-4.2,4.4v2c0,2.7,1.2,4.5,4.2,4.5c1.3,0,2.6-0.4,3.4-1.6L267.6,19z"/>
	<path class="st13" d="M285.8,4.2v0.7h-8.8v6.9h8.1v0.7h-8.1v7.5h8.8v0.7h-9.5V4.2H285.8z"/>
	<path class="st13" d="M289,8.8h0.7v2c0.7-1.4,2-2.2,3.9-2.2c2.8,0,4.4,1.9,4.4,5.4v6.8h-0.7V14c0-3-1.4-4.7-3.7-4.7
		c-2.7,0-3.8,1.7-3.9,4.4v7H289V8.8z"/>
	<path class="st13" d="M301.7,15v0.8c0,2.7,1.2,4.5,4.2,4.5c1.4,0,2.6-0.4,3.4-1.6l0.6,0.4c-0.8,1.2-2.2,1.9-4,1.9
		c-3.1,0-4.9-1.9-4.9-5.2v-2c0-3.4,1.7-5.1,4.5-5.1c2.8,0,4.5,1.7,4.5,5.1V15H301.7z M301.7,14.3h7.6v-0.5c0-3-1.4-4.4-3.8-4.4
		c-2.4,0-3.8,1.5-3.8,4.4V14.3z"/>
	<path class="st13" d="M313.8,13.8v7h-0.7v-12h0.7v2c0.5-1.3,1.7-2.2,3.3-2.2c1.5,0,2.5,0.6,3.3,1.7l-0.6,0.5
		c-0.7-0.9-1.6-1.4-2.8-1.4C314.8,9.4,313.8,11.2,313.8,13.8z"/>
	<path class="st13" d="M321.5,13.8c0-3.4,1.6-5.1,4.6-5.1c2,0,3.3,0.6,4,1.9V8.8h0.7v11.3c0,3.3-1.7,5.4-4.7,5.4
		c-1.7,0-3-0.7-3.8-1.9l0.6-0.4c0.8,1.2,1.9,1.6,3.2,1.6c2.8,0,3.9-2,3.9-4.7V19c-0.7,1.4-2,1.9-4,1.9c-3,0-4.6-1.7-4.6-5.2V13.8z
		 M330,16v-2.4c0-2.5-0.9-4.2-4-4.2c-2.6,0-3.8,1.5-3.8,4.4v2c0,3,1.2,4.5,3.8,4.5C329.1,20.2,330,18.5,330,16z"/>
	<path class="st13" d="M334.3,24.6c2.2,0,2.6-1,3.5-3.5l0-0.2l-5.1-12.2h0.8l3.6,8.6l1.1,2.5l4-11.2h0.7l-4.5,12.6
		c-1,2.9-1.9,4-4.2,4V24.6z"/>
</g>
<g>
	<line class="st7" x1="180.1" y1="174.1" x2="210.9" y2="136"/>
	<g>
		<line class="st14" x1="180.1" y1="174.1" x2="200" y2="149.5"/>
		<g>
			<polygon class="st15" points="210.9,136 203.3,161.3 199.1,150.5 187.7,148.8 			"/>
		</g>
	</g>
</g>
<g>
	<rect x="138.5" y="186.9" class="st9" width="82.3" height="25.8"/>
	<path class="st16" d="M141.5,196.7v6.8h-0.7v-16.6h4.8c3.8,0,6,1.8,6,4.9c0,3-2.2,4.9-6,4.9H141.5z M145.6,195.9
		c3.6,0,5.3-1.5,5.3-4.2c0-2.6-1.7-4.2-5.3-4.2h-4.1v8.3H145.6z"/>
	<path class="st16" d="M157.7,203.6c-3,0-4.8-1.7-4.8-5.1v-2c0-3.4,1.8-5.1,4.8-5.1c3,0,4.8,1.7,4.8,5.1v2
		C162.5,201.9,160.7,203.6,157.7,203.6z M161.8,196.4c0-3-1.4-4.4-4-4.4s-4,1.4-4,4.4v2c0,3,1.4,4.4,4,4.4s4-1.4,4-4.4V196.4z"/>
	<path class="st16" d="M172.5,193.7c-0.8-1.2-1.7-1.7-3.5-1.7s-3.3,0.7-3.3,2.4c0,2,1.8,2.3,3.6,2.6c2.4,0.4,4.2,1.2,4.2,3.5
		c0,1.7-1,3.1-4.3,3.1c-2.3,0-3.5-0.7-4.4-2l0.6-0.4c0.8,1.2,1.8,1.7,3.8,1.7c2.1,0,3.5-0.6,3.5-2.4c0-1.8-1.6-2.4-4.1-2.8
		c-2.1-0.4-3.8-1-3.8-3.2c0-1.9,1.5-3.1,4.1-3.1c1.8,0,3.2,0.5,4.1,2L172.5,193.7z"/>
	<path class="st16" d="M176.6,186.9h1.1v1.1h-1.1V186.9z M176.8,191.4h0.7v12h-0.7V191.4z"/>
	<path class="st16" d="M180.4,191.4h1.5v-2.6h0.7v2.6h3.2v0.7h-3.2v7.3c0,2.2,0.3,3.2,2.5,3.2h0.6v0.7h-0.7c-2.5,0-3.2-1.2-3.2-3.7
		v-7.6h-1.5V191.4z"/>
	<path class="st16" d="M188.9,186.9h1.1v1.1h-1.1V186.9z M189.1,191.4h0.7v12h-0.7V191.4z"/>
	<path class="st16" d="M197.9,203.6c-3,0-4.8-1.7-4.8-5.1v-2c0-3.4,1.8-5.1,4.8-5.1s4.8,1.7,4.8,5.1v2
		C202.7,201.9,200.9,203.6,197.9,203.6z M202,196.4c0-3-1.4-4.4-4-4.4s-4,1.4-4,4.4v2c0,3,1.4,4.4,4,4.4s4-1.4,4-4.4V196.4z"/>
	<path class="st16" d="M205.7,191.4h0.7v2c0.7-1.4,2-2.2,3.9-2.2c2.8,0,4.4,1.9,4.4,5.4v6.8H214v-6.8c0-3-1.4-4.7-3.7-4.7
		c-2.7,0-3.8,1.7-3.9,4.4v7h-0.7V191.4z"/>
</g>
<g>
	<line class="st7" x1="322.8" y1="174.1" x2="331" y2="138.6"/>
	<g>
		<line class="st17" x1="322.8" y1="174.1" x2="327.1" y2="155.6"/>
		<g>
			<polygon class="st18" points="331,138.6 335.2,164.7 326.8,156.8 315.8,160.2 			"/>
		</g>
	</g>
</g>
<g>
	<rect x="244.5" y="186.9" class="st9" width="113.3" height="25.8"/>
	<path class="st19" d="M253.5,198.6l6.1-11.7h0.7v16.6h-0.7v-14.9l-5.7,11h-0.7l-5.7-11v14.9h-0.7v-16.6h0.7L253.5,198.6z"/>
	<path class="st19" d="M268.5,203.6c-3,0-4.8-1.7-4.8-5.1v-2c0-3.4,1.8-5.1,4.8-5.1c3,0,4.8,1.7,4.8,5.1v2
		C273.3,201.9,271.5,203.6,268.5,203.6z M272.5,196.4c0-3-1.4-4.4-4-4.4c-2.6,0-4,1.4-4,4.4v2c0,3,1.4,4.4,4,4.4c2.6,0,4-1.4,4-4.4
		V196.4z"/>
	<path class="st19" d="M276.3,191.4h0.7v2c0.5-1.4,1.8-2.2,3.4-2.2c1.7,0,3,1,3.6,2.8c0.6-1.8,1.9-2.8,3.7-2.8c2.5,0,4,1.9,4,5.4
		v6.8h-0.7v-6.8c0-3-1.2-4.7-3.2-4.7c-2.4,0-3.3,1.6-3.4,4.2v7.2h-0.7v-6.8c0-3-1.2-4.7-3.2-4.7c-2.4,0-3.3,1.7-3.4,4.4v7h-0.7
		V191.4z"/>
	<path class="st19" d="M295.4,197.6v0.8c0,2.7,1.2,4.5,4.2,4.5c1.4,0,2.6-0.4,3.4-1.6l0.6,0.4c-0.8,1.2-2.2,1.9-4,1.9
		c-3.1,0-4.9-1.9-4.9-5.2v-2c0-3.4,1.7-5.1,4.5-5.1c2.8,0,4.5,1.7,4.5,5.1v1.2H295.4z M295.4,196.9h7.6v-0.5c0-3-1.4-4.4-3.8-4.4
		c-2.4,0-3.8,1.5-3.8,4.4V196.9z"/>
	<path class="st19" d="M306.8,191.4h0.7v2c0.7-1.4,2-2.2,3.9-2.2c2.8,0,4.4,1.9,4.4,5.4v6.8h-0.7v-6.8c0-3-1.4-4.7-3.7-4.7
		c-2.7,0-3.8,1.7-3.9,4.4v7h-0.7V191.4z"/>
	<path class="st19" d="M318.4,191.4h1.5v-2.6h0.7v2.6h3.2v0.7h-3.2v7.3c0,2.2,0.3,3.2,2.5,3.2h0.6v0.7h-0.7c-2.5,0-3.2-1.2-3.2-3.7
		v-7.6h-1.5V191.4z"/>
	<path class="st19" d="M335.7,203.4H335v-2c-0.7,1.4-2,2.2-3.9,2.2c-2.8,0-4.4-1.9-4.4-5.4v-6.8h0.7v6.8c0,3,1.4,4.7,3.7,4.7
		c2.7,0,3.9-1.8,3.9-4.5v-6.9h0.7V203.4z"/>
	<path class="st19" d="M339.3,191.4h0.7v2c0.5-1.4,1.8-2.2,3.4-2.2c1.7,0,3,1,3.6,2.8c0.6-1.8,1.9-2.8,3.7-2.8c2.5,0,4,1.9,4,5.4
		v6.8H354v-6.8c0-3-1.2-4.7-3.2-4.7c-2.4,0-3.3,1.6-3.4,4.2v7.2h-0.7v-6.8c0-3-1.2-4.7-3.2-4.7c-2.4,0-3.3,1.7-3.4,4.4v7h-0.7V191.4
		z"/>
</g>
<g>
	<line class="st7" x1="46.8" y1="174.1" x2="18.2" y2="134.3"/>
	<g>
		<line class="st20" x1="46.8" y1="174.1" x2="28.3" y2="148.4"/>
		<g>
			<polygon class="st21" points="18.2,134.3 40.6,148.4 29.1,149.5 24.4,160 			"/>
		</g>
	</g>
</g>
<g>
	<rect x="0.5" y="186.9" class="st9" width="121.3" height="25.8"/>
	<path class="st22" d="M3.5,194.5h9.3v-7.6h0.7v16.6h-0.7v-8.3H3.5v8.3H2.8v-16.6h0.7V194.5z"/>
	<path class="st22" d="M20.7,196.8h4.2v-1.6c0-2.4-0.8-3.1-3.4-3.1c-1.4,0-2.5,0-3.4,1.5l-0.6-0.4c0.8-1.4,2-1.8,4-1.8
		c2.8,0,4.1,0.8,4.1,3.8v8.3h-0.7v-1.8c-0.7,1.4-2.3,1.9-3.8,1.9c-2.5,0-4.1-1.2-4.1-3.5C17,198.1,18.4,196.8,20.7,196.8z
		 M24.8,197.5h-4.2c-2.2,0-3,1.3-3,2.6c0,2,1.4,2.8,3.3,2.8c2.1,0,3.8-1,3.8-3.7V197.5z"/>
	<path class="st22" d="M29.2,191.4h0.7v2c0.5-1.4,1.8-2.2,3.4-2.2c1.7,0,3,1,3.6,2.8c0.6-1.8,1.9-2.8,3.7-2.8c2.5,0,4,1.9,4,5.4v6.8
		h-0.7v-6.8c0-3-1.2-4.7-3.2-4.7c-2.4,0-3.3,1.6-3.4,4.2v7.2h-0.7v-6.8c0-3-1.2-4.7-3.2-4.7c-2.4,0-3.3,1.7-3.4,4.4v7h-0.7V191.4z"
		/>
	<path class="st22" d="M48.4,186.9h1.1v1.1h-1.1V186.9z M48.5,191.4h0.7v12h-0.7V191.4z"/>
	<path class="st22" d="M53.2,186.9h0.7v12.7c0,2.1,0.3,3.2,2.5,3.2v0.7c-2.5,0-3.2-1.2-3.2-3.7V186.9z"/>
	<path class="st22" d="M58.3,191.4h1.5v-2.6h0.7v2.6h3.2v0.7h-3.2v7.3c0,2.2,0.3,3.2,2.5,3.2h0.6v0.7H63c-2.5,0-3.2-1.2-3.2-3.7
		v-7.6h-1.5V191.4z"/>
	<path class="st22" d="M70.5,203.6c-3,0-4.8-1.7-4.8-5.1v-2c0-3.4,1.8-5.1,4.8-5.1c3,0,4.8,1.7,4.8,5.1v2
		C75.3,201.9,73.5,203.6,70.5,203.6z M74.5,196.4c0-3-1.4-4.4-4-4.4s-4,1.4-4,4.4v2c0,3,1.4,4.4,4,4.4s4-1.4,4-4.4V196.4z"/>
	<path class="st22" d="M78.3,191.4H79v2c0.7-1.4,2-2.2,3.9-2.2c2.8,0,4.4,1.9,4.4,5.4v6.8h-0.7v-6.8c0-3-1.4-4.7-3.7-4.7
		c-2.7,0-3.8,1.7-3.9,4.4v7h-0.7V191.4z"/>
	<path class="st22" d="M91.1,186.9h1.1v1.1h-1.1V186.9z M91.2,191.4H92v12h-0.7V191.4z"/>
	<path class="st22" d="M99,196.8h4.2v-1.6c0-2.4-0.8-3.1-3.4-3.1c-1.4,0-2.5,0-3.4,1.5l-0.6-0.4c0.8-1.4,2-1.8,4-1.8
		c2.8,0,4.1,0.8,4.1,3.8v8.3h-0.7v-1.8c-0.7,1.4-2.3,1.9-3.8,1.9c-2.5,0-4.1-1.2-4.1-3.5C95.3,198.1,96.7,196.8,99,196.8z
		 M103.1,197.5H99c-2.2,0-3,1.3-3,2.6c0,2,1.4,2.8,3.3,2.8c2.1,0,3.8-1,3.8-3.7V197.5z"/>
	<path class="st22" d="M107.5,191.4h0.7v2c0.7-1.4,2-2.2,3.9-2.2c2.8,0,4.4,1.9,4.4,5.4v6.8h-0.7v-6.8c0-3-1.4-4.7-3.7-4.7
		c-2.7,0-3.8,1.7-3.9,4.4v7h-0.7V191.4z"/>
</g>
<g>
</g>
<g>
</g>
<g>
</g>
<g>
</g>
<g>
</g>
<g>
</g>
<g>
</g>
<g>
</g>
<g>
</g>
<g>
</g>
<g>
</g>
<g>
</g>
<g>
</g>
<g>
</g>
<g>
</g>
<g>
</g>
</svg>
