<?xml version="1.0" encoding="utf-8"?>
<!-- Generator: Adobe Illustrator 24.3.0, SVG Export Plug-In . SVG Version: 6.00 Build 0)  -->
<svg version="1.1" id="Layer_1" xmlns="http://www.w3.org/2000/svg" xmlns:xlink="http://www.w3.org/1999/xlink" x="0px" y="0px"
	 viewBox="0 0 1135 777" style="enable-background:new 0 0 1135 777;" xml:space="preserve">
<style type="text/css">
	.st0{clip-path:url(#SVGID_2_);}
	.st1{clip-path:url(#SVGID_2_);fill:#7AC143;}
	.st2{clip-path:url(#SVGID_2_);fill:#005DAA;}
	.st3{clip-path:url(#SVGID_2_);fill:none;stroke:#000000;stroke-width:8;stroke-miterlimit:10;}
	.st4{clip-path:url(#SVGID_2_);fill:none;}
	.st5{clip-path:url(#SVGID_8_);}
	.st6{clip-path:url(#SVGID_8_);fill:#005DAA;}
	.st7{clip-path:url(#SVGID_8_);fill:#7AC143;}
	.st8{fill:none;stroke:#000000;stroke-width:7;stroke-miterlimit:10;}
</style>
<g>
	<g>
		<defs>
			<rect id="SVGID_1_" x="21.6" y="12.9" width="1020" height="372.4"/>
		</defs>
		<clipPath id="SVGID_2_">
			<use xlink:href="#SVGID_1_"  style="overflow:visible;"/>
		</clipPath>
		<path class="st0" d="M71.1,115.2c-0.8,2.9-0.8,3.2-3.2,6c-7.1,8.8-13.7,11.4-18.2,11.4c-8,0-10.3-8.9-10.3-15.1
			c0-8,5.1-27.8,8.8-35.2c5-9.5,12.2-15.4,18.7-15.4C77.4,66.8,79.7,80,79.7,81c0,1-0.3,1.9-0.5,2.7L71.1,115.2 M104.6,24.5
			c0-0.2,0-1.8-2.1-1.8c-2.4,0-17.7,1.4-20.4,1.8c-1.3,0.2-2.3,1-2.3,3.1c0,1.9,1.5,1.9,3.9,1.9c7.7,0,8,1.1,8,2.7l-0.5,3.2
			l-9.7,38.1c-2.9-5.9-7.5-10.3-14.8-10.3C48,63.3,28,86.9,28,110.4c0,15.1,8.9,25.7,21.4,25.7c3.2,0,11.3-0.6,20.9-12.1
			c1.3,6.8,6.9,12.1,14.6,12.1c5.6,0,9.3-3.7,11.9-8.9c2.7-5.8,4.8-15.6,4.8-15.9c0-1.6-1.4-1.6-1.9-1.6c-1.6,0-1.8,0.7-2.3,2.9
			c-2.7,10.4-5.6,19.9-12.2,19.9c-4.4,0-4.8-4.2-4.8-7.4c0-3.9,0.3-5,1-7.7L104.6,24.5z"/>
		<path class="st1" d="M133.9,132.6c-9.7,0-10.3-12.4-10.3-15.1c0-7.7,4.7-25.2,7.4-32c5-11.9,13.4-18.6,19.9-18.6
			c10.5,0,12.7,13,12.7,14.1c0,1-8.9,36.2-9.3,36.8C152,122.3,143,132.6,133.9,132.6 M178.5,65c0-0.7-0.5-1.6-1.6-1.6
			c-1.8,0-8.2,6.5-10.9,11.1c-3.5-8.7-9.8-11.3-15-11.3c-19,0-38.8,23.8-38.8,47.1c0,15.8,9.5,25.7,21.3,25.7c6.9,0,13.2-3.9,19-9.7
			c-1.5,5.6-6.8,27.3-7.2,28.8c-1.3,4.5-2.6,5.2-11.6,5.3c-2.1,0-3.7,0-3.7,3.2c0,0.2,0,1.8,2.1,1.8c5.2,0,10.8-0.5,16.1-0.5
			c5.5,0,11.3,0.5,16.6,0.5c0.8,0,2.9,0,2.9-3.2c0-1.8-1.6-1.8-4.2-1.8c-7.7,0-7.7-1.1-7.7-2.6c0-1.1,0.3-2.1,0.6-3.5L178.5,65z"/>
		<g class="st0">
			<defs>
				<rect id="SVGID_3_" x="21.7" y="199.3" width="163.2" height="7.8"/>
			</defs>
			<clipPath id="SVGID_4_">
				<use xlink:href="#SVGID_3_"  style="overflow:visible;"/>
			</clipPath>
			<g style="clip-path:url(#SVGID_4_);">
				
					<image style="overflow:visible;" width="1" height="1" xlink:href="F5398209.png"  transform="matrix(163.2 0 0 -7.7714 21.7282 207.0891)">
				</image>
			</g>
		</g>
		<path class="st0" d="M80.8,335.4c-0.8,2.9-0.8,3.2-3.2,6c-7.1,8.8-13.7,11.4-18.2,11.4c-8,0-10.3-8.9-10.3-15.1
			c0-8,5.1-27.8,8.8-35.2C63,293,70.2,287,76.7,287c10.4,0,12.7,13.2,12.7,14.1c0,1-0.3,1.9-0.5,2.7L80.8,335.4 M114.3,244.7
			c0-0.2,0-1.8-2.1-1.8c-2.4,0-17.7,1.4-20.4,1.8c-1.3,0.2-2.3,1-2.3,3.1c0,1.9,1.5,1.9,3.9,1.9c7.7,0,8,1.1,8,2.7l-0.5,3.2
			l-9.7,38.1c-2.9-5.9-7.5-10.3-14.8-10.3c-18.8,0-38.8,23.7-38.8,47.1c0,15.1,8.9,25.7,21.4,25.7c3.2,0,11.3-0.6,20.9-12.1
			c1.3,6.8,6.9,12.1,14.6,12.1c5.6,0,9.3-3.7,11.9-8.9c2.7-5.8,4.8-15.6,4.8-15.9c0-1.6-1.4-1.6-1.9-1.6c-1.6,0-1.8,0.7-2.3,2.9
			c-2.7,10.4-5.6,19.9-12.2,19.9c-4.4,0-4.8-4.2-4.8-7.4c0-3.9,0.3-5,1-7.7L114.3,244.7z"/>
		<path class="st0" d="M148.6,290.2h15.1c3.2,0,4.8,0,4.8-3.2c0-1.8-1.6-1.8-4.5-1.8h-14.1c5.8-22.8,6.6-26.1,6.6-27
			c0-2.7-1.9-4.4-4.7-4.4c-0.5,0-5,0.2-6.4,5.8l-6.3,25.6H124c-3.2,0-4.8,0-4.8,3.1c0,1.9,1.3,1.9,4.5,1.9h14.2
			c-11.6,45.7-12.2,48.4-12.2,51.3c0,8.7,6.1,14.8,14.8,14.8c16.4,0,25.6-23.5,25.6-24.8c0-1.6-1.3-1.6-1.9-1.6
			c-1.4,0-1.6,0.5-2.4,2.3c-6.9,16.7-15.5,20.6-20.9,20.6c-3.4,0-5-2.1-5-7.4c0-3.9,0.3-5,1-7.7L148.6,290.2"/>
		<path class="st0" d="M357.3,223.1c2.3,0,5.3,0,5.3-3.2c0-3.2-3.1-3.2-5.5-3.2h-96c-2.4,0-5.5,0-5.5,3.2c0,3.2,3.1,3.2,5.3,3.2
			H357.3 M357.1,191.9c2.4,0,5.5,0,5.5-3.2c0-3.2-3.1-3.2-5.3-3.2H261c-2.3,0-5.3,0-5.3,3.2c0,3.2,3.1,3.2,5.5,3.2H357.1z"/>
		<path class="st0" d="M474.2,133.4c-17.7,0-17.7-16.6-17.7-18.2c0-4.3,4-26.8,10.6-36.5c6.5-9.2,14.3-14.3,24.3-14.3
			c17.5,0,17.9,18,17.9,21.3C509.3,97.2,499,133.4,474.2,133.4 M512.2,79.8c-1.6-10-8.2-19-20.8-19c-9.8,0-20.3,2.6-32.8,15.1
			c-13.3,13.4-14.5,28.3-14.5,33.3c0,10,7.1,28.6,29.6,28.6c38.3,0,55-54,55-77c0-25.6-15-41.7-34.7-41.7
			c-23.3,0-30.7,20.9-30.7,25.4c0,2.3,1.3,5.6,6.1,5.6c5.3,0,8.7-4.8,8.7-8.5c0-5.6-5-5.6-7.6-5.6c7.1-11.9,18.5-12.9,23.1-12.9
			c11.8,0,23,8.4,23,29.1c0,6.3-1,14.5-4.4,27.5H512.2z"/>
		<path class="st0" d="M655.9,36.9c1.4-5.8,1.8-7.4,13.5-7.4c4.2,0,5.5,0,5.5-3.2c0-1.8-1.8-1.8-2.3-1.8c-4.5,0-16.1,0.5-20.6,0.5
			c-4.7,0-16.1-0.5-20.7-0.5c-1.3,0-3.1,0-3.1,3.2c0,1.8,1.5,1.8,4.5,1.8c0.3,0,3.4,0,6.1,0.3c2.9,0.3,4.4,0.5,4.4,2.6
			c0,0.7-0.2,1-0.7,3.1l-9.6,39.2h-49.1l9.5-37.8c1.4-5.8,1.9-7.4,13.5-7.4c4.2,0,5.5,0,5.5-3.2c0-1.8-1.8-1.8-2.3-1.8
			c-4.5,0-16.1,0.5-20.6,0.5c-4.7,0-16.1-0.5-20.7-0.5c-1.3,0-3.1,0-3.1,3.2c0,1.8,1.4,1.8,4.5,1.8c0.3,0,3.4,0,6.1,0.3
			c2.9,0.3,4.3,0.5,4.3,2.6c0,0.7-0.2,1.1-0.6,3.1l-21.6,86.4c-1.6,6.3-1.9,7.6-14.6,7.6c-2.9,0-4.4,0-4.4,3.2
			c0,1.8,1.9,1.8,2.3,1.8c4.5,0,15.9-0.5,20.4-0.5c3.4,0,6.9,0.2,10.3,0.2c3.5,0,7.1,0.3,10.4,0.3c1.3,0,3.2,0,3.2-3.2
			c0-1.8-1.5-1.8-4.5-1.8c-6,0-10.5,0-10.5-2.9c0-1,0.3-1.7,0.5-2.7l11-44.1h49.1c-6.8,26.7-10.4,42-11.1,44.4
			c-1.6,5.2-4.7,5.3-14.6,5.3c-2.4,0-3.9,0-3.9,3.2c0,1.8,1.9,1.8,2.3,1.8c4.5,0,15.9-0.5,20.4-0.5c3.4,0,6.9,0.2,10.3,0.2
			c3.5,0,7.1,0.3,10.5,0.3c1.3,0,3.2,0,3.2-3.2c0-1.8-1.4-1.8-4.5-1.8c-6,0-10.5,0-10.5-2.9c0-1,0.3-1.7,0.5-2.7L655.9,36.9"/>
		<path class="st0" d="M733.8,173c0-0.5,0-0.8-2.7-3.5c-20.1-20.3-25.2-50.7-25.2-75.3c0-28,6.1-56,25.9-76.1
			c2.1-1.9,2.1-2.3,2.1-2.7c0-1.1-0.6-1.6-1.6-1.6c-1.6,0-16.1,10.9-25.6,31.4c-8.2,17.7-10.1,35.5-10.1,49.1
			c0,12.5,1.8,32,10.6,50.2c9.6,19.8,23.5,30.2,25.1,30.2C733.1,174.6,733.8,174.1,733.8,173"/>
		<path class="st1" d="M770.2,132.6c-9.7,0-10.3-12.4-10.3-15.1c0-7.7,4.7-25.2,7.4-32c5-11.9,13.4-18.6,19.9-18.6
			c10.5,0,12.7,13,12.7,14.1c0,1-8.9,36.2-9.3,36.8C788.2,122.3,779.2,132.6,770.2,132.6 M814.8,65c0-0.7-0.5-1.6-1.6-1.6
			c-1.8,0-8.2,6.5-10.9,11.1c-3.5-8.7-9.8-11.3-15-11.3c-19,0-38.8,23.8-38.8,47.1c0,15.8,9.5,25.7,21.3,25.7c6.9,0,13.2-3.9,19-9.7
			c-1.5,5.6-6.8,27.3-7.2,28.8c-1.3,4.5-2.6,5.2-11.6,5.3c-2.1,0-3.7,0-3.7,3.2c0,0.2,0,1.8,2.1,1.8c5.2,0,10.8-0.5,16.1-0.5
			c5.5,0,11.3,0.5,16.6,0.5c0.8,0,2.9,0,2.9-3.2c0-1.8-1.6-1.8-4.2-1.8c-7.7,0-7.7-1.1-7.7-2.6c0-1.1,0.3-2.1,0.6-3.5L814.8,65z"/>
		<path class="st0" d="M852.4,134.2c0-10.6-4-16.9-10.3-16.9c-5.3,0-8.5,4-8.5,8.5c0,4.4,3.2,8.5,8.5,8.5c1.9,0,4-0.6,5.6-2.1
			c0.5-0.3,0.7-0.5,0.8-0.5c0.2,0,0.3,0.2,0.3,2.4c0,11.9-5.6,21.6-11,26.8c-1.8,1.8-1.8,2.1-1.8,2.6c0,1.1,0.8,1.8,1.6,1.8
			C839.6,165.4,852.4,153,852.4,134.2"/>
		<path class="st2" d="M928.2,84.2c1.1-4.3,5.5-8.8,8.4-11.3c5.6-5,10.3-6.1,13-6.1c6.4,0,10.3,5.6,10.3,15.1c0,9.5-5.3,28-8.2,34.1
			c-5.5,11.3-13.2,16.6-19.1,16.6c-10.6,0-12.7-13.4-12.7-14.3c0-0.3,0-0.6,0.5-2.6L928.2,84.2 M899.9,154c-1.3,5.5-1.6,6.6-8.7,6.6
			c-1.9,0-3.7,0-3.7,3.1c0,1.3,0.8,1.9,2.1,1.9c4.4,0,9-0.5,13.5-0.5c5.3,0,10.8,0.5,15.9,0.5c0.8,0,2.9,0,2.9-3.2
			c0-1.8-1.6-1.8-3.9-1.8c-8,0-8-1.1-8-2.6c0-1.9,6.8-28.2,7.9-32.2c2.1,4.7,6.6,10.3,14.8,10.3c18.7,0,38.8-23.5,38.8-47.1
			c0-15.1-9.2-25.7-21.4-25.7c-8,0-15.8,5.8-21.1,12.1c-1.6-8.7-8.5-12.1-14.5-12.1c-7.4,0-10.5,6.3-11.9,9.2
			c-2.9,5.5-5,15.1-5,15.6c0,1.6,1.6,1.6,1.9,1.6c1.6,0,1.8-0.2,2.7-3.7c2.8-11.4,6-19.1,11.8-19.1c2.7,0,5,1.3,5,7.4
			c0,3.7-0.5,5.5-1.1,8.2L899.9,154z"/>
		<path class="st0" d="M1020.1,94.2c0-12.5-1.8-32-10.6-50.2c-9.7-19.8-23.5-30.2-25.1-30.2c-1,0-1.6,0.6-1.6,1.6
			c0,0.5,0,0.8,3.1,3.7c15.8,15.9,24.9,41.5,24.9,75.1c0,27.5-6,55.8-25.9,76.1c-2.1,1.9-2.1,2.3-2.1,2.7c0,1,0.7,1.6,1.6,1.6
			c1.6,0,16.1-10.9,25.6-31.3C1018.1,125.5,1020.1,107.7,1020.1,94.2"/>
		<g class="st0">
			<defs>
				<rect id="SVGID_5_" x="437.5" y="199.3" width="598.4" height="7.8"/>
			</defs>
			<clipPath id="SVGID_6_">
				<use xlink:href="#SVGID_5_"  style="overflow:visible;"/>
			</clipPath>
			<g style="clip-path:url(#SVGID_6_);">
				
					<image style="overflow:visible;" width="1" height="1" xlink:href="F5398205.png"  transform="matrix(598.4 0 0 -7.7714 437.4999 207.0891)">
				</image>
			</g>
		</g>
		<path class="st0" d="M686.3,353.6c-17.7,0-17.7-16.6-17.7-18.2c0-4.3,4-26.8,10.6-36.5c6.5-9.2,14.3-14.3,24.3-14.3
			c17.5,0,17.9,18,17.9,21.3C721.4,317.4,711.1,353.6,686.3,353.6 M724.3,300c-1.6-10-8.2-19-20.8-19c-9.8,0-20.3,2.6-32.8,15.1
			c-13.3,13.4-14.5,28.3-14.5,33.3c0,10,7.1,28.6,29.6,28.6c38.3,0,55-54,55-77c0-25.6-15-41.7-34.7-41.7
			c-23.3,0-30.7,20.9-30.7,25.4c0,2.3,1.3,5.6,6.1,5.6c5.3,0,8.7-4.8,8.7-8.5c0-5.6-5-5.6-7.6-5.6c7.1-11.9,18.5-12.9,23.1-12.9
			c11.8,0,23,8.4,23,29.1c0,6.3-1,14.5-4.4,27.5H724.3z"/>
		<path class="st2" d="M780.9,304.4c1.1-4.3,5.5-8.8,8.4-11.3c5.6-5,10.3-6.1,13-6.1c6.4,0,10.3,5.6,10.3,15.1
			c0,9.5-5.3,28-8.2,34.1c-5.5,11.3-13.2,16.6-19.1,16.6c-10.6,0-12.7-13.4-12.7-14.3c0-0.3,0-0.6,0.5-2.6L780.9,304.4 M752.5,374.2
			c-1.3,5.5-1.6,6.6-8.7,6.6c-1.9,0-3.7,0-3.7,3.1c0,1.3,0.8,1.9,2.1,1.9c4.4,0,9-0.5,13.5-0.5c5.3,0,10.8,0.5,15.9,0.5
			c0.8,0,2.9,0,2.9-3.2c0-1.8-1.6-1.8-3.9-1.8c-8,0-8-1.1-8-2.6c0-1.9,6.8-28.2,7.9-32.2c2.1,4.7,6.6,10.3,14.8,10.3
			c18.7,0,38.8-23.5,38.8-47.1c0-15.1-9.2-25.7-21.4-25.7c-8,0-15.8,5.8-21.1,12.1c-1.6-8.7-8.5-12.1-14.5-12.1
			c-7.4,0-10.5,6.3-11.9,9.2c-2.9,5.5-5,15.1-5,15.6c0,1.6,1.6,1.6,1.9,1.6c1.6,0,1.8-0.2,2.7-3.7c2.8-11.4,6-19.1,11.8-19.1
			c2.7,0,5,1.3,5,7.4c0,3.7-0.5,5.5-1.1,8.2L752.5,374.2z"/>
		<line class="st3" x1="438" y1="204" x2="1036" y2="203"/>
		<line class="st4" x1="1397" y1="405" x2="1395" y2="411"/>
	</g>
</g>
<g>
	<g>
		<defs>
			<rect id="SVGID_7_" x="28" y="411" width="1100" height="356.3"/>
		</defs>
		<clipPath id="SVGID_8_">
			<use xlink:href="#SVGID_7_"  style="overflow:visible;"/>
		</clipPath>
		<path class="st5" d="M76.9,508.9c-0.8,2.8-0.8,3.1-3.1,5.7c-6.8,8.4-13.1,10.9-17.4,10.9c-7.7,0-9.9-8.5-9.9-14.5
			c0-7.7,4.9-26.6,8.4-33.7c4.8-9.1,11.7-14.8,17.9-14.8c10,0,12.2,12.6,12.2,13.5c0,0.9-0.3,1.9-0.5,2.6L76.9,508.9 M109,422.1
			c0-0.2,0-1.7-2-1.7c-2.3,0-16.9,1.4-19.6,1.7c-1.2,0.1-2.2,0.9-2.2,2.9c0,1.8,1.4,1.8,3.7,1.8c7.4,0,7.7,1.1,7.7,2.6l-0.5,3.1
			L86.9,469c-2.8-5.7-7.2-9.9-14.2-9.9c-18,0-37.1,22.6-37.1,45.1c0,14.5,8.5,24.6,20.5,24.6c3.1,0,10.8-0.6,20-11.5
			c1.2,6.5,6.6,11.5,14,11.5c5.4,0,8.9-3.5,11.4-8.5c2.6-5.5,4.6-14.9,4.6-15.2c0-1.5-1.4-1.5-1.8-1.5c-1.5,0-1.7,0.6-2.2,2.8
			c-2.6,10-5.4,19.1-11.7,19.1c-4.2,0-4.6-4-4.6-7.1c0-3.7,0.3-4.8,0.9-7.4L109,422.1z"/>
		<path class="st6" d="M142.6,479.2c1.1-4.1,5.2-8.4,8-10.8c5.4-4.8,9.9-5.8,12.5-5.8c6.1,0,9.8,5.4,9.8,14.5
			c0,9.1-5.1,26.8-7.8,32.6c-5.2,10.8-12.6,15.9-18.3,15.9c-10.2,0-12.2-12.8-12.2-13.7c0-0.3,0-0.6,0.5-2.4L142.6,479.2 M115.5,546
			c-1.2,5.2-1.5,6.3-8.3,6.3c-1.9,0-3.5,0-3.5,2.9c0,1.2,0.8,1.8,2,1.8c4.2,0,8.6-0.5,12.9-0.5c5.1,0,10.3,0.5,15.3,0.5
			c0.8,0,2.8,0,2.8-3.1c0-1.7-1.5-1.7-3.7-1.7c-7.7,0-7.7-1.1-7.7-2.4c0-1.9,6.5-26.9,7.5-30.8c2,4.5,6.3,9.9,14.2,9.9
			c17.9,0,37.1-22.5,37.1-45.1c0-14.5-8.8-24.6-20.5-24.6c-7.7,0-15.1,5.5-20.2,11.5c-1.5-8.3-8.2-11.5-13.8-11.5
			c-7.1,0-10,6-11.4,8.8c-2.8,5.2-4.8,14.5-4.8,14.9c0,1.5,1.5,1.5,1.8,1.5c1.5,0,1.7-0.2,2.6-3.6c2.6-10.9,5.7-18.3,11.3-18.3
			c2.6,0,4.8,1.2,4.8,7.1c0,3.5-0.5,5.2-1.1,7.9L115.5,546z"/>
		<g class="st5">
			<defs>
				<rect id="SVGID_9_" x="28.7" y="589.4" width="158" height="7.4"/>
			</defs>
			<clipPath id="SVGID_10_">
				<use xlink:href="#SVGID_9_"  style="overflow:visible;"/>
			</clipPath>
			<g style="clip-path:url(#SVGID_10_);">
				
					<image style="overflow:visible;" width="1" height="1" xlink:href="F5398207.png"  transform="matrix(158.0282 0 0 -7.4366 28.7434 596.7916)">
				</image>
			</g>
		</g>
		<path class="st5" d="M87.8,719.6c-0.8,2.8-0.8,3.1-3.1,5.7c-6.8,8.4-13.1,10.9-17.4,10.9c-7.7,0-9.9-8.5-9.9-14.5
			c0-7.7,4.9-26.6,8.4-33.7c4.8-9.1,11.7-14.8,17.9-14.8c10,0,12.2,12.6,12.2,13.5c0,0.9-0.3,1.9-0.5,2.6L87.8,719.6 M119.8,632.8
			c0-0.2,0-1.7-2-1.7c-2.3,0-16.9,1.4-19.6,1.7c-1.2,0.1-2.2,0.9-2.2,2.9c0,1.8,1.4,1.8,3.7,1.8c7.4,0,7.7,1.1,7.7,2.6l-0.5,3.1
			l-9.2,36.5c-2.8-5.7-7.2-9.9-14.2-9.9c-18,0-37.1,22.6-37.1,45.1c0,14.5,8.5,24.6,20.5,24.6c3.1,0,10.8-0.6,20-11.5
			c1.2,6.5,6.6,11.5,14,11.5c5.4,0,8.9-3.5,11.4-8.5c2.6-5.5,4.6-14.9,4.6-15.2c0-1.5-1.4-1.5-1.8-1.5c-1.5,0-1.7,0.6-2.2,2.8
			c-2.6,10-5.4,19.1-11.7,19.1c-4.2,0-4.6-4-4.6-7.1c0-3.7,0.3-4.8,0.9-7.4L119.8,632.8z"/>
		<path class="st5" d="M151.1,676.3h14.5c3.1,0,4.6,0,4.6-3.1c0-1.7-1.5-1.7-4.3-1.7h-13.5c5.5-21.9,6.3-24.9,6.3-25.9
			c0-2.6-1.8-4.2-4.5-4.2c-0.5,0-4.8,0.2-6.1,5.5l-6,24.5h-14.5c-3.1,0-4.6,0-4.6,2.9c0,1.8,1.2,1.8,4.3,1.8h13.6
			c-11.1,43.7-11.7,46.3-11.7,49.1c0,8.3,5.8,14.2,14.1,14.2c15.7,0,24.5-22.5,24.5-23.7c0-1.5-1.2-1.5-1.8-1.5
			c-1.4,0-1.5,0.5-2.3,2.2c-6.6,16-14.8,19.7-20,19.7c-3.2,0-4.8-2-4.8-7.1c0-3.7,0.3-4.8,0.9-7.4L151.1,676.3"/>
		<path class="st5" d="M353.9,612.1c2.2,0,5.1,0,5.1-3.1c0-3.1-2.9-3.1-5.2-3.1h-91.9c-2.3,0-5.2,0-5.2,3.1c0,3.1,2.9,3.1,5.1,3.1
			H353.9 M353.7,582.2c2.3,0,5.2,0,5.2-3.1c0-3.1-2.9-3.1-5.1-3.1h-92.2c-2.2,0-5.1,0-5.1,3.1c0,3.1,2.9,3.1,5.2,3.1H353.7z"/>
		<path class="st5" d="M513.7,597.2c2.6,0,5.4,0,5.4-3.1c0-3.1-2.8-3.1-5.4-3.1h-83.3c-2.6,0-5.4,0-5.4,3.1c0,3.1,2.8,3.1,5.4,3.1
			H513.7"/>
		<path class="st5" d="M586.6,526.3c-16.9,0-16.9-15.9-16.9-17.4c0-4.1,3.8-25.7,10.1-34.9c6.2-8.8,13.7-13.7,23.2-13.7
			c16.8,0,17.1,17.3,17.1,20.3C620.1,491.6,610.3,526.3,586.6,526.3 M622.9,475c-1.5-9.5-7.9-18.2-19.9-18.2
			c-9.4,0-19.4,2.4-31.4,14.5c-12.8,12.8-13.8,27.1-13.8,31.9c0,9.5,6.8,27.4,28.3,27.4c36.6,0,52.6-51.7,52.6-73.7
			c0-24.5-14.3-39.9-33.2-39.9c-22.3,0-29.4,20-29.4,24.3c0,2.2,1.2,5.4,5.8,5.4c5.1,0,8.3-4.6,8.3-8.2c0-5.4-4.8-5.4-7.2-5.4
			c6.8-11.4,17.7-12.3,22.2-12.3c11.3,0,22,8,22,27.9c0,6-0.9,13.8-4.2,26.3H622.9z"/>
		<path class="st5" d="M760.5,433.9c1.4-5.5,1.7-7.1,12.9-7.1c4,0,5.2,0,5.2-3.1c0-1.7-1.7-1.7-2.2-1.7c-4.3,0-15.4,0.5-19.7,0.5
			c-4.5,0-15.4-0.5-19.8-0.5c-1.2,0-2.9,0-2.9,3.1c0,1.7,1.4,1.7,4.3,1.7c0.3,0,3.2,0,5.9,0.3c2.8,0.3,4.2,0.5,4.2,2.4
			c0,0.6-0.2,0.9-0.6,2.9l-9.2,37.5h-46.9l9.1-36.2c1.4-5.5,1.8-7.1,12.9-7.1c4,0,5.2,0,5.2-3.1c0-1.7-1.7-1.7-2.2-1.7
			c-4.3,0-15.4,0.5-19.7,0.5c-4.5,0-15.4-0.5-19.9-0.5c-1.2,0-2.9,0-2.9,3.1c0,1.7,1.4,1.7,4.3,1.7c0.3,0,3.2,0,5.9,0.3
			c2.8,0.3,4.1,0.5,4.1,2.4c0,0.6-0.1,1.1-0.6,2.9l-20.6,82.6c-1.5,6-1.8,7.2-14,7.2c-2.8,0-4.2,0-4.2,3.1c0,1.7,1.8,1.7,2.2,1.7
			c4.3,0,15.2-0.5,19.5-0.5c3.2,0,6.6,0.1,9.9,0.1c3.4,0,6.8,0.3,10,0.3c1.2,0,3.1,0,3.1-3.1c0-1.7-1.4-1.7-4.3-1.7
			c-5.7,0-10,0-10-2.8c0-0.9,0.3-1.7,0.5-2.6l10.5-42.2h46.9c-6.5,25.6-10,40.2-10.6,42.5c-1.5,4.9-4.5,5.1-14,5.1
			c-2.3,0-3.7,0-3.7,3.1c0,1.7,1.8,1.7,2.2,1.7c4.3,0,15.2-0.5,19.5-0.5c3.2,0,6.6,0.1,9.9,0.1c3.4,0,6.8,0.3,10,0.3
			c1.2,0,3.1,0,3.1-3.1c0-1.7-1.4-1.7-4.3-1.7c-5.7,0-10,0-10-2.8c0-0.9,0.3-1.7,0.5-2.6L760.5,433.9"/>
		<path class="st5" d="M835,564.1c0-0.5,0-0.8-2.6-3.4c-19.2-19.4-24.2-48.5-24.2-72c0-26.8,5.9-53.6,24.8-72.8c2-1.8,2-2.2,2-2.6
			c0-1.1-0.6-1.5-1.5-1.5c-1.5,0-15.4,10.5-24.5,30c-7.8,16.9-9.7,34-9.7,46.9c0,12,1.7,30.6,10.2,48c9.2,18.9,22.5,28.9,24,28.9
			C834.4,565.7,835,565.2,835,564.1"/>
		<path class="st7" d="M869.9,525.5c-9.2,0-9.9-11.8-9.9-14.5c0-7.4,4.5-24.2,7.1-30.6c4.8-11.4,12.8-17.8,19.1-17.8
			c10,0,12.2,12.5,12.2,13.5c0,0.9-8.5,34.6-8.9,35.2C887.1,515.7,878.5,525.5,869.9,525.5 M912.5,460.9c0-0.6-0.5-1.5-1.5-1.5
			c-1.7,0-7.8,6.2-10.5,10.6c-3.4-8.3-9.4-10.8-14.3-10.8c-18.2,0-37.1,22.8-37.1,45.1c0,15.1,9.1,24.6,20.3,24.6
			c6.6,0,12.6-3.7,18.2-9.2c-1.4,5.4-6.5,26.2-6.9,27.5c-1.2,4.3-2.5,4.9-11.1,5.1c-2,0-3.5,0-3.5,3.1c0,0.2,0,1.7,2,1.7
			c4.9,0,10.3-0.5,15.4-0.5c5.2,0,10.8,0.5,15.9,0.5c0.8,0,2.8,0,2.8-3.1c0-1.7-1.5-1.7-4-1.7c-7.4,0-7.4-1.1-7.4-2.4
			c0-1.1,0.3-2,0.6-3.4L912.5,460.9z"/>
		<path class="st5" d="M948.5,527.1c0-10.2-3.8-16.2-9.9-16.2c-5.1,0-8.2,3.8-8.2,8.2c0,4.2,3.1,8.2,8.2,8.2c1.8,0,3.8-0.6,5.4-2
			c0.5-0.3,0.6-0.5,0.8-0.5c0.1,0,0.3,0.2,0.3,2.3c0,11.4-5.4,20.6-10.5,25.7c-1.7,1.7-1.7,2-1.7,2.5c0,1.1,0.8,1.7,1.5,1.7
			C936.2,556.9,948.5,545,948.5,527.1"/>
		<path class="st6" d="M1021,479.2c1.1-4.1,5.2-8.4,8-10.8c5.4-4.8,9.9-5.8,12.5-5.8c6.1,0,9.8,5.4,9.8,14.5
			c0,9.1-5.1,26.8-7.8,32.6c-5.2,10.8-12.6,15.9-18.3,15.9c-10.2,0-12.2-12.8-12.2-13.7c0-0.3,0-0.6,0.5-2.4L1021,479.2 M993.9,546
			c-1.2,5.2-1.5,6.3-8.3,6.3c-1.9,0-3.5,0-3.5,2.9c0,1.2,0.8,1.8,2,1.8c4.2,0,8.6-0.5,12.9-0.5c5.1,0,10.3,0.5,15.3,0.5
			c0.7,0,2.8,0,2.8-3.1c0-1.7-1.5-1.7-3.7-1.7c-7.7,0-7.7-1.1-7.7-2.4c0-1.9,6.5-26.9,7.5-30.8c2,4.5,6.3,9.9,14.2,9.9
			c17.9,0,37.1-22.5,37.1-45.1c0-14.5-8.8-24.6-20.5-24.6c-7.7,0-15.1,5.5-20.2,11.5c-1.5-8.3-8.2-11.5-13.8-11.5
			c-7.1,0-10,6-11.4,8.8c-2.8,5.2-4.8,14.5-4.8,14.9c0,1.5,1.5,1.5,1.8,1.5c1.5,0,1.7-0.2,2.6-3.6c2.6-10.9,5.7-18.3,11.3-18.3
			c2.6,0,4.8,1.2,4.8,7.1c0,3.5-0.5,5.2-1.1,7.9L993.9,546z"/>
		<path class="st5" d="M1108.9,488.7c0-12-1.7-30.6-10.1-48c-9.2-18.9-22.5-28.9-24-28.9c-0.9,0-1.5,0.6-1.5,1.5
			c0,0.5,0,0.8,2.9,3.6c15.1,15.2,23.9,39.7,23.9,71.9c0,26.3-5.7,53.4-24.8,72.8c-2,1.8-2,2.2-2,2.6c0,0.9,0.6,1.5,1.5,1.5
			c1.5,0,15.4-10.5,24.5-30C1107.1,518.7,1108.9,501.7,1108.9,488.7"/>
		<g class="st5">
			<defs>
				<rect id="SVGID_11_" x="551.2" y="589.4" width="572.6" height="7.4"/>
			</defs>
			<clipPath id="SVGID_12_">
				<use xlink:href="#SVGID_11_"  style="overflow:visible;"/>
			</clipPath>
			<g style="clip-path:url(#SVGID_12_);">
				
					<image style="overflow:visible;" width="1" height="1" xlink:href="F5398206.png"  transform="matrix(572.6198 0 0 -7.4366 551.1662 596.7916)">
				</image>
			</g>
		</g>
		<path class="st5" d="M789.6,737c-16.9,0-16.9-15.9-16.9-17.4c0-4.1,3.8-25.7,10.1-34.9c6.2-8.8,13.7-13.7,23.2-13.7
			c16.8,0,17.1,17.3,17.1,20.3C823.1,702.3,813.3,737,789.6,737 M825.9,685.7c-1.5-9.5-7.9-18.2-19.9-18.2
			c-9.4,0-19.4,2.4-31.4,14.5c-12.8,12.8-13.8,27.1-13.8,31.9c0,9.5,6.8,27.4,28.3,27.4c36.6,0,52.6-51.7,52.6-73.7
			c0-24.5-14.3-39.9-33.2-39.9c-22.3,0-29.4,20-29.4,24.3c0,2.2,1.2,5.4,5.8,5.4c5.1,0,8.3-4.6,8.3-8.2c0-5.4-4.8-5.4-7.2-5.4
			c6.8-11.4,17.7-12.3,22.2-12.3c11.3,0,22,8,22,27.9c0,6-0.9,13.8-4.2,26.3H825.9z"/>
		<path class="st7" d="M871.4,736.2c-9.2,0-9.9-11.8-9.9-14.5c0-7.4,4.5-24.2,7.1-30.6c4.8-11.4,12.8-17.8,19.1-17.8
			c10,0,12.2,12.5,12.2,13.5c0,0.9-8.5,34.6-8.9,35.2C888.7,726.4,880,736.2,871.4,736.2 M914.1,671.6c0-0.6-0.5-1.5-1.5-1.5
			c-1.7,0-7.8,6.2-10.5,10.6c-3.4-8.3-9.4-10.8-14.3-10.8c-18.2,0-37.1,22.8-37.1,45.1c0,15.1,9.1,24.6,20.3,24.6
			c6.6,0,12.6-3.7,18.2-9.2c-1.4,5.4-6.5,26.2-6.9,27.5c-1.2,4.3-2.5,4.9-11.1,5.1c-2,0-3.5,0-3.5,3.1c0,0.2,0,1.7,2,1.7
			c4.9,0,10.3-0.5,15.4-0.5c5.2,0,10.8,0.5,15.9,0.5c0.8,0,2.8,0,2.8-3.1c0-1.7-1.5-1.7-4-1.7c-7.4,0-7.4-1.1-7.4-2.4
			c0-1.1,0.3-2,0.6-3.4L914.1,671.6z"/>
	</g>
	<g>
		<defs>
			<rect id="SVGID_13_" x="526.5" y="589.6" width="598.4" height="7.8"/>
		</defs>
		<clipPath id="SVGID_14_">
			<use xlink:href="#SVGID_13_"  style="overflow:visible;"/>
		</clipPath>
		<g style="clip-path:url(#SVGID_14_);">
			
				<image style="overflow:visible;" width="1" height="1" xlink:href="F5398208.png"  transform="matrix(598.4 0 0 -7.7714 526.5215 597.3794)">
			</image>
		</g>
	</g>
</g>
<line class="st8" x1="527" y1="593" x2="1125" y2="593"/>
<line class="st8" x1="21.5" y1="203.5" x2="182.5" y2="203.5"/>
<line class="st8" x1="27.5" y1="593.5" x2="185.5" y2="593.5"/>
<g>
</g>
<g>
</g>
<g>
</g>
<g>
</g>
<g>
</g>
<g>
</g>
<g>
</g>
<g>
</g>
<g>
</g>
<g>
</g>
<g>
</g>
<g>
</g>
<g>
</g>
<g>
</g>
<g>
</g>
</svg>
