<?xml version="1.0" encoding="utf-8"?>
<!-- Generator: Adobe Illustrator 24.3.0, SVG Export Plug-In . SVG Version: 6.00 Build 0)  -->
<svg version="1.1" id="Layer_1" xmlns="http://www.w3.org/2000/svg" xmlns:xlink="http://www.w3.org/1999/xlink" x="0px" y="0px"
	 viewBox="0 0 629 344" style="enable-background:new 0 0 629 344;" xml:space="preserve">
<style type="text/css">
	.st0{fill:none;stroke:#808080;stroke-width:3;stroke-miterlimit:10;}
	.st1{fill:#808080;}
	.st2{fill:none;}
	.st3{fill:#FFFFFF;stroke:#808080;stroke-width:3;stroke-miterlimit:10;}
	.st4{fill:none;stroke:#E36F1E;stroke-width:3;stroke-miterlimit:10;}
</style>
<g>
	<g>
		<line class="st0" x1="411.5" y1="62.5" x2="411.5" y2="101.3"/>
		<g>
			<polygon class="st1" points="411.5,122.5 399.3,92.7 411.5,99.7 423.7,92.7 			"/>
		</g>
	</g>
</g>
<g>
	<rect x="326.4" y="18.2" class="st2" width="171.6" height="37.8"/>
	<path d="M356.9,24.4v0.7c0,4-1.8,5.7-4.6,5.7s-4.5-1.7-4.5-5.7v-1.4c0-4,1.7-5.7,4.5-5.7c2.4,0,4.1,1.3,4.5,4h-1.5
		c-0.4-1.9-1.4-2.6-3-2.6c-1.9,0-3,1.2-3,4.3v1.4c0,3.1,1,4.3,3,4.3c1.7,0,2.8-1,3-3.6h-3v-1.4H356.9z"/>
	<path d="M365.5,29.3c-0.6,1.1-1.6,1.5-3.2,1.5c-2.4,0-3.9-1.6-3.9-4.1v-1.2c0-2.6,1.2-4,3.6-4c2.4,0,3.6,1.5,3.6,4v0.9H360v0.3
		c0,1.5,0.7,2.8,2.3,2.8c1.2,0,1.8-0.3,2.1-1L365.5,29.3z M360,25.2h4.2c-0.1-1.5-0.7-2.4-2.1-2.4C360.7,22.8,360.1,23.7,360,25.2z"
		/>
	<path d="M367.8,21.6h1.4v0.9c0.5-0.7,1.1-1,2.4-1c1.9,0,3.3,1,3.3,3.5v5.6h-1.4V25c0-1.8-1-2.2-2.1-2.2c-1.4,0-2.2,1-2.2,2.2v5.6
		h-1.4V21.6z"/>
	<path d="M383.8,29.3c-0.6,1.1-1.6,1.5-3.2,1.5c-2.4,0-3.9-1.6-3.9-4.1v-1.2c0-2.6,1.2-4,3.6-4c2.4,0,3.6,1.5,3.6,4v0.9h-5.7v0.3
		c0,1.5,0.7,2.8,2.3,2.8c1.2,0,1.8-0.3,2.1-1L383.8,29.3z M378.2,25.2h4.2c-0.1-1.5-0.7-2.4-2.1-2.4C379,22.8,378.3,23.7,378.2,25.2
		z"/>
	<path d="M390.9,23.6c-0.4-0.5-0.8-0.8-1.5-0.8c-1.1,0-1.9,0.8-1.9,2.2v5.6H386v-9h1.4v0.9c0.4-0.6,1-1,2.1-1c1.2,0,2,0.4,2.6,1.2
		L390.9,23.6z"/>
	<path d="M395.8,25.4h2.1v-1c0-1.3-0.6-1.6-2-1.6c-1.1,0-1.7,0.1-2.2,0.9l-1.1-0.8c0.6-1,1.5-1.5,3.3-1.5c2.3,0,3.4,0.7,3.4,2.9v6.2
		H398v-0.9c-0.5,0.8-1.1,1-2.3,1c-2.1,0-3.2-1-3.2-2.8C392.5,26.1,393.9,25.4,395.8,25.4z M398,26.7h-2.1c-1.4,0-1.9,0.5-1.9,1.4
		c0,1,0.7,1.4,1.8,1.4c1.3,0,2.3-0.3,2.3-2.3V26.7z"/>
	<path d="M401,21.6h1.2v-2h1.4v2h2.1v1.3h-2.1v4.6c0,1.2,0.1,1.8,1.4,1.8h0.7v1.4h-0.8c-2.1,0-2.7-0.9-2.7-2.8v-4.9H401V21.6z"/>
	<path d="M414,29.3c-0.6,1.1-1.6,1.5-3.2,1.5c-2.4,0-3.9-1.6-3.9-4.1v-1.2c0-2.6,1.2-4,3.6-4c2.4,0,3.6,1.5,3.6,4v0.9h-5.7v0.3
		c0,1.5,0.7,2.8,2.3,2.8c1.2,0,1.8-0.3,2.1-1L414,29.3z M408.4,25.2h4.2c-0.1-1.5-0.7-2.4-2.1-2.4C409.2,22.8,408.5,23.7,408.4,25.2
		z"/>
	<path d="M425.6,23.6c-0.4-0.5-0.8-0.8-1.5-0.8c-1.1,0-1.9,0.8-1.9,2.2v5.6h-1.4v-9h1.4v0.9c0.4-0.6,1-1,2.1-1c1.2,0,2,0.4,2.6,1.2
		L425.6,23.6z"/>
	<path d="M430.5,25.4h2.1v-1c0-1.3-0.6-1.6-2-1.6c-1.1,0-1.7,0.1-2.2,0.9l-1.1-0.8c0.6-1,1.5-1.5,3.3-1.5c2.3,0,3.4,0.7,3.4,2.9v6.2
		h-1.4v-0.9c-0.5,0.8-1.1,1-2.3,1c-2.1,0-3.2-1-3.2-2.8C427.2,26.1,428.6,25.4,430.5,25.4z M432.7,26.7h-2.1c-1.4,0-1.9,0.5-1.9,1.4
		c0,1,0.7,1.4,1.8,1.4c1.3,0,2.3-0.3,2.3-2.3V26.7z"/>
	<path d="M436.5,21.6h1.4v0.9c0.5-0.7,1.1-1,2.4-1c1.9,0,3.3,1,3.3,3.5v5.6h-1.4V25c0-1.8-1-2.2-2.1-2.2c-1.4,0-2.2,1-2.2,2.2v5.6
		h-1.4V21.6z"/>
	<path d="M451.5,18.2h1.4v12.4h-1.4v-0.8c-0.5,0.6-1.3,0.9-2.4,0.9c-2.4,0-3.6-1.7-3.6-4.1v-1.2c0-2.6,1.4-4,3.6-4
		c1.2,0,2,0.4,2.4,1V18.2z M451.5,26.8v-1.3c0-1.7-0.8-2.7-2.3-2.7c-1.5,0-2.3,1-2.3,2.7v1.2c0,1.5,0.8,2.8,2.3,2.8
		C450.8,29.5,451.5,28.3,451.5,26.8z"/>
	<path d="M462.3,26.7c0,2.3-1.2,4.1-3.7,4.1c-2.4,0-3.7-1.6-3.7-4.1v-1.2c0-2.6,1.4-4,3.7-4c2.4,0,3.7,1.5,3.7,4V26.7z M460.9,26.7
		v-1.2c0-1.7-0.8-2.7-2.3-2.7c-1.5,0-2.3,1-2.3,2.7v1.2c0,1.5,0.6,2.8,2.3,2.8C460.1,29.5,460.9,28.2,460.9,26.7z"/>
	<path d="M464.2,21.6h1.4v0.9c0.4-0.6,1.1-1,2.2-1c1.2,0,2.1,0.5,2.6,1.4c0.6-1,1.6-1.4,2.7-1.4c1.9,0,3.1,1.2,3.1,3.5v5.6h-1.4V25
		c0-1.6-0.8-2.2-1.9-2.2c-1.2,0-2,0.9-2,2.2v5.6h-1.4V25c0-1.6-0.8-2.2-1.9-2.2c-1.2,0-2,1-2,2.2v5.6h-1.4V21.6z"/>
	<path d="M370.6,43.2h1.4v0.9c0.4-0.6,1.1-1,2.2-1c1.2,0,2.1,0.5,2.6,1.4c0.6-1,1.6-1.4,2.7-1.4c1.9,0,3.1,1.2,3.1,3.5v5.6h-1.4
		v-5.6c0-1.6-0.8-2.2-1.9-2.2c-1.2,0-2,0.9-2,2.2v5.6h-1.4v-5.6c0-1.6-0.8-2.2-1.9-2.2c-1.2,0-2,1-2,2.2v5.6h-1.4V43.2z"/>
	<path d="M392,48.3c0,2.3-1.2,4.1-3.7,4.1c-2.4,0-3.7-1.6-3.7-4.1v-1.2c0-2.6,1.4-4,3.7-4c2.4,0,3.7,1.5,3.7,4V48.3z M390.6,48.3
		v-1.2c0-1.7-0.8-2.7-2.3-2.7c-1.5,0-2.3,1-2.3,2.7v1.2c0,1.5,0.6,2.8,2.3,2.8C389.8,51.1,390.6,49.8,390.6,48.3z"/>
	<path d="M393.9,43.2h1.4v0.9c0.4-0.6,1.1-1,2.2-1c1.2,0,2.1,0.5,2.6,1.4c0.6-1,1.6-1.4,2.7-1.4c1.9,0,3.1,1.2,3.1,3.5v5.6h-1.4
		v-5.6c0-1.6-0.8-2.2-1.9-2.2c-1.2,0-2,0.9-2,2.2v5.6h-1.4v-5.6c0-1.6-0.8-2.2-1.9-2.2c-1.2,0-2,1-2,2.2v5.6h-1.4V43.2z"/>
	<path d="M414.9,50.9c-0.6,1.1-1.6,1.5-3.2,1.5c-2.4,0-3.9-1.6-3.9-4.1v-1.2c0-2.6,1.2-4,3.6-4c2.4,0,3.6,1.5,3.6,4v0.9h-5.7v0.3
		c0,1.5,0.7,2.8,2.3,2.8c1.2,0,1.8-0.3,2.1-1L414.9,50.9z M409.4,46.8h4.2c-0.1-1.5-0.7-2.4-2.1-2.4
		C410.1,44.4,409.5,45.3,409.4,46.8z"/>
	<path d="M417.2,43.2h1.4v0.9c0.5-0.7,1.1-1,2.4-1c1.9,0,3.3,1,3.3,3.5v5.6h-1.4v-5.6c0-1.8-1-2.2-2.1-2.2c-1.4,0-2.2,1-2.2,2.2v5.6
		h-1.4V43.2z"/>
	<path d="M425.8,43.2h1.2v-2h1.4v2h2.1v1.3h-2.1v4.6c0,1.2,0.1,1.8,1.4,1.8h0.7v1.4h-0.8c-2.1,0-2.7-0.9-2.7-2.8v-4.9h-1.2V43.2z"/>
	<path d="M439.4,52.2H438v-0.9c-0.5,0.7-1.1,1-2.4,1c-1.9,0-3.3-1-3.3-3.5v-5.6h1.4v5.6c0,1.8,1,2.2,2.1,2.2c1.4,0,2.2-1,2.2-2.2
		v-5.6h1.4V52.2z"/>
	<path d="M441.8,43.2h1.4v0.9c0.4-0.6,1.1-1,2.2-1c1.2,0,2.1,0.5,2.6,1.4c0.6-1,1.6-1.4,2.7-1.4c1.9,0,3.1,1.2,3.1,3.5v5.6h-1.4
		v-5.6c0-1.6-0.8-2.2-1.9-2.2c-1.2,0-2,0.9-2,2.2v5.6h-1.4v-5.6c0-1.6-0.8-2.2-1.9-2.2c-1.2,0-2,1-2,2.2v5.6h-1.4V43.2z"/>
</g>
<g>
	<rect x="325.4" y="129" class="st2" width="171.6" height="65.7"/>
	<path d="M350.6,131.8c-0.7-0.9-1.4-1.5-3-1.5c-1.4,0-2.4,0.6-2.4,1.9c0,1.5,1.1,2,2.9,2.3c2.4,0.4,3.9,1.3,3.9,3.6
		c0,1.6-1.1,3.5-4.2,3.5c-2,0-3.5-0.7-4.4-2l1.3-0.9c0.8,1,1.5,1.5,3.2,1.5c2,0,2.6-0.9,2.6-2c0-1.2-0.6-2-2.9-2.3
		c-2.3-0.4-3.9-1.5-3.9-3.6c0-1.8,1.2-3.3,4-3.3c2,0,3.2,0.7,4.1,2L350.6,131.8z"/>
	<path d="M361.1,137.5c0,2.3-1.2,4.1-3.7,4.1c-2.4,0-3.7-1.6-3.7-4.1v-1.2c0-2.6,1.4-4,3.7-4c2.4,0,3.7,1.5,3.7,4V137.5z
		 M359.7,137.5v-1.2c0-1.7-0.8-2.7-2.3-2.7c-1.5,0-2.3,1-2.3,2.7v1.2c0,1.5,0.6,2.8,2.3,2.8C358.9,140.3,359.7,139,359.7,137.5z"/>
	<path d="M363,129h1.4v9.3c0,1,0.1,1.8,1.5,1.8v1.3c-2.3,0-3-0.9-3-2.8V129z"/>
	<path d="M375.6,132.4l-3.6,9h-1.4l-3.7-9h1.6l2.7,7.2l2.7-7.2H375.6z"/>
	<path d="M383.6,140.1c-0.6,1.1-1.6,1.5-3.2,1.5c-2.4,0-3.9-1.6-3.9-4.1v-1.2c0-2.6,1.2-4,3.6-4c2.4,0,3.6,1.5,3.6,4v0.9H378v0.3
		c0,1.5,0.7,2.8,2.3,2.8c1.2,0,1.8-0.3,2.1-1L383.6,140.1z M378,136h4.2c-0.1-1.5-0.7-2.4-2.1-2.4C378.7,133.6,378.1,134.5,378,136z
		"/>
	<path d="M392.2,134.3h5.3V129h1.5v12.4h-1.5v-5.7h-5.3v5.7h-1.5V129h1.5V134.3z"/>
	<path d="M404.7,136.2h2.1v-1c0-1.3-0.6-1.6-2-1.6c-1.1,0-1.7,0.1-2.2,0.9l-1.1-0.8c0.6-1,1.5-1.5,3.3-1.5c2.3,0,3.4,0.7,3.4,2.9
		v6.2h-1.4v-0.9c-0.5,0.8-1.1,1-2.3,1c-2.1,0-3.2-1-3.2-2.8C401.3,136.8,402.7,136.2,404.7,136.2z M406.8,137.4h-2.1
		c-1.4,0-1.9,0.5-1.9,1.4c0,1,0.7,1.4,1.8,1.4c1.3,0,2.3-0.3,2.3-2.3V137.4z"/>
	<path d="M410.6,132.4h1.4v0.9c0.4-0.6,1.1-1,2.2-1c1.2,0,2.1,0.5,2.6,1.4c0.6-1,1.6-1.4,2.7-1.4c1.9,0,3.1,1.2,3.1,3.5v5.6h-1.4
		v-5.6c0-1.6-0.8-2.2-1.9-2.2c-1.2,0-2,0.9-2,2.2v5.6h-1.4v-5.6c0-1.6-0.8-2.2-1.9-2.2c-1.2,0-2,1-2,2.2v5.6h-1.4V132.4z"/>
	<path d="M425.2,129h1.6v1.6h-1.6V129z M425.3,132.4h1.4v9h-1.4V132.4z"/>
	<path d="M429.4,129h1.4v9.3c0,1,0.1,1.8,1.5,1.8v1.3c-2.3,0-3-0.9-3-2.8V129z"/>
	<path d="M433.5,132.4h1.2v-2h1.4v2h2.1v1.3h-2.1v4.6c0,1.2,0.1,1.8,1.4,1.8h0.7v1.4h-0.8c-2.1,0-2.7-0.9-2.7-2.8v-4.9h-1.2V132.4z"
		/>
	<path d="M447,137.5c0,2.3-1.2,4.1-3.7,4.1c-2.4,0-3.7-1.6-3.7-4.1v-1.2c0-2.6,1.4-4,3.7-4c2.4,0,3.7,1.5,3.7,4V137.5z M445.6,137.5
		v-1.2c0-1.7-0.8-2.7-2.3-2.7c-1.5,0-2.3,1-2.3,2.7v1.2c0,1.5,0.6,2.8,2.3,2.8C444.8,140.3,445.6,139,445.6,137.5z"/>
	<path d="M448.9,132.4h1.4v0.9c0.5-0.7,1.1-1,2.4-1c1.9,0,3.3,1,3.3,3.5v5.6h-1.4v-5.6c0-1.8-1-2.2-2.1-2.2c-1.4,0-2.2,1-2.2,2.2
		v5.6h-1.4V132.4z"/>
	<path d="M458.5,129h1.6v1.6h-1.6V129z M458.6,132.4h1.4v9h-1.4V132.4z"/>
	<path d="M465.6,136.2h2.1v-1c0-1.3-0.6-1.6-2-1.6c-1.1,0-1.7,0.1-2.2,0.9l-1.1-0.8c0.6-1,1.5-1.5,3.3-1.5c2.3,0,3.4,0.7,3.4,2.9
		v6.2h-1.4v-0.9c-0.5,0.8-1.1,1-2.3,1c-2.1,0-3.2-1-3.2-2.8C462.2,136.8,463.6,136.2,465.6,136.2z M467.7,137.4h-2.1
		c-1.4,0-1.9,0.5-1.9,1.4c0,1,0.7,1.4,1.8,1.4c1.3,0,2.3-0.3,2.3-2.3V137.4z"/>
	<path d="M471.5,132.4h1.4v0.9c0.5-0.7,1.1-1,2.4-1c1.9,0,3.3,1,3.3,3.5v5.6h-1.4v-5.6c0-1.8-1-2.2-2.1-2.2c-1.4,0-2.2,1-2.2,2.2
		v5.6h-1.4V132.4z"/>
	<path d="M332.6,163v-12.4h4c2.8,0,4.5,1.5,4.5,5.6v1.3c0,4-1.7,5.6-4.5,5.6H332.6z M339.5,157.5v-1.3c0-3.1-1-4.2-3-4.2h-2.4v9.6
		h2.4C338.5,161.6,339.5,160.5,339.5,157.5z"/>
	<path d="M345.6,163.1l-3.5-9.1h1.5l2.7,7l2.4-7h1.5l-3.2,9.3c-0.7,2.2-1.2,3.1-3.7,3.1V165c1.2,0,1.7-0.2,2.3-1.8L345.6,163.1z"/>
	<path d="M351.5,154h1.4v0.9c0.5-0.7,1.1-1,2.4-1c1.9,0,3.3,1,3.3,3.5v5.6h-1.4v-5.6c0-1.8-1-2.2-2.1-2.2c-1.4,0-2.2,1-2.2,2.2v5.6
		h-1.4V154z"/>
	<path d="M363.9,157.8h2.1v-1c0-1.3-0.6-1.6-2-1.6c-1.1,0-1.7,0.1-2.2,0.9l-1.1-0.8c0.6-1,1.5-1.5,3.3-1.5c2.3,0,3.4,0.7,3.4,2.9
		v6.2h-1.4v-0.9c-0.5,0.8-1.1,1-2.3,1c-2.1,0-3.2-1-3.2-2.8C360.5,158.4,361.9,157.8,363.9,157.8z M366.1,159h-2.1
		c-1.4,0-1.9,0.5-1.9,1.4c0,1,0.7,1.4,1.8,1.4c1.3,0,2.3-0.3,2.3-2.3V159z"/>
	<path d="M369.8,154h1.4v0.9c0.4-0.6,1.1-1,2.2-1c1.2,0,2.1,0.5,2.6,1.4c0.6-1,1.6-1.4,2.7-1.4c1.9,0,3.1,1.2,3.1,3.5v5.6h-1.4v-5.6
		c0-1.6-0.8-2.2-1.9-2.2c-1.2,0-2,0.9-2,2.2v5.6h-1.4v-5.6c0-1.6-0.8-2.2-1.9-2.2c-1.2,0-2,1-2,2.2v5.6h-1.4V154z"/>
	<path d="M384.4,150.6h1.6v1.6h-1.6V150.6z M384.5,154h1.4v9h-1.4V154z"/>
	<path d="M395.1,161.7c-0.6,1-1.7,1.5-3.1,1.5c-2.5,0-3.9-1.6-3.9-4.1v-1.2c0-2.6,1.5-4,3.9-4c1.4,0,2.5,0.5,3.1,1.4l-1.1,0.8
		c-0.4-0.6-1.2-0.9-2-0.9c-1.5,0-2.4,1-2.4,2.7v1.2c0,1.5,0.7,2.8,2.4,2.8c0.8,0,1.6-0.3,2-1L395.1,161.7z"/>
	<path d="M401.6,156.1c-0.5-0.6-1-0.9-2.2-0.9c-1.1,0-1.7,0.4-1.7,1.2c0,1,0.9,1.3,2.1,1.4c1.7,0.1,3.2,0.6,3.2,2.7
		c0,1.6-1.1,2.6-3.4,2.6c-1.8,0-2.8-0.6-3.5-1.5l1.1-0.8c0.5,0.6,1.1,0.9,2.4,0.9c1.2,0,1.9-0.5,1.9-1.3c0-1-0.6-1.3-2.3-1.4
		c-1.5-0.1-3-0.7-3-2.7c0-1.5,1.1-2.6,3.2-2.6c1.5,0,2.6,0.4,3.3,1.5L401.6,156.1z"/>
	<path d="M409.8,154v-0.6c0-1.9,0.6-2.8,2.7-2.8h0.4v1.4h-0.4c-1.2,0-1.4,0.5-1.4,1.8v0.3h1.7v1.3h-1.7v7.7h-1.4v-7.7h-1.2V154
		H409.8z"/>
	<path d="M421.6,159.1c0,2.3-1.2,4.1-3.7,4.1c-2.4,0-3.7-1.6-3.7-4.1v-1.2c0-2.6,1.4-4,3.7-4c2.4,0,3.7,1.5,3.7,4V159.1z
		 M420.2,159.1v-1.2c0-1.7-0.8-2.7-2.3-2.7c-1.5,0-2.3,1-2.3,2.7v1.2c0,1.5,0.6,2.8,2.3,2.8C419.4,161.9,420.2,160.6,420.2,159.1z"
		/>
	<path d="M428.4,156c-0.4-0.5-0.8-0.8-1.5-0.8c-1.1,0-1.9,0.8-1.9,2.2v5.6h-1.4v-9h1.4v0.9c0.4-0.6,1-1,2.1-1c1.2,0,2,0.4,2.6,1.2
		L428.4,156z"/>
	<path d="M439.6,154h1.4v0.9c0.5-0.7,1.1-1,2.4-1c1.9,0,3.3,1,3.3,3.5v5.6h-1.4v-5.6c0-1.8-1-2.2-2.1-2.2c-1.4,0-2.2,1-2.2,2.2v5.6
		h-1.4V154z"/>
	<path d="M452.8,154h1.2v-2h1.4v2h2.1v1.3h-2.1v4.6c0,1.2,0.1,1.8,1.4,1.8h0.7v1.4h-0.8c-2.1,0-2.7-0.9-2.7-2.8v-4.9h-1.2V154z"/>
	<path d="M459.4,150.6h1.6v1.6h-1.6V150.6z M459.5,154h1.4v9h-1.4V154z"/>
	<path d="M463.6,154h1.4v0.9c0.4-0.6,1.1-1,2.2-1c1.2,0,2.1,0.5,2.6,1.4c0.6-1,1.6-1.4,2.7-1.4c1.9,0,3.1,1.2,3.1,3.5v5.6h-1.4v-5.6
		c0-1.6-0.8-2.2-1.9-2.2c-1.2,0-2,0.9-2,2.2v5.6h-1.4v-5.6c0-1.6-0.8-2.2-1.9-2.2c-1.2,0-2,1-2,2.2v5.6h-1.4V154z"/>
	<path d="M484.6,161.7c-0.6,1.1-1.6,1.5-3.2,1.5c-2.4,0-3.9-1.6-3.9-4.1v-1.2c0-2.6,1.2-4,3.6-4c2.4,0,3.6,1.5,3.6,4v0.9H479v0.3
		c0,1.5,0.7,2.8,2.3,2.8c1.2,0,1.8-0.3,2.1-1L484.6,161.7z M479,157.6h4.2c-0.1-1.5-0.7-2.4-2.1-2.4
		C479.7,155.2,479.1,156.1,479,157.6z"/>
	<path d="M486.2,157.2h4.7v1.3h-4.7V157.2z"/>
	<path d="M397.1,177.7c-0.5-0.6-1-0.9-2.2-0.9c-1.1,0-1.7,0.4-1.7,1.2c0,1,0.9,1.3,2.1,1.4c1.7,0.1,3.2,0.6,3.2,2.7
		c0,1.6-1.1,2.6-3.4,2.6c-1.8,0-2.8-0.6-3.5-1.5l1.1-0.8c0.5,0.6,1.1,0.9,2.4,0.9c1.2,0,1.9-0.5,1.9-1.3c0-1-0.6-1.3-2.3-1.4
		c-1.5-0.1-3-0.7-3-2.7c0-1.5,1.1-2.6,3.2-2.6c1.5,0,2.6,0.4,3.3,1.5L397.1,177.7z"/>
	<path d="M399.7,175.6h1.2v-2h1.4v2h2.1v1.3h-2.1v4.6c0,1.2,0.1,1.8,1.4,1.8h0.7v1.4h-0.8c-2.1,0-2.7-0.9-2.7-2.8v-4.9h-1.2V175.6z"
		/>
	<path d="M412.7,183.3c-0.6,1.1-1.6,1.5-3.2,1.5c-2.4,0-3.9-1.6-3.9-4.1v-1.2c0-2.6,1.2-4,3.6-4c2.4,0,3.6,1.5,3.6,4v0.9h-5.7v0.3
		c0,1.5,0.7,2.8,2.3,2.8c1.2,0,1.8-0.3,2.1-1L412.7,183.3z M407.1,179.2h4.2c-0.1-1.5-0.7-2.4-2.1-2.4
		C407.9,176.8,407.2,177.7,407.1,179.2z"/>
	<path d="M418.8,175.5c2.2,0,3.6,1.5,3.6,4v1.2c0,2.3-1.2,4.1-3.6,4.1c-1.2,0-2-0.4-2.4-1v4.3h-1.4v-12.4h1.4v0.9
		C416.8,175.9,417.6,175.5,418.8,175.5z M421,180.7v-1.2c0-1.7-0.8-2.7-2.3-2.7c-1.4,0-2.3,1-2.3,2.6v1.3c0,1.5,0.6,2.8,2.3,2.8
		C420.2,183.5,421,182.2,421,180.7z"/>
	<path d="M429.4,177.7c-0.5-0.6-1-0.9-2.2-0.9c-1.1,0-1.7,0.4-1.7,1.2c0,1,0.9,1.3,2.1,1.4c1.7,0.1,3.2,0.6,3.2,2.7
		c0,1.6-1.1,2.6-3.4,2.6c-1.8,0-2.8-0.6-3.5-1.5l1.1-0.8c0.5,0.6,1.1,0.9,2.4,0.9c1.2,0,1.9-0.5,1.9-1.3c0-1-0.6-1.3-2.3-1.4
		c-1.5-0.1-3-0.7-3-2.7c0-1.5,1.1-2.6,3.2-2.6c1.5,0,2.6,0.4,3.3,1.5L429.4,177.7z"/>
</g>
<g>
	<rect x="326.4" y="279.2" class="st2" width="171.6" height="34.8"/>
	<path d="M369.8,291.6l4.3-12.4h1.4l4.3,12.4h-1.6l-1-2.8h-4.9l-1,2.8H369.8z M372.9,287.4h3.9l-2-5.8L372.9,287.4z"/>
	<path d="M387.7,290.3c-0.6,1-1.7,1.5-3.1,1.5c-2.5,0-3.9-1.6-3.9-4.1v-1.2c0-2.6,1.5-4,3.9-4c1.4,0,2.5,0.5,3.1,1.4l-1.1,0.8
		c-0.4-0.6-1.2-0.9-2-0.9c-1.5,0-2.4,1-2.4,2.7v1.2c0,1.5,0.7,2.8,2.4,2.8c0.8,0,1.6-0.3,2-1L387.7,290.3z"/>
	<path d="M395.6,290.3c-0.6,1-1.7,1.5-3.1,1.5c-2.5,0-3.9-1.6-3.9-4.1v-1.2c0-2.6,1.5-4,3.9-4c1.4,0,2.5,0.5,3.1,1.4l-1.1,0.8
		c-0.4-0.6-1.2-0.9-2-0.9c-1.5,0-2.4,1-2.4,2.7v1.2c0,1.5,0.7,2.8,2.4,2.8c0.8,0,1.6-0.3,2-1L395.6,290.3z"/>
	<path d="M403.6,290.3c-0.6,1.1-1.6,1.5-3.2,1.5c-2.4,0-3.9-1.6-3.9-4.1v-1.2c0-2.6,1.2-4,3.6-4c2.4,0,3.6,1.5,3.6,4v0.9h-5.7v0.3
		c0,1.5,0.7,2.8,2.3,2.8c1.2,0,1.8-0.3,2.1-1L403.6,290.3z M398.1,286.2h4.2c-0.1-1.5-0.7-2.4-2.1-2.4
		C398.8,283.8,398.2,284.7,398.1,286.2z"/>
	<path d="M409.8,282.5c2.2,0,3.6,1.5,3.6,4v1.2c0,2.3-1.2,4.1-3.6,4.1c-1.2,0-2-0.4-2.4-1v4.3h-1.4v-12.4h1.4v0.9
		C407.8,282.9,408.6,282.5,409.8,282.5z M411.9,287.7v-1.2c0-1.7-0.8-2.7-2.3-2.7c-1.4,0-2.3,1-2.3,2.6v1.3c0,1.5,0.6,2.8,2.3,2.8
		C411.1,290.5,411.9,289.2,411.9,287.7z"/>
	<path d="M414.5,282.6h1.2v-2h1.4v2h2.1v1.3H417v4.6c0,1.2,0.1,1.8,1.4,1.8h0.7v1.4h-0.8c-2.1,0-2.7-0.9-2.7-2.8v-4.9h-1.2V282.6z"
		/>
	<path d="M423.8,286.4h2.1v-1c0-1.3-0.6-1.6-2-1.6c-1.1,0-1.7,0.1-2.2,0.9l-1.1-0.8c0.6-1,1.5-1.5,3.3-1.5c2.3,0,3.4,0.7,3.4,2.9
		v6.2H426v-0.9c-0.5,0.8-1.1,1-2.3,1c-2.1,0-3.2-1-3.2-2.8C420.5,287.1,421.9,286.4,423.8,286.4z M426,287.7h-2.1
		c-1.4,0-1.9,0.5-1.9,1.4c0,1,0.7,1.4,1.8,1.4c1.3,0,2.3-0.3,2.3-2.3V287.7z"/>
	<path d="M429.8,282.6h1.4v0.9c0.5-0.7,1.1-1,2.4-1c1.9,0,3.3,1,3.3,3.5v5.6h-1.4V286c0-1.8-1-2.2-2.1-2.2c-1.4,0-2.2,1-2.2,2.2v5.6
		h-1.4V282.6z"/>
	<path d="M445.8,290.3c-0.6,1-1.7,1.5-3.1,1.5c-2.5,0-3.9-1.6-3.9-4.1v-1.2c0-2.6,1.5-4,3.9-4c1.4,0,2.5,0.5,3.1,1.4l-1.1,0.8
		c-0.4-0.6-1.2-0.9-2-0.9c-1.5,0-2.4,1-2.4,2.7v1.2c0,1.5,0.7,2.8,2.4,2.8c0.8,0,1.6-0.3,2-1L445.8,290.3z"/>
	<path d="M453.8,290.3c-0.6,1.1-1.6,1.5-3.2,1.5c-2.4,0-3.9-1.6-3.9-4.1v-1.2c0-2.6,1.2-4,3.6-4c2.4,0,3.6,1.5,3.6,4v0.9h-5.7v0.3
		c0,1.5,0.7,2.8,2.3,2.8c1.2,0,1.8-0.3,2.1-1L453.8,290.3z M448.2,286.2h4.2c-0.1-1.5-0.7-2.4-2.1-2.4
		C448.9,283.8,448.3,284.7,448.2,286.2z"/>
	<path d="M374.4,308.5v4.7h-1.5v-12.4h4c2.9,0,4.5,1.4,4.5,3.9c0,2.4-1.6,3.8-4.5,3.8H374.4z M376.8,307.1c2.1,0,3-0.9,3-2.4
		c0-1.5-0.9-2.4-3-2.4h-2.4v4.9H376.8z"/>
	<path d="M387.9,306.2c-0.4-0.5-0.8-0.8-1.5-0.8c-1.1,0-1.9,0.8-1.9,2.2v5.6h-1.4v-9h1.4v0.9c0.4-0.6,1-1,2.1-1c1.2,0,2,0.4,2.6,1.2
		L387.9,306.2z"/>
	<path d="M397.2,309.3c0,2.3-1.2,4.1-3.7,4.1c-2.4,0-3.7-1.6-3.7-4.1v-1.2c0-2.6,1.4-4,3.7-4c2.4,0,3.7,1.5,3.7,4V309.3z
		 M395.7,309.3v-1.2c0-1.7-0.8-2.7-2.3-2.7c-1.5,0-2.3,1-2.3,2.7v1.2c0,1.5,0.6,2.8,2.3,2.8C395,312.1,395.7,310.8,395.7,309.3z"/>
	<path d="M400.5,305.1c0.5-0.7,1.3-1,2.4-1c2.2,0,3.6,1.5,3.6,4v1.2c0,2.3-1.2,4.1-3.6,4.1c-1.2,0-2-0.3-2.4-0.9v0.8h-1.4v-12.4h1.4
		V305.1z M405.1,309.3v-1.2c0-1.7-0.8-2.7-2.3-2.7c-1.4,0-2.3,1-2.3,2.6v1.3c0,1.5,0.6,2.8,2.3,2.8
		C404.3,312.1,405.1,310.8,405.1,309.3z"/>
	<path d="M411.4,308h2.1v-1c0-1.3-0.6-1.6-2-1.6c-1.1,0-1.7,0.1-2.2,0.9l-1.1-0.8c0.6-1,1.5-1.5,3.3-1.5c2.3,0,3.4,0.7,3.4,2.9v6.2
		h-1.4v-0.9c-0.5,0.8-1.1,1-2.3,1c-2.1,0-3.2-1-3.2-2.8C408,308.7,409.4,308,411.4,308z M413.5,309.3h-2.1c-1.4,0-1.9,0.5-1.9,1.4
		c0,1,0.7,1.4,1.8,1.4c1.3,0,2.3-0.3,2.3-2.3V309.3z"/>
	<path d="M418.7,305.1c0.5-0.7,1.3-1,2.4-1c2.2,0,3.6,1.5,3.6,4v1.2c0,2.3-1.2,4.1-3.6,4.1c-1.2,0-2-0.3-2.4-0.9v0.8h-1.4v-12.4h1.4
		V305.1z M423.3,309.3v-1.2c0-1.7-0.8-2.7-2.3-2.7c-1.4,0-2.3,1-2.3,2.6v1.3c0,1.5,0.6,2.8,2.3,2.8
		C422.6,312.1,423.3,310.8,423.3,309.3z"/>
	<path d="M426.8,300.8h1.6v1.6h-1.6V300.8z M426.9,304.2h1.4v9h-1.4V304.2z"/>
	<path d="M431,300.8h1.4v9.3c0,1,0.1,1.8,1.5,1.8v1.3c-2.3,0-3-0.9-3-2.8V300.8z"/>
	<path d="M436.1,300.8h1.6v1.6h-1.6V300.8z M436.2,304.2h1.4v9h-1.4V304.2z"/>
	<path d="M439.4,304.2h1.2v-2h1.4v2h2.1v1.3H442v4.6c0,1.2,0.1,1.8,1.4,1.8h0.7v1.4h-0.8c-2.1,0-2.7-0.9-2.7-2.8v-4.9h-1.2V304.2z"
		/>
	<path d="M448.4,313.3l-3.5-9.1h1.5l2.7,7l2.4-7h1.5l-3.2,9.3c-0.7,2.2-1.2,3.1-3.7,3.1v-1.4c1.2,0,1.7-0.2,2.3-1.8L448.4,313.3z"/>
</g>
<path class="st3" d="M811.5,165.5"/>
<g>
	<rect x="25.4" y="277.4" class="st2" width="171.6" height="40.6"/>
	<path d="M67.2,277.4v7.4c0,3.7-1.7,5.2-4.5,5.2c-2.8,0-4.5-1.5-4.5-5.2v-7.4h1.5v7.4c0,2.7,1,3.8,3,3.8c1.9,0,3-1.1,3-3.8v-7.4
		H67.2z"/>
	<path d="M73.8,280.7c2.2,0,3.6,1.5,3.6,4v1.2c0,2.3-1.2,4.1-3.6,4.1c-1.2,0-2-0.4-2.4-1v4.3h-1.4v-12.4h1.4v0.9
		C71.8,281,72.6,280.7,73.8,280.7z M75.9,285.9v-1.2c0-1.7-0.8-2.7-2.3-2.7c-1.4,0-2.3,1-2.3,2.6v1.3c0,1.5,0.6,2.8,2.3,2.8
		C75.2,288.7,75.9,287.4,75.9,285.9z"/>
	<path d="M84.9,277.4h1.4v12.4h-1.4V289c-0.5,0.6-1.3,0.9-2.4,0.9c-2.4,0-3.6-1.7-3.6-4.1v-1.2c0-2.6,1.4-4,3.6-4c1.2,0,2,0.4,2.4,1
		V277.4z M84.9,286v-1.3c0-1.7-0.8-2.7-2.3-2.7c-1.5,0-2.3,1-2.3,2.7v1.2c0,1.5,0.8,2.8,2.3,2.8C84.2,288.7,84.9,287.5,84.9,286z"/>
	<path d="M91.6,284.6h2.1v-1c0-1.3-0.6-1.6-2-1.6c-1.1,0-1.7,0.1-2.2,0.9l-1.1-0.8c0.6-1,1.5-1.5,3.3-1.5c2.3,0,3.4,0.7,3.4,2.9v6.2
		h-1.4v-0.9c-0.5,0.8-1.1,1-2.3,1c-2.1,0-3.2-1-3.2-2.8C88.2,285.2,89.6,284.6,91.6,284.6z M93.7,285.8h-2.1c-1.4,0-1.9,0.5-1.9,1.4
		c0,1,0.7,1.4,1.8,1.4c1.3,0,2.3-0.3,2.3-2.3V285.8z"/>
	<path d="M96.7,280.8h1.2v-2h1.4v2h2.1v1.3h-2.1v4.6c0,1.2,0.1,1.8,1.4,1.8h0.7v1.4h-0.8c-2.1,0-2.7-0.9-2.7-2.8v-4.9h-1.2V280.8z"
		/>
	<path d="M109.7,288.4c-0.6,1.1-1.6,1.5-3.2,1.5c-2.4,0-3.9-1.6-3.9-4.1v-1.2c0-2.6,1.2-4,3.6-4c2.4,0,3.6,1.5,3.6,4v0.9h-5.7v0.3
		c0,1.5,0.7,2.8,2.3,2.8c1.2,0,1.8-0.3,2.1-1L109.7,288.4z M104.1,284.4h4.2c-0.1-1.5-0.7-2.4-2.1-2.4
		C104.9,282,104.2,282.9,104.1,284.4z"/>
	<path d="M121.5,282.9c-0.5-0.6-1-0.9-2.2-0.9c-1.1,0-1.7,0.4-1.7,1.2c0,1,0.9,1.3,2.1,1.4c1.7,0.1,3.2,0.6,3.2,2.7
		c0,1.6-1.1,2.6-3.4,2.6c-1.8,0-2.8-0.6-3.5-1.5l1.1-0.8c0.5,0.6,1.1,0.9,2.4,0.9c1.2,0,1.9-0.5,1.9-1.3c0-1-0.6-1.3-2.3-1.4
		c-1.5-0.1-3-0.7-3-2.7c0-1.5,1.1-2.6,3.2-2.6c1.5,0,2.6,0.4,3.3,1.5L121.5,282.9z"/>
	<path d="M124,280.8h1.2v-2h1.4v2h2.1v1.3h-2.1v4.6c0,1.2,0.1,1.8,1.4,1.8h0.7v1.4h-0.8c-2.1,0-2.7-0.9-2.7-2.8v-4.9H124V280.8z"/>
	<path d="M137,288.4c-0.6,1.1-1.6,1.5-3.2,1.5c-2.4,0-3.9-1.6-3.9-4.1v-1.2c0-2.6,1.2-4,3.6-4c2.4,0,3.6,1.5,3.6,4v0.9h-5.7v0.3
		c0,1.5,0.7,2.8,2.3,2.8c1.2,0,1.8-0.3,2.1-1L137,288.4z M131.5,284.4h4.2c-0.1-1.5-0.7-2.4-2.1-2.4
		C132.2,282,131.6,282.9,131.5,284.4z"/>
	<path d="M143.2,280.7c2.2,0,3.6,1.5,3.6,4v1.2c0,2.3-1.2,4.1-3.6,4.1c-1.2,0-2-0.4-2.4-1v4.3h-1.4v-12.4h1.4v0.9
		C141.2,281,142,280.7,143.2,280.7z M145.3,285.9v-1.2c0-1.7-0.8-2.7-2.3-2.7c-1.4,0-2.3,1-2.3,2.6v1.3c0,1.5,0.6,2.8,2.3,2.8
		C144.6,288.7,145.3,287.4,145.3,285.9z"/>
	<path d="M153.3,277.4h1.6v1.6h-1.6V277.4z M153.4,280.8h1.4v9h-1.4V280.8z"/>
	<path d="M157.5,280.8h1.4v0.9c0.5-0.7,1.1-1,2.4-1c1.9,0,3.3,1,3.3,3.5v5.6h-1.4v-5.6c0-1.8-1-2.2-2.1-2.2c-1.4,0-2.2,1-2.2,2.2
		v5.6h-1.4V280.8z"/>
	<path d="M67.8,306.7l3.7-7.7h1.5v12.4h-1.5v-9.1l-3,6.5h-1.4l-3-6.5v9.1h-1.5V299h1.5L67.8,306.7z"/>
	<path d="M78.7,306.2h2.1v-1c0-1.3-0.6-1.6-2-1.6c-1.1,0-1.7,0.1-2.2,0.9l-1.1-0.8c0.6-1,1.5-1.5,3.3-1.5c2.3,0,3.4,0.7,3.4,2.9v6.2
		h-1.4v-0.9c-0.5,0.8-1.1,1-2.3,1c-2.1,0-3.2-1-3.2-2.8C75.3,306.8,76.7,306.2,78.7,306.2z M80.8,307.4h-2.1c-1.4,0-1.9,0.5-1.9,1.4
		c0,1,0.7,1.4,1.8,1.4c1.3,0,2.3-0.3,2.3-2.3V307.4z"/>
	<path d="M89.5,304.4c-0.4-0.5-0.8-0.8-1.5-0.8c-1.1,0-1.9,0.8-1.9,2.2v5.6h-1.4v-9h1.4v0.9c0.4-0.6,1-1,2.1-1c1.2,0,2,0.4,2.6,1.2
		L89.5,304.4z"/>
	<path d="M98.7,302.4l-3.9,4l4.4,5h-1.9l-3.6-3.9l-0.6,0.6v3.3h-1.4V299h1.4v7.1l3.6-3.7H98.7z"/>
	<path d="M107,307.5c0,2.3-1.2,4.1-3.7,4.1c-2.4,0-3.7-1.6-3.7-4.1v-1.2c0-2.6,1.4-4,3.7-4c2.4,0,3.7,1.5,3.7,4V307.5z M105.5,307.5
		v-1.2c0-1.7-0.8-2.7-2.3-2.7c-1.5,0-2.3,1-2.3,2.7v1.2c0,1.5,0.6,2.8,2.3,2.8C104.8,310.3,105.5,309,105.5,307.5z"/>
	<path d="M116.6,302.4l-3.6,9h-1.4l-3.7-9h1.6l2.7,7.2l2.7-7.2H116.6z"/>
	<path d="M129,310c-0.6,1-1.7,1.5-3.1,1.5c-2.5,0-3.9-1.6-3.9-4.1v-1.2c0-2.6,1.5-4,3.9-4c1.4,0,2.5,0.5,3.1,1.4l-1.1,0.8
		c-0.4-0.6-1.2-0.9-2-0.9c-1.5,0-2.4,1-2.4,2.7v1.2c0,1.5,0.7,2.8,2.4,2.8c0.8,0,1.6-0.3,2-1L129,310z"/>
	<path d="M130.4,299h1.4v4.3c0.5-0.7,1.1-1,2.4-1c1.9,0,3.3,1,3.3,3.5v5.6h-1.4v-5.6c0-1.8-1-2.2-2.1-2.2c-1.4,0-2.2,1-2.2,2.2v5.6
		h-1.4V299z"/>
	<path d="M142.8,306.2h2.1v-1c0-1.3-0.6-1.6-2-1.6c-1.1,0-1.7,0.1-2.2,0.9l-1.1-0.8c0.6-1,1.5-1.5,3.3-1.5c2.3,0,3.4,0.7,3.4,2.9
		v6.2H145v-0.9c-0.5,0.8-1.1,1-2.3,1c-2.1,0-3.2-1-3.2-2.8C139.4,306.8,140.8,306.2,142.8,306.2z M145,307.4h-2.1
		c-1.4,0-1.9,0.5-1.9,1.4c0,1,0.7,1.4,1.8,1.4c1.3,0,2.3-0.3,2.3-2.3V307.4z"/>
	<path d="M148.9,299h1.6v1.6h-1.6V299z M149,302.4h1.4v9H149V302.4z"/>
	<path d="M153.1,302.4h1.4v0.9c0.5-0.7,1.1-1,2.4-1c1.9,0,3.3,1,3.3,3.5v5.6h-1.4v-5.6c0-1.8-1-2.2-2.1-2.2c-1.4,0-2.2,1-2.2,2.2
		v5.6h-1.4V302.4z"/>
</g>
<g>
	<rect x="539.9" y="275.3" class="st2" width="94.6" height="15.8"/>
	<path d="M548.5,287.8l-2.6-5.2h-2.9v5.2h-1.5v-12.4h4c2.9,0,4.5,1.2,4.5,3.6c0,1.7-0.9,2.8-2.4,3.3l2.8,5.5H548.5z M545.3,281.1
		c2.1,0,3-0.6,3-2.2c0-1.5-0.9-2.2-3-2.2h-2.4v4.4H545.3z"/>
	<path d="M558.4,286.4c-0.6,1.1-1.6,1.5-3.2,1.5c-2.4,0-3.9-1.6-3.9-4.1v-1.2c0-2.6,1.2-4,3.6-4c2.4,0,3.6,1.5,3.6,4v0.9h-5.7v0.3
		c0,1.5,0.7,2.8,2.3,2.8c1.2,0,1.8-0.3,2.1-1L558.4,286.4z M552.8,282.3h4.2c-0.1-1.5-0.7-2.4-2.1-2.4
		C553.6,279.9,552.9,280.8,552.8,282.3z"/>
	<path d="M562.4,288.4c0,1.9-0.7,2.8-3,2.8v-1.3c1.5,0,1.5-0.8,1.5-1.8v-9.3h1.4V288.4z M560.9,275.3h1.6v1.6h-1.6V275.3z"/>
	<path d="M571.4,286.4c-0.6,1.1-1.6,1.5-3.2,1.5c-2.4,0-3.9-1.6-3.9-4.1v-1.2c0-2.6,1.2-4,3.6-4c2.4,0,3.6,1.5,3.6,4v0.9h-5.7v0.3
		c0,1.5,0.7,2.8,2.3,2.8c1.2,0,1.8-0.3,2.1-1L571.4,286.4z M565.8,282.3h4.2c-0.1-1.5-0.7-2.4-2.1-2.4
		C566.6,279.9,565.9,280.8,565.8,282.3z"/>
	<path d="M580.2,286.4c-0.6,1-1.7,1.5-3.1,1.5c-2.5,0-3.9-1.6-3.9-4.1v-1.2c0-2.6,1.5-4,3.9-4c1.4,0,2.5,0.5,3.1,1.4l-1.1,0.8
		c-0.4-0.6-1.2-0.9-2-0.9c-1.5,0-2.4,1-2.4,2.7v1.2c0,1.5,0.7,2.8,2.4,2.8c0.8,0,1.6-0.3,2-1L580.2,286.4z"/>
	<path d="M580.8,278.8h1.2v-2h1.4v2h2.1v1.3h-2.1v4.6c0,1.2,0.1,1.8,1.4,1.8h0.7v1.4h-0.8c-2.1,0-2.7-0.9-2.7-2.8v-4.9h-1.2V278.8z"
		/>
</g>
<g>
	<rect x="246.9" y="275.3" class="st2" width="94.6" height="15.8"/>
	<path d="M247,287.8l4.3-12.4h1.4l4.3,12.4h-1.6l-1-2.8h-4.9l-1,2.8H247z M250.1,283.5h3.9l-2-5.8L250.1,283.5z"/>
	<path d="M264.9,286.4c-0.6,1-1.7,1.5-3.1,1.5c-2.5,0-3.9-1.6-3.9-4.1v-1.2c0-2.6,1.5-4,3.9-4c1.4,0,2.5,0.5,3.1,1.4l-1.1,0.8
		c-0.4-0.6-1.2-0.9-2-0.9c-1.5,0-2.4,1-2.4,2.7v1.2c0,1.5,0.7,2.8,2.4,2.8c0.8,0,1.6-0.3,2-1L264.9,286.4z"/>
	<path d="M272.9,286.4c-0.6,1-1.7,1.5-3.1,1.5c-2.5,0-3.9-1.6-3.9-4.1v-1.2c0-2.6,1.5-4,3.9-4c1.4,0,2.5,0.5,3.1,1.4l-1.1,0.8
		c-0.4-0.6-1.2-0.9-2-0.9c-1.5,0-2.4,1-2.4,2.7v1.2c0,1.5,0.7,2.8,2.4,2.8c0.8,0,1.6-0.3,2-1L272.9,286.4z"/>
	<path d="M280.9,286.4c-0.6,1.1-1.6,1.5-3.2,1.5c-2.4,0-3.9-1.6-3.9-4.1v-1.2c0-2.6,1.2-4,3.6-4c2.4,0,3.6,1.5,3.6,4v0.9h-5.7v0.3
		c0,1.5,0.7,2.8,2.3,2.8c1.2,0,1.8-0.3,2.1-1L280.9,286.4z M275.3,282.3h4.2c-0.1-1.5-0.7-2.4-2.1-2.4
		C276.1,279.9,275.4,280.8,275.3,282.3z"/>
	<path d="M287,278.6c2.2,0,3.6,1.5,3.6,4v1.2c0,2.3-1.2,4.1-3.6,4.1c-1.2,0-2-0.4-2.4-1v4.3h-1.4v-12.4h1.4v0.9
		C285.1,279,285.8,278.6,287,278.6z M289.2,283.8v-1.2c0-1.7-0.8-2.7-2.3-2.7c-1.4,0-2.3,1-2.3,2.6v1.3c0,1.5,0.6,2.8,2.3,2.8
		C288.4,286.6,289.2,285.4,289.2,283.8z"/>
	<path d="M291.7,278.8h1.2v-2h1.4v2h2.1v1.3h-2.1v4.6c0,1.2,0.1,1.8,1.4,1.8h0.7v1.4h-0.8c-2.1,0-2.7-0.9-2.7-2.8v-4.9h-1.2V278.8z"
		/>
</g>
<g>
	<g>
		<line class="st0" x1="411.5" y1="192.5" x2="411.5" y2="231.3"/>
		<g>
			<polygon class="st1" points="411.5,252.5 399.3,222.7 411.5,229.7 423.7,222.7 			"/>
		</g>
	</g>
</g>
<g>
	<g>
		<path class="st0" d="M535.7,25.5h76.8c5.5,0,10,4.5,10,10v251c0,5.5-4.5,10-10,10h-98"/>
		<g>
			<polygon class="st1" points="514.5,25.5 544.3,37.7 537.3,25.5 544.3,13.3 			"/>
		</g>
	</g>
</g>
<g>
	<g>
		<line class="st0" x1="308.5" y1="294.5" x2="234.7" y2="294.5"/>
		<g>
			<polygon class="st1" points="213.5,294.5 243.3,282.3 236.3,294.5 243.3,306.7 			"/>
		</g>
	</g>
</g>
<g>
	<g>
		<path class="st0" d="M287.3,25.5H121.5c-5.5,0-10,4.5-10,10v226"/>
		<g>
			<polygon class="st1" points="308.5,25.5 278.7,13.3 285.7,25.5 278.7,37.7 			"/>
		</g>
	</g>
</g>
<g>
	<path class="st4" d="M514.5,329.5c0,5.5-4.5,10-10,10h-186c-5.5,0-10-4.5-10-10v-67c0-5.5,4.5-10,10-10h186c5.5,0,10,4.5,10,10
		V329.5z"/>
</g>
<g>
	<path class="st4" d="M514.5,52.5c0,5.5-4.5,10-10,10h-186c-5.5,0-10-4.5-10-10v-37c0-5.5,4.5-10,10-10h186c5.5,0,10,4.5,10,10V52.5
		z"/>
</g>
<g>
	<path class="st4" d="M514.5,182.5c0,5.5-4.5,10-10,10h-186c-5.5,0-10-4.5-10-10v-50c0-5.5,4.5-10,10-10h186c5.5,0,10,4.5,10,10
		V182.5z"/>
</g>
<g>
	<path class="st4" d="M213.5,321.5c0,5.5-4.5,10-10,10h-186c-5.5,0-10-4.5-10-10v-50c0-5.5,4.5-10,10-10h186c5.5,0,10,4.5,10,10
		V321.5z"/>
</g>
<g>
</g>
<g>
</g>
<g>
</g>
<g>
</g>
<g>
</g>
<g>
</g>
<g>
</g>
<g>
</g>
<g>
</g>
<g>
</g>
<g>
</g>
<g>
</g>
</svg>
