<?xml version="1.0" encoding="utf-8"?>
<!-- Generator: Adobe Illustrator 24.3.0, SVG Export Plug-In . SVG Version: 6.00 Build 0)  -->
<svg version="1.1" id="Layer_1" xmlns="http://www.w3.org/2000/svg" xmlns:xlink="http://www.w3.org/1999/xlink" x="0px" y="0px"
	 viewBox="0 0 324.8 470.7" style="enable-background:new 0 0 324.8 470.7;" xml:space="preserve">
<style type="text/css">
	.st0{fill:none;stroke:#808080;stroke-width:3;stroke-miterlimit:10;}
	.st1{fill:#808080;}
	.st2{fill:none;}
	.st3{fill:#FFFFFF;stroke:#808080;stroke-width:3;stroke-miterlimit:10;}
	.st4{fill:none;stroke:#E36F1E;stroke-width:3;stroke-miterlimit:10;}
</style>
<g>
	<g>
		<path class="st0" d="M282.2,25.5H309c5.5,0,10,4.5,10,10v299c0,5.5-4.5,10-10,10h-48"/>
		<g>
			<polygon class="st1" points="261,25.5 290.8,37.7 283.8,25.5 290.8,13.3 			"/>
		</g>
	</g>
</g>
<g>
	<g>
		<line class="st0" x1="158" y1="380.5" x2="158" y2="396.3"/>
		<g>
			<polygon class="st1" points="158,417.5 145.8,387.7 158,394.7 170.2,387.7 			"/>
		</g>
	</g>
</g>
<g>
	<g>
		<line class="st0" x1="158" y1="266.5" x2="158" y2="282.3"/>
		<g>
			<polygon class="st1" points="158,303.5 145.8,273.7 158,280.7 170.2,273.7 			"/>
		</g>
	</g>
</g>
<g>
	<g>
		<line class="st0" x1="158" y1="62.5" x2="158" y2="77.3"/>
		<g>
			<polygon class="st1" points="158,98.5 145.8,68.7 158,75.7 170.2,68.7 			"/>
		</g>
	</g>
</g>
<g>
	<rect x="72.9" y="18.2" class="st2" width="171.6" height="37.8"/>
	<path d="M103.4,24.4v0.7c0,4-1.8,5.7-4.6,5.7s-4.5-1.7-4.5-5.7v-1.4c0-4,1.7-5.7,4.5-5.7c2.4,0,4.1,1.3,4.5,4h-1.5
		c-0.4-1.9-1.4-2.6-3-2.6c-1.9,0-3,1.2-3,4.3v1.4c0,3.1,1,4.3,3,4.3c1.7,0,2.8-1,3-3.6h-3v-1.4C98.8,24.4,103.4,24.4,103.4,24.4z"/>
	<path d="M112,29.3c-0.6,1.1-1.6,1.5-3.2,1.5c-2.4,0-3.9-1.6-3.9-4.1v-1.2c0-2.6,1.2-4,3.6-4s3.6,1.5,3.6,4v0.9h-5.6v0.3
		c0,1.5,0.7,2.8,2.3,2.8c1.2,0,1.8-0.3,2.1-1L112,29.3z M106.5,25.2h4.2c-0.1-1.5-0.7-2.4-2.1-2.4C107.2,22.8,106.6,23.7,106.5,25.2
		z"/>
	<path d="M114.3,21.6h1.4v0.9c0.5-0.7,1.1-1,2.4-1c1.9,0,3.3,1,3.3,3.5v5.6H120V25c0-1.8-1-2.2-2.1-2.2c-1.4,0-2.2,1-2.2,2.2v5.6
		h-1.4L114.3,21.6L114.3,21.6z"/>
	<path d="M130.3,29.3c-0.6,1.1-1.6,1.5-3.2,1.5c-2.4,0-3.9-1.6-3.9-4.1v-1.2c0-2.6,1.2-4,3.6-4c2.4,0,3.6,1.5,3.6,4v0.9h-5.7v0.3
		c0,1.5,0.7,2.8,2.3,2.8c1.2,0,1.8-0.3,2.1-1L130.3,29.3z M124.7,25.2h4.2c-0.1-1.5-0.7-2.4-2.1-2.4
		C125.5,22.8,124.8,23.7,124.7,25.2z"/>
	<path d="M137.4,23.6c-0.4-0.5-0.8-0.8-1.5-0.8c-1.1,0-1.9,0.8-1.9,2.2v5.6h-1.5v-9h1.4v0.9c0.4-0.6,1-1,2.1-1c1.2,0,2,0.4,2.6,1.2
		L137.4,23.6z"/>
	<path d="M142.3,25.4h2.1v-1c0-1.3-0.6-1.6-2-1.6c-1.1,0-1.7,0.1-2.2,0.9l-1.1-0.8c0.6-1,1.5-1.5,3.3-1.5c2.3,0,3.4,0.7,3.4,2.9v6.2
		h-1.3v-0.9c-0.5,0.8-1.1,1-2.3,1c-2.1,0-3.2-1-3.2-2.8C139,26.1,140.4,25.4,142.3,25.4z M144.5,26.7h-2.1c-1.4,0-1.9,0.5-1.9,1.4
		c0,1,0.7,1.4,1.8,1.4c1.3,0,2.3-0.3,2.3-2.3L144.5,26.7L144.5,26.7z"/>
	<path d="M147.5,21.6h1.2v-2h1.4v2h2.1v1.3h-2.1v4.6c0,1.2,0.1,1.8,1.4,1.8h0.7v1.4h-0.8c-2.1,0-2.7-0.9-2.7-2.8V23h-1.2V21.6z"/>
	<path d="M160.5,29.3c-0.6,1.1-1.6,1.5-3.2,1.5c-2.4,0-3.9-1.6-3.9-4.1v-1.2c0-2.6,1.2-4,3.6-4s3.6,1.5,3.6,4v0.9h-5.7v0.3
		c0,1.5,0.7,2.8,2.3,2.8c1.2,0,1.8-0.3,2.1-1L160.5,29.3z M154.9,25.2h4.2c-0.1-1.5-0.7-2.4-2.1-2.4C155.7,22.8,155,23.7,154.9,25.2
		z"/>
	<path d="M172.1,23.6c-0.4-0.5-0.8-0.8-1.5-0.8c-1.1,0-1.9,0.8-1.9,2.2v5.6h-1.4v-9h1.4v0.9c0.4-0.6,1-1,2.1-1c1.2,0,2,0.4,2.6,1.2
		L172.1,23.6z"/>
	<path d="M177,25.4h2.1v-1c0-1.3-0.6-1.6-2-1.6c-1.1,0-1.7,0.1-2.2,0.9l-1.1-0.8c0.6-1,1.5-1.5,3.3-1.5c2.3,0,3.4,0.7,3.4,2.9v6.2
		h-1.4v-0.9c-0.5,0.8-1.1,1-2.3,1c-2.1,0-3.2-1-3.2-2.8C173.7,26.1,175.1,25.4,177,25.4z M179.2,26.7h-2.1c-1.4,0-1.9,0.5-1.9,1.4
		c0,1,0.7,1.4,1.8,1.4c1.3,0,2.3-0.3,2.3-2.3L179.2,26.7L179.2,26.7z"/>
	<path d="M183,21.6h1.4v0.9c0.5-0.7,1.1-1,2.4-1c1.9,0,3.3,1,3.3,3.5v5.6h-1.4V25c0-1.8-1-2.2-2.1-2.2c-1.4,0-2.2,1-2.2,2.2v5.6H183
		L183,21.6L183,21.6z"/>
	<path d="M198,18.2h1.4v12.4H198v-0.8c-0.5,0.6-1.3,0.9-2.4,0.9c-2.4,0-3.6-1.7-3.6-4.1v-1.2c0-2.6,1.4-4,3.6-4c1.2,0,2,0.4,2.4,1
		V18.2z M198,26.8v-1.3c0-1.7-0.8-2.7-2.3-2.7s-2.3,1-2.3,2.7v1.2c0,1.5,0.8,2.8,2.3,2.8C197.3,29.5,198,28.3,198,26.8z"/>
	<path d="M208.8,26.7c0,2.3-1.2,4.1-3.7,4.1c-2.4,0-3.7-1.6-3.7-4.1v-1.2c0-2.6,1.4-4,3.7-4c2.4,0,3.7,1.5,3.7,4V26.7z M207.4,26.7
		v-1.2c0-1.7-0.8-2.7-2.3-2.7s-2.3,1-2.3,2.7v1.2c0,1.5,0.6,2.8,2.3,2.8C206.6,29.5,207.4,28.2,207.4,26.7z"/>
	<path d="M210.7,21.6h1.4v0.9c0.4-0.6,1.1-1,2.2-1c1.2,0,2.1,0.5,2.6,1.4c0.6-1,1.6-1.4,2.7-1.4c1.9,0,3.1,1.2,3.1,3.5v5.6h-1.4V25
		c0-1.6-0.8-2.2-1.9-2.2c-1.2,0-2,0.9-2,2.2v5.6H216V25c0-1.6-0.8-2.2-1.9-2.2c-1.2,0-2,1-2,2.2v5.6h-1.4L210.7,21.6L210.7,21.6z"/>
	<path d="M117.1,43.2h1.4v0.9c0.4-0.6,1.1-1,2.2-1c1.2,0,2.1,0.5,2.6,1.4c0.6-1,1.6-1.4,2.7-1.4c1.9,0,3.1,1.2,3.1,3.5v5.6h-1.4
		v-5.6c0-1.6-0.8-2.2-1.9-2.2c-1.2,0-2,0.9-2,2.2v5.6h-1.4v-5.6c0-1.6-0.8-2.2-1.9-2.2c-1.2,0-2,1-2,2.2v5.6h-1.4L117.1,43.2
		L117.1,43.2z"/>
	<path d="M138.5,48.3c0,2.3-1.2,4.1-3.7,4.1c-2.4,0-3.7-1.6-3.7-4.1v-1.2c0-2.6,1.4-4,3.7-4c2.4,0,3.7,1.5,3.7,4V48.3z M137.1,48.3
		v-1.2c0-1.7-0.8-2.7-2.3-2.7s-2.3,1-2.3,2.7v1.2c0,1.5,0.6,2.8,2.3,2.8C136.3,51.1,137.1,49.8,137.1,48.3z"/>
	<path d="M140.4,43.2h1.4v0.9c0.4-0.6,1.1-1,2.2-1c1.2,0,2.1,0.5,2.6,1.4c0.6-1,1.6-1.4,2.7-1.4c1.9,0,3.1,1.2,3.1,3.5v5.6H151v-5.6
		c0-1.6-0.8-2.2-1.9-2.2c-1.2,0-2,0.9-2,2.2v5.6h-1.4v-5.6c0-1.6-0.8-2.2-1.9-2.2c-1.2,0-2,1-2,2.2v5.6h-1.4L140.4,43.2L140.4,43.2z
		"/>
	<path d="M161.4,50.9c-0.6,1.1-1.6,1.5-3.2,1.5c-2.4,0-3.9-1.6-3.9-4.1v-1.2c0-2.6,1.2-4,3.6-4s3.6,1.5,3.6,4V48h-5.7v0.3
		c0,1.5,0.7,2.8,2.3,2.8c1.2,0,1.8-0.3,2.1-1L161.4,50.9z M155.9,46.8h4.2c-0.1-1.5-0.7-2.4-2.1-2.4C156.6,44.4,156,45.3,155.9,46.8
		z"/>
	<path d="M163.7,43.2h1.4v0.9c0.5-0.7,1.1-1,2.4-1c1.9,0,3.3,1,3.3,3.5v5.6h-1.4v-5.6c0-1.8-1-2.2-2.1-2.2c-1.4,0-2.2,1-2.2,2.2v5.6
		h-1.4L163.7,43.2L163.7,43.2z"/>
	<path d="M172.3,43.2h1.2v-2h1.4v2h2.1v1.3h-2.1v4.6c0,1.2,0.1,1.8,1.4,1.8h0.7v1.4h-0.8c-2.1,0-2.7-0.9-2.7-2.8v-4.9h-1.2V43.2z"/>
	<path d="M185.9,52.2h-1.4v-0.9c-0.5,0.7-1.1,1-2.4,1c-1.9,0-3.3-1-3.3-3.5v-5.6h1.4v5.6c0,1.8,1,2.2,2.1,2.2c1.4,0,2.2-1,2.2-2.2
		v-5.6h1.4L185.9,52.2L185.9,52.2z"/>
	<path d="M188.3,43.2h1.4v0.9c0.4-0.6,1.1-1,2.2-1c1.2,0,2.1,0.5,2.6,1.4c0.6-1,1.6-1.4,2.7-1.4c1.9,0,3.1,1.2,3.1,3.5v5.6h-1.4
		v-5.6c0-1.6-0.8-2.2-1.9-2.2c-1.2,0-2,0.9-2,2.2v5.6h-1.4v-5.6c0-1.6-0.8-2.2-1.9-2.2c-1.2,0-2,1-2,2.2v5.6h-1.4L188.3,43.2
		L188.3,43.2z"/>
</g>
<path class="st3" d="M558,165.5"/>
<g>
	<rect x="71.9" y="423.4" class="st2" width="171.6" height="40.6"/>
	<path d="M113.7,423.4v7.4c0,3.7-1.7,5.2-4.5,5.2s-4.5-1.5-4.5-5.2v-7.4h1.5v7.4c0,2.7,1,3.8,3,3.8c1.9,0,3-1.1,3-3.8v-7.4H113.7z"
		/>
	<path d="M120.3,426.7c2.2,0,3.6,1.5,3.6,4v1.2c0,2.3-1.2,4.1-3.6,4.1c-1.2,0-2-0.4-2.4-1v4.3h-1.4v-12.4h1.4v0.9
		C118.3,427,119.1,426.7,120.3,426.7z M122.4,431.9v-1.2c0-1.7-0.8-2.7-2.3-2.7c-1.4,0-2.3,1-2.3,2.6v1.3c0,1.5,0.6,2.8,2.3,2.8
		C121.7,434.7,122.4,433.4,122.4,431.9z"/>
	<path d="M131.4,423.4h1.4v12.4h-1.4V435c-0.5,0.6-1.3,0.9-2.4,0.9c-2.4,0-3.6-1.7-3.6-4.1v-1.2c0-2.6,1.4-4,3.6-4
		c1.2,0,2,0.4,2.4,1V423.4z M131.4,432v-1.3c0-1.7-0.8-2.7-2.3-2.7s-2.3,1-2.3,2.7v1.2c0,1.5,0.8,2.8,2.3,2.8
		C130.7,434.7,131.4,433.5,131.4,432z"/>
	<path d="M138.1,430.6h2.1v-1c0-1.3-0.6-1.6-2-1.6c-1.1,0-1.7,0.1-2.2,0.9l-1.1-0.8c0.6-1,1.5-1.5,3.3-1.5c2.3,0,3.4,0.7,3.4,2.9
		v6.2h-1.4v-0.9c-0.5,0.8-1.1,1-2.3,1c-2.1,0-3.2-1-3.2-2.8C134.7,431.2,136.1,430.6,138.1,430.6z M140.2,431.8h-2.1
		c-1.4,0-1.9,0.5-1.9,1.4c0,1,0.7,1.4,1.8,1.4c1.3,0,2.3-0.3,2.3-2.3v-0.5H140.2z"/>
	<path d="M143.2,426.8h1.2v-2h1.4v2h2.1v1.3h-2.1v4.6c0,1.2,0.1,1.8,1.4,1.8h0.7v1.4h-0.8c-2.1,0-2.7-0.9-2.7-2.8v-4.9h-1.2V426.8z"
		/>
	<path d="M156.2,434.4c-0.6,1.1-1.6,1.5-3.2,1.5c-2.4,0-3.9-1.6-3.9-4.1v-1.2c0-2.6,1.2-4,3.6-4c2.4,0,3.6,1.5,3.6,4v0.9h-5.7v0.3
		c0,1.5,0.7,2.8,2.3,2.8c1.2,0,1.8-0.3,2.1-1L156.2,434.4z M150.6,430.4h4.2c-0.1-1.5-0.7-2.4-2.1-2.4
		C151.4,428,150.7,428.9,150.6,430.4z"/>
	<path d="M168,428.9c-0.5-0.6-1-0.9-2.2-0.9c-1.1,0-1.7,0.4-1.7,1.2c0,1,0.9,1.3,2.1,1.4c1.7,0.1,3.2,0.6,3.2,2.7
		c0,1.6-1.1,2.6-3.4,2.6c-1.8,0-2.8-0.6-3.5-1.5l1.1-0.8c0.5,0.6,1.1,0.9,2.4,0.9c1.2,0,1.9-0.5,1.9-1.3c0-1-0.6-1.3-2.3-1.4
		c-1.5-0.1-3-0.7-3-2.7c0-1.5,1.1-2.6,3.2-2.6c1.5,0,2.6,0.4,3.3,1.5L168,428.9z"/>
	<path d="M170.5,426.8h1.2v-2h1.4v2h2.1v1.3h-2.1v4.6c0,1.2,0.1,1.8,1.4,1.8h0.7v1.4h-0.8c-2.1,0-2.7-0.9-2.7-2.8v-4.9h-1.2V426.8z"
		/>
	<path d="M183.5,434.4c-0.6,1.1-1.6,1.5-3.2,1.5c-2.4,0-3.9-1.6-3.9-4.1v-1.2c0-2.6,1.2-4,3.6-4c2.4,0,3.6,1.5,3.6,4v0.9h-5.7v0.3
		c0,1.5,0.7,2.8,2.3,2.8c1.2,0,1.8-0.3,2.1-1L183.5,434.4z M178,430.4h4.2c-0.1-1.5-0.7-2.4-2.1-2.4
		C178.7,428,178.1,428.9,178,430.4z"/>
	<path d="M189.7,426.7c2.2,0,3.6,1.5,3.6,4v1.2c0,2.3-1.2,4.1-3.6,4.1c-1.2,0-2-0.4-2.4-1v4.3h-1.4v-12.4h1.4v0.9
		C187.7,427,188.5,426.7,189.7,426.7z M191.8,431.9v-1.2c0-1.7-0.8-2.7-2.3-2.7c-1.4,0-2.3,1-2.3,2.6v1.3c0,1.5,0.6,2.8,2.3,2.8
		C191.1,434.7,191.8,433.4,191.8,431.9z"/>
	<path d="M199.8,423.4h1.6v1.6h-1.6V423.4z M199.9,426.8h1.4v9h-1.4V426.8z"/>
	<path d="M204,426.8h1.4v0.9c0.5-0.7,1.1-1,2.4-1c1.9,0,3.3,1,3.3,3.5v5.6h-1.4v-5.6c0-1.8-1-2.2-2.1-2.2c-1.4,0-2.2,1-2.2,2.2v5.6
		H204V426.8z"/>
	<path d="M114.3,452.7l3.7-7.7h1.5v12.4H118v-9.1l-3,6.5h-1.4l-3-6.5v9.1h-1.5V445h1.5L114.3,452.7z"/>
	<path d="M125.2,452.2h2.1v-1c0-1.3-0.6-1.6-2-1.6c-1.1,0-1.7,0.1-2.2,0.9l-1.1-0.8c0.6-1,1.5-1.5,3.3-1.5c2.3,0,3.4,0.7,3.4,2.9
		v6.2h-1.4v-0.9c-0.5,0.8-1.1,1-2.3,1c-2.1,0-3.2-1-3.2-2.8C121.8,452.8,123.2,452.2,125.2,452.2z M127.3,453.4h-2.1
		c-1.4,0-1.9,0.5-1.9,1.4c0,1,0.7,1.4,1.8,1.4c1.3,0,2.3-0.3,2.3-2.3v-0.5H127.3z"/>
	<path d="M136,450.4c-0.4-0.5-0.8-0.8-1.5-0.8c-1.1,0-1.9,0.8-1.9,2.2v5.6h-1.4v-9h1.4v0.9c0.4-0.6,1-1,2.1-1c1.2,0,2,0.4,2.6,1.2
		L136,450.4z"/>
	<path d="M145.2,448.4l-3.9,4l4.4,5h-1.9l-3.6-3.9l-0.6,0.6v3.3h-1.4V445h1.4v7.1l3.6-3.7H145.2z"/>
	<path d="M153.5,453.5c0,2.3-1.2,4.1-3.7,4.1c-2.4,0-3.7-1.6-3.7-4.1v-1.2c0-2.6,1.4-4,3.7-4c2.4,0,3.7,1.5,3.7,4V453.5z M152,453.5
		v-1.2c0-1.7-0.8-2.7-2.3-2.7s-2.3,1-2.3,2.7v1.2c0,1.5,0.6,2.8,2.3,2.8C151.3,456.3,152,455,152,453.5z"/>
	<path d="M163.1,448.4l-3.6,9h-1.4l-3.7-9h1.6l2.7,7.2l2.7-7.2H163.1z"/>
	<path d="M175.5,456c-0.6,1-1.7,1.5-3.1,1.5c-2.5,0-3.9-1.6-3.9-4.1v-1.2c0-2.6,1.5-4,3.9-4c1.4,0,2.5,0.5,3.1,1.4l-1.1,0.8
		c-0.4-0.6-1.2-0.9-2-0.9c-1.5,0-2.4,1-2.4,2.7v1.2c0,1.5,0.7,2.8,2.4,2.8c0.8,0,1.6-0.3,2-1L175.5,456z"/>
	<path d="M176.9,445h1.4v4.3c0.5-0.7,1.1-1,2.4-1c1.9,0,3.3,1,3.3,3.5v5.6h-1.4v-5.6c0-1.8-1-2.2-2.1-2.2c-1.4,0-2.2,1-2.2,2.2v5.6
		h-1.4V445z"/>
	<path d="M189.3,452.2h2.1v-1c0-1.3-0.6-1.6-2-1.6c-1.1,0-1.7,0.1-2.2,0.9l-1.1-0.8c0.6-1,1.5-1.5,3.3-1.5c2.3,0,3.4,0.7,3.4,2.9
		v6.2h-1.3v-0.9c-0.5,0.8-1.1,1-2.3,1c-2.1,0-3.2-1-3.2-2.8C185.9,452.8,187.3,452.2,189.3,452.2z M191.5,453.4h-2.1
		c-1.4,0-1.9,0.5-1.9,1.4c0,1,0.7,1.4,1.8,1.4c1.3,0,2.3-0.3,2.3-2.3v-0.5H191.5z"/>
	<path d="M195.4,445h1.6v1.6h-1.6V445z M195.5,448.4h1.4v9h-1.4V448.4z"/>
	<path d="M199.6,448.4h1.4v0.9c0.5-0.7,1.1-1,2.4-1c1.9,0,3.3,1,3.3,3.5v5.6h-1.4v-5.6c0-1.8-1-2.2-2.1-2.2c-1.4,0-2.2,1-2.2,2.2
		v5.6h-1.4V448.4z"/>
</g>
<g>
	<polygon class="st2" points="266.4,218.3 361,258.3 361,274.1 266.4,234.1 	"/>
	<path d="M275,230.8l-2.6-5.2h-2.9v5.2H268v-12.4h4c2.9,0,4.5,1.2,4.5,3.6c0,1.7-0.9,2.8-2.4,3.3l2.8,5.5H275z M271.8,224.1
		c2.1,0,3-0.6,3-2.2c0-1.5-0.9-2.2-3-2.2h-2.4v4.4L271.8,224.1L271.8,224.1z"/>
	<path d="M284.9,229.4c-0.6,1.1-1.6,1.5-3.2,1.5c-2.4,0-3.9-1.6-3.9-4.1v-1.2c0-2.6,1.2-4,3.6-4c2.4,0,3.6,1.5,3.6,4v0.9h-5.7v0.3
		c0,1.5,0.7,2.8,2.3,2.8c1.2,0,1.8-0.3,2.1-1L284.9,229.4z M279.3,225.3h4.2c-0.1-1.5-0.7-2.4-2.1-2.4
		C280.1,222.9,279.4,223.8,279.3,225.3z"/>
	<path d="M288.9,231.4c0,1.9-0.7,2.8-3,2.8v-1.3c1.5,0,1.5-0.8,1.5-1.8v-9.3h1.4L288.9,231.4L288.9,231.4z M287.4,218.3h1.6v1.6
		h-1.6V218.3z"/>
	<path d="M297.9,229.4c-0.6,1.1-1.6,1.5-3.2,1.5c-2.4,0-3.9-1.6-3.9-4.1v-1.2c0-2.6,1.2-4,3.6-4c2.4,0,3.6,1.5,3.6,4v0.9h-5.7v0.3
		c0,1.5,0.7,2.8,2.3,2.8c1.2,0,1.8-0.3,2.1-1L297.9,229.4z M292.3,225.3h4.2c-0.1-1.5-0.7-2.4-2.1-2.4
		C293.1,222.9,292.4,223.8,292.3,225.3z"/>
	<path d="M306.7,229.4c-0.6,1-1.7,1.5-3.1,1.5c-2.5,0-3.9-1.6-3.9-4.1v-1.2c0-2.6,1.5-4,3.9-4c1.4,0,2.5,0.5,3.1,1.4l-1.1,0.8
		c-0.4-0.6-1.2-0.9-2-0.9c-1.5,0-2.4,1-2.4,2.7v1.2c0,1.5,0.7,2.8,2.4,2.8c0.8,0,1.6-0.3,2-1L306.7,229.4z"/>
	<path d="M307.3,221.8h1.2v-2h1.4v2h2.1v1.3h-2.1v4.6c0,1.2,0.1,1.8,1.4,1.8h0.7v1.4h-0.8c-2.1,0-2.7-0.9-2.7-2.8v-4.9h-1.2
		L307.3,221.8L307.3,221.8z"/>
</g>
<g>
	<rect x="180.3" y="273" class="st2" width="94.6" height="15.8"/>
	<path d="M180.4,285.5l4.3-12.4h1.4l4.3,12.4h-1.6l-1-2.8h-4.9l-1,2.8H180.4z M183.5,281.3h3.9l-2-5.8L183.5,281.3z"/>
	<path d="M198.3,284.1c-0.6,1-1.7,1.5-3.1,1.5c-2.5,0-3.9-1.6-3.9-4.1v-1.2c0-2.6,1.5-4,3.9-4c1.4,0,2.5,0.5,3.1,1.4l-1.1,0.8
		c-0.4-0.6-1.2-0.9-2-0.9c-1.5,0-2.4,1-2.4,2.7v1.2c0,1.5,0.7,2.8,2.4,2.8c0.8,0,1.6-0.3,2-1L198.3,284.1z"/>
	<path d="M206.3,284.1c-0.6,1-1.7,1.5-3.1,1.5c-2.5,0-3.9-1.6-3.9-4.1v-1.2c0-2.6,1.5-4,3.9-4c1.4,0,2.5,0.5,3.1,1.4l-1.1,0.8
		c-0.4-0.6-1.2-0.9-2-0.9c-1.5,0-2.4,1-2.4,2.7v1.2c0,1.5,0.7,2.8,2.4,2.8c0.8,0,1.6-0.3,2-1L206.3,284.1z"/>
	<path d="M214.3,284.1c-0.6,1.1-1.6,1.5-3.2,1.5c-2.4,0-3.9-1.6-3.9-4.1v-1.2c0-2.6,1.2-4,3.6-4s3.6,1.5,3.6,4v0.9h-5.7v0.3
		c0,1.5,0.7,2.8,2.3,2.8c1.2,0,1.8-0.3,2.1-1L214.3,284.1z M208.7,280h4.2c-0.1-1.5-0.7-2.4-2.1-2.4
		C209.5,277.6,208.8,278.5,208.7,280z"/>
	<path d="M220.4,276.3c2.2,0,3.6,1.5,3.6,4v1.2c0,2.3-1.2,4.1-3.6,4.1c-1.2,0-2-0.4-2.4-1v4.3h-1.4v-12.4h1.4v0.9
		C218.5,276.8,219.2,276.3,220.4,276.3z M222.6,281.5v-1.2c0-1.7-0.8-2.7-2.3-2.7c-1.4,0-2.3,1-2.3,2.6v1.3c0,1.5,0.6,2.8,2.3,2.8
		C221.8,284.3,222.6,283.1,222.6,281.5z"/>
	<path d="M225.1,276.5h1.2v-2h1.4v2h2.1v1.3h-2.1v4.6c0,1.2,0.1,1.8,1.4,1.8h0.7v1.4H229c-2.1,0-2.7-0.9-2.7-2.8v-4.9h-1.2V276.5z"
		/>
</g>
<g>
	<g>
		<line class="st0" x1="158" y1="169.5" x2="158" y2="188.3"/>
		<g>
			<polygon class="st1" points="158,209.5 145.8,179.7 158,186.7 170.2,179.7 			"/>
		</g>
	</g>
</g>
<g>
	<g>
		<path class="st0" d="M282.2,25.5H309c5.5,0,10,4.5,10,10v194c0,5.5-4.5,10-10,10h-48"/>
		<g>
			<polygon class="st1" points="261,25.5 290.8,37.7 283.8,25.5 290.8,13.3 			"/>
		</g>
	</g>
</g>
<g>
	<path class="st4" d="M261,260.3c0,3.6-4.5,6.6-10,6.6H65c-5.5,0-10-3-10-6.6v-44.2c0-3.6,4.5-6.6,10-6.6h186c5.5,0,10,3,10,6.6
		V260.3z"/>
</g>
<g>
	<path class="st4" d="M261,52.5c0,5.5-4.5,10-10,10H65c-5.5,0-10-4.5-10-10v-37c0-5.5,4.5-10,10-10h186c5.5,0,10,4.5,10,10V52.5z"/>
</g>
<g>
	<path class="st4" d="M261,159.5c0,5.5-4.5,10-10,10H65c-5.5,0-10-4.5-10-10v-50c0-5.5,4.5-10,10-10h186c5.5,0,10,4.5,10,10V159.5z"
		/>
</g>
<g>
	<path class="st4" d="M260,460.1c0,4-4.5,7.4-10,7.4H64c-5.5,0-10-3.3-10-7.4v-36.8c0-4,4.5-7.4,10-7.4h186c5.5,0,10,3.3,10,7.4
		V460.1z"/>
</g>
<g>
	<g>
		<path class="st0" d="M53,436.5H15c-5.5,0-10-4.5-10-10v-391c0-5.5,4.5-10,10-10h16.8"/>
		<g>
			<polygon class="st1" points="23.2,13.3 30.2,25.5 23.2,37.7 53,25.5 			"/>
		</g>
	</g>
</g>
<g>
	<rect x="62.6" y="104.2" class="st2" width="190.2" height="58.7"/>
	<path d="M95.2,106.9c-0.7-0.9-1.4-1.5-3-1.5c-1.4,0-2.4,0.6-2.4,1.9c0,1.5,1.1,2,2.9,2.3c2.4,0.4,3.9,1.3,3.9,3.6
		c0,1.6-1.1,3.5-4.2,3.5c-2,0-3.5-0.7-4.4-2l1.3-0.9c0.8,1,1.5,1.5,3.2,1.5c2,0,2.6-0.9,2.6-2c0-1.2-0.6-2-2.9-2.3
		c-2.3-0.4-3.9-1.5-3.9-3.6c0-1.8,1.2-3.3,4-3.3c2,0,3.2,0.7,4.1,2L95.2,106.9z"/>
	<path d="M105.7,112.7c0,2.3-1.2,4.1-3.7,4.1c-2.4,0-3.7-1.6-3.7-4.1v-1.2c0-2.6,1.4-4,3.7-4c2.4,0,3.7,1.5,3.7,4V112.7z
		 M104.3,112.7v-1.2c0-1.7-0.8-2.7-2.3-2.7c-1.5,0-2.3,1-2.3,2.7v1.2c0,1.5,0.6,2.8,2.3,2.8C103.5,115.4,104.3,114.2,104.3,112.7z"
		/>
	<path d="M107.6,104.2h1.4v9.3c0,1,0.1,1.8,1.5,1.8v1.3c-2.3,0-3-0.9-3-2.8V104.2z"/>
	<path d="M120.3,107.6l-3.6,9h-1.4l-3.7-9h1.6l2.7,7.2l2.7-7.2H120.3z"/>
	<path d="M128.2,115.2c-0.6,1.1-1.6,1.5-3.2,1.5c-2.4,0-3.9-1.6-3.9-4.1v-1.2c0-2.6,1.2-4,3.6-4c2.4,0,3.6,1.5,3.6,4v0.9h-5.7v0.3
		c0,1.5,0.7,2.8,2.3,2.8c1.2,0,1.8-0.3,2.1-1L128.2,115.2z M122.6,111.2h4.2c-0.1-1.5-0.7-2.4-2.1-2.4
		C123.4,108.7,122.7,109.7,122.6,111.2z"/>
	<path d="M137.5,111.2h1.8v-0.5c0-1-0.3-1.3-1.6-1.3c-0.9,0-1.3,0.1-1.7,0.7l-1.6-1.1c0.7-1.1,1.7-1.5,3.5-1.5
		c2.3,0,3.6,0.7,3.6,3.3v5.9h-2.3v-0.8c-0.4,0.6-0.9,1-1.9,1c-1.9,0-3.2-1-3.2-2.8C134.2,112,135.7,111.2,137.5,111.2z M139.3,112.9
		h-1.5c-0.9,0-1.4,0.3-1.4,1c0,0.7,0.5,1,1.3,1c1,0,1.5-0.5,1.5-1.7V112.9z"/>
	<path d="M151.2,112.7c0,2.3-1.2,4.1-3.5,4.1c-0.9,0-1.6-0.2-2-0.5v3.8h-2.3v-12.4h2.3v0.6c0.4-0.5,1.1-0.8,2-0.8
		c2.1,0,3.5,1.5,3.5,4V112.7z M148.9,112.5v-0.9c0-1.4-0.5-2.2-1.6-2.2c-1.1,0-1.6,0.7-1.6,2v1.1c0,1.3,0.3,2.3,1.6,2.3
		C148.6,114.8,148.9,113.8,148.9,112.5z"/>
	<path d="M160.5,112.7c0,2.3-1.2,4.1-3.5,4.1c-0.9,0-1.6-0.2-2-0.5v3.8h-2.3v-12.4h2.3v0.6c0.4-0.5,1.1-0.8,2-0.8
		c2.1,0,3.5,1.5,3.5,4V112.7z M158.2,112.5v-0.9c0-1.4-0.5-2.2-1.6-2.2c-1.1,0-1.6,0.7-1.6,2v1.1c0,1.3,0.3,2.3,1.6,2.3
		C157.9,114.8,158.2,113.8,158.2,112.5z"/>
	<path d="M166.9,110.1c-0.2-0.3-0.6-0.7-1.1-0.7c-0.9,0-1.4,0.6-1.4,1.9v5.3H162v-9h2.3v0.8c0.3-0.5,0.9-0.9,2-0.9
		c1.1,0,1.9,0.5,2.4,1.4L166.9,110.1z"/>
	<path d="M176.7,112.6c0,2.5-1.2,4.1-3.9,4.1c-2.6,0-3.9-1.6-3.9-4.1v-1.1c0-2.7,1.4-4.1,3.9-4.1c2.5,0,3.9,1.4,3.9,4.1V112.6z
		 M174.4,112.5v-0.9c0-1.4-0.5-2.2-1.6-2.2c-1.1,0-1.6,0.8-1.6,2.2v0.9c0,1.3,0.3,2.3,1.6,2.3C174.1,114.8,174.4,113.8,174.4,112.5z
		"/>
	<path d="M183,116.6l-1.7-2.7l-1.7,2.7H177l3-4.6l-2.7-4.4h2.5l1.5,2.6l1.5-2.6h2.5l-2.7,4.4l3,4.6H183z"/>
	<path d="M186.8,104.2h2.5v2.2h-2.5V104.2z M186.9,107.6h2.3v9h-2.3V107.6z"/>
	<path d="M198.7,116.6h-2.3v-5.3c0-1.4-0.6-1.9-1.4-1.9c-0.8,0-1.4,0.6-1.4,1.9v5.3h-2.3v-9h2.3v0.8c0.3-0.5,1-0.9,2-0.9
		c1.1,0,2,0.4,2.5,1.2c0.6-0.7,1.5-1.2,2.6-1.2c2,0,3.1,1.2,3.1,3.5v5.6h-2.3v-5.3c0-1.4-0.5-1.9-1.4-1.9c-0.8,0-1.4,0.6-1.4,1.9
		V116.6z"/>
	<path d="M208.5,111.2h1.8v-0.5c0-1-0.3-1.3-1.6-1.3c-0.9,0-1.3,0.1-1.7,0.7l-1.6-1.1c0.7-1.1,1.7-1.5,3.5-1.5
		c2.3,0,3.6,0.7,3.6,3.3v5.9h-2.3v-0.8c-0.4,0.6-0.9,1-1.9,1c-1.9,0-3.2-1-3.2-2.8C205.2,112,206.6,111.2,208.5,111.2z M210.3,112.9
		h-1.5c-0.9,0-1.4,0.3-1.4,1c0,0.7,0.5,1,1.3,1c1,0,1.5-0.5,1.5-1.7V112.9z"/>
	<path d="M213.7,107.6h1.2v-2h2.3v2h1.8v1.9h-1.8v3.8c0,0.9,0.2,1.3,1,1.3h0.7v2h-1c-2.2,0-3.1-0.6-3.1-2.9v-4.1h-1.2V107.6z"/>
	<path d="M227.3,115.2c-0.6,1.1-1.7,1.5-3.3,1.5c-2.7,0-4-1.7-4-4.1v-1.2c0-2.7,1.4-4,3.7-4c2.5,0,3.7,1.5,3.7,4.2v1h-5.1
		c0,1.2,0.4,2.1,1.7,2.1c1,0,1.3-0.3,1.6-0.8L227.3,115.2z M222.3,111h2.8c-0.1-1.2-0.5-1.7-1.4-1.7
		C222.8,109.4,222.4,110,222.3,111z"/>
	<path d="M76.8,131.1h5.3v-5.3h1.5v12.4h-1.5v-5.7h-5.3v5.7h-1.5v-12.4h1.5V131.1z"/>
	<path d="M89.3,133h2.1v-1c0-1.3-0.6-1.6-2-1.6c-1.1,0-1.7,0.1-2.2,0.9l-1.1-0.8c0.6-1,1.5-1.5,3.3-1.5c2.3,0,3.4,0.7,3.4,2.9v6.2
		h-1.4v-0.9c-0.5,0.8-1.1,1-2.3,1c-2.1,0-3.2-1-3.2-2.8C85.9,133.6,87.3,133,89.3,133z M91.4,134.2h-2.1c-1.4,0-1.9,0.5-1.9,1.4
		c0,1,0.7,1.4,1.8,1.4c1.3,0,2.3-0.3,2.3-2.3V134.2z"/>
	<path d="M95.2,129.2h1.4v0.9c0.4-0.6,1.1-1,2.2-1c1.2,0,2.1,0.5,2.6,1.4c0.6-1,1.6-1.4,2.7-1.4c1.9,0,3.1,1.2,3.1,3.5v5.6h-1.4
		v-5.6c0-1.6-0.8-2.2-1.9-2.2c-1.2,0-2,0.9-2,2.2v5.6h-1.4v-5.6c0-1.6-0.8-2.2-1.9-2.2c-1.2,0-2,1-2,2.2v5.6h-1.4V129.2z"/>
	<path d="M109.8,125.8h1.6v1.6h-1.6V125.8z M109.9,129.2h1.4v9h-1.4V129.2z"/>
	<path d="M114,125.8h1.4v9.3c0,1,0.1,1.8,1.5,1.8v1.3c-2.3,0-3-0.9-3-2.8V125.8z"/>
	<path d="M118.1,129.2h1.2v-2h1.4v2h2.1v1.3h-2.1v4.6c0,1.2,0.1,1.8,1.4,1.8h0.7v1.4H122c-2.1,0-2.7-0.9-2.7-2.8v-4.9h-1.2V129.2z"
		/>
	<path d="M131.6,134.3c0,2.3-1.2,4.1-3.7,4.1c-2.4,0-3.7-1.6-3.7-4.1v-1.2c0-2.6,1.4-4,3.7-4c2.4,0,3.7,1.5,3.7,4V134.3z
		 M130.2,134.3v-1.2c0-1.7-0.8-2.7-2.3-2.7c-1.5,0-2.3,1-2.3,2.7v1.2c0,1.5,0.6,2.8,2.3,2.8C129.4,137,130.2,135.8,130.2,134.3z"/>
	<path d="M133.5,129.2h1.4v0.9c0.5-0.7,1.1-1,2.4-1c1.9,0,3.3,1,3.3,3.5v5.6h-1.4v-5.6c0-1.8-1-2.2-2.1-2.2c-1.4,0-2.2,1-2.2,2.2
		v5.6h-1.4V129.2z"/>
	<path d="M143.2,125.8h1.6v1.6h-1.6V125.8z M143.2,129.2h1.4v9h-1.4V129.2z"/>
	<path d="M150.2,133h2.1v-1c0-1.3-0.6-1.6-2-1.6c-1.1,0-1.7,0.1-2.2,0.9l-1.1-0.8c0.6-1,1.5-1.5,3.3-1.5c2.3,0,3.4,0.7,3.4,2.9v6.2
		h-1.4v-0.9c-0.5,0.8-1.1,1-2.3,1c-2.1,0-3.2-1-3.2-2.8C146.8,133.6,148.2,133,150.2,133z M152.4,134.2h-2.1c-1.4,0-1.9,0.5-1.9,1.4
		c0,1,0.7,1.4,1.8,1.4c1.3,0,2.3-0.3,2.3-2.3V134.2z"/>
	<path d="M156.1,129.2h1.4v0.9c0.5-0.7,1.1-1,2.4-1c1.9,0,3.3,1,3.3,3.5v5.6h-1.4v-5.6c0-1.8-1-2.2-2.1-2.2c-1.4,0-2.2,1-2.2,2.2
		v5.6h-1.4V129.2z"/>
	<path d="M170.5,138.2v-12.4h4c2.8,0,4.5,1.5,4.5,5.6v1.3c0,4-1.7,5.6-4.5,5.6H170.5z M177.4,132.6v-1.3c0-3.1-1-4.2-3-4.2H172v9.6
		h2.4C176.3,136.8,177.4,135.7,177.4,132.6z"/>
	<path d="M183.5,138.3l-3.5-9.1h1.5l2.7,7l2.4-7h1.5l-3.2,9.3c-0.7,2.2-1.2,3.1-3.7,3.1v-1.4c1.2,0,1.7-0.2,2.3-1.8L183.5,138.3z"/>
	<path d="M189.4,129.2h1.4v0.9c0.5-0.7,1.1-1,2.4-1c1.9,0,3.3,1,3.3,3.5v5.6h-1.4v-5.6c0-1.8-1-2.2-2.1-2.2c-1.4,0-2.2,1-2.2,2.2
		v5.6h-1.4V129.2z"/>
	<path d="M201.8,133h2.1v-1c0-1.3-0.6-1.6-2-1.6c-1.1,0-1.7,0.1-2.2,0.9l-1.1-0.8c0.6-1,1.5-1.5,3.3-1.5c2.3,0,3.4,0.7,3.4,2.9v6.2
		h-1.4v-0.9c-0.5,0.8-1.1,1-2.3,1c-2.1,0-3.2-1-3.2-2.8C198.4,133.6,199.8,133,201.8,133z M203.9,134.2h-2.1c-1.4,0-1.9,0.5-1.9,1.4
		c0,1,0.7,1.4,1.8,1.4c1.3,0,2.3-0.3,2.3-2.3V134.2z"/>
	<path d="M207.7,129.2h1.4v0.9c0.4-0.6,1.1-1,2.2-1c1.2,0,2.1,0.5,2.6,1.4c0.6-1,1.6-1.4,2.7-1.4c1.9,0,3.1,1.2,3.1,3.5v5.6h-1.4
		v-5.6c0-1.6-0.8-2.2-1.9-2.2c-1.2,0-2,0.9-2,2.2v5.6H213v-5.6c0-1.6-0.8-2.2-1.9-2.2c-1.2,0-2,1-2,2.2v5.6h-1.4V129.2z"/>
	<path d="M222.3,125.8h1.6v1.6h-1.6V125.8z M222.4,129.2h1.4v9h-1.4V129.2z"/>
	<path d="M233,136.8c-0.6,1-1.7,1.5-3.1,1.5c-2.5,0-3.9-1.6-3.9-4.1v-1.2c0-2.6,1.5-4,3.9-4c1.4,0,2.5,0.5,3.1,1.4l-1.1,0.8
		c-0.4-0.6-1.2-0.9-2-0.9c-1.5,0-2.4,1-2.4,2.7v1.2c0,1.5,0.7,2.8,2.4,2.8c0.8,0,1.6-0.3,2-1L233,136.8z"/>
	<path d="M239.5,131.3c-0.5-0.6-1-0.9-2.2-0.9c-1.1,0-1.7,0.4-1.7,1.2c0,1,0.9,1.3,2.1,1.4c1.7,0.1,3.2,0.6,3.2,2.7
		c0,1.6-1.1,2.6-3.4,2.6c-1.8,0-2.8-0.6-3.5-1.5l1.1-0.8c0.5,0.6,1.1,0.9,2.4,0.9c1.2,0,1.9-0.5,1.9-1.3c0-1-0.6-1.3-2.3-1.4
		c-1.5-0.1-3-0.7-3-2.7c0-1.5,1.1-2.6,3.2-2.6c1.5,0,2.6,0.4,3.3,1.5L239.5,131.3z"/>
	<path d="M99.6,150.8v-0.6c0-1.9,0.6-2.8,2.7-2.8h0.4v1.4h-0.4c-1.2,0-1.4,0.5-1.4,1.8v0.3h1.7v1.3h-1.7v7.7h-1.4v-7.7h-1.2v-1.3
		H99.6z"/>
	<path d="M111.4,155.9c0,2.3-1.2,4.1-3.7,4.1c-2.4,0-3.7-1.6-3.7-4.1v-1.2c0-2.6,1.4-4,3.7-4c2.4,0,3.7,1.5,3.7,4V155.9z M110,155.9
		v-1.2c0-1.7-0.8-2.7-2.3-2.7c-1.5,0-2.3,1-2.3,2.7v1.2c0,1.5,0.6,2.8,2.3,2.8C109.2,158.6,110,157.4,110,155.9z"/>
	<path d="M118.2,152.7c-0.4-0.5-0.8-0.8-1.5-0.8c-1.1,0-1.9,0.8-1.9,2.2v5.6h-1.4v-9h1.4v0.9c0.4-0.6,1-1,2.1-1c1.2,0,2,0.4,2.6,1.2
		L118.2,152.7z"/>
	<path d="M124.9,150.8h1.4v0.9c0.5-0.7,1.1-1,2.4-1c1.9,0,3.3,1,3.3,3.5v5.6h-1.4v-5.6c0-1.8-1-2.2-2.1-2.2c-1.4,0-2.2,1-2.2,2.2
		v5.6h-1.4V150.8z"/>
	<path d="M138.1,150.8h1.2v-2h1.4v2h2.1v1.3h-2.1v4.6c0,1.2,0.1,1.8,1.4,1.8h0.7v1.4H142c-2.1,0-2.7-0.9-2.7-2.8v-4.9h-1.2V150.8z"
		/>
	<path d="M144.7,147.4h1.6v1.6h-1.6V147.4z M144.8,150.8h1.4v9h-1.4V150.8z"/>
	<path d="M148.9,150.8h1.4v0.9c0.4-0.6,1.1-1,2.2-1c1.2,0,2.1,0.5,2.6,1.4c0.6-1,1.6-1.4,2.7-1.4c1.9,0,3.1,1.2,3.1,3.5v5.6h-1.4
		v-5.6c0-1.6-0.8-2.2-1.9-2.2c-1.2,0-2,0.9-2,2.2v5.6h-1.4v-5.6c0-1.6-0.8-2.2-1.9-2.2c-1.2,0-2,1-2,2.2v5.6h-1.4V150.8z"/>
	<path d="M169.9,158.4c-0.6,1.1-1.6,1.5-3.2,1.5c-2.4,0-3.9-1.6-3.9-4.1v-1.2c0-2.6,1.2-4,3.6-4c2.4,0,3.6,1.5,3.6,4v0.9h-5.7v0.3
		c0,1.5,0.7,2.8,2.3,2.8c1.2,0,1.8-0.3,2.1-1L169.9,158.4z M164.3,154.4h4.2c-0.1-1.5-0.7-2.4-2.1-2.4
		C165,151.9,164.4,152.9,164.3,154.4z"/>
	<path d="M171.5,153.9h4.7v1.3h-4.7V153.9z"/>
	<path d="M182.9,152.9c-0.5-0.6-1-0.9-2.2-0.9c-1.1,0-1.7,0.4-1.7,1.2c0,1,0.9,1.3,2.1,1.4c1.7,0.1,3.2,0.6,3.2,2.7
		c0,1.6-1.1,2.6-3.4,2.6c-1.8,0-2.8-0.6-3.5-1.5l1.1-0.8c0.5,0.6,1.1,0.9,2.4,0.9c1.2,0,1.9-0.5,1.9-1.3c0-1-0.6-1.3-2.3-1.4
		c-1.5-0.1-3-0.7-3-2.7c0-1.5,1.1-2.6,3.2-2.6c1.5,0,2.6,0.4,3.3,1.5L182.9,152.9z"/>
	<path d="M185.4,150.8h1.2v-2h1.4v2h2.1v1.3H188v4.6c0,1.2,0.1,1.8,1.4,1.8h0.7v1.4h-0.8c-2.1,0-2.7-0.9-2.7-2.8v-4.9h-1.2V150.8z"
		/>
	<path d="M198.5,158.4c-0.6,1.1-1.6,1.5-3.2,1.5c-2.4,0-3.9-1.6-3.9-4.1v-1.2c0-2.6,1.2-4,3.6-4c2.4,0,3.6,1.5,3.6,4v0.9h-5.7v0.3
		c0,1.5,0.7,2.8,2.3,2.8c1.2,0,1.8-0.3,2.1-1L198.5,158.4z M192.9,154.4h4.2c-0.1-1.5-0.7-2.4-2.1-2.4
		C193.6,151.9,193,152.9,192.9,154.4z"/>
	<path d="M204.6,150.6c2.2,0,3.6,1.5,3.6,4v1.2c0,2.3-1.2,4.1-3.6,4.1c-1.2,0-2-0.4-2.4-1v4.3h-1.4v-12.4h1.4v0.9
		C202.6,151,203.4,150.6,204.6,150.6z M206.7,155.9v-1.2c0-1.7-0.8-2.7-2.3-2.7c-1.4,0-2.3,1-2.3,2.6v1.3c0,1.5,0.6,2.8,2.3,2.8
		C206,158.6,206.7,157.4,206.7,155.9z"/>
	<path d="M215.1,152.9c-0.5-0.6-1-0.9-2.2-0.9c-1.1,0-1.7,0.4-1.7,1.2c0,1,0.9,1.3,2.1,1.4c1.7,0.1,3.2,0.6,3.2,2.7
		c0,1.6-1.1,2.6-3.4,2.6c-1.8,0-2.8-0.6-3.5-1.5l1.1-0.8c0.5,0.6,1.1,0.9,2.4,0.9c1.2,0,1.9-0.5,1.9-1.3c0-1-0.6-1.3-2.3-1.4
		c-1.5-0.1-3-0.7-3-2.7c0-1.5,1.1-2.6,3.2-2.6c1.5,0,2.6,0.4,3.3,1.5L215.1,152.9z"/>
</g>
<g>
	<rect x="62.6" y="221.2" class="st2" width="190.2" height="58.7"/>
	<path d="M122.2,221.2v2.1H117v3.1h4.7v2.1H117v5.1h-2.5v-12.4H122.2z"/>
	<path d="M123.7,221.2h2.5v2.2h-2.5V221.2z M123.8,224.6h2.3v9h-2.3V224.6z"/>
	<path d="M128.2,221.2h2.3v9c0,1,0.3,1.4,1.3,1.4v2c-2.4,0-3.6-0.6-3.6-2.9V221.2z"/>
	<path d="M132.7,224.6h1.2v-2h2.3v2h1.8v1.9h-1.8v3.8c0,0.9,0.2,1.3,1,1.3h0.7v2h-1c-2.2,0-3.1-0.6-3.1-2.9v-4.1h-1.2V224.6z"/>
	<path d="M146.3,232.2c-0.6,1.1-1.7,1.5-3.3,1.5c-2.7,0-4-1.7-4-4.1v-1.2c0-2.7,1.4-4,3.7-4c2.5,0,3.7,1.5,3.7,4.2v1h-5.1
		c0,1.2,0.4,2.1,1.7,2.1c1,0,1.3-0.3,1.6-0.8L146.3,232.2z M141.3,228h2.8c-0.1-1.2-0.5-1.7-1.4-1.7
		C141.8,226.4,141.4,227,141.3,228z"/>
	<path d="M152.9,227.1c-0.2-0.3-0.6-0.7-1.1-0.7c-0.9,0-1.4,0.6-1.4,1.9v5.3h-2.3v-9h2.3v0.8c0.3-0.5,0.9-0.9,2-0.9
		c1.1,0,1.9,0.5,2.4,1.4L152.9,227.1z"/>
	<path d="M166.7,224.4c-0.5-0.8-1.2-1.3-2.4-1.3c-1.1,0-1.7,0.5-1.7,1.4c0,1,0.8,1.4,2.4,1.8c2.6,0.6,3.8,1.6,3.8,3.8
		c0,2-1.4,3.6-4.3,3.6c-2.2,0-3.7-0.6-4.8-2l1.9-1.3c0.7,0.8,1.4,1.2,2.7,1.2c1.4,0,1.9-0.6,1.9-1.4c0-0.9-0.5-1.3-2.5-1.9
		c-2.4-0.6-3.7-1.8-3.7-3.9c0-2,1.3-3.5,4.2-3.5c2,0,3.5,0.7,4.4,2L166.7,224.4z"/>
	<path d="M169.6,224.6h1.2v-2h2.3v2h1.8v1.9h-1.8v3.8c0,0.9,0.2,1.3,1,1.3h0.7v2h-1c-2.2,0-3.1-0.6-3.1-2.9v-4.1h-1.2V224.6z"/>
	<path d="M179.1,228.2h1.8v-0.5c0-1-0.3-1.3-1.6-1.3c-0.9,0-1.3,0.1-1.7,0.7l-1.6-1.1c0.7-1.1,1.7-1.5,3.5-1.5
		c2.3,0,3.6,0.7,3.6,3.3v5.9h-2.3v-0.8c-0.4,0.6-0.9,1-1.9,1c-1.9,0-3.2-1-3.2-2.8C175.8,229,177.2,228.2,179.1,228.2z M180.9,229.9
		h-1.5c-0.9,0-1.4,0.3-1.4,1c0,0.7,0.5,1,1.3,1c1,0,1.5-0.5,1.5-1.7V229.9z"/>
	<path d="M190.2,224.6h2.3v8.8c0,3-1.7,3.7-4,3.7c-1.7,0-2.7-0.4-3.5-1.6l1.5-1.1c0.4,0.5,0.9,0.8,1.8,0.8c1.4,0,1.9-0.4,1.9-1.8
		v-0.3c-0.5,0.4-1.1,0.6-1.9,0.6c-2.4,0-3.6-1.7-3.6-4.1v-1.2c0-2.6,1.4-4,3.6-4c0.8,0,1.4,0.2,1.9,0.6V224.6z M190.2,229.7v-1.1
		c0-1.4-0.5-2.2-1.6-2.2c-1.1,0-1.6,0.8-1.6,2.2v0.9c0,1.3,0.4,2.3,1.6,2.3C189.8,231.8,190.2,230.9,190.2,229.7z"/>
	<path d="M201.3,232.2c-0.6,1.1-1.7,1.5-3.3,1.5c-2.7,0-4-1.7-4-4.1v-1.2c0-2.7,1.4-4,3.7-4c2.5,0,3.7,1.5,3.7,4.2v1h-5.1
		c0,1.2,0.4,2.1,1.7,2.1c1,0,1.3-0.3,1.6-0.8L201.3,232.2z M196.3,228h2.8c-0.1-1.2-0.5-1.7-1.4-1.7
		C196.8,226.4,196.4,227,196.3,228z"/>
	<path d="M72.1,255.2l4.3-12.4h1.4l4.3,12.4h-1.6l-1-2.8h-4.9l-1,2.8H72.1z M75.2,250.9h3.9l-2-5.8L75.2,250.9z"/>
	<path d="M90,253.8c-0.6,1-1.7,1.5-3.1,1.5c-2.5,0-3.9-1.6-3.9-4.1v-1.2c0-2.6,1.5-4,3.9-4c1.4,0,2.5,0.5,3.1,1.4l-1.1,0.8
		c-0.4-0.6-1.2-0.9-2-0.9c-1.5,0-2.4,1-2.4,2.7v1.2c0,1.5,0.7,2.8,2.4,2.8c0.8,0,1.6-0.3,2-1L90,253.8z"/>
	<path d="M98,253.8c-0.6,1-1.7,1.5-3.1,1.5c-2.5,0-3.9-1.6-3.9-4.1v-1.2c0-2.6,1.5-4,3.9-4c1.4,0,2.5,0.5,3.1,1.4l-1.1,0.8
		c-0.4-0.6-1.2-0.9-2-0.9c-1.5,0-2.4,1-2.4,2.7v1.2c0,1.5,0.7,2.8,2.4,2.8c0.8,0,1.6-0.3,2-1L98,253.8z"/>
	<path d="M106,253.8c-0.6,1.1-1.6,1.5-3.2,1.5c-2.4,0-3.9-1.6-3.9-4.1v-1.2c0-2.6,1.2-4,3.6-4c2.4,0,3.6,1.5,3.6,4v0.9h-5.7v0.3
		c0,1.5,0.7,2.8,2.3,2.8c1.2,0,1.8-0.3,2.1-1L106,253.8z M100.4,249.8h4.2c-0.1-1.5-0.7-2.4-2.1-2.4
		C101.1,247.3,100.5,248.3,100.4,249.8z"/>
	<path d="M112.1,246c2.2,0,3.6,1.5,3.6,4v1.2c0,2.3-1.2,4.1-3.6,4.1c-1.2,0-2-0.4-2.4-1v4.3h-1.4v-12.4h1.4v0.9
		C110.1,246.4,110.9,246,112.1,246z M114.2,251.3v-1.2c0-1.7-0.8-2.7-2.3-2.7c-1.4,0-2.3,1-2.3,2.6v1.3c0,1.5,0.6,2.8,2.3,2.8
		C113.5,254,114.2,252.8,114.2,251.3z"/>
	<path d="M116.8,246.2h1.2v-2h1.4v2h2.1v1.3h-2.1v4.6c0,1.2,0.1,1.8,1.4,1.8h0.7v1.4h-0.8c-2.1,0-2.7-0.9-2.7-2.8v-4.9h-1.2V246.2z"
		/>
	<path d="M126.2,250h2.1v-1c0-1.3-0.6-1.6-2-1.6c-1.1,0-1.7,0.1-2.2,0.9l-1.1-0.8c0.6-1,1.5-1.5,3.3-1.5c2.3,0,3.4,0.7,3.4,2.9v6.2
		h-1.4v-0.9c-0.5,0.8-1.1,1-2.3,1c-2.1,0-3.2-1-3.2-2.8C122.8,250.6,124.2,250,126.2,250z M128.3,251.2h-2.1c-1.4,0-1.9,0.5-1.9,1.4
		c0,1,0.7,1.4,1.8,1.4c1.3,0,2.3-0.3,2.3-2.3V251.2z"/>
	<path d="M132.1,246.2h1.4v0.9c0.5-0.7,1.1-1,2.4-1c1.9,0,3.3,1,3.3,3.5v5.6h-1.4v-5.6c0-1.8-1-2.2-2.1-2.2c-1.4,0-2.2,1-2.2,2.2
		v5.6h-1.4V246.2z"/>
	<path d="M148.1,253.8c-0.6,1-1.7,1.5-3.1,1.5c-2.5,0-3.9-1.6-3.9-4.1v-1.2c0-2.6,1.5-4,3.9-4c1.4,0,2.5,0.5,3.1,1.4l-1.1,0.8
		c-0.4-0.6-1.2-0.9-2-0.9c-1.5,0-2.4,1-2.4,2.7v1.2c0,1.5,0.7,2.8,2.4,2.8c0.8,0,1.6-0.3,2-1L148.1,253.8z"/>
	<path d="M156.1,253.8c-0.6,1.1-1.6,1.5-3.2,1.5c-2.4,0-3.9-1.6-3.9-4.1v-1.2c0-2.6,1.2-4,3.6-4c2.4,0,3.6,1.5,3.6,4v0.9h-5.7v0.3
		c0,1.5,0.7,2.8,2.3,2.8c1.2,0,1.8-0.3,2.1-1L156.1,253.8z M150.5,249.8h4.2c-0.1-1.5-0.7-2.4-2.1-2.4
		C151.3,247.3,150.6,248.3,150.5,249.8z"/>
	<path d="M164.7,250.5v4.7h-1.5v-12.4h4c2.9,0,4.5,1.4,4.5,3.9c0,2.4-1.6,3.8-4.5,3.8H164.7z M167.1,249.1c2.1,0,3-0.9,3-2.4
		c0-1.5-0.9-2.4-3-2.4h-2.4v4.9H167.1z"/>
	<path d="M178.3,248.1c-0.4-0.5-0.8-0.8-1.5-0.8c-1.1,0-1.9,0.8-1.9,2.2v5.6h-1.4v-9h1.4v0.9c0.4-0.6,1-1,2.1-1c1.2,0,2,0.4,2.6,1.2
		L178.3,248.1z"/>
	<path d="M187.5,251.3c0,2.3-1.2,4.1-3.7,4.1c-2.4,0-3.7-1.6-3.7-4.1v-1.2c0-2.6,1.4-4,3.7-4c2.4,0,3.7,1.5,3.7,4V251.3z
		 M186.1,251.3v-1.2c0-1.7-0.8-2.7-2.3-2.7c-1.5,0-2.3,1-2.3,2.7v1.2c0,1.5,0.6,2.8,2.3,2.8C185.3,254,186.1,252.8,186.1,251.3z"/>
	<path d="M190.9,247.1c0.5-0.7,1.3-1,2.4-1c2.2,0,3.6,1.5,3.6,4v1.2c0,2.3-1.2,4.1-3.6,4.1c-1.2,0-2-0.3-2.4-0.9v0.8h-1.4v-12.4h1.4
		V247.1z M195.5,251.3v-1.2c0-1.7-0.8-2.7-2.3-2.7c-1.4,0-2.3,1-2.3,2.6v1.3c0,1.5,0.6,2.8,2.3,2.8
		C194.7,254,195.5,252.8,195.5,251.3z"/>
	<path d="M201.7,250h2.1v-1c0-1.3-0.6-1.6-2-1.6c-1.1,0-1.7,0.1-2.2,0.9l-1.1-0.8c0.6-1,1.5-1.5,3.3-1.5c2.3,0,3.4,0.7,3.4,2.9v6.2
		h-1.4v-0.9c-0.5,0.8-1.1,1-2.3,1c-2.1,0-3.2-1-3.2-2.8C198.3,250.6,199.7,250,201.7,250z M203.9,251.2h-2.1c-1.4,0-1.9,0.5-1.9,1.4
		c0,1,0.7,1.4,1.8,1.4c1.3,0,2.3-0.3,2.3-2.3V251.2z"/>
	<path d="M209.1,247.1c0.5-0.7,1.3-1,2.4-1c2.2,0,3.6,1.5,3.6,4v1.2c0,2.3-1.2,4.1-3.6,4.1c-1.2,0-2-0.3-2.4-0.9v0.8h-1.4v-12.4h1.4
		V247.1z M213.7,251.3v-1.2c0-1.7-0.8-2.7-2.3-2.7c-1.4,0-2.3,1-2.3,2.6v1.3c0,1.5,0.6,2.8,2.3,2.8
		C212.9,254,213.7,252.8,213.7,251.3z"/>
	<path d="M217.2,242.8h1.6v1.6h-1.6V242.8z M217.3,246.2h1.4v9h-1.4V246.2z"/>
	<path d="M221.3,242.8h1.4v9.3c0,1,0.1,1.8,1.5,1.8v1.3c-2.3,0-3-0.9-3-2.8V242.8z"/>
	<path d="M226.4,242.8h1.6v1.6h-1.6V242.8z M226.5,246.2h1.4v9h-1.4V246.2z"/>
	<path d="M229.8,246.2h1.2v-2h1.4v2h2.1v1.3h-2.1v4.6c0,1.2,0.1,1.8,1.4,1.8h0.7v1.4h-0.8c-2.1,0-2.7-0.9-2.7-2.8v-4.9h-1.2V246.2z"
		/>
	<path d="M238.7,255.3l-3.5-9.1h1.5l2.7,7l2.4-7h1.5l-3.2,9.3c-0.7,2.2-1.2,3.1-3.7,3.1v-1.4c1.2,0,1.7-0.2,2.3-1.8L238.7,255.3z"/>
</g>
<g>
	<path class="st4" d="M261,371.6c0,4.8-4.5,8.7-10,8.7H65c-5.5,0-10-3.9-10-8.7v-58.3c0-4.8,4.5-8.7,10-8.7h186c5.5,0,10,3.9,10,8.7
		V371.6z"/>
</g>
<g>
	<rect x="62.6" y="316.2" class="st2" width="190.2" height="58.7"/>
	<path d="M108.3,316.2v2.1h-5.2v3.1h4.7v2.1h-4.7v5.1h-2.5v-12.4H108.3z"/>
	<path d="M109.8,316.2h2.5v2.2h-2.5V316.2z M109.9,319.6h2.3v9h-2.3V319.6z"/>
	<path d="M114.3,319.6h2.3v0.8c0.3-0.5,1.1-0.9,2.1-0.9c1.8,0,3.3,0.9,3.3,3.5v5.6h-2.3v-5.3c0-1.4-0.5-1.9-1.4-1.9
		c-1.1,0-1.6,0.7-1.6,1.9v5.3h-2.3V319.6z"/>
	<path d="M130.7,327.2c-0.6,1.1-1.7,1.5-3.3,1.5c-2.7,0-4-1.7-4-4.1v-1.2c0-2.7,1.4-4,3.7-4c2.5,0,3.7,1.5,3.7,4.2v1h-5.1
		c0,1.2,0.4,2.1,1.7,2.1c1,0,1.3-0.3,1.6-0.8L130.7,327.2z M125.7,323h2.8c-0.1-1.2-0.5-1.7-1.4-1.7
		C126.2,321.4,125.8,322,125.7,323z"/>
	<path d="M146.3,322.1v1.1c0,3.8-1.8,5.5-4.6,5.5c-2.8,0-4.8-1.7-4.8-5.5v-1.6c0-4,2-5.7,4.8-5.7c2.6,0,4.2,1.5,4.6,4h-2.4
		c-0.2-1.1-0.9-1.9-2.1-1.9c-1.5,0-2.2,1-2.2,3.4v1.8c0,2.4,0.8,3.4,2.2,3.4c1.4,0,2-0.9,2.1-2.4h-2.1v-2.1H146.3z"/>
	<path d="M152.9,322.1c-0.2-0.3-0.6-0.7-1.1-0.7c-0.9,0-1.4,0.6-1.4,1.9v5.3H148v-9h2.3v0.8c0.3-0.5,0.9-0.9,2-0.9
		c1.1,0,1.9,0.5,2.4,1.4L152.9,322.1z"/>
	<path d="M155.6,316.2h2.5v2.2h-2.5V316.2z M155.7,319.6h2.3v9h-2.3V319.6z"/>
	<path d="M165.2,316.2h2.3v12.4h-2.3v-0.5c-0.5,0.4-1.1,0.7-1.9,0.7c-2.4,0-3.6-1.7-3.6-4.1v-1.2c0-2.6,1.4-4,3.6-4
		c0.8,0,1.4,0.2,1.9,0.6V316.2z M165.2,324.5v-1.1c0-1.3-0.5-2-1.6-2c-1.1,0-1.6,0.8-1.6,2.2v0.9c0,1.3,0.4,2.3,1.6,2.3
		C164.9,326.8,165.2,325.8,165.2,324.5z"/>
	<path d="M180.7,319.4c-0.5-0.8-1.2-1.3-2.4-1.3c-1.1,0-1.7,0.5-1.7,1.4c0,1,0.8,1.4,2.4,1.8c2.6,0.6,3.8,1.6,3.8,3.8
		c0,2-1.4,3.6-4.3,3.6c-2.2,0-3.7-0.6-4.8-2l1.9-1.3c0.7,0.8,1.4,1.2,2.7,1.2c1.4,0,1.9-0.6,1.9-1.4c0-0.9-0.5-1.3-2.5-1.9
		c-2.4-0.6-3.7-1.8-3.7-3.9c0-2,1.3-3.5,4.2-3.5c2,0,3.5,0.7,4.4,2L180.7,319.4z"/>
	<path d="M183.6,319.6h1.2v-2h2.3v2h1.8v1.9H187v3.8c0,0.9,0.2,1.3,1,1.3h0.7v2h-1c-2.2,0-3.1-0.6-3.1-2.9v-4.1h-1.2V319.6z"/>
	<path d="M193.1,323.2h1.8v-0.5c0-1-0.3-1.3-1.6-1.3c-0.9,0-1.3,0.1-1.7,0.7l-1.6-1.1c0.7-1.1,1.7-1.5,3.5-1.5
		c2.3,0,3.6,0.7,3.6,3.3v5.9h-2.3v-0.8c-0.4,0.6-0.9,1-1.9,1c-1.9,0-3.2-1-3.2-2.8C189.7,324,191.2,323.2,193.1,323.2z M194.9,324.9
		h-1.5c-0.9,0-1.4,0.3-1.4,1c0,0.7,0.5,1,1.3,1c1,0,1.5-0.5,1.5-1.7V324.9z"/>
	<path d="M204.1,319.6h2.3v8.8c0,3-1.7,3.7-4,3.7c-1.7,0-2.7-0.4-3.5-1.6l1.5-1.1c0.4,0.5,0.9,0.8,1.8,0.8c1.4,0,1.9-0.4,1.9-1.8
		v-0.3c-0.5,0.4-1.1,0.6-1.9,0.6c-2.4,0-3.6-1.7-3.6-4.1v-1.2c0-2.6,1.4-4,3.6-4c0.8,0,1.4,0.2,1.9,0.6V319.6z M204.1,324.7v-1.1
		c0-1.4-0.5-2.2-1.6-2.2s-1.6,0.8-1.6,2.2v0.9c0,1.3,0.4,2.3,1.6,2.3C203.7,326.8,204.1,325.9,204.1,324.7z"/>
	<path d="M215.2,327.2c-0.6,1.1-1.7,1.5-3.3,1.5c-2.7,0-4-1.7-4-4.1v-1.2c0-2.7,1.4-4,3.7-4c2.5,0,3.7,1.5,3.7,4.2v1h-5.1
		c0,1.2,0.4,2.1,1.7,2.1c1,0,1.3-0.3,1.6-0.8L215.2,327.2z M210.2,323h2.8c-0.1-1.2-0.5-1.7-1.4-1.7
		C210.7,321.4,210.3,322,210.2,323z"/>
	<path d="M115.3,350.2l4.3-12.4h1.4l4.3,12.4h-1.6l-1-2.8h-4.9l-1,2.8H115.3z M118.3,345.9h3.9l-2-5.8L118.3,345.9z"/>
	<path d="M133.1,348.8c-0.6,1-1.7,1.5-3.1,1.5c-2.5,0-3.9-1.6-3.9-4.1v-1.2c0-2.6,1.5-4,3.9-4c1.4,0,2.5,0.5,3.1,1.4l-1.1,0.8
		c-0.4-0.6-1.2-0.9-2-0.9c-1.5,0-2.4,1-2.4,2.7v1.2c0,1.5,0.7,2.8,2.4,2.8c0.8,0,1.6-0.3,2-1L133.1,348.8z"/>
	<path d="M141.1,348.8c-0.6,1-1.7,1.5-3.1,1.5c-2.5,0-3.9-1.6-3.9-4.1v-1.2c0-2.6,1.5-4,3.9-4c1.4,0,2.5,0.5,3.1,1.4l-1.1,0.8
		c-0.4-0.6-1.2-0.9-2-0.9c-1.5,0-2.4,1-2.4,2.7v1.2c0,1.5,0.7,2.8,2.4,2.8c0.8,0,1.6-0.3,2-1L141.1,348.8z"/>
	<path d="M149.1,348.8c-0.6,1.1-1.6,1.5-3.2,1.5c-2.4,0-3.9-1.6-3.9-4.1v-1.2c0-2.6,1.2-4,3.6-4c2.4,0,3.6,1.5,3.6,4v0.9h-5.7v0.3
		c0,1.5,0.7,2.8,2.3,2.8c1.2,0,1.8-0.3,2.1-1L149.1,348.8z M143.6,344.8h4.2c-0.1-1.5-0.7-2.4-2.1-2.4
		C144.3,342.3,143.6,343.3,143.6,344.8z"/>
	<path d="M155.2,341c2.2,0,3.6,1.5,3.6,4v1.2c0,2.3-1.2,4.1-3.6,4.1c-1.2,0-2-0.4-2.4-1v4.3h-1.4v-12.4h1.4v0.9
		C153.3,341.4,154.1,341,155.2,341z M157.4,346.3v-1.2c0-1.7-0.8-2.7-2.3-2.7c-1.4,0-2.3,1-2.3,2.6v1.3c0,1.5,0.6,2.8,2.3,2.8
		C156.6,349,157.4,347.8,157.4,346.3z"/>
	<path d="M159.9,341.2h1.2v-2h1.4v2h2.1v1.3h-2.1v4.6c0,1.2,0.1,1.8,1.4,1.8h0.7v1.4h-0.8c-2.1,0-2.7-0.9-2.7-2.8v-4.9h-1.2V341.2z"
		/>
	<path d="M169.3,345h2.1v-1c0-1.3-0.6-1.6-2-1.6c-1.1,0-1.7,0.1-2.2,0.9l-1.1-0.8c0.6-1,1.5-1.5,3.3-1.5c2.3,0,3.4,0.7,3.4,2.9v6.2
		h-1.4v-0.9c-0.5,0.8-1.1,1-2.3,1c-2.1,0-3.2-1-3.2-2.8C165.9,345.6,167.3,345,169.3,345z M171.5,346.2h-2.1c-1.4,0-1.9,0.5-1.9,1.4
		c0,1,0.7,1.4,1.8,1.4c1.3,0,2.3-0.3,2.3-2.3V346.2z"/>
	<path d="M175.2,341.2h1.4v0.9c0.5-0.7,1.1-1,2.4-1c1.9,0,3.3,1,3.3,3.5v5.6h-1.4v-5.6c0-1.8-1-2.2-2.1-2.2c-1.4,0-2.2,1-2.2,2.2
		v5.6h-1.4V341.2z"/>
	<path d="M191.3,348.8c-0.6,1-1.7,1.5-3.1,1.5c-2.5,0-3.9-1.6-3.9-4.1v-1.2c0-2.6,1.5-4,3.9-4c1.4,0,2.5,0.5,3.1,1.4l-1.1,0.8
		c-0.4-0.6-1.2-0.9-2-0.9c-1.5,0-2.4,1-2.4,2.7v1.2c0,1.5,0.7,2.8,2.4,2.8c0.8,0,1.6-0.3,2-1L191.3,348.8z"/>
	<path d="M199.3,348.8c-0.6,1.1-1.6,1.5-3.2,1.5c-2.4,0-3.9-1.6-3.9-4.1v-1.2c0-2.6,1.2-4,3.6-4c2.4,0,3.6,1.5,3.6,4v0.9h-5.7v0.3
		c0,1.5,0.7,2.8,2.3,2.8c1.2,0,1.8-0.3,2.1-1L199.3,348.8z M193.7,344.8h4.2c-0.1-1.5-0.7-2.4-2.1-2.4
		C194.4,342.3,193.8,343.3,193.7,344.8z"/>
	<path d="M119.9,367.1v4.7h-1.5v-12.4h4c2.9,0,4.5,1.4,4.5,3.9c0,2.4-1.6,3.8-4.5,3.8H119.9z M122.3,365.7c2.1,0,3-0.9,3-2.4
		c0-1.5-0.9-2.4-3-2.4h-2.4v4.9H122.3z"/>
	<path d="M133.4,364.7c-0.4-0.5-0.8-0.8-1.5-0.8c-1.1,0-1.9,0.8-1.9,2.2v5.6h-1.4v-9h1.4v0.9c0.4-0.6,1-1,2.1-1c1.2,0,2,0.4,2.6,1.2
		L133.4,364.7z"/>
	<path d="M142.7,367.9c0,2.3-1.2,4.1-3.7,4.1c-2.4,0-3.7-1.6-3.7-4.1v-1.2c0-2.6,1.4-4,3.7-4c2.4,0,3.7,1.5,3.7,4V367.9z
		 M141.2,367.9v-1.2c0-1.7-0.8-2.7-2.3-2.7c-1.5,0-2.3,1-2.3,2.7v1.2c0,1.5,0.6,2.8,2.3,2.8C140.5,370.6,141.2,369.4,141.2,367.9z"
		/>
	<path d="M146,363.7c0.5-0.7,1.3-1,2.4-1c2.2,0,3.6,1.5,3.6,4v1.2c0,2.3-1.2,4.1-3.6,4.1c-1.2,0-2-0.3-2.4-0.9v0.8h-1.4v-12.4h1.4
		V363.7z M150.6,367.9v-1.2c0-1.7-0.8-2.7-2.3-2.7c-1.4,0-2.3,1-2.3,2.6v1.3c0,1.5,0.6,2.8,2.3,2.8
		C149.8,370.6,150.6,369.4,150.6,367.9z"/>
	<path d="M156.9,366.6h2.1v-1c0-1.3-0.6-1.6-2-1.6c-1.1,0-1.7,0.1-2.2,0.9l-1.1-0.8c0.6-1,1.5-1.5,3.3-1.5c2.3,0,3.4,0.7,3.4,2.9
		v6.2H159v-0.9c-0.5,0.8-1.1,1-2.3,1c-2.1,0-3.2-1-3.2-2.8C153.5,367.2,154.9,366.6,156.9,366.6z M159,367.8h-2.1
		c-1.4,0-1.9,0.5-1.9,1.4c0,1,0.7,1.4,1.8,1.4c1.3,0,2.3-0.3,2.3-2.3V367.8z"/>
	<path d="M164.2,363.7c0.5-0.7,1.3-1,2.4-1c2.2,0,3.6,1.5,3.6,4v1.2c0,2.3-1.2,4.1-3.6,4.1c-1.2,0-2-0.3-2.4-0.9v0.8h-1.4v-12.4h1.4
		V363.7z M168.8,367.9v-1.2c0-1.7-0.8-2.7-2.3-2.7c-1.4,0-2.3,1-2.3,2.6v1.3c0,1.5,0.6,2.8,2.3,2.8
		C168,370.6,168.8,369.4,168.8,367.9z"/>
	<path d="M172.3,359.4h1.6v1.6h-1.6V359.4z M172.4,362.8h1.4v9h-1.4V362.8z"/>
	<path d="M176.5,359.4h1.4v9.3c0,1,0.1,1.8,1.5,1.8v1.3c-2.3,0-3-0.9-3-2.8V359.4z"/>
	<path d="M181.6,359.4h1.6v1.6h-1.6V359.4z M181.7,362.8h1.4v9h-1.4V362.8z"/>
	<path d="M184.9,362.8h1.2v-2h1.4v2h2.1v1.3h-2.1v4.6c0,1.2,0.1,1.8,1.4,1.8h0.7v1.4h-0.8c-2.1,0-2.7-0.9-2.7-2.8v-4.9h-1.2V362.8z"
		/>
	<path d="M193.8,371.9l-3.5-9.1h1.5l2.7,7l2.4-7h1.5l-3.2,9.3c-0.7,2.2-1.2,3.1-3.7,3.1v-1.4c1.2,0,1.7-0.2,2.3-1.8L193.8,371.9z"/>
</g>
<g>
	<rect x="180.3" y="387" class="st2" width="94.6" height="15.8"/>
	<path d="M180.4,399.5l4.3-12.4h1.4l4.3,12.4h-1.6l-1-2.8h-4.9l-1,2.8H180.4z M183.5,395.3h3.9l-2-5.8L183.5,395.3z"/>
	<path d="M198.3,398.1c-0.6,1-1.7,1.5-3.1,1.5c-2.5,0-3.9-1.6-3.9-4.1v-1.2c0-2.6,1.5-4,3.9-4c1.4,0,2.5,0.5,3.1,1.4l-1.1,0.8
		c-0.4-0.6-1.2-0.9-2-0.9c-1.5,0-2.4,1-2.4,2.7v1.2c0,1.5,0.7,2.8,2.4,2.8c0.8,0,1.6-0.3,2-1L198.3,398.1z"/>
	<path d="M206.3,398.1c-0.6,1-1.7,1.5-3.1,1.5c-2.5,0-3.9-1.6-3.9-4.1v-1.2c0-2.6,1.5-4,3.9-4c1.4,0,2.5,0.5,3.1,1.4l-1.1,0.8
		c-0.4-0.6-1.2-0.9-2-0.9c-1.5,0-2.4,1-2.4,2.7v1.2c0,1.5,0.7,2.8,2.4,2.8c0.8,0,1.6-0.3,2-1L206.3,398.1z"/>
	<path d="M214.3,398.1c-0.6,1.1-1.6,1.5-3.2,1.5c-2.4,0-3.9-1.6-3.9-4.1v-1.2c0-2.6,1.2-4,3.6-4s3.6,1.5,3.6,4v0.9h-5.7v0.3
		c0,1.5,0.7,2.8,2.3,2.8c1.2,0,1.8-0.3,2.1-1L214.3,398.1z M208.7,394h4.2c-0.1-1.5-0.7-2.4-2.1-2.4
		C209.5,391.6,208.8,392.5,208.7,394z"/>
	<path d="M220.4,390.3c2.2,0,3.6,1.5,3.6,4v1.2c0,2.3-1.2,4.1-3.6,4.1c-1.2,0-2-0.4-2.4-1v4.3h-1.4v-12.4h1.4v0.9
		C218.5,390.8,219.2,390.3,220.4,390.3z M222.6,395.5v-1.2c0-1.7-0.8-2.7-2.3-2.7c-1.4,0-2.3,1-2.3,2.6v1.3c0,1.5,0.6,2.8,2.3,2.8
		C221.8,398.3,222.6,397.1,222.6,395.5z"/>
	<path d="M225.1,390.5h1.2v-2h1.4v2h2.1v1.3h-2.1v4.6c0,1.2,0.1,1.8,1.4,1.8h0.7v1.4H229c-2.1,0-2.7-0.9-2.7-2.8v-4.9h-1.2V390.5z"
		/>
</g>
<g>
	<polygon class="st2" points="266.4,325.3 361,365.3 361,381.1 266.4,341.1 	"/>
	<path d="M275,337.8l-2.6-5.2h-2.9v5.2H268v-12.4h4c2.9,0,4.5,1.2,4.5,3.6c0,1.7-0.9,2.8-2.4,3.3l2.8,5.5H275z M271.8,331.1
		c2.1,0,3-0.6,3-2.2c0-1.5-0.9-2.2-3-2.2h-2.4v4.4L271.8,331.1L271.8,331.1z"/>
	<path d="M284.9,336.4c-0.6,1.1-1.6,1.5-3.2,1.5c-2.4,0-3.9-1.6-3.9-4.1v-1.2c0-2.6,1.2-4,3.6-4c2.4,0,3.6,1.5,3.6,4v0.9h-5.7v0.3
		c0,1.5,0.7,2.8,2.3,2.8c1.2,0,1.8-0.3,2.1-1L284.9,336.4z M279.3,332.3h4.2c-0.1-1.5-0.7-2.4-2.1-2.4
		C280.1,329.9,279.4,330.8,279.3,332.3z"/>
	<path d="M288.9,338.4c0,1.9-0.7,2.8-3,2.8v-1.3c1.5,0,1.5-0.8,1.5-1.8v-9.3h1.4L288.9,338.4L288.9,338.4z M287.4,325.3h1.6v1.6
		h-1.6V325.3z"/>
	<path d="M297.9,336.4c-0.6,1.1-1.6,1.5-3.2,1.5c-2.4,0-3.9-1.6-3.9-4.1v-1.2c0-2.6,1.2-4,3.6-4c2.4,0,3.6,1.5,3.6,4v0.9h-5.7v0.3
		c0,1.5,0.7,2.8,2.3,2.8c1.2,0,1.8-0.3,2.1-1L297.9,336.4z M292.3,332.3h4.2c-0.1-1.5-0.7-2.4-2.1-2.4
		C293.1,329.9,292.4,330.8,292.3,332.3z"/>
	<path d="M306.7,336.4c-0.6,1-1.7,1.5-3.1,1.5c-2.5,0-3.9-1.6-3.9-4.1v-1.2c0-2.6,1.5-4,3.9-4c1.4,0,2.5,0.5,3.1,1.4l-1.1,0.8
		c-0.4-0.6-1.2-0.9-2-0.9c-1.5,0-2.4,1-2.4,2.7v1.2c0,1.5,0.7,2.8,2.4,2.8c0.8,0,1.6-0.3,2-1L306.7,336.4z"/>
	<path d="M307.3,328.8h1.2v-2h1.4v2h2.1v1.3h-2.1v4.6c0,1.2,0.1,1.8,1.4,1.8h0.7v1.4h-0.8c-2.1,0-2.7-0.9-2.7-2.8v-4.9h-1.2
		L307.3,328.8L307.3,328.8z"/>
</g>
</svg>
