<?xml version="1.0" encoding="utf-8"?>
<!-- Generator: Adobe Illustrator 24.3.0, SVG Export Plug-In . SVG Version: 6.00 Build 0)  -->
<svg version="1.1" id="Layer_1" xmlns="http://www.w3.org/2000/svg" xmlns:xlink="http://www.w3.org/1999/xlink" x="0px" y="0px"
	 viewBox="0 0 324.8 470.7" style="enable-background:new 0 0 324.8 470.7;" xml:space="preserve">
<style type="text/css">
	.st0{fill:none;stroke:#808080;stroke-width:3;stroke-miterlimit:10;}
	.st1{fill:#808080;}
	.st2{fill:none;}
	.st3{fill:#FFFFFF;stroke:#808080;stroke-width:3;stroke-miterlimit:10;}
	.st4{fill:none;stroke:#E36F1E;stroke-width:3;stroke-miterlimit:10;}
</style>
<g>
	<g>
		<line class="st0" x1="158" y1="338.5" x2="158" y2="377.3"/>
		<g>
			<polygon class="st1" points="158,398.5 145.8,368.7 158,375.7 170.2,368.7 			"/>
		</g>
	</g>
</g>
<g>
	<g>
		<line class="st0" x1="158" y1="62.5" x2="158" y2="101.3"/>
		<g>
			<polygon class="st1" points="158,122.5 145.8,92.7 158,99.7 170.2,92.7 			"/>
		</g>
	</g>
</g>
<g>
	<rect x="72.9" y="18.2" class="st2" width="171.6" height="37.8"/>
	<path d="M103.4,24.4v0.7c0,4-1.8,5.7-4.6,5.7s-4.5-1.7-4.5-5.7v-1.4c0-4,1.7-5.7,4.5-5.7c2.4,0,4.1,1.3,4.5,4h-1.5
		c-0.4-1.9-1.4-2.6-3-2.6c-1.9,0-3,1.2-3,4.3v1.4c0,3.1,1,4.3,3,4.3c1.7,0,2.8-1,3-3.6h-3v-1.4C98.8,24.4,103.4,24.4,103.4,24.4z"/>
	<path d="M112,29.3c-0.6,1.1-1.6,1.5-3.2,1.5c-2.4,0-3.9-1.6-3.9-4.1v-1.2c0-2.6,1.2-4,3.6-4s3.6,1.5,3.6,4v0.9h-5.6v0.3
		c0,1.5,0.7,2.8,2.3,2.8c1.2,0,1.8-0.3,2.1-1L112,29.3z M106.5,25.2h4.2c-0.1-1.5-0.7-2.4-2.1-2.4C107.2,22.8,106.6,23.7,106.5,25.2
		z"/>
	<path d="M114.3,21.6h1.4v0.9c0.5-0.7,1.1-1,2.4-1c1.9,0,3.3,1,3.3,3.5v5.6H120V25c0-1.8-1-2.2-2.1-2.2c-1.4,0-2.2,1-2.2,2.2v5.6
		h-1.4L114.3,21.6L114.3,21.6z"/>
	<path d="M130.3,29.3c-0.6,1.1-1.6,1.5-3.2,1.5c-2.4,0-3.9-1.6-3.9-4.1v-1.2c0-2.6,1.2-4,3.6-4c2.4,0,3.6,1.5,3.6,4v0.9h-5.7v0.3
		c0,1.5,0.7,2.8,2.3,2.8c1.2,0,1.8-0.3,2.1-1L130.3,29.3z M124.7,25.2h4.2c-0.1-1.5-0.7-2.4-2.1-2.4
		C125.5,22.8,124.8,23.7,124.7,25.2z"/>
	<path d="M137.4,23.6c-0.4-0.5-0.8-0.8-1.5-0.8c-1.1,0-1.9,0.8-1.9,2.2v5.6h-1.5v-9h1.4v0.9c0.4-0.6,1-1,2.1-1c1.2,0,2,0.4,2.6,1.2
		L137.4,23.6z"/>
	<path d="M142.3,25.4h2.1v-1c0-1.3-0.6-1.6-2-1.6c-1.1,0-1.7,0.1-2.2,0.9l-1.1-0.8c0.6-1,1.5-1.5,3.3-1.5c2.3,0,3.4,0.7,3.4,2.9v6.2
		h-1.3v-0.9c-0.5,0.8-1.1,1-2.3,1c-2.1,0-3.2-1-3.2-2.8C139,26.1,140.4,25.4,142.3,25.4z M144.5,26.7h-2.1c-1.4,0-1.9,0.5-1.9,1.4
		c0,1,0.7,1.4,1.8,1.4c1.3,0,2.3-0.3,2.3-2.3L144.5,26.7L144.5,26.7z"/>
	<path d="M147.5,21.6h1.2v-2h1.4v2h2.1v1.3h-2.1v4.6c0,1.2,0.1,1.8,1.4,1.8h0.7v1.4h-0.8c-2.1,0-2.7-0.9-2.7-2.8V23h-1.2V21.6z"/>
	<path d="M160.5,29.3c-0.6,1.1-1.6,1.5-3.2,1.5c-2.4,0-3.9-1.6-3.9-4.1v-1.2c0-2.6,1.2-4,3.6-4s3.6,1.5,3.6,4v0.9h-5.7v0.3
		c0,1.5,0.7,2.8,2.3,2.8c1.2,0,1.8-0.3,2.1-1L160.5,29.3z M154.9,25.2h4.2c-0.1-1.5-0.7-2.4-2.1-2.4C155.7,22.8,155,23.7,154.9,25.2
		z"/>
	<path d="M172.1,23.6c-0.4-0.5-0.8-0.8-1.5-0.8c-1.1,0-1.9,0.8-1.9,2.2v5.6h-1.4v-9h1.4v0.9c0.4-0.6,1-1,2.1-1c1.2,0,2,0.4,2.6,1.2
		L172.1,23.6z"/>
	<path d="M177,25.4h2.1v-1c0-1.3-0.6-1.6-2-1.6c-1.1,0-1.7,0.1-2.2,0.9l-1.1-0.8c0.6-1,1.5-1.5,3.3-1.5c2.3,0,3.4,0.7,3.4,2.9v6.2
		h-1.4v-0.9c-0.5,0.8-1.1,1-2.3,1c-2.1,0-3.2-1-3.2-2.8C173.7,26.1,175.1,25.4,177,25.4z M179.2,26.7h-2.1c-1.4,0-1.9,0.5-1.9,1.4
		c0,1,0.7,1.4,1.8,1.4c1.3,0,2.3-0.3,2.3-2.3L179.2,26.7L179.2,26.7z"/>
	<path d="M183,21.6h1.4v0.9c0.5-0.7,1.1-1,2.4-1c1.9,0,3.3,1,3.3,3.5v5.6h-1.4V25c0-1.8-1-2.2-2.1-2.2c-1.4,0-2.2,1-2.2,2.2v5.6H183
		L183,21.6L183,21.6z"/>
	<path d="M198,18.2h1.4v12.4H198v-0.8c-0.5,0.6-1.3,0.9-2.4,0.9c-2.4,0-3.6-1.7-3.6-4.1v-1.2c0-2.6,1.4-4,3.6-4c1.2,0,2,0.4,2.4,1
		V18.2z M198,26.8v-1.3c0-1.7-0.8-2.7-2.3-2.7s-2.3,1-2.3,2.7v1.2c0,1.5,0.8,2.8,2.3,2.8C197.3,29.5,198,28.3,198,26.8z"/>
	<path d="M208.8,26.7c0,2.3-1.2,4.1-3.7,4.1c-2.4,0-3.7-1.6-3.7-4.1v-1.2c0-2.6,1.4-4,3.7-4c2.4,0,3.7,1.5,3.7,4V26.7z M207.4,26.7
		v-1.2c0-1.7-0.8-2.7-2.3-2.7s-2.3,1-2.3,2.7v1.2c0,1.5,0.6,2.8,2.3,2.8C206.6,29.5,207.4,28.2,207.4,26.7z"/>
	<path d="M210.7,21.6h1.4v0.9c0.4-0.6,1.1-1,2.2-1c1.2,0,2.1,0.5,2.6,1.4c0.6-1,1.6-1.4,2.7-1.4c1.9,0,3.1,1.2,3.1,3.5v5.6h-1.4V25
		c0-1.6-0.8-2.2-1.9-2.2c-1.2,0-2,0.9-2,2.2v5.6H216V25c0-1.6-0.8-2.2-1.9-2.2c-1.2,0-2,1-2,2.2v5.6h-1.4L210.7,21.6L210.7,21.6z"/>
	<path d="M117.1,43.2h1.4v0.9c0.4-0.6,1.1-1,2.2-1c1.2,0,2.1,0.5,2.6,1.4c0.6-1,1.6-1.4,2.7-1.4c1.9,0,3.1,1.2,3.1,3.5v5.6h-1.4
		v-5.6c0-1.6-0.8-2.2-1.9-2.2c-1.2,0-2,0.9-2,2.2v5.6h-1.4v-5.6c0-1.6-0.8-2.2-1.9-2.2c-1.2,0-2,1-2,2.2v5.6h-1.4L117.1,43.2
		L117.1,43.2z"/>
	<path d="M138.5,48.3c0,2.3-1.2,4.1-3.7,4.1c-2.4,0-3.7-1.6-3.7-4.1v-1.2c0-2.6,1.4-4,3.7-4c2.4,0,3.7,1.5,3.7,4V48.3z M137.1,48.3
		v-1.2c0-1.7-0.8-2.7-2.3-2.7s-2.3,1-2.3,2.7v1.2c0,1.5,0.6,2.8,2.3,2.8C136.3,51.1,137.1,49.8,137.1,48.3z"/>
	<path d="M140.4,43.2h1.4v0.9c0.4-0.6,1.1-1,2.2-1c1.2,0,2.1,0.5,2.6,1.4c0.6-1,1.6-1.4,2.7-1.4c1.9,0,3.1,1.2,3.1,3.5v5.6H151v-5.6
		c0-1.6-0.8-2.2-1.9-2.2c-1.2,0-2,0.9-2,2.2v5.6h-1.4v-5.6c0-1.6-0.8-2.2-1.9-2.2c-1.2,0-2,1-2,2.2v5.6h-1.4L140.4,43.2L140.4,43.2z
		"/>
	<path d="M161.4,50.9c-0.6,1.1-1.6,1.5-3.2,1.5c-2.4,0-3.9-1.6-3.9-4.1v-1.2c0-2.6,1.2-4,3.6-4s3.6,1.5,3.6,4V48h-5.7v0.3
		c0,1.5,0.7,2.8,2.3,2.8c1.2,0,1.8-0.3,2.1-1L161.4,50.9z M155.9,46.8h4.2c-0.1-1.5-0.7-2.4-2.1-2.4C156.6,44.4,156,45.3,155.9,46.8
		z"/>
	<path d="M163.7,43.2h1.4v0.9c0.5-0.7,1.1-1,2.4-1c1.9,0,3.3,1,3.3,3.5v5.6h-1.4v-5.6c0-1.8-1-2.2-2.1-2.2c-1.4,0-2.2,1-2.2,2.2v5.6
		h-1.4L163.7,43.2L163.7,43.2z"/>
	<path d="M172.3,43.2h1.2v-2h1.4v2h2.1v1.3h-2.1v4.6c0,1.2,0.1,1.8,1.4,1.8h0.7v1.4h-0.8c-2.1,0-2.7-0.9-2.7-2.8v-4.9h-1.2V43.2z"/>
	<path d="M185.9,52.2h-1.4v-0.9c-0.5,0.7-1.1,1-2.4,1c-1.9,0-3.3-1-3.3-3.5v-5.6h1.4v5.6c0,1.8,1,2.2,2.1,2.2c1.4,0,2.2-1,2.2-2.2
		v-5.6h1.4L185.9,52.2L185.9,52.2z"/>
	<path d="M188.3,43.2h1.4v0.9c0.4-0.6,1.1-1,2.2-1c1.2,0,2.1,0.5,2.6,1.4c0.6-1,1.6-1.4,2.7-1.4c1.9,0,3.1,1.2,3.1,3.5v5.6h-1.4
		v-5.6c0-1.6-0.8-2.2-1.9-2.2c-1.2,0-2,0.9-2,2.2v5.6h-1.4v-5.6c0-1.6-0.8-2.2-1.9-2.2c-1.2,0-2,1-2,2.2v5.6h-1.4L188.3,43.2
		L188.3,43.2z"/>
</g>
<g>
	<rect x="71.9" y="129" class="st2" width="171.6" height="65.7"/>
	<path d="M97.1,131.8c-0.7-0.9-1.4-1.5-3-1.5c-1.4,0-2.4,0.6-2.4,1.9c0,1.5,1.1,2,2.9,2.3c2.4,0.4,3.9,1.3,3.9,3.6
		c0,1.6-1.1,3.5-4.2,3.5c-2,0-3.5-0.7-4.4-2l1.3-0.9c0.8,1,1.5,1.5,3.2,1.5c2,0,2.6-0.9,2.6-2c0-1.2-0.6-2-2.9-2.3
		c-2.3-0.4-3.9-1.5-3.9-3.6c0-1.8,1.2-3.3,4-3.3c2,0,3.2,0.7,4.1,2L97.1,131.8z"/>
	<path d="M107.6,137.5c0,2.3-1.2,4.1-3.7,4.1c-2.4,0-3.7-1.6-3.7-4.1v-1.2c0-2.6,1.4-4,3.7-4c2.4,0,3.7,1.5,3.7,4V137.5z
		 M106.2,137.5v-1.2c0-1.7-0.8-2.7-2.3-2.7s-2.3,1-2.3,2.7v1.2c0,1.5,0.6,2.8,2.3,2.8C105.4,140.3,106.2,139,106.2,137.5z"/>
	<path d="M109.5,129h1.4v9.3c0,1,0.1,1.8,1.5,1.8v1.3c-2.3,0-3-0.9-3-2.8V129H109.5z"/>
	<path d="M122.1,132.4l-3.6,9h-1.4l-3.7-9h1.6l2.7,7.2l2.7-7.2H122.1z"/>
	<path d="M130.1,140.1c-0.6,1.1-1.6,1.5-3.2,1.5c-2.4,0-3.9-1.6-3.9-4.1v-1.2c0-2.6,1.2-4,3.6-4c2.4,0,3.6,1.5,3.6,4v0.9h-5.7v0.3
		c0,1.5,0.7,2.8,2.3,2.8c1.2,0,1.8-0.3,2.1-1L130.1,140.1z M124.5,136h4.2c-0.1-1.5-0.7-2.4-2.1-2.4S124.6,134.5,124.5,136z"/>
	<path d="M138.7,134.3h5.3V129h1.5v12.4H144v-5.7h-5.3v5.7h-1.5V129h1.5V134.3z"/>
	<path d="M151.2,136.2h2.1v-1c0-1.3-0.6-1.6-2-1.6c-1.1,0-1.7,0.1-2.2,0.9l-1.1-0.8c0.6-1,1.5-1.5,3.3-1.5c2.3,0,3.4,0.7,3.4,2.9
		v6.2h-1.4v-0.9c-0.5,0.8-1.1,1-2.3,1c-2.1,0-3.2-1-3.2-2.8C147.8,136.8,149.2,136.2,151.2,136.2z M153.3,137.4h-2.1
		c-1.4,0-1.9,0.5-1.9,1.4c0,1,0.7,1.4,1.8,1.4c1.3,0,2.3-0.3,2.3-2.3L153.3,137.4L153.3,137.4z"/>
	<path d="M157.1,132.4h1.4v0.9c0.4-0.6,1.1-1,2.2-1c1.2,0,2.1,0.5,2.6,1.4c0.6-1,1.6-1.4,2.7-1.4c1.9,0,3.1,1.2,3.1,3.5v5.6h-1.4
		v-5.6c0-1.6-0.8-2.2-1.9-2.2c-1.2,0-2,0.9-2,2.2v5.6h-1.4v-5.6c0-1.6-0.8-2.2-1.9-2.2c-1.2,0-2,1-2,2.2v5.6h-1.4L157.1,132.4
		L157.1,132.4z"/>
	<path d="M171.7,129h1.6v1.6h-1.6V129z M171.8,132.4h1.4v9h-1.4V132.4z"/>
	<path d="M175.9,129h1.4v9.3c0,1,0.1,1.8,1.5,1.8v1.3c-2.3,0-3-0.9-3-2.8V129H175.9z"/>
	<path d="M180,132.4h1.2v-2h1.4v2h2.1v1.3h-2.1v4.6c0,1.2,0.1,1.8,1.4,1.8h0.7v1.4h-0.8c-2.1,0-2.7-0.9-2.7-2.8v-4.9H180V132.4z"/>
	<path d="M193.5,137.5c0,2.3-1.2,4.1-3.7,4.1c-2.4,0-3.7-1.6-3.7-4.1v-1.2c0-2.6,1.4-4,3.7-4c2.4,0,3.7,1.5,3.7,4V137.5z
		 M192.1,137.5v-1.2c0-1.7-0.8-2.7-2.3-2.7s-2.3,1-2.3,2.7v1.2c0,1.5,0.6,2.8,2.3,2.8C191.3,140.3,192.1,139,192.1,137.5z"/>
	<path d="M195.4,132.4h1.4v0.9c0.5-0.7,1.1-1,2.4-1c1.9,0,3.3,1,3.3,3.5v5.6h-1.4v-5.6c0-1.8-1-2.2-2.1-2.2c-1.4,0-2.2,1-2.2,2.2
		v5.6h-1.4L195.4,132.4L195.4,132.4z"/>
	<path d="M205,129h1.6v1.6H205V129z M205.1,132.4h1.4v9h-1.4V132.4z"/>
	<path d="M212.1,136.2h2.1v-1c0-1.3-0.6-1.6-2-1.6c-1.1,0-1.7,0.1-2.2,0.9l-1.1-0.8c0.6-1,1.5-1.5,3.3-1.5c2.3,0,3.4,0.7,3.4,2.9
		v6.2h-1.4v-0.9c-0.5,0.8-1.1,1-2.3,1c-2.1,0-3.2-1-3.2-2.8C208.7,136.8,210.1,136.2,212.1,136.2z M214.2,137.4h-2.1
		c-1.4,0-1.9,0.5-1.9,1.4c0,1,0.7,1.4,1.8,1.4c1.3,0,2.3-0.3,2.3-2.3L214.2,137.4L214.2,137.4z"/>
	<path d="M218,132.4h1.4v0.9c0.5-0.7,1.1-1,2.4-1c1.9,0,3.3,1,3.3,3.5v5.6h-1.4v-5.6c0-1.8-1-2.2-2.1-2.2c-1.4,0-2.2,1-2.2,2.2v5.6
		H218L218,132.4L218,132.4z"/>
	<path d="M79.1,163v-12.4h4c2.8,0,4.5,1.5,4.5,5.6v1.3c0,4-1.7,5.6-4.5,5.6h-4V163z M86,157.5v-1.3c0-3.1-1-4.2-3-4.2h-2.4v9.6H83
		C85,161.6,86,160.5,86,157.5z"/>
	<path d="M92.1,163.1l-3.5-9.1h1.5l2.7,7l2.4-7h1.5l-3.2,9.3c-0.7,2.2-1.2,3.1-3.7,3.1V165C91,165,91.5,164.8,92.1,163.1L92.1,163.1
		z"/>
	<path d="M98,154h1.4v0.9c0.5-0.7,1.1-1,2.4-1c1.9,0,3.3,1,3.3,3.5v5.6h-1.4v-5.6c0-1.8-1-2.2-2.1-2.2c-1.4,0-2.2,1-2.2,2.2v5.6H98
		L98,154L98,154z"/>
	<path d="M110.4,157.8h2.1v-1c0-1.3-0.6-1.6-2-1.6c-1.1,0-1.7,0.1-2.2,0.9l-1.1-0.8c0.6-1,1.5-1.5,3.3-1.5c2.3,0,3.4,0.7,3.4,2.9
		v6.2h-1.4V162c-0.5,0.8-1.1,1-2.3,1c-2.1,0-3.2-1-3.2-2.8C107,158.4,108.4,157.8,110.4,157.8z M112.6,159h-2.1
		c-1.4,0-1.9,0.5-1.9,1.4c0,1,0.7,1.4,1.8,1.4c1.3,0,2.3-0.3,2.3-2.3L112.6,159L112.6,159z"/>
	<path d="M116.3,154h1.4v0.9c0.4-0.6,1.1-1,2.2-1c1.2,0,2.1,0.5,2.6,1.4c0.6-1,1.6-1.4,2.7-1.4c1.9,0,3.1,1.2,3.1,3.5v5.6h-1.4v-5.6
		c0-1.6-0.8-2.2-1.9-2.2c-1.2,0-2,0.9-2,2.2v5.6h-1.4v-5.6c0-1.6-0.8-2.2-1.9-2.2c-1.2,0-2,1-2,2.2v5.6h-1.4L116.3,154L116.3,154z"
		/>
	<path d="M130.9,150.6h1.6v1.6h-1.6V150.6z M131,154h1.4v9H131V154z"/>
	<path d="M141.6,161.7c-0.6,1-1.7,1.5-3.1,1.5c-2.5,0-3.9-1.6-3.9-4.1v-1.2c0-2.6,1.5-4,3.9-4c1.4,0,2.5,0.5,3.1,1.4l-1.1,0.8
		c-0.4-0.6-1.2-0.9-2-0.9c-1.5,0-2.4,1-2.4,2.7v1.2c0,1.5,0.7,2.8,2.4,2.8c0.8,0,1.6-0.3,2-1L141.6,161.7z"/>
	<path d="M148.1,156.1c-0.5-0.6-1-0.9-2.2-0.9c-1.1,0-1.7,0.4-1.7,1.2c0,1,0.9,1.3,2.1,1.4c1.7,0.1,3.2,0.6,3.2,2.7
		c0,1.6-1.1,2.6-3.4,2.6c-1.8,0-2.8-0.6-3.5-1.5l1.1-0.8c0.5,0.6,1.1,0.9,2.4,0.9c1.2,0,1.9-0.5,1.9-1.3c0-1-0.6-1.3-2.3-1.4
		c-1.5-0.1-3-0.7-3-2.7c0-1.5,1.1-2.6,3.2-2.6c1.5,0,2.6,0.4,3.3,1.5L148.1,156.1z"/>
	<path d="M156.3,154v-0.6c0-1.9,0.6-2.8,2.7-2.8h0.4v1.4H159c-1.2,0-1.4,0.5-1.4,1.8v0.3h1.7v1.3h-1.7v7.7h-1.4v-7.7H155V154H156.3z
		"/>
	<path d="M168.1,159.1c0,2.3-1.2,4.1-3.7,4.1c-2.4,0-3.7-1.6-3.7-4.1v-1.2c0-2.6,1.4-4,3.7-4c2.4,0,3.7,1.5,3.7,4V159.1z
		 M166.7,159.1v-1.2c0-1.7-0.8-2.7-2.3-2.7s-2.3,1-2.3,2.7v1.2c0,1.5,0.6,2.8,2.3,2.8C165.9,161.9,166.7,160.6,166.7,159.1z"/>
	<path d="M174.9,156c-0.4-0.5-0.8-0.8-1.5-0.8c-1.1,0-1.9,0.8-1.9,2.2v5.6h-1.4v-9h1.4v0.9c0.4-0.6,1-1,2.1-1c1.2,0,2,0.4,2.6,1.2
		L174.9,156z"/>
	<path d="M186.1,154h1.4v0.9c0.5-0.7,1.1-1,2.4-1c1.9,0,3.3,1,3.3,3.5v5.6h-1.4v-5.6c0-1.8-1-2.2-2.1-2.2c-1.4,0-2.2,1-2.2,2.2v5.6
		h-1.4L186.1,154L186.1,154z"/>
	<path d="M199.3,154h1.2v-2h1.4v2h2.1v1.3h-2.1v4.6c0,1.2,0.1,1.8,1.4,1.8h0.7v1.4h-0.8c-2.1,0-2.7-0.9-2.7-2.8v-4.9h-1.2V154z"/>
	<path d="M205.9,150.6h1.6v1.6h-1.6V150.6z M206,154h1.4v9H206V154z"/>
	<path d="M210.1,154h1.4v0.9c0.4-0.6,1.1-1,2.2-1c1.2,0,2.1,0.5,2.6,1.4c0.6-1,1.6-1.4,2.7-1.4c1.9,0,3.1,1.2,3.1,3.5v5.6h-1.4v-5.6
		c0-1.6-0.8-2.2-1.9-2.2c-1.2,0-2,0.9-2,2.2v5.6h-1.4v-5.6c0-1.6-0.8-2.2-1.9-2.2c-1.2,0-2,1-2,2.2v5.6h-1.4L210.1,154L210.1,154z"
		/>
	<path d="M231.1,161.7c-0.6,1.1-1.6,1.5-3.2,1.5c-2.4,0-3.9-1.6-3.9-4.1v-1.2c0-2.6,1.2-4,3.6-4s3.6,1.5,3.6,4v0.9h-5.7v0.3
		c0,1.5,0.7,2.8,2.3,2.8c1.2,0,1.8-0.3,2.1-1L231.1,161.7z M225.5,157.6h4.2c-0.1-1.5-0.7-2.4-2.1-2.4
		C226.2,155.2,225.6,156.1,225.5,157.6z"/>
	<path d="M232.7,157.2h4.7v1.3h-4.7V157.2z"/>
	<path d="M143.6,177.7c-0.5-0.6-1-0.9-2.2-0.9c-1.1,0-1.7,0.4-1.7,1.2c0,1,0.9,1.3,2.1,1.4c1.7,0.1,3.2,0.6,3.2,2.7
		c0,1.6-1.1,2.6-3.4,2.6c-1.8,0-2.8-0.6-3.5-1.5l1.1-0.8c0.5,0.6,1.1,0.9,2.4,0.9c1.2,0,1.9-0.5,1.9-1.3c0-1-0.6-1.3-2.3-1.4
		c-1.5-0.1-3-0.7-3-2.7c0-1.5,1.1-2.6,3.2-2.6c1.5,0,2.6,0.4,3.3,1.5L143.6,177.7z"/>
	<path d="M146.2,175.6h1.2v-2h1.4v2h2.1v1.3h-2.1v4.6c0,1.2,0.1,1.8,1.4,1.8h0.7v1.4h-0.8c-2.1,0-2.7-0.9-2.7-2.8V177h-1.2V175.6z"
		/>
	<path d="M159.2,183.3c-0.6,1.1-1.6,1.5-3.2,1.5c-2.4,0-3.9-1.6-3.9-4.1v-1.2c0-2.6,1.2-4,3.6-4s3.6,1.5,3.6,4v0.9h-5.7v0.3
		c0,1.5,0.7,2.8,2.3,2.8c1.2,0,1.8-0.3,2.1-1L159.2,183.3z M153.6,179.2h4.2c-0.1-1.5-0.7-2.4-2.1-2.4
		C154.4,176.8,153.7,177.7,153.6,179.2z"/>
	<path d="M165.3,175.5c2.2,0,3.6,1.5,3.6,4v1.2c0,2.3-1.2,4.1-3.6,4.1c-1.2,0-2-0.4-2.4-1v4.3h-1.4v-12.4h1.4v0.9
		C163.3,175.9,164.1,175.5,165.3,175.5z M167.5,180.7v-1.2c0-1.7-0.8-2.7-2.3-2.7c-1.4,0-2.3,1-2.3,2.6v1.3c0,1.5,0.6,2.8,2.3,2.8
		C166.7,183.5,167.5,182.2,167.5,180.7z"/>
	<path d="M175.9,177.7c-0.5-0.6-1-0.9-2.2-0.9c-1.1,0-1.7,0.4-1.7,1.2c0,1,0.9,1.3,2.1,1.4c1.7,0.1,3.2,0.6,3.2,2.7
		c0,1.6-1.1,2.6-3.4,2.6c-1.8,0-2.8-0.6-3.5-1.5l1.1-0.8c0.5,0.6,1.1,0.9,2.4,0.9c1.2,0,1.9-0.5,1.9-1.3c0-1-0.6-1.3-2.3-1.4
		c-1.5-0.1-3-0.7-3-2.7c0-1.5,1.1-2.6,3.2-2.6c1.5,0,2.6,0.4,3.3,1.5L175.9,177.7z"/>
</g>
<g>
	<rect x="72.9" y="279.2" class="st2" width="171.6" height="34.8"/>
	<path d="M116.3,291.6l4.3-12.4h1.4l4.3,12.4h-1.6l-1-2.8h-4.9l-1,2.8H116.3z M119.4,287.4h3.9l-2-5.8L119.4,287.4z"/>
	<path d="M134.2,290.3c-0.6,1-1.7,1.5-3.1,1.5c-2.5,0-3.9-1.6-3.9-4.1v-1.2c0-2.6,1.5-4,3.9-4c1.4,0,2.5,0.5,3.1,1.4l-1.1,0.8
		c-0.4-0.6-1.2-0.9-2-0.9c-1.5,0-2.4,1-2.4,2.7v1.2c0,1.5,0.7,2.8,2.4,2.8c0.8,0,1.6-0.3,2-1L134.2,290.3z"/>
	<path d="M142.1,290.3c-0.6,1-1.7,1.5-3.1,1.5c-2.5,0-3.9-1.6-3.9-4.1v-1.2c0-2.6,1.5-4,3.9-4c1.4,0,2.5,0.5,3.1,1.4l-1.1,0.8
		c-0.4-0.6-1.2-0.9-2-0.9c-1.5,0-2.4,1-2.4,2.7v1.2c0,1.5,0.7,2.8,2.4,2.8c0.8,0,1.6-0.3,2-1L142.1,290.3z"/>
	<path d="M150.1,290.3c-0.6,1.1-1.6,1.5-3.2,1.5c-2.4,0-3.9-1.6-3.9-4.1v-1.2c0-2.6,1.2-4,3.6-4s3.6,1.5,3.6,4v0.9h-5.7v0.3
		c0,1.5,0.7,2.8,2.3,2.8c1.2,0,1.8-0.3,2.1-1L150.1,290.3z M144.6,286.2h4.2c-0.1-1.5-0.7-2.4-2.1-2.4
		C145.3,283.8,144.7,284.7,144.6,286.2z"/>
	<path d="M156.3,282.5c2.2,0,3.6,1.5,3.6,4v1.2c0,2.3-1.2,4.1-3.6,4.1c-1.2,0-2-0.4-2.4-1v4.3h-1.4v-12.4h1.4v0.9
		C154.3,282.9,155.1,282.5,156.3,282.5z M158.4,287.7v-1.2c0-1.7-0.8-2.7-2.3-2.7c-1.4,0-2.3,1-2.3,2.6v1.3c0,1.5,0.6,2.8,2.3,2.8
		C157.6,290.5,158.4,289.2,158.4,287.7z"/>
	<path d="M161,282.6h1.2v-2h1.4v2h2.1v1.3h-2.2v4.6c0,1.2,0.1,1.8,1.4,1.8h0.7v1.4h-0.8c-2.1,0-2.7-0.9-2.7-2.8V284h-1.2v-1.4H161z"
		/>
	<path d="M170.3,286.4h2.1v-1c0-1.3-0.6-1.6-2-1.6c-1.1,0-1.7,0.1-2.2,0.9l-1.1-0.8c0.6-1,1.5-1.5,3.3-1.5c2.3,0,3.4,0.7,3.4,2.9
		v6.2h-1.3v-0.9c-0.5,0.8-1.1,1-2.3,1c-2.1,0-3.2-1-3.2-2.8C167,287.1,168.4,286.4,170.3,286.4z M172.5,287.7h-2.1
		c-1.4,0-1.9,0.5-1.9,1.4c0,1,0.7,1.4,1.8,1.4c1.3,0,2.3-0.3,2.3-2.3L172.5,287.7L172.5,287.7z"/>
	<path d="M176.3,282.6h1.4v0.9c0.5-0.7,1.1-1,2.4-1c1.9,0,3.3,1,3.3,3.5v5.6H182V286c0-1.8-1-2.2-2.1-2.2c-1.4,0-2.2,1-2.2,2.2v5.6
		h-1.4L176.3,282.6L176.3,282.6z"/>
	<path d="M192.3,290.3c-0.6,1-1.7,1.5-3.1,1.5c-2.5,0-3.9-1.6-3.9-4.1v-1.2c0-2.6,1.5-4,3.9-4c1.4,0,2.5,0.5,3.1,1.4l-1.1,0.8
		c-0.4-0.6-1.2-0.9-2-0.9c-1.5,0-2.4,1-2.4,2.7v1.2c0,1.5,0.7,2.8,2.4,2.8c0.8,0,1.6-0.3,2-1L192.3,290.3z"/>
	<path d="M200.3,290.3c-0.6,1.1-1.6,1.5-3.2,1.5c-2.4,0-3.9-1.6-3.9-4.1v-1.2c0-2.6,1.2-4,3.6-4s3.6,1.5,3.6,4v0.9h-5.7v0.3
		c0,1.5,0.7,2.8,2.3,2.8c1.2,0,1.8-0.3,2.1-1L200.3,290.3z M194.7,286.2h4.2c-0.1-1.5-0.7-2.4-2.1-2.4
		C195.4,283.8,194.8,284.7,194.7,286.2z"/>
	<path d="M120.9,308.5v4.7h-1.5v-12.4h4c2.9,0,4.5,1.4,4.5,3.9c0,2.4-1.6,3.8-4.5,3.8H120.9z M123.3,307.1c2.1,0,3-0.9,3-2.4
		s-0.9-2.4-3-2.4h-2.4v4.9h2.4V307.1z"/>
	<path d="M134.4,306.2c-0.4-0.5-0.8-0.8-1.5-0.8c-1.1,0-1.9,0.8-1.9,2.2v5.6h-1.4v-9h1.4v0.9c0.4-0.6,1-1,2.1-1c1.2,0,2,0.4,2.6,1.2
		L134.4,306.2z"/>
	<path d="M143.7,309.3c0,2.3-1.2,4.1-3.7,4.1c-2.4,0-3.7-1.6-3.7-4.1v-1.2c0-2.6,1.4-4,3.7-4c2.4,0,3.7,1.5,3.7,4V309.3z
		 M142.2,309.3v-1.2c0-1.7-0.8-2.7-2.3-2.7s-2.3,1-2.3,2.7v1.2c0,1.5,0.6,2.8,2.3,2.8C141.5,312.1,142.2,310.8,142.2,309.3z"/>
	<path d="M147,305.1c0.5-0.7,1.3-1,2.4-1c2.2,0,3.6,1.5,3.6,4v1.2c0,2.3-1.2,4.1-3.6,4.1c-1.2,0-2-0.3-2.4-0.9v0.8h-1.4v-12.4h1.4
		V305.1z M151.6,309.3v-1.2c0-1.7-0.8-2.7-2.3-2.7c-1.4,0-2.3,1-2.3,2.6v1.3c0,1.5,0.6,2.8,2.3,2.8
		C150.8,312.1,151.6,310.8,151.6,309.3z"/>
	<path d="M157.9,308h2.1v-1c0-1.3-0.6-1.6-2-1.6c-1.1,0-1.7,0.1-2.2,0.9l-1.1-0.8c0.6-1,1.5-1.5,3.3-1.5c2.3,0,3.4,0.7,3.4,2.9v6.2
		H160v-0.9c-0.5,0.8-1.1,1-2.3,1c-2.1,0-3.2-1-3.2-2.8C154.5,308.7,155.9,308,157.9,308z M160,309.3h-2.1c-1.4,0-1.9,0.5-1.9,1.4
		c0,1,0.7,1.4,1.8,1.4c1.3,0,2.3-0.3,2.3-2.3L160,309.3L160,309.3z"/>
	<path d="M165.2,305.1c0.5-0.7,1.3-1,2.4-1c2.2,0,3.6,1.5,3.6,4v1.2c0,2.3-1.2,4.1-3.6,4.1c-1.2,0-2-0.3-2.4-0.9v0.8h-1.4v-12.4h1.4
		V305.1z M169.8,309.3v-1.2c0-1.7-0.8-2.7-2.3-2.7c-1.4,0-2.3,1-2.3,2.6v1.3c0,1.5,0.6,2.8,2.3,2.8
		C169.1,312.1,169.8,310.8,169.8,309.3z"/>
	<path d="M173.3,300.8h1.6v1.6h-1.6V300.8z M173.4,304.2h1.4v9h-1.4V304.2z"/>
	<path d="M177.5,300.8h1.4v9.3c0,1,0.1,1.8,1.5,1.8v1.3c-2.3,0-3-0.9-3-2.8v-9.6H177.5z"/>
	<path d="M182.6,300.8h1.6v1.6h-1.6V300.8z M182.7,304.2h1.4v9h-1.4V304.2z"/>
	<path d="M185.9,304.2h1.2v-2h1.4v2h2.1v1.3h-2.1v4.6c0,1.2,0.1,1.8,1.4,1.8h0.7v1.4h-0.8c-2.1,0-2.7-0.9-2.7-2.8v-4.9h-1.2V304.2z"
		/>
	<path d="M194.9,313.3l-3.5-9.1h1.5l2.7,7l2.4-7h1.5l-3.2,9.3c-0.7,2.2-1.2,3.1-3.7,3.1v-1.4c1.2,0,1.7-0.2,2.3-1.8L194.9,313.3z"/>
</g>
<path class="st3" d="M558,165.5"/>
<g>
	<rect x="71.9" y="413.4" class="st2" width="171.6" height="40.6"/>
	<path d="M113.7,413.4v7.4c0,3.7-1.7,5.2-4.5,5.2s-4.5-1.5-4.5-5.2v-7.4h1.5v7.4c0,2.7,1,3.8,3,3.8c1.9,0,3-1.1,3-3.8v-7.4H113.7z"
		/>
	<path d="M120.3,416.7c2.2,0,3.6,1.5,3.6,4v1.2c0,2.3-1.2,4.1-3.6,4.1c-1.2,0-2-0.4-2.4-1v4.3h-1.4v-12.4h1.4v0.9
		C118.3,417,119.1,416.7,120.3,416.7z M122.4,421.9v-1.2c0-1.7-0.8-2.7-2.3-2.7c-1.4,0-2.3,1-2.3,2.6v1.3c0,1.5,0.6,2.8,2.3,2.8
		C121.7,424.7,122.4,423.4,122.4,421.9z"/>
	<path d="M131.4,413.4h1.4v12.4h-1.4V425c-0.5,0.6-1.3,0.9-2.4,0.9c-2.4,0-3.6-1.7-3.6-4.1v-1.2c0-2.6,1.4-4,3.6-4
		c1.2,0,2,0.4,2.4,1V413.4z M131.4,422v-1.3c0-1.7-0.8-2.7-2.3-2.7s-2.3,1-2.3,2.7v1.2c0,1.5,0.8,2.8,2.3,2.8
		C130.7,424.7,131.4,423.5,131.4,422z"/>
	<path d="M138.1,420.6h2.1v-1c0-1.3-0.6-1.6-2-1.6c-1.1,0-1.7,0.1-2.2,0.9l-1.1-0.8c0.6-1,1.5-1.5,3.3-1.5c2.3,0,3.4,0.7,3.4,2.9
		v6.2h-1.4v-0.9c-0.5,0.8-1.1,1-2.3,1c-2.1,0-3.2-1-3.2-2.8C134.7,421.2,136.1,420.6,138.1,420.6z M140.2,421.8h-2.1
		c-1.4,0-1.9,0.5-1.9,1.4c0,1,0.7,1.4,1.8,1.4c1.3,0,2.3-0.3,2.3-2.3v-0.5H140.2z"/>
	<path d="M143.2,416.8h1.2v-2h1.4v2h2.1v1.3h-2.1v4.6c0,1.2,0.1,1.8,1.4,1.8h0.7v1.4h-0.8c-2.1,0-2.7-0.9-2.7-2.8v-4.9h-1.2V416.8z"
		/>
	<path d="M156.2,424.4c-0.6,1.1-1.6,1.5-3.2,1.5c-2.4,0-3.9-1.6-3.9-4.1v-1.2c0-2.6,1.2-4,3.6-4c2.4,0,3.6,1.5,3.6,4v0.9h-5.7v0.3
		c0,1.5,0.7,2.8,2.3,2.8c1.2,0,1.8-0.3,2.1-1L156.2,424.4z M150.6,420.4h4.2c-0.1-1.5-0.7-2.4-2.1-2.4
		C151.4,418,150.7,418.9,150.6,420.4z"/>
	<path d="M168,418.9c-0.5-0.6-1-0.9-2.2-0.9c-1.1,0-1.7,0.4-1.7,1.2c0,1,0.9,1.3,2.1,1.4c1.7,0.1,3.2,0.6,3.2,2.7
		c0,1.6-1.1,2.6-3.4,2.6c-1.8,0-2.8-0.6-3.5-1.5l1.1-0.8c0.5,0.6,1.1,0.9,2.4,0.9c1.2,0,1.9-0.5,1.9-1.3c0-1-0.6-1.3-2.3-1.4
		c-1.5-0.1-3-0.7-3-2.7c0-1.5,1.1-2.6,3.2-2.6c1.5,0,2.6,0.4,3.3,1.5L168,418.9z"/>
	<path d="M170.5,416.8h1.2v-2h1.4v2h2.1v1.3h-2.1v4.6c0,1.2,0.1,1.8,1.4,1.8h0.7v1.4h-0.8c-2.1,0-2.7-0.9-2.7-2.8v-4.9h-1.2V416.8z"
		/>
	<path d="M183.5,424.4c-0.6,1.1-1.6,1.5-3.2,1.5c-2.4,0-3.9-1.6-3.9-4.1v-1.2c0-2.6,1.2-4,3.6-4c2.4,0,3.6,1.5,3.6,4v0.9h-5.7v0.3
		c0,1.5,0.7,2.8,2.3,2.8c1.2,0,1.8-0.3,2.1-1L183.5,424.4z M178,420.4h4.2c-0.1-1.5-0.7-2.4-2.1-2.4
		C178.7,418,178.1,418.9,178,420.4z"/>
	<path d="M189.7,416.7c2.2,0,3.6,1.5,3.6,4v1.2c0,2.3-1.2,4.1-3.6,4.1c-1.2,0-2-0.4-2.4-1v4.3h-1.4v-12.4h1.4v0.9
		C187.7,417,188.5,416.7,189.7,416.7z M191.8,421.9v-1.2c0-1.7-0.8-2.7-2.3-2.7c-1.4,0-2.3,1-2.3,2.6v1.3c0,1.5,0.6,2.8,2.3,2.8
		C191.1,424.7,191.8,423.4,191.8,421.9z"/>
	<path d="M199.8,413.4h1.6v1.6h-1.6V413.4z M199.9,416.8h1.4v9h-1.4V416.8z"/>
	<path d="M204,416.8h1.4v0.9c0.5-0.7,1.1-1,2.4-1c1.9,0,3.3,1,3.3,3.5v5.6h-1.4v-5.6c0-1.8-1-2.2-2.1-2.2c-1.4,0-2.2,1-2.2,2.2v5.6
		H204V416.8z"/>
	<path d="M114.3,442.7l3.7-7.7h1.5v12.4H118v-9.1l-3,6.5h-1.4l-3-6.5v9.1h-1.5V435h1.5L114.3,442.7z"/>
	<path d="M125.2,442.2h2.1v-1c0-1.3-0.6-1.6-2-1.6c-1.1,0-1.7,0.1-2.2,0.9l-1.1-0.8c0.6-1,1.5-1.5,3.3-1.5c2.3,0,3.4,0.7,3.4,2.9
		v6.2h-1.4v-0.9c-0.5,0.8-1.1,1-2.3,1c-2.1,0-3.2-1-3.2-2.8C121.8,442.8,123.2,442.2,125.2,442.2z M127.3,443.4h-2.1
		c-1.4,0-1.9,0.5-1.9,1.4c0,1,0.7,1.4,1.8,1.4c1.3,0,2.3-0.3,2.3-2.3v-0.5H127.3z"/>
	<path d="M136,440.4c-0.4-0.5-0.8-0.8-1.5-0.8c-1.1,0-1.9,0.8-1.9,2.2v5.6h-1.4v-9h1.4v0.9c0.4-0.6,1-1,2.1-1c1.2,0,2,0.4,2.6,1.2
		L136,440.4z"/>
	<path d="M145.2,438.4l-3.9,4l4.4,5h-1.9l-3.6-3.9l-0.6,0.6v3.3h-1.4V435h1.4v7.1l3.6-3.7H145.2z"/>
	<path d="M153.5,443.5c0,2.3-1.2,4.1-3.7,4.1c-2.4,0-3.7-1.6-3.7-4.1v-1.2c0-2.6,1.4-4,3.7-4c2.4,0,3.7,1.5,3.7,4V443.5z M152,443.5
		v-1.2c0-1.7-0.8-2.7-2.3-2.7s-2.3,1-2.3,2.7v1.2c0,1.5,0.6,2.8,2.3,2.8C151.3,446.3,152,445,152,443.5z"/>
	<path d="M163.1,438.4l-3.6,9h-1.4l-3.7-9h1.6l2.7,7.2l2.7-7.2H163.1z"/>
	<path d="M175.5,446c-0.6,1-1.7,1.5-3.1,1.5c-2.5,0-3.9-1.6-3.9-4.1v-1.2c0-2.6,1.5-4,3.9-4c1.4,0,2.5,0.5,3.1,1.4l-1.1,0.8
		c-0.4-0.6-1.2-0.9-2-0.9c-1.5,0-2.4,1-2.4,2.7v1.2c0,1.5,0.7,2.8,2.4,2.8c0.8,0,1.6-0.3,2-1L175.5,446z"/>
	<path d="M176.9,435h1.4v4.3c0.5-0.7,1.1-1,2.4-1c1.9,0,3.3,1,3.3,3.5v5.6h-1.4v-5.6c0-1.8-1-2.2-2.1-2.2c-1.4,0-2.2,1-2.2,2.2v5.6
		h-1.4V435z"/>
	<path d="M189.3,442.2h2.1v-1c0-1.3-0.6-1.6-2-1.6c-1.1,0-1.7,0.1-2.2,0.9l-1.1-0.8c0.6-1,1.5-1.5,3.3-1.5c2.3,0,3.4,0.7,3.4,2.9
		v6.2h-1.3v-0.9c-0.5,0.8-1.1,1-2.3,1c-2.1,0-3.2-1-3.2-2.8C185.9,442.8,187.3,442.2,189.3,442.2z M191.5,443.4h-2.1
		c-1.4,0-1.9,0.5-1.9,1.4c0,1,0.7,1.4,1.8,1.4c1.3,0,2.3-0.3,2.3-2.3v-0.5H191.5z"/>
	<path d="M195.4,435h1.6v1.6h-1.6V435z M195.5,438.4h1.4v9h-1.4V438.4z"/>
	<path d="M199.6,438.4h1.4v0.9c0.5-0.7,1.1-1,2.4-1c1.9,0,3.3,1,3.3,3.5v5.6h-1.4v-5.6c0-1.8-1-2.2-2.1-2.2c-1.4,0-2.2,1-2.2,2.2
		v5.6h-1.4V438.4z"/>
</g>
<g>
	<rect x="266.4" y="275.3" class="st2" width="94.6" height="15.8"/>
	<path d="M275,287.8l-2.6-5.2h-2.9v5.2H268v-12.4h4c2.9,0,4.5,1.2,4.5,3.6c0,1.7-0.9,2.8-2.4,3.3l2.8,5.5H275z M271.8,281.1
		c2.1,0,3-0.6,3-2.2c0-1.5-0.9-2.2-3-2.2h-2.4v4.4L271.8,281.1L271.8,281.1z"/>
	<path d="M284.9,286.4c-0.6,1.1-1.6,1.5-3.2,1.5c-2.4,0-3.9-1.6-3.9-4.1v-1.2c0-2.6,1.2-4,3.6-4c2.4,0,3.6,1.5,3.6,4v0.9h-5.7v0.3
		c0,1.5,0.7,2.8,2.3,2.8c1.2,0,1.8-0.3,2.1-1L284.9,286.4z M279.3,282.3h4.2c-0.1-1.5-0.7-2.4-2.1-2.4
		C280.1,279.9,279.4,280.8,279.3,282.3z"/>
	<path d="M288.9,288.4c0,1.9-0.7,2.8-3,2.8v-1.3c1.5,0,1.5-0.8,1.5-1.8v-9.3h1.4L288.9,288.4L288.9,288.4z M287.4,275.3h1.6v1.6
		h-1.6V275.3z"/>
	<path d="M297.9,286.4c-0.6,1.1-1.6,1.5-3.2,1.5c-2.4,0-3.9-1.6-3.9-4.1v-1.2c0-2.6,1.2-4,3.6-4c2.4,0,3.6,1.5,3.6,4v0.9h-5.7v0.3
		c0,1.5,0.7,2.8,2.3,2.8c1.2,0,1.8-0.3,2.1-1L297.9,286.4z M292.3,282.3h4.2c-0.1-1.5-0.7-2.4-2.1-2.4
		C293.1,279.9,292.4,280.8,292.3,282.3z"/>
	<path d="M306.7,286.4c-0.6,1-1.7,1.5-3.1,1.5c-2.5,0-3.9-1.6-3.9-4.1v-1.2c0-2.6,1.5-4,3.9-4c1.4,0,2.5,0.5,3.1,1.4l-1.1,0.8
		c-0.4-0.6-1.2-0.9-2-0.9c-1.5,0-2.4,1-2.4,2.7v1.2c0,1.5,0.7,2.8,2.4,2.8c0.8,0,1.6-0.3,2-1L306.7,286.4z"/>
	<path d="M307.3,278.8h1.2v-2h1.4v2h2.1v1.3h-2.1v4.6c0,1.2,0.1,1.8,1.4,1.8h0.7v1.4h-0.8c-2.1,0-2.7-0.9-2.7-2.8v-4.9h-1.2
		L307.3,278.8L307.3,278.8z"/>
</g>
<g>
	<rect x="180.3" y="357" class="st2" width="94.6" height="15.8"/>
	<path d="M180.4,369.5l4.3-12.4h1.4l4.3,12.4h-1.6l-1-2.8h-4.9l-1,2.8H180.4z M183.5,365.3h3.9l-2-5.8L183.5,365.3z"/>
	<path d="M198.3,368.1c-0.6,1-1.7,1.5-3.1,1.5c-2.5,0-3.9-1.6-3.9-4.1v-1.2c0-2.6,1.5-4,3.9-4c1.4,0,2.5,0.5,3.1,1.4l-1.1,0.8
		c-0.4-0.6-1.2-0.9-2-0.9c-1.5,0-2.4,1-2.4,2.7v1.2c0,1.5,0.7,2.8,2.4,2.8c0.8,0,1.6-0.3,2-1L198.3,368.1z"/>
	<path d="M206.3,368.1c-0.6,1-1.7,1.5-3.1,1.5c-2.5,0-3.9-1.6-3.9-4.1v-1.2c0-2.6,1.5-4,3.9-4c1.4,0,2.5,0.5,3.1,1.4l-1.1,0.8
		c-0.4-0.6-1.2-0.9-2-0.9c-1.5,0-2.4,1-2.4,2.7v1.2c0,1.5,0.7,2.8,2.4,2.8c0.8,0,1.6-0.3,2-1L206.3,368.1z"/>
	<path d="M214.3,368.1c-0.6,1.1-1.6,1.5-3.2,1.5c-2.4,0-3.9-1.6-3.9-4.1v-1.2c0-2.6,1.2-4,3.6-4s3.6,1.5,3.6,4v0.9h-5.7v0.3
		c0,1.5,0.7,2.8,2.3,2.8c1.2,0,1.8-0.3,2.1-1L214.3,368.1z M208.7,364h4.2c-0.1-1.5-0.7-2.4-2.1-2.4
		C209.5,361.6,208.8,362.5,208.7,364z"/>
	<path d="M220.4,360.3c2.2,0,3.6,1.5,3.6,4v1.2c0,2.3-1.2,4.1-3.6,4.1c-1.2,0-2-0.4-2.4-1v4.3h-1.4v-12.4h1.4v0.9
		C218.5,360.8,219.2,360.3,220.4,360.3z M222.6,365.5v-1.2c0-1.7-0.8-2.7-2.3-2.7c-1.4,0-2.3,1-2.3,2.6v1.3c0,1.5,0.6,2.8,2.3,2.8
		C221.8,368.3,222.6,367.1,222.6,365.5z"/>
	<path d="M225.1,360.5h1.2v-2h1.4v2h2.1v1.3h-2.1v4.6c0,1.2,0.1,1.8,1.4,1.8h0.7v1.4H229c-2.1,0-2.7-0.9-2.7-2.8v-4.9h-1.2V360.5z"
		/>
</g>
<g>
	<g>
		<line class="st0" x1="158" y1="192.5" x2="158" y2="231.3"/>
		<g>
			<polygon class="st1" points="158,252.5 145.8,222.7 158,229.7 170.2,222.7 			"/>
		</g>
	</g>
</g>
<g>
	<g>
		<path class="st0" d="M282.2,25.5H309c5.5,0,10,4.5,10,10v251c0,5.5-4.5,10-10,10h-48"/>
		<g>
			<polygon class="st1" points="261,25.5 290.8,37.7 283.8,25.5 290.8,13.3 			"/>
		</g>
	</g>
</g>
<g>
	<path class="st4" d="M261,329.5c0,5.5-4.5,10-10,10H65c-5.5,0-10-4.5-10-10v-67c0-5.5,4.5-10,10-10h186c5.5,0,10,4.5,10,10V329.5z"
		/>
</g>
<g>
	<path class="st4" d="M261,52.5c0,5.5-4.5,10-10,10H65c-5.5,0-10-4.5-10-10v-37c0-5.5,4.5-10,10-10h186c5.5,0,10,4.5,10,10V52.5z"/>
</g>
<g>
	<path class="st4" d="M261,182.5c0,5.5-4.5,10-10,10H65c-5.5,0-10-4.5-10-10v-50c0-5.5,4.5-10,10-10h186c5.5,0,10,4.5,10,10V182.5z"
		/>
</g>
<g>
	<path class="st4" d="M260,457.5c0,5.5-4.5,10-10,10H64c-5.5,0-10-4.5-10-10v-50c0-5.5,4.5-10,10-10h186c5.5,0,10,4.5,10,10V457.5z"
		/>
</g>
<g>
	<g>
		<path class="st0" d="M53,436.5H15c-5.5,0-10-4.5-10-10v-391c0-5.5,4.5-10,10-10h16.8"/>
		<g>
			<polygon class="st1" points="23.2,13.3 30.2,25.5 23.2,37.7 53,25.5 			"/>
		</g>
	</g>
</g>
</svg>
