<?xml version="1.0" encoding="utf-8"?>
<!-- Generator: Adobe Illustrator 24.3.0, SVG Export Plug-In . SVG Version: 6.00 Build 0)  -->
<svg version="1.1" xmlns="http://www.w3.org/2000/svg" xmlns:xlink="http://www.w3.org/1999/xlink" x="0px" y="0px"
	 viewBox="0 0 904.4 279" style="enable-background:new 0 0 904.4 279;" xml:space="preserve">
<style type="text/css">
	.st0{clip-path:url(#SVGID_2_);fill:#231F20;}
	.st1{clip-path:url(#SVGID_2_);}
	.st2{clip-path:url(#SVGID_2_);fill:#F8971D;}
	.st3{clip-path:url(#SVGID_2_);fill:none;stroke:#000000;stroke-width:1.4328;stroke-miterlimit:10;}
	.st4{opacity:0;clip-path:url(#SVGID_2_);fill:none;stroke:#000000;stroke-width:9.999999e-07;stroke-miterlimit:10;}
	.st5{clip-path:url(#SVGID_4_);}
	.st6{opacity:0;clip-path:url(#SVGID_4_);fill:none;stroke:#000000;stroke-width:9.999999e-07;stroke-miterlimit:10;}
	.st7{opacity:0;clip-path:url(#SVGID_2_);fill:none;stroke:#000000;stroke-width:1.000000e-06;stroke-miterlimit:10;}
	.st8{clip-path:url(#SVGID_6_);}
	.st9{clip-path:url(#SVGID_6_);fill:#7AC143;}
	.st10{opacity:0;clip-path:url(#SVGID_6_);fill:#7AC143;stroke:#000000;stroke-width:9.999999e-07;stroke-miterlimit:10;}
	.st11{opacity:0;fill:none;stroke:#000000;stroke-width:1.000000e-06;stroke-miterlimit:10;}
</style>
<g id="Layer_1">
	<g>
		<defs>
			<rect id="SVGID_1_" y="-0.6" width="778.8" height="279"/>
		</defs>
		<clipPath id="SVGID_2_">
			<use xlink:href="#SVGID_1_"  style="overflow:visible;"/>
		</clipPath>
		<path class="st0" d="M139,38.6c0.3-1,1.2-2,1.9-2.5c1.3-1.1,2.3-1.4,2.9-1.4c1.4,0,2.3,1.3,2.3,3.4s-1.2,6.2-1.8,7.6
			c-1.2,2.5-2.9,3.7-4.3,3.7c-2.4,0-2.8-3-2.8-3.2c0-0.1,0-0.1,0.1-0.6L139,38.6 M132.7,54.2c-0.3,1.2-0.4,1.5-1.9,1.5
			c-0.4,0-0.8,0-0.8,0.7c0,0.3,0.2,0.4,0.5,0.4c1,0,2-0.1,3-0.1c1.2,0,2.4,0.1,3.6,0.1c0.2,0,0.6,0,0.6-0.7c0-0.4-0.4-0.4-0.9-0.4
			c-1.8,0-1.8-0.3-1.8-0.6c0-0.4,1.5-6.3,1.8-7.2c0.5,1,1.5,2.3,3.3,2.3c4.2,0,8.7-5.2,8.7-10.5c0-3.4-2-5.7-4.8-5.7
			c-1.8,0-3.5,1.3-4.7,2.7c-0.4-1.9-1.9-2.7-3.2-2.7c-1.7,0-2.3,1.4-2.7,2c-0.6,1.2-1.1,3.4-1.1,3.5c0,0.4,0.4,0.4,0.4,0.4
			c0.4,0,0.4,0,0.6-0.8c0.6-2.5,1.3-4.3,2.6-4.3c0.6,0,1.1,0.3,1.1,1.7c0,0.8-0.1,1.2-0.3,1.8L132.7,54.2z"/>
		<path class="st0" d="M152.2,52.1c-0.1,0.3-0.2,0.6-0.2,1.1c0,1.2,1,2.1,2.4,2.1c2.5,0,3.6-3.5,3.6-3.8c0-0.3-0.3-0.3-0.4-0.3
			c-0.4,0-0.4,0.2-0.5,0.4c-0.6,2-1.7,3-2.7,3c-0.5,0-0.6-0.3-0.6-0.9c0-0.6,0.2-1.1,0.4-1.6c0.3-0.7,0.5-1.4,0.8-2
			c0.2-0.6,1.1-2.9,1.2-3.2c0.1-0.3,0.2-0.6,0.2-0.8c0-1.2-1-2.1-2.4-2.1c-2.5,0-3.6,3.4-3.6,3.8c0,0.3,0.3,0.3,0.4,0.3
			c0.4,0,0.4-0.1,0.5-0.4c0.7-2.2,1.8-3.1,2.7-3.1c0.4,0,0.6,0.2,0.6,0.9c0,0.6-0.2,1-0.8,2.5L152.2,52.1 M157.3,39.4
			c0-0.4-0.3-1-1-1c-0.7,0-1.4,0.7-1.4,1.4c0,0.4,0.3,1,1,1C156.6,40.8,157.3,40.1,157.3,39.4z"/>
		<path class="st1" d="M185.6,72.7c0.1,0,0.4,0.4,0.4,0.4h0.8c0.1,0,0.4,0,0.4-0.4c0-0.1-0.1-0.2-0.1-0.3c-1.3-1.3-3.2-3.3-5.5-7.2
			c-3.9-6.9-5.3-15.8-5.3-24.4c0-15.9,4.5-25.3,10.8-31.7c0.1-0.1,0.1-0.2,0.1-0.3c0-0.4-0.3-0.4-0.7-0.4c-0.5,0-0.5,0-0.9,0.3
			c-3.4,2.9-7.3,7.9-9.7,15.5c-1.5,4.7-2.4,10.5-2.4,16.5c0,8.5,1.5,18.1,7.2,26.5c1,1.4,2.3,2.9,2.3,2.9c0.4,0.4,0.9,1,1.2,1.3
			L185.6,72.7"/>
		<path class="st1" d="M195.9,35.4h3.4c0.7,0,1.1,0,1.1-0.7c0-0.4-0.4-0.4-1-0.4h-3.2c1.3-5.1,1.5-5.8,1.5-6c0-0.6-0.4-1-1-1
			c-0.1,0-1.1,0-1.4,1.3l-1.4,5.7h-3.4c-0.7,0-1.1,0-1.1,0.7c0,0.4,0.3,0.4,1,0.4h3.2c-2.6,10.2-2.7,10.8-2.7,11.5
			c0,1.9,1.4,3.3,3.3,3.3c3.7,0,5.7-5.2,5.7-5.5c0-0.4-0.3-0.4-0.4-0.4c-0.3,0-0.4,0.1-0.5,0.5c-1.5,3.7-3.4,4.6-4.7,4.6
			c-0.8,0-1.1-0.5-1.1-1.7c0-0.9,0.1-1.1,0.2-1.7L195.9,35.4"/>
		<path class="st1" d="M224.1,41.5h10c0.5,0,1.2,0,1.2-0.7c0-0.7-0.7-0.7-1.2-0.7h-10V30c0-0.5,0-1.2-0.7-1.2
			c-0.7,0-0.7,0.7-0.7,1.2v10.1h-10.1c-0.5,0-1.2,0-1.2,0.7c0,0.7,0.7,0.7,1.2,0.7h10.1v10.1c0,0.5,0,1.2,0.7,1.2
			c0.7,0,0.7-0.7,0.7-1.2V41.5"/>
		<path class="st2" d="M262,17.4c0.6,0,1.2,0,1.2-0.6c0-0.5-0.4-0.5-1-0.5h-5.8c0.9-3.1,2.9-5.1,6.1-5.1h1.1c0.6,0,1.2,0,1.2-0.6
			c0-0.5-0.5-0.5-1.1-0.5h-1.3c-4.7,0-9.5,3.6-9.5,9.1c0,3.9,2.7,6.8,6.5,6.8c2.3,0,4.7-1.4,4.7-1.8c0-0.1,0-0.5-0.4-0.5
			c-0.1,0-0.1,0-0.5,0.2c-1.1,0.7-2.4,1.3-3.8,1.3c-2.1,0-3.9-1.5-3.9-4.7c0-1.3,0.3-2.6,0.4-3.1H262"/>
		<line class="st3" x1="249.6" y1="40.8" x2="267.5" y2="40.8"/>
		<path class="st1" d="M254.2,71.6l3.8-3.7c5.6-5,7.8-6.9,7.8-10.5c0-4.1-3.2-7-7.6-7c-4.1,0-6.7,3.3-6.7,6.5c0,2,1.8,2,1.9,2
			c0.6,0,1.9-0.4,1.9-1.9c0-0.9-0.6-1.9-1.9-1.9c-0.3,0-0.4,0-0.5,0c0.8-2.3,2.8-3.7,4.8-3.7c3.3,0,4.8,2.9,4.8,5.9
			c0,2.9-1.8,5.7-3.8,7.9l-6.9,7.7c-0.4,0.4-0.4,0.5-0.4,1.3h13.3l1-6.2h-0.9c-0.2,1.1-0.4,2.7-0.8,3.2c-0.3,0.3-2.6,0.3-3.4,0.3
			H254.2"/>
		<path class="st1" d="M286.7,40.8c0-10.3-2.4-21.3-9.5-29.3c-0.5-0.6-1.8-2-2.7-2.7c-0.3-0.2-0.3-0.2-0.8-0.2c-0.4,0-0.7,0-0.7,0.4
			c0,0.1,0.1,0.3,0.2,0.4c1.2,1.3,3.2,3.2,5.4,7.2c3.9,6.9,5.3,15.8,5.3,24.4c0,15.6-4.3,25.1-10.8,31.7c-0.1,0.1-0.1,0.2-0.1,0.3
			c0,0.4,0.3,0.4,0.7,0.4c0.5,0,0.5,0,0.9-0.3c3.4-2.9,7.3-7.9,9.7-15.5C285.9,52.4,286.7,46.6,286.7,40.8"/>
		<path class="st1" d="M327.9,45c0.5,0,1.2,0,1.2-0.7c0-0.7-0.7-0.7-1.2-0.7h-21.4c-0.5,0-1.2,0-1.2,0.7c0,0.7,0.7,0.7,1.2,0.7
			H327.9 M327.9,38c0.5,0,1.2,0,1.2-0.7c0-0.7-0.7-0.7-1.2-0.7h-21.5c-0.5,0-1.2,0-1.2,0.7c0,0.7,0.7,0.7,1.2,0.7H327.9z"/>
		<path class="st1" d="M349,38.6c0.3-1,1.2-2,1.9-2.5c1.3-1.1,2.3-1.4,2.9-1.4c1.4,0,2.3,1.3,2.3,3.4s-1.2,6.2-1.8,7.6
			c-1.2,2.5-2.9,3.7-4.3,3.7c-2.4,0-2.8-3-2.8-3.2c0-0.1,0-0.1,0.1-0.6L349,38.6 M342.7,54.2c-0.3,1.2-0.4,1.5-1.9,1.5
			c-0.4,0-0.8,0-0.8,0.7c0,0.3,0.2,0.4,0.5,0.4c1,0,2-0.1,3-0.1c1.2,0,2.4,0.1,3.6,0.1c0.2,0,0.6,0,0.6-0.7c0-0.4-0.4-0.4-0.9-0.4
			c-1.8,0-1.8-0.3-1.8-0.6c0-0.4,1.5-6.3,1.8-7.2c0.5,1,1.5,2.3,3.3,2.3c4.2,0,8.7-5.2,8.7-10.5c0-3.4-2-5.7-4.8-5.7
			c-1.8,0-3.5,1.3-4.7,2.7c-0.4-1.9-1.9-2.7-3.2-2.7c-1.7,0-2.3,1.4-2.7,2c-0.6,1.2-1.1,3.4-1.1,3.5c0,0.4,0.4,0.4,0.4,0.4
			c0.4,0,0.4,0,0.6-0.8c0.6-2.5,1.3-4.3,2.6-4.3c0.6,0,1.1,0.3,1.1,1.7c0,0.8-0.1,1.2-0.3,1.8L342.7,54.2z"/>
		<path class="st1" d="M362.1,52.1c-0.1,0.3-0.2,0.6-0.2,1.1c0,1.2,1,2.1,2.4,2.1c2.5,0,3.6-3.5,3.6-3.8c0-0.3-0.3-0.3-0.4-0.3
			c-0.4,0-0.4,0.2-0.5,0.4c-0.6,2-1.7,3-2.7,3c-0.5,0-0.6-0.3-0.6-0.9c0-0.6,0.2-1.1,0.4-1.6c0.3-0.7,0.5-1.4,0.8-2
			c0.2-0.6,1.1-2.9,1.2-3.2c0.1-0.3,0.2-0.6,0.2-0.8c0-1.2-1-2.1-2.4-2.1c-2.5,0-3.6,3.4-3.6,3.8c0,0.3,0.4,0.3,0.4,0.3
			c0.4,0,0.4-0.1,0.5-0.4c0.7-2.2,1.8-3.1,2.7-3.1c0.4,0,0.6,0.2,0.6,0.9c0,0.6-0.2,1-0.8,2.5L362.1,52.1 M367.2,39.4
			c0-0.4-0.3-1-1-1c-0.7,0-1.4,0.7-1.4,1.4c0,0.4,0.3,1,1,1C366.5,40.8,367.2,40.1,367.2,39.4z"/>
		<path class="st1" d="M383,58.4c0-0.1,0-0.2-0.6-0.8c-4.5-4.5-5.6-11.3-5.6-16.8c0-6.3,1.4-12.5,5.8-17c0.5-0.4,0.5-0.5,0.5-0.6
			c0-0.3-0.1-0.4-0.4-0.4c-0.4,0-3.6,2.4-5.7,7c-1.8,4-2.3,7.9-2.3,11c0,2.8,0.4,7.1,2.4,11.2c2.2,4.4,5.2,6.8,5.6,6.8
			C382.8,58.7,383,58.6,383,58.4"/>
		<path class="st1" d="M392.4,35.4h3.4c0.7,0,1.1,0,1.1-0.7c0-0.4-0.4-0.4-1-0.4h-3.2c1.3-5.1,1.5-5.8,1.5-6c0-0.6-0.4-1-1-1
			c-0.1,0-1.1,0-1.4,1.3l-1.4,5.7h-3.4c-0.7,0-1.1,0-1.1,0.7c0,0.4,0.3,0.4,1,0.4h3.2c-2.6,10.2-2.7,10.8-2.7,11.5
			c0,1.9,1.4,3.3,3.3,3.3c3.7,0,5.7-5.2,5.7-5.5c0-0.4-0.3-0.4-0.4-0.4c-0.3,0-0.4,0.1-0.5,0.5c-1.5,3.7-3.4,4.6-4.7,4.6
			c-0.8,0-1.1-0.5-1.1-1.7c0-0.9,0.1-1.1,0.2-1.7L392.4,35.4"/>
		<path class="st1" d="M408.4,40.8c0-2.8-0.4-7.1-2.4-11.2c-2.2-4.4-5.2-6.8-5.6-6.8c-0.2,0-0.4,0.1-0.4,0.4c0,0.1,0,0.2,0.7,0.8
			c3.5,3.6,5.6,9.3,5.6,16.8c0,6.1-1.3,12.5-5.8,17c-0.5,0.4-0.5,0.5-0.5,0.6c0,0.2,0.1,0.4,0.4,0.4c0.4,0,3.6-2.4,5.7-7
			C407.9,47.8,408.4,43.8,408.4,40.8"/>
		<path class="st1" d="M443.6,41.5c0.6,0,1.3,0,1.3-0.7c0-0.7-0.6-0.7-1.3-0.7h-19.4c-0.6,0-1.3,0-1.3,0.7c0,0.7,0.6,0.7,1.3,0.7
			H443.6"/>
		<path class="st2" d="M472.4,17.4c0.6,0,1.2,0,1.2-0.6c0-0.5-0.4-0.5-1-0.5h-5.8c0.9-3.1,2.9-5.1,6.1-5.1h1.1c0.6,0,1.2,0,1.2-0.6
			c0-0.5-0.5-0.5-1.1-0.5h-1.3c-4.7,0-9.5,3.6-9.5,9.1c0,3.9,2.7,6.8,6.5,6.8c2.3,0,4.7-1.4,4.7-1.8c0-0.1,0-0.5-0.4-0.5
			c-0.1,0-0.1,0-0.5,0.2c-1.1,0.7-2.4,1.3-3.8,1.3c-2.1,0-3.9-1.5-3.9-4.7c0-1.3,0.3-2.6,0.4-3.1H472.4"/>
		<line class="st3" x1="460.1" y1="40.8" x2="478" y2="40.8"/>
		<path class="st1" d="M464.7,71.6l3.8-3.7c5.6-5,7.8-6.9,7.8-10.5c0-4.1-3.2-7-7.6-7c-4.1,0-6.7,3.3-6.7,6.5c0,2,1.8,2,1.9,2
			c0.6,0,1.9-0.4,1.9-1.9c0-0.9-0.6-1.9-1.9-1.9c-0.3,0-0.4,0-0.5,0c0.8-2.3,2.8-3.7,4.8-3.7c3.3,0,4.8,2.9,4.8,5.9
			c0,2.9-1.8,5.7-3.8,7.9l-6.9,7.7c-0.4,0.4-0.4,0.5-0.4,1.3h13.3l1-6.2h-0.9c-0.2,1.1-0.4,2.7-0.8,3.2c-0.3,0.3-2.6,0.3-3.4,0.3
			H464.7"/>
		<path class="st1" d="M494.7,25.3c-4,0-4-3.7-4-4.1c0-1,0.9-6,2.4-8.2c1.4-2,3.2-3.2,5.4-3.2c3.9,0,4,4,4,4.7
			C502.6,17.2,500.3,25.3,494.7,25.3 M503.2,13.3c-0.4-2.2-1.8-4.2-4.6-4.2c-2.2,0-4.5,0.6-7.3,3.4c-3,3-3.2,6.3-3.2,7.4
			c0,2.2,1.6,6.4,6.6,6.4c8.5,0,12.3-12.1,12.3-17.2c0-5.7-3.3-9.3-7.8-9.3c-5.2,0-6.9,4.7-6.9,5.7c0,0.5,0.3,1.3,1.4,1.3
			c1.2,0,1.9-1.1,1.9-1.9c0-1.3-1.1-1.3-1.7-1.3c1.6-2.7,4.1-2.9,5.2-2.9c2.6,0,5.1,1.9,5.1,6.5C504.2,8.6,504,10.4,503.2,13.3
			L503.2,13.3z"/>
		<path class="st0" d="M530.5,4.7c0.4-1.5,1-2.6,3.9-2.7c0.2,0,0.6,0,0.6-0.7c0,0,0-0.4-0.5-0.4c-1.2,0-2.4,0.1-3.7,0.1
			c-1.2,0-2.5-0.1-3.7-0.1c-0.2,0-0.6,0-0.6,0.7c0,0.4,0.4,0.4,0.6,0.4c2,0,2.4,0.8,2.4,1.6c0,0.1-0.1,0.6-0.1,0.8l-3.2,12.8
			c-1.2,4.8-5.3,7.9-8.9,7.9c-2.4,0-4.4-1.6-4.4-4.7c0-0.1,0-1.2,0.4-2.8l3.5-14c0.3-1.3,0.4-1.7,3-1.7c0.9,0,1.2,0,1.2-0.7
			c0-0.4-0.4-0.4-0.5-0.4c-1,0-3.6,0.1-4.6,0.1c-1,0-3.6-0.1-4.6-0.1c-0.3,0-0.7,0-0.7,0.7c0,0.4,0.3,0.4,1,0.4c0.1,0,0.8,0,1.4,0.1
			c0.6,0.1,1,0.1,1,0.6c0,0.2-0.4,1.7-0.6,2.5l-0.8,3.2c-0.3,1.4-2,8.2-2.2,8.9c-0.3,1-0.3,1.5-0.3,2.1c0,4.4,3.3,6.9,7,6.9
			c4.5,0,9-4.1,10.2-8.8L530.5,4.7"/>
		<line class="st3" x1="486.6" y1="40.8" x2="536" y2="40.8"/>
		<path class="st1" d="M494.9,74.2c-4,0-4-3.7-4-4.1c0-1,0.9-6,2.4-8.2c1.4-2,3.2-3.2,5.4-3.2c3.9,0,4,4,4,4.7
			C502.8,66.1,500.5,74.2,494.9,74.2 M503.4,62.2c-0.4-2.2-1.8-4.2-4.6-4.2c-2.2,0-4.5,0.6-7.3,3.4c-3,3-3.2,6.3-3.2,7.4
			c0,2.2,1.6,6.4,6.6,6.4c8.5,0,12.3-12.1,12.3-17.2c0-5.7-3.3-9.3-7.8-9.3c-5.2,0-6.9,4.7-6.9,5.7c0,0.5,0.3,1.3,1.4,1.3
			c1.2,0,1.9-1.1,1.9-1.9c0-1.3-1.1-1.3-1.7-1.3c1.6-2.7,4.1-2.9,5.2-2.9c2.6,0,5.1,1.9,5.1,6.5C504.4,57.5,504.2,59.3,503.4,62.2
			L503.4,62.2z"/>
		<path class="st0" d="M514.2,74c-2.2,0-2.3-2.8-2.3-3.4c0-1.7,1-5.6,1.7-7.1c1.1-2.7,3-4.2,4.5-4.2c2.3,0,2.8,2.9,2.8,3.2
			c0,0.2-2,8.1-2.1,8.2C518.2,71.7,516.2,74,514.2,74 M524.1,58.9c0-0.1-0.1-0.4-0.4-0.4c-0.4,0-1.8,1.4-2.4,2.5
			c-0.8-1.9-2.2-2.5-3.3-2.5c-4.2,0-8.7,5.3-8.7,10.5c0,3.5,2.1,5.7,4.7,5.7c1.5,0,2.9-0.9,4.2-2.2c-0.3,1.3-1.5,6.1-1.6,6.4
			c-0.3,1-0.6,1.1-2.6,1.2c-0.5,0-0.8,0-0.8,0.7c0,0,0,0.4,0.5,0.4c1.1,0,2.4-0.1,3.6-0.1c1.2,0,2.5,0.1,3.7,0.1
			c0.2,0,0.6,0,0.6-0.7c0-0.4-0.4-0.4-0.9-0.4c-1.7,0-1.7-0.3-1.7-0.6c0-0.3,0.1-0.5,0.1-0.8L524.1,58.9z"/>
		<path class="st0" d="M526.9,76.8c-0.1,0.3-0.2,0.6-0.2,1.1c0,1.2,1,2.1,2.4,2.1c2.5,0,3.6-3.5,3.6-3.8c0-0.3-0.3-0.3-0.4-0.3
			c-0.4,0-0.4,0.2-0.5,0.4c-0.6,2-1.7,3-2.7,3c-0.5,0-0.6-0.3-0.6-0.9c0-0.6,0.2-1.1,0.4-1.6c0.3-0.7,0.5-1.4,0.8-2
			c0.2-0.6,1.1-2.9,1.2-3.2c0.1-0.3,0.2-0.6,0.2-0.8c0-1.2-1-2.1-2.4-2.1c-2.5,0-3.6,3.4-3.6,3.8c0,0.3,0.3,0.3,0.4,0.3
			c0.3,0,0.4-0.1,0.4-0.4c0.7-2.2,1.8-3.1,2.7-3.1c0.4,0,0.6,0.2,0.6,0.9c0,0.6-0.2,1-0.8,2.5L526.9,76.8 M532,64.1c0-0.4-0.3-1-1-1
			c-0.7,0-1.4,0.7-1.4,1.4c0,0.4,0.3,1,1,1C531.3,65.5,532,64.8,532,64.1z"/>
		<path class="st1" d="M558.2,58.4c0-0.1,0-0.2-0.6-0.8c-4.5-4.5-5.6-11.3-5.6-16.8c0-6.3,1.4-12.5,5.8-17c0.5-0.4,0.5-0.5,0.5-0.6
			c0-0.3-0.1-0.4-0.4-0.4c-0.4,0-3.6,2.4-5.7,7c-1.8,4-2.3,7.9-2.3,11c0,2.8,0.4,7.1,2.4,11.2c2.2,4.4,5.2,6.8,5.6,6.8
			C558,58.7,558.2,58.6,558.2,58.4"/>
		<path class="st0" d="M566.6,49.4c-2.2,0-2.3-2.8-2.3-3.4c0-1.7,1-5.6,1.7-7.1c1.1-2.7,3-4.2,4.5-4.2c2.3,0,2.8,2.9,2.8,3.2
			c0,0.2-2,8.1-2.1,8.2C570.6,47.1,568.6,49.4,566.6,49.4 M576.5,34.3c0-0.1-0.1-0.4-0.4-0.4c-0.4,0-1.8,1.4-2.4,2.5
			c-0.8-1.9-2.2-2.5-3.3-2.5c-4.2,0-8.7,5.3-8.7,10.5c0,3.5,2.1,5.7,4.7,5.7c1.5,0,2.9-0.9,4.2-2.2c-0.3,1.3-1.5,6.1-1.6,6.4
			c-0.3,1-0.6,1.2-2.6,1.2c-0.5,0-0.8,0-0.8,0.7c0,0,0,0.4,0.5,0.4c1.1,0,2.4-0.1,3.6-0.1c1.2,0,2.5,0.1,3.7,0.1
			c0.2,0,0.6,0,0.6-0.7c0-0.4-0.4-0.4-0.9-0.4c-1.7,0-1.7-0.3-1.7-0.6c0-0.3,0.1-0.5,0.1-0.8L576.5,34.3z"/>
		<path class="st0" d="M589.5,58.4c0-0.1,0-0.2-0.6-0.8c-4.5-4.5-5.6-11.3-5.6-16.8c0-6.3,1.4-12.5,5.8-17c0.5-0.4,0.5-0.5,0.5-0.6
			c0-0.3-0.1-0.4-0.4-0.4c-0.4,0-3.6,2.4-5.7,7c-1.8,4-2.3,7.9-2.3,11c0,2.8,0.4,7.1,2.4,11.2c2.2,4.4,5.2,6.8,5.6,6.8
			C589.3,58.7,589.5,58.6,589.5,58.4"/>
		<path class="st1" d="M598.9,35.4h3.4c0.7,0,1.1,0,1.1-0.7c0-0.4-0.4-0.4-1-0.4h-3.2c1.3-5.1,1.5-5.8,1.5-6c0-0.6-0.4-1-1-1
			c-0.1,0-1.1,0-1.4,1.3l-1.4,5.7h-3.4c-0.7,0-1.1,0-1.1,0.7c0,0.4,0.3,0.4,1,0.4h3.2c-2.6,10.2-2.7,10.8-2.7,11.5
			c0,1.9,1.4,3.3,3.3,3.3c3.7,0,5.7-5.2,5.7-5.5c0-0.4-0.3-0.4-0.4-0.4c-0.3,0-0.4,0.1-0.5,0.5c-1.5,3.7-3.4,4.6-4.7,4.6
			c-0.8,0-1.1-0.5-1.1-1.7c0-0.9,0.1-1.1,0.2-1.7L598.9,35.4"/>
		<path class="st0" d="M614.9,40.8c0-2.8-0.4-7.1-2.4-11.2c-2.2-4.4-5.2-6.8-5.6-6.8c-0.2,0-0.4,0.1-0.4,0.4c0,0.1,0,0.2,0.7,0.8
			c3.5,3.6,5.6,9.3,5.6,16.8c0,6.1-1.3,12.5-5.8,17c-0.5,0.4-0.5,0.5-0.5,0.6c0,0.2,0.1,0.4,0.4,0.4c0.4,0,3.6-2.4,5.7-7
			C614.4,47.8,614.9,43.8,614.9,40.8"/>
		<path class="st1" d="M628.8,40.8c0-2.8-0.4-7.1-2.4-11.2c-2.2-4.4-5.2-6.8-5.6-6.8c-0.2,0-0.4,0.1-0.4,0.4c0,0.1,0,0.2,0.7,0.8
			c3.5,3.6,5.6,9.3,5.6,16.8c0,6.1-1.3,12.5-5.8,17c-0.5,0.4-0.5,0.5-0.5,0.6c0,0.2,0.1,0.4,0.4,0.4c0.4,0,3.6-2.4,5.7-7
			C628.3,47.8,628.8,43.8,628.8,40.8"/>
		<path class="st0" d="M183,152.3c-2.2,0-2.3-2.8-2.3-3.4c0-1.7,1-5.6,1.7-7.1c1.1-2.7,3-4.2,4.5-4.2c2.3,0,2.8,2.9,2.8,3.2
			c0,0.2-2,8.1-2.1,8.2C187,150,185,152.3,183,152.3 M192.9,137.2c0-0.1-0.1-0.4-0.4-0.4c-0.4,0-1.8,1.4-2.4,2.5
			c-0.8-1.9-2.2-2.5-3.3-2.5c-4.2,0-8.7,5.3-8.7,10.5c0,3.5,2.1,5.7,4.7,5.7c1.5,0,2.9-0.9,4.2-2.2c-0.3,1.3-1.5,6.1-1.6,6.4
			c-0.3,1-0.6,1.2-2.6,1.2c-0.5,0-0.8,0-0.8,0.7c0,0,0,0.4,0.5,0.4c1.1,0,2.4-0.1,3.6-0.1c1.2,0,2.5,0.1,3.7,0.1
			c0.2,0,0.6,0,0.6-0.7c0-0.4-0.4-0.4-0.9-0.4c-1.7,0-1.7-0.3-1.7-0.6c0-0.3,0.1-0.5,0.1-0.8L192.9,137.2z"/>
		<path class="st1" d="M205.9,161.3c0-0.1,0-0.2-0.6-0.8c-4.5-4.5-5.6-11.3-5.6-16.8c0-6.3,1.4-12.5,5.8-17c0.5-0.4,0.5-0.5,0.5-0.6
			c0-0.3-0.1-0.4-0.4-0.4c-0.4,0-3.6,2.4-5.7,7c-1.8,4-2.3,7.9-2.3,11c0,2.8,0.4,7.1,2.4,11.2c2.2,4.4,5.2,6.8,5.6,6.8
			C205.7,161.6,205.9,161.5,205.9,161.3"/>
		<path class="st1" d="M215.4,138.3h3.4c0.7,0,1.1,0,1.1-0.7c0-0.4-0.4-0.4-1-0.4h-3.2c1.3-5.1,1.5-5.8,1.5-6c0-0.6-0.4-1-1-1
			c-0.1,0-1.1,0-1.4,1.3l-1.4,5.7h-3.4c-0.7,0-1.1,0-1.1,0.7c0,0.4,0.3,0.4,1,0.4h3.2c-2.6,10.2-2.7,10.8-2.7,11.5
			c0,1.9,1.4,3.3,3.3,3.3c3.7,0,5.7-5.2,5.7-5.5c0-0.4-0.3-0.4-0.4-0.4c-0.3,0-0.4,0.1-0.5,0.5c-1.5,3.7-3.4,4.6-4.7,4.6
			c-0.8,0-1.1-0.5-1.1-1.7c0-0.9,0.1-1.1,0.2-1.7L215.4,138.3"/>
		<path class="st1" d="M243.6,144.4h10c0.5,0,1.2,0,1.2-0.7c0-0.7-0.7-0.7-1.2-0.7h-10v-10.1c0-0.5,0-1.2-0.7-1.2
			c-0.7,0-0.7,0.7-0.7,1.2V143h-10.1c-0.5,0-1.2,0-1.2,0.7c0,0.7,0.7,0.7,1.2,0.7h10.1v10.1c0,0.5,0,1.2,0.7,1.2
			c0.7,0,0.7-0.7,0.7-1.2V144.4"/>
		<path class="st2" d="M275.5,144.6c0.6,0,1.2,0,1.2-0.6c0-0.5-0.4-0.5-1-0.5h-5.8c0.9-3.1,2.9-5.1,6.1-5.1h1.1c0.6,0,1.2,0,1.2-0.6
			c0-0.5-0.5-0.5-1.1-0.5H276c-4.7,0-9.5,3.6-9.5,9.1c0,3.9,2.7,6.8,6.5,6.8c2.3,0,4.7-1.4,4.7-1.8c0-0.1,0-0.5-0.4-0.5
			c-0.1,0-0.1,0-0.5,0.2c-1.1,0.7-2.4,1.3-3.8,1.3c-2.1,0-3.9-1.5-3.9-4.7c0-1.3,0.3-2.6,0.4-3.1H275.5"/>
		<path class="st1" d="M289.7,143.7c0-2.8-0.4-7.1-2.4-11.2c-2.2-4.4-5.2-6.8-5.6-6.8c-0.2,0-0.4,0.1-0.4,0.4c0,0.1,0,0.2,0.7,0.8
			c3.5,3.6,5.6,9.3,5.6,16.8c0,6.1-1.3,12.5-5.8,17c-0.5,0.4-0.5,0.5-0.5,0.6c0,0.2,0.1,0.4,0.4,0.4c0.4,0,3.6-2.4,5.7-7
			C289.2,150.7,289.7,146.7,289.7,143.7"/>
		<path class="st1" d="M327.9,147.9c0.5,0,1.2,0,1.2-0.7s-0.7-0.7-1.2-0.7h-21.4c-0.5,0-1.2,0-1.2,0.7s0.7,0.7,1.2,0.7H327.9
			 M327.9,140.9c0.5,0,1.2,0,1.2-0.7c0-0.7-0.7-0.7-1.2-0.7h-21.5c-0.5,0-1.2,0-1.2,0.7c0,0.7,0.7,0.7,1.2,0.7H327.9z"/>
		<path class="st0" d="M347.4,152.3c-2.2,0-2.3-2.8-2.3-3.4c0-1.7,1-5.6,1.7-7.1c1.1-2.7,3-4.2,4.5-4.2c2.3,0,2.8,2.9,2.8,3.2
			c0,0.2-2,8.1-2.1,8.2C351.4,150,349.4,152.3,347.4,152.3 M357.3,137.2c0-0.1-0.1-0.4-0.4-0.4c-0.4,0-1.8,1.4-2.4,2.5
			c-0.8-1.9-2.2-2.5-3.3-2.5c-4.2,0-8.7,5.3-8.7,10.5c0,3.5,2.1,5.7,4.7,5.7c1.5,0,2.9-0.9,4.2-2.2c-0.3,1.3-1.5,6.1-1.6,6.4
			c-0.3,1-0.6,1.2-2.6,1.2c-0.5,0-0.8,0-0.8,0.7c0,0,0,0.4,0.5,0.4c1.1,0,2.4-0.1,3.6-0.1c1.2,0,2.5,0.1,3.7,0.1
			c0.2,0,0.6,0,0.6-0.7c0-0.4-0.4-0.4-0.9-0.4c-1.7,0-1.7-0.3-1.7-0.6c0-0.3,0.1-0.5,0.1-0.8L357.3,137.2z"/>
		<path class="st0" d="M360.1,155.1c-0.1,0.3-0.2,0.6-0.2,1.1c0,1.2,1,2.1,2.4,2.1c2.5,0,3.6-3.5,3.6-3.8c0-0.3-0.3-0.3-0.4-0.3
			c-0.4,0-0.4,0.1-0.5,0.4c-0.6,2-1.7,3-2.7,3c-0.5,0-0.6-0.3-0.6-0.9c0-0.6,0.2-1.1,0.4-1.6c0.3-0.7,0.5-1.4,0.8-2
			c0.2-0.6,1.1-2.9,1.2-3.2c0.1-0.3,0.2-0.6,0.2-0.8c0-1.2-1-2.1-2.4-2.1c-2.5,0-3.6,3.4-3.6,3.8c0,0.3,0.4,0.3,0.4,0.3
			c0.4,0,0.4-0.1,0.5-0.4c0.7-2.2,1.8-3.1,2.7-3.1c0.4,0,0.6,0.2,0.6,0.9c0,0.6-0.2,1-0.8,2.5L360.1,155.1 M365.2,142.4
			c0-0.4-0.3-1-1-1c-0.7,0-1.4,0.7-1.4,1.4c0,0.4,0.3,1,1,1C364.5,143.8,365.2,143.1,365.2,142.4z"/>
		<path class="st1" d="M380.9,161.3c0-0.1,0-0.2-0.6-0.8c-4.5-4.5-5.6-11.3-5.6-16.8c0-6.3,1.4-12.5,5.8-17c0.5-0.4,0.5-0.5,0.5-0.6
			c0-0.3-0.1-0.4-0.4-0.4c-0.4,0-3.6,2.4-5.7,7c-1.8,4-2.3,7.9-2.3,11c0,2.8,0.4,7.1,2.4,11.2c2.2,4.4,5.2,6.8,5.6,6.8
			C380.7,161.6,380.9,161.5,380.9,161.3"/>
		<path class="st1" d="M390.4,138.3h3.4c0.7,0,1.1,0,1.1-0.7c0-0.4-0.4-0.4-1-0.4h-3.2c1.3-5.1,1.5-5.8,1.5-6c0-0.6-0.4-1-1-1
			c-0.1,0-1.1,0-1.4,1.3l-1.4,5.7h-3.4c-0.7,0-1.1,0-1.1,0.7c0,0.4,0.3,0.4,1,0.4h3.2c-2.6,10.2-2.7,10.8-2.7,11.5
			c0,1.9,1.4,3.3,3.3,3.3c3.7,0,5.7-5.2,5.7-5.5c0-0.4-0.3-0.4-0.4-0.4c-0.3,0-0.4,0.1-0.5,0.5c-1.5,3.7-3.4,4.6-4.7,4.6
			c-0.8,0-1.1-0.5-1.1-1.7c0-0.9,0.1-1.1,0.2-1.7L390.4,138.3"/>
		<path class="st1" d="M406.3,143.7c0-2.8-0.4-7.1-2.4-11.2c-2.2-4.4-5.2-6.8-5.6-6.8c-0.2,0-0.4,0.1-0.4,0.4c0,0.1,0,0.2,0.7,0.8
			c3.5,3.6,5.6,9.3,5.6,16.8c0,6.1-1.3,12.5-5.8,17c-0.5,0.4-0.5,0.5-0.5,0.6c0,0.2,0.1,0.4,0.4,0.4c0.4,0,3.6-2.4,5.7-7
			C405.8,150.7,406.3,146.7,406.3,143.7"/>
		<path class="st1" d="M432.6,144.4h10c0.5,0,1.2,0,1.2-0.7c0-0.7-0.7-0.7-1.2-0.7h-10v-10.1c0-0.5,0-1.2-0.7-1.2
			c-0.7,0-0.7,0.7-0.7,1.2V143h-10.1c-0.5,0-1.2,0-1.2,0.7c0,0.7,0.7,0.7,1.2,0.7h10.1v10.1c0,0.5,0,1.2,0.7,1.2
			c0.7,0,0.7-0.7,0.7-1.2V144.4"/>
		<path class="st2" d="M464.4,144.6c0.6,0,1.2,0,1.2-0.6c0-0.5-0.4-0.5-1-0.5h-5.8c0.9-3.1,2.9-5.1,6.1-5.1h1.1c0.6,0,1.2,0,1.2-0.6
			c0-0.5-0.5-0.5-1.1-0.5h-1.3c-4.7,0-9.5,3.6-9.5,9.1c0,3.9,2.7,6.8,6.5,6.8c2.3,0,4.7-1.4,4.7-1.8c0-0.1,0-0.5-0.4-0.5
			c-0.1,0-0.1,0-0.5,0.2c-1.1,0.7-2.4,1.3-3.8,1.3c-2.1,0-3.9-1.5-3.9-4.7c0-1.3,0.3-2.6,0.4-3.1H464.4"/>
		<path class="st0" d="M480.5,115c0.3-1,1.2-2,1.9-2.5c1.3-1.1,2.3-1.4,2.9-1.4c1.4,0,2.3,1.3,2.3,3.4c0,2.1-1.2,6.2-1.8,7.6
			c-1.2,2.5-2.9,3.7-4.3,3.7c-2.4,0-2.8-3-2.8-3.2c0-0.1,0-0.1,0.1-0.6L480.5,115 M474.2,130.6c-0.3,1.2-0.4,1.5-1.9,1.5
			c-0.4,0-0.8,0-0.8,0.7c0,0.3,0.2,0.4,0.5,0.4c1,0,2-0.1,3-0.1c1.2,0,2.4,0.1,3.6,0.1c0.2,0,0.6,0,0.6-0.7c0-0.4-0.4-0.4-0.9-0.4
			c-1.8,0-1.8-0.3-1.8-0.6c0-0.4,1.5-6.3,1.8-7.2c0.5,1,1.5,2.3,3.3,2.3c4.2,0,8.7-5.2,8.7-10.5c0-3.4-2-5.7-4.8-5.7
			c-1.8,0-3.5,1.3-4.7,2.7c-0.4-1.9-1.9-2.7-3.2-2.7c-1.7,0-2.3,1.4-2.7,2c-0.6,1.2-1.1,3.4-1.1,3.5c0,0.4,0.4,0.4,0.4,0.4
			c0.4,0,0.4,0,0.6-0.8c0.6-2.5,1.3-4.3,2.6-4.3c0.6,0,1.1,0.3,1.1,1.7c0,0.8-0.1,1.2-0.3,1.8L474.2,130.6z"/>
		<path class="st0" d="M493.6,128.6c-0.1,0.3-0.2,0.6-0.2,1.1c0,1.2,1,2.1,2.4,2.1c2.5,0,3.6-3.5,3.6-3.8c0-0.3-0.3-0.3-0.4-0.3
			c-0.4,0-0.4,0.2-0.5,0.4c-0.6,2-1.7,3-2.7,3c-0.5,0-0.6-0.3-0.6-0.9c0-0.6,0.2-1.1,0.4-1.6c0.3-0.7,0.5-1.4,0.8-2
			c0.2-0.6,1.1-2.9,1.2-3.2c0.1-0.3,0.2-0.6,0.2-0.8c0-1.2-1-2.1-2.4-2.1c-2.5,0-3.6,3.4-3.6,3.8c0,0.3,0.4,0.3,0.4,0.3
			c0.4,0,0.4-0.1,0.5-0.4c0.7-2.2,1.8-3.1,2.7-3.1c0.4,0,0.6,0.2,0.6,0.9c0,0.6-0.2,1-0.8,2.5L493.6,128.6 M498.7,115.9
			c0-0.4-0.3-1-1-1c-0.7,0-1.4,0.7-1.4,1.4c0,0.4,0.3,1,1,1C498,117.3,498.7,116.6,498.7,115.9z"/>
		<path class="st1" d="M523.3,138.3c0-0.1-0.1-0.2-0.1-0.3c-1.7-1.8-4.1-4.7-5.6-10.5c-0.8-3.3-1.1-7-1.1-10.3
			c0-9.4,2.3-16.1,6.6-20.7c0.3-0.3,0.3-0.4,0.3-0.5c0-0.4-0.3-0.4-0.4-0.4c-0.5,0-2.5,2.2-2.9,2.7c-3.7,4.3-6,10.8-6,18.8
			c0,5.1,0.9,12.3,5.6,18.4c0.4,0.4,2.7,3.2,3.3,3.2C523,138.7,523.3,138.7,523.3,138.3"/>
		<path class="st1" d="M532.4,111.8h3.4c0.7,0,1.1,0,1.1-0.7c0-0.4-0.4-0.4-1-0.4h-3.2c1.3-5.1,1.5-5.8,1.5-6c0-0.6-0.4-1-1-1
			c-0.1,0-1.1,0-1.4,1.3l-1.4,5.7h-3.4c-0.7,0-1.1,0-1.1,0.7c0,0.4,0.3,0.4,1,0.4h3.2c-2.6,10.2-2.7,10.8-2.7,11.5
			c0,1.9,1.4,3.3,3.3,3.3c3.7,0,5.7-5.2,5.7-5.5c0-0.4-0.3-0.4-0.4-0.4c-0.3,0-0.4,0.1-0.5,0.5c-1.5,3.7-3.4,4.6-4.7,4.6
			c-0.8,0-1.1-0.5-1.1-1.7c0-0.9,0.1-1.1,0.2-1.7L532.4,111.8"/>
		<path class="st1" d="M560.6,117.9h10c0.5,0,1.2,0,1.2-0.7c0-0.7-0.7-0.7-1.2-0.7h-10v-10.1c0-0.5,0-1.2-0.7-1.2
			c-0.7,0-0.7,0.7-0.7,1.2v10.1h-10.1c-0.5,0-1.2,0-1.2,0.7c0,0.7,0.7,0.7,1.2,0.7h10.1V128c0,0.5,0,1.2,0.7,1.2
			c0.7,0,0.7-0.7,0.7-1.2V117.9"/>
		<path class="st2" d="M595.9,106.5c0.4,0,0.9,0,0.9-0.5c0-0.4-0.4-0.4-0.9-0.4h-4.5c0.8-2.3,2.4-3.4,4.6-3.4h1c0.4,0,0.9,0,0.9-0.5
			c0-0.4-0.3-0.4-0.8-0.4H596c-3.3,0-7.1,2.3-7.1,6.1c0,2.9,2.2,4.9,5.1,4.9c0.8,0,1.8-0.1,3.1-0.9c0.5-0.3,0.6-0.4,0.6-0.5
			c0-0.1,0-0.5-0.4-0.5c-0.1,0-0.2,0-0.3,0.1c-0.9,0.6-1.9,1.1-3,1.1c-1,0-3.1-0.5-3.1-3.4c0-0.4,0-0.9,0.2-1.8H595.9"/>
		<line class="st3" x1="586.1" y1="117.2" x2="600.4" y2="117.2"/>
		<path class="st1" d="M598.8,133.9h-0.9c-0.1,0.6-0.3,2-0.7,2.3c-0.2,0.2-2.1,0.2-2.5,0.2h-4.6c2.6-2.3,3.5-3,5-4.2
			c1.9-1.5,3.6-3,3.6-5.4c0-3-2.7-4.9-5.9-4.9c-3.1,0-5.2,2.2-5.2,4.5c0,1.3,1.1,1.4,1.3,1.4c0.6,0,1.3-0.4,1.3-1.3
			c0-0.5-0.2-1.3-1.5-1.3c0.8-1.8,2.5-2.3,3.7-2.3c2.5,0,3.8,2,3.8,4c0,2.2-1.6,3.9-2.4,4.8l-6,6c-0.3,0.2-0.3,0.3-0.3,1H598
			L598.8,133.9"/>
		<path class="st1" d="M615.6,117.2c0-5.1-0.9-12.3-5.6-18.4c-0.4-0.4-2.7-3.2-3.3-3.2c-0.2,0-0.4,0.1-0.4,0.4
			c0,0.1,0.1,0.3,0.2,0.4c1.7,1.9,4.1,4.8,5.5,10.5c0.8,3.3,1.1,7,1.1,10.3c0,3.6-0.3,7.3-1.3,10.8c-1.4,5-3.5,7.9-5.3,9.9
			c-0.3,0.3-0.3,0.4-0.3,0.5c0,0.3,0.3,0.4,0.4,0.4c0.5,0,2.5-2.2,2.9-2.7C613.3,131.7,615.6,125.2,615.6,117.2"/>
		<line class="st3" x1="472.6" y1="143.7" x2="621.1" y2="143.7"/>
		<path class="st1" d="M528.3,175.2c-0.1,0.5-0.3,1.4-0.3,1.5c0,0.6,0.5,1,1,1c0.4,0,1.1-0.3,1.3-1c0-0.1,0.5-1.8,0.7-2.7l0.8-3.2
			c0.2-0.8,0.4-1.6,0.6-2.4c0.1-0.6,0.4-1.7,0.5-1.8c0.5-1.1,2.4-4.4,5.9-4.4c1.6,0,1.9,1.3,1.9,2.5c0,0.9-0.3,1.9-0.5,3l-1,4.2
			l-0.7,2.7c-0.1,0.7-0.5,1.9-0.5,2.1c0,0.6,0.5,1,1,1c1.1,0,1.3-0.9,1.6-2c0.5-2,1.8-7.3,2.2-8.7c0.1-0.5,2-4.8,5.9-4.8
			c1.5,0,1.9,1.2,1.9,2.5c0,2-1.5,6.1-2.2,8c-0.3,0.9-0.5,1.3-0.5,2c0,1.7,1.3,2.9,2.9,2.9c3.4,0,4.7-5.2,4.7-5.5
			c0-0.4-0.3-0.4-0.4-0.4c-0.4,0-0.4,0.1-0.5,0.6c-0.5,1.9-1.7,4.5-3.7,4.5c-0.6,0-0.9-0.4-0.9-1.2c0-0.9,0.3-1.8,0.6-2.6
			c0.7-1.9,2.2-5.9,2.2-7.9c0-2.3-1.4-3.8-4.1-3.8c-2.7,0-4.5,1.6-5.9,3.5c0-0.5-0.1-1.7-1.2-2.5c-0.9-0.8-2-0.9-2.9-0.9
			c-3.2,0-5,2.3-5.6,3.1c-0.2-2-1.7-3.1-3.3-3.1c-1.7,0-2.3,1.4-2.7,2c-0.6,1.3-1.1,3.4-1.1,3.5c0,0.4,0.4,0.4,0.4,0.4
			c0.4,0,0.4,0,0.6-0.8c0.6-2.5,1.3-4.3,2.6-4.3c0.6,0,1.1,0.3,1.1,1.7c0,0.8-0.1,1.1-0.6,3L528.3,175.2"/>
		<path class="st1" d="M559.6,179.7c-0.1,0.3-0.2,0.6-0.2,1.1c0,1.2,1,2.1,2.4,2.1c2.5,0,3.6-3.5,3.6-3.8c0-0.3-0.3-0.3-0.4-0.3
			c-0.4,0-0.4,0.2-0.5,0.4c-0.6,2-1.7,3-2.7,3c-0.5,0-0.6-0.3-0.6-0.9c0-0.6,0.2-1.1,0.4-1.6c0.3-0.7,0.5-1.4,0.8-2
			c0.2-0.6,1.1-2.9,1.2-3.2c0.1-0.3,0.2-0.6,0.2-0.8c0-1.2-1-2.1-2.4-2.1c-2.5,0-3.6,3.4-3.6,3.8c0,0.3,0.4,0.3,0.4,0.3
			c0.4,0,0.4-0.1,0.5-0.4c0.7-2.2,1.8-3.1,2.7-3.1c0.4,0,0.6,0.2,0.6,0.9c0,0.6-0.2,1-0.8,2.5L559.6,179.7 M564.7,167
			c0-0.4-0.3-1-1-1c-0.7,0-1.4,0.7-1.4,1.4c0,0.4,0.3,1,1,1C564,168.4,564.7,167.7,564.7,167z"/>
		<path class="st0" d="M171.9,235c0.3-1,1.2-2,1.9-2.5c1.3-1.1,2.3-1.4,2.9-1.4c1.4,0,2.3,1.3,2.3,3.4c0,2.1-1.2,6.2-1.8,7.6
			c-1.2,2.5-2.9,3.7-4.3,3.7c-2.4,0-2.8-3-2.8-3.2c0-0.1,0-0.1,0.1-0.6L171.9,235 M165.6,250.6c-0.3,1.2-0.4,1.5-1.9,1.5
			c-0.4,0-0.8,0-0.8,0.7c0,0.3,0.2,0.4,0.5,0.4c1,0,2-0.1,3-0.1c1.2,0,2.4,0.1,3.6,0.1c0.2,0,0.6,0,0.6-0.7c0-0.4-0.4-0.4-0.9-0.4
			c-1.8,0-1.8-0.3-1.8-0.6c0-0.4,1.5-6.3,1.8-7.2c0.5,1,1.5,2.3,3.3,2.3c4.2,0,8.7-5.2,8.7-10.5c0-3.4-2-5.7-4.8-5.7
			c-1.8,0-3.5,1.3-4.7,2.7c-0.4-1.9-1.9-2.7-3.2-2.7c-1.7,0-2.3,1.4-2.7,2c-0.6,1.2-1.1,3.4-1.1,3.5c0,0.4,0.4,0.4,0.4,0.4
			c0.4,0,0.4,0,0.6-0.8c0.6-2.5,1.3-4.3,2.6-4.3c0.6,0,1.1,0.3,1.1,1.7c0,0.8-0.1,1.2-0.3,1.8L165.6,250.6z"/>
		<path class="st0" d="M185.1,248.6c-0.1,0.3-0.2,0.6-0.2,1.1c0,1.2,1,2.1,2.4,2.1c2.5,0,3.6-3.5,3.6-3.8c0-0.3-0.3-0.3-0.4-0.3
			c-0.4,0-0.4,0.2-0.5,0.4c-0.6,2-1.7,3-2.7,3c-0.5,0-0.6-0.3-0.6-0.9c0-0.6,0.2-1.1,0.4-1.6c0.3-0.7,0.5-1.4,0.8-2
			c0.2-0.6,1.1-2.9,1.2-3.2c0.1-0.3,0.2-0.6,0.2-0.8c0-1.2-1-2.1-2.4-2.1c-2.5,0-3.6,3.4-3.6,3.8c0,0.3,0.4,0.3,0.4,0.3
			c0.3,0,0.4-0.1,0.4-0.4c0.7-2.2,1.8-3.1,2.7-3.1c0.4,0,0.6,0.2,0.6,0.9c0,0.6-0.2,1-0.8,2.5L185.1,248.6 M190.2,235.9
			c0-0.4-0.3-1-1-1c-0.7,0-1.4,0.7-1.4,1.4c0,0.4,0.3,1,1,1C189.5,237.3,190.2,236.6,190.2,235.9z"/>
		<path class="st1" d="M205.9,254.8c0-0.1,0-0.2-0.6-0.8c-4.5-4.5-5.6-11.3-5.6-16.8c0-6.3,1.4-12.5,5.8-17c0.5-0.4,0.5-0.5,0.5-0.6
			c0-0.3-0.1-0.4-0.4-0.4c-0.4,0-3.6,2.4-5.7,7c-1.8,4-2.3,7.9-2.3,11c0,2.8,0.4,7.1,2.4,11.2c2.2,4.4,5.2,6.8,5.6,6.8
			C205.7,255.1,205.9,255,205.9,254.8"/>
		<path class="st1" d="M215.4,231.8h3.4c0.7,0,1.1,0,1.1-0.7c0-0.4-0.4-0.4-1-0.4h-3.2c1.3-5.1,1.5-5.8,1.5-6c0-0.6-0.4-1-1-1
			c-0.1,0-1.1,0-1.4,1.3l-1.4,5.7h-3.4c-0.7,0-1.1,0-1.1,0.7c0,0.4,0.3,0.4,1,0.4h3.2c-2.6,10.2-2.7,10.8-2.7,11.5
			c0,1.9,1.4,3.3,3.3,3.3c3.7,0,5.7-5.2,5.7-5.5c0-0.4-0.3-0.4-0.4-0.4c-0.3,0-0.4,0.1-0.5,0.5c-1.5,3.7-3.4,4.6-4.7,4.6
			c-0.8,0-1.1-0.5-1.1-1.7c0-0.9,0.1-1.1,0.2-1.7L215.4,231.8"/>
		<path class="st1" d="M243.6,237.9h10c0.5,0,1.2,0,1.2-0.7c0-0.7-0.7-0.7-1.2-0.7h-10v-10.1c0-0.5,0-1.2-0.7-1.2
			c-0.7,0-0.7,0.7-0.7,1.2v10.1h-10.1c-0.5,0-1.2,0-1.2,0.7c0,0.7,0.7,0.7,1.2,0.7h10.1V248c0,0.5,0,1.2,0.7,1.2
			c0.7,0,0.7-0.7,0.7-1.2V237.9"/>
		<path class="st2" d="M275.5,238.1c0.6,0,1.2,0,1.2-0.6c0-0.5-0.4-0.5-1-0.5h-5.8c0.9-3.1,2.9-5.1,6.1-5.1h1.1c0.6,0,1.2,0,1.2-0.6
			c0-0.5-0.5-0.5-1.1-0.5H276c-4.7,0-9.5,3.6-9.5,9.1c0,3.9,2.7,6.8,6.5,6.8c2.3,0,4.7-1.4,4.7-1.8c0-0.1,0-0.5-0.4-0.5
			c-0.1,0-0.1,0-0.5,0.2c-1.1,0.7-2.4,1.3-3.8,1.3c-2.1,0-3.9-1.5-3.9-4.7c0-1.3,0.3-2.6,0.4-3.1H275.5"/>
		<path class="st1" d="M289.7,237.2c0-2.8-0.4-7.1-2.4-11.2c-2.2-4.4-5.2-6.8-5.6-6.8c-0.2,0-0.4,0.1-0.4,0.4c0,0.1,0,0.2,0.7,0.8
			c3.5,3.6,5.6,9.3,5.6,16.8c0,6.1-1.3,12.5-5.8,17c-0.5,0.4-0.5,0.5-0.5,0.6c0,0.2,0.1,0.4,0.4,0.4c0.4,0,3.6-2.4,5.7-7
			C289.2,244.2,289.7,240.2,289.7,237.2"/>
		<path class="st1" d="M327.9,241.4c0.5,0,1.2,0,1.2-0.7c0-0.7-0.7-0.7-1.2-0.7h-21.4c-0.5,0-1.2,0-1.2,0.7c0,0.7,0.7,0.7,1.2,0.7
			H327.9 M327.9,234.4c0.5,0,1.2,0,1.2-0.7c0-0.7-0.7-0.7-1.2-0.7h-21.5c-0.5,0-1.2,0-1.2,0.7c0,0.7,0.7,0.7,1.2,0.7H327.9z"/>
		<path class="st0" d="M349,235c0.3-1,1.2-2,1.9-2.5c1.3-1.1,2.3-1.4,2.9-1.4c1.4,0,2.3,1.3,2.3,3.4c0,2.1-1.2,6.2-1.8,7.6
			c-1.2,2.5-2.9,3.7-4.3,3.7c-2.4,0-2.8-3-2.8-3.2c0-0.1,0-0.1,0.1-0.6L349,235 M342.7,250.6c-0.3,1.2-0.4,1.5-1.9,1.5
			c-0.4,0-0.8,0-0.8,0.7c0,0.3,0.2,0.4,0.5,0.4c1,0,2-0.1,3-0.1c1.2,0,2.4,0.1,3.6,0.1c0.2,0,0.6,0,0.6-0.7c0-0.4-0.4-0.4-0.9-0.4
			c-1.8,0-1.8-0.3-1.8-0.6c0-0.4,1.5-6.3,1.8-7.2c0.5,1,1.5,2.3,3.3,2.3c4.2,0,8.7-5.2,8.7-10.5c0-3.4-2-5.7-4.8-5.7
			c-1.8,0-3.5,1.3-4.7,2.7c-0.4-1.9-1.9-2.7-3.2-2.7c-1.7,0-2.3,1.4-2.7,2c-0.6,1.2-1.1,3.4-1.1,3.5c0,0.4,0.4,0.4,0.4,0.4
			c0.4,0,0.4,0,0.6-0.8c0.6-2.5,1.3-4.3,2.6-4.3c0.6,0,1.1,0.3,1.1,1.7c0,0.8-0.1,1.2-0.3,1.8L342.7,250.6z"/>
		<path class="st0" d="M362.1,248.6c-0.1,0.3-0.2,0.6-0.2,1.1c0,1.2,1,2.1,2.4,2.1c2.5,0,3.6-3.5,3.6-3.8c0-0.3-0.3-0.3-0.4-0.3
			c-0.4,0-0.4,0.2-0.5,0.4c-0.6,2-1.7,3-2.7,3c-0.5,0-0.6-0.3-0.6-0.9c0-0.6,0.2-1.1,0.4-1.6c0.3-0.7,0.5-1.4,0.8-2
			c0.2-0.6,1.1-2.9,1.2-3.2c0.1-0.3,0.2-0.6,0.2-0.8c0-1.2-1-2.1-2.4-2.1c-2.5,0-3.6,3.4-3.6,3.8c0,0.3,0.4,0.3,0.4,0.3
			c0.4,0,0.4-0.1,0.5-0.4c0.7-2.2,1.8-3.1,2.7-3.1c0.4,0,0.6,0.2,0.6,0.9c0,0.6-0.2,1-0.8,2.5L362.1,248.6 M367.2,235.9
			c0-0.4-0.3-1-1-1c-0.7,0-1.4,0.7-1.4,1.4c0,0.4,0.3,1,1,1C366.5,237.3,367.2,236.6,367.2,235.9z"/>
		<path class="st1" d="M395.6,269.1c0.1,0,0.4,0.4,0.4,0.4h0.8c0.1,0,0.4,0,0.4-0.4c0-0.1-0.1-0.2-0.1-0.3c-1.3-1.3-3.2-3.3-5.5-7.2
			c-3.9-6.9-5.3-15.8-5.3-24.4c0-15.9,4.5-25.3,10.8-31.7c0.1-0.1,0.1-0.2,0.1-0.3c0-0.4-0.3-0.4-0.7-0.4c-0.5,0-0.5,0-0.9,0.3
			c-3.4,2.9-7.3,7.9-9.7,15.5c-1.5,4.7-2.4,10.5-2.4,16.5c0,8.5,1.5,18.1,7.2,26.5c1,1.4,2.3,2.9,2.3,2.9c0.4,0.4,0.9,1,1.2,1.3
			L395.6,269.1"/>
		<path class="st1" d="M405.9,231.8h3.4c0.7,0,1.1,0,1.1-0.7c0-0.4-0.4-0.4-1-0.4h-3.2c1.3-5.1,1.5-5.8,1.5-6c0-0.6-0.4-1-1-1
			c-0.1,0-1.1,0-1.4,1.3l-1.4,5.7h-3.4c-0.7,0-1.1,0-1.1,0.7c0,0.4,0.3,0.4,1,0.4h3.2c-2.6,10.2-2.7,10.8-2.7,11.5
			c0,1.9,1.4,3.3,3.3,3.3c3.7,0,5.7-5.2,5.7-5.5c0-0.4-0.3-0.4-0.4-0.4c-0.3,0-0.4,0.1-0.5,0.5c-1.5,3.7-3.4,4.6-4.7,4.6
			c-0.8,0-1.1-0.5-1.1-1.7c0-0.9,0.1-1.1,0.2-1.7L405.9,231.8"/>
		<path class="st1" d="M434.1,237.9h10c0.5,0,1.2,0,1.2-0.7c0-0.7-0.7-0.7-1.2-0.7h-10v-10.1c0-0.5,0-1.2-0.7-1.2
			c-0.7,0-0.7,0.7-0.7,1.2v10.1h-10.1c-0.5,0-1.2,0-1.2,0.7c0,0.7,0.7,0.7,1.2,0.7h10.1V248c0,0.5,0,1.2,0.7,1.2
			c0.7,0,0.7-0.7,0.7-1.2V237.9"/>
		<path class="st2" d="M472,213.9c0.6,0,1.2,0,1.2-0.6c0-0.5-0.4-0.5-1-0.5h-5.8c0.9-3.1,2.9-5.1,6.1-5.1h1.1c0.6,0,1.2,0,1.2-0.6
			c0-0.5-0.5-0.5-1.1-0.5h-1.3c-4.7,0-9.5,3.6-9.5,9.1c0,3.9,2.7,6.8,6.5,6.8c2.3,0,4.7-1.4,4.7-1.8c0-0.1,0-0.5-0.4-0.5
			c-0.1,0-0.1,0-0.5,0.2c-1.1,0.7-2.4,1.3-3.8,1.3c-2.1,0-3.9-1.5-3.9-4.7c0-1.3,0.3-2.6,0.4-3.1H472"/>
		<line class="st3" x1="459.6" y1="237.2" x2="477.5" y2="237.2"/>
		<path class="st1" d="M464.2,268l3.8-3.7c5.6-5,7.8-6.9,7.8-10.5c0-4.1-3.2-7-7.6-7c-4.1,0-6.7,3.3-6.7,6.5c0,2,1.8,2,1.9,2
			c0.6,0,1.9-0.4,1.9-1.9c0-0.9-0.6-1.9-1.9-1.9c-0.3,0-0.4,0-0.5,0c0.8-2.3,2.8-3.7,4.8-3.7c3.3,0,4.8,2.9,4.8,5.9
			c0,2.9-1.8,5.7-3.8,7.9l-6.9,7.7c-0.4,0.4-0.4,0.5-0.4,1.3h13.3l1-6.2h-0.9c-0.2,1.1-0.4,2.7-0.8,3.2c-0.3,0.3-2.6,0.3-3.4,0.3
			H464.2"/>
		<path class="st1" d="M496.7,237.2c0-10.3-2.4-21.3-9.5-29.3c-0.5-0.6-1.8-2-2.7-2.7c-0.3-0.2-0.3-0.2-0.8-0.2
			c-0.4,0-0.7,0-0.7,0.4c0,0.1,0.1,0.3,0.2,0.4c1.2,1.3,3.2,3.2,5.4,7.2c3.9,6.9,5.3,15.8,5.3,24.4c0,15.6-4.3,25.1-10.8,31.7
			c-0.1,0.1-0.1,0.2-0.1,0.3c0,0.4,0.3,0.4,0.7,0.4c0.5,0,0.5,0,0.9-0.3c3.4-2.9,7.3-7.9,9.7-15.5
			C495.9,248.8,496.7,243,496.7,237.2"/>
		<path class="st1" d="M534.9,237.9c0.6,0,1.3,0,1.3-0.7c0-0.7-0.6-0.7-1.3-0.7h-19.4c-0.6,0-1.3,0-1.3,0.7c0,0.7,0.6,0.7,1.3,0.7
			H534.9"/>
		<path class="st2" d="M563.7,213.9c0.6,0,1.2,0,1.2-0.6c0-0.5-0.4-0.5-1-0.5h-5.8c0.9-3.1,2.9-5.1,6.1-5.1h1.1c0.6,0,1.2,0,1.2-0.6
			c0-0.5-0.5-0.5-1.1-0.5h-1.3c-4.7,0-9.5,3.6-9.5,9.1c0,3.9,2.7,6.8,6.5,6.8c2.3,0,4.7-1.4,4.7-1.8c0-0.1,0-0.5-0.4-0.5
			c-0.1,0-0.1,0-0.5,0.2c-1.1,0.7-2.4,1.3-3.8,1.3c-2.1,0-3.9-1.5-3.9-4.7c0-1.3,0.3-2.6,0.4-3.1H563.7"/>
		<line class="st3" x1="551.4" y1="237.2" x2="569.3" y2="237.2"/>
		<path class="st1" d="M556,268l3.8-3.7c5.6-5,7.8-6.9,7.8-10.5c0-4.1-3.2-7-7.6-7c-4.1,0-6.7,3.3-6.7,6.5c0,2,1.8,2,1.9,2
			c0.6,0,1.9-0.4,1.9-1.9c0-0.9-0.6-1.9-1.9-1.9c-0.3,0-0.4,0-0.5,0c0.8-2.3,2.8-3.7,4.8-3.7c3.3,0,4.8,2.9,4.8,5.9
			c0,2.9-1.8,5.7-3.8,7.9l-6.9,7.7c-0.4,0.4-0.4,0.5-0.4,1.3h13.3l1-6.2h-0.9c-0.2,1.1-0.4,2.7-0.8,3.2c-0.3,0.3-2.6,0.3-3.4,0.3
			H556"/>
		<path class="st1" d="M586,221.8c-4,0-4-3.7-4-4.1c0-1,0.9-6,2.4-8.2c1.4-2,3.2-3.2,5.4-3.2c3.9,0,4,4,4,4.7
			C593.9,213.7,591.6,221.8,586,221.8 M594.5,209.8c-0.4-2.2-1.8-4.2-4.6-4.2c-2.2,0-4.5,0.6-7.3,3.4c-3,3-3.2,6.3-3.2,7.4
			c0,2.2,1.6,6.4,6.6,6.4c8.5,0,12.3-12.1,12.3-17.2c0-5.7-3.3-9.3-7.8-9.3c-5.2,0-6.9,4.7-6.9,5.7c0,0.5,0.3,1.3,1.4,1.3
			c1.2,0,1.9-1.1,1.9-1.9c0-1.3-1.1-1.3-1.7-1.3c1.6-2.7,4.1-2.9,5.2-2.9c2.6,0,5.1,1.9,5.1,6.5
			C595.5,205.1,595.3,206.9,594.5,209.8L594.5,209.8z"/>
		<path class="st0" d="M621.7,201.2c0.4-1.5,1-2.5,3.9-2.7c0.2,0,0.6,0,0.6-0.7c0,0,0-0.4-0.5-0.4c-1.2,0-2.4,0.1-3.7,0.1
			c-1.2,0-2.5-0.1-3.7-0.1c-0.2,0-0.6,0-0.6,0.7c0,0.4,0.4,0.4,0.6,0.4c2,0,2.4,0.8,2.4,1.6c0,0.1-0.1,0.6-0.1,0.8l-3.2,12.8
			c-1.2,4.8-5.3,7.9-8.9,7.9c-2.4,0-4.4-1.6-4.4-4.7c0-0.1,0-1.2,0.4-2.8l3.5-14c0.3-1.3,0.4-1.7,3-1.7c0.9,0,1.2,0,1.2-0.7
			c0-0.4-0.4-0.4-0.5-0.4c-1,0-3.6,0.1-4.6,0.1c-1,0-3.6-0.1-4.6-0.1c-0.3,0-0.7,0-0.7,0.7c0,0.4,0.3,0.4,1,0.4c0.1,0,0.8,0,1.4,0.1
			c0.6,0.1,1,0.1,1,0.6c0,0.2-0.4,1.7-0.6,2.5l-0.8,3.2c-0.3,1.4-2,8.2-2.2,8.9c-0.3,1-0.3,1.5-0.3,2.1c0,4.4,3.3,6.9,7,6.9
			c4.5,0,9-4.1,10.2-8.8L621.7,201.2"/>
		<line class="st3" x1="577.9" y1="237.2" x2="627.3" y2="237.2"/>
		<path class="st1" d="M586.2,270.6c-4,0-4-3.7-4-4.1c0-1,0.9-6,2.4-8.2c1.4-2,3.2-3.2,5.4-3.2c3.9,0,4,4,4,4.7
			C594.1,262.5,591.8,270.6,586.2,270.6 M594.7,258.6c-0.4-2.2-1.8-4.2-4.6-4.2c-2.2,0-4.5,0.6-7.3,3.4c-3,3-3.2,6.3-3.2,7.4
			c0,2.2,1.6,6.4,6.6,6.4c8.5,0,12.3-12.1,12.3-17.2c0-5.7-3.3-9.3-7.8-9.3c-5.2,0-6.9,4.7-6.9,5.7c0,0.5,0.3,1.3,1.4,1.3
			c1.2,0,1.9-1.1,1.9-1.9c0-1.3-1.1-1.3-1.7-1.3c1.6-2.7,4.1-2.9,5.2-2.9c2.6,0,5.1,1.9,5.1,6.5
			C595.7,253.9,595.5,255.7,594.7,258.6L594.7,258.6z"/>
		<path class="st0" d="M605.5,270.4c-2.2,0-2.3-2.8-2.3-3.4c0-1.7,1-5.6,1.7-7.1c1.1-2.7,3-4.2,4.5-4.2c2.3,0,2.8,2.9,2.8,3.2
			c0,0.2-2,8.1-2.1,8.2C609.5,268.1,607.5,270.4,605.5,270.4 M615.4,255.3c0-0.1-0.1-0.4-0.4-0.4c-0.4,0-1.8,1.4-2.4,2.5
			c-0.8-1.9-2.2-2.5-3.3-2.5c-4.2,0-8.7,5.3-8.7,10.5c0,3.5,2.1,5.7,4.7,5.7c1.5,0,2.9-0.9,4.2-2.2c-0.3,1.3-1.5,6.1-1.6,6.4
			c-0.3,1-0.6,1.1-2.6,1.2c-0.5,0-0.8,0-0.8,0.7c0,0,0,0.4,0.5,0.4c1.1,0,2.4-0.1,3.6-0.1c1.2,0,2.5,0.1,3.7,0.1
			c0.2,0,0.6,0,0.6-0.7c0-0.4-0.4-0.4-0.9-0.4c-1.7,0-1.7-0.3-1.7-0.6c0-0.3,0.1-0.5,0.1-0.8L615.4,255.3z"/>
		<path class="st0" d="M618.2,273.2c-0.1,0.3-0.2,0.6-0.2,1.1c0,1.2,1,2.1,2.4,2.1c2.5,0,3.6-3.5,3.6-3.8c0-0.3-0.3-0.3-0.4-0.3
			c-0.4,0-0.4,0.1-0.5,0.4c-0.6,2-1.7,3-2.7,3c-0.5,0-0.6-0.3-0.6-0.9c0-0.6,0.2-1.1,0.4-1.6c0.3-0.7,0.5-1.4,0.8-2
			c0.2-0.6,1.1-2.9,1.2-3.2c0.1-0.3,0.2-0.6,0.2-0.8c0-1.2-1-2.1-2.4-2.1c-2.5,0-3.6,3.4-3.6,3.8c0,0.3,0.3,0.3,0.4,0.3
			c0.3,0,0.4-0.1,0.5-0.4c0.7-2.2,1.8-3.1,2.7-3.1c0.4,0,0.6,0.2,0.6,0.9c0,0.6-0.2,1-0.8,2.5L618.2,273.2 M623.3,260.5
			c0-0.4-0.3-1-1-1c-0.7,0-1.4,0.7-1.4,1.4c0,0.4,0.3,1,1,1C622.6,261.9,623.3,261.2,623.3,260.5z"/>
		<path class="st1" d="M649.5,254.8c0-0.1,0-0.2-0.6-0.8c-4.5-4.5-5.6-11.3-5.6-16.8c0-6.3,1.4-12.5,5.8-17c0.5-0.4,0.5-0.5,0.5-0.6
			c0-0.3-0.1-0.4-0.4-0.4c-0.4,0-3.6,2.4-5.7,7c-1.8,4-2.3,7.9-2.3,11c0,2.8,0.4,7.1,2.4,11.2c2.2,4.4,5.2,6.8,5.6,6.8
			C649.3,255.1,649.5,255,649.5,254.8"/>
		<path class="st0" d="M657.9,245.8c-2.2,0-2.3-2.8-2.3-3.4c0-1.7,1-5.6,1.7-7.1c1.1-2.7,3-4.2,4.5-4.2c2.3,0,2.8,2.9,2.8,3.2
			c0,0.2-2,8.1-2.1,8.2C661.9,243.5,659.9,245.8,657.9,245.8 M667.8,230.7c0-0.1-0.1-0.4-0.4-0.4c-0.4,0-1.8,1.4-2.4,2.5
			c-0.8-1.9-2.2-2.5-3.3-2.5c-4.2,0-8.7,5.3-8.7,10.5c0,3.5,2.1,5.7,4.7,5.7c1.5,0,2.9-0.9,4.2-2.2c-0.3,1.3-1.5,6.1-1.6,6.4
			c-0.3,1-0.6,1.2-2.6,1.2c-0.5,0-0.8,0-0.8,0.7c0,0,0,0.4,0.5,0.4c1.1,0,2.4-0.1,3.6-0.1c1.2,0,2.5,0.1,3.7,0.1
			c0.2,0,0.6,0,0.6-0.7c0-0.4-0.4-0.4-0.9-0.4c-1.7,0-1.7-0.3-1.7-0.6c0-0.3,0.1-0.5,0.1-0.8L667.8,230.7z"/>
		<path class="st0" d="M680.8,254.8c0-0.1,0-0.2-0.6-0.8c-4.5-4.5-5.6-11.3-5.6-16.8c0-6.3,1.4-12.5,5.8-17c0.5-0.4,0.5-0.5,0.5-0.6
			c0-0.3-0.1-0.4-0.4-0.4c-0.4,0-3.6,2.4-5.7,7c-1.8,4-2.3,7.9-2.3,11c0,2.8,0.4,7.1,2.4,11.2c2.2,4.4,5.2,6.8,5.6,6.8
			C680.6,255.1,680.8,255,680.8,254.8"/>
		<path class="st1" d="M690.2,231.8h3.4c0.7,0,1.1,0,1.1-0.7c0-0.4-0.4-0.4-1-0.4h-3.2c1.3-5.1,1.5-5.8,1.5-6c0-0.6-0.4-1-1-1
			c-0.1,0-1.1,0-1.4,1.3l-1.4,5.7h-3.4c-0.7,0-1.1,0-1.1,0.7c0,0.4,0.3,0.4,1,0.4h3.2c-2.6,10.2-2.7,10.8-2.7,11.5
			c0,1.9,1.4,3.3,3.3,3.3c3.7,0,5.7-5.2,5.7-5.5c0-0.4-0.3-0.4-0.4-0.4c-0.3,0-0.4,0.1-0.5,0.5c-1.5,3.7-3.4,4.6-4.7,4.6
			c-0.8,0-1.1-0.5-1.1-1.7c0-0.9,0.1-1.1,0.2-1.7L690.2,231.8"/>
		<path class="st1" d="M718.4,237.9h10c0.5,0,1.2,0,1.2-0.7c0-0.7-0.7-0.7-1.2-0.7h-10v-10.1c0-0.5,0-1.2-0.7-1.2
			c-0.7,0-0.7,0.7-0.7,1.2v10.1h-10.1c-0.5,0-1.2,0-1.2,0.7c0,0.7,0.7,0.7,1.2,0.7h10.1V248c0,0.5,0,1.2,0.7,1.2
			c0.7,0,0.7-0.7,0.7-1.2V237.9"/>
		<path class="st2" d="M750.3,238.1c0.6,0,1.2,0,1.2-0.6c0-0.5-0.4-0.5-1-0.5h-5.8c0.9-3.1,2.9-5.1,6.1-5.1h1.1c0.6,0,1.2,0,1.2-0.6
			c0-0.5-0.5-0.5-1.1-0.5h-1.3c-4.7,0-9.5,3.6-9.5,9.1c0,3.9,2.7,6.8,6.5,6.8c2.3,0,4.7-1.4,4.7-1.8c0-0.1,0-0.5-0.4-0.5
			c-0.1,0-0.1,0-0.5,0.2c-1.1,0.7-2.4,1.3-3.8,1.3c-2.1,0-3.9-1.5-3.9-4.7c0-1.3,0.3-2.6,0.4-3.1H750.3"/>
		<path class="st0" d="M764.6,237.2c0-2.8-0.4-7.1-2.4-11.2c-2.2-4.4-5.2-6.8-5.6-6.8c-0.2,0-0.4,0.1-0.4,0.4c0,0.1,0,0.2,0.7,0.8
			c3.5,3.6,5.6,9.3,5.6,16.8c0,6.1-1.3,12.5-5.8,17c-0.5,0.4-0.5,0.5-0.5,0.6c0,0.2,0.1,0.4,0.4,0.4c0.4,0,3.6-2.4,5.7-7
			C764.1,244.2,764.6,240.2,764.6,237.2"/>
		<path class="st1" d="M778.5,237.2c0-2.8-0.4-7.1-2.4-11.2c-2.2-4.4-5.2-6.8-5.6-6.8c-0.2,0-0.4,0.1-0.4,0.4c0,0.1,0,0.2,0.7,0.8
			c3.5,3.6,5.6,9.3,5.6,16.8c0,6.1-1.3,12.5-5.8,17c-0.5,0.4-0.5,0.5-0.5,0.6c0,0.2,0.1,0.4,0.4,0.4c0.4,0,3.6-2.4,5.7-7
			C778,244.2,778.5,240.2,778.5,237.2"/>
		<path class="st4" d="M454.3,138.9"/>
		<g class="st1">
			<defs>
				<rect id="SVGID_3_" x="80" y="132.9" width="31" height="37"/>
			</defs>
			<clipPath id="SVGID_4_">
				<use xlink:href="#SVGID_3_"  style="overflow:visible;"/>
			</clipPath>
			<path class="st5" d="M127.3,150.6c0-5.1,3.3-13.3,17.3-14.2c0.6-0.1,1.2-0.6,1.2-1.4c0-1.4-1-1.4-2.4-1.4
				c-12.8,0-24.5,6.5-24.6,16v29.2c0,5,0,9.1-5.1,13.3c-4.5,3.7-9.4,4-12.2,4.1c-0.6,0.1-1.2,0.6-1.2,1.4c0,1.3,0.8,1.3,2.1,1.4
				c8.5,0.5,14.6,5.1,16,11.4c0.4,1.4,0.4,1.7,0.4,6.3v25.4c0,5.4,0,9.5,6.1,14.3c5,3.8,13.4,5.2,18.4,5.2c1.4,0,2.4,0,2.4-1.4
				c0-1.3-0.8-1.3-2.1-1.4c-8.1-0.5-14.3-4.6-16-11.1c-0.4-1.2-0.4-1.4-0.4-6v-26.9c0-5.9-1-8.1-5.1-12.2c-2.7-2.7-6.4-4-10-5
				c10.5-2.9,15.1-8.8,15.1-16.3V150.6"/>
			<path class="st6" d="M95.5,151.4"/>
		</g>
		<polygon class="st7" points="156.6,168.2 156.6,168.2 156.6,168.2 156.6,168.2 156.6,168.2 156.6,168.2 156.6,168.2 156.6,168.2 
			156.6,168.2 156.6,168.2 156.6,168.2 156.6,168.2 156.6,168.2 156.6,168.2 156.6,168.2 156.6,168.2 156.6,168.2 156.6,168.2 
			156.6,168.2 156.6,168.2 156.6,168.2 156.6,168.2 156.6,168.2 156.6,168.2 156.6,168.2 156.6,168.2 156.6,168.2 156.6,168.2 
			156.6,168.2 156.6,168.2 156.6,168.2 156.6,168.2 156.6,168.2 156.6,168.2 156.6,168.2 156.6,168.2 156.6,168.2 156.6,168.2 
			156.6,168.2 156.6,168.2 156.6,168.2 156.6,168.2 156.6,168.2 156.6,168.2 156.6,168.2 156.6,168.2 156.6,168.2 156.6,168.2 
			156.6,168.2 156.6,168.2 156.6,168.2 156.6,168.2 156.6,168.2 156.6,168.2 156.6,168.2 156.6,168.2 156.6,168.2 156.6,168.2 
			156.6,168.2 156.6,168.2 156.6,168.2 156.6,168.2 156.6,168.2 156.6,168.2 156.6,168.2 156.6,168.2 156.6,168.2 156.6,168.2 
			156.6,168.2 156.6,168.2 156.6,168.2 156.6,168.2 156.6,168.2 156.6,168.2 156.6,168.2 156.6,168.2 156.6,168.2 156.6,168.2 
			156.6,168.2 156.6,168.2 156.6,168.2 156.6,168.2 156.6,168.2 156.6,168.2 156.6,168.2 156.6,168.2 156.6,168.2 156.6,168.2 		"/>
	</g>
</g>
<g id="Layer_2">
	<path d="M141.1,147.2c0-5.1,3.3-13.3,17.3-14.2c0.6-0.1,1.2-0.6,1.2-1.4c0-1.4-1-1.4-2.4-1.4c-12.8,0-24.5,6.5-24.6,16v29.2
		c0,5,0,9.1-5.1,13.3c-4.5,3.7-9.4,4-12.2,4.1c-0.6,0.1-1.2,0.6-1.2,1.4c0,1.3,0.8,1.3,2.1,1.4c8.5,0.5,14.6,5.1,16,11.4
		c0.4,1.4,0.4,1.7,0.4,6.3v25.4c0,5.4,0,9.5,6.1,14.3c5,3.8,13.4,5.2,18.4,5.2c1.4,0,2.4,0,2.4-1.4c0-1.3-0.8-1.3-2.1-1.4
		c-8.1-0.5-14.3-4.6-16-11.1c-0.4-1.2-0.4-1.4-0.4-6v-26.9c0-5.9-1-8.1-5.1-12.2c-2.7-2.7-6.4-4-10-5c10.5-2.9,15.1-8.8,15.1-16.3
		V147.2"/>
</g>
<g id="Layer_3">
	<g>
		<defs>
			<rect id="SVGID_5_" x="-4.5" y="126.2" width="135.5" height="133"/>
		</defs>
		<clipPath id="SVGID_6_">
			<use xlink:href="#SVGID_5_"  style="overflow:visible;"/>
		</clipPath>
		<path class="st8" d="M22.3,138.7c3.5-0.9,6.3-3.1,6.3-5.9c0-3.4-4.1-6.5-9.4-6.5H8v1.1h0.9c2.8,0,2.8,0.4,2.8,1.7v18.9
			c0,1.3-0.1,1.7-2.8,1.7H8v1.1c1.3-0.1,3.8-0.1,5.2-0.1c1.4,0,4,0,5.2,0.1v-1.1h-0.9c-2.8,0-2.8-0.4-2.8-1.7V139h4.1
			c0.6,0,2.1,0,3.3,1.2c1.4,1.3,1.4,2.4,1.4,4.8c0,2.3,0,3.8,1.5,5.1c1.5,1.3,3.4,1.5,4.5,1.5c2.8,0,3.4-2.9,3.4-4
			c0-0.2,0-0.6-0.5-0.6c-0.4,0-0.4,0.3-0.4,0.6c-0.2,2.6-1.5,3.2-2.4,3.2c-1.8,0-2-1.8-2.5-5.2l-0.5-2.9
			C26.1,140.5,24.3,139.3,22.3,138.7 M14.7,138.2v-9.3c0-0.8,0-1.3,0.8-1.4c0.4-0.1,1.4-0.1,2.1-0.1c3.2,0,7.3,0.1,7.3,5.4
			c0,2.5-0.9,5.4-6.2,5.4H14.7z"/>
		<path class="st8" d="M37.1,142.6h10c0.8,0,0.9,0,0.9-0.8c0-3.6-1.9-7-6.4-7c-4.2,0-7.5,3.7-7.5,8.2c0,4.8,3.8,8.3,7.9,8.3
			c4.4,0,6-4,6-4.7c0-0.4-0.3-0.4-0.5-0.4c-0.3,0-0.4,0.2-0.5,0.5c-1.3,3.7-4.5,3.7-4.8,3.7c-1.8,0-3.2-1.1-4.1-2.4
			C37.1,146.2,37.1,143.9,37.1,142.6 M37.1,141.8c0.2-5.4,3.2-6.3,4.5-6.3c3.7,0,4.1,4.8,4.1,6.3H37.1z"/>
		<path class="st8" d="M55.3,146.8v-8c1-1.8,2.8-2.9,4.6-2.9c2.6,0,4.8,3.2,4.8,7.2c0,4.3-2.5,7.4-5.2,7.4c-1.4,0-2.8-0.7-3.8-2.2
			C55.3,147.5,55.3,147.5,55.3,146.8 M55.2,137.4V135l-5.2,0.4v1.1c2.5,0,2.8,0.2,2.8,1.8v16.8c0,1.6-0.4,1.6-2.8,1.6v1.1
			c1.2,0,3.1-0.1,4-0.1c1,0,2.8,0.1,4.1,0.1v-1.1c-2.4,0-2.8,0-2.8-1.6v-6v-0.3c0.2,0.6,1.7,2.5,4.4,2.5c4.3,0,8-3.5,8-8.2
			c0-4.6-3.5-8.1-7.5-8.1C57.4,135,55.9,136.6,55.2,137.4z"/>
		<path class="st8" d="M73.9,142.6h10c0.8,0,0.9,0,0.9-0.8c0-3.6-1.9-7-6.4-7c-4.2,0-7.5,3.7-7.5,8.2c0,4.8,3.8,8.3,7.9,8.3
			c4.4,0,6-4,6-4.7c0-0.4-0.3-0.4-0.5-0.4c-0.3,0-0.4,0.2-0.5,0.5c-1.3,3.7-4.5,3.7-4.8,3.7c-1.8,0-3.2-1.1-4.1-2.4
			C73.9,146.2,73.9,143.9,73.9,142.6 M73.9,141.8c0.2-5.4,3.2-6.3,4.5-6.3c3.7,0,4.1,4.8,4.1,6.3H73.9z"/>
		<path class="st8" d="M97.6,142.3v3.6c0,3.4-2.6,4.6-4.2,4.6c-1.8,0-3.2-1.3-3.2-3.1C90.2,145.4,91.7,142.5,97.6,142.3 M97.9,148.1
			c0.1,1.4,1.1,2.9,2.8,2.9c0.8,0,2.9-0.5,2.9-3.4v-2h-0.9v2c0,2.1-0.9,2.3-1.3,2.3c-1.2,0-1.3-1.6-1.3-1.8V141c0-1.5,0-2.9-1.3-4.2
			c-1.4-1.4-3.2-2-4.9-2c-2.9,0-5.4,1.7-5.4,4.1c0,1.1,0.7,1.7,1.7,1.7c1,0,1.7-0.7,1.7-1.7c0-0.4-0.2-1.6-1.8-1.7
			c1-1.3,2.7-1.7,3.9-1.7c1.8,0,3.8,1.4,3.8,4.6v1.3c-1.8,0.1-4.3,0.2-6.6,1.3c-2.7,1.2-3.6,3.1-3.6,4.7c0,2.9,3.5,3.8,5.7,3.8
			C95.5,151.3,97.2,149.8,97.9,148.1z"/>
		<path class="st8" d="M110,136.5h5.1v-1.1H110v-6.6h-0.9c0,2.9-1.1,6.8-4.6,6.9v0.8h3.1v9.9c0,4.4,3.3,4.8,4.6,4.8
			c2.5,0,3.6-2.6,3.6-4.8v-2h-0.9v2c0,2.7-1.1,4-2.4,4c-2.4,0-2.4-3.3-2.4-3.9V136.5"/>
		<path class="st9" d="M57.1,184.8c0.3-1.3,0.4-1.7,3.8-1.7c1.1,0,1.4,0,1.4-0.7c0-0.4-0.4-0.4-0.6-0.4c-1.2,0-4.1,0.1-5.3,0.1
			c-1.1,0-3.7-0.1-4.8-0.1c-0.3,0-0.7,0-0.7,0.7c0,0.4,0.3,0.4,1,0.4c0.1,0,0.8,0,1.4,0.1c0.6,0.1,1,0.1,1,0.6c0,0.1,0,0.3-0.1,0.7
			l-4.8,19.3c-0.4,1.4-0.4,1.7-3.3,1.7c-0.6,0-1,0-1,0.7c0,0.4,0.3,0.4,1,0.4h16.6c0.9,0,0.9,0,1.1-0.6l2.8-7.8
			c0.1-0.4,0.1-0.5,0.1-0.5c0-0.1-0.1-0.4-0.4-0.4c-0.3,0-0.4,0.2-0.6,0.8c-1.2,3.3-2.8,7.4-9,7.4h-3.4c-0.5,0-0.6,0-0.8,0
			c-0.4,0-0.5-0.1-0.5-0.4c0-0.1,0-0.2,0.2-0.8L57.1,184.8"/>
		<path class="st8" d="M20.9,238H26v-1.1h-5.1v-6.6H20c0,2.9-1.1,6.8-4.6,6.9v0.8h3.1v9.9c0,4.4,3.3,4.8,4.6,4.8
			c2.5,0,3.6-2.6,3.6-4.8v-2h-0.9v2c0,2.7-1.1,4-2.4,4c-2.4,0-2.4-3.3-2.4-3.9V238"/>
		<path class="st8" d="M35.1,230.2c0-1.1-0.9-1.9-1.9-1.9c-1.1,0-1.9,1-1.9,1.9c0,1,0.8,1.9,1.9,1.9
			C34.2,232.2,35.1,231.4,35.1,230.2 M35,236.5l-5,0.4v1.1c2.3,0,2.7,0.2,2.7,2v9.7c0,1.6-0.4,1.6-2.8,1.6v1.1c1.1,0,3.1-0.1,4-0.1
			c1.3,0,2.5,0.1,3.7,0.1v-1.1c-2.4,0-2.5-0.2-2.5-1.6V236.5z"/>
		<path class="st8" d="M42.6,240v9.6c0,1.6-0.4,1.6-2.8,1.6v1.1c1.3,0,3.1-0.1,4.1-0.1c0.9,0,2.8,0.1,4,0.1v-1.1
			c-2.4,0-2.8,0-2.8-1.6V243c0-3.7,2.6-5.7,4.8-5.7c2.3,0,2.7,1.9,2.7,4v8.4c0,1.6-0.4,1.6-2.8,1.6v1.1c1.3,0,3.1-0.1,4.1-0.1
			c0.9,0,2.8,0.1,4,0.1v-1.1c-2.4,0-2.8,0-2.8-1.6V243c0-3.7,2.5-5.7,4.8-5.7c2.3,0,2.7,1.9,2.7,4v8.4c0,1.6-0.4,1.6-2.8,1.6v1.1
			c1.3,0,3.1-0.1,4.1-0.1c0.9,0,2.8,0.1,4,0.1v-1.1c-1.9,0-2.8,0-2.8-1.1v-6.9c0-3.1,0-4.2-1.1-5.5c-0.5-0.6-1.7-1.3-3.8-1.3
			c-3,0-4.6,2.2-5.2,3.5c-0.5-3.1-3.2-3.5-4.8-3.5c-2.6,0-4.3,1.5-5.3,3.8v-3.8l-5.1,0.4v1.1C42.3,238,42.6,238.3,42.6,240"/>
		<path class="st8" d="M72.4,244.1h10c0.8,0,0.9,0,0.9-0.8c0-3.6-1.9-7-6.4-7c-4.2,0-7.5,3.7-7.5,8.2c0,4.8,3.8,8.3,7.9,8.3
			c4.4,0,6-4,6-4.7c0-0.4-0.3-0.4-0.5-0.4c-0.3,0-0.4,0.2-0.5,0.5c-1.3,3.7-4.5,3.7-4.8,3.7c-1.8,0-3.2-1.1-4.1-2.4
			C72.4,247.7,72.4,245.4,72.4,244.1 M72.4,243.3c0.2-5.4,3.2-6.2,4.5-6.2c3.7,0,4.1,4.8,4.1,6.2H72.4z"/>
		<path class="st8" d="M91.9,245.4c0.8,0.1,3.7,0.7,3.7,3.3c0,1.8-1.3,3.3-4.1,3.3c-3,0-4.3-2-5-5.1c-0.1-0.5-0.1-0.6-0.5-0.6
			c-0.5,0-0.5,0.3-0.5,0.9v4.7c0,0.6,0,0.9,0.4,0.9c0.2,0,0.2,0,0.9-0.7c0.1-0.1,0.1-0.1,0.7-0.8c1.6,1.5,3.2,1.5,4,1.5
			c4.1,0,5.8-2.4,5.8-5c0-1.9-1.1-3-1.5-3.4c-1.2-1.1-2.6-1.4-4.1-1.7c-2-0.4-4.4-0.9-4.4-2.9c0-1.3,0.9-2.7,4-2.7
			c3.9,0,4.1,3.2,4.2,4.3c0,0.3,0.4,0.3,0.4,0.3c0.5,0,0.5-0.2,0.5-0.9v-3.6c0-0.6,0-0.9-0.4-0.9c-0.2,0-0.3,0-0.7,0.4
			c-0.1,0.1-0.5,0.5-0.6,0.6c-1.4-1-2.8-1-3.4-1c-4.4,0-5.7,2.4-5.7,4.4c0,1.3,0.6,2.3,1.5,3.1C88.3,244.7,89.3,244.9,91.9,245.4"/>
		<path class="st10" d="M54.5,186.7"/>
	</g>
	<polygon class="st11" points="54.2,187 54.2,187 54.2,187 54.2,187 54.2,187 54.2,187 54.2,187 54.2,187 54.2,187 54.2,187 
		54.2,187 54.2,187 54.2,187 54.2,187 54.2,187 54.2,187 54.2,187 54.2,187 54.2,187 54.2,187 54.2,187 54.2,187 54.2,187 54.2,187 
		54.2,187 54.2,187 54.2,187 54.2,187 54.2,187 54.2,187 54.2,187 54.2,187 54.2,187 54.2,187 54.2,187 54.2,187 54.2,187 54.2,187 
		54.2,187 54.2,187 54.2,187 54.2,187 54.2,187 54.2,187 54.2,187 54.2,187 54.2,187 54.2,187 54.2,187 54.2,187 54.2,187 54.2,187 
		54.2,187 54.2,187 54.2,187 54.2,187 54.2,187 54.2,187 54.2,187 54.2,187 54.2,187 54.2,187 54.2,187 54.2,187 54.2,187 54.2,187 
		54.2,187 54.2,187 54.2,187 54.2,187 54.2,187 54.2,187 54.2,187 54.2,187 54.2,187 54.2,187 54.2,187 54.2,187 54.2,187 54.2,187 
		54.2,187 54.2,187 54.2,187 54.2,187 54.2,187 54.2,187 54.2,187 54.2,187 54.2,187 54.2,187 54.2,187 	"/>
</g>
</svg>
