<?xml version="1.0" encoding="utf-8"?>
<!-- Generator: Adobe Illustrator 24.3.0, SVG Export Plug-In . SVG Version: 6.00 Build 0)  -->
<svg version="1.1" id="Layer_1" xmlns="http://www.w3.org/2000/svg" xmlns:xlink="http://www.w3.org/1999/xlink" x="0px" y="0px"
	 viewBox="0 0 390.3 435" style="enable-background:new 0 0 390.3 435;" xml:space="preserve">
<style type="text/css">
	.st0{fill:#909090;}
	.st1{fill:none;stroke:#E36F1E;stroke-width:3;stroke-miterlimit:10;}
	.st2{fill:none;}
	.st3{enable-background:new    ;}
	.st4{fill:#FFFFFF;stroke:#808080;stroke-width:3;stroke-miterlimit:10;}
	.st5{fill:none;stroke:#808080;stroke-width:3;stroke-miterlimit:10;}
	.st6{fill:#008752;}
</style>
<g>
	<g>
		<g>
			<polygon class="st0" points="174.7,315.5 174.7,338.7 163.2,338.7 176.3,361.5 189.4,338.7 177.9,338.7 177.9,314.5 			"/>
		</g>
	</g>
</g>
<g>
	<g>
		<g>
			<polygon class="st0" points="174.7,58.5 174.7,205.7 163.2,205.7 176.3,228.5 189.4,205.7 177.9,205.7 177.9,58.5 			"/>
		</g>
	</g>
</g>
<g>
	<g>
		<g>
			<path class="st0" d="M279.3,274.1H337h28.9h15.2h4h2h1h0.5c0.1,0,0.2,0,0.2,0v-0.3v-8.1V149.6V34.1V26v-4v-2h-2H371h-28.9H302
				V8.4l-22.8,13.1L302,34.7V23.1h40.1H371h13.1h1.6v1.6v3.2v6.3v115.4v114.8v6.4v0.2c0,0-0.1,0-0.2,0h-0.4h-0.8h-1.6h-3.2h-13.7
				h-28.9h-57.7v3.1H279.3z"/>
		</g>
	</g>
</g>
<g>
	<path class="st1" d="M73.3,11.5c0-5.5,4.5-10,10-10h186c5.5,0,10,4.5,10,10v37c0,5.5-4.5,10-10,10h-186c-5.5,0-10-4.5-10-10V11.5z"
		/>
</g>
<rect x="91.2" y="21.2" class="st2" width="171.6" height="17.8"/>
<g class="st3">
	<path d="M100.8,34l-2.6-5.2h-2.9V34h-1.5V21.6h4c2.9,0,4.5,1.2,4.5,3.6c0,1.7-0.9,2.8-2.4,3.3l2.8,5.5H100.8z M97.7,27.3
		c2.1,0,3-0.6,3-2.2c0-1.5-0.9-2.2-3-2.2h-2.4v4.4C95.3,27.3,97.7,27.3,97.7,27.3z"/>
	<path d="M107.1,28.8h2.1v-1c0-1.3-0.6-1.6-2-1.6c-1.1,0-1.7,0.1-2.2,0.9l-1.1-0.8c0.6-1,1.5-1.5,3.3-1.5c2.3,0,3.4,0.7,3.4,2.9V34
		h-1.4v-0.9c-0.5,0.8-1.1,1-2.3,1c-2.1,0-3.2-1-3.2-2.8C103.7,29.4,105.1,28.8,107.1,28.8z M109.3,30h-2.1c-1.4,0-1.9,0.5-1.9,1.4
		c0,1,0.7,1.4,1.8,1.4c1.3,0,2.3-0.3,2.3-2.3L109.3,30L109.3,30z"/>
	<path d="M113,25h1.4v0.9c0.4-0.7,1.1-1,2.4-1c1.9,0,3.3,1,3.3,3.5V34h-1.4v-5.6c0-1.8-1-2.2-2.1-2.2c-1.4,0-2.2,1-2.2,2.2V34H113
		L113,25L113,25z"/>
	<path d="M128.1,21.6h1.4V34h-1.4v-0.8c-0.5,0.6-1.3,0.9-2.4,0.9c-2.4,0-3.6-1.7-3.6-4.1v-1.2c0-2.6,1.4-4,3.6-4c1.2,0,2,0.4,2.4,1
		V21.6z M128.1,30.2v-1.3c0-1.7-0.8-2.7-2.3-2.7s-2.3,1-2.3,2.7v1.2c0,1.5,0.8,2.8,2.3,2.8C127.4,32.8,128.1,31.7,128.1,30.2z"/>
	<path d="M138.9,30.1c0,2.3-1.2,4.1-3.7,4.1c-2.4,0-3.7-1.6-3.7-4.1v-1.2c0-2.6,1.4-4,3.7-4c2.4,0,3.7,1.5,3.7,4V30.1z M137.5,30.1
		v-1.2c0-1.7-0.8-2.7-2.3-2.7s-2.3,1-2.3,2.7v1.2c0,1.5,0.6,2.8,2.3,2.8C136.7,32.8,137.5,31.6,137.5,30.1z"/>
	<path d="M140.8,25h1.4v0.9c0.4-0.6,1.1-1,2.2-1c1.2,0,2.1,0.5,2.6,1.4c0.6-1,1.6-1.4,2.7-1.4c1.9,0,3.1,1.2,3.1,3.5V34h-1.4v-5.6
		c0-1.6-0.8-2.2-1.9-2.2c-1.2,0-2,0.9-2,2.2V34h-1.4v-5.6c0-1.6-0.8-2.2-1.9-2.2c-1.2,0-2,1-2,2.2V34h-1.4V25z"/>
	<path d="M163.3,34h-1.5l-3-12.4h1.6l2.3,9.8l2.7-9.8h1.5l2.8,9.8l2.3-9.8h1.6l-3,12.4H169l-2.8-9.7L163.3,34z"/>
	<path d="M177.6,28.8h2.1v-1c0-1.3-0.6-1.6-2-1.6c-1.1,0-1.7,0.1-2.2,0.9l-1.1-0.8c0.6-1,1.5-1.5,3.3-1.5c2.3,0,3.4,0.7,3.4,2.9V34
		h-1.4v-0.9c-0.5,0.8-1.1,1-2.3,1c-2.1,0-3.2-1-3.2-2.8C174.2,29.4,175.6,28.8,177.6,28.8z M179.7,30h-2.1c-1.4,0-1.9,0.5-1.9,1.4
		c0,1,0.7,1.4,1.8,1.4c1.3,0,2.3-0.3,2.3-2.3L179.7,30L179.7,30z"/>
	<path d="M183.5,21.6h1.4v9.3c0,1,0.1,1.8,1.5,1.8V34c-2.3,0-3-0.9-3-2.8v-9.6H183.5z"/>
	<path d="M195.4,25l-3.9,4l4.4,5H194l-3.6-3.9l-0.6,0.6V34h-1.4V21.6h1.4v7.1l3.6-3.7H195.4z"/>
	<path d="M208.5,24.3c-0.7-0.9-1.4-1.5-3-1.5c-1.4,0-2.4,0.6-2.4,1.9c0,1.5,1.1,2,2.9,2.3c2.4,0.4,3.9,1.3,3.9,3.6
		c0,1.6-1.1,3.5-4.2,3.5c-2,0-3.5-0.7-4.4-2l1.3-0.9c0.8,1,1.5,1.5,3.2,1.5c2,0,2.6-0.9,2.6-2c0-1.2-0.6-2-2.9-2.3
		c-2.3-0.4-3.9-1.5-3.9-3.6c0-1.8,1.2-3.3,4-3.3c2,0,3.2,0.7,4.1,2L208.5,24.3z"/>
	<path d="M214.9,28.8h2.1v-1c0-1.3-0.6-1.6-2-1.6c-1.1,0-1.7,0.1-2.2,0.9l-1.1-0.8c0.6-1,1.5-1.5,3.3-1.5c2.3,0,3.4,0.7,3.4,2.9V34
		H217v-0.9c-0.5,0.8-1.1,1-2.3,1c-2.1,0-3.2-1-3.2-2.8C211.5,29.4,212.9,28.8,214.9,28.8z M217,30h-2.1c-1.4,0-1.9,0.5-1.9,1.4
		c0,1,0.7,1.4,1.8,1.4c1.3,0,2.3-0.3,2.3-2.3L217,30L217,30z"/>
	<path d="M220.8,25h1.4v0.9c0.4-0.6,1.1-1,2.2-1c1.2,0,2.1,0.5,2.6,1.4c0.6-1,1.6-1.4,2.7-1.4c1.9,0,3.1,1.2,3.1,3.5V34h-1.4v-5.6
		c0-1.6-0.8-2.2-1.9-2.2c-1.2,0-2,0.9-2,2.2V34h-1.4v-5.6c0-1.6-0.8-2.2-1.9-2.2c-1.2,0-2,1-2,2.2V34h-1.4V25z"/>
	<path d="M239.1,24.8c2.2,0,3.6,1.5,3.6,4V30c0,2.3-1.2,4.1-3.6,4.1c-1.2,0-2-0.4-2.4-1v4.3h-1.4V25h1.4v0.9
		C237.2,25.2,237.9,24.8,239.1,24.8z M241.3,30.1v-1.2c0-1.7-0.8-2.7-2.3-2.7c-1.4,0-2.3,1-2.3,2.6v1.3c0,1.5,0.6,2.8,2.3,2.8
		C240.5,32.8,241.3,31.6,241.3,30.1z"/>
	<path d="M244.6,21.6h1.4v9.3c0,1,0.1,1.8,1.5,1.8V34c-2.3,0-3-0.9-3-2.8v-9.6H244.6z"/>
	<path d="M256.1,32.6c-0.6,1.1-1.6,1.5-3.2,1.5c-2.4,0-3.9-1.6-3.9-4.1v-1.2c0-2.6,1.2-4,3.6-4s3.6,1.5,3.6,4v0.9h-5.7V30
		c0,1.5,0.7,2.8,2.3,2.8c1.2,0,1.8-0.3,2.1-1L256.1,32.6z M250.5,28.6h4.2c-0.1-1.5-0.7-2.4-2.1-2.4
		C251.3,26.1,250.6,27.1,250.5,28.6z"/>
	<path d="M263.2,26.9c-0.4-0.5-0.8-0.8-1.5-0.8c-1.1,0-1.9,0.8-1.9,2.2V34h-1.4v-9h1.4v0.9c0.4-0.6,1-1,2.1-1c1.2,0,2,0.4,2.6,1.2
		L263.2,26.9z"/>
</g>
<g>
	<path class="st1" d="M73.3,238.5c0-5.5,4.5-10,10-10h186c5.5,0,10,4.5,10,10v67c0,5.5-4.5,10-10,10h-186c-5.5,0-10-4.5-10-10V238.5
		z"/>
</g>
<path class="st4" d="M576.3,161.5"/>
<g>
	<path class="st1" d="M74.7,372.5c0-5.5,4.5-10,10-10h186c5.5,0,10,4.5,10,10v50c0,5.5-4.5,10-10,10h-186c-5.5,0-10-4.5-10-10V372.5
		z"/>
</g>
<g class="st3">
	<path d="M132,377.5v7.4c0,3.7-1.7,5.2-4.5,5.2c-2.8,0-4.5-1.5-4.5-5.2v-7.4h1.5v7.4c0,2.7,1,3.8,3,3.8c2,0,3-1.1,3-3.8v-7.4H132
		L132,377.5z"/>
	<path d="M138.6,380.8c2.2,0,3.6,1.5,3.6,4v1.2c0,2.3-1.2,4.1-3.6,4.1c-1.2,0-2-0.4-2.4-1v4.3h-1.4V381h1.4v0.9
		C136.6,381.2,137.4,380.8,138.6,380.8z M140.8,386v-1.2c0-1.7-0.8-2.7-2.3-2.7c-1.4,0-2.3,1-2.3,2.6v1.3c0,1.5,0.6,2.8,2.3,2.8
		C140,388.8,140.8,387.6,140.8,386z"/>
	<path d="M149.7,377.5h1.4v12.4h-1.4v-0.8c-0.5,0.6-1.3,0.9-2.4,0.9c-2.4,0-3.6-1.7-3.6-4.1v-1.2c0-2.6,1.4-4,3.6-4
		c1.2,0,2,0.4,2.4,1V377.5z M149.7,386.2v-1.3c0-1.7-0.8-2.7-2.3-2.7s-2.3,1-2.3,2.7v1.2c0,1.5,0.8,2.8,2.3,2.8
		C149,388.8,149.7,387.7,149.7,386.2z"/>
	<path d="M156.4,384.8h2.1v-1c0-1.3-0.6-1.6-2-1.6c-1.1,0-1.7,0.1-2.2,0.9l-1.1-0.8c0.6-1,1.5-1.5,3.3-1.5c2.3,0,3.4,0.7,3.4,2.9
		v6.2h-1.4V389c-0.5,0.8-1.1,1-2.3,1c-2.1,0-3.2-1-3.2-2.8S154.4,384.8,156.4,384.8z M158.5,386h-2.1c-1.4,0-1.9,0.5-1.9,1.4
		c0,1,0.7,1.4,1.8,1.4c1.3,0,2.3-0.3,2.3-2.3V386H158.5z"/>
	<path d="M161.5,381h1.2v-2h1.4v2h2.1v1.3h-2.1v4.6c0,1.2,0.1,1.8,1.4,1.8h0.7v1.4h-0.8c-2.1,0-2.7-0.9-2.7-2.8v-4.9h-1.2V381z"/>
	<path d="M174.5,388.6c-0.6,1.1-1.6,1.5-3.2,1.5c-2.4,0-3.9-1.6-3.9-4.1v-1.2c0-2.6,1.2-4,3.6-4c2.4,0,3.6,1.5,3.6,4v0.9h-5.7v0.3
		c0,1.5,0.7,2.8,2.3,2.8c1.2,0,1.8-0.3,2.1-1L174.5,388.6z M169,384.5h4.2c-0.1-1.5-0.7-2.4-2.1-2.4
		C169.7,382.1,169.1,383,169,384.5z"/>
	<path d="M186.3,383.1c-0.5-0.6-1-0.9-2.2-0.9c-1.1,0-1.7,0.4-1.7,1.2c0,1,0.9,1.3,2.1,1.4c1.7,0.1,3.2,0.6,3.2,2.7
		c0,1.6-1.1,2.6-3.4,2.6c-1.8,0-2.8-0.6-3.5-1.5l1.1-0.8c0.5,0.6,1.1,0.9,2.4,0.9c1.2,0,1.9-0.5,1.9-1.3c0-1-0.6-1.3-2.3-1.4
		c-1.5-0.1-3-0.7-3-2.7c0-1.5,1.1-2.6,3.2-2.6c1.5,0,2.6,0.4,3.3,1.5L186.3,383.1z"/>
	<path d="M188.9,381h1.2v-2h1.4v2h2.1v1.3h-2.1v4.6c0,1.2,0.1,1.8,1.4,1.8h0.7v1.4h-0.8c-2.1,0-2.7-0.9-2.7-2.8v-4.9h-1.2V381z"/>
	<path d="M201.9,388.6c-0.6,1.1-1.6,1.5-3.2,1.5c-2.4,0-3.9-1.6-3.9-4.1v-1.2c0-2.6,1.2-4,3.6-4c2.4,0,3.6,1.5,3.6,4v0.9h-5.7v0.3
		c0,1.5,0.7,2.8,2.3,2.8c1.2,0,1.8-0.3,2.1-1L201.9,388.6z M196.3,384.5h4.2c-0.1-1.5-0.7-2.4-2.1-2.4
		C197,382.1,196.4,383,196.3,384.5z"/>
	<path d="M208,380.8c2.2,0,3.6,1.5,3.6,4v1.2c0,2.3-1.2,4.1-3.6,4.1c-1.2,0-2-0.4-2.4-1v4.3h-1.4V381h1.4v0.9
		C206,381.2,206.8,380.8,208,380.8z M210.1,386v-1.2c0-1.7-0.8-2.7-2.3-2.7c-1.4,0-2.3,1-2.3,2.6v1.3c0,1.5,0.6,2.8,2.3,2.8
		C209.4,388.8,210.1,387.6,210.1,386z"/>
	<path d="M218.2,377.5h1.6v1.6h-1.6V377.5z M218.2,381h1.4v9h-1.4V381z"/>
	<path d="M222.3,381h1.4v0.9c0.5-0.7,1.1-1,2.4-1c1.9,0,3.3,1,3.3,3.5v5.6H228v-5.6c0-1.8-1-2.2-2.1-2.2c-1.4,0-2.2,1-2.2,2.2v5.6
		h-1.4V381z"/>
</g>
<g class="st3">
	<path d="M132.8,406.9l3.7-7.7h1.5v12.4h-1.5v-9.1l-3,6.5h-1.4l-3-6.5v9.1h-1.5v-12.4h1.5L132.8,406.9z"/>
	<path d="M143.7,406.4h2.1v-1c0-1.3-0.6-1.6-2-1.6c-1.1,0-1.7,0.1-2.2,0.9l-1.1-0.8c0.6-1,1.5-1.5,3.3-1.5c2.3,0,3.4,0.7,3.4,2.9
		v6.2h-1.4v-0.9c-0.5,0.8-1.1,1-2.3,1c-2.1,0-3.2-1-3.2-2.8C140.3,407,141.7,406.4,143.7,406.4z M145.8,407.6h-2.1
		c-1.4,0-1.9,0.5-1.9,1.4c0,1,0.7,1.4,1.8,1.4c1.3,0,2.3-0.3,2.3-2.3v-0.5H145.8z"/>
	<path d="M154.5,404.5c-0.4-0.5-0.8-0.8-1.5-0.8c-1.1,0-1.9,0.8-1.9,2.2v5.6h-1.4v-9h1.4v0.9c0.4-0.6,1-1,2.1-1c1.2,0,2,0.4,2.6,1.2
		L154.5,404.5z"/>
	<path d="M163.6,402.6l-3.9,4l4.4,5h-1.9l-3.6-3.9l-0.6,0.6v3.3h-1.4v-12.4h1.4v7.1l3.6-3.7H163.6z"/>
	<path d="M171.9,407.6c0,2.3-1.2,4.1-3.7,4.1c-2.4,0-3.7-1.6-3.7-4.1v-1.2c0-2.6,1.4-4,3.7-4c2.4,0,3.7,1.5,3.7,4V407.6z
		 M170.5,407.6v-1.2c0-1.7-0.8-2.7-2.3-2.7s-2.3,1-2.3,2.7v1.2c0,1.5,0.6,2.8,2.3,2.8C169.7,410.4,170.5,409.2,170.5,407.6z"/>
	<path d="M181.5,402.6l-3.6,9h-1.4l-3.7-9h1.6l2.7,7.2l2.7-7.2H181.5z"/>
	<path d="M193.9,410.2c-0.6,1-1.7,1.5-3.1,1.5c-2.5,0-3.9-1.6-3.9-4.1v-1.2c0-2.6,1.5-4,3.9-4c1.4,0,2.5,0.5,3.1,1.4l-1.1,0.8
		c-0.4-0.6-1.2-0.9-2-0.9c-1.5,0-2.4,1-2.4,2.7v1.2c0,1.5,0.7,2.8,2.4,2.8c0.8,0,1.6-0.3,2-1L193.9,410.2z"/>
	<path d="M195.4,399.1h1.4v4.3c0.5-0.7,1.1-1,2.4-1c1.9,0,3.3,1,3.3,3.5v5.6h-1.4v-5.6c0-1.8-1-2.2-2.1-2.2c-1.4,0-2.2,1-2.2,2.2
		v5.6h-1.4L195.4,399.1L195.4,399.1z"/>
	<path d="M207.8,406.4h2.1v-1c0-1.3-0.6-1.6-2-1.6c-1.1,0-1.7,0.1-2.2,0.9l-1.1-0.8c0.6-1,1.5-1.5,3.3-1.5c2.3,0,3.4,0.7,3.4,2.9
		v6.2h-1.4v-0.9c-0.5,0.8-1.1,1-2.3,1c-2.1,0-3.2-1-3.2-2.8C204.4,407,205.8,406.4,207.8,406.4z M209.9,407.6h-2.1
		c-1.4,0-1.9,0.5-1.9,1.4c0,1,0.7,1.4,1.8,1.4c1.3,0,2.3-0.3,2.3-2.3v-0.5H209.9z"/>
	<path d="M213.9,399.1h1.6v1.6h-1.6V399.1z M214,402.6h1.4v9H214V402.6z"/>
	<path d="M218,402.6h1.4v0.9c0.5-0.7,1.1-1,2.4-1c1.9,0,3.3,1,3.3,3.5v5.6h-1.4V406c0-1.8-1-2.2-2.1-2.2c-1.4,0-2.2,1-2.2,2.2v5.6
		H218V402.6z"/>
</g>
<path class="st5" d="M148.3,403.5"/>
<rect x="304.7" y="251.4" class="st2" width="94.6" height="15.8"/>
<g class="st3">
	<path d="M313.3,264.1l-2.6-5.2h-2.9v5.2h-1.5v-12.4h4c2.9,0,4.5,1.2,4.5,3.6c0,1.7-0.9,2.8-2.4,3.3l2.8,5.5H313.3z M310.1,257.5
		c2.1,0,3-0.6,3-2.2c0-1.5-0.9-2.2-3-2.2h-2.4v4.4H310.1z"/>
	<path d="M323.2,262.8c-0.6,1.1-1.6,1.5-3.2,1.5c-2.4,0-3.9-1.6-3.9-4.1V259c0-2.6,1.2-4,3.6-4c2.4,0,3.6,1.5,3.6,4v0.9h-5.7v0.3
		c0,1.5,0.7,2.8,2.3,2.8c1.2,0,1.8-0.3,2.1-1L323.2,262.8z M317.6,258.7h4.2c-0.1-1.5-0.7-2.4-2.1-2.4
		C318.4,256.3,317.7,257.2,317.6,258.7z"/>
	<path d="M327.2,264.8c0,1.9-0.7,2.8-3,2.8v-1.3c1.5,0,1.5-0.8,1.5-1.8v-9.3h1.4L327.2,264.8L327.2,264.8z M325.7,251.7h1.6v1.6
		h-1.6V251.7z"/>
	<path d="M336.2,262.8c-0.6,1.1-1.6,1.5-3.2,1.5c-2.4,0-3.9-1.6-3.9-4.1V259c0-2.6,1.2-4,3.6-4c2.4,0,3.6,1.5,3.6,4v0.9h-5.7v0.3
		c0,1.5,0.7,2.8,2.3,2.8c1.2,0,1.8-0.3,2.1-1L336.2,262.8z M330.6,258.7h4.2c-0.1-1.5-0.7-2.4-2.1-2.4
		C331.4,256.3,330.7,257.2,330.6,258.7z"/>
	<path d="M345,262.8c-0.6,1-1.7,1.5-3.1,1.5c-2.5,0-3.9-1.6-3.9-4.1V259c0-2.6,1.5-4,3.9-4c1.3,0,2.5,0.5,3.1,1.4l-1.1,0.8
		c-0.4-0.6-1.2-0.9-2-0.9c-1.5,0-2.4,1-2.4,2.7v1.2c0,1.5,0.7,2.8,2.4,2.8c0.8,0,1.6-0.3,2-1L345,262.8z"/>
	<path d="M345.6,255.1h1.2v-2h1.4v2h2.1v1.3h-2.1v4.6c0,1.2,0.1,1.8,1.4,1.8h0.7v1.4h-0.8c-2.1,0-2.7-0.9-2.7-2.8v-4.9h-1.2
		L345.6,255.1L345.6,255.1z"/>
</g>
<g class="st3">
	<path d="M108.1,342.2l4.3-12.4h1.4l4.3,12.4h-1.6l-1-2.8h-4.9l-1,2.8H108.1z M111.2,338h3.9l-2-5.8L111.2,338z"/>
	<path d="M126,340.9c-0.6,1-1.7,1.5-3.1,1.5c-2.5,0-3.9-1.6-3.9-4.1v-1.2c0-2.6,1.5-4,3.9-4c1.4,0,2.5,0.5,3.1,1.4l-1.1,0.8
		c-0.4-0.6-1.2-0.9-2-0.9c-1.5,0-2.4,1-2.4,2.7v1.2c0,1.5,0.7,2.8,2.4,2.8c0.8,0,1.6-0.3,2-1L126,340.9z"/>
	<path d="M134,340.9c-0.6,1-1.7,1.5-3.1,1.5c-2.5,0-3.9-1.6-3.9-4.1v-1.2c0-2.6,1.5-4,3.9-4c1.4,0,2.5,0.5,3.1,1.4l-1.1,0.8
		c-0.4-0.6-1.2-0.9-2-0.9c-1.5,0-2.4,1-2.4,2.7v1.2c0,1.5,0.7,2.8,2.4,2.8c0.8,0,1.6-0.3,2-1L134,340.9z"/>
	<path d="M142,340.9c-0.6,1.1-1.6,1.5-3.2,1.5c-2.4,0-3.9-1.6-3.9-4.1v-1.2c0-2.6,1.2-4,3.6-4s3.6,1.5,3.6,4v0.9h-5.7v0.3
		c0,1.5,0.7,2.8,2.3,2.8c1.2,0,1.8-0.3,2.1-1L142,340.9z M136.4,336.8h4.2c-0.1-1.5-0.7-2.4-2.1-2.4
		C137.2,334.4,136.5,335.3,136.4,336.8z"/>
	<path d="M148.1,333.1c2.2,0,3.6,1.5,3.6,4v1.2c0,2.3-1.2,4.1-3.6,4.1c-1.2,0-2-0.4-2.4-1v4.3h-1.4v-12.4h1.4v0.9
		C146.2,333.5,146.9,333.1,148.1,333.1z M150.3,338.3v-1.2c0-1.7-0.8-2.7-2.3-2.7c-1.4,0-2.3,1-2.3,2.6v1.3c0,1.5,0.6,2.8,2.3,2.8
		C149.5,341.1,150.3,339.8,150.3,338.3z"/>
	<path d="M152.8,333.2h1.2v-2h1.4v2h2.1v1.3h-2.1v4.6c0,1.2,0.1,1.8,1.4,1.8h0.7v1.4h-0.8c-2.1,0-2.7-0.9-2.7-2.8v-4.9h-1.2V333.2z"
		/>
</g>
<path class="st0" d="M7.9,396V34.7V23.6c-0.2-0.7,0.5-0.4,0.9-0.5h1.4H13h5.6h31.9v11.6l2.4-1.4l20.3-11.7L52.9,9.8l-2.4-1.4V20
	H18.3h-7.1H7.6H5.8H4.9H4.8H4.7v0.1v0.4v14.2v362.8h0v1.5h68.6v-3H7.9z"/>
<g>
	<rect x="83" y="242.7" class="st2" width="186.4" height="56"/>
	<path class="st6" d="M149,242.6v1.9h-4.6v2.7h4.2v1.9h-4.2v4.5h-2.2v-11H149z"/>
	<path class="st6" d="M152.8,253.7h-2.2v-11h2.2V253.7z"/>
	<path class="st6" d="M163.5,242.6v11h-1.9l-4.3-6.8v6.8h-2.1v-11h1.9l4.3,6.9v-6.9H163.5z"/>
	<path class="st6" d="M172.5,242.6v1.9h-4.6v2.5h4.2v1.9h-4.2v2.9h4.6v1.9h-6.9v-11H172.5z"/>
	<path class="st6" d="M186,247.9v1c0,3.4-1.6,4.9-4.1,4.9c-2.5,0-4.2-1.5-4.2-4.9v-1.4c0-3.6,1.7-5,4.2-5c2.3,0,3.7,1.3,4,3.6h-2.1
		c-0.2-1-0.8-1.7-1.9-1.7c-1.3,0-2,0.9-2,3v1.6c0,2.1,0.7,3,2,3c1.3,0,1.8-0.8,1.9-2.1H182v-1.9H186z"/>
	<path class="st6" d="M193.9,253.7l-2-4.3h-1.8v4.3h-2.2v-11h4c2.5,0,4.1,1.1,4.1,3.4c0,1.5-0.7,2.5-1.9,3l2.3,4.7H193.9z
		 M191.6,247.5c1.3,0,2.1-0.3,2.1-1.4s-0.8-1.5-2.1-1.5h-1.5v2.9H191.6z"/>
	<path class="st6" d="M200.1,253.7h-2.2v-11h2.2V253.7z"/>
	<path class="st6" d="M202.5,253.7v-11h3.9c2.5,0,4.2,1.3,4.2,4.8v1.4c0,3.5-1.7,4.8-4.2,4.8H202.5z M208.4,248.9v-1.4
		c0-1.9-0.5-2.9-2-2.9h-1.7v7.3h1.7C207.9,251.8,208.4,250.8,208.4,248.9z"/>
	<path d="M109.2,261.8v1.9h-4.6v2.7h4.2v1.9h-4.2v4.5h-2.2v-11H109.2z"/>
	<path d="M110.5,261.8h2.2v2h-2.2V261.8z M110.6,264.9h2v8h-2V264.9z"/>
	<path d="M114.5,264.9h2v0.7c0.3-0.4,0.9-0.8,1.8-0.8c1.6,0,2.9,0.8,2.9,3.1v5h-2v-4.7c0-1.2-0.4-1.7-1.3-1.7
		c-0.9,0-1.4,0.6-1.4,1.7v4.7h-2V264.9z"/>
	<path d="M129.1,271.7c-0.6,1-1.5,1.4-2.9,1.4c-2.4,0-3.6-1.6-3.6-3.6v-1.1c0-2.4,1.2-3.6,3.3-3.6c2.3,0,3.3,1.3,3.3,3.7v0.9h-4.6
		c0,1.1,0.4,1.9,1.5,1.9c0.8,0,1.1-0.3,1.4-0.7L129.1,271.7z M124.7,267.9h2.5c0-1-0.5-1.5-1.2-1.5
		C125.1,266.5,124.8,267,124.7,267.9z"/>
	<path d="M142.9,267.1v1c0,3.4-1.6,4.9-4.1,4.9c-2.5,0-4.2-1.5-4.2-4.9v-1.4c0-3.6,1.7-5,4.2-5c2.3,0,3.7,1.3,4,3.6h-2.1
		c-0.2-1-0.8-1.7-1.9-1.7c-1.3,0-2,0.9-2,3v1.6c0,2.1,0.7,3,2,3c1.3,0,1.8-0.8,1.9-2.1h-1.9v-1.9H142.9z"/>
	<path d="M148.8,267.1c-0.2-0.3-0.5-0.6-1-0.6c-0.8,0-1.3,0.6-1.3,1.7v4.7h-2v-8h2v0.7c0.3-0.4,0.8-0.8,1.7-0.8c1,0,1.7,0.4,2.2,1.2
		L148.8,267.1z"/>
	<path d="M151.2,261.8h2.2v2h-2.2V261.8z M151.3,264.9h2v8h-2V264.9z"/>
	<path d="M159.8,261.8h2v11h-2v-0.5c-0.4,0.4-1,0.6-1.7,0.6c-2.1,0-3.2-1.5-3.2-3.6v-1.1c0-2.3,1.3-3.6,3.2-3.6
		c0.7,0,1.3,0.2,1.7,0.6V261.8z M159.8,269.3v-1c0-1.2-0.5-1.8-1.4-1.8c-1,0-1.4,0.7-1.4,2v0.8c0,1.2,0.3,2,1.4,2
		C159.5,271.3,159.8,270.4,159.8,269.3z"/>
	<path d="M173.5,264.7c-0.5-0.8-1.1-1.1-2.2-1.1c-1,0-1.6,0.5-1.6,1.2c0,0.9,0.7,1.2,2.2,1.6c2.3,0.6,3.3,1.4,3.3,3.4
		c0,1.8-1.2,3.2-3.8,3.2c-1.9,0-3.3-0.5-4.3-1.8l1.7-1.2c0.6,0.7,1.3,1.1,2.4,1.1c1.3,0,1.7-0.6,1.7-1.2c0-0.8-0.5-1.2-2.3-1.7
		c-2.2-0.6-3.3-1.6-3.3-3.4c0-1.7,1.2-3.1,3.8-3.1c1.8,0,3.1,0.6,3.9,1.8L173.5,264.7z"/>
	<path d="M183.3,269.4c0,2.2-1,3.7-3.5,3.7c-2.3,0-3.5-1.4-3.5-3.7v-1c0-2.4,1.3-3.7,3.5-3.7c2.2,0,3.5,1.2,3.5,3.7V269.4z
		 M181.3,269.3v-0.8c0-1.3-0.4-2-1.4-2c-1,0-1.4,0.7-1.4,2v0.8c0,1.2,0.3,2,1.4,2C181,271.3,181.3,270.4,181.3,269.3z"/>
	<path d="M184.7,261.8h2v8c0,0.9,0.3,1.3,1.1,1.3v1.8c-2.2,0-3.2-0.6-3.2-2.6V261.8z"/>
	<path d="M196,272.9h-2v-0.7c-0.3,0.5-0.8,0.8-1.8,0.8c-1.6,0-2.9-0.8-2.9-3.2v-5h2v4.7c0,1.3,0.4,1.7,1.3,1.7
		c0.9,0,1.4-0.6,1.4-1.7v-4.7h2V272.9z"/>
	<path d="M197.1,264.9h1v-1.8h2v1.8h1.6v1.7h-1.6v3.3c0,0.8,0.2,1.1,0.9,1.1h0.7v1.8h-0.9c-1.9,0-2.7-0.5-2.7-2.6v-3.7h-1V264.9z"/>
	<path d="M203.1,261.8h2.2v2h-2.2V261.8z M203.2,264.9h2v8h-2V264.9z"/>
	<path d="M213.7,269.4c0,2.2-1,3.7-3.5,3.7c-2.3,0-3.5-1.4-3.5-3.7v-1c0-2.4,1.3-3.7,3.5-3.7c2.2,0,3.5,1.2,3.5,3.7V269.4z
		 M211.7,269.3v-0.8c0-1.3-0.4-2-1.4-2c-1,0-1.4,0.7-1.4,2v0.8c0,1.2,0.3,2,1.4,2C211.4,271.3,211.7,270.4,211.7,269.3z"/>
	<path d="M215.1,264.9h2v0.7c0.3-0.4,0.9-0.8,1.8-0.8c1.6,0,2.9,0.8,2.9,3.1v5h-2v-4.7c0-1.2-0.4-1.7-1.3-1.7
		c-0.9,0-1.4,0.6-1.4,1.7v4.7h-2V264.9z"/>
	<path d="M230.1,268.1h1.6v-0.5c0-0.9-0.3-1.2-1.4-1.2c-0.8,0-1.2,0.1-1.5,0.6l-1.4-1c0.6-1,1.5-1.3,3.1-1.3c2.1,0,3.2,0.6,3.2,2.9
		v5.3h-2v-0.7c-0.3,0.5-0.8,0.8-1.7,0.8c-1.7,0-2.8-0.9-2.8-2.5C227.1,268.8,228.4,268.1,230.1,268.1z M231.7,269.6h-1.3
		c-0.8,0-1.2,0.3-1.2,0.9c0,0.6,0.5,0.9,1.2,0.9c0.9,0,1.4-0.4,1.4-1.5V269.6z"/>
	<path d="M235.3,264.9h2v0.7c0.3-0.4,0.9-0.8,1.8-0.8c1.6,0,2.9,0.8,2.9,3.1v5h-2v-4.7c0-1.2-0.4-1.7-1.3-1.7
		c-0.9,0-1.4,0.6-1.4,1.7v4.7h-2V264.9z"/>
	<path d="M248.3,261.8h2v11h-2v-0.5c-0.4,0.4-1,0.6-1.7,0.6c-2.1,0-3.2-1.5-3.2-3.6v-1.1c0-2.3,1.3-3.6,3.2-3.6
		c0.7,0,1.3,0.2,1.7,0.6V261.8z M248.3,269.3v-1c0-1.2-0.5-1.8-1.4-1.8c-1,0-1.4,0.7-1.4,2v0.8c0,1.2,0.3,2,1.4,2
		C248,271.3,248.3,270.4,248.3,269.3z"/>
	<path d="M104.2,287.3h1.6v-0.5c0-0.9-0.3-1.2-1.4-1.2c-0.8,0-1.2,0.1-1.5,0.6l-1.4-1c0.6-1,1.5-1.3,3.1-1.3c2.1,0,3.2,0.6,3.2,2.9
		v5.3h-2v-0.7c-0.3,0.5-0.8,0.8-1.7,0.8c-1.7,0-2.8-0.9-2.8-2.5C101.2,288,102.5,287.3,104.2,287.3z M105.7,288.8h-1.3
		c-0.8,0-1.2,0.3-1.2,0.9c0,0.6,0.5,0.9,1.2,0.9c0.9,0,1.4-0.4,1.4-1.5V288.8z"/>
	<path d="M115.6,290.9c-0.6,0.9-1.5,1.4-2.9,1.4c-2.3,0-3.6-1.4-3.6-3.6v-1.1c0-2.3,1.3-3.6,3.7-3.6c1.2,0,2.2,0.4,2.8,1.3l-1.5,1.1
		c-0.3-0.4-0.7-0.7-1.3-0.7c-1.2,0-1.6,0.7-1.6,2v0.8c0,1.2,0.3,2,1.6,2c0.6,0,1-0.2,1.3-0.7L115.6,290.9z"/>
	<path d="M122.6,290.9c-0.6,0.9-1.5,1.4-2.9,1.4c-2.3,0-3.6-1.4-3.6-3.6v-1.1c0-2.3,1.3-3.6,3.7-3.6c1.2,0,2.2,0.4,2.8,1.3l-1.5,1.1
		c-0.3-0.4-0.7-0.7-1.3-0.7c-1.2,0-1.6,0.7-1.6,2v0.8c0,1.2,0.3,2,1.6,2c0.6,0,1-0.2,1.3-0.7L122.6,290.9z"/>
	<path d="M129.6,290.9c-0.6,1-1.5,1.4-2.9,1.4c-2.4,0-3.6-1.6-3.6-3.6v-1.1c0-2.4,1.2-3.6,3.3-3.6c2.3,0,3.3,1.3,3.3,3.7v0.9h-4.6
		c0,1.1,0.4,1.9,1.5,1.9c0.8,0,1.1-0.3,1.4-0.7L129.6,290.9z M125.2,287.1h2.5c0-1-0.5-1.5-1.2-1.5
		C125.6,285.7,125.3,286.2,125.2,287.1z"/>
	<path d="M138.1,288.6c0,2.1-1.1,3.6-3.1,3.6c-0.8,0-1.4-0.2-1.8-0.5v3.4h-2v-11h2v0.5c0.4-0.4,1-0.7,1.8-0.7c1.9,0,3.1,1.3,3.1,3.6
		V288.6z M136.1,288.5v-0.8c0-1.3-0.4-2-1.4-2c-1,0-1.4,0.6-1.4,1.8v1c0,1.2,0.3,2,1.4,2C135.8,290.5,136.1,289.6,136.1,288.5z"/>
	<path d="M138.9,284.1h1v-1.8h2v1.8h1.6v1.7h-1.6v3.3c0,0.8,0.2,1.1,0.9,1.1h0.7v1.8h-0.9c-1.9,0-2.7-0.5-2.7-2.6v-3.7h-1V284.1z"/>
	<path d="M147.3,287.3h1.6v-0.5c0-0.9-0.3-1.2-1.4-1.2c-0.8,0-1.2,0.1-1.5,0.6l-1.4-1c0.6-1,1.5-1.3,3.1-1.3c2.1,0,3.2,0.6,3.2,2.9
		v5.3h-2v-0.7c-0.3,0.5-0.8,0.8-1.7,0.8c-1.7,0-2.8-0.9-2.8-2.5C144.4,288,145.7,287.3,147.3,287.3z M148.9,288.8h-1.3
		c-0.8,0-1.2,0.3-1.2,0.9c0,0.6,0.5,0.9,1.2,0.9c0.9,0,1.4-0.4,1.4-1.5V288.8z"/>
	<path d="M152.5,284.1h2v0.7c0.3-0.4,0.9-0.8,1.8-0.8c1.6,0,2.9,0.8,2.9,3.1v5h-2v-4.7c0-1.2-0.4-1.7-1.3-1.7
		c-0.9,0-1.4,0.6-1.4,1.7v4.7h-2V284.1z"/>
	<path d="M167.2,290.9c-0.6,0.9-1.5,1.4-2.9,1.4c-2.3,0-3.6-1.4-3.6-3.6v-1.1c0-2.3,1.3-3.6,3.7-3.6c1.2,0,2.2,0.4,2.8,1.3l-1.5,1.1
		c-0.3-0.4-0.7-0.7-1.3-0.7c-1.2,0-1.6,0.7-1.6,2v0.8c0,1.2,0.3,2,1.6,2c0.6,0,1-0.2,1.3-0.7L167.2,290.9z"/>
	<path d="M174.2,290.9c-0.6,1-1.5,1.4-2.9,1.4c-2.4,0-3.6-1.6-3.6-3.6v-1.1c0-2.4,1.2-3.6,3.3-3.6c2.3,0,3.3,1.3,3.3,3.7v0.9h-4.6
		c0,1.1,0.4,1.9,1.5,1.9c0.8,0,1.1-0.3,1.4-0.7L174.2,290.9z M169.7,287.1h2.5c0-1-0.5-1.5-1.2-1.5
		C170.2,285.7,169.8,286.2,169.7,287.1z"/>
	<path d="M186.7,288.6c0,2.1-1.1,3.6-3.1,3.6c-0.8,0-1.4-0.2-1.8-0.5v3.4h-2v-11h2v0.5c0.4-0.4,1-0.7,1.8-0.7c1.9,0,3.1,1.3,3.1,3.6
		V288.6z M184.6,288.5v-0.8c0-1.3-0.4-2-1.4-2c-1,0-1.4,0.6-1.4,1.8v1c0,1.2,0.3,2,1.4,2C184.3,290.5,184.6,289.6,184.6,288.5z"/>
	<path d="M192.4,286.3c-0.2-0.3-0.5-0.6-1-0.6c-0.8,0-1.3,0.6-1.3,1.7v4.7h-2v-8h2v0.7c0.3-0.4,0.8-0.8,1.7-0.8c1,0,1.7,0.4,2.2,1.2
		L192.4,286.3z"/>
	<path d="M201.1,288.6c0,2.2-1,3.7-3.5,3.7c-2.3,0-3.5-1.4-3.5-3.7v-1c0-2.4,1.3-3.6,3.5-3.6c2.2,0,3.5,1.2,3.5,3.6V288.6z
		 M199.1,288.5v-0.8c0-1.3-0.4-2-1.4-2c-1,0-1.4,0.7-1.4,2v0.8c0,1.2,0.3,2,1.4,2C198.8,290.5,199.1,289.6,199.1,288.5z"/>
	<path d="M204.4,284.6c0.4-0.5,1-0.6,1.7-0.6c1.9,0,3.2,1.2,3.2,3.6v1c0,2.2-1,3.7-3.2,3.7c-0.8,0-1.3-0.2-1.7-0.6v0.5h-1.9v-11h1.9
		V284.6z M207.3,288.5v-0.8c0-1.3-0.4-2-1.4-2s-1.4,0.7-1.4,2v0.8c0,1.2,0.4,2,1.4,2C206.9,290.5,207.3,289.6,207.3,288.5z"/>
	<path d="M213.2,287.3h1.6v-0.5c0-0.9-0.3-1.2-1.4-1.2c-0.8,0-1.2,0.1-1.5,0.6l-1.4-1c0.6-1,1.5-1.3,3.1-1.3c2.1,0,3.2,0.6,3.2,2.9
		v5.3h-2v-0.7c-0.3,0.5-0.8,0.8-1.7,0.8c-1.7,0-2.8-0.9-2.8-2.5C210.2,288,211.5,287.3,213.2,287.3z M214.8,288.8h-1.3
		c-0.8,0-1.2,0.3-1.2,0.9c0,0.6,0.5,0.9,1.2,0.9c0.9,0,1.4-0.4,1.4-1.5V288.8z"/>
	<path d="M220.3,284.6c0.4-0.5,1-0.6,1.7-0.6c1.9,0,3.2,1.2,3.2,3.6v1c0,2.2-1,3.7-3.2,3.7c-0.8,0-1.3-0.2-1.7-0.6v0.5h-1.9v-11h1.9
		V284.6z M223.2,288.5v-0.8c0-1.3-0.4-2-1.4-2s-1.4,0.7-1.4,2v0.8c0,1.2,0.4,2,1.4,2C222.9,290.5,223.2,289.6,223.2,288.5z"/>
	<path d="M226.7,281h2.2v2h-2.2V281z M226.8,284.1h2v8h-2V284.1z"/>
	<path d="M230.7,281h2v8c0,0.9,0.3,1.3,1.1,1.3v1.8c-2.2,0-3.2-0.6-3.2-2.6V281z"/>
	<path d="M235.4,281h2.2v2h-2.2V281z M235.5,284.1h2v8h-2V284.1z"/>
	<path d="M238.8,284.1h1v-1.8h2v1.8h1.6v1.7h-1.6v3.3c0,0.8,0.2,1.1,0.9,1.1h0.7v1.8h-0.9c-1.9,0-2.7-0.5-2.7-2.6v-3.7h-1V284.1z"/>
	<path d="M246.1,284.1l1.8,5.1l1.6-5.1h2.1l-2.8,8.4c-0.7,2.1-1.4,2.7-3.7,2.7v-1.8c1.1,0,1.5-0.2,1.9-1.1l-3-8.1H246.1z"/>
</g>
</svg>
