<?xml version="1.0" encoding="utf-8"?>
<!-- Generator: Adobe Illustrator 24.3.0, SVG Export Plug-In . SVG Version: 6.00 Build 0)  -->
<svg version="1.1" id="Layer_1" xmlns="http://www.w3.org/2000/svg" xmlns:xlink="http://www.w3.org/1999/xlink" x="0px" y="0px"
	 viewBox="0 0 619.5 318.5" style="enable-background:new 0 0 619.5 318.5;" xml:space="preserve">
<style type="text/css">
	.st0{fill:#909090;}
	.st1{fill:none;stroke:#E36F1E;stroke-width:3;stroke-miterlimit:10;}
	.st2{fill:none;}
	.st3{enable-background:new    ;}
	.st4{fill:#FFFFFF;stroke:#808080;stroke-width:3;stroke-miterlimit:10;}
	.st5{fill:none;stroke:#808080;stroke-width:3;stroke-miterlimit:10;}
	.st6{fill:none;stroke:#000000;stroke-width:1.000000e-06;stroke-miterlimit:10;stroke-opacity:0;}
</style>
<g>
	<g>
		<g>
			<polygon class="st0" points="403.9,58.5 403.9,85.7 392.4,85.7 405.5,108.5 418.6,85.7 407.1,85.7 407.1,58.5 			"/>
		</g>
	</g>
</g>
<g>
	<g>
		<g>
			<polygon class="st0" points="403.9,178.5 403.9,205.7 392.4,205.7 405.5,228.5 418.6,205.7 407.1,205.7 407.1,178.5 			"/>
		</g>
	</g>
</g>
<g>
	<g>
		<g>
			<path class="st0" d="M508.5,274.1h57.7h28.9h15.2h4h2h1h0.5c0.1,0,0.2,0,0.2,0v-0.3v-8.1V149.6V34.1V26v-4v-2l-2,0h-15.8h-28.9
				h-40.1V8.4l-22.8,13.1l22.8,13.2V23.1h40.1h28.9h13.1l1.6,0v1.6v3.2v6.3v115.4v114.8v6.4v0.2c0,0-0.1,0-0.2,0h-0.4h-0.8h-1.6
				h-3.2h-13.7h-28.9h-57.7V274.1z"/>
		</g>
	</g>
</g>
<g>
	<g>
		<g>
			<polygon class="st0" points="302.5,268.9 230.3,268.9 230.3,257.4 207.5,270.5 230.3,283.6 230.3,272.1 302.5,272.1 			"/>
		</g>
	</g>
</g>
<g>
	<g>
		<g>
			<path class="st0" d="M107.1,237.5V34.7V23.6c-0.2-0.7,0.5-0.4,0.9-0.5h1.4h2.8h5.6H143h50.7h86v11.6l2.4-1.4l20.3-11.7L282.1,9.8
				l-2.4-1.4v11.6h-86H143h-25.5h-7.1h-3.6h-1.8h-0.9H104c-0.1,0-0.1,0-0.1,0v0.1v0.4v14.2v202.8H107.1z"/>
		</g>
	</g>
</g>
<g>
	<path class="st1" d="M302.5,11.5c0-5.5,4.5-10,10-10h186c5.5,0,10,4.5,10,10v37c0,5.5-4.5,10-10,10h-186c-5.5,0-10-4.5-10-10V11.5z
		"/>
</g>
<rect x="320.4" y="21.2" class="st2" width="171.6" height="17.8"/>
<g class="st3">
	<path d="M330,34l-2.6-5.2h-2.9V34H323V21.6h4c2.9,0,4.5,1.2,4.5,3.6c0,1.7-0.9,2.8-2.4,3.3l2.8,5.5H330z M326.9,27.3
		c2.1,0,3-0.6,3-2.2c0-1.5-0.9-2.2-3-2.2h-2.4v4.4H326.9z"/>
	<path d="M336.3,28.8h2.1v-1c0-1.3-0.6-1.6-2-1.6c-1.1,0-1.7,0.1-2.2,0.9l-1.1-0.8c0.6-1,1.5-1.5,3.3-1.5c2.3,0,3.4,0.7,3.4,2.9V34
		h-1.4v-0.9c-0.5,0.8-1.1,1-2.3,1c-2.1,0-3.2-1-3.2-2.8C332.9,29.4,334.3,28.8,336.3,28.8z M338.5,30h-2.1c-1.4,0-1.9,0.5-1.9,1.4
		c0,1,0.7,1.4,1.8,1.4c1.3,0,2.3-0.3,2.3-2.3V30z"/>
	<path d="M342.2,25h1.4v0.9c0.4-0.7,1.1-1,2.4-1c1.9,0,3.3,1,3.3,3.5V34h-1.4v-5.6c0-1.8-1-2.2-2.1-2.2c-1.4,0-2.2,1-2.2,2.2V34
		h-1.4V25z"/>
	<path d="M357.3,21.6h1.4V34h-1.4v-0.8c-0.5,0.6-1.3,0.9-2.4,0.9c-2.4,0-3.6-1.7-3.6-4.1v-1.2c0-2.6,1.4-4,3.6-4c1.2,0,2,0.4,2.4,1
		V21.6z M357.3,30.2v-1.3c0-1.7-0.8-2.7-2.3-2.7s-2.3,1-2.3,2.7v1.2c0,1.5,0.8,2.8,2.3,2.8C356.6,32.8,357.3,31.7,357.3,30.2z"/>
	<path d="M368.1,30.1c0,2.3-1.2,4.1-3.7,4.1c-2.4,0-3.7-1.6-3.7-4.1v-1.2c0-2.6,1.4-4,3.7-4c2.4,0,3.7,1.5,3.7,4V30.1z M366.7,30.1
		v-1.2c0-1.7-0.8-2.7-2.3-2.7s-2.3,1-2.3,2.7v1.2c0,1.5,0.6,2.8,2.3,2.8C365.9,32.8,366.7,31.6,366.7,30.1z"/>
	<path d="M370,25h1.4v0.9c0.4-0.6,1.1-1,2.2-1c1.2,0,2.1,0.5,2.6,1.4c0.6-1,1.6-1.4,2.7-1.4c1.9,0,3.1,1.2,3.1,3.5V34h-1.4v-5.6
		c0-1.6-0.8-2.2-1.9-2.2c-1.2,0-2,0.9-2,2.2V34h-1.4v-5.6c0-1.6-0.8-2.2-1.9-2.2c-1.2,0-2,1-2,2.2V34H370V25z"/>
	<path d="M392.5,34H391l-3-12.4h1.6l2.3,9.8l2.7-9.8h1.5l2.8,9.8l2.3-9.8h1.6l-3,12.4h-1.6l-2.8-9.7L392.5,34z"/>
	<path d="M406.8,28.8h2.1v-1c0-1.3-0.6-1.6-2-1.6c-1.1,0-1.7,0.1-2.2,0.9l-1.1-0.8c0.6-1,1.5-1.5,3.3-1.5c2.3,0,3.4,0.7,3.4,2.9V34
		h-1.4v-0.9c-0.5,0.8-1.1,1-2.3,1c-2.1,0-3.2-1-3.2-2.8C403.4,29.4,404.8,28.8,406.8,28.8z M408.9,30h-2.1c-1.4,0-1.9,0.5-1.9,1.4
		c0,1,0.7,1.4,1.8,1.4c1.3,0,2.3-0.3,2.3-2.3V30z"/>
	<path d="M412.7,21.6h1.4v9.3c0,1,0.1,1.8,1.5,1.8V34c-2.3,0-3-0.9-3-2.8V21.6z"/>
	<path d="M424.6,25l-3.9,4l4.4,5h-1.9l-3.6-3.9l-0.6,0.6V34h-1.4V21.6h1.4v7.1l3.6-3.7H424.6z"/>
	<path d="M437.7,24.3c-0.7-0.9-1.4-1.5-3-1.5c-1.4,0-2.4,0.6-2.4,1.9c0,1.5,1.1,2,2.9,2.3c2.4,0.4,3.9,1.3,3.9,3.6
		c0,1.6-1.1,3.5-4.2,3.5c-2,0-3.5-0.7-4.4-2l1.3-0.9c0.8,1,1.5,1.5,3.2,1.5c2,0,2.6-0.9,2.6-2c0-1.2-0.6-2-2.9-2.3
		c-2.3-0.4-3.9-1.5-3.9-3.6c0-1.8,1.2-3.3,4-3.3c2,0,3.2,0.7,4.1,2L437.7,24.3z"/>
	<path d="M444.1,28.8h2.1v-1c0-1.3-0.6-1.6-2-1.6c-1.1,0-1.7,0.1-2.2,0.9l-1.1-0.8c0.6-1,1.5-1.5,3.3-1.5c2.3,0,3.4,0.7,3.4,2.9V34
		h-1.4v-0.9c-0.5,0.8-1.1,1-2.3,1c-2.1,0-3.2-1-3.2-2.8C440.7,29.4,442.1,28.8,444.1,28.8z M446.2,30h-2.1c-1.4,0-1.9,0.5-1.9,1.4
		c0,1,0.7,1.4,1.8,1.4c1.3,0,2.3-0.3,2.3-2.3V30z"/>
	<path d="M450,25h1.4v0.9c0.4-0.6,1.1-1,2.2-1c1.2,0,2.1,0.5,2.6,1.4c0.6-1,1.6-1.4,2.7-1.4c1.9,0,3.1,1.2,3.1,3.5V34h-1.4v-5.6
		c0-1.6-0.8-2.2-1.9-2.2c-1.2,0-2,0.9-2,2.2V34h-1.4v-5.6c0-1.6-0.8-2.2-1.9-2.2c-1.2,0-2,1-2,2.2V34H450V25z"/>
	<path d="M468.3,24.8c2.2,0,3.6,1.5,3.6,4v1.2c0,2.3-1.2,4.1-3.6,4.1c-1.2,0-2-0.4-2.4-1v4.3h-1.4V25h1.4v0.9
		C466.4,25.2,467.1,24.8,468.3,24.8z M470.5,30.1v-1.2c0-1.7-0.8-2.7-2.3-2.7c-1.4,0-2.3,1-2.3,2.6v1.3c0,1.5,0.6,2.8,2.3,2.8
		C469.7,32.8,470.5,31.6,470.5,30.1z"/>
	<path d="M473.8,21.6h1.4v9.3c0,1,0.1,1.8,1.5,1.8V34c-2.3,0-3-0.9-3-2.8V21.6z"/>
	<path d="M485.3,32.6c-0.6,1.1-1.6,1.5-3.2,1.5c-2.4,0-3.9-1.6-3.9-4.1v-1.2c0-2.6,1.2-4,3.6-4c2.4,0,3.6,1.5,3.6,4v0.9h-5.7v0.3
		c0,1.5,0.7,2.8,2.3,2.8c1.2,0,1.8-0.3,2.1-1L485.3,32.6z M479.7,28.6h4.2c-0.1-1.5-0.7-2.4-2.1-2.4
		C480.5,26.1,479.8,27.1,479.7,28.6z"/>
	<path d="M492.4,26.9c-0.4-0.5-0.8-0.8-1.5-0.8c-1.1,0-1.9,0.8-1.9,2.2V34h-1.4v-9h1.4v0.9c0.4-0.6,1-1,2.1-1c1.2,0,2,0.4,2.6,1.2
		L492.4,26.9z"/>
</g>
<g>
	<path class="st1" d="M302.5,118.5c0-5.5,4.5-10,10-10h186c5.5,0,10,4.5,10,10v50c0,5.5-4.5,10-10,10h-186c-5.5,0-10-4.5-10-10
		V118.5z"/>
</g>
<rect x="320.4" y="128.4" class="st2" width="171.6" height="45.3"/>
<g class="st3">
	<path d="M344.3,131.5c-0.7-0.9-1.4-1.5-3-1.5c-1.4,0-2.4,0.6-2.4,1.9c0,1.5,1.1,2,2.9,2.3c2.4,0.4,3.9,1.3,3.9,3.6
		c0,1.6-1.1,3.5-4.2,3.5c-2,0-3.5-0.7-4.4-2l1.3-0.9c0.8,1,1.5,1.5,3.2,1.5c2,0,2.6-0.9,2.6-2c0-1.2-0.6-2-2.9-2.3
		c-2.3-0.4-3.9-1.5-3.9-3.6c0-1.8,1.2-3.3,4-3.3c2,0,3.2,0.7,4.1,2L344.3,131.5z"/>
	<path d="M354.8,137.2c0,2.3-1.2,4.1-3.7,4.1c-2.4,0-3.7-1.6-3.7-4.1v-1.2c0-2.6,1.4-4,3.7-4c2.4,0,3.7,1.5,3.7,4V137.2z
		 M353.4,137.2v-1.2c0-1.7-0.8-2.7-2.3-2.7s-2.3,1-2.3,2.7v1.2c0,1.5,0.6,2.8,2.3,2.8C352.6,140,353.4,138.8,353.4,137.2z"/>
	<path d="M356.7,128.7h1.4v9.3c0,1,0.1,1.8,1.5,1.8v1.3c-2.3,0-3-0.9-3-2.8V128.7z"/>
	<path d="M369.4,132.2l-3.6,9h-1.4l-3.7-9h1.6l2.7,7.2l2.7-7.2H369.4z"/>
	<path d="M377.3,139.8c-0.6,1.1-1.6,1.5-3.2,1.5c-2.4,0-3.9-1.6-3.9-4.1v-1.2c0-2.6,1.2-4,3.6-4c2.4,0,3.6,1.5,3.6,4v0.9h-5.7v0.3
		c0,1.5,0.7,2.8,2.3,2.8c1.2,0,1.8-0.3,2.1-1L377.3,139.8z M371.7,135.7h4.2c-0.1-1.5-0.7-2.4-2.1-2.4
		C372.4,133.3,371.8,134.2,371.7,135.7z"/>
	<path d="M391.8,128.7v1.4h-5.9v4.2h5.4v1.4h-5.4v5.4h-1.5v-12.4H391.8z"/>
	<path d="M400,137.2c0,2.3-1.2,4.1-3.7,4.1c-2.4,0-3.7-1.6-3.7-4.1v-1.2c0-2.6,1.4-4,3.7-4c2.4,0,3.7,1.5,3.7,4V137.2z M398.6,137.2
		v-1.2c0-1.7-0.8-2.7-2.3-2.7s-2.3,1-2.3,2.7v1.2c0,1.5,0.6,2.8,2.3,2.8C397.8,140,398.6,138.8,398.6,137.2z"/>
	<path d="M406.8,134.1c-0.4-0.5-0.8-0.8-1.5-0.8c-1.1,0-1.9,0.8-1.9,2.2v5.6h-1.4v-9h1.4v0.9c0.4-0.6,1-1,2.1-1c1.2,0,2,0.4,2.6,1.2
		L406.8,134.1z"/>
	<path d="M411.9,141.2h-1.3l-2.6-9h1.5l1.8,6.3l2.3-6.3h1.2l2.4,6.4l1.8-6.4h1.5l-2.6,9h-1.3l-2.4-6.7L411.9,141.2z"/>
	<path d="M424.8,136h2.1v-1c0-1.3-0.6-1.6-2-1.6c-1.1,0-1.7,0.1-2.2,0.9l-1.1-0.8c0.6-1,1.5-1.5,3.3-1.5c2.3,0,3.4,0.7,3.4,2.9v6.2
		H427v-0.9c-0.5,0.8-1.1,1-2.3,1c-2.1,0-3.2-1-3.2-2.8C421.5,136.6,422.8,136,424.8,136z M427,137.2h-2.1c-1.4,0-1.9,0.5-1.9,1.4
		c0,1,0.7,1.4,1.8,1.4c1.3,0,2.3-0.3,2.3-2.3V137.2z"/>
	<path d="M435.6,134.1c-0.4-0.5-0.8-0.8-1.5-0.8c-1.1,0-1.9,0.8-1.9,2.2v5.6h-1.4v-9h1.4v0.9c0.4-0.6,1-1,2.1-1c1.2,0,2,0.4,2.6,1.2
		L435.6,134.1z"/>
	<path d="M443.4,128.7h1.4v12.4h-1.4v-0.8c-0.5,0.6-1.3,0.9-2.4,0.9c-2.4,0-3.6-1.7-3.6-4.1v-1.2c0-2.6,1.4-4,3.6-4
		c1.2,0,2,0.4,2.4,1V128.7z M443.4,137.4v-1.3c0-1.7-0.8-2.7-2.3-2.7s-2.3,1-2.3,2.7v1.2c0,1.5,0.8,2.8,2.3,2.8
		C442.7,140,443.4,138.9,443.4,137.4z"/>
	<path d="M459.6,128.7v1.4h-5.9v3.9h5.4v1.4h-5.4v4.3h5.9v1.4h-7.5v-12.4H459.6z"/>
	<path d="M467.1,132.2h1.4v12.4h-1.4v-4.2c-0.5,0.6-1.3,0.9-2.4,0.9c-2.4,0-3.6-1.7-3.6-4.1v-1.2c0-2.6,1.4-4,3.6-4
		c1.2,0,2,0.4,2.4,1V132.2z M467.1,137.4v-1.3c0-1.7-0.8-2.7-2.3-2.7s-2.3,1-2.3,2.7v1.2c0,1.5,0.8,2.8,2.3,2.8
		C466.4,140,467.1,138.9,467.1,137.4z"/>
	<path d="M470.8,132.2h1.4v0.9c0.5-0.7,1.1-1,2.4-1c1.9,0,3.3,1,3.3,3.5v5.6h-1.4v-5.6c0-1.8-1-2.2-2.1-2.2c-1.3,0-2.2,1-2.2,2.2
		v5.6h-1.4V132.2z"/>
</g>
<g class="st3">
	<path d="M348.7,153.8h1.2v-2h1.4v2h2.1v1.3h-2.1v4.6c0,1.2,0.1,1.8,1.4,1.8h0.7v1.4h-0.8c-2.1,0-2.7-0.9-2.7-2.8v-4.9h-1.2V153.8z"
		/>
	<path d="M362.2,158.8c0,2.3-1.2,4.1-3.7,4.1c-2.4,0-3.7-1.6-3.7-4.1v-1.2c0-2.6,1.4-4,3.7-4c2.4,0,3.7,1.5,3.7,4V158.8z
		 M360.8,158.8v-1.2c0-1.7-0.8-2.7-2.3-2.7s-2.3,1-2.3,2.7v1.2c0,1.5,0.6,2.8,2.3,2.8C360,161.6,360.8,160.4,360.8,158.8z"/>
	<path d="M374.2,153.8h1.4v8.8c0,2.5-1.4,3.7-3.9,3.7c-1.6,0-2.5-0.4-3.2-1.5l1.1-0.8c0.4,0.7,1,1,2.1,1c1.6,0,2.3-0.9,2.3-2.4V162
		c-0.5,0.6-1.3,0.9-2.4,0.9c-2.4,0-3.6-1.7-3.6-4.1v-1.2c0-2.6,1.4-4,3.6-4c1.2,0,2,0.4,2.4,1V153.8z M374.2,158.8v-1.2
		c0-1.7-0.8-2.7-2.3-2.7s-2.3,1-2.3,2.7v1.2c0,1.5,0.8,2.8,2.3,2.8C373.6,161.6,374.2,160.4,374.2,158.8z"/>
	<path d="M384.5,161.4c-0.6,1.1-1.6,1.5-3.2,1.5c-2.4,0-3.9-1.6-3.9-4.1v-1.2c0-2.6,1.2-4,3.6-4c2.4,0,3.6,1.5,3.6,4v0.9H379v0.3
		c0,1.5,0.7,2.8,2.3,2.8c1.2,0,1.8-0.3,2.1-1L384.5,161.4z M379,157.3h4.2c-0.1-1.5-0.7-2.4-2.1-2.4
		C379.7,154.9,379.1,155.8,379,157.3z"/>
	<path d="M386,153.8h1.2v-2h1.4v2h2.1v1.3h-2.1v4.6c0,1.2,0.1,1.8,1.4,1.8h0.7v1.4h-0.8c-2.1,0-2.7-0.9-2.7-2.8v-4.9H386V153.8z"/>
	<path d="M403.8,153.1c-0.7-0.9-1.4-1.5-3-1.5c-1.4,0-2.4,0.6-2.4,1.9c0,1.5,1.1,2,2.9,2.3c2.4,0.4,3.9,1.3,3.9,3.6
		c0,1.6-1.1,3.5-4.2,3.5c-2,0-3.5-0.7-4.4-2l1.3-0.9c0.8,1,1.5,1.5,3.2,1.5c2,0,2.6-0.9,2.6-2c0-1.2-0.6-2-2.9-2.3
		c-2.3-0.4-3.9-1.5-3.9-3.6c0-1.8,1.2-3.3,4-3.3c2,0,3.2,0.7,4.1,2L403.8,153.1z"/>
	<path d="M407.4,150.3h1.6v1.6h-1.6V150.3z M407.5,153.8h1.4v9h-1.4V153.8z"/>
	<path d="M411.5,153.8h1.4v0.9c0.4-0.6,1.1-1,2.2-1c1.2,0,2.1,0.5,2.6,1.4c0.6-1,1.6-1.4,2.7-1.4c1.9,0,3.1,1.2,3.1,3.5v5.6h-1.4
		v-5.6c0-1.6-0.8-2.2-1.9-2.2c-1.2,0-2,0.9-2,2.2v5.6h-1.4v-5.6c0-1.6-0.8-2.2-1.9-2.2c-1.2,0-2,1-2,2.2v5.6h-1.4V153.8z"/>
	<path d="M430.8,162.8v-12.4h4c2.8,0,4.5,1.5,4.5,5.6v1.3c0,4-1.7,5.6-4.5,5.6H430.8z M437.8,157.2v-1.3c0-3.1-1-4.2-3-4.2h-2.4v9.6
		h2.4C436.7,161.4,437.8,160.3,437.8,157.2z"/>
	<path d="M444.3,157.6h2.1v-1c0-1.3-0.6-1.6-2-1.6c-1.1,0-1.7,0.1-2.2,0.9l-1.1-0.8c0.6-1,1.5-1.5,3.3-1.5c2.3,0,3.4,0.7,3.4,2.9
		v6.2h-1.4v-0.9c-0.5,0.8-1.1,1-2.3,1c-2.1,0-3.2-1-3.2-2.8C440.9,158.2,442.3,157.6,444.3,157.6z M446.4,158.8h-2.1
		c-1.4,0-1.9,0.5-1.9,1.4c0,1,0.7,1.4,1.8,1.4c1.3,0,2.3-0.3,2.3-2.3V158.8z"/>
	<path d="M449.4,153.8h1.2v-2h1.4v2h2.1v1.3H452v4.6c0,1.2,0.1,1.8,1.4,1.8h0.7v1.4h-0.8c-2.1,0-2.7-0.9-2.7-2.8v-4.9h-1.2V153.8z"
		/>
	<path d="M458.8,157.6h2.1v-1c0-1.3-0.6-1.6-2-1.6c-1.1,0-1.7,0.1-2.2,0.9l-1.1-0.8c0.6-1,1.5-1.5,3.3-1.5c2.3,0,3.4,0.7,3.4,2.9
		v6.2h-1.4v-0.9c-0.5,0.8-1.1,1-2.3,1c-2.1,0-3.2-1-3.2-2.8C455.4,158.2,456.8,157.6,458.8,157.6z M460.9,158.8h-2.1
		c-1.4,0-1.9,0.5-1.9,1.4c0,1,0.7,1.4,1.8,1.4c1.3,0,2.3-0.3,2.3-2.3V158.8z"/>
</g>
<g>
	<path class="st1" d="M302.5,238.5c0-5.5,4.5-10,10-10h186c5.5,0,10,4.5,10,10v67c0,5.5-4.5,10-10,10h-186c-5.5,0-10-4.5-10-10
		V238.5z"/>
</g>
<rect x="320.4" y="243.2" class="st2" width="171.6" height="17.8"/>
<g class="st3">
	<path d="M321.3,274l4.3-12.4h1.4l4.3,12.4h-1.6l-1-2.8h-4.9l-1,2.8H321.3z M324.4,269.7h3.9l-2-5.8L324.4,269.7z"/>
	<path d="M339.2,272.6c-0.6,1-1.7,1.5-3.1,1.5c-2.5,0-3.9-1.6-3.9-4.1v-1.2c0-2.6,1.5-4,3.9-4c1.4,0,2.5,0.5,3.1,1.4L338,267
		c-0.4-0.6-1.2-0.9-2-0.9c-1.5,0-2.4,1-2.4,2.7v1.2c0,1.5,0.7,2.8,2.4,2.8c0.8,0,1.6-0.3,2-1L339.2,272.6z"/>
	<path d="M347.1,272.6c-0.6,1-1.7,1.5-3.1,1.5c-2.5,0-3.9-1.6-3.9-4.1v-1.2c0-2.6,1.5-4,3.9-4c1.4,0,2.5,0.5,3.1,1.4L346,267
		c-0.4-0.6-1.2-0.9-2-0.9c-1.5,0-2.4,1-2.4,2.7v1.2c0,1.5,0.7,2.8,2.4,2.8c0.8,0,1.6-0.3,2-1L347.1,272.6z"/>
	<path d="M355.1,272.6c-0.6,1.1-1.6,1.5-3.2,1.5c-2.4,0-3.9-1.6-3.9-4.1v-1.2c0-2.6,1.2-4,3.6-4c2.4,0,3.6,1.5,3.6,4v0.9h-5.7v0.3
		c0,1.5,0.7,2.8,2.3,2.8c1.2,0,1.8-0.3,2.1-1L355.1,272.6z M349.6,268.6h4.2c-0.1-1.5-0.7-2.4-2.1-2.4
		C350.3,266.1,349.7,267.1,349.6,268.6z"/>
	<path d="M361.3,264.8c2.2,0,3.6,1.5,3.6,4v1.2c0,2.3-1.2,4.1-3.6,4.1c-1.2,0-2-0.4-2.4-1v4.3h-1.4V265h1.4v0.9
		C359.3,265.2,360.1,264.8,361.3,264.8z M363.4,270.1v-1.2c0-1.7-0.8-2.7-2.3-2.7c-1.4,0-2.3,1-2.3,2.6v1.3c0,1.5,0.6,2.8,2.3,2.8
		C362.6,272.8,363.4,271.6,363.4,270.1z"/>
	<path d="M366,265h1.2v-2h1.4v2h2.1v1.3h-2.1v4.6c0,1.2,0.1,1.8,1.4,1.8h0.7v1.4h-0.8c-2.1,0-2.7-0.9-2.7-2.8v-4.9H366V265z"/>
	<path d="M375.3,268.8h2.1v-1c0-1.3-0.6-1.6-2-1.6c-1.1,0-1.7,0.1-2.2,0.9l-1.1-0.8c0.6-1,1.5-1.5,3.3-1.5c2.3,0,3.4,0.7,3.4,2.9
		v6.2h-1.4v-0.9c-0.5,0.8-1.1,1-2.3,1c-2.1,0-3.2-1-3.2-2.8C372,269.4,373.4,268.8,375.3,268.8z M377.5,270h-2.1
		c-1.4,0-1.9,0.5-1.9,1.4c0,1,0.7,1.4,1.8,1.4c1.3,0,2.3-0.3,2.3-2.3V270z"/>
	<path d="M381.3,265h1.4v0.9c0.5-0.7,1.1-1,2.4-1c1.9,0,3.3,1,3.3,3.5v5.6h-1.4v-5.6c0-1.8-1-2.2-2.1-2.2c-1.4,0-2.2,1-2.2,2.2v5.6
		h-1.4V265z"/>
	<path d="M397.3,272.6c-0.6,1-1.7,1.5-3.1,1.5c-2.5,0-3.9-1.6-3.9-4.1v-1.2c0-2.6,1.5-4,3.9-4c1.4,0,2.5,0.5,3.1,1.4l-1.1,0.8
		c-0.4-0.6-1.2-0.9-2-0.9c-1.5,0-2.4,1-2.4,2.7v1.2c0,1.5,0.7,2.8,2.4,2.8c0.8,0,1.6-0.3,2-1L397.3,272.6z"/>
	<path d="M405.3,272.6c-0.6,1.1-1.6,1.5-3.2,1.5c-2.4,0-3.9-1.6-3.9-4.1v-1.2c0-2.6,1.2-4,3.6-4c2.4,0,3.6,1.5,3.6,4v0.9h-5.7v0.3
		c0,1.5,0.7,2.8,2.3,2.8c1.2,0,1.8-0.3,2.1-1L405.3,272.6z M399.7,268.6h4.2c-0.1-1.5-0.7-2.4-2.1-2.4
		C400.4,266.1,399.8,267.1,399.7,268.6z"/>
	<path d="M413.9,269.3v4.7h-1.5v-12.4h4c2.9,0,4.5,1.4,4.5,3.9c0,2.4-1.6,3.8-4.5,3.8H413.9z M416.3,267.9c2.1,0,3-0.9,3-2.4
		c0-1.5-0.9-2.4-3-2.4h-2.4v4.9H416.3z"/>
	<path d="M427.5,266.9c-0.4-0.5-0.8-0.8-1.5-0.8c-1.1,0-1.9,0.8-1.9,2.2v5.6h-1.4v-9h1.4v0.9c0.4-0.6,1-1,2.1-1c1.2,0,2,0.4,2.6,1.2
		L427.5,266.9z"/>
	<path d="M436.7,270.1c0,2.3-1.2,4.1-3.7,4.1c-2.4,0-3.7-1.6-3.7-4.1v-1.2c0-2.6,1.4-4,3.7-4c2.4,0,3.7,1.5,3.7,4V270.1z
		 M435.3,270.1v-1.2c0-1.7-0.8-2.7-2.3-2.7s-2.3,1-2.3,2.7v1.2c0,1.5,0.6,2.8,2.3,2.8C434.5,272.8,435.3,271.6,435.3,270.1z"/>
	<path d="M440,265.9c0.5-0.7,1.3-1,2.4-1c2.2,0,3.6,1.5,3.6,4v1.2c0,2.3-1.2,4.1-3.6,4.1c-1.2,0-2-0.3-2.4-0.9v0.8h-1.4v-12.4h1.4
		V265.9z M444.7,270.1v-1.2c0-1.7-0.8-2.7-2.3-2.7c-1.4,0-2.3,1-2.3,2.6v1.3c0,1.5,0.6,2.8,2.3,2.8
		C443.9,272.8,444.7,271.6,444.7,270.1z"/>
	<path d="M450.9,268.8h2.1v-1c0-1.3-0.6-1.6-2-1.6c-1.1,0-1.7,0.1-2.2,0.9l-1.1-0.8c0.6-1,1.5-1.5,3.3-1.5c2.3,0,3.4,0.7,3.4,2.9
		v6.2H453v-0.9c-0.5,0.8-1.1,1-2.3,1c-2.1,0-3.2-1-3.2-2.8C447.5,269.4,448.9,268.8,450.9,268.8z M453,270h-2.1
		c-1.4,0-1.9,0.5-1.9,1.4c0,1,0.7,1.4,1.8,1.4c1.3,0,2.3-0.3,2.3-2.3V270z"/>
	<path d="M458.3,265.9c0.5-0.7,1.3-1,2.4-1c2.2,0,3.6,1.5,3.6,4v1.2c0,2.3-1.2,4.1-3.6,4.1c-1.2,0-2-0.3-2.4-0.9v0.8h-1.4v-12.4h1.4
		V265.9z M462.9,270.1v-1.2c0-1.7-0.8-2.7-2.3-2.7c-1.4,0-2.3,1-2.3,2.6v1.3c0,1.5,0.6,2.8,2.3,2.8
		C462.1,272.8,462.9,271.6,462.9,270.1z"/>
	<path d="M466.4,261.6h1.6v1.6h-1.6V261.6z M466.5,265h1.4v9h-1.4V265z"/>
	<path d="M470.5,261.6h1.4v9.3c0,1,0.1,1.8,1.5,1.8v1.3c-2.3,0-3-0.9-3-2.8V261.6z"/>
	<path d="M475.6,261.6h1.6v1.6h-1.6V261.6z M475.7,265h1.4v9h-1.4V265z"/>
	<path d="M479,265h1.2v-2h1.4v2h2.1v1.3h-2.1v4.6c0,1.2,0.1,1.8,1.3,1.8h0.7v1.4h-0.8c-2.1,0-2.7-0.9-2.7-2.8v-4.9H479V265z"/>
	<path d="M487.9,274.1l-3.5-9.1h1.5l2.7,7l2.4-7h1.5l-3.2,9.3c-0.7,2.2-1.2,3.1-3.7,3.1V276c1.2,0,1.7-0.2,2.3-1.8L487.9,274.1z"/>
</g>
<path class="st4" d="M805.5,161.5"/>
<g>
	<path class="st1" d="M1.5,247.5c0-5.5,4.5-10,10-10h186c5.5,0,10,4.5,10,10v50c0,5.5-4.5,10-10,10h-186c-5.5,0-10-4.5-10-10V247.5z
		"/>
</g>
<rect x="19.4" y="253.4" class="st2" width="171.6" height="40.6"/>
<g class="st3">
	<path d="M60.8,253.7v7.4c0,3.7-1.7,5.2-4.5,5.2s-4.5-1.5-4.5-5.2v-7.4h1.5v7.4c0,2.7,1,3.8,3,3.8s3-1.1,3-3.8v-7.4H60.8z"/>
	<path d="M67.4,257c2.2,0,3.6,1.5,3.6,4v1.2c0,2.3-1.2,4.1-3.6,4.1c-1.2,0-2-0.4-2.4-1v4.3h-1.4v-12.4h1.4v0.9
		C65.4,257.4,66.2,257,67.4,257z M69.6,262.2v-1.2c0-1.7-0.8-2.7-2.3-2.7c-1.4,0-2.3,1-2.3,2.6v1.3c0,1.5,0.6,2.8,2.3,2.8
		C68.8,265,69.6,263.8,69.6,262.2z"/>
	<path d="M78.5,253.7h1.4v12.4h-1.4v-0.8c-0.5,0.6-1.3,0.9-2.4,0.9c-2.4,0-3.6-1.7-3.6-4.1v-1.2c0-2.6,1.4-4,3.6-4
		c1.2,0,2,0.4,2.4,1V253.7z M78.5,262.4v-1.3c0-1.7-0.8-2.7-2.3-2.7s-2.3,1-2.3,2.7v1.2c0,1.5,0.8,2.8,2.3,2.8
		C77.8,265,78.5,263.9,78.5,262.4z"/>
	<path d="M85.2,261h2.1v-1c0-1.3-0.6-1.6-2-1.6c-1.1,0-1.7,0.1-2.2,0.9l-1.1-0.8c0.6-1,1.5-1.5,3.3-1.5c2.3,0,3.4,0.7,3.4,2.9v6.2
		h-1.4v-0.9c-0.5,0.8-1.1,1-2.3,1c-2.1,0-3.2-1-3.2-2.8C81.8,261.6,83.2,261,85.2,261z M87.3,262.2h-2.1c-1.4,0-1.9,0.5-1.9,1.4
		c0,1,0.7,1.4,1.8,1.4c1.3,0,2.3-0.3,2.3-2.3V262.2z"/>
	<path d="M90.3,257.2h1.2v-2h1.4v2H95v1.3h-2.1v4.6c0,1.2,0.1,1.8,1.4,1.8H95v1.4h-0.8c-2.1,0-2.7-0.9-2.7-2.8v-4.9h-1.2V257.2z"/>
	<path d="M103.3,264.8c-0.6,1.1-1.6,1.5-3.2,1.5c-2.4,0-3.9-1.6-3.9-4.1v-1.2c0-2.6,1.2-4,3.6-4c2.4,0,3.6,1.5,3.6,4v0.9h-5.7v0.3
		c0,1.5,0.7,2.8,2.3,2.8c1.2,0,1.8-0.3,2.1-1L103.3,264.8z M97.8,260.7h4.2c-0.1-1.5-0.7-2.4-2.1-2.4
		C98.5,258.3,97.9,259.2,97.8,260.7z"/>
	<path d="M115.1,259.3c-0.5-0.6-1-0.9-2.2-0.9c-1.1,0-1.7,0.4-1.7,1.2c0,1,0.9,1.3,2.1,1.4c1.7,0.1,3.2,0.6,3.2,2.7
		c0,1.6-1.1,2.6-3.4,2.6c-1.8,0-2.8-0.6-3.5-1.5l1.1-0.8c0.5,0.6,1.1,0.9,2.4,0.9c1.2,0,1.9-0.5,1.9-1.3c0-1-0.6-1.3-2.3-1.4
		c-1.5-0.1-3-0.7-3-2.7c0-1.5,1.1-2.6,3.2-2.6c1.5,0,2.6,0.4,3.3,1.5L115.1,259.3z"/>
	<path d="M117.7,257.2h1.2v-2h1.4v2h2.1v1.3h-2.1v4.6c0,1.2,0.1,1.8,1.4,1.8h0.7v1.4h-0.8c-2.1,0-2.7-0.9-2.7-2.8v-4.9h-1.2V257.2z"
		/>
	<path d="M130.7,264.8c-0.6,1.1-1.6,1.5-3.2,1.5c-2.4,0-3.9-1.6-3.9-4.1v-1.2c0-2.6,1.2-4,3.6-4c2.4,0,3.6,1.5,3.6,4v0.9h-5.7v0.3
		c0,1.5,0.7,2.8,2.3,2.8c1.2,0,1.8-0.3,2.1-1L130.7,264.8z M125.1,260.7h4.2c-0.1-1.5-0.7-2.4-2.1-2.4
		C125.8,258.3,125.2,259.2,125.1,260.7z"/>
	<path d="M136.8,257c2.2,0,3.6,1.5,3.6,4v1.2c0,2.3-1.2,4.1-3.6,4.1c-1.2,0-2-0.4-2.4-1v4.3h-1.4v-12.4h1.4v0.9
		C134.8,257.4,135.6,257,136.8,257z M138.9,262.2v-1.2c0-1.7-0.8-2.7-2.3-2.7c-1.4,0-2.3,1-2.3,2.6v1.3c0,1.5,0.6,2.8,2.3,2.8
		C138.2,265,138.9,263.8,138.9,262.2z"/>
	<path d="M147,253.7h1.6v1.6H147V253.7z M147,257.2h1.4v9H147V257.2z"/>
	<path d="M151.1,257.2h1.4v0.9c0.5-0.7,1.1-1,2.4-1c1.9,0,3.3,1,3.3,3.5v5.6h-1.4v-5.6c0-1.8-1-2.2-2.1-2.2c-1.4,0-2.2,1-2.2,2.2
		v5.6h-1.4V257.2z"/>
</g>
<g class="st3">
	<path d="M61.6,283.1l3.7-7.7h1.5v12.4h-1.5v-9.1l-3,6.5h-1.4l-3-6.5v9.1h-1.5v-12.4h1.5L61.6,283.1z"/>
	<path d="M72.5,282.6h2.1v-1c0-1.3-0.6-1.6-2-1.6c-1.1,0-1.7,0.1-2.2,0.9l-1.1-0.8c0.6-1,1.5-1.5,3.3-1.5c2.3,0,3.4,0.7,3.4,2.9v6.2
		h-1.4v-0.9c-0.5,0.8-1.1,1-2.3,1c-2.1,0-3.2-1-3.2-2.8C69.1,283.2,70.5,282.6,72.5,282.6z M74.6,283.8h-2.1c-1.4,0-1.9,0.5-1.9,1.4
		c0,1,0.7,1.4,1.8,1.4c1.3,0,2.3-0.3,2.3-2.3V283.8z"/>
	<path d="M83.3,280.7c-0.4-0.5-0.8-0.8-1.5-0.8c-1.1,0-1.9,0.8-1.9,2.2v5.6h-1.4v-9h1.4v0.9c0.4-0.6,1-1,2.1-1c1.2,0,2,0.4,2.6,1.2
		L83.3,280.7z"/>
	<path d="M92.4,278.8l-3.9,4l4.4,5h-1.9l-3.6-3.9l-0.6,0.6v3.3h-1.4v-12.4h1.4v7.1l3.6-3.7H92.4z"/>
	<path d="M100.7,283.8c0,2.3-1.2,4.1-3.7,4.1c-2.4,0-3.7-1.6-3.7-4.1v-1.2c0-2.6,1.4-4,3.7-4c2.4,0,3.7,1.5,3.7,4V283.8z
		 M99.3,283.8v-1.2c0-1.7-0.8-2.7-2.3-2.7s-2.3,1-2.3,2.7v1.2c0,1.5,0.6,2.8,2.3,2.8C98.5,286.6,99.3,285.4,99.3,283.8z"/>
	<path d="M110.3,278.8l-3.6,9h-1.4l-3.7-9h1.6l2.7,7.2l2.7-7.2H110.3z"/>
	<path d="M122.7,286.4c-0.6,1-1.7,1.5-3.1,1.5c-2.5,0-3.9-1.6-3.9-4.1v-1.2c0-2.6,1.5-4,3.9-4c1.4,0,2.5,0.5,3.1,1.4l-1.1,0.8
		c-0.4-0.6-1.2-0.9-2-0.9c-1.5,0-2.4,1-2.4,2.7v1.2c0,1.5,0.7,2.8,2.4,2.8c0.8,0,1.6-0.3,2-1L122.7,286.4z"/>
	<path d="M124.2,275.3h1.4v4.3c0.5-0.7,1.1-1,2.4-1c1.9,0,3.3,1,3.3,3.5v5.6h-1.4v-5.6c0-1.8-1-2.2-2.1-2.2c-1.4,0-2.2,1-2.2,2.2
		v5.6h-1.4V275.3z"/>
	<path d="M136.6,282.6h2.1v-1c0-1.3-0.6-1.6-2-1.6c-1.1,0-1.7,0.1-2.2,0.9l-1.1-0.8c0.6-1,1.5-1.5,3.3-1.5c2.3,0,3.4,0.7,3.4,2.9
		v6.2h-1.4v-0.9c-0.5,0.8-1.1,1-2.3,1c-2.1,0-3.2-1-3.2-2.8C133.2,283.2,134.6,282.6,136.6,282.6z M138.7,283.8h-2.1
		c-1.4,0-1.9,0.5-1.9,1.4c0,1,0.7,1.4,1.8,1.4c1.3,0,2.3-0.3,2.3-2.3V283.8z"/>
	<path d="M142.7,275.3h1.6v1.6h-1.6V275.3z M142.8,278.8h1.4v9h-1.4V278.8z"/>
	<path d="M146.8,278.8h1.4v0.9c0.5-0.7,1.1-1,2.4-1c1.9,0,3.3,1,3.3,3.5v5.6h-1.4v-5.6c0-1.8-1-2.2-2.1-2.2c-1.4,0-2.2,1-2.2,2.2
		v5.6h-1.4V278.8z"/>
</g>
<path class="st5" d="M377.5,386.5"/>
<rect x="533.9" y="251.4" class="st2" width="94.6" height="15.8"/>
<g class="st3">
	<path d="M542.5,264.1l-2.6-5.2h-2.9v5.2h-1.5v-12.4h4c2.9,0,4.5,1.2,4.5,3.6c0,1.7-0.9,2.8-2.4,3.3l2.8,5.5H542.5z M539.3,257.5
		c2.1,0,3-0.6,3-2.2c0-1.5-0.9-2.2-3-2.2h-2.4v4.4H539.3z"/>
	<path d="M552.4,262.8c-0.6,1.1-1.6,1.5-3.2,1.5c-2.4,0-3.9-1.6-3.9-4.1V259c0-2.6,1.2-4,3.6-4c2.4,0,3.6,1.5,3.6,4v0.9h-5.7v0.3
		c0,1.5,0.7,2.8,2.3,2.8c1.2,0,1.8-0.3,2.1-1L552.4,262.8z M546.8,258.7h4.2c-0.1-1.5-0.7-2.4-2.1-2.4
		C547.6,256.3,546.9,257.2,546.8,258.7z"/>
	<path d="M556.4,264.8c0,1.9-0.7,2.8-3,2.8v-1.3c1.5,0,1.5-0.8,1.5-1.8v-9.3h1.4V264.8z M554.9,251.7h1.6v1.6h-1.6V251.7z"/>
	<path d="M565.4,262.8c-0.6,1.1-1.6,1.5-3.2,1.5c-2.4,0-3.9-1.6-3.9-4.1V259c0-2.6,1.2-4,3.6-4c2.4,0,3.6,1.5,3.6,4v0.9h-5.7v0.3
		c0,1.5,0.7,2.8,2.3,2.8c1.2,0,1.8-0.3,2.1-1L565.4,262.8z M559.8,258.7h4.2c-0.1-1.5-0.7-2.4-2.1-2.4
		C560.6,256.3,559.9,257.2,559.8,258.7z"/>
	<path d="M574.2,262.8c-0.6,1-1.7,1.5-3.1,1.5c-2.5,0-3.9-1.6-3.9-4.1V259c0-2.6,1.5-4,3.9-4c1.3,0,2.5,0.5,3.1,1.4l-1.1,0.8
		c-0.4-0.6-1.2-0.9-2-0.9c-1.5,0-2.4,1-2.4,2.7v1.2c0,1.5,0.7,2.8,2.4,2.8c0.8,0,1.6-0.3,2-1L574.2,262.8z"/>
	<path d="M574.8,255.1h1.2v-2h1.4v2h2.1v1.3h-2.1v4.6c0,1.2,0.1,1.8,1.4,1.8h0.7v1.4h-0.8c-2.1,0-2.7-0.9-2.7-2.8v-4.9h-1.2V255.1z"
		/>
</g>
<rect x="234.9" y="251.4" class="st2" width="94.6" height="15.8"/>
<g class="st3">
	<path d="M235,264.1l4.3-12.4h1.4l4.3,12.4h-1.6l-1-2.8h-4.9l-1,2.8H235z M238.1,259.9h3.9l-2-5.8L238.1,259.9z"/>
	<path d="M252.9,262.8c-0.6,1-1.7,1.5-3.1,1.5c-2.5,0-3.9-1.6-3.9-4.1V259c0-2.6,1.5-4,3.9-4c1.4,0,2.5,0.5,3.1,1.4l-1.1,0.8
		c-0.4-0.6-1.2-0.9-2-0.9c-1.5,0-2.4,1-2.4,2.7v1.2c0,1.5,0.7,2.8,2.4,2.8c0.8,0,1.6-0.3,2-1L252.9,262.8z"/>
	<path d="M260.9,262.8c-0.6,1-1.7,1.5-3.1,1.5c-2.5,0-3.9-1.6-3.9-4.1V259c0-2.6,1.5-4,3.9-4c1.4,0,2.5,0.5,3.1,1.4l-1.1,0.8
		c-0.4-0.6-1.2-0.9-2-0.9c-1.5,0-2.4,1-2.4,2.7v1.2c0,1.5,0.7,2.8,2.4,2.8c0.8,0,1.6-0.3,2-1L260.9,262.8z"/>
	<path d="M268.9,262.8c-0.6,1.1-1.6,1.5-3.2,1.5c-2.4,0-3.9-1.6-3.9-4.1V259c0-2.6,1.2-4,3.6-4c2.4,0,3.6,1.5,3.6,4v0.9h-5.7v0.3
		c0,1.5,0.7,2.8,2.3,2.8c1.2,0,1.8-0.3,2.1-1L268.9,262.8z M263.3,258.7h4.2c-0.1-1.5-0.7-2.4-2.1-2.4
		C264.1,256.3,263.4,257.2,263.3,258.7z"/>
	<path d="M275,255c2.2,0,3.6,1.5,3.6,4v1.2c0,2.3-1.2,4.1-3.6,4.1c-1.2,0-2-0.4-2.4-1v4.3h-1.4v-12.4h1.4v0.9
		C273.1,255.4,273.8,255,275,255z M277.2,260.2V259c0-1.7-0.8-2.7-2.3-2.7c-1.4,0-2.3,1-2.3,2.6v1.3c0,1.5,0.6,2.8,2.3,2.8
		C276.4,263,277.2,261.7,277.2,260.2z"/>
	<path d="M279.7,255.1h1.2v-2h1.4v2h2.1v1.3h-2.1v4.6c0,1.2,0.1,1.8,1.4,1.8h0.7v1.4h-0.8c-2.1,0-2.7-0.9-2.7-2.8v-4.9h-1.2V255.1z"
		/>
</g>
<polygon class="st6" points="404,287 404,287 404,287 404,287 404,287 404,287 404,287 404,287 404,287 404,287 404,287 404,287 
	404,287 404,287 404,287 404,287 404,287 404,287 404,287 404,287 404,287 404,287 404,287 404,287 404,287 404,287 404,287 
	404,287 404,287 404,287 404,287 404,287 404,287 404,287 404,287 404,287 404,287 404,287 404,287 404,287 404,287 404,287 
	404,287 404,287 404,287 404,287 404,287 404,287 404,287 404,287 404,287 404,287 404,287 404,287 404,287 404,287 404,287 
	404,287 404,287 404,287 404,287 404,287 404,287 404,287 404,287 404,287 404,287 404,287 404,287 404,287 404,287 404,287 
	404,287 404,287 404,287 404,287 404,287 404,287 404,287 404,287 404,287 404,287 404,287 404,287 404,287 404,287 404,287 
	404,287 404,287 404,287 404,287 404,287 404,287 404,287 404,287 404,287 "/>
</svg>
