<?xml version="1.0" encoding="utf-8"?>
<!-- Generator: Adobe Illustrator 24.3.0, SVG Export Plug-In . SVG Version: 6.00 Build 0)  -->
<svg version="1.1" id="Layer_1" xmlns="http://www.w3.org/2000/svg" xmlns:xlink="http://www.w3.org/1999/xlink" x="0px" y="0px"
	 viewBox="0 0 758 97" style="enable-background:new 0 0 758 97;" xml:space="preserve">
<style type="text/css">
	.st0{fill:none;stroke:#808080;stroke-width:3;stroke-miterlimit:10;}
	.st1{fill:#808080;}
	.st2{fill:none;stroke:#E36F1E;stroke-width:3;stroke-miterlimit:10;}
	.st3{fill:none;}
</style>
<g>
	<g>
		<line class="st0" x1="480.9" y1="48.2" x2="521.7" y2="48.2"/>
		<g>
			<polygon class="st1" points="542.9,48.2 513.1,60.4 520.1,48.2 513.1,36 			"/>
		</g>
	</g>
</g>
<g>
	<g>
		<line class="st0" x1="210.9" y1="48.2" x2="251.7" y2="48.2"/>
		<g>
			<polygon class="st1" points="272.9,48.2 243.1,60.4 250.1,48.2 243.1,36 			"/>
		</g>
	</g>
</g>
<g>
	<path class="st2" d="M210.5,81.5c0,5.5-4.5,10-10,10h-186c-5.5,0-10-4.5-10-10v-67c0-5.5,4.5-10,10-10h186c5.5,0,10,4.5,10,10V81.5
		z"/>
</g>
<g>
	<rect x="25.5" y="39.2" class="st3" width="163.9" height="17.6"/>
	<path d="M28.8,39.9v13.5h-1.7V39.9H28.8z"/>
	<path d="M32,46.4c0-1,0-1.8-0.1-2.6h1.6l0.1,1.6h0c0.5-0.9,1.6-1.8,3.2-1.8c1.3,0,3.4,0.8,3.4,4.1v5.8h-1.8v-5.6
		c0-1.6-0.6-2.9-2.2-2.9c-1.2,0-2.1,0.8-2.4,1.8c-0.1,0.2-0.1,0.5-0.1,0.8v5.8H32V46.4z"/>
	<path d="M43.1,46.9c0-1.2,0-2.2-0.1-3.2h1.6l0.1,1.7h0c0.7-1.2,1.9-1.9,3.4-1.9c2.3,0,4.1,2,4.1,4.9c0,3.5-2.1,5.2-4.4,5.2
		c-1.3,0-2.4-0.6-3-1.5h0v5.3h-1.7V46.9z M44.8,49.5c0,0.3,0,0.5,0.1,0.7c0.3,1.2,1.4,2.1,2.6,2.1c1.9,0,2.9-1.5,2.9-3.7
		c0-1.9-1-3.6-2.9-3.6c-1.2,0-2.3,0.9-2.7,2.2c-0.1,0.2-0.1,0.5-0.1,0.7V49.5z"/>
	<path d="M62.6,50.8c0,1,0,1.9,0.1,2.6h-1.6L61,51.8h0c-0.5,0.8-1.5,1.8-3.2,1.8c-1.5,0-3.3-0.8-3.3-4.2v-5.7h1.8v5.4
		c0,1.8,0.6,3.1,2.2,3.1c1.2,0,2-0.8,2.3-1.6c0.1-0.3,0.2-0.6,0.2-0.9v-5.9h1.8V50.8z"/>
	<path d="M67.6,41v2.8h2.5v1.3h-2.5v5.2c0,1.2,0.3,1.9,1.3,1.9c0.5,0,0.8-0.1,1-0.1l0.1,1.3c-0.3,0.1-0.9,0.2-1.6,0.2
		c-0.8,0-1.5-0.3-1.9-0.7c-0.5-0.5-0.7-1.4-0.7-2.5v-5.3h-1.5v-1.3h1.5v-2.3L67.6,41z"/>
	<path d="M71.7,45.3c0-0.7,0.5-1.3,1.2-1.3c0.7,0,1.2,0.5,1.2,1.3c0,0.7-0.5,1.2-1.2,1.2C72.2,46.6,71.7,46,71.7,45.3z M71.7,52.4
		c0-0.7,0.5-1.3,1.2-1.3c0.7,0,1.2,0.5,1.2,1.3c0,0.7-0.5,1.2-1.2,1.2C72.2,53.6,71.7,53.1,71.7,52.4z"/>
	<path d="M82.8,53.4l-4.4-13.5h1.9l2.1,6.6c0.6,1.8,1.1,3.5,1.4,5h0c0.4-1.6,0.9-3.3,1.5-5l2.3-6.7h1.9l-4.8,13.5H82.8z"/>
	<path d="M91.2,48.9c0,2.4,1.6,3.4,3.3,3.4c1.3,0,2-0.2,2.7-0.5l0.3,1.3c-0.6,0.3-1.7,0.6-3.2,0.6c-3,0-4.8-2-4.8-4.9
		c0-2.9,1.7-5.2,4.5-5.2c3.2,0,4,2.8,4,4.6c0,0.4,0,0.6-0.1,0.8H91.2z M96.4,47.6c0-1.1-0.5-2.9-2.4-2.9c-1.8,0-2.6,1.6-2.7,2.9
		H96.4z"/>
	<path d="M100.3,39.2h1.8v14.2h-1.8V39.2z"/>
	<path d="M113.8,48.5c0,3.6-2.5,5.1-4.8,5.1c-2.6,0-4.6-1.9-4.6-5c0-3.2,2.1-5.1,4.8-5.1C111.9,43.5,113.8,45.5,113.8,48.5z
		 M106.1,48.6c0,2.1,1.2,3.7,2.9,3.7c1.7,0,2.9-1.6,2.9-3.8c0-1.6-0.8-3.7-2.9-3.7C107,44.8,106.1,46.8,106.1,48.6z"/>
	<path d="M122.9,53.1c-0.5,0.2-1.5,0.6-2.8,0.6c-2.9,0-4.8-2-4.8-4.9c0-3,2-5.1,5.2-5.1c1,0,2,0.3,2.4,0.5l-0.4,1.4
		c-0.4-0.2-1.1-0.5-2-0.5c-2.2,0-3.4,1.6-3.4,3.7c0,2.2,1.4,3.6,3.4,3.6c1,0,1.7-0.3,2.2-0.5L122.9,53.1z"/>
	<path d="M126.9,41c0,0.6-0.4,1.1-1.1,1.1c-0.6,0-1.1-0.5-1.1-1.1c0-0.6,0.5-1.1,1.1-1.1C126.5,39.9,126.9,40.4,126.9,41z
		 M124.9,53.4v-9.7h1.8v9.7H124.9z"/>
	<path d="M131.7,41v2.8h2.5v1.3h-2.5v5.2c0,1.2,0.3,1.9,1.3,1.9c0.5,0,0.8-0.1,1-0.1l0.1,1.3c-0.3,0.1-0.9,0.2-1.6,0.2
		c-0.8,0-1.5-0.3-1.9-0.7c-0.5-0.5-0.7-1.4-0.7-2.5v-5.3h-1.5v-1.3h1.5v-2.3L131.7,41z"/>
	<path d="M137.1,43.7l2.1,5.7c0.2,0.6,0.5,1.4,0.6,2h0c0.2-0.6,0.4-1.3,0.6-2l1.9-5.7h1.9l-2.6,6.9c-1.3,3.3-2.1,5-3.3,6.1
		c-0.9,0.8-1.7,1.1-2.2,1.1l-0.4-1.5c0.4-0.1,1-0.4,1.5-0.9c0.5-0.4,1.1-1.1,1.5-2c0.1-0.2,0.1-0.3,0.1-0.4c0-0.1,0-0.2-0.1-0.5
		l-3.6-8.9H137.1z"/>
	<path d="M150.1,39.9h7.3v1.5h-5.5v4.5h5.1v1.4h-5.1v6.1h-1.7V39.9z"/>
	<path d="M161.3,41c0,0.6-0.4,1.1-1.1,1.1c-0.6,0-1.1-0.5-1.1-1.1c0-0.6,0.5-1.1,1.1-1.1C160.8,39.9,161.3,40.4,161.3,41z
		 M159.3,53.4v-9.7h1.8v9.7H159.3z"/>
	<path d="M165,48.9c0,2.4,1.6,3.4,3.3,3.4c1.3,0,2-0.2,2.7-0.5l0.3,1.3c-0.6,0.3-1.7,0.6-3.2,0.6c-3,0-4.8-2-4.8-4.9
		c0-2.9,1.7-5.2,4.5-5.2c3.2,0,4,2.8,4,4.6c0,0.4,0,0.6-0.1,0.8H165z M170.1,47.6c0-1.1-0.5-2.9-2.4-2.9c-1.8,0-2.6,1.6-2.7,2.9
		H170.1z"/>
	<path d="M174,39.2h1.8v14.2H174V39.2z"/>
	<path d="M187.1,39.2v11.7c0,0.9,0,1.8,0.1,2.5h-1.6l-0.1-1.7h0c-0.5,1.1-1.7,1.9-3.3,1.9c-2.3,0-4.1-2-4.1-4.9c0-3.2,2-5.2,4.3-5.2
		c1.5,0,2.5,0.7,2.9,1.5h0v-5.8H187.1z M185.3,47.7c0-0.2,0-0.5-0.1-0.7c-0.3-1.1-1.2-2-2.5-2c-1.8,0-2.9,1.6-2.9,3.7
		c0,2,1,3.6,2.9,3.6c1.2,0,2.3-0.8,2.6-2.1c0.1-0.2,0.1-0.5,0.1-0.8V47.7z"/>
</g>
<g>
	<path class="st2" d="M480.5,81.5c0,5.5-4.5,10-10,10h-186c-5.5,0-10-4.5-10-10v-67c0-5.5,4.5-10,10-10h186c5.5,0,10,4.5,10,10V81.5
		z"/>
</g>
<g>
	<rect x="310.8" y="39.1" class="st3" width="133.5" height="17.8"/>
	<path d="M312.3,53.3V39.8h1.9l4.3,6.8c1,1.6,1.8,3,2.4,4.4l0,0c-0.2-1.8-0.2-3.4-0.2-5.5v-5.6h1.6v13.5h-1.8l-4.3-6.8
		c-0.9-1.5-1.8-3-2.5-4.5l-0.1,0c0.1,1.7,0.1,3.3,0.1,5.6v5.8H312.3z"/>
	<path d="M326.4,48.8c0,2.4,1.6,3.4,3.3,3.4c1.3,0,2-0.2,2.7-0.5l0.3,1.3c-0.6,0.3-1.7,0.6-3.2,0.6c-3,0-4.8-2-4.8-4.9
		c0-2.9,1.7-5.2,4.5-5.2c3.2,0,4,2.8,4,4.6c0,0.4,0,0.6-0.1,0.8H326.4z M331.5,47.5c0-1.1-0.5-2.9-2.4-2.9c-1.8,0-2.6,1.6-2.7,2.9
		H331.5z"/>
	<path d="M343.5,50.7c0,1,0,1.9,0.1,2.6H342l-0.1-1.6h0c-0.5,0.8-1.5,1.8-3.2,1.8c-1.5,0-3.3-0.8-3.3-4.2v-5.7h1.8V49
		c0,1.8,0.6,3.1,2.2,3.1c1.2,0,2-0.8,2.3-1.6c0.1-0.3,0.2-0.6,0.2-0.9v-5.9h1.8V50.7z"/>
	<path d="M346.4,46.6c0-1.1,0-2.1-0.1-3h1.5l0.1,1.9h0.1c0.4-1.3,1.5-2.1,2.7-2.1c0.2,0,0.3,0,0.5,0.1v1.7c-0.2,0-0.4-0.1-0.6-0.1
		c-1.2,0-2.1,0.9-2.4,2.3c0,0.2-0.1,0.5-0.1,0.8v5.2h-1.7V46.6z"/>
	<path d="M358.2,53.3l-0.1-1.2H358c-0.5,0.8-1.6,1.4-3,1.4c-2,0-3-1.4-3-2.8c0-2.3,2.1-3.6,5.8-3.6v-0.2c0-0.8-0.2-2.2-2.2-2.2
		c-0.9,0-1.8,0.3-2.5,0.7l-0.4-1.2c0.8-0.5,2-0.9,3.2-0.9c3,0,3.7,2,3.7,4V51c0,0.8,0,1.7,0.2,2.3H358.2z M358,48.4
		c-1.9,0-4.1,0.3-4.1,2.2c0,1.1,0.8,1.7,1.7,1.7c1.3,0,2.1-0.8,2.3-1.6c0.1-0.2,0.1-0.4,0.1-0.6V48.4z"/>
	<path d="M362.5,39.1h1.8v14.2h-1.8V39.1z"/>
	<path d="M371.5,53.3V39.8h1.9l4.3,6.8c1,1.6,1.8,3,2.4,4.4l0,0c-0.2-1.8-0.2-3.4-0.2-5.5v-5.6h1.6v13.5h-1.8l-4.3-6.8
		c-0.9-1.5-1.8-3-2.5-4.5l-0.1,0c0.1,1.7,0.1,3.3,0.1,5.6v5.8H371.5z"/>
	<path d="M385.6,48.8c0,2.4,1.6,3.4,3.3,3.4c1.3,0,2-0.2,2.7-0.5l0.3,1.3c-0.6,0.3-1.7,0.6-3.2,0.6c-3,0-4.8-2-4.8-4.9
		c0-2.9,1.7-5.2,4.5-5.2c3.2,0,4,2.8,4,4.6c0,0.4,0,0.6-0.1,0.8H385.6z M390.8,47.5c0-1.1-0.5-2.9-2.4-2.9c-1.8,0-2.6,1.6-2.7,2.9
		H390.8z"/>
	<path d="M396.8,40.8v2.8h2.5V45h-2.5v5.2c0,1.2,0.3,1.9,1.3,1.9c0.5,0,0.8-0.1,1-0.1l0.1,1.3c-0.3,0.1-0.9,0.2-1.6,0.2
		c-0.8,0-1.5-0.3-1.9-0.7c-0.5-0.5-0.7-1.4-0.7-2.5V45h-1.5v-1.3h1.5v-2.3L396.8,40.8z"/>
	<path d="M402.2,43.6l1.3,4.9c0.3,1.1,0.5,2.1,0.7,3.1h0.1c0.2-1,0.5-2,0.9-3.1l1.6-4.9h1.5l1.5,4.8c0.4,1.2,0.6,2.2,0.9,3.2h0.1
		c0.2-1,0.4-2,0.7-3.1l1.4-4.9h1.7l-3.1,9.7h-1.6l-1.5-4.6c-0.3-1.1-0.6-2-0.9-3.2h0c-0.2,1.2-0.5,2.2-0.9,3.2l-1.6,4.6h-1.6
		l-2.9-9.7H402.2z"/>
	<path d="M424.7,48.4c0,3.6-2.5,5.1-4.8,5.1c-2.6,0-4.6-1.9-4.6-5c0-3.2,2.1-5.1,4.8-5.1C422.9,43.4,424.7,45.4,424.7,48.4z
		 M417.1,48.5c0,2.1,1.2,3.7,2.9,3.7c1.7,0,2.9-1.6,2.9-3.8c0-1.6-0.8-3.7-2.9-3.7C418,44.7,417.1,46.6,417.1,48.5z"/>
	<path d="M427,46.6c0-1.1,0-2.1-0.1-3h1.5l0.1,1.9h0.1c0.4-1.3,1.5-2.1,2.7-2.1c0.2,0,0.3,0,0.5,0.1v1.7c-0.2,0-0.4-0.1-0.6-0.1
		c-1.2,0-2.1,0.9-2.4,2.3c0,0.2-0.1,0.5-0.1,0.8v5.2H427V46.6z"/>
	<path d="M435.3,48.1L435.3,48.1c0.3-0.3,0.6-0.8,0.9-1.1l2.8-3.3h2.1l-3.7,4l4.3,5.7h-2.1l-3.3-4.6l-0.9,1v3.6h-1.7V39.1h1.7V48.1z
		"/>
</g>
<g>
	<path class="st2" d="M750.5,81.5c0,5.5-4.5,10-10,10h-186c-5.5,0-10-4.5-10-10v-67c0-5.5,4.5-10,10-10h186c5.5,0,10,4.5,10,10V81.5
		z"/>
</g>
<g>
	<rect x="545" y="26.5" class="st3" width="206" height="43"/>
	<path d="M628.7,33.8c0,4.6-2.8,7.1-6.3,7.1c-3.6,0-6.1-2.8-6.1-6.8c0-4.3,2.7-7.1,6.3-7.1C626.3,27,628.7,29.8,628.7,33.8z
		 M618.3,34c0,2.9,1.6,5.5,4.3,5.5c2.8,0,4.3-2.5,4.3-5.6c0-2.7-1.4-5.5-4.3-5.5C619.7,28.4,618.3,31.1,618.3,34z"/>
	<path d="M639.1,38.1c0,1,0,1.9,0.1,2.6h-1.6l-0.1-1.6h0c-0.5,0.8-1.5,1.8-3.2,1.8c-1.5,0-3.3-0.8-3.3-4.2V31h1.8v5.4
		c0,1.8,0.6,3.1,2.2,3.1c1.2,0,2-0.8,2.3-1.6c0.1-0.3,0.2-0.6,0.2-0.9V31h1.8V38.1z"/>
	<path d="M644.1,28.2V31h2.5v1.3h-2.5v5.2c0,1.2,0.3,1.9,1.3,1.9c0.5,0,0.8-0.1,1-0.1l0.1,1.3c-0.3,0.1-0.9,0.2-1.6,0.2
		c-0.8,0-1.5-0.3-1.9-0.7c-0.5-0.5-0.7-1.4-0.7-2.5v-5.3h-1.5V31h1.5v-2.3L644.1,28.2z"/>
	<path d="M648.6,34.2c0-1.2,0-2.2-0.1-3.2h1.6l0.1,1.7h0c0.7-1.2,1.9-1.9,3.4-1.9c2.3,0,4.1,2,4.1,4.9c0,3.5-2.1,5.2-4.4,5.2
		c-1.3,0-2.4-0.6-3-1.5h0v5.3h-1.7V34.2z M650.4,36.8c0,0.3,0,0.5,0.1,0.7c0.3,1.2,1.4,2.1,2.6,2.1c1.9,0,2.9-1.5,2.9-3.7
		c0-1.9-1-3.6-2.9-3.6c-1.2,0-2.3,0.9-2.7,2.2c-0.1,0.2-0.1,0.5-0.1,0.7V36.8z"/>
	<path d="M668.1,38.1c0,1,0,1.9,0.1,2.6h-1.6l-0.1-1.6h0c-0.5,0.8-1.5,1.8-3.2,1.8c-1.5,0-3.3-0.8-3.3-4.2V31h1.8v5.4
		c0,1.8,0.6,3.1,2.2,3.1c1.2,0,2-0.8,2.3-1.6c0.1-0.3,0.2-0.6,0.2-0.9V31h1.8V38.1z"/>
	<path d="M673.1,28.2V31h2.5v1.3h-2.5v5.2c0,1.2,0.3,1.9,1.3,1.9c0.5,0,0.8-0.1,1-0.1l0.1,1.3c-0.3,0.1-0.9,0.2-1.6,0.2
		c-0.8,0-1.5-0.3-1.9-0.7c-0.5-0.5-0.7-1.4-0.7-2.5v-5.3h-1.5V31h1.5v-2.3L673.1,28.2z"/>
	<path d="M677.2,32.6c0-0.7,0.5-1.3,1.2-1.3c0.7,0,1.2,0.5,1.2,1.3c0,0.7-0.5,1.2-1.2,1.2C677.7,33.9,677.2,33.3,677.2,32.6z
		 M677.2,39.7c0-0.7,0.5-1.3,1.2-1.3c0.7,0,1.2,0.5,1.2,1.3c0,0.7-0.5,1.2-1.2,1.2C677.7,40.9,677.2,40.4,677.2,39.7z"/>
	<path d="M563.7,51.2h1.7v12h5.8v1.5h-7.5V51.2z"/>
	<path d="M575,52.3c0,0.6-0.4,1.1-1.1,1.1c-0.6,0-1.1-0.5-1.1-1.1c0-0.6,0.5-1.1,1.1-1.1C574.6,51.2,575,51.7,575,52.3z M573,64.7
		V55h1.8v9.7H573z"/>
	<path d="M579.5,59.5L579.5,59.5c0.3-0.3,0.6-0.8,0.9-1.1l2.8-3.3h2.1l-3.7,4l4.3,5.7h-2.1l-3.3-4.6l-0.9,1v3.6h-1.7V50.5h1.7V59.5z
		"/>
	<path d="M588.1,60.2c0,2.4,1.6,3.4,3.3,3.4c1.3,0,2-0.2,2.7-0.5l0.3,1.3c-0.6,0.3-1.7,0.6-3.2,0.6c-3,0-4.8-2-4.8-4.9
		c0-2.9,1.7-5.2,4.5-5.2c3.2,0,4,2.8,4,4.6c0,0.4,0,0.6-0.1,0.8H588.1z M593.2,58.9c0-1.1-0.5-2.9-2.4-2.9c-1.8,0-2.6,1.6-2.7,2.9
		H593.2z"/>
	<path d="M597.1,50.5h1.8v14.2h-1.8V50.5z"/>
	<path d="M603.8,52.3c0,0.6-0.4,1.1-1.1,1.1c-0.6,0-1.1-0.5-1.1-1.1c0-0.6,0.5-1.1,1.1-1.1C603.4,51.2,603.8,51.7,603.8,52.3z
		 M601.8,64.7V55h1.8v9.7H601.8z"/>
	<path d="M606.5,50.5h1.8v6h0c0.3-0.5,0.7-0.9,1.3-1.2c0.5-0.3,1.1-0.5,1.8-0.5c1.3,0,3.4,0.8,3.4,4.1v5.8H613v-5.6
		c0-1.6-0.6-2.9-2.2-2.9c-1.1,0-2,0.8-2.4,1.8c-0.1,0.2-0.1,0.5-0.1,0.8v5.8h-1.8V50.5z"/>
	<path d="M626.4,59.8c0,3.6-2.5,5.1-4.8,5.1c-2.6,0-4.6-1.9-4.6-5c0-3.2,2.1-5.1,4.8-5.1C624.5,54.8,626.4,56.8,626.4,59.8z
		 M618.7,59.9c0,2.1,1.2,3.7,2.9,3.7c1.7,0,2.9-1.6,2.9-3.8c0-1.6-0.8-3.7-2.9-3.7C619.6,56.1,618.7,58,618.7,59.9z"/>
	<path d="M637.4,59.8c0,3.6-2.5,5.1-4.8,5.1c-2.6,0-4.6-1.9-4.6-5c0-3.2,2.1-5.1,4.8-5.1C635.5,54.8,637.4,56.8,637.4,59.8z
		 M629.7,59.9c0,2.1,1.2,3.7,2.9,3.7c1.7,0,2.9-1.6,2.9-3.8c0-1.6-0.8-3.7-2.9-3.7C630.6,56.1,629.7,58,629.7,59.9z"/>
	<path d="M647.9,50.5v11.7c0,0.9,0,1.8,0.1,2.5h-1.6l-0.1-1.7h0c-0.5,1.1-1.7,1.9-3.3,1.9c-2.3,0-4.1-2-4.1-4.9c0-3.2,2-5.2,4.3-5.2
		c1.5,0,2.5,0.7,2.9,1.5h0v-5.8H647.9z M646.2,59c0-0.2,0-0.5-0.1-0.7c-0.3-1.1-1.2-2-2.5-2c-1.8,0-2.9,1.6-2.9,3.7
		c0,2,1,3.6,2.9,3.6c1.2,0,2.3-0.8,2.6-2.1c0.1-0.2,0.1-0.5,0.1-0.8V59z"/>
	<path d="M662.1,58.4h-5.2v4.9h5.8v1.5h-7.6V51.2h7.3v1.5h-5.5v4.3h5.2V58.4z"/>
	<path d="M665.8,55l1.4,2.1c0.4,0.5,0.7,1,1,1.6h0.1c0.3-0.6,0.6-1.1,1-1.6l1.4-2.1h1.9l-3.3,4.7l3.4,5h-2l-1.4-2.2
		c-0.4-0.6-0.7-1.1-1-1.7h0c-0.3,0.6-0.7,1.1-1,1.7l-1.4,2.2h-1.9l3.4-4.9l-3.3-4.7H665.8z"/>
	<path d="M674.2,58.2c0-1.2,0-2.2-0.1-3.2h1.6l0.1,1.7h0c0.7-1.2,1.9-1.9,3.4-1.9c2.3,0,4.1,2,4.1,4.9c0,3.5-2.1,5.2-4.4,5.2
		c-1.3,0-2.4-0.6-3-1.5h0v5.3h-1.7V58.2z M675.9,60.8c0,0.3,0,0.5,0.1,0.7c0.3,1.2,1.4,2.1,2.6,2.1c1.9,0,2.9-1.5,2.9-3.7
		c0-1.9-1-3.6-2.9-3.6c-1.2,0-2.3,0.9-2.7,2.2c-0.1,0.2-0.1,0.5-0.1,0.7V60.8z"/>
	<path d="M694.3,59.8c0,3.6-2.5,5.1-4.8,5.1c-2.6,0-4.6-1.9-4.6-5c0-3.2,2.1-5.1,4.8-5.1C692.5,54.8,694.3,56.8,694.3,59.8z
		 M686.7,59.9c0,2.1,1.2,3.7,2.9,3.7c1.7,0,2.9-1.6,2.9-3.8c0-1.6-0.8-3.7-2.9-3.7C687.6,56.1,686.7,58,686.7,59.9z"/>
	<path d="M696.6,57.6c0-1,0-1.8-0.1-2.6h1.6l0.1,1.6h0c0.5-0.9,1.6-1.8,3.2-1.8c1.3,0,3.4,0.8,3.4,4.1v5.8H703v-5.6
		c0-1.6-0.6-2.9-2.2-2.9c-1.2,0-2.1,0.8-2.4,1.8c-0.1,0.2-0.1,0.5-0.1,0.8v5.8h-1.8V57.6z"/>
	<path d="M708.6,60.2c0,2.4,1.6,3.4,3.3,3.4c1.3,0,2-0.2,2.7-0.5l0.3,1.3c-0.6,0.3-1.7,0.6-3.2,0.6c-3,0-4.8-2-4.8-4.9
		c0-2.9,1.7-5.2,4.5-5.2c3.2,0,4,2.8,4,4.6c0,0.4,0,0.6-0.1,0.8H708.6z M713.8,58.9c0-1.1-0.5-2.9-2.4-2.9c-1.8,0-2.6,1.6-2.7,2.9
		H713.8z"/>
	<path d="M717.7,57.6c0-1,0-1.8-0.1-2.6h1.6l0.1,1.6h0c0.5-0.9,1.6-1.8,3.2-1.8c1.3,0,3.4,0.8,3.4,4.1v5.8h-1.8v-5.6
		c0-1.6-0.6-2.9-2.2-2.9c-1.2,0-2.1,0.8-2.4,1.8c-0.1,0.2-0.1,0.5-0.1,0.8v5.8h-1.8V57.6z"/>
	<path d="M730.8,52.2V55h2.5v1.3h-2.5v5.2c0,1.2,0.3,1.9,1.3,1.9c0.5,0,0.8-0.1,1-0.1l0.1,1.3c-0.3,0.1-0.9,0.2-1.6,0.2
		c-0.8,0-1.5-0.3-1.9-0.7c-0.5-0.5-0.7-1.4-0.7-2.5v-5.3h-1.5V55h1.5v-2.3L730.8,52.2z"/>
</g>
<g>
</g>
<g>
</g>
<g>
</g>
<g>
</g>
<g>
</g>
<g>
</g>
<g>
</g>
<g>
</g>
<g>
</g>
<g>
</g>
<g>
</g>
<g>
</g>
<g>
</g>
<g>
</g>
<g>
</g>
</svg>
