<?xml version="1.0" encoding="utf-8" standalone="no"?>
<!DOCTYPE svg PUBLIC "-//W3C//DTD SVG 1.1//EN"
  "http://www.w3.org/Graphics/SVG/1.1/DTD/svg11.dtd">
<!-- Created with matplotlib (https://matplotlib.org/) -->
<svg height="288pt" version="1.1" viewBox="0 0 288 288" width="288pt" xmlns="http://www.w3.org/2000/svg" xmlns:xlink="http://www.w3.org/1999/xlink">
 <defs>
  <style type="text/css">
*{stroke-linecap:butt;stroke-linejoin:round;}
  </style>
 </defs>
 <g id="figure_1">
  <g id="patch_1">
   <path d="M 0 288 
L 288 288 
L 288 0 
L 0 0 
z
" style="fill:none;"/>
  </g>
  <g id="axes_1">
   <g id="patch_2">
    <path d="M 54.2 246.04 
L 267.314948 246.04 
L 267.314948 14.10878 
L 54.2 14.10878 
z
" style="fill:none;"/>
   </g>
   <g id="matplotlib.axis_1">
    <g id="xtick_1">
     <g id="line2d_1">
      <defs>
       <path d="M 0 0 
L 0 3.5 
" id="m71d8303e23" style="stroke:#000000;stroke-width:0.8;"/>
      </defs>
      <g>
       <use style="stroke:#000000;stroke-width:0.8;" x="63.887043" xlink:href="#m71d8303e23" y="246.04"/>
      </g>
     </g>
     <g id="text_1">
      <!-- 0 -->
      <defs>
       <path d="M 31.78125 66.40625 
Q 24.171875 66.40625 20.328125 58.90625 
Q 16.5 51.421875 16.5 36.375 
Q 16.5 21.390625 20.328125 13.890625 
Q 24.171875 6.390625 31.78125 6.390625 
Q 39.453125 6.390625 43.28125 13.890625 
Q 47.125 21.390625 47.125 36.375 
Q 47.125 51.421875 43.28125 58.90625 
Q 39.453125 66.40625 31.78125 66.40625 
z
M 31.78125 74.21875 
Q 44.046875 74.21875 50.515625 64.515625 
Q 56.984375 54.828125 56.984375 36.375 
Q 56.984375 17.96875 50.515625 8.265625 
Q 44.046875 -1.421875 31.78125 -1.421875 
Q 19.53125 -1.421875 13.0625 8.265625 
Q 6.59375 17.96875 6.59375 36.375 
Q 6.59375 54.828125 13.0625 64.515625 
Q 19.53125 74.21875 31.78125 74.21875 
z
" id="DejaVuSans-48"/>
      </defs>
      <g transform="translate(60.705793 260.638438)scale(0.1 -0.1)">
       <use xlink:href="#DejaVuSans-48"/>
      </g>
     </g>
    </g>
    <g id="xtick_2">
     <g id="line2d_2">
      <g>
       <use style="stroke:#000000;stroke-width:0.8;" x="114.052984" xlink:href="#m71d8303e23" y="246.04"/>
      </g>
     </g>
     <g id="text_2">
      <!-- 2000 -->
      <defs>
       <path d="M 19.1875 8.296875 
L 53.609375 8.296875 
L 53.609375 0 
L 7.328125 0 
L 7.328125 8.296875 
Q 12.9375 14.109375 22.625 23.890625 
Q 32.328125 33.6875 34.8125 36.53125 
Q 39.546875 41.84375 41.421875 45.53125 
Q 43.3125 49.21875 43.3125 52.78125 
Q 43.3125 58.59375 39.234375 62.25 
Q 35.15625 65.921875 28.609375 65.921875 
Q 23.96875 65.921875 18.8125 64.3125 
Q 13.671875 62.703125 7.8125 59.421875 
L 7.8125 69.390625 
Q 13.765625 71.78125 18.9375 73 
Q 24.125 74.21875 28.421875 74.21875 
Q 39.75 74.21875 46.484375 68.546875 
Q 53.21875 62.890625 53.21875 53.421875 
Q 53.21875 48.921875 51.53125 44.890625 
Q 49.859375 40.875 45.40625 35.40625 
Q 44.1875 33.984375 37.640625 27.21875 
Q 31.109375 20.453125 19.1875 8.296875 
z
" id="DejaVuSans-50"/>
      </defs>
      <g transform="translate(101.327984 260.638438)scale(0.1 -0.1)">
       <use xlink:href="#DejaVuSans-50"/>
       <use x="63.623047" xlink:href="#DejaVuSans-48"/>
       <use x="127.246094" xlink:href="#DejaVuSans-48"/>
       <use x="190.869141" xlink:href="#DejaVuSans-48"/>
      </g>
     </g>
    </g>
    <g id="xtick_3">
     <g id="line2d_3">
      <g>
       <use style="stroke:#000000;stroke-width:0.8;" x="164.218924" xlink:href="#m71d8303e23" y="246.04"/>
      </g>
     </g>
     <g id="text_3">
      <!-- 4000 -->
      <defs>
       <path d="M 37.796875 64.3125 
L 12.890625 25.390625 
L 37.796875 25.390625 
z
M 35.203125 72.90625 
L 47.609375 72.90625 
L 47.609375 25.390625 
L 58.015625 25.390625 
L 58.015625 17.1875 
L 47.609375 17.1875 
L 47.609375 0 
L 37.796875 0 
L 37.796875 17.1875 
L 4.890625 17.1875 
L 4.890625 26.703125 
z
" id="DejaVuSans-52"/>
      </defs>
      <g transform="translate(151.493924 260.638438)scale(0.1 -0.1)">
       <use xlink:href="#DejaVuSans-52"/>
       <use x="63.623047" xlink:href="#DejaVuSans-48"/>
       <use x="127.246094" xlink:href="#DejaVuSans-48"/>
       <use x="190.869141" xlink:href="#DejaVuSans-48"/>
      </g>
     </g>
    </g>
    <g id="xtick_4">
     <g id="line2d_4">
      <g>
       <use style="stroke:#000000;stroke-width:0.8;" x="214.384865" xlink:href="#m71d8303e23" y="246.04"/>
      </g>
     </g>
     <g id="text_4">
      <!-- 6000 -->
      <defs>
       <path d="M 33.015625 40.375 
Q 26.375 40.375 22.484375 35.828125 
Q 18.609375 31.296875 18.609375 23.390625 
Q 18.609375 15.53125 22.484375 10.953125 
Q 26.375 6.390625 33.015625 6.390625 
Q 39.65625 6.390625 43.53125 10.953125 
Q 47.40625 15.53125 47.40625 23.390625 
Q 47.40625 31.296875 43.53125 35.828125 
Q 39.65625 40.375 33.015625 40.375 
z
M 52.59375 71.296875 
L 52.59375 62.3125 
Q 48.875 64.0625 45.09375 64.984375 
Q 41.3125 65.921875 37.59375 65.921875 
Q 27.828125 65.921875 22.671875 59.328125 
Q 17.53125 52.734375 16.796875 39.40625 
Q 19.671875 43.65625 24.015625 45.921875 
Q 28.375 48.1875 33.59375 48.1875 
Q 44.578125 48.1875 50.953125 41.515625 
Q 57.328125 34.859375 57.328125 23.390625 
Q 57.328125 12.15625 50.6875 5.359375 
Q 44.046875 -1.421875 33.015625 -1.421875 
Q 20.359375 -1.421875 13.671875 8.265625 
Q 6.984375 17.96875 6.984375 36.375 
Q 6.984375 53.65625 15.1875 63.9375 
Q 23.390625 74.21875 37.203125 74.21875 
Q 40.921875 74.21875 44.703125 73.484375 
Q 48.484375 72.75 52.59375 71.296875 
z
" id="DejaVuSans-54"/>
      </defs>
      <g transform="translate(201.659865 260.638438)scale(0.1 -0.1)">
       <use xlink:href="#DejaVuSans-54"/>
       <use x="63.623047" xlink:href="#DejaVuSans-48"/>
       <use x="127.246094" xlink:href="#DejaVuSans-48"/>
       <use x="190.869141" xlink:href="#DejaVuSans-48"/>
      </g>
     </g>
    </g>
    <g id="xtick_5">
     <g id="line2d_5">
      <g>
       <use style="stroke:#000000;stroke-width:0.8;" x="264.550805" xlink:href="#m71d8303e23" y="246.04"/>
      </g>
     </g>
     <g id="text_5">
      <!-- 8000 -->
      <defs>
       <path d="M 31.78125 34.625 
Q 24.75 34.625 20.71875 30.859375 
Q 16.703125 27.09375 16.703125 20.515625 
Q 16.703125 13.921875 20.71875 10.15625 
Q 24.75 6.390625 31.78125 6.390625 
Q 38.8125 6.390625 42.859375 10.171875 
Q 46.921875 13.96875 46.921875 20.515625 
Q 46.921875 27.09375 42.890625 30.859375 
Q 38.875 34.625 31.78125 34.625 
z
M 21.921875 38.8125 
Q 15.578125 40.375 12.03125 44.71875 
Q 8.5 49.078125 8.5 55.328125 
Q 8.5 64.0625 14.71875 69.140625 
Q 20.953125 74.21875 31.78125 74.21875 
Q 42.671875 74.21875 48.875 69.140625 
Q 55.078125 64.0625 55.078125 55.328125 
Q 55.078125 49.078125 51.53125 44.71875 
Q 48 40.375 41.703125 38.8125 
Q 48.828125 37.15625 52.796875 32.3125 
Q 56.78125 27.484375 56.78125 20.515625 
Q 56.78125 9.90625 50.3125 4.234375 
Q 43.84375 -1.421875 31.78125 -1.421875 
Q 19.734375 -1.421875 13.25 4.234375 
Q 6.78125 9.90625 6.78125 20.515625 
Q 6.78125 27.484375 10.78125 32.3125 
Q 14.796875 37.15625 21.921875 38.8125 
z
M 18.3125 54.390625 
Q 18.3125 48.734375 21.84375 45.5625 
Q 25.390625 42.390625 31.78125 42.390625 
Q 38.140625 42.390625 41.71875 45.5625 
Q 45.3125 48.734375 45.3125 54.390625 
Q 45.3125 60.0625 41.71875 63.234375 
Q 38.140625 66.40625 31.78125 66.40625 
Q 25.390625 66.40625 21.84375 63.234375 
Q 18.3125 60.0625 18.3125 54.390625 
z
" id="DejaVuSans-56"/>
      </defs>
      <g transform="translate(251.825805 260.638438)scale(0.1 -0.1)">
       <use xlink:href="#DejaVuSans-56"/>
       <use x="63.623047" xlink:href="#DejaVuSans-48"/>
       <use x="127.246094" xlink:href="#DejaVuSans-48"/>
       <use x="190.869141" xlink:href="#DejaVuSans-48"/>
      </g>
     </g>
    </g>
    <g id="text_6">
     <!-- Trial Number -->
     <defs>
      <path d="M -0.296875 72.90625 
L 61.375 72.90625 
L 61.375 64.59375 
L 35.5 64.59375 
L 35.5 0 
L 25.59375 0 
L 25.59375 64.59375 
L -0.296875 64.59375 
z
" id="DejaVuSans-84"/>
      <path d="M 41.109375 46.296875 
Q 39.59375 47.171875 37.8125 47.578125 
Q 36.03125 48 33.890625 48 
Q 26.265625 48 22.1875 43.046875 
Q 18.109375 38.09375 18.109375 28.8125 
L 18.109375 0 
L 9.078125 0 
L 9.078125 54.6875 
L 18.109375 54.6875 
L 18.109375 46.1875 
Q 20.953125 51.171875 25.484375 53.578125 
Q 30.03125 56 36.53125 56 
Q 37.453125 56 38.578125 55.875 
Q 39.703125 55.765625 41.0625 55.515625 
z
" id="DejaVuSans-114"/>
      <path d="M 9.421875 54.6875 
L 18.40625 54.6875 
L 18.40625 0 
L 9.421875 0 
z
M 9.421875 75.984375 
L 18.40625 75.984375 
L 18.40625 64.59375 
L 9.421875 64.59375 
z
" id="DejaVuSans-105"/>
      <path d="M 34.28125 27.484375 
Q 23.390625 27.484375 19.1875 25 
Q 14.984375 22.515625 14.984375 16.5 
Q 14.984375 11.71875 18.140625 8.90625 
Q 21.296875 6.109375 26.703125 6.109375 
Q 34.1875 6.109375 38.703125 11.40625 
Q 43.21875 16.703125 43.21875 25.484375 
L 43.21875 27.484375 
z
M 52.203125 31.203125 
L 52.203125 0 
L 43.21875 0 
L 43.21875 8.296875 
Q 40.140625 3.328125 35.546875 0.953125 
Q 30.953125 -1.421875 24.3125 -1.421875 
Q 15.921875 -1.421875 10.953125 3.296875 
Q 6 8.015625 6 15.921875 
Q 6 25.140625 12.171875 29.828125 
Q 18.359375 34.515625 30.609375 34.515625 
L 43.21875 34.515625 
L 43.21875 35.40625 
Q 43.21875 41.609375 39.140625 45 
Q 35.0625 48.390625 27.6875 48.390625 
Q 23 48.390625 18.546875 47.265625 
Q 14.109375 46.140625 10.015625 43.890625 
L 10.015625 52.203125 
Q 14.9375 54.109375 19.578125 55.046875 
Q 24.21875 56 28.609375 56 
Q 40.484375 56 46.34375 49.84375 
Q 52.203125 43.703125 52.203125 31.203125 
z
" id="DejaVuSans-97"/>
      <path d="M 9.421875 75.984375 
L 18.40625 75.984375 
L 18.40625 0 
L 9.421875 0 
z
" id="DejaVuSans-108"/>
      <path id="DejaVuSans-32"/>
      <path d="M 9.8125 72.90625 
L 23.09375 72.90625 
L 55.421875 11.921875 
L 55.421875 72.90625 
L 64.984375 72.90625 
L 64.984375 0 
L 51.703125 0 
L 19.390625 60.984375 
L 19.390625 0 
L 9.8125 0 
z
" id="DejaVuSans-78"/>
      <path d="M 8.5 21.578125 
L 8.5 54.6875 
L 17.484375 54.6875 
L 17.484375 21.921875 
Q 17.484375 14.15625 20.5 10.265625 
Q 23.53125 6.390625 29.59375 6.390625 
Q 36.859375 6.390625 41.078125 11.03125 
Q 45.3125 15.671875 45.3125 23.6875 
L 45.3125 54.6875 
L 54.296875 54.6875 
L 54.296875 0 
L 45.3125 0 
L 45.3125 8.40625 
Q 42.046875 3.421875 37.71875 1 
Q 33.40625 -1.421875 27.6875 -1.421875 
Q 18.265625 -1.421875 13.375 4.4375 
Q 8.5 10.296875 8.5 21.578125 
z
M 31.109375 56 
z
" id="DejaVuSans-117"/>
      <path d="M 52 44.1875 
Q 55.375 50.25 60.0625 53.125 
Q 64.75 56 71.09375 56 
Q 79.640625 56 84.28125 50.015625 
Q 88.921875 44.046875 88.921875 33.015625 
L 88.921875 0 
L 79.890625 0 
L 79.890625 32.71875 
Q 79.890625 40.578125 77.09375 44.375 
Q 74.3125 48.1875 68.609375 48.1875 
Q 61.625 48.1875 57.5625 43.546875 
Q 53.515625 38.921875 53.515625 30.90625 
L 53.515625 0 
L 44.484375 0 
L 44.484375 32.71875 
Q 44.484375 40.625 41.703125 44.40625 
Q 38.921875 48.1875 33.109375 48.1875 
Q 26.21875 48.1875 22.15625 43.53125 
Q 18.109375 38.875 18.109375 30.90625 
L 18.109375 0 
L 9.078125 0 
L 9.078125 54.6875 
L 18.109375 54.6875 
L 18.109375 46.1875 
Q 21.1875 51.21875 25.484375 53.609375 
Q 29.78125 56 35.6875 56 
Q 41.65625 56 45.828125 52.96875 
Q 50 49.953125 52 44.1875 
z
" id="DejaVuSans-109"/>
      <path d="M 48.6875 27.296875 
Q 48.6875 37.203125 44.609375 42.84375 
Q 40.53125 48.484375 33.40625 48.484375 
Q 26.265625 48.484375 22.1875 42.84375 
Q 18.109375 37.203125 18.109375 27.296875 
Q 18.109375 17.390625 22.1875 11.75 
Q 26.265625 6.109375 33.40625 6.109375 
Q 40.53125 6.109375 44.609375 11.75 
Q 48.6875 17.390625 48.6875 27.296875 
z
M 18.109375 46.390625 
Q 20.953125 51.265625 25.265625 53.625 
Q 29.59375 56 35.59375 56 
Q 45.5625 56 51.78125 48.09375 
Q 58.015625 40.1875 58.015625 27.296875 
Q 58.015625 14.40625 51.78125 6.484375 
Q 45.5625 -1.421875 35.59375 -1.421875 
Q 29.59375 -1.421875 25.265625 0.953125 
Q 20.953125 3.328125 18.109375 8.203125 
L 18.109375 0 
L 9.078125 0 
L 9.078125 75.984375 
L 18.109375 75.984375 
z
" id="DejaVuSans-98"/>
      <path d="M 56.203125 29.59375 
L 56.203125 25.203125 
L 14.890625 25.203125 
Q 15.484375 15.921875 20.484375 11.0625 
Q 25.484375 6.203125 34.421875 6.203125 
Q 39.59375 6.203125 44.453125 7.46875 
Q 49.3125 8.734375 54.109375 11.28125 
L 54.109375 2.78125 
Q 49.265625 0.734375 44.1875 -0.34375 
Q 39.109375 -1.421875 33.890625 -1.421875 
Q 20.796875 -1.421875 13.15625 6.1875 
Q 5.515625 13.8125 5.515625 26.8125 
Q 5.515625 40.234375 12.765625 48.109375 
Q 20.015625 56 32.328125 56 
Q 43.359375 56 49.78125 48.890625 
Q 56.203125 41.796875 56.203125 29.59375 
z
M 47.21875 32.234375 
Q 47.125 39.59375 43.09375 43.984375 
Q 39.0625 48.390625 32.421875 48.390625 
Q 24.90625 48.390625 20.390625 44.140625 
Q 15.875 39.890625 15.1875 32.171875 
z
" id="DejaVuSans-101"/>
     </defs>
     <g transform="translate(128.868412 274.316562)scale(0.1 -0.1)">
      <use xlink:href="#DejaVuSans-84"/>
      <use x="46.333984" xlink:href="#DejaVuSans-114"/>
      <use x="87.447266" xlink:href="#DejaVuSans-105"/>
      <use x="115.230469" xlink:href="#DejaVuSans-97"/>
      <use x="176.509766" xlink:href="#DejaVuSans-108"/>
      <use x="204.292969" xlink:href="#DejaVuSans-32"/>
      <use x="236.080078" xlink:href="#DejaVuSans-78"/>
      <use x="310.884766" xlink:href="#DejaVuSans-117"/>
      <use x="374.263672" xlink:href="#DejaVuSans-109"/>
      <use x="471.675781" xlink:href="#DejaVuSans-98"/>
      <use x="535.152344" xlink:href="#DejaVuSans-101"/>
      <use x="596.675781" xlink:href="#DejaVuSans-114"/>
     </g>
    </g>
   </g>
   <g id="matplotlib.axis_2">
    <g id="ytick_1">
     <g id="line2d_6">
      <defs>
       <path d="M 0 0 
L -3.5 0 
" id="ma56e8a3943" style="stroke:#000000;stroke-width:0.8;"/>
      </defs>
      <g>
       <use style="stroke:#000000;stroke-width:0.8;" x="54.2" xlink:href="#ma56e8a3943" y="220.150533"/>
      </g>
     </g>
     <g id="text_7">
      <!-- 0.30 -->
      <defs>
       <path d="M 10.6875 12.40625 
L 21 12.40625 
L 21 0 
L 10.6875 0 
z
" id="DejaVuSans-46"/>
       <path d="M 40.578125 39.3125 
Q 47.65625 37.796875 51.625 33 
Q 55.609375 28.21875 55.609375 21.1875 
Q 55.609375 10.40625 48.1875 4.484375 
Q 40.765625 -1.421875 27.09375 -1.421875 
Q 22.515625 -1.421875 17.65625 -0.515625 
Q 12.796875 0.390625 7.625 2.203125 
L 7.625 11.71875 
Q 11.71875 9.328125 16.59375 8.109375 
Q 21.484375 6.890625 26.8125 6.890625 
Q 36.078125 6.890625 40.9375 10.546875 
Q 45.796875 14.203125 45.796875 21.1875 
Q 45.796875 27.640625 41.28125 31.265625 
Q 36.765625 34.90625 28.71875 34.90625 
L 20.21875 34.90625 
L 20.21875 43.015625 
L 29.109375 43.015625 
Q 36.375 43.015625 40.234375 45.921875 
Q 44.09375 48.828125 44.09375 54.296875 
Q 44.09375 59.90625 40.109375 62.90625 
Q 36.140625 65.921875 28.71875 65.921875 
Q 24.65625 65.921875 20.015625 65.03125 
Q 15.375 64.15625 9.8125 62.3125 
L 9.8125 71.09375 
Q 15.4375 72.65625 20.34375 73.4375 
Q 25.25 74.21875 29.59375 74.21875 
Q 40.828125 74.21875 47.359375 69.109375 
Q 53.90625 64.015625 53.90625 55.328125 
Q 53.90625 49.265625 50.4375 45.09375 
Q 46.96875 40.921875 40.578125 39.3125 
z
" id="DejaVuSans-51"/>
      </defs>
      <g transform="translate(24.934375 223.949751)scale(0.1 -0.1)">
       <use xlink:href="#DejaVuSans-48"/>
       <use x="63.623047" xlink:href="#DejaVuSans-46"/>
       <use x="95.410156" xlink:href="#DejaVuSans-51"/>
       <use x="159.033203" xlink:href="#DejaVuSans-48"/>
      </g>
     </g>
    </g>
    <g id="ytick_2">
     <g id="line2d_7">
      <g>
       <use style="stroke:#000000;stroke-width:0.8;" x="54.2" xlink:href="#ma56e8a3943" y="179.0784"/>
      </g>
     </g>
     <g id="text_8">
      <!-- 0.35 -->
      <defs>
       <path d="M 10.796875 72.90625 
L 49.515625 72.90625 
L 49.515625 64.59375 
L 19.828125 64.59375 
L 19.828125 46.734375 
Q 21.96875 47.46875 24.109375 47.828125 
Q 26.265625 48.1875 28.421875 48.1875 
Q 40.625 48.1875 47.75 41.5 
Q 54.890625 34.8125 54.890625 23.390625 
Q 54.890625 11.625 47.5625 5.09375 
Q 40.234375 -1.421875 26.90625 -1.421875 
Q 22.3125 -1.421875 17.546875 -0.640625 
Q 12.796875 0.140625 7.71875 1.703125 
L 7.71875 11.625 
Q 12.109375 9.234375 16.796875 8.0625 
Q 21.484375 6.890625 26.703125 6.890625 
Q 35.15625 6.890625 40.078125 11.328125 
Q 45.015625 15.765625 45.015625 23.390625 
Q 45.015625 31 40.078125 35.4375 
Q 35.15625 39.890625 26.703125 39.890625 
Q 22.75 39.890625 18.8125 39.015625 
Q 14.890625 38.140625 10.796875 36.28125 
z
" id="DejaVuSans-53"/>
      </defs>
      <g transform="translate(24.934375 182.877619)scale(0.1 -0.1)">
       <use xlink:href="#DejaVuSans-48"/>
       <use x="63.623047" xlink:href="#DejaVuSans-46"/>
       <use x="95.410156" xlink:href="#DejaVuSans-51"/>
       <use x="159.033203" xlink:href="#DejaVuSans-53"/>
      </g>
     </g>
    </g>
    <g id="ytick_3">
     <g id="line2d_8">
      <g>
       <use style="stroke:#000000;stroke-width:0.8;" x="54.2" xlink:href="#ma56e8a3943" y="138.006267"/>
      </g>
     </g>
     <g id="text_9">
      <!-- 0.40 -->
      <g transform="translate(24.934375 141.805486)scale(0.1 -0.1)">
       <use xlink:href="#DejaVuSans-48"/>
       <use x="63.623047" xlink:href="#DejaVuSans-46"/>
       <use x="95.410156" xlink:href="#DejaVuSans-52"/>
       <use x="159.033203" xlink:href="#DejaVuSans-48"/>
      </g>
     </g>
    </g>
    <g id="ytick_4">
     <g id="line2d_9">
      <g>
       <use style="stroke:#000000;stroke-width:0.8;" x="54.2" xlink:href="#ma56e8a3943" y="96.934134"/>
      </g>
     </g>
     <g id="text_10">
      <!-- 0.45 -->
      <g transform="translate(24.934375 100.733353)scale(0.1 -0.1)">
       <use xlink:href="#DejaVuSans-48"/>
       <use x="63.623047" xlink:href="#DejaVuSans-46"/>
       <use x="95.410156" xlink:href="#DejaVuSans-52"/>
       <use x="159.033203" xlink:href="#DejaVuSans-53"/>
      </g>
     </g>
    </g>
    <g id="ytick_5">
     <g id="line2d_10">
      <g>
       <use style="stroke:#000000;stroke-width:0.8;" x="54.2" xlink:href="#ma56e8a3943" y="55.862002"/>
      </g>
     </g>
     <g id="text_11">
      <!-- 0.50 -->
      <g transform="translate(24.934375 59.66122)scale(0.1 -0.1)">
       <use xlink:href="#DejaVuSans-48"/>
       <use x="63.623047" xlink:href="#DejaVuSans-46"/>
       <use x="95.410156" xlink:href="#DejaVuSans-53"/>
       <use x="159.033203" xlink:href="#DejaVuSans-48"/>
      </g>
     </g>
    </g>
    <g id="ytick_6">
     <g id="line2d_11">
      <g>
       <use style="stroke:#000000;stroke-width:0.8;" x="54.2" xlink:href="#ma56e8a3943" y="14.789869"/>
      </g>
     </g>
     <g id="text_12">
      <!-- 0.55 -->
      <g transform="translate(24.934375 18.589088)scale(0.1 -0.1)">
       <use xlink:href="#DejaVuSans-48"/>
       <use x="63.623047" xlink:href="#DejaVuSans-46"/>
       <use x="95.410156" xlink:href="#DejaVuSans-53"/>
       <use x="159.033203" xlink:href="#DejaVuSans-53"/>
      </g>
     </g>
    </g>
    <g id="text_13">
     <!-- Relative Residual -->
     <defs>
      <path d="M 44.390625 34.1875 
Q 47.5625 33.109375 50.5625 29.59375 
Q 53.5625 26.078125 56.59375 19.921875 
L 66.609375 0 
L 56 0 
L 46.6875 18.703125 
Q 43.0625 26.03125 39.671875 28.421875 
Q 36.28125 30.8125 30.421875 30.8125 
L 19.671875 30.8125 
L 19.671875 0 
L 9.8125 0 
L 9.8125 72.90625 
L 32.078125 72.90625 
Q 44.578125 72.90625 50.734375 67.671875 
Q 56.890625 62.453125 56.890625 51.90625 
Q 56.890625 45.015625 53.6875 40.46875 
Q 50.484375 35.9375 44.390625 34.1875 
z
M 19.671875 64.796875 
L 19.671875 38.921875 
L 32.078125 38.921875 
Q 39.203125 38.921875 42.84375 42.21875 
Q 46.484375 45.515625 46.484375 51.90625 
Q 46.484375 58.296875 42.84375 61.546875 
Q 39.203125 64.796875 32.078125 64.796875 
z
" id="DejaVuSans-82"/>
      <path d="M 18.3125 70.21875 
L 18.3125 54.6875 
L 36.8125 54.6875 
L 36.8125 47.703125 
L 18.3125 47.703125 
L 18.3125 18.015625 
Q 18.3125 11.328125 20.140625 9.421875 
Q 21.96875 7.515625 27.59375 7.515625 
L 36.8125 7.515625 
L 36.8125 0 
L 27.59375 0 
Q 17.1875 0 13.234375 3.875 
Q 9.28125 7.765625 9.28125 18.015625 
L 9.28125 47.703125 
L 2.6875 47.703125 
L 2.6875 54.6875 
L 9.28125 54.6875 
L 9.28125 70.21875 
z
" id="DejaVuSans-116"/>
      <path d="M 2.984375 54.6875 
L 12.5 54.6875 
L 29.59375 8.796875 
L 46.6875 54.6875 
L 56.203125 54.6875 
L 35.6875 0 
L 23.484375 0 
z
" id="DejaVuSans-118"/>
      <path d="M 44.28125 53.078125 
L 44.28125 44.578125 
Q 40.484375 46.53125 36.375 47.5 
Q 32.28125 48.484375 27.875 48.484375 
Q 21.1875 48.484375 17.84375 46.4375 
Q 14.5 44.390625 14.5 40.28125 
Q 14.5 37.15625 16.890625 35.375 
Q 19.28125 33.59375 26.515625 31.984375 
L 29.59375 31.296875 
Q 39.15625 29.25 43.1875 25.515625 
Q 47.21875 21.78125 47.21875 15.09375 
Q 47.21875 7.46875 41.1875 3.015625 
Q 35.15625 -1.421875 24.609375 -1.421875 
Q 20.21875 -1.421875 15.453125 -0.5625 
Q 10.6875 0.296875 5.421875 2 
L 5.421875 11.28125 
Q 10.40625 8.6875 15.234375 7.390625 
Q 20.0625 6.109375 24.8125 6.109375 
Q 31.15625 6.109375 34.5625 8.28125 
Q 37.984375 10.453125 37.984375 14.40625 
Q 37.984375 18.0625 35.515625 20.015625 
Q 33.0625 21.96875 24.703125 23.78125 
L 21.578125 24.515625 
Q 13.234375 26.265625 9.515625 29.90625 
Q 5.8125 33.546875 5.8125 39.890625 
Q 5.8125 47.609375 11.28125 51.796875 
Q 16.75 56 26.8125 56 
Q 31.78125 56 36.171875 55.265625 
Q 40.578125 54.546875 44.28125 53.078125 
z
" id="DejaVuSans-115"/>
      <path d="M 45.40625 46.390625 
L 45.40625 75.984375 
L 54.390625 75.984375 
L 54.390625 0 
L 45.40625 0 
L 45.40625 8.203125 
Q 42.578125 3.328125 38.25 0.953125 
Q 33.9375 -1.421875 27.875 -1.421875 
Q 17.96875 -1.421875 11.734375 6.484375 
Q 5.515625 14.40625 5.515625 27.296875 
Q 5.515625 40.1875 11.734375 48.09375 
Q 17.96875 56 27.875 56 
Q 33.9375 56 38.25 53.625 
Q 42.578125 51.265625 45.40625 46.390625 
z
M 14.796875 27.296875 
Q 14.796875 17.390625 18.875 11.75 
Q 22.953125 6.109375 30.078125 6.109375 
Q 37.203125 6.109375 41.296875 11.75 
Q 45.40625 17.390625 45.40625 27.296875 
Q 45.40625 37.203125 41.296875 42.84375 
Q 37.203125 48.484375 30.078125 48.484375 
Q 22.953125 48.484375 18.875 42.84375 
Q 14.796875 37.203125 14.796875 27.296875 
z
" id="DejaVuSans-100"/>
     </defs>
     <g transform="translate(18.854688 172.94314)rotate(-90)scale(0.1 -0.1)">
      <use xlink:href="#DejaVuSans-82"/>
      <use x="64.982422" xlink:href="#DejaVuSans-101"/>
      <use x="126.505859" xlink:href="#DejaVuSans-108"/>
      <use x="154.289062" xlink:href="#DejaVuSans-97"/>
      <use x="215.568359" xlink:href="#DejaVuSans-116"/>
      <use x="254.777344" xlink:href="#DejaVuSans-105"/>
      <use x="282.560547" xlink:href="#DejaVuSans-118"/>
      <use x="341.740234" xlink:href="#DejaVuSans-101"/>
      <use x="403.263672" xlink:href="#DejaVuSans-32"/>
      <use x="435.050781" xlink:href="#DejaVuSans-82"/>
      <use x="500.033203" xlink:href="#DejaVuSans-101"/>
      <use x="561.556641" xlink:href="#DejaVuSans-115"/>
      <use x="613.65625" xlink:href="#DejaVuSans-105"/>
      <use x="641.439453" xlink:href="#DejaVuSans-100"/>
      <use x="704.916016" xlink:href="#DejaVuSans-117"/>
      <use x="768.294922" xlink:href="#DejaVuSans-97"/>
      <use x="829.574219" xlink:href="#DejaVuSans-108"/>
     </g>
    </g>
   </g>
   <g id="line2d_12">
    <path clip-path="url(#p6cd77523ac)" d="M 63.887043 24.651108 
L 66.044179 26.221655 
L 66.721419 26.673132 
L 66.972248 26.856347 
L 67.32341 27.008227 
L 67.473908 27.104779 
L 67.850152 27.575057 
L 68.326729 27.849292 
L 68.527393 28.00504 
L 68.778222 28.188549 
L 69.781541 28.890955 
L 70.007288 28.996076 
L 70.383532 29.307326 
L 71.738013 30.062806 
L 72.114257 30.411757 
L 72.465419 30.606772 
L 72.666083 30.704744 
L 73.042327 30.867836 
L 73.167742 30.944902 
L 73.368406 31.069265 
L 73.443655 31.146184 
L 73.619236 31.252725 
L 73.870065 31.362497 
L 74.145978 31.537829 
L 74.296476 31.626695 
L 74.722886 32.02735 
L 74.873384 32.132764 
L 75.17438 32.36264 
L 75.400126 32.455667 
L 75.751288 32.694552 
L 75.85162 32.804667 
L 76.980354 33.451257 
L 77.858258 34.11371 
L 78.410083 34.267499 
L 79.187655 34.719514 
L 79.413402 34.883242 
L 79.965227 35.120021 
L 80.190974 35.228521 
L 80.767882 35.671429 
L 80.943463 35.773221 
L 82.222694 36.468234 
L 83.050432 36.831187 
L 83.251096 36.997413 
L 83.527009 37.097588 
L 83.903253 37.377846 
L 84.103917 37.467593 
L 84.429996 37.810619 
L 85.257734 38.251569 
L 85.508563 38.404917 
L 86.085472 38.830444 
L 86.461716 39.018556 
L 86.837961 39.118683 
L 87.214205 39.322559 
L 87.766031 39.535005 
L 87.941612 39.654863 
L 88.067026 39.753864 
L 88.342939 39.885767 
L 88.919847 40.196038 
L 89.421507 40.457886 
L 89.772668 40.567854 
L 90.224162 40.734275 
L 90.37466 40.801304 
L 90.926485 41.048169 
L 91.152232 41.182667 
L 91.453227 41.293615 
L 92.40638 41.760025 
L 92.682293 41.897411 
L 94.01169 42.491906 
L 94.212354 42.62043 
L 95.165507 42.95577 
L 95.391254 43.077782 
L 104.170293 46.421677 
L 104.471289 46.519601 
L 104.998031 46.771363 
L 105.424442 46.887892 
L 105.775603 47.039428 
L 106.50301 47.352637 
L 106.829088 47.454086 
L 107.029752 47.534187 
L 107.656826 47.670154 
L 108.10832 47.886712 
L 108.434398 47.981796 
L 108.710311 48.053966 
L 108.885892 48.114532 
L 109.262136 48.352535 
L 109.688547 48.460985 
L 110.290538 48.643564 
L 110.792197 48.943504 
L 111.469438 49.137588 
L 111.920931 49.268365 
L 113.952652 49.988202 
L 114.203481 50.096456 
L 114.504477 50.185273 
L 122.430696 52.830238 
L 122.656442 52.903142 
L 123.233351 53.141635 
L 123.459097 53.265313 
L 123.960757 53.366859 
L 124.186504 53.400937 
L 124.562748 53.527209 
L 124.788495 53.635807 
L 125.089491 53.745383 
L 125.34032 53.838508 
L 126.795133 54.327196 
L 127.071045 54.400884 
L 127.472373 54.504732 
L 128.977351 54.928202 
L 129.453927 55.033617 
L 131.209735 55.553591 
L 131.460565 55.589235 
L 131.786644 55.668602 
L 132.112722 55.772108 
L 132.614382 55.93826 
L 133.316705 56.159542 
L 133.592617 56.216191 
L 133.86853 56.310957 
L 134.094277 56.375782 
L 134.646102 56.538678 
L 134.922015 56.604409 
L 135.223011 56.702553 
L 135.850085 56.821947 
L 136.778155 57.074149 
L 136.978818 57.141178 
L 137.656059 57.307011 
L 137.906888 57.358715 
L 138.408548 57.452575 
L 138.659377 57.543986 
L 138.885124 57.603671 
L 139.86336 57.892007 
L 140.314853 57.997617 
L 140.565683 58.072455 
L 141.067343 58.182864 
L 145.105701 59.23165 
L 145.833107 59.456581 
L 146.334766 59.61108 
L 146.585596 59.663518 
L 146.886592 59.730277 
L 147.137421 59.797159 
L 150.950033 60.651959 
L 151.476775 60.762343 
L 151.978435 60.898139 
L 153.684077 61.26239 
L 154.361317 61.359138 
L 154.612147 61.429178 
L 154.888059 61.499145 
L 155.339553 61.653521 
L 155.715797 61.755288 
L 155.966627 61.821925 
L 160.606976 63.011428 
L 161.284217 63.155057 
L 161.560129 63.224216 
L 161.785876 63.329092 
L 162.111955 63.421385 
L 162.41295 63.470812 
L 162.66378 63.517374 
L 163.290854 63.685485 
L 163.516601 63.763089 
L 170.439501 65.462627 
L 170.665247 65.505762 
L 171.141824 65.615314 
L 174.126697 66.361223 
L 174.628357 66.455107 
L 174.829021 66.492538 
L 175.556427 66.673232 
L 175.907588 66.794069 
L 180.598104 67.758078 
L 181.024514 67.86129 
L 181.32551 67.946777 
L 181.57634 67.982886 
L 182.705073 68.224195 
L 183.156567 68.328018 
L 183.482645 68.364054 
L 183.909056 68.408022 
L 184.260217 68.518308 
L 185.087955 68.671069 
L 186.266855 69.023496 
L 186.567851 69.115887 
L 188.097912 69.472231 
L 188.599571 69.575614 
L 189.201562 69.686194 
L 189.60289 69.784068 
L 189.85372 69.831047 
L 192.362017 70.420107 
L 192.612846 70.475164 
L 193.515833 70.628317 
L 193.892078 70.69843 
L 194.067659 70.7317 
L 194.845231 70.865806 
L 195.497388 70.952689 
L 195.873633 71.009093 
L 196.726454 71.181242 
L 197.177947 71.228686 
L 197.654523 71.335717 
L 201.743048 72.162069 
L 202.420288 72.339899 
L 202.896864 72.46436 
L 203.122611 72.500028 
L 204.677755 72.847779 
L 205.028917 72.970943 
L 205.329912 73.057556 
L 206.383397 73.281263 
L 206.558978 73.342367 
L 207.08572 73.478677 
L 208.038873 73.630213 
L 208.239537 73.69783 
L 208.816445 73.806182 
L 211.600655 74.376122 
L 211.776236 74.431645 
L 212.328061 74.53564 
L 214.961773 75.210382 
L 215.789511 75.313422 
L 216.366419 75.421187 
L 216.918245 75.528781 
L 217.695817 75.661296 
L 218.297808 75.767592 
L 218.573721 75.807006 
L 219.175712 75.934821 
L 221.157267 76.423998 
L 221.959922 76.531959 
L 222.712411 76.666163 
L 224.81938 77.004195 
L 225.120376 77.100503 
L 225.471537 77.190128 
L 226.073529 77.298578 
L 226.775852 77.486224 
L 227.904586 77.698719 
L 234.375992 79.021152 
L 235.078315 79.125881 
L 236.006385 79.267406 
L 236.508044 79.373383 
L 237.084953 79.547565 
L 237.586612 79.656603 
L 241.951049 80.458426 
L 242.502874 80.557573 
L 242.80387 80.614859 
L 243.330612 80.716479 
L 243.706857 80.812052 
L 244.258682 80.915288 
L 244.509512 80.926917 
L 245.33725 81.057718 
L 245.838909 81.18967 
L 246.69173 81.298121 
L 247.093058 81.363729 
L 247.444219 81.464982 
L 247.945879 81.566407 
L 248.748534 81.675738 
L 250.629757 82.024763 
L 251.181582 82.126946 
L 251.557827 82.215885 
L 252.184901 82.32343 
L 252.811975 82.449702 
L 253.18822 82.530416 
L 254.342036 82.739409 
L 254.617949 82.801321 
L 255.094525 82.912416 
L 255.520936 83.0181 
L 256.072761 83.077417 
L 256.474089 83.195096 
L 257.627905 83.399071 
L 257.627905 83.399071 
" style="fill:none;stroke:#1f77b4;stroke-linecap:square;stroke-width:1.5;"/>
   </g>
   <g id="line2d_13">
    <path clip-path="url(#p6cd77523ac)" d="M 63.887043 26.653401 
L 64.288371 45.763631 
L 64.890362 59.033404 
L 65.392021 67.167574 
L 65.617768 70.403753 
L 65.868598 73.744246 
L 66.219759 77.372829 
L 66.771585 83.349008 
L 66.846834 84.111417 
L 68.376895 98.07324 
L 70.433698 113.146179 
L 70.458781 113.146179 
L 71.085856 117.211697 
L 71.336685 118.722683 
L 71.4621 119.194552 
L 71.562432 119.620226 
L 71.938677 121.643621 
L 72.039008 122.269108 
L 72.716249 126.950346 
L 73.042327 128.443656 
L 73.368406 130.162852 
L 73.418572 130.433194 
L 73.920231 133.295036 
L 73.970397 133.396827 
L 74.421891 136.092982 
L 76.127533 143.651043 
L 76.27803 144.10443 
L 78.63583 153.188948 
L 78.660913 153.188948 
L 79.538817 156.657647 
L 79.714397 156.719584 
L 80.818048 160.16385 
L 80.893297 160.202726 
L 81.093961 160.839499 
L 81.119044 160.839499 
L 81.319707 161.490617 
L 81.59562 162.370926 
L 81.921699 163.245408 
L 81.971865 163.245408 
L 82.323026 164.545956 
L 82.749437 165.556894 
L 82.925018 165.883837 
L 83.100598 166.413628 
L 83.426677 167.398348 
L 83.45176 167.413624 
L 83.677507 168.245901 
L 83.727673 168.317556 
L 84.028668 169.497046 
L 84.229332 170.076289 
L 84.580494 170.839823 
L 84.605577 170.839823 
L 84.756074 171.1121 
L 84.881489 171.429054 
L 85.332983 172.635228 
L 85.433315 172.72118 
L 85.508563 172.919598 
L 85.759393 173.938028 
L 86.386467 175.090442 
L 86.511882 175.35956 
L 86.66238 175.744327 
L 86.712546 175.758158 
L 86.91321 176.197223 
L 86.988459 176.27282 
L 87.088791 176.62608 
L 87.239288 177.11773 
L 87.33962 177.214552 
L 87.866363 177.890029 
L 88.092109 178.462367 
L 88.719184 179.689154 
L 89.145594 180.700534 
L 89.321175 180.766632 
L 89.44659 180.981574 
L 89.496756 181.032813 
L 89.647254 181.396746 
L 89.822834 181.615483 
L 89.923166 181.703051 
L 90.199079 182.257396 
L 90.424826 182.481495 
L 90.525158 182.582356 
L 90.876319 183.205076 
L 91.0519 183.303294 
L 91.177315 183.504404 
L 91.428144 183.951352 
L 91.754223 184.49145 
L 92.030136 184.693711 
L 92.205717 185.137697 
L 93.535114 187.328052 
L 93.735778 187.885677 
L 94.137105 188.417035 
L 94.362852 188.989644 
L 94.613682 189.086882 
L 96.018328 191.047581 
L 96.218992 191.283186 
L 96.344407 191.413008 
L 96.519987 191.439863 
L 96.595236 191.459424 
L 96.745734 191.665749 
L 96.820983 191.76448 
L 96.996564 192.072817 
L 97.147062 192.317822 
L 97.322642 192.526742 
L 97.397891 192.636343 
L 97.573472 192.875839 
L 97.799219 193.033105 
L 98.175463 193.809321 
L 98.200546 193.809321 
L 98.351044 194.056578 
L 98.426293 194.125198 
L 98.702206 194.829464 
L 99.103533 195.286865 
L 99.454695 196.033851 
L 100.859341 197.41215 
L 100.909507 197.480427 
L 101.511498 198.441033 
L 101.586747 198.441033 
L 101.737245 198.770791 
L 102.013158 198.874933 
L 102.163656 199.169022 
L 102.289071 199.277717 
L 102.464651 199.50654 
L 102.665315 199.576996 
L 102.840896 199.836077 
L 102.991394 199.935886 
L 103.794049 200.847995 
L 103.994713 200.922246 
L 104.270625 201.259323 
L 104.370957 201.259323 
L 104.521455 201.503275 
L 104.671953 201.783165 
L 104.822451 201.985059 
L 105.248861 202.520457 
L 105.374276 202.599261 
L 105.625106 202.896606 
L 105.800686 203.180217 
L 106.026433 203.403874 
L 106.302346 203.506351 
L 106.477927 203.645378 
L 106.653507 203.659675 
L 106.778922 203.880738 
L 107.004669 203.951243 
L 107.18025 204.075949 
L 107.431079 204.142659 
L 107.581577 204.289055 
L 107.957822 204.39092 
L 108.484564 204.999809 
L 108.760477 205.109263 
L 108.910975 205.409399 
L 109.638381 205.662458 
L 109.964459 205.75218 
L 110.315621 206.092563 
L 110.415953 206.167254 
L 110.591534 206.526438 
L 110.767115 206.628719 
L 110.967778 206.863588 
L 111.093193 206.95762 
L 111.293857 207.181204 
L 111.419272 207.220691 
L 111.56977 207.365471 
L 111.920931 207.449882 
L 112.046346 207.50254 
L 112.121595 207.600733 
L 112.272093 207.734888 
L 112.372425 207.78456 
L 112.497839 207.883952 
L 112.573088 207.975682 
L 113.099831 208.446401 
L 113.225246 208.542684 
L 113.576407 208.856946 
L 114.153315 209.234564 
L 114.353979 209.404143 
L 114.654975 209.664154 
L 114.78039 209.768712 
L 115.081385 209.866367 
L 115.307132 209.970239 
L 115.407464 210.048994 
L 115.70846 210.391825 
L 115.959289 210.413857 
L 116.109787 210.578198 
L 116.410783 210.676905 
L 116.561281 210.763616 
L 116.912442 210.870034 
L 117.113106 211.099616 
L 117.414102 211.207626 
L 117.765263 211.471457 
L 117.99101 211.577704 
L 118.216757 211.721137 
L 118.367254 211.824716 
L 118.492669 211.890031 
L 118.818748 211.998016 
L 118.969246 212.202799 
L 119.295324 212.262508 
L 119.445822 212.516962 
L 120.398975 213.178534 
L 120.624722 213.422486 
L 120.699971 213.499626 
L 120.900634 213.570082 
L 121.126381 213.867769 
L 121.226713 213.959059 
L 121.778538 214.357363 
L 121.954119 214.427648 
L 122.1297 214.675052 
L 122.556111 214.774615 
L 122.556111 214.774615 
" style="fill:none;stroke:#ff7f0e;stroke-linecap:square;stroke-width:1.5;"/>
   </g>
   <g id="line2d_14">
    <path clip-path="url(#p6cd77523ac)" d="M 63.887043 51.966993 
L 64.137873 118.437089 
L 64.489034 156.204334 
L 64.840196 175.376452 
L 65.291689 189.841505 
L 65.943847 199.273824 
L 65.994013 199.273824 
L 66.194676 202.197309 
L 66.370257 204.243569 
L 66.621087 206.97647 
L 66.671253 206.97647 
L 66.821751 208.117769 
L 66.897 208.117769 
L 67.047497 208.526821 
L 67.147829 208.526821 
L 67.298327 209.306293 
L 67.32341 209.306293 
L 67.549157 210.704397 
L 67.599323 210.704397 
L 67.749821 211.757712 
L 67.799986 212.046023 
L 68.276563 215.563341 
L 68.527393 216.583729 
L 68.652807 216.988839 
L 68.67789 216.988839 
L 68.828388 217.190366 
L 69.029052 217.242412 
L 69.229716 218.827575 
L 69.681209 218.827575 
L 69.806624 219.123867 
L 69.982205 219.508364 
L 70.007288 219.508364 
L 70.132703 219.787226 
L 70.233035 219.787226 
L 70.559113 221.49543 
L 70.634362 221.49543 
L 71.110939 223.314238 
L 71.21127 223.396151 
L 71.336685 223.720279 
L 71.361768 223.720279 
L 71.537349 224.062032 
L 71.612598 224.062032 
L 71.763096 225.044793 
L 72.013925 225.044793 
L 72.239672 226.409065 
L 72.314921 226.409065 
L 72.440336 226.558692 
L 72.540668 226.558692 
L 72.666083 226.703203 
L 73.017244 227.334296 
L 73.368406 227.334296 
L 73.518904 227.970799 
L 73.895148 227.970799 
L 74.095812 228.498534 
L 75.224546 228.498534 
L 75.349961 228.636606 
L 75.951952 228.636606 
L 75.951952 228.636606 
" style="fill:none;stroke:#2ca02c;stroke-linecap:square;stroke-width:1.5;"/>
   </g>
   <g id="line2d_15">
    <path clip-path="url(#p6cd77523ac)" d="M 63.887043 59.071154 
L 64.137873 161.108005 
L 64.162956 161.297903 
L 64.413785 183.174255 
L 64.438868 183.313184 
L 65.291689 215.950188 
L 65.316772 215.948009 
L 65.341855 215.97795 
L 65.567602 217.200158 
L 65.642851 217.331229 
L 65.793349 220.682885 
L 66.044179 224.402121 
L 66.119427 224.661838 
L 66.269925 225.927476 
L 66.320091 226.053259 
L 66.696336 227.283792 
L 66.796668 227.431387 
L 66.922083 227.91934 
L 66.947165 227.929794 
L 67.147829 229.692883 
L 67.248161 229.927606 
L 67.524074 230.410517 
L 67.57424 230.421631 
L 67.699655 230.769309 
L 67.749821 230.841185 
L 67.875235 230.918446 
L 68.00065 231.903362 
L 68.452144 233.171913 
L 68.577559 233.920906 
L 68.627724 233.923844 
L 68.778222 234.220381 
L 68.92872 234.512144 
L 69.054135 235.33906 
L 69.204633 235.497672 
L 69.204633 235.497672 
" style="fill:none;stroke:#d62728;stroke-linecap:square;stroke-width:1.5;"/>
   </g>
   <g id="patch_3">
    <path d="M 54.2 246.04 
L 54.2 14.10878 
" style="fill:none;stroke:#000000;stroke-linecap:square;stroke-linejoin:miter;stroke-width:0.8;"/>
   </g>
   <g id="patch_4">
    <path d="M 267.314948 246.04 
L 267.314948 14.10878 
" style="fill:none;stroke:#000000;stroke-linecap:square;stroke-linejoin:miter;stroke-width:0.8;"/>
   </g>
   <g id="patch_5">
    <path d="M 54.2 246.04 
L 267.314948 246.04 
" style="fill:none;stroke:#000000;stroke-linecap:square;stroke-linejoin:miter;stroke-width:0.8;"/>
   </g>
   <g id="patch_6">
    <path d="M 54.2 14.10878 
L 267.314948 14.10878 
" style="fill:none;stroke:#000000;stroke-linecap:square;stroke-linejoin:miter;stroke-width:0.8;"/>
   </g>
   <g id="legend_1">
    <g id="patch_7">
     <path d="M 201.058698 241.04 
L 260.314948 241.04 
Q 262.314948 241.04 262.314948 239.04 
L 262.314948 181.3275 
Q 262.314948 179.3275 260.314948 179.3275 
L 201.058698 179.3275 
Q 199.058698 179.3275 199.058698 181.3275 
L 199.058698 239.04 
Q 199.058698 241.04 201.058698 241.04 
z
" style="fill:#ffffff;opacity:0.8;stroke:#cccccc;stroke-linejoin:miter;"/>
    </g>
    <g id="line2d_16">
     <path d="M 203.058698 187.425937 
L 223.058698 187.425937 
" style="fill:none;stroke:#1f77b4;stroke-linecap:square;stroke-width:1.5;"/>
    </g>
    <g id="line2d_17"/>
    <g id="text_14">
     <!-- L1 -->
     <defs>
      <path d="M 9.8125 72.90625 
L 19.671875 72.90625 
L 19.671875 8.296875 
L 55.171875 8.296875 
L 55.171875 0 
L 9.8125 0 
z
" id="DejaVuSans-76"/>
      <path d="M 12.40625 8.296875 
L 28.515625 8.296875 
L 28.515625 63.921875 
L 10.984375 60.40625 
L 10.984375 69.390625 
L 28.421875 72.90625 
L 38.28125 72.90625 
L 38.28125 8.296875 
L 54.390625 8.296875 
L 54.390625 0 
L 12.40625 0 
z
" id="DejaVuSans-49"/>
     </defs>
     <g transform="translate(231.058698 190.925937)scale(0.1 -0.1)">
      <use xlink:href="#DejaVuSans-76"/>
      <use x="55.712891" xlink:href="#DejaVuSans-49"/>
     </g>
    </g>
    <g id="line2d_18">
     <path d="M 203.058698 202.104062 
L 223.058698 202.104062 
" style="fill:none;stroke:#ff7f0e;stroke-linecap:square;stroke-width:1.5;"/>
    </g>
    <g id="line2d_19"/>
    <g id="text_15">
     <!-- L10 -->
     <g transform="translate(231.058698 205.604062)scale(0.1 -0.1)">
      <use xlink:href="#DejaVuSans-76"/>
      <use x="55.712891" xlink:href="#DejaVuSans-49"/>
      <use x="119.335938" xlink:href="#DejaVuSans-48"/>
     </g>
    </g>
    <g id="line2d_20">
     <path d="M 203.058698 216.782187 
L 223.058698 216.782187 
" style="fill:none;stroke:#2ca02c;stroke-linecap:square;stroke-width:1.5;"/>
    </g>
    <g id="line2d_21"/>
    <g id="text_16">
     <!-- L50 -->
     <g transform="translate(231.058698 220.282187)scale(0.1 -0.1)">
      <use xlink:href="#DejaVuSans-76"/>
      <use x="55.712891" xlink:href="#DejaVuSans-53"/>
      <use x="119.335938" xlink:href="#DejaVuSans-48"/>
     </g>
    </g>
    <g id="line2d_22">
     <path d="M 203.058698 231.460312 
L 223.058698 231.460312 
" style="fill:none;stroke:#d62728;stroke-linecap:square;stroke-width:1.5;"/>
    </g>
    <g id="line2d_23"/>
    <g id="text_17">
     <!-- NUTS -->
     <defs>
      <path d="M 8.6875 72.90625 
L 18.609375 72.90625 
L 18.609375 28.609375 
Q 18.609375 16.890625 22.84375 11.734375 
Q 27.09375 6.59375 36.625 6.59375 
Q 46.09375 6.59375 50.34375 11.734375 
Q 54.59375 16.890625 54.59375 28.609375 
L 54.59375 72.90625 
L 64.5 72.90625 
L 64.5 27.390625 
Q 64.5 13.140625 57.4375 5.859375 
Q 50.390625 -1.421875 36.625 -1.421875 
Q 22.796875 -1.421875 15.734375 5.859375 
Q 8.6875 13.140625 8.6875 27.390625 
z
" id="DejaVuSans-85"/>
      <path d="M 53.515625 70.515625 
L 53.515625 60.890625 
Q 47.90625 63.578125 42.921875 64.890625 
Q 37.9375 66.21875 33.296875 66.21875 
Q 25.25 66.21875 20.875 63.09375 
Q 16.5 59.96875 16.5 54.203125 
Q 16.5 49.359375 19.40625 46.890625 
Q 22.3125 44.4375 30.421875 42.921875 
L 36.375 41.703125 
Q 47.40625 39.59375 52.65625 34.296875 
Q 57.90625 29 57.90625 20.125 
Q 57.90625 9.515625 50.796875 4.046875 
Q 43.703125 -1.421875 29.984375 -1.421875 
Q 24.8125 -1.421875 18.96875 -0.25 
Q 13.140625 0.921875 6.890625 3.21875 
L 6.890625 13.375 
Q 12.890625 10.015625 18.65625 8.296875 
Q 24.421875 6.59375 29.984375 6.59375 
Q 38.421875 6.59375 43.015625 9.90625 
Q 47.609375 13.234375 47.609375 19.390625 
Q 47.609375 24.75 44.3125 27.78125 
Q 41.015625 30.8125 33.5 32.328125 
L 27.484375 33.5 
Q 16.453125 35.6875 11.515625 40.375 
Q 6.59375 45.0625 6.59375 53.421875 
Q 6.59375 63.09375 13.40625 68.65625 
Q 20.21875 74.21875 32.171875 74.21875 
Q 37.3125 74.21875 42.625 73.28125 
Q 47.953125 72.359375 53.515625 70.515625 
z
" id="DejaVuSans-83"/>
     </defs>
     <g transform="translate(231.058698 234.960312)scale(0.1 -0.1)">
      <use xlink:href="#DejaVuSans-78"/>
      <use x="74.804688" xlink:href="#DejaVuSans-85"/>
      <use x="147.998047" xlink:href="#DejaVuSans-84"/>
      <use x="209.082031" xlink:href="#DejaVuSans-83"/>
     </g>
    </g>
   </g>
  </g>
 </g>
 <defs>
  <clipPath id="p6cd77523ac">
   <rect height="231.93122" width="213.114948" x="54.2" y="14.10878"/>
  </clipPath>
 </defs>
</svg>
