<svg xmlns="http://www.w3.org/2000/svg" xmlns:xlink="http://www.w3.org/1999/xlink" viewBox="0 0 1616 1080"><defs><style>.cls-1,.cls-11,.cls-12,.cls-13,.cls-15,.cls-9{fill:none;}.cls-2{fill:#ade5ff;}.cls-3{fill:#603813;}.cls-4{fill:url(#linear-gradient);}.cls-5{fill:url(#linear-gradient-2);}.cls-6{fill:#a67c52;}.cls-7{fill:#754c24;}.cls-8{clip-path:url(#clip-path);}.cls-9{stroke:#f20000;}.cls-11,.cls-12,.cls-13,.cls-15,.cls-17,.cls-9{stroke-miterlimit:10;}.cls-11,.cls-13,.cls-9{stroke-width:11px;}.cls-10{clip-path:url(#clip-path-2);}.cls-11{stroke:#0008f2;}.cls-12{stroke:#39b54a;stroke-width:8px;}.cls-13{stroke:#ab1c1c;}.cls-14{fill:#1a1a1a;}.cls-15{stroke:#1a1a1a;stroke-width:2px;}.cls-16{fill:#a1a1a1;}.cls-17{font-size:96px;fill:#fff;stroke:#000;stroke-width:3px;font-family:Arial-BoldMT, Arial;font-weight:700;}</style><linearGradient id="linear-gradient" x1="1467.72" y1="15.91" x2="1354.74" y2="154.88" gradientUnits="userSpaceOnUse"><stop offset="0.2" stop-color="#9cb539"/><stop offset="0.36" stop-color="#39b54a"/><stop offset="0.94" stop-color="#2c7d38"/></linearGradient><linearGradient id="linear-gradient-2" x1="625.61" y1="331.61" x2="545.55" y2="173.43" gradientTransform="matrix(-1, 0, 0, 1, 939, 0)" gradientUnits="userSpaceOnUse"><stop offset="0.06" stop-color="#2c7d38"/><stop offset="0.64" stop-color="#39b54a"/><stop offset="0.8" stop-color="#9cb539"/></linearGradient><clipPath id="clip-path"><rect class="cls-1" x="-201.06" y="296" width="1773.06" height="819.13"/></clipPath><clipPath id="clip-path-2"><path class="cls-1" d="M1619.42,296.14H-3.84V452.58C742.1,469.81,980.23,991,1619.42,1005.8Z"/></clipPath></defs><g id="Layer_1" data-name="Layer 1"><rect class="cls-2" width="1617" height="1080"/><rect class="cls-3" x="1373" y="140" width="29" height="156"/><path class="cls-4" d="M1480,93.7c0-17.1-13.08-31.38-30.56-34.92a38.93,38.93,0,0,0-23.91-16.27C1417.47,31.36,1403.68,24,1388,24c-15.25,0-28.71,7-36.85,17.6a39.93,39.93,0,0,0-27,13.71C1305.15,59.4,1291,75,1291,93.7a36.66,36.66,0,0,0,4.94,18.35,33.18,33.18,0,0,0,.09,35c.61,24.33,22.29,43.88,49,43.88a53,53,0,0,0,13.92-1.85A40.49,40.49,0,0,0,1388,201a41,41,0,0,0,25.42-8.65,42.08,42.08,0,0,0,13.58,2.23c20.88,0,37.92-15.05,39-34,8.58-6.56,14-16.44,14-27.49a33.52,33.52,0,0,0-6.46-19.71A33.55,33.55,0,0,0,1480,93.7Z"/><rect class="cls-3" x="322" y="314" width="29" height="156"/><path class="cls-5" d="M240,267.7c0-17.1,13.08-31.38,30.56-34.92a38.93,38.93,0,0,1,23.91-16.27C302.53,205.36,316.32,198,332,198c15.25,0,28.71,7,36.85,17.6a39.93,39.93,0,0,1,27,13.71C414.85,233.4,429,249,429,267.7a36.66,36.66,0,0,1-4.94,18.35,33.18,33.18,0,0,1-.09,35c-.61,24.33-22.29,43.88-49,43.88a53,53,0,0,1-13.92-1.85A40.49,40.49,0,0,1,332,375a41,41,0,0,1-25.42-8.65A42.08,42.08,0,0,1,293,368.58c-20.88,0-37.92-15.05-38.95-34-8.58-6.56-14.05-16.44-14.05-27.49a33.52,33.52,0,0,1,6.46-19.71A33.55,33.55,0,0,1,240,267.7Z"/><rect class="cls-6" x="-6.16" y="296" width="1623.26" height="783"/><path class="cls-7" d="M1645,1006C973.71,1006,742.91,452-44.21,452c0,0-2.53,679,0,685S1645,1148,1645,1148Z"/><g class="cls-8"><circle class="cls-9" cx="664.2" cy="259.87" r="164.93"/><circle class="cls-9" cx="664.2" cy="259.87" r="302.02"/><circle class="cls-9" cx="664.2" cy="259.87" r="449.47"/><circle class="cls-9" cx="664.2" cy="259.87" r="625.33"/><circle class="cls-9" cx="664.2" cy="259.87" r="792.45"/></g><g class="cls-10"><circle class="cls-11" cx="771.2" cy="771.87" r="164.93"/><circle class="cls-11" cx="771.2" cy="771.87" r="302.02"/><circle class="cls-11" cx="771.2" cy="771.87" r="449.47"/><circle class="cls-11" cx="771.2" cy="771.87" r="625.33"/><circle class="cls-11" cx="771.2" cy="771.87" r="792.45"/></g><line class="cls-12" x1="1" y1="296" x2="1921" y2="296"/><polygon class="cls-13" points="690.71 318.54 726 312.16 708.07 295.85 722.92 284.56 696.65 277.38 701.2 243.94 677.65 257.38 669.86 235.04 654.25 258.79 628.66 246.44 633.46 269.61 606.36 270.2 627.46 296.54 608.62 316.21 627.16 318.25 620.17 341.46 653.72 328.78 668.78 356.82 676.6 339.5 692.22 350.33 690.71 318.54"/><path class="cls-14" d="M1021.72,251.07c-5.19-2.15-11.1-2-16.62-2a51.64,51.64,0,0,0-13,1.47c-3.55.93-7.11,3-7.11,7.08v3.2a6.65,6.65,0,0,0,6.65,6.65h2.55l6.7,28.5h10.2l6.7-28.5h2.55a6.65,6.65,0,0,0,6.65-6.65v-3.2C1027,254.4,1024.54,252.23,1021.72,251.07Z"/><path class="cls-14" d="M1104.72,251.07c-5.19-2.15-11.1-2-16.62-2a51.64,51.64,0,0,0-13,1.47c-3.55.93-7.11,3-7.11,7.08v3.2a6.65,6.65,0,0,0,6.65,6.65h2.55l6.7,28.5h10.2l6.7-28.5h2.55a6.65,6.65,0,0,0,6.65-6.65v-3.2C1110,254.4,1107.54,252.23,1104.72,251.07Z"/><path class="cls-15" d="M1006,257q41.51,17.37,83,0"/><path class="cls-14" d="M1187.72,251.07c-5.19-2.15-11.1-2-16.62-2a51.64,51.64,0,0,0-13,1.47c-3.55.93-7.11,3-7.11,7.08v3.2a6.65,6.65,0,0,0,6.65,6.65h2.55l6.7,28.5h10.2l6.7-28.5h2.55a6.65,6.65,0,0,0,6.65-6.65v-3.2C1193,254.4,1190.54,252.23,1187.72,251.07Z"/><path class="cls-15" d="M1089,257q41.51,17.37,83,0"/><path class="cls-14" d="M1270.72,251.07c-5.19-2.15-11.1-2-16.62-2a51.64,51.64,0,0,0-13,1.47c-3.55.93-7.11,3-7.11,7.08v3.2a6.65,6.65,0,0,0,6.65,6.65h2.55l6.7,28.5h10.2l6.7-28.5h2.55a6.65,6.65,0,0,0,6.65-6.65v-3.2C1276,254.4,1273.54,252.23,1270.72,251.07Z"/><path class="cls-15" d="M1172,257q41.51,17.37,83,0"/><polygon class="cls-16" points="1009 296 1006 319 1003 296 1009 296"/><polygon class="cls-16" points="1092 296 1089 319 1086 296 1092 296"/><polygon class="cls-16" points="1175 296 1172 319 1169 296 1175 296"/><polygon class="cls-16" points="1258 296 1255 319 1252 296 1258 296"/></g><g id="Layer_3" data-name="Layer 3"><text class="cls-17" transform="translate(543 218.73)">1</text><text class="cls-17" transform="translate(80.17 756.03)">2</text><text class="cls-17" transform="translate(1055.17 631.03)">3</text><text class="cls-17" transform="translate(1089.17 209.03)">4</text></g></svg>