<svg xmlns="http://www.w3.org/2000/svg" viewBox="0 0 576 576"><defs><style>.cls-1{fill:#fff;}.cls-2{fill:#f4792a;}</style></defs><title>emblem solid-flame-rgb</title><g id="emblem_solid" data-name="emblem solid"><circle class="cls-1" cx="287.92" cy="287.92" r="249.9"/><path class="cls-2" d="M511.87,275.6a13.7,13.7,0,0,0-.33,3.21,8.24,8.24,0,0,0,.57,2.85l10.4-3.45v0Z"/><path class="cls-2" d="M420.09,106.83a14.49,14.49,0,0,0,2.28,2.29,8.05,8.05,0,0,0,2.56,1.35l3.92-10.25,0,0Z"/><path class="cls-2" d="M514.51,253.46c5.38-1,7.36-4.54,6.65-8.59-.13-.69-.33-1.63-.48-2.28l-16,2.82a20.22,20.22,0,0,0,.27,2.23C505.72,252.1,509.06,254.42,514.51,253.46Z"/><path class="cls-2" d="M480.53,173.06l7.38-8.11,0,0-10.53,3a14.3,14.3,0,0,0,1.29,3A7.83,7.83,0,0,0,480.53,173.06Z"/><path class="cls-2" d="M255.57,70.23c3.9-.57,5.78-4,5-9.51-.89-6.09-4.16-8.06-7.49-7.57s-5.79,3.69-5,9.36S251.83,70.78,255.57,70.23Z"/><path class="cls-2" d="M498.33,364.44a8.27,8.27,0,0,0-.55,2.85l11,.76,0,0-8.89-6.41A13.91,13.91,0,0,0,498.33,364.44Z"/><path class="cls-2" d="M103.71,138.85c-.56.68-1,1.34-1.36,1.78l6.31,5.17c.58-.6,1.14-1.21,1.64-1.82,2.79-3.4,3.07-5.81.77-7.68C109,134.57,106.63,135.29,103.71,138.85Z"/><path class="cls-2" d="M384,486.27c-3.06,1.49-4.41,3.47-3.33,5.68s3.25,2.14,6.12.74a12.33,12.33,0,0,0,4.49-3.5C389.75,486.15,387.16,484.71,384,486.27Z"/><path class="cls-2" d="M288,36C148.82,36,36,148.82,36,288S148.82,540,288,540,540,427.18,540,288,427.18,36,288,36ZM529,272.68l.85,0,.44,11-.84,0a.9.9,0,0,0-1-1,6.09,6.09,0,0,0-1.82.57l-20.24,8.24c-1.56.65-1.77,1-1.73,2l-.85,0-.45-11.29.84,0c0,1.08.49,1.6,1.22,1.58a4.31,4.31,0,0,0,.95-.29l.64-.23a15.66,15.66,0,0,1-.8-4.46,16.5,16.5,0,0,1,.44-4.43l-.74-.26a2.5,2.5,0,0,0-1-.21c-.77,0-1.05.58-1,1.45l-.84,0-.44-10.75.84,0c.05,1,.21,1.37,1.81,1.88l21.36,6.86a6.73,6.73,0,0,0,1.47.27A.86.86,0,0,0,529,272.68Zm-5.53-39.85.83-.15c.56,2.06,1.37,5.58,2.13,9.87,1.94,11-2.6,17.16-10.48,18.54-8.29,1.46-14.72-2.21-16.86-14.4-.63-3.55-1.17-7.51-1.29-9.34l.83-.15c.19,1.11.85,1.54,2.44,1.26l20.79-3.66A1.75,1.75,0,0,0,523.45,232.83ZM504.63,179l8.09,17.72a6.18,6.18,0,0,0,.92,1.45l-5.7,4.28-.79-.88a2,2,0,0,0,.73-2.38l-2.67-5.86-16.74,7.61c-1.47.66-1.86,1.39-1.39,2.41l-.77.35-4.47-9.79.77-.35c.46,1,1.28,1.24,2.76.58l16.74-7.61-2.63-5.74a2.16,2.16,0,0,0-2.33-1.13l-.17-1.2,7-1.48A7.18,7.18,0,0,0,504.63,179Zm-37.48-15.72,22-4.52a6.58,6.58,0,0,0,1.42-.48.86.86,0,0,0,.31-1.32l.72-.44,5.78,9.37-.72.45a.89.89,0,0,0-1.38-.33,6.18,6.18,0,0,0-1.31,1.39l-13.6,17.13c-1,1.32-1,1.76-.51,2.61l-.72.45L473.16,178l.72-.44c.57.92,1.21,1.16,1.83.77a3.88,3.88,0,0,0,.69-.71l.45-.52a15.43,15.43,0,0,1-2.88-3.5,15.82,15.82,0,0,1-1.78-4.07l-.78.13a2.43,2.43,0,0,0-.94.29c-.66.41-.64,1-.18,1.77l-.72.45L463.93,163l.72-.45C465.19,163.39,465.5,163.6,467.15,163.27Zm-26-33.46c2.53,2.47,4.2,2.66,5.2,1.64.73-.74.65-1.79-1.83-7.5-2.14-4.83-2.18-8.16.21-10.61,3.45-3.51,8.89-3.25,14.38,2.13,1.43,1.39,2.84,3.69,3.64,4.48a4.08,4.08,0,0,0,1.23.88L459.13,127l-1-.68a3.53,3.53,0,0,0,.25-2.39c-.28-1.14-.87-2.31-2.92-4.31-2.26-2.21-3.84-2.26-4.57-1.52s-.41,2.14,1.66,6.8c1.84,4.17,2.71,8.09-.44,11.3-3.56,3.63-8.37,4-14-1.58-1.86-1.83-3.86-5-4.78-5.92a4.11,4.11,0,0,0-1.29-.89l5.07-7.36,1.34.72a5.81,5.81,0,0,0-.64,2.49C437.82,125.4,438.5,127.19,441.17,129.81ZM318.82,452.28l1.33,5.45H255.38l1.33-5.45c6.36,0,11.82-4.24,11.82-14.85V166.82H169c-10.3,0-16.06,4.24-18.48,10.3l-6.67-1.82,9.7-41.51c2.42.91,7.88,1.52,16.06,1.52H409c4.54,0,10.9-.61,13.33-1.52L432,175.3l-6.66,1.82c-3.34-6.66-7.58-10.3-18.18-10.3H307.31V437.43C307.31,448.34,312.16,452.28,318.82,452.28Zm-138.13-334a202.79,202.79,0,0,1,217.2,0l-1.39,2.19a200.23,200.23,0,0,0-214.42,0Zm248-26.57.51-.68L438,97.64l-.51.68a.89.89,0,0,0-1.4.2,6.35,6.35,0,0,0-.71,1.77l-6.42,20.93c-.49,1.61-.33,2,.47,2.62l-.51.68-9-6.8.51-.67c.86.64,1.54.63,2,0a4.66,4.66,0,0,0,.37-.92l.23-.65a15.38,15.38,0,0,1-3.95-2.2,16.19,16.19,0,0,1-3.15-3.15l-.67.41a2.59,2.59,0,0,0-.77.62c-.46.62-.22,1.19.48,1.71l-.51.68-8.59-6.47.51-.68c.83.63,1.19.71,2.6-.2L427.7,94a6.46,6.46,0,0,0,1.14-1A.86.86,0,0,0,428.65,91.7ZM390.48,67.92l10.38,5.6-.41.75a.93.93,0,0,0-1.42.36,2.53,2.53,0,0,0-.13,1l.5,6.14,0,0L404.72,79a2.06,2.06,0,0,0,.83-.83,1,1,0,0,0-.46-1.43l.41-.74,10.33,5.59-.4.74c-1-.53-1.77-.3-3.54.54l-11.4,5.52,1.69,13c.2,1.64.29,2.6,1.28,3.14l-.41.74-10.41-5.62L393,99c.7.38,1.25.32,1.48-.12a2.49,2.49,0,0,0,.21-1.42l-.58-6.17-.08,0-5.48,2.89a2.34,2.34,0,0,0-1,1c-.28.51.05,1,.67,1.29l-.4.74L377.63,91.6l.4-.74c1,.53,1.46.27,3.33-.65l11.72-5.62-1.71-13c-.25-1.79-.3-2.39-1.29-2.93ZM356.31,80.51l7.52-19.91a1.8,1.8,0,0,0-.85-2.46l.29-.75,17,6.42a18.09,18.09,0,0,0,2.31.58l-1.06,6.93-.91-.06A2.44,2.44,0,0,0,378.67,69l-8.77-3.31L368.25,70l8,3c.86.33,1.43.22,1.73-.58l.9.34-2.77,7.31-.89-.34c.29-.75-.07-1.22-.93-1.54l-8-3-2,5.4,8.9,3.36a2.45,2.45,0,0,0,3.12-.63l.83.64-4.19,6.27a10.21,10.21,0,0,0-2.42-1.36l-16.74-6.32.3-.8C355.1,82.19,355.85,81.73,356.31,80.51Zm-24.52-31.3a7.07,7.07,0,0,0,2,.7l19,4.42a6.25,6.25,0,0,0,1.71.16l-.08,7.12-1.17.09a2.05,2.05,0,0,0-1.45-2l-6.27-1.46-4.16,17.89c-.37,1.57,0,2.32,1.06,2.58l-.19.82-10.47-2.44.19-.83c1.09.26,1.76-.25,2.13-1.82l4.16-17.89-6.14-1.44a2.19,2.19,0,0,0-2.32,1.16l-1.06-.6ZM292.68,45.6a10.41,10.41,0,0,0,2.32-.31l1.6,6.83-.91.28c-.64-1-1.1-1.4-2.22-1.38l-9.8.17.09,5.35,8.47-.15c1,0,1.49-.37,1.47-1.22h1l.13,7.85h-.92c0-.81-.64-1.14-1.55-1.13l-8.47.15.12,7.81c0,1.39.58,2,1.7,2v.85l-10.79.19,0-.85c1,0,1.66-.57,1.63-2l-.34-21.32a1.73,1.73,0,0,0-1.69-1.9l0-.85Zm-40.42,1.88c7.76-1.15,14.69,3.16,16,12.06,1.2,8.18-3,15-11.82,16.32s-14.79-4.12-16-12.23C239.14,54.69,244.54,48.61,252.26,47.48ZM190,66.35l.34.78a1.31,1.31,0,0,0-.83,1.65,2.66,2.66,0,0,0,.61.79l7.6,7,.07,0,.31-10.43a2.5,2.5,0,0,0-.17-1c-.24-.57-.84-.81-1.65-.47l-.33-.78,9.76-4.18.34.77c-.69.3-.93.69-1.13,2.75l-1.64,17.63,2.19,5.09c.63,1.45,1.28,1.72,2.31,1.27l.34.78-9.88,4.24-.33-.78c1-.44,1.3-1.06.66-2.55l-2.17-5.06L182.5,72.83c-1.77-1.38-2.11-1.45-2.87-1.12l-.33-.78ZM153.75,86.08l16.64-10.17a6.19,6.19,0,0,0,1.33-1.08L176.67,80l-.78.88a2,2,0,0,0-2.46-.43l-5.49,3.36,9.6,15.68c.84,1.37,1.61,1.67,2.57,1.09l.44.72-9.19,5.61-.44-.72c1-.58,1.08-1.42.23-2.8l-9.6-15.68L156.16,91a2.17,2.17,0,0,0-.84,2.45l-1.17.31L151.83,87A6.63,6.63,0,0,0,153.75,86.08Zm-8.89,6.37.52.67c-.8.61-1,1.41,0,2.69l12.76,16.59c1,1.25,1.77,1.41,2.66.73l.51.66-8.57,6.59-.52-.67c.86-.66,1-1.47,0-2.75l-12.89-16.74a1.73,1.73,0,0,0-2.49-.51l-.52-.67Zm-22,17.31c1.45-1.36,3.81-2.68,4.63-3.45a4,4,0,0,0,.93-1.19l6,5.13-.72,1a3.57,3.57,0,0,0-2.38-.36c-1.15.24-2.35.78-4.44,2.75-2.3,2.16-2.41,3.74-1.7,4.5s2.11.49,6.86-1.37c4.25-1.67,8.2-2.37,11.28.92,3.47,3.7,3.61,8.53-2.17,14-1.92,1.8-5.19,3.65-6.13,4.54a4.07,4.07,0,0,0-.93,1.24l-7.15-5.37.77-1.31a5.86,5.86,0,0,0,2.46.75c1.71,0,3.53-.62,6.26-3.18,2.57-2.41,2.84-4.08,1.86-5.12-.71-.76-1.76-.73-7.58,1.51-4.92,1.93-8.25,1.84-10.59-.66C116.71,120.45,117.21,115,122.82,109.76ZM65,193.11l.77.34c-.42,1-.49,1.68.39,2.07a4,4,0,0,0,1,.23l15.75,1.42,0-.07-11.8-10.52a3.67,3.67,0,0,0-.87-.61c-.8-.36-1.34.27-1.67,1l-.77-.35,4.6-10.4.77.34c-.45,1-.06,1.57,1.12,2.81l15.23,16A4.81,4.81,0,0,0,91,196.55a.88.88,0,0,0,1.25-.45l.77.34-4.16,9.42-.78-.35a.88.88,0,0,0-.49-1.26,4.48,4.48,0,0,0-1.86-.27l-22.26-.59c-1.69-.06-2.06,0-2.51,1l-.78-.35ZM58.18,211l.81.25c-.29.95,0,1.74,1.53,2.21l20,6.19c1.5.47,2.25.14,2.58-.93l.81.25-3.19,10.3-.81-.25c.32-1-.06-1.75-1.6-2.23l-20.15-6.25a1.73,1.73,0,0,0-2.33,1l-.8-.25ZM49.4,245.72A6.22,6.22,0,0,0,52,245l12.21-5.2,0-.16-10.51-2c-1.43-.27-2,.12-2.23,1.27l-.83-.16L52.56,229l.84.16c-.21,1.11.18,1.69,1.77,2l23.54,4.49-1.22,6.4a5.69,5.69,0,0,0-2.56.49l-16.45,7.09,0,.16,14,2.67c1.55.29,2.24-.08,2.45-1.18l.83.15-1.84,9.72L73,261c.21-1.1-.26-1.74-1.84-2.05L50.46,255a1.74,1.74,0,0,0-2.2,1.27l-.83-.15Zm-3.14,46.2-.84,0,.41-10.79.85,0c0,1.12.36,1.68,2,1.74l15.28.6c2.81.11,4-2,4.12-4.91.1-2.57-1.26-4.41-3.68-4.51L49,273.45c-1.61-.07-2,.42-2.1,1.54l-.84,0,.4-10.33.84,0c0,1.12.48,1.64,2.09,1.7l15.67.62c1.61.06,3.27,0,3.78-.35,3.33,3.5,5.1,6.56,4.87,12.29s-2.17,9.48-5.83,12.7c-.49-.39-1.83-.57-3.75-.65l-15.78-.62C46.75,290.28,46.3,290.88,46.26,291.92Zm7.55,56.18-.79.16-3.7-17.83a18.65,18.65,0,0,0-.75-2.26L55,325.35l.44.8a2.46,2.46,0,0,0-.86,2.85l1.91,9.2,4.56-.94-1.74-8.39c-.18-.9-.59-1.32-1.42-1.15l-.19-.94,7.65-1.58.2.93c-.8.17-1,.72-.81,1.61l1.74,8.39L72.11,335l-1.93-9.32A2.46,2.46,0,0,0,68,323.33l.1-1,7.54.18a10.82,10.82,0,0,0,.15,2.77l3.64,17.55-.83.17c-.23-1.1-1-1.49-2.3-1.22l-20.84,4.32A1.8,1.8,0,0,0,53.81,348.1Zm11.61,34.55-.8.28L61,372.77l.8-.29c.38,1.06,1.1,1.37,2.62.82L71,370.94l-3.32-9.23-7,2.51a1.55,1.55,0,0,0-1.1,2.16l-.8.28-3.64-10.13.8-.28c.38,1.05,1.09,1.33,2.61.78l19.57-7c1.49-.53,2-1.14,1.55-2.28l.8-.28,3.64,10.13-.8.28c-.38-1.05-1.14-1.35-2.66-.81l-7.56,2.72L76.4,369,84,366.28c1.49-.53,1.92-1.26,1.54-2.32l.8-.28L90,373.85l-.8.28c-.36-1-1.14-1.35-2.66-.81l-20,7.17A1.61,1.61,0,0,0,65.42,382.65ZM99.57,394.2c-.53-1-1.36-1.16-2.79-.4l-16.23,8.62,3,5.57a2.16,2.16,0,0,0,2.4,1l.24,1.19-6.87,1.91a6.47,6.47,0,0,0-.79-2l-9.17-17.18a6.6,6.6,0,0,0-1-1.4l5.42-4.61.84.82a2,2,0,0,0-.58,2.43l3,5.67,16.23-8.62c1.42-.76,1.77-1.51,1.24-2.5l.75-.39,5.06,9.48Zm8.9-225.35L99,184.06l-.72-.44c.59-1,.29-1.78-.83-2.47L79.41,169.94a1.81,1.81,0,0,0-2.58.36l-.69-.42,9.58-15.46a18.14,18.14,0,0,0,1-2.15l6.59,2.37-.23.88A2.44,2.44,0,0,0,90.51,157l-4.94,8,4,2.45L94,160.15c.48-.77.48-1.36-.24-1.8l.5-.82,6.65,4.12-.51.81c-.69-.43-1.21-.16-1.69.61l-4.51,7.27,4.91,3,5-8.08a2.44,2.44,0,0,0,0-3.18l.79-.69,5.35,5.32A10.45,10.45,0,0,0,108.47,168.85Zm4.2-8c.66-.8.67-1.6-.59-2.63l-16.4-13.42a1.68,1.68,0,0,0-2.55.07l-.65-.53c1.15-1.53,3.63-5,6.31-8.25,5.42-6.61,10.78-10.9,16.92-5.89a8.8,8.8,0,0,1,2.46,9.68,29.06,29.06,0,0,0,8.74,2,2.2,2.2,0,0,0,2.12-1l.66.54-6.13,7.47a34.27,34.27,0,0,1-8.21-2.91c-.26.38-.73,1-1.23,1.63s-1,1.09-1.35,1.52l4,3.31c1.25,1,2,.92,2.69.06l.65.53-6.84,8.35Zm5.55,213.44V209c0-12.22,6.64-18.48,6.64-18.48h44.61v6.16c-6.32,0-11,4.21-11,12.32V370.42c0,13.94,9.65,19.13,20,19.13,11,0,20.3-6.16,20.3-19.13V209c0-13.06,4.58-18.35,4.58-18.35,21,0,47.27-.15,47.27-.15v6.48c-6.65,0-11,4.22-11,10.7V400.87c0,5.84,4.33,10.38,11,10.38v6.16c-8.65,1-44.53,5.21-72.15,5.21-31.29,0-51.58-16.21-62.57-29.51C117.89,387.6,118.22,383.06,118.22,374.31Zm17,82.59-4.17,9.27-2.31-10.37L118.29,454l9-4.65L125,439l7.9,7.5,9.05-4.65-4.16,9.29,7.9,7.49Zm74,39a2.44,2.44,0,0,0-1.84-2.35l-8.62-3.74-1.85,4.27,7.86,3.41c.84.36,1.42.28,1.75-.5l.88.38-3.1,7.17-.88-.39c.32-.74,0-1.22-.86-1.58l-7.85-3.41-2.29,5.3,8.73,3.78a2.44,2.44,0,0,0,3.15-.48l.79.68-4.48,6.06a10.59,10.59,0,0,0-2.35-1.47l-16.43-7.13.33-.78c1,.45,1.8,0,2.32-1.17l8.46-19.51a1.81,1.81,0,0,0-.73-2.5l.32-.74,16.7,7.24a18.18,18.18,0,0,0,2.28.7L210.11,496Zm25.44,8.61-1.22-.11a3.65,3.65,0,0,0-.91-2.23c-.79-.87-1.87-1.63-4.62-2.43-3-.88-4.45-.18-4.74.82s.65,2.07,4.67,5.21c3.6,2.81,6.22,5.85,5,10.17-1.42,4.87-5.51,7.44-13.13,5.22-2.51-.74-5.78-2.61-7-3a4.35,4.35,0,0,0-1.56-.18l1-8.87h1.52a5.75,5.75,0,0,0,.61,2.5c.87,1.45,2.32,2.72,5.91,3.77,3.4,1,5,.36,5.36-1,.29-1-.27-1.88-5.16-5.75-4.16-3.26-5.78-6.17-4.82-9.46,1.37-4.72,6.29-7,13.68-4.89,1.91.56,4.25,1.92,5.32,2.23a4,4,0,0,0,1.51.2Zm30,4.84a2,2,0,0,0-1.59-1.92l-6.37-1-2.89,18.15c-.25,1.59.14,2.31,1.25,2.49l-.13.83-10.64-1.68.13-.83c1.11.17,1.75-.39,2-2l2.89-18.15-6.24-1a2.16,2.16,0,0,0-2.23,1.32l-1.1-.52,2.61-6.63a7,7,0,0,0,2.06.56l19.26,3a6.36,6.36,0,0,0,1.72,0l.43,7.11Zm4.49,20.48c-1.82-.14-3.36-1.3-3.21-3.21a3.21,3.21,0,0,1,3.67-2.76,3.14,3.14,0,0,1,3.12,3.28C272.62,529,271,530,269.19,529.81Zm28.71.09,0-.84c1-.06,1.64-.56,1.54-2.4l-.9-16.21a22,22,0,0,1-5.64,1.32l-.22-4.07c1.69-.25,6.7-1.57,7.68-4.89l5.23-.3a6.91,6.91,0,0,0-.21,2.25l1.2,21.5c.09,1.77.79,2.27,1.83,2.21l0,.85Zm31.82-3c-2.73.48-6.35.77-7.17.91a6.75,6.75,0,0,0-1.56.47l-3.14-7,.86-.38c1.43,1.38,3.56,2,7.93,1.22,4.87-.86,7-3.81,6.48-7.31a16.8,16.8,0,0,1-6.55,2.56c-6.91,1.21-11.41-1.59-12.27-6.43-.93-5.31,2.28-10.05,10.38-11.48,8.5-1.49,13.94,2.59,15.44,11.07C341.77,519.87,337,525.6,329.72,526.87Zm33.66-8.11c-8.5,2.75-14.26-.6-16.94-8.92-2.88-8.89,1.54-15.66,9.09-18.11,3.36-1.08,5.4-1.26,6.19-1.52a6.3,6.3,0,0,0,1.5-.64l4,6.36-.77.57c-1.6-1.18-2.93-1.64-8,0-4.52,1.46-6.26,4.45-5.37,8a15.48,15.48,0,0,1,5.94-3.38c6.65-2.15,11.63-.65,13.38,4.77C374,510.77,370.9,516.33,363.38,518.76Zm30.15-12.4c-2.5,1.22-5.9,2.49-6.65,2.85a6,6,0,0,0-1.37.88l-4.94-5.89.72-.61c1.75.94,4,.94,7.95-1,4.45-2.16,5.69-5.58,4.22-8.8a16.53,16.53,0,0,1-5.59,4.25c-6.31,3.07-11.4,1.61-13.55-2.82-2.36-4.84-.57-10.28,6.82-13.87,7.77-3.77,14.12-1.34,17.88,6.41C403.19,496.33,400.13,503.16,393.53,506.36ZM288,490.65A201.24,201.24,0,0,1,170.3,453l1.5-2.11a200.14,200.14,0,0,0,230.45,1.34l1.48,2.13A201.43,201.43,0,0,1,288,490.65Zm161.86-37.37-2.15,10.42-4.31-9.21-10.44,1.91,7.78-7.62-4.31-9.21,9.12,4.5,7.78-7.62-2.14,10.4,9.12,4.5Zm-53.67-34.23c-27.63,0-62.09-1-70.74-1.94V411c6.66,0,11-4.54,11-10.38V207.33c0-6.49-4.32-10.7-11-10.7v-6.49c10.65-1,46.11-2.27,70.07-2.27,51.25,0,78.87,27.24,78.87,109.27C474.37,381.12,451.41,419.05,396.17,419.05ZM503,401.45c-.93,1.77-2.72,3.78-3.24,4.78a4,4,0,0,0-.48,1.43l-7.37-2.85.35-1.18a3.63,3.63,0,0,0,2.37-.45c1-.6,2-1.51,3.28-4.05,1.46-2.8,1-4.33.12-4.8s-2.16.23-6,3.55c-3.46,3-7,4.94-11,2.86-4.5-2.35-6.23-6.85-2.56-13.88,1.2-2.32,3.68-5.15,4.28-6.29a4.38,4.38,0,0,0,.47-1.48l8.52,2.7-.29,1.49a6,6,0,0,0-2.58.11c-1.6.57-3.12,1.74-4.85,5.05-1.63,3.13-1.32,4.79-.06,5.45.92.48,1.9.1,6.65-3.93,4-3.44,7.18-4.45,10.22-2.87C505.19,389.37,506.52,394.64,503,401.45ZM513.86,376l-.79-.29a.89.89,0,0,0-.6-1.28,6.24,6.24,0,0,0-1.91-.16l-21.9,0c-1.68,0-2,.28-2.37,1.21l-.79-.29,3.86-10.61.8.29c-.37,1-.16,1.67.53,1.92a4,4,0,0,0,1,.09l.69,0a15.31,15.31,0,0,1,.95-4.42,16.08,16.08,0,0,1,2.09-3.93l-.59-.52a2.35,2.35,0,0,0-.82-.57c-.72-.26-1.19.14-1.49,1l-.8-.29,3.68-10.1.8.28c-.35,1-.32,1.35,1,2.43l17.19,14.43a6.85,6.85,0,0,0,1.26.81.87.87,0,0,0,1.24-.57l.79.29ZM524.7,340l-.83-.18c.21-1-.17-1.74-1.68-2.07l-18.05-3.93-2.1,9.59a2.35,2.35,0,0,0,1.15,2.72l-.52.91-6.81-3.27a7.88,7.88,0,0,0,.92-2.23l3.9-17.83.83.18c-.23,1.06.21,1.75,1.72,2.08L524,330.44a1.7,1.7,0,0,0,2.2-1.23l.82.19Zm4.54-29.46-.84-.08c.09-1-.38-1.7-1.92-1.84l-18.39-1.71-.9,9.75a2.34,2.34,0,0,0,1.47,2.56l-.4,1-7.16-2.41a8.13,8.13,0,0,0,.64-2.32l1.68-18.15.84.08c-.1,1.08.42,1.71,1.95,1.85l21.15,2a1.69,1.69,0,0,0,2-1.48l.85.07Z"/><path class="cls-2" d="M403.16,221.27c-4.66,0-24.15,0-26.14.33V385.66c2,.32,21.81.32,24.14.32,21.3,0,31.28-25,31.28-88.84C432.44,237.16,419.8,221.27,403.16,221.27Z"/><path class="cls-2" d="M326,504.92c-3.35.59-5.19,2.12-4.77,4.54s2.55,2.95,5.69,2.4a12.31,12.31,0,0,0,5.28-2.14C331.64,506.39,329.55,504.3,326,504.92Z"/><path class="cls-2" d="M359.38,506.63a11.18,11.18,0,0,0-4.72,2.7c1,3.22,3.21,5.23,6.62,4.13,3.24-1.05,4.69-3.06,4.05-5C364.62,506.22,362.42,505.64,359.38,506.63Z"/></g></svg>