<?xml version="1.0" encoding="utf-8" standalone="no"?>
<!DOCTYPE svg PUBLIC "-//W3C//DTD SVG 1.1//EN"
  "http://www.w3.org/Graphics/SVG/1.1/DTD/svg11.dtd">
<!-- Created with matplotlib (https://matplotlib.org/) -->
<svg height="239.76pt" version="1.1" viewBox="0 0 239.76 239.76" width="239.76pt" xmlns="http://www.w3.org/2000/svg" xmlns:xlink="http://www.w3.org/1999/xlink">
 <defs>
  <style type="text/css">
*{stroke-linecap:butt;stroke-linejoin:round;}
  </style>
 </defs>
 <g id="figure_1">
  <g id="patch_1">
   <path d="M 0 239.76 
L 239.76 239.76 
L 239.76 0 
L 0 0 
z
" style="fill:none;"/>
  </g>
  <g id="axes_1">
   <g id="patch_2">
    <path d="M 38.27 95.84 
L 126.465 95.84 
L 126.465 13.878404 
L 38.27 13.878404 
z
" style="fill:none;"/>
   </g>
   <g id="patch_3">
    <path clip-path="url(#pba3564c2a0)" d="M 43.355081 95.84 
L 43.648824 95.84 
L 43.648824 85.063244 
L 43.355081 85.063244 
z
" style="fill:#ff0000;opacity:0.4;"/>
   </g>
   <g id="patch_4">
    <path clip-path="url(#pba3564c2a0)" d="M 43.648824 95.84 
L 43.942566 95.84 
L 43.942566 77.417573 
L 43.648824 77.417573 
z
" style="fill:#ff0000;opacity:0.4;"/>
   </g>
   <g id="patch_5">
    <path clip-path="url(#pba3564c2a0)" d="M 43.942566 95.84 
L 44.236308 95.84 
L 44.236308 70.135981 
L 43.942566 70.135981 
z
" style="fill:#ff0000;opacity:0.4;"/>
   </g>
   <g id="patch_6">
    <path clip-path="url(#pba3564c2a0)" d="M 44.236308 95.84 
L 44.53005 95.84 
L 44.53005 80.548657 
L 44.236308 80.548657 
z
" style="fill:#ff0000;opacity:0.4;"/>
   </g>
   <g id="patch_7">
    <path clip-path="url(#pba3564c2a0)" d="M 44.53005 95.84 
L 44.823793 95.84 
L 44.823793 68.606847 
L 44.53005 68.606847 
z
" style="fill:#ff0000;opacity:0.4;"/>
   </g>
   <g id="patch_8">
    <path clip-path="url(#pba3564c2a0)" d="M 44.823793 95.84 
L 45.117535 95.84 
L 45.117535 71.519484 
L 44.823793 71.519484 
z
" style="fill:#ff0000;opacity:0.4;"/>
   </g>
   <g id="patch_9">
    <path clip-path="url(#pba3564c2a0)" d="M 45.117535 95.84 
L 45.411277 95.84 
L 45.411277 74.213673 
L 45.117535 74.213673 
z
" style="fill:#ff0000;opacity:0.4;"/>
   </g>
   <g id="patch_10">
    <path clip-path="url(#pba3564c2a0)" d="M 45.411277 95.84 
L 45.705019 95.84 
L 45.705019 49.529077 
L 45.411277 49.529077 
z
" style="fill:#ff0000;opacity:0.4;"/>
   </g>
   <g id="patch_11">
    <path clip-path="url(#pba3564c2a0)" d="M 45.705019 95.84 
L 45.998762 95.84 
L 45.998762 35.184341 
L 45.705019 35.184341 
z
" style="fill:#ff0000;opacity:0.4;"/>
   </g>
   <g id="patch_12">
    <path clip-path="url(#pba3564c2a0)" d="M 45.998762 95.84 
L 46.292504 95.84 
L 46.292504 19.237656 
L 45.998762 19.237656 
z
" style="fill:#ff0000;opacity:0.4;"/>
   </g>
   <g id="patch_13">
    <path clip-path="url(#pba3564c2a0)" d="M 46.292504 95.84 
L 46.586246 95.84 
L 46.586246 17.781337 
L 46.292504 17.781337 
z
" style="fill:#ff0000;opacity:0.4;"/>
   </g>
   <g id="patch_14">
    <path clip-path="url(#pba3564c2a0)" d="M 46.586246 95.84 
L 46.879988 95.84 
L 46.879988 22.00466 
L 46.586246 22.00466 
z
" style="fill:#ff0000;opacity:0.4;"/>
   </g>
   <g id="patch_15">
    <path clip-path="url(#pba3564c2a0)" d="M 46.879988 95.84 
L 47.173731 95.84 
L 47.173731 40.354271 
L 46.879988 40.354271 
z
" style="fill:#ff0000;opacity:0.4;"/>
   </g>
   <g id="patch_16">
    <path clip-path="url(#pba3564c2a0)" d="M 47.173731 95.84 
L 47.467473 95.84 
L 47.467473 49.310629 
L 47.173731 49.310629 
z
" style="fill:#ff0000;opacity:0.4;"/>
   </g>
   <g id="patch_17">
    <path clip-path="url(#pba3564c2a0)" d="M 47.467473 95.84 
L 47.761215 95.84 
L 47.761215 38.315426 
L 47.467473 38.315426 
z
" style="fill:#ff0000;opacity:0.4;"/>
   </g>
   <g id="patch_18">
    <path clip-path="url(#pba3564c2a0)" d="M 47.761215 95.84 
L 48.054957 95.84 
L 48.054957 36.64066 
L 47.761215 36.64066 
z
" style="fill:#ff0000;opacity:0.4;"/>
   </g>
   <g id="patch_19">
    <path clip-path="url(#pba3564c2a0)" d="M 48.054957 95.84 
L 48.3487 95.84 
L 48.3487 31.761993 
L 48.054957 31.761993 
z
" style="fill:#ff0000;opacity:0.4;"/>
   </g>
   <g id="patch_20">
    <path clip-path="url(#pba3564c2a0)" d="M 48.3487 95.84 
L 48.642442 95.84 
L 48.642442 32.344521 
L 48.3487 32.344521 
z
" style="fill:#ff0000;opacity:0.4;"/>
   </g>
   <g id="patch_21">
    <path clip-path="url(#pba3564c2a0)" d="M 48.642442 95.84 
L 48.936184 95.84 
L 48.936184 40.863983 
L 48.642442 40.863983 
z
" style="fill:#ff0000;opacity:0.4;"/>
   </g>
   <g id="patch_22">
    <path clip-path="url(#pba3564c2a0)" d="M 48.936184 95.84 
L 49.229926 95.84 
L 49.229926 28.266829 
L 48.936184 28.266829 
z
" style="fill:#ff0000;opacity:0.4;"/>
   </g>
   <g id="patch_23">
    <path clip-path="url(#pba3564c2a0)" d="M 49.229926 95.84 
L 49.523669 95.84 
L 49.523669 41.956222 
L 49.229926 41.956222 
z
" style="fill:#ff0000;opacity:0.4;"/>
   </g>
   <g id="patch_24">
    <path clip-path="url(#pba3564c2a0)" d="M 49.523669 95.84 
L 49.817411 95.84 
L 49.817411 53.533952 
L 49.523669 53.533952 
z
" style="fill:#ff0000;opacity:0.4;"/>
   </g>
   <g id="patch_25">
    <path clip-path="url(#pba3564c2a0)" d="M 49.817411 95.84 
L 50.111153 95.84 
L 50.111153 52.15045 
L 49.817411 52.15045 
z
" style="fill:#ff0000;opacity:0.4;"/>
   </g>
   <g id="patch_26">
    <path clip-path="url(#pba3564c2a0)" d="M 50.111153 95.84 
L 50.404895 95.84 
L 50.404895 58.92233 
L 50.111153 58.92233 
z
" style="fill:#ff0000;opacity:0.4;"/>
   </g>
   <g id="patch_27">
    <path clip-path="url(#pba3564c2a0)" d="M 50.404895 95.84 
L 50.698638 95.84 
L 50.698638 68.097136 
L 50.404895 68.097136 
z
" style="fill:#ff0000;opacity:0.4;"/>
   </g>
   <g id="patch_28">
    <path clip-path="url(#pba3564c2a0)" d="M 50.698638 95.84 
L 50.99238 95.84 
L 50.99238 55.208718 
L 50.698638 55.208718 
z
" style="fill:#ff0000;opacity:0.4;"/>
   </g>
   <g id="patch_29">
    <path clip-path="url(#pba3564c2a0)" d="M 50.99238 95.84 
L 51.286122 95.84 
L 51.286122 39.262033 
L 50.99238 39.262033 
z
" style="fill:#ff0000;opacity:0.4;"/>
   </g>
   <g id="patch_30">
    <path clip-path="url(#pba3564c2a0)" d="M 51.286122 95.84 
L 51.579864 95.84 
L 51.579864 44.286331 
L 51.286122 44.286331 
z
" style="fill:#ff0000;opacity:0.4;"/>
   </g>
   <g id="patch_31">
    <path clip-path="url(#pba3564c2a0)" d="M 51.579864 95.84 
L 51.873607 95.84 
L 51.873607 52.51453 
L 51.579864 52.51453 
z
" style="fill:#ff0000;opacity:0.4;"/>
   </g>
   <g id="patch_32">
    <path clip-path="url(#pba3564c2a0)" d="M 51.873607 95.84 
L 52.167349 95.84 
L 52.167349 56.228141 
L 51.873607 56.228141 
z
" style="fill:#ff0000;opacity:0.4;"/>
   </g>
   <g id="patch_33">
    <path clip-path="url(#pba3564c2a0)" d="M 52.167349 95.84 
L 52.461091 95.84 
L 52.461091 77.927284 
L 52.167349 77.927284 
z
" style="fill:#ff0000;opacity:0.4;"/>
   </g>
   <g id="patch_34">
    <path clip-path="url(#pba3564c2a0)" d="M 52.461091 95.84 
L 52.754833 95.84 
L 52.754833 83.242846 
L 52.461091 83.242846 
z
" style="fill:#ff0000;opacity:0.4;"/>
   </g>
   <g id="patch_35">
    <path clip-path="url(#pba3564c2a0)" d="M 52.754833 95.84 
L 53.048576 95.84 
L 53.048576 83.097215 
L 52.754833 83.097215 
z
" style="fill:#ff0000;opacity:0.4;"/>
   </g>
   <g id="patch_36">
    <path clip-path="url(#pba3564c2a0)" d="M 53.048576 95.84 
L 53.342318 95.84 
L 53.342318 82.514687 
L 53.048576 82.514687 
z
" style="fill:#ff0000;opacity:0.4;"/>
   </g>
   <g id="patch_37">
    <path clip-path="url(#pba3564c2a0)" d="M 53.342318 95.84 
L 53.63606 95.84 
L 53.63606 77.563205 
L 53.342318 77.563205 
z
" style="fill:#ff0000;opacity:0.4;"/>
   </g>
   <g id="patch_38">
    <path clip-path="url(#pba3564c2a0)" d="M 53.63606 95.84 
L 53.929802 95.84 
L 53.929802 74.286489 
L 53.63606 74.286489 
z
" style="fill:#ff0000;opacity:0.4;"/>
   </g>
   <g id="patch_39">
    <path clip-path="url(#pba3564c2a0)" d="M 53.929802 95.84 
L 54.223545 95.84 
L 54.223545 77.563205 
L 53.929802 77.563205 
z
" style="fill:#ff0000;opacity:0.4;"/>
   </g>
   <g id="patch_40">
    <path clip-path="url(#pba3564c2a0)" d="M 54.223545 95.84 
L 54.517287 95.84 
L 54.517287 83.097215 
L 54.223545 83.097215 
z
" style="fill:#ff0000;opacity:0.4;"/>
   </g>
   <g id="patch_41">
    <path clip-path="url(#pba3564c2a0)" d="M 54.517287 95.84 
L 54.811029 95.84 
L 54.811029 83.315662 
L 54.517287 83.315662 
z
" style="fill:#ff0000;opacity:0.4;"/>
   </g>
   <g id="patch_42">
    <path clip-path="url(#pba3564c2a0)" d="M 54.811029 95.84 
L 55.104771 95.84 
L 55.104771 93.728338 
L 54.811029 93.728338 
z
" style="fill:#ff0000;opacity:0.4;"/>
   </g>
   <g id="matplotlib.axis_1">
    <g id="xtick_1">
     <g id="line2d_1">
      <defs>
       <path d="M 0 0 
L 0 3.5 
" id="m2942d698e0" style="stroke:#000000;stroke-width:0.8;"/>
      </defs>
      <g>
       <use style="stroke:#000000;stroke-width:0.8;" x="44.901956" xlink:href="#m2942d698e0" y="95.84"/>
      </g>
     </g>
    </g>
    <g id="xtick_2">
     <g id="line2d_2">
      <g>
       <use style="stroke:#000000;stroke-width:0.8;" x="72.537509" xlink:href="#m2942d698e0" y="95.84"/>
      </g>
     </g>
    </g>
    <g id="xtick_3">
     <g id="line2d_3">
      <g>
       <use style="stroke:#000000;stroke-width:0.8;" x="100.173061" xlink:href="#m2942d698e0" y="95.84"/>
      </g>
     </g>
    </g>
   </g>
   <g id="matplotlib.axis_2">
    <g id="ytick_1">
     <g id="line2d_4">
      <defs>
       <path d="M 0 0 
L -3.5 0 
" id="md36c59c1ae" style="stroke:#000000;stroke-width:0.8;"/>
      </defs>
      <g>
       <use style="stroke:#000000;stroke-width:0.8;" x="38.27" xlink:href="#md36c59c1ae" y="95.84"/>
      </g>
     </g>
     <g id="text_1">
      <!-- 0 -->
      <defs>
       <path d="M 31.78125 66.40625 
Q 24.171875 66.40625 20.328125 58.90625 
Q 16.5 51.421875 16.5 36.375 
Q 16.5 21.390625 20.328125 13.890625 
Q 24.171875 6.390625 31.78125 6.390625 
Q 39.453125 6.390625 43.28125 13.890625 
Q 47.125 21.390625 47.125 36.375 
Q 47.125 51.421875 43.28125 58.90625 
Q 39.453125 66.40625 31.78125 66.40625 
z
M 31.78125 74.21875 
Q 44.046875 74.21875 50.515625 64.515625 
Q 56.984375 54.828125 56.984375 36.375 
Q 56.984375 17.96875 50.515625 8.265625 
Q 44.046875 -1.421875 31.78125 -1.421875 
Q 19.53125 -1.421875 13.0625 8.265625 
Q 6.59375 17.96875 6.59375 36.375 
Q 6.59375 54.828125 13.0625 64.515625 
Q 19.53125 74.21875 31.78125 74.21875 
z
" id="DejaVuSans-48"/>
      </defs>
      <g transform="translate(24.9075 99.639219)scale(0.1 -0.1)">
       <use xlink:href="#DejaVuSans-48"/>
      </g>
     </g>
    </g>
    <g id="ytick_2">
     <g id="line2d_5">
      <g>
       <use style="stroke:#000000;stroke-width:0.8;" x="38.27" xlink:href="#md36c59c1ae" y="55.289734"/>
      </g>
     </g>
     <g id="text_2">
      <!-- 1 -->
      <defs>
       <path d="M 12.40625 8.296875 
L 28.515625 8.296875 
L 28.515625 63.921875 
L 10.984375 60.40625 
L 10.984375 69.390625 
L 28.421875 72.90625 
L 38.28125 72.90625 
L 38.28125 8.296875 
L 54.390625 8.296875 
L 54.390625 0 
L 12.40625 0 
z
" id="DejaVuSans-49"/>
      </defs>
      <g transform="translate(24.9075 59.088953)scale(0.1 -0.1)">
       <use xlink:href="#DejaVuSans-49"/>
      </g>
     </g>
    </g>
    <g id="ytick_3">
     <g id="line2d_6">
      <g>
       <use style="stroke:#000000;stroke-width:0.8;" x="38.27" xlink:href="#md36c59c1ae" y="14.739468"/>
      </g>
     </g>
     <g id="text_3">
      <!-- 2 -->
      <defs>
       <path d="M 19.1875 8.296875 
L 53.609375 8.296875 
L 53.609375 0 
L 7.328125 0 
L 7.328125 8.296875 
Q 12.9375 14.109375 22.625 23.890625 
Q 32.328125 33.6875 34.8125 36.53125 
Q 39.546875 41.84375 41.421875 45.53125 
Q 43.3125 49.21875 43.3125 52.78125 
Q 43.3125 58.59375 39.234375 62.25 
Q 35.15625 65.921875 28.609375 65.921875 
Q 23.96875 65.921875 18.8125 64.3125 
Q 13.671875 62.703125 7.8125 59.421875 
L 7.8125 69.390625 
Q 13.765625 71.78125 18.9375 73 
Q 24.125 74.21875 28.421875 74.21875 
Q 39.75 74.21875 46.484375 68.546875 
Q 53.21875 62.890625 53.21875 53.421875 
Q 53.21875 48.921875 51.53125 44.890625 
Q 49.859375 40.875 45.40625 35.40625 
Q 44.1875 33.984375 37.640625 27.21875 
Q 31.109375 20.453125 19.1875 8.296875 
z
" id="DejaVuSans-50"/>
      </defs>
      <g transform="translate(24.9075 18.538686)scale(0.1 -0.1)">
       <use xlink:href="#DejaVuSans-50"/>
      </g>
     </g>
    </g>
    <g id="text_4">
     <!-- Density -->
     <defs>
      <path d="M 19.671875 64.796875 
L 19.671875 8.109375 
L 31.59375 8.109375 
Q 46.6875 8.109375 53.6875 14.9375 
Q 60.6875 21.78125 60.6875 36.53125 
Q 60.6875 51.171875 53.6875 57.984375 
Q 46.6875 64.796875 31.59375 64.796875 
z
M 9.8125 72.90625 
L 30.078125 72.90625 
Q 51.265625 72.90625 61.171875 64.09375 
Q 71.09375 55.28125 71.09375 36.53125 
Q 71.09375 17.671875 61.125 8.828125 
Q 51.171875 0 30.078125 0 
L 9.8125 0 
z
" id="DejaVuSans-68"/>
      <path d="M 56.203125 29.59375 
L 56.203125 25.203125 
L 14.890625 25.203125 
Q 15.484375 15.921875 20.484375 11.0625 
Q 25.484375 6.203125 34.421875 6.203125 
Q 39.59375 6.203125 44.453125 7.46875 
Q 49.3125 8.734375 54.109375 11.28125 
L 54.109375 2.78125 
Q 49.265625 0.734375 44.1875 -0.34375 
Q 39.109375 -1.421875 33.890625 -1.421875 
Q 20.796875 -1.421875 13.15625 6.1875 
Q 5.515625 13.8125 5.515625 26.8125 
Q 5.515625 40.234375 12.765625 48.109375 
Q 20.015625 56 32.328125 56 
Q 43.359375 56 49.78125 48.890625 
Q 56.203125 41.796875 56.203125 29.59375 
z
M 47.21875 32.234375 
Q 47.125 39.59375 43.09375 43.984375 
Q 39.0625 48.390625 32.421875 48.390625 
Q 24.90625 48.390625 20.390625 44.140625 
Q 15.875 39.890625 15.1875 32.171875 
z
" id="DejaVuSans-101"/>
      <path d="M 54.890625 33.015625 
L 54.890625 0 
L 45.90625 0 
L 45.90625 32.71875 
Q 45.90625 40.484375 42.875 44.328125 
Q 39.84375 48.1875 33.796875 48.1875 
Q 26.515625 48.1875 22.3125 43.546875 
Q 18.109375 38.921875 18.109375 30.90625 
L 18.109375 0 
L 9.078125 0 
L 9.078125 54.6875 
L 18.109375 54.6875 
L 18.109375 46.1875 
Q 21.34375 51.125 25.703125 53.5625 
Q 30.078125 56 35.796875 56 
Q 45.21875 56 50.046875 50.171875 
Q 54.890625 44.34375 54.890625 33.015625 
z
" id="DejaVuSans-110"/>
      <path d="M 44.28125 53.078125 
L 44.28125 44.578125 
Q 40.484375 46.53125 36.375 47.5 
Q 32.28125 48.484375 27.875 48.484375 
Q 21.1875 48.484375 17.84375 46.4375 
Q 14.5 44.390625 14.5 40.28125 
Q 14.5 37.15625 16.890625 35.375 
Q 19.28125 33.59375 26.515625 31.984375 
L 29.59375 31.296875 
Q 39.15625 29.25 43.1875 25.515625 
Q 47.21875 21.78125 47.21875 15.09375 
Q 47.21875 7.46875 41.1875 3.015625 
Q 35.15625 -1.421875 24.609375 -1.421875 
Q 20.21875 -1.421875 15.453125 -0.5625 
Q 10.6875 0.296875 5.421875 2 
L 5.421875 11.28125 
Q 10.40625 8.6875 15.234375 7.390625 
Q 20.0625 6.109375 24.8125 6.109375 
Q 31.15625 6.109375 34.5625 8.28125 
Q 37.984375 10.453125 37.984375 14.40625 
Q 37.984375 18.0625 35.515625 20.015625 
Q 33.0625 21.96875 24.703125 23.78125 
L 21.578125 24.515625 
Q 13.234375 26.265625 9.515625 29.90625 
Q 5.8125 33.546875 5.8125 39.890625 
Q 5.8125 47.609375 11.28125 51.796875 
Q 16.75 56 26.8125 56 
Q 31.78125 56 36.171875 55.265625 
Q 40.578125 54.546875 44.28125 53.078125 
z
" id="DejaVuSans-115"/>
      <path d="M 9.421875 54.6875 
L 18.40625 54.6875 
L 18.40625 0 
L 9.421875 0 
z
M 9.421875 75.984375 
L 18.40625 75.984375 
L 18.40625 64.59375 
L 9.421875 64.59375 
z
" id="DejaVuSans-105"/>
      <path d="M 18.3125 70.21875 
L 18.3125 54.6875 
L 36.8125 54.6875 
L 36.8125 47.703125 
L 18.3125 47.703125 
L 18.3125 18.015625 
Q 18.3125 11.328125 20.140625 9.421875 
Q 21.96875 7.515625 27.59375 7.515625 
L 36.8125 7.515625 
L 36.8125 0 
L 27.59375 0 
Q 17.1875 0 13.234375 3.875 
Q 9.28125 7.765625 9.28125 18.015625 
L 9.28125 47.703125 
L 2.6875 47.703125 
L 2.6875 54.6875 
L 9.28125 54.6875 
L 9.28125 70.21875 
z
" id="DejaVuSans-116"/>
      <path d="M 32.171875 -5.078125 
Q 28.375 -14.84375 24.75 -17.8125 
Q 21.140625 -20.796875 15.09375 -20.796875 
L 7.90625 -20.796875 
L 7.90625 -13.28125 
L 13.1875 -13.28125 
Q 16.890625 -13.28125 18.9375 -11.515625 
Q 21 -9.765625 23.484375 -3.21875 
L 25.09375 0.875 
L 2.984375 54.6875 
L 12.5 54.6875 
L 29.59375 11.921875 
L 46.6875 54.6875 
L 56.203125 54.6875 
z
" id="DejaVuSans-121"/>
     </defs>
     <g transform="translate(18.827813 73.867796)rotate(-90)scale(0.1 -0.1)">
      <use xlink:href="#DejaVuSans-68"/>
      <use x="77.001953" xlink:href="#DejaVuSans-101"/>
      <use x="138.525391" xlink:href="#DejaVuSans-110"/>
      <use x="201.904297" xlink:href="#DejaVuSans-115"/>
      <use x="254.003906" xlink:href="#DejaVuSans-105"/>
      <use x="281.787109" xlink:href="#DejaVuSans-116"/>
      <use x="320.996094" xlink:href="#DejaVuSans-121"/>
     </g>
    </g>
   </g>
   <g id="line2d_7">
    <path clip-path="url(#pba3564c2a0)" d="M 42.278864 95.825795 
L 42.419289 95.791564 
L 42.559715 95.696071 
L 42.70014 95.465575 
L 42.840566 94.982023 
L 42.980991 94.094776 
L 43.121417 92.659444 
L 43.261842 90.594914 
L 43.402268 87.939009 
L 43.542693 84.885227 
L 43.683119 81.779667 
L 43.823544 79.043047 
L 43.96397 77.003431 
L 44.104395 75.714659 
L 44.244821 74.913128 
L 44.385246 74.195651 
L 44.525672 73.294598 
L 44.666097 72.195588 
L 44.806523 70.971406 
L 44.946948 69.496499 
L 45.087374 67.348973 
L 45.227799 64.027935 
L 45.368225 59.299692 
L 45.50865 53.375069 
L 45.649076 46.806846 
L 45.789501 40.247647 
L 45.929927 34.270496 
L 46.070352 29.325458 
L 46.210778 25.768607 
L 46.351203 23.874678 
L 46.491629 23.796243 
L 46.632054 25.480861 
L 46.77248 28.587871 
L 46.912905 32.471732 
L 47.053331 36.29284 
L 47.193756 39.25054 
L 47.334182 40.841834 
L 47.474607 41.008705 
L 47.615033 40.089178 
L 47.755458 38.607478 
L 47.895884 37.043164 
L 48.036309 35.71335 
L 48.176735 34.781754 
L 48.31716 34.301257 
L 48.457586 34.22529 
L 48.598012 34.432861 
L 48.738437 34.830021 
L 48.878863 35.473872 
L 49.019288 36.579026 
L 49.159714 38.357822 
L 49.300139 40.82512 
L 49.440565 43.749227 
L 49.58099 46.790131 
L 49.721416 49.692927 
L 49.861841 52.370825 
L 50.002267 54.824883 
L 50.142692 56.98236 
L 50.283118 58.587435 
L 50.423543 59.238948 
L 50.563969 58.583455 
L 50.704394 56.572156 
L 50.84482 53.618214 
L 50.985245 50.51624 
L 51.125671 48.134684 
L 51.266096 47.066549 
L 51.406522 47.467039 
L 51.546947 49.163228 
L 51.687373 51.906089 
L 51.827798 55.535976 
L 51.968224 59.936968 
L 52.108649 64.866367 
L 52.249075 69.862794 
L 52.3895 74.350043 
L 52.529926 77.860152 
L 52.670351 80.195965 
L 52.810777 81.42729 
L 52.951202 81.766136 
L 53.091628 81.443459 
L 53.232053 80.666371 
L 53.372479 79.643854 
L 53.512904 78.618133 
L 53.65333 77.852128 
L 53.793755 77.569707 
L 53.934181 77.886633 
L 54.074606 78.783103 
L 54.215032 80.143632 
L 54.355457 81.837578 
L 54.495883 83.775591 
L 54.636308 85.896976 
L 54.776734 88.110255 
L 54.917159 90.256866 
L 55.057585 92.143755 
L 55.19801 93.621233 
L 55.338436 94.642078 
L 55.478861 95.261683 
L 55.619287 95.591431 
L 55.759712 95.745198 
L 55.900138 95.808007 
L 56.040563 95.83047 
L 56.180989 95.837501 
" style="fill:none;stroke:#ff0000;stroke-linecap:square;stroke-width:1.5;"/>
   </g>
   <g id="patch_43">
    <path d="M 38.27 95.84 
L 38.27 13.878404 
" style="fill:none;stroke:#000000;stroke-linecap:square;stroke-linejoin:miter;stroke-width:0.8;"/>
   </g>
   <g id="patch_44">
    <path d="M 126.465 95.84 
L 126.465 13.878404 
" style="fill:none;stroke:#000000;stroke-linecap:square;stroke-linejoin:miter;stroke-width:0.8;"/>
   </g>
   <g id="patch_45">
    <path d="M 38.27 95.84 
L 126.465 95.84 
" style="fill:none;stroke:#000000;stroke-linecap:square;stroke-linejoin:miter;stroke-width:0.8;"/>
   </g>
   <g id="patch_46">
    <path d="M 38.27 13.878404 
L 126.465 13.878404 
" style="fill:none;stroke:#000000;stroke-linecap:square;stroke-linejoin:miter;stroke-width:0.8;"/>
   </g>
  </g>
  <g id="axes_2">
   <g id="patch_47">
    <path d="M 140.765 95.84 
L 228.96 95.84 
L 228.96 13.878404 
L 140.765 13.878404 
z
" style="fill:none;"/>
   </g>
   <g id="patch_48">
    <path clip-path="url(#p63184ad895)" d="M 152.409878 95.84 
L 153.831957 95.84 
L 153.831957 88.470039 
L 152.409878 88.470039 
z
" style="fill:#0000ff;opacity:0.4;"/>
   </g>
   <g id="patch_49">
    <path clip-path="url(#p63184ad895)" d="M 153.831957 95.84 
L 155.254036 95.84 
L 155.254036 83.371228 
L 153.831957 83.371228 
z
" style="fill:#0000ff;opacity:0.4;"/>
   </g>
   <g id="patch_50">
    <path clip-path="url(#p63184ad895)" d="M 155.254036 95.84 
L 156.676114 95.84 
L 156.676114 66.570724 
L 155.254036 66.570724 
z
" style="fill:#0000ff;opacity:0.4;"/>
   </g>
   <g id="patch_51">
    <path clip-path="url(#p63184ad895)" d="M 156.676114 95.84 
L 158.098193 95.84 
L 158.098193 65.698362 
L 156.676114 65.698362 
z
" style="fill:#0000ff;opacity:0.4;"/>
   </g>
   <g id="patch_52">
    <path clip-path="url(#p63184ad895)" d="M 158.098193 95.84 
L 159.520271 95.84 
L 159.520271 73.324016 
L 158.098193 73.324016 
z
" style="fill:#0000ff;opacity:0.4;"/>
   </g>
   <g id="patch_53">
    <path clip-path="url(#p63184ad895)" d="M 159.520271 95.84 
L 160.94235 95.84 
L 160.94235 75.264271 
L 159.520271 75.264271 
z
" style="fill:#0000ff;opacity:0.4;"/>
   </g>
   <g id="patch_54">
    <path clip-path="url(#p63184ad895)" d="M 160.94235 95.84 
L 162.364429 95.84 
L 162.364429 83.867573 
L 160.94235 83.867573 
z
" style="fill:#0000ff;opacity:0.4;"/>
   </g>
   <g id="patch_55">
    <path clip-path="url(#p63184ad895)" d="M 162.364429 95.84 
L 163.786507 95.84 
L 163.786507 84.288713 
L 162.364429 84.288713 
z
" style="fill:#0000ff;opacity:0.4;"/>
   </g>
   <g id="patch_56">
    <path clip-path="url(#p63184ad895)" d="M 163.786507 95.84 
L 165.208586 95.84 
L 165.208586 84.724895 
L 163.786507 84.724895 
z
" style="fill:#0000ff;opacity:0.4;"/>
   </g>
   <g id="patch_57">
    <path clip-path="url(#p63184ad895)" d="M 165.208586 95.84 
L 166.630664 95.84 
L 166.630664 82.453743 
L 165.208586 82.453743 
z
" style="fill:#0000ff;opacity:0.4;"/>
   </g>
   <g id="patch_58">
    <path clip-path="url(#p63184ad895)" d="M 166.630664 95.84 
L 168.052743 95.84 
L 168.052743 80.077307 
L 166.630664 80.077307 
z
" style="fill:#0000ff;opacity:0.4;"/>
   </g>
   <g id="patch_59">
    <path clip-path="url(#p63184ad895)" d="M 168.052743 95.84 
L 169.474822 95.84 
L 169.474822 86.168806 
L 168.052743 86.168806 
z
" style="fill:#0000ff;opacity:0.4;"/>
   </g>
   <g id="patch_60">
    <path clip-path="url(#p63184ad895)" d="M 169.474822 95.84 
L 170.8969 95.84 
L 170.8969 86.093602 
L 169.474822 86.093602 
z
" style="fill:#0000ff;opacity:0.4;"/>
   </g>
   <g id="patch_61">
    <path clip-path="url(#p63184ad895)" d="M 170.8969 95.84 
L 172.318979 95.84 
L 172.318979 86.755394 
L 170.8969 86.755394 
z
" style="fill:#0000ff;opacity:0.4;"/>
   </g>
   <g id="patch_62">
    <path clip-path="url(#p63184ad895)" d="M 172.318979 95.84 
L 173.741057 95.84 
L 173.741057 90.395253 
L 172.318979 90.395253 
z
" style="fill:#0000ff;opacity:0.4;"/>
   </g>
   <g id="patch_63">
    <path clip-path="url(#p63184ad895)" d="M 173.741057 95.84 
L 175.163136 95.84 
L 175.163136 92.425753 
L 173.741057 92.425753 
z
" style="fill:#0000ff;opacity:0.4;"/>
   </g>
   <g id="patch_64">
    <path clip-path="url(#p63184ad895)" d="M 175.163136 95.84 
L 176.585215 95.84 
L 176.585215 91.733879 
L 175.163136 91.733879 
z
" style="fill:#0000ff;opacity:0.4;"/>
   </g>
   <g id="patch_65">
    <path clip-path="url(#p63184ad895)" d="M 176.585215 95.84 
L 178.007293 95.84 
L 178.007293 87.176535 
L 176.585215 87.176535 
z
" style="fill:#0000ff;opacity:0.4;"/>
   </g>
   <g id="patch_66">
    <path clip-path="url(#p63184ad895)" d="M 178.007293 95.84 
L 179.429372 95.84 
L 179.429372 86.499702 
L 178.007293 86.499702 
z
" style="fill:#0000ff;opacity:0.4;"/>
   </g>
   <g id="patch_67">
    <path clip-path="url(#p63184ad895)" d="M 179.429372 95.84 
L 180.85145 95.84 
L 180.85145 87.838328 
L 179.429372 87.838328 
z
" style="fill:#0000ff;opacity:0.4;"/>
   </g>
   <g id="patch_68">
    <path clip-path="url(#p63184ad895)" d="M 180.85145 95.84 
L 182.273529 95.84 
L 182.273529 87.567594 
L 180.85145 87.567594 
z
" style="fill:#0000ff;opacity:0.4;"/>
   </g>
   <g id="patch_69">
    <path clip-path="url(#p63184ad895)" d="M 182.273529 95.84 
L 183.695608 95.84 
L 183.695608 90.199723 
L 182.273529 90.199723 
z
" style="fill:#0000ff;opacity:0.4;"/>
   </g>
   <g id="patch_70">
    <path clip-path="url(#p63184ad895)" d="M 183.695608 95.84 
L 185.117686 95.84 
L 185.117686 90.515579 
L 183.695608 90.515579 
z
" style="fill:#0000ff;opacity:0.4;"/>
   </g>
   <g id="patch_71">
    <path clip-path="url(#p63184ad895)" d="M 185.117686 95.84 
L 186.539765 95.84 
L 186.539765 89.252157 
L 185.117686 89.252157 
z
" style="fill:#0000ff;opacity:0.4;"/>
   </g>
   <g id="patch_72">
    <path clip-path="url(#p63184ad895)" d="M 186.539765 95.84 
L 187.961843 95.84 
L 187.961843 90.831434 
L 186.539765 90.831434 
z
" style="fill:#0000ff;opacity:0.4;"/>
   </g>
   <g id="patch_73">
    <path clip-path="url(#p63184ad895)" d="M 187.961843 95.84 
L 189.383922 95.84 
L 189.383922 92.410712 
L 187.961843 92.410712 
z
" style="fill:#0000ff;opacity:0.4;"/>
   </g>
   <g id="patch_74">
    <path clip-path="url(#p63184ad895)" d="M 189.383922 95.84 
L 190.806001 95.84 
L 190.806001 91.95949 
L 189.383922 91.95949 
z
" style="fill:#0000ff;opacity:0.4;"/>
   </g>
   <g id="patch_75">
    <path clip-path="url(#p63184ad895)" d="M 190.806001 95.84 
L 192.228079 95.84 
L 192.228079 92.636323 
L 190.806001 92.636323 
z
" style="fill:#0000ff;opacity:0.4;"/>
   </g>
   <g id="patch_76">
    <path clip-path="url(#p63184ad895)" d="M 192.228079 95.84 
L 193.650158 95.84 
L 193.650158 92.967219 
L 192.228079 92.967219 
z
" style="fill:#0000ff;opacity:0.4;"/>
   </g>
   <g id="patch_77">
    <path clip-path="url(#p63184ad895)" d="M 193.650158 95.84 
L 195.072236 95.84 
L 195.072236 93.719256 
L 193.650158 93.719256 
z
" style="fill:#0000ff;opacity:0.4;"/>
   </g>
   <g id="patch_78">
    <path clip-path="url(#p63184ad895)" d="M 195.072236 95.84 
L 196.494315 95.84 
L 196.494315 94.110315 
L 195.072236 94.110315 
z
" style="fill:#0000ff;opacity:0.4;"/>
   </g>
   <g id="patch_79">
    <path clip-path="url(#p63184ad895)" d="M 196.494315 95.84 
L 197.916394 95.84 
L 197.916394 94.742026 
L 196.494315 94.742026 
z
" style="fill:#0000ff;opacity:0.4;"/>
   </g>
   <g id="patch_80">
    <path clip-path="url(#p63184ad895)" d="M 197.916394 95.84 
L 199.338472 95.84 
L 199.338472 95.23837 
L 197.916394 95.23837 
z
" style="fill:#0000ff;opacity:0.4;"/>
   </g>
   <g id="patch_81">
    <path clip-path="url(#p63184ad895)" d="M 199.338472 95.84 
L 200.760551 95.84 
L 200.760551 95.208289 
L 199.338472 95.208289 
z
" style="fill:#0000ff;opacity:0.4;"/>
   </g>
   <g id="patch_82">
    <path clip-path="url(#p63184ad895)" d="M 200.760551 95.84 
L 202.182629 95.84 
L 202.182629 95.268452 
L 200.760551 95.268452 
z
" style="fill:#0000ff;opacity:0.4;"/>
   </g>
   <g id="patch_83">
    <path clip-path="url(#p63184ad895)" d="M 202.182629 95.84 
L 203.604708 95.84 
L 203.604708 95.343656 
L 202.182629 95.343656 
z
" style="fill:#0000ff;opacity:0.4;"/>
   </g>
   <g id="patch_84">
    <path clip-path="url(#p63184ad895)" d="M 203.604708 95.84 
L 205.026787 95.84 
L 205.026787 95.358696 
L 203.604708 95.358696 
z
" style="fill:#0000ff;opacity:0.4;"/>
   </g>
   <g id="patch_85">
    <path clip-path="url(#p63184ad895)" d="M 205.026787 95.84 
L 206.448865 95.84 
L 206.448865 95.403819 
L 205.026787 95.403819 
z
" style="fill:#0000ff;opacity:0.4;"/>
   </g>
   <g id="patch_86">
    <path clip-path="url(#p63184ad895)" d="M 206.448865 95.84 
L 207.870944 95.84 
L 207.870944 95.193248 
L 206.448865 95.193248 
z
" style="fill:#0000ff;opacity:0.4;"/>
   </g>
   <g id="patch_87">
    <path clip-path="url(#p63184ad895)" d="M 207.870944 95.84 
L 209.293022 95.84 
L 209.293022 95.178208 
L 207.870944 95.178208 
z
" style="fill:#0000ff;opacity:0.4;"/>
   </g>
   <g id="patch_88">
    <path clip-path="url(#p63184ad895)" d="M 209.293022 95.84 
L 210.715101 95.84 
L 210.715101 94.967637 
L 209.293022 94.967637 
z
" style="fill:#0000ff;opacity:0.4;"/>
   </g>
   <g id="patch_89">
    <path clip-path="url(#p63184ad895)" d="M 210.715101 95.84 
L 212.13718 95.84 
L 212.13718 95.133085 
L 210.715101 95.133085 
z
" style="fill:#0000ff;opacity:0.4;"/>
   </g>
   <g id="patch_90">
    <path clip-path="url(#p63184ad895)" d="M 212.13718 95.84 
L 213.559258 95.84 
L 213.559258 94.862352 
L 212.13718 94.862352 
z
" style="fill:#0000ff;opacity:0.4;"/>
   </g>
   <g id="patch_91">
    <path clip-path="url(#p63184ad895)" d="M 213.559258 95.84 
L 214.981337 95.84 
L 214.981337 94.396089 
L 213.559258 94.396089 
z
" style="fill:#0000ff;opacity:0.4;"/>
   </g>
   <g id="patch_92">
    <path clip-path="url(#p63184ad895)" d="M 214.981337 95.84 
L 216.403415 95.84 
L 216.403415 94.847311 
L 214.981337 94.847311 
z
" style="fill:#0000ff;opacity:0.4;"/>
   </g>
   <g id="patch_93">
    <path clip-path="url(#p63184ad895)" d="M 216.403415 95.84 
L 217.825494 95.84 
L 217.825494 94.696904 
L 216.403415 94.696904 
z
" style="fill:#0000ff;opacity:0.4;"/>
   </g>
   <g id="patch_94">
    <path clip-path="url(#p63184ad895)" d="M 217.825494 95.84 
L 219.247573 95.84 
L 219.247573 94.065193 
L 217.825494 94.065193 
z
" style="fill:#0000ff;opacity:0.4;"/>
   </g>
   <g id="matplotlib.axis_3">
    <g id="xtick_4">
     <g id="line2d_8">
      <g>
       <use style="stroke:#000000;stroke-width:0.8;" x="147.396956" xlink:href="#m2942d698e0" y="95.84"/>
      </g>
     </g>
    </g>
    <g id="xtick_5">
     <g id="line2d_9">
      <g>
       <use style="stroke:#000000;stroke-width:0.8;" x="175.032509" xlink:href="#m2942d698e0" y="95.84"/>
      </g>
     </g>
    </g>
    <g id="xtick_6">
     <g id="line2d_10">
      <g>
       <use style="stroke:#000000;stroke-width:0.8;" x="202.668061" xlink:href="#m2942d698e0" y="95.84"/>
      </g>
     </g>
    </g>
   </g>
   <g id="matplotlib.axis_4">
    <g id="ytick_4">
     <g id="line2d_11">
      <g>
       <use style="stroke:#000000;stroke-width:0.8;" x="140.765" xlink:href="#md36c59c1ae" y="95.84"/>
      </g>
     </g>
    </g>
    <g id="ytick_5">
     <g id="line2d_12">
      <g>
       <use style="stroke:#000000;stroke-width:0.8;" x="140.765" xlink:href="#md36c59c1ae" y="55.289734"/>
      </g>
     </g>
    </g>
    <g id="ytick_6">
     <g id="line2d_13">
      <g>
       <use style="stroke:#000000;stroke-width:0.8;" x="140.765" xlink:href="#md36c59c1ae" y="14.739468"/>
      </g>
     </g>
    </g>
   </g>
   <g id="line2d_14">
    <path clip-path="url(#p63184ad895)" d="M 146.706315 95.832126 
L 147.496666 95.809869 
L 148.287018 95.740941 
L 149.07737 95.558538 
L 149.867722 95.143402 
L 150.658073 94.323308 
L 151.448425 92.900763 
L 152.238777 90.708031 
L 153.029129 87.679659 
L 153.81948 83.933986 
L 154.609832 79.83888 
L 155.400184 75.994662 
L 156.190536 73.07015 
L 156.980887 71.537734 
L 157.771239 71.479179 
L 158.561591 72.607577 
L 159.351942 74.468602 
L 160.142294 76.641282 
L 160.932646 78.80645 
L 161.722998 80.713251 
L 162.513349 82.157183 
L 163.303701 83.01912 
L 164.094053 83.318787 
L 164.884405 83.223997 
L 165.674756 83.002867 
L 166.465108 82.933704 
L 167.25546 83.198858 
L 168.045812 83.815091 
L 168.836163 84.657467 
L 169.626515 85.569928 
L 170.416867 86.473532 
L 171.207218 87.381925 
L 171.99757 88.323131 
L 172.787922 89.249971 
L 173.578274 90.019234 
L 174.368625 90.453105 
L 175.158977 90.436742 
L 175.949329 89.990412 
L 176.739681 89.274782 
L 177.530032 88.525671 
L 178.320384 87.955512 
L 179.110736 87.679687 
L 179.901088 87.70526 
L 180.691439 87.970014 
L 181.481791 88.386993 
L 182.272143 88.865343 
L 183.062494 89.318791 
L 183.852846 89.686588 
L 184.643198 89.962491 
L 185.43355 90.198651 
L 186.223901 90.466833 
L 187.014253 90.804249 
L 187.804605 91.190761 
L 188.594957 91.574208 
L 189.385308 91.915056 
L 190.17566 92.20937 
L 190.966012 92.477862 
L 191.756364 92.741783 
L 192.546715 93.010344 
L 193.337067 93.284041 
L 194.127419 93.562047 
L 194.91777 93.843951 
L 195.708122 94.12639 
L 196.498474 94.399977 
L 197.288826 94.649878 
L 198.079177 94.860226 
L 198.869529 95.020503 
L 199.659881 95.13048 
L 200.450233 95.200306 
L 201.240584 95.245242 
L 202.030936 95.278379 
L 202.821288 95.30579 
L 203.61164 95.326262 
L 204.401991 95.334628 
L 205.192343 95.326146 
L 205.982695 95.299632 
L 206.773046 95.258253 
L 207.563398 95.208209 
L 208.35375 95.156191 
L 209.144102 95.106464 
L 209.934453 95.058606 
L 210.724805 95.007644 
L 211.515157 94.947942 
L 212.305509 94.879195 
L 213.09586 94.809578 
L 213.886212 94.752149 
L 214.676564 94.71672 
L 215.466916 94.705013 
L 216.257267 94.714918 
L 217.047619 94.75021 
L 217.837971 94.824415 
L 218.628322 94.951356 
L 219.418674 95.128741 
L 220.209026 95.330883 
L 220.999378 95.519654 
L 221.789729 95.664985 
L 222.580081 95.757691 
L 223.370433 95.806877 
L 224.160785 95.828642 
L 224.951136 95.836691 
" style="fill:none;stroke:#0000ff;stroke-linecap:square;stroke-width:1.5;"/>
   </g>
   <g id="patch_95">
    <path d="M 140.765 95.84 
L 140.765 13.878404 
" style="fill:none;stroke:#000000;stroke-linecap:square;stroke-linejoin:miter;stroke-width:0.8;"/>
   </g>
   <g id="patch_96">
    <path d="M 228.96 95.84 
L 228.96 13.878404 
" style="fill:none;stroke:#000000;stroke-linecap:square;stroke-linejoin:miter;stroke-width:0.8;"/>
   </g>
   <g id="patch_97">
    <path d="M 140.765 95.84 
L 228.96 95.84 
" style="fill:none;stroke:#000000;stroke-linecap:square;stroke-linejoin:miter;stroke-width:0.8;"/>
   </g>
   <g id="patch_98">
    <path d="M 140.765 13.878404 
L 228.96 13.878404 
" style="fill:none;stroke:#000000;stroke-linecap:square;stroke-linejoin:miter;stroke-width:0.8;"/>
   </g>
  </g>
  <g id="axes_3">
   <g id="patch_99">
    <path d="M 38.27 197.8 
L 126.465 197.8 
L 126.465 115.838404 
L 38.27 115.838404 
z
" style="fill:none;"/>
   </g>
   <g id="patch_100">
    <path clip-path="url(#pa95b61cfeb)" d="M 61.379158 197.8 
L 62.63767 197.8 
L 62.63767 197.137174 
L 61.379158 197.137174 
z
" style="fill:#ffa500;opacity:0.4;"/>
   </g>
   <g id="patch_101">
    <path clip-path="url(#pa95b61cfeb)" d="M 62.63767 197.8 
L 63.896183 197.8 
L 63.896183 195.471609 
L 62.63767 195.471609 
z
" style="fill:#ffa500;opacity:0.4;"/>
   </g>
   <g id="patch_102">
    <path clip-path="url(#pa95b61cfeb)" d="M 63.896183 197.8 
L 65.154695 197.8 
L 65.154695 193.160215 
L 63.896183 193.160215 
z
" style="fill:#ffa500;opacity:0.4;"/>
   </g>
   <g id="patch_103">
    <path clip-path="url(#pa95b61cfeb)" d="M 65.154695 197.8 
L 66.413207 197.8 
L 66.413207 190.457922 
L 65.154695 190.457922 
z
" style="fill:#ffa500;opacity:0.4;"/>
   </g>
   <g id="patch_104">
    <path clip-path="url(#pa95b61cfeb)" d="M 66.413207 197.8 
L 67.67172 197.8 
L 67.67172 186.939843 
L 66.413207 186.939843 
z
" style="fill:#ffa500;opacity:0.4;"/>
   </g>
   <g id="patch_105">
    <path clip-path="url(#pa95b61cfeb)" d="M 67.67172 197.8 
L 68.930232 197.8 
L 68.930232 179.903685 
L 67.67172 179.903685 
z
" style="fill:#ffa500;opacity:0.4;"/>
   </g>
   <g id="patch_106">
    <path clip-path="url(#pa95b61cfeb)" d="M 68.930232 197.8 
L 70.188745 197.8 
L 70.188745 182.334048 
L 68.930232 182.334048 
z
" style="fill:#ffa500;opacity:0.4;"/>
   </g>
   <g id="patch_107">
    <path clip-path="url(#pa95b61cfeb)" d="M 70.188745 197.8 
L 71.447257 197.8 
L 71.447257 182.385035 
L 70.188745 182.385035 
z
" style="fill:#ffa500;opacity:0.4;"/>
   </g>
   <g id="patch_108">
    <path clip-path="url(#pa95b61cfeb)" d="M 71.447257 197.8 
L 72.705769 197.8 
L 72.705769 184.798403 
L 71.447257 184.798403 
z
" style="fill:#ffa500;opacity:0.4;"/>
   </g>
   <g id="patch_109">
    <path clip-path="url(#pa95b61cfeb)" d="M 72.705769 197.8 
L 73.964282 197.8 
L 73.964282 184.23755 
L 72.705769 184.23755 
z
" style="fill:#ffa500;opacity:0.4;"/>
   </g>
   <g id="patch_110">
    <path clip-path="url(#pa95b61cfeb)" d="M 73.964282 197.8 
L 75.222794 197.8 
L 75.222794 183.387773 
L 73.964282 183.387773 
z
" style="fill:#ffa500;opacity:0.4;"/>
   </g>
   <g id="patch_111">
    <path clip-path="url(#pa95b61cfeb)" d="M 75.222794 197.8 
L 76.481306 197.8 
L 76.481306 185.070332 
L 75.222794 185.070332 
z
" style="fill:#ffa500;opacity:0.4;"/>
   </g>
   <g id="patch_112">
    <path clip-path="url(#pa95b61cfeb)" d="M 76.481306 197.8 
L 77.739819 197.8 
L 77.739819 182.962884 
L 76.481306 182.962884 
z
" style="fill:#ffa500;opacity:0.4;"/>
   </g>
   <g id="patch_113">
    <path clip-path="url(#pa95b61cfeb)" d="M 77.739819 197.8 
L 78.998331 197.8 
L 78.998331 183.370777 
L 77.739819 183.370777 
z
" style="fill:#ffa500;opacity:0.4;"/>
   </g>
   <g id="patch_114">
    <path clip-path="url(#pa95b61cfeb)" d="M 78.998331 197.8 
L 80.256843 197.8 
L 80.256843 186.158047 
L 78.998331 186.158047 
z
" style="fill:#ffa500;opacity:0.4;"/>
   </g>
   <g id="patch_115">
    <path clip-path="url(#pa95b61cfeb)" d="M 80.256843 197.8 
L 81.515356 197.8 
L 81.515356 186.141052 
L 80.256843 186.141052 
z
" style="fill:#ffa500;opacity:0.4;"/>
   </g>
   <g id="patch_116">
    <path clip-path="url(#pa95b61cfeb)" d="M 81.515356 197.8 
L 82.773868 197.8 
L 82.773868 187.4837 
L 81.515356 187.4837 
z
" style="fill:#ffa500;opacity:0.4;"/>
   </g>
   <g id="patch_117">
    <path clip-path="url(#pa95b61cfeb)" d="M 82.773868 197.8 
L 84.032381 197.8 
L 84.032381 184.815399 
L 82.773868 184.815399 
z
" style="fill:#ffa500;opacity:0.4;"/>
   </g>
   <g id="patch_118">
    <path clip-path="url(#pa95b61cfeb)" d="M 84.032381 197.8 
L 85.290893 197.8 
L 85.290893 184.407506 
L 84.032381 184.407506 
z
" style="fill:#ffa500;opacity:0.4;"/>
   </g>
   <g id="patch_119">
    <path clip-path="url(#pa95b61cfeb)" d="M 85.290893 197.8 
L 86.549405 197.8 
L 86.549405 183.948626 
L 85.290893 183.948626 
z
" style="fill:#ffa500;opacity:0.4;"/>
   </g>
   <g id="patch_120">
    <path clip-path="url(#pa95b61cfeb)" d="M 86.549405 197.8 
L 87.807918 197.8 
L 87.807918 183.302795 
L 86.549405 183.302795 
z
" style="fill:#ffa500;opacity:0.4;"/>
   </g>
   <g id="patch_121">
    <path clip-path="url(#pa95b61cfeb)" d="M 87.807918 197.8 
L 89.06643 197.8 
L 89.06643 186.548945 
L 87.807918 186.548945 
z
" style="fill:#ffa500;opacity:0.4;"/>
   </g>
   <g id="patch_122">
    <path clip-path="url(#pa95b61cfeb)" d="M 89.06643 197.8 
L 90.324942 197.8 
L 90.324942 188.996305 
L 89.06643 188.996305 
z
" style="fill:#ffa500;opacity:0.4;"/>
   </g>
   <g id="patch_123">
    <path clip-path="url(#pa95b61cfeb)" d="M 90.324942 197.8 
L 91.583455 197.8 
L 91.583455 190.321958 
L 90.324942 190.321958 
z
" style="fill:#ffa500;opacity:0.4;"/>
   </g>
   <g id="patch_124">
    <path clip-path="url(#pa95b61cfeb)" d="M 91.583455 197.8 
L 92.841967 197.8 
L 92.841967 191.392677 
L 91.583455 191.392677 
z
" style="fill:#ffa500;opacity:0.4;"/>
   </g>
   <g id="patch_125">
    <path clip-path="url(#pa95b61cfeb)" d="M 92.841967 197.8 
L 94.10048 197.8 
L 94.10048 191.205726 
L 92.841967 191.205726 
z
" style="fill:#ffa500;opacity:0.4;"/>
   </g>
   <g id="patch_126">
    <path clip-path="url(#pa95b61cfeb)" d="M 94.10048 197.8 
L 95.358992 197.8 
L 95.358992 191.987522 
L 94.10048 191.987522 
z
" style="fill:#ffa500;opacity:0.4;"/>
   </g>
   <g id="patch_127">
    <path clip-path="url(#pa95b61cfeb)" d="M 95.358992 197.8 
L 96.617504 197.8 
L 96.617504 192.973263 
L 95.358992 192.973263 
z
" style="fill:#ffa500;opacity:0.4;"/>
   </g>
   <g id="patch_128">
    <path clip-path="url(#pa95b61cfeb)" d="M 96.617504 197.8 
L 97.876017 197.8 
L 97.876017 193.670081 
L 96.617504 193.670081 
z
" style="fill:#ffa500;opacity:0.4;"/>
   </g>
   <g id="patch_129">
    <path clip-path="url(#pa95b61cfeb)" d="M 97.876017 197.8 
L 99.134529 197.8 
L 99.134529 194.077974 
L 97.876017 194.077974 
z
" style="fill:#ffa500;opacity:0.4;"/>
   </g>
   <g id="patch_130">
    <path clip-path="url(#pa95b61cfeb)" d="M 99.134529 197.8 
L 100.393041 197.8 
L 100.393041 193.874028 
L 99.134529 193.874028 
z
" style="fill:#ffa500;opacity:0.4;"/>
   </g>
   <g id="patch_131">
    <path clip-path="url(#pa95b61cfeb)" d="M 100.393041 197.8 
L 101.651554 197.8 
L 101.651554 193.992997 
L 100.393041 193.992997 
z
" style="fill:#ffa500;opacity:0.4;"/>
   </g>
   <g id="patch_132">
    <path clip-path="url(#pa95b61cfeb)" d="M 101.651554 197.8 
L 102.910066 197.8 
L 102.910066 193.738063 
L 101.651554 193.738063 
z
" style="fill:#ffa500;opacity:0.4;"/>
   </g>
   <g id="patch_133">
    <path clip-path="url(#pa95b61cfeb)" d="M 102.910066 197.8 
L 104.168578 197.8 
L 104.168578 194.383894 
L 102.910066 194.383894 
z
" style="fill:#ffa500;opacity:0.4;"/>
   </g>
   <g id="patch_134">
    <path clip-path="url(#pa95b61cfeb)" d="M 104.168578 197.8 
L 105.427091 197.8 
L 105.427091 194.009992 
L 104.168578 194.009992 
z
" style="fill:#ffa500;opacity:0.4;"/>
   </g>
   <g id="patch_135">
    <path clip-path="url(#pa95b61cfeb)" d="M 105.427091 197.8 
L 106.685603 197.8 
L 106.685603 194.230934 
L 105.427091 194.230934 
z
" style="fill:#ffa500;opacity:0.4;"/>
   </g>
   <g id="patch_136">
    <path clip-path="url(#pa95b61cfeb)" d="M 106.685603 197.8 
L 107.944116 197.8 
L 107.944116 193.78905 
L 106.685603 193.78905 
z
" style="fill:#ffa500;opacity:0.4;"/>
   </g>
   <g id="patch_137">
    <path clip-path="url(#pa95b61cfeb)" d="M 107.944116 197.8 
L 109.202628 197.8 
L 109.202628 194.85977 
L 107.944116 194.85977 
z
" style="fill:#ffa500;opacity:0.4;"/>
   </g>
   <g id="patch_138">
    <path clip-path="url(#pa95b61cfeb)" d="M 109.202628 197.8 
L 110.46114 197.8 
L 110.46114 195.080712 
L 109.202628 195.080712 
z
" style="fill:#ffa500;opacity:0.4;"/>
   </g>
   <g id="patch_139">
    <path clip-path="url(#pa95b61cfeb)" d="M 110.46114 197.8 
L 111.719653 197.8 
L 111.719653 194.85977 
L 110.46114 194.85977 
z
" style="fill:#ffa500;opacity:0.4;"/>
   </g>
   <g id="patch_140">
    <path clip-path="url(#pa95b61cfeb)" d="M 111.719653 197.8 
L 112.978165 197.8 
L 112.978165 194.145957 
L 111.719653 194.145957 
z
" style="fill:#ffa500;opacity:0.4;"/>
   </g>
   <g id="patch_141">
    <path clip-path="url(#pa95b61cfeb)" d="M 112.978165 197.8 
L 114.236677 197.8 
L 114.236677 194.604836 
L 112.978165 194.604836 
z
" style="fill:#ffa500;opacity:0.4;"/>
   </g>
   <g id="patch_142">
    <path clip-path="url(#pa95b61cfeb)" d="M 114.236677 197.8 
L 115.49519 197.8 
L 115.49519 194.791787 
L 114.236677 194.791787 
z
" style="fill:#ffa500;opacity:0.4;"/>
   </g>
   <g id="patch_143">
    <path clip-path="url(#pa95b61cfeb)" d="M 115.49519 197.8 
L 116.753702 197.8 
L 116.753702 191.613619 
L 115.49519 191.613619 
z
" style="fill:#ffa500;opacity:0.4;"/>
   </g>
   <g id="matplotlib.axis_5">
    <g id="xtick_7">
     <g id="line2d_15">
      <g>
       <use style="stroke:#000000;stroke-width:0.8;" x="44.901956" xlink:href="#m2942d698e0" y="197.8"/>
      </g>
     </g>
     <g id="text_5">
      <!-- 2.5 -->
      <defs>
       <path d="M 10.6875 12.40625 
L 21 12.40625 
L 21 0 
L 10.6875 0 
z
" id="DejaVuSans-46"/>
       <path d="M 10.796875 72.90625 
L 49.515625 72.90625 
L 49.515625 64.59375 
L 19.828125 64.59375 
L 19.828125 46.734375 
Q 21.96875 47.46875 24.109375 47.828125 
Q 26.265625 48.1875 28.421875 48.1875 
Q 40.625 48.1875 47.75 41.5 
Q 54.890625 34.8125 54.890625 23.390625 
Q 54.890625 11.625 47.5625 5.09375 
Q 40.234375 -1.421875 26.90625 -1.421875 
Q 22.3125 -1.421875 17.546875 -0.640625 
Q 12.796875 0.140625 7.71875 1.703125 
L 7.71875 11.625 
Q 12.109375 9.234375 16.796875 8.0625 
Q 21.484375 6.890625 26.703125 6.890625 
Q 35.15625 6.890625 40.078125 11.328125 
Q 45.015625 15.765625 45.015625 23.390625 
Q 45.015625 31 40.078125 35.4375 
Q 35.15625 39.890625 26.703125 39.890625 
Q 22.75 39.890625 18.8125 39.015625 
Q 14.890625 38.140625 10.796875 36.28125 
z
" id="DejaVuSans-53"/>
      </defs>
      <g transform="translate(36.950394 212.398437)scale(0.1 -0.1)">
       <use xlink:href="#DejaVuSans-50"/>
       <use x="63.623047" xlink:href="#DejaVuSans-46"/>
       <use x="95.410156" xlink:href="#DejaVuSans-53"/>
      </g>
     </g>
    </g>
    <g id="xtick_8">
     <g id="line2d_16">
      <g>
       <use style="stroke:#000000;stroke-width:0.8;" x="72.537509" xlink:href="#m2942d698e0" y="197.8"/>
      </g>
     </g>
     <g id="text_6">
      <!-- 5.0 -->
      <g transform="translate(64.585946 212.398437)scale(0.1 -0.1)">
       <use xlink:href="#DejaVuSans-53"/>
       <use x="63.623047" xlink:href="#DejaVuSans-46"/>
       <use x="95.410156" xlink:href="#DejaVuSans-48"/>
      </g>
     </g>
    </g>
    <g id="xtick_9">
     <g id="line2d_17">
      <g>
       <use style="stroke:#000000;stroke-width:0.8;" x="100.173061" xlink:href="#m2942d698e0" y="197.8"/>
      </g>
     </g>
     <g id="text_7">
      <!-- 7.5 -->
      <defs>
       <path d="M 8.203125 72.90625 
L 55.078125 72.90625 
L 55.078125 68.703125 
L 28.609375 0 
L 18.3125 0 
L 43.21875 64.59375 
L 8.203125 64.59375 
z
" id="DejaVuSans-55"/>
      </defs>
      <g transform="translate(92.221499 212.398437)scale(0.1 -0.1)">
       <use xlink:href="#DejaVuSans-55"/>
       <use x="63.623047" xlink:href="#DejaVuSans-46"/>
       <use x="95.410156" xlink:href="#DejaVuSans-53"/>
      </g>
     </g>
    </g>
    <g id="text_8">
     <!-- Velocity (km/s) -->
     <defs>
      <path d="M 28.609375 0 
L 0.78125 72.90625 
L 11.078125 72.90625 
L 34.1875 11.53125 
L 57.328125 72.90625 
L 67.578125 72.90625 
L 39.796875 0 
z
" id="DejaVuSans-86"/>
      <path d="M 9.421875 75.984375 
L 18.40625 75.984375 
L 18.40625 0 
L 9.421875 0 
z
" id="DejaVuSans-108"/>
      <path d="M 30.609375 48.390625 
Q 23.390625 48.390625 19.1875 42.75 
Q 14.984375 37.109375 14.984375 27.296875 
Q 14.984375 17.484375 19.15625 11.84375 
Q 23.34375 6.203125 30.609375 6.203125 
Q 37.796875 6.203125 41.984375 11.859375 
Q 46.1875 17.53125 46.1875 27.296875 
Q 46.1875 37.015625 41.984375 42.703125 
Q 37.796875 48.390625 30.609375 48.390625 
z
M 30.609375 56 
Q 42.328125 56 49.015625 48.375 
Q 55.71875 40.765625 55.71875 27.296875 
Q 55.71875 13.875 49.015625 6.21875 
Q 42.328125 -1.421875 30.609375 -1.421875 
Q 18.84375 -1.421875 12.171875 6.21875 
Q 5.515625 13.875 5.515625 27.296875 
Q 5.515625 40.765625 12.171875 48.375 
Q 18.84375 56 30.609375 56 
z
" id="DejaVuSans-111"/>
      <path d="M 48.78125 52.59375 
L 48.78125 44.1875 
Q 44.96875 46.296875 41.140625 47.34375 
Q 37.3125 48.390625 33.40625 48.390625 
Q 24.65625 48.390625 19.8125 42.84375 
Q 14.984375 37.3125 14.984375 27.296875 
Q 14.984375 17.28125 19.8125 11.734375 
Q 24.65625 6.203125 33.40625 6.203125 
Q 37.3125 6.203125 41.140625 7.25 
Q 44.96875 8.296875 48.78125 10.40625 
L 48.78125 2.09375 
Q 45.015625 0.34375 40.984375 -0.53125 
Q 36.96875 -1.421875 32.421875 -1.421875 
Q 20.0625 -1.421875 12.78125 6.34375 
Q 5.515625 14.109375 5.515625 27.296875 
Q 5.515625 40.671875 12.859375 48.328125 
Q 20.21875 56 33.015625 56 
Q 37.15625 56 41.109375 55.140625 
Q 45.0625 54.296875 48.78125 52.59375 
z
" id="DejaVuSans-99"/>
      <path id="DejaVuSans-32"/>
      <path d="M 31 75.875 
Q 24.46875 64.65625 21.28125 53.65625 
Q 18.109375 42.671875 18.109375 31.390625 
Q 18.109375 20.125 21.3125 9.0625 
Q 24.515625 -2 31 -13.1875 
L 23.1875 -13.1875 
Q 15.875 -1.703125 12.234375 9.375 
Q 8.59375 20.453125 8.59375 31.390625 
Q 8.59375 42.28125 12.203125 53.3125 
Q 15.828125 64.359375 23.1875 75.875 
z
" id="DejaVuSans-40"/>
      <path d="M 9.078125 75.984375 
L 18.109375 75.984375 
L 18.109375 31.109375 
L 44.921875 54.6875 
L 56.390625 54.6875 
L 27.390625 29.109375 
L 57.625 0 
L 45.90625 0 
L 18.109375 26.703125 
L 18.109375 0 
L 9.078125 0 
z
" id="DejaVuSans-107"/>
      <path d="M 52 44.1875 
Q 55.375 50.25 60.0625 53.125 
Q 64.75 56 71.09375 56 
Q 79.640625 56 84.28125 50.015625 
Q 88.921875 44.046875 88.921875 33.015625 
L 88.921875 0 
L 79.890625 0 
L 79.890625 32.71875 
Q 79.890625 40.578125 77.09375 44.375 
Q 74.3125 48.1875 68.609375 48.1875 
Q 61.625 48.1875 57.5625 43.546875 
Q 53.515625 38.921875 53.515625 30.90625 
L 53.515625 0 
L 44.484375 0 
L 44.484375 32.71875 
Q 44.484375 40.625 41.703125 44.40625 
Q 38.921875 48.1875 33.109375 48.1875 
Q 26.21875 48.1875 22.15625 43.53125 
Q 18.109375 38.875 18.109375 30.90625 
L 18.109375 0 
L 9.078125 0 
L 9.078125 54.6875 
L 18.109375 54.6875 
L 18.109375 46.1875 
Q 21.1875 51.21875 25.484375 53.609375 
Q 29.78125 56 35.6875 56 
Q 41.65625 56 45.828125 52.96875 
Q 50 49.953125 52 44.1875 
z
" id="DejaVuSans-109"/>
      <path d="M 25.390625 72.90625 
L 33.6875 72.90625 
L 8.296875 -9.28125 
L 0 -9.28125 
z
" id="DejaVuSans-47"/>
      <path d="M 8.015625 75.875 
L 15.828125 75.875 
Q 23.140625 64.359375 26.78125 53.3125 
Q 30.421875 42.28125 30.421875 31.390625 
Q 30.421875 20.453125 26.78125 9.375 
Q 23.140625 -1.703125 15.828125 -13.1875 
L 8.015625 -13.1875 
Q 14.5 -2 17.703125 9.0625 
Q 20.90625 20.125 20.90625 31.390625 
Q 20.90625 42.671875 17.703125 53.65625 
Q 14.5 64.65625 8.015625 75.875 
z
" id="DejaVuSans-41"/>
     </defs>
     <g transform="translate(45.206563 226.076562)scale(0.1 -0.1)">
      <use xlink:href="#DejaVuSans-86"/>
      <use x="60.658203" xlink:href="#DejaVuSans-101"/>
      <use x="122.181641" xlink:href="#DejaVuSans-108"/>
      <use x="149.964844" xlink:href="#DejaVuSans-111"/>
      <use x="211.146484" xlink:href="#DejaVuSans-99"/>
      <use x="266.126953" xlink:href="#DejaVuSans-105"/>
      <use x="293.910156" xlink:href="#DejaVuSans-116"/>
      <use x="333.119141" xlink:href="#DejaVuSans-121"/>
      <use x="392.298828" xlink:href="#DejaVuSans-32"/>
      <use x="424.085938" xlink:href="#DejaVuSans-40"/>
      <use x="463.099609" xlink:href="#DejaVuSans-107"/>
      <use x="521.009766" xlink:href="#DejaVuSans-109"/>
      <use x="618.421875" xlink:href="#DejaVuSans-47"/>
      <use x="652.113281" xlink:href="#DejaVuSans-115"/>
      <use x="704.212891" xlink:href="#DejaVuSans-41"/>
     </g>
    </g>
   </g>
   <g id="matplotlib.axis_6">
    <g id="ytick_7">
     <g id="line2d_18">
      <g>
       <use style="stroke:#000000;stroke-width:0.8;" x="38.27" xlink:href="#md36c59c1ae" y="197.8"/>
      </g>
     </g>
     <g id="text_9">
      <!-- 0 -->
      <g transform="translate(24.9075 201.599219)scale(0.1 -0.1)">
       <use xlink:href="#DejaVuSans-48"/>
      </g>
     </g>
    </g>
    <g id="ytick_8">
     <g id="line2d_19">
      <g>
       <use style="stroke:#000000;stroke-width:0.8;" x="38.27" xlink:href="#md36c59c1ae" y="157.249734"/>
      </g>
     </g>
     <g id="text_10">
      <!-- 1 -->
      <g transform="translate(24.9075 161.048953)scale(0.1 -0.1)">
       <use xlink:href="#DejaVuSans-49"/>
      </g>
     </g>
    </g>
    <g id="ytick_9">
     <g id="line2d_20">
      <g>
       <use style="stroke:#000000;stroke-width:0.8;" x="38.27" xlink:href="#md36c59c1ae" y="116.699468"/>
      </g>
     </g>
     <g id="text_11">
      <!-- 2 -->
      <g transform="translate(24.9075 120.498686)scale(0.1 -0.1)">
       <use xlink:href="#DejaVuSans-50"/>
      </g>
     </g>
    </g>
    <g id="text_12">
     <!-- Density -->
     <g transform="translate(18.827813 175.827796)rotate(-90)scale(0.1 -0.1)">
      <use xlink:href="#DejaVuSans-68"/>
      <use x="77.001953" xlink:href="#DejaVuSans-101"/>
      <use x="138.525391" xlink:href="#DejaVuSans-110"/>
      <use x="201.904297" xlink:href="#DejaVuSans-115"/>
      <use x="254.003906" xlink:href="#DejaVuSans-105"/>
      <use x="281.787109" xlink:href="#DejaVuSans-116"/>
      <use x="320.996094" xlink:href="#DejaVuSans-121"/>
     </g>
    </g>
   </g>
   <g id="line2d_21">
    <path clip-path="url(#pa95b61cfeb)" d="M 55.973244 197.799012 
L 56.641793 197.796715 
L 57.310343 197.790238 
L 57.978892 197.77394 
L 58.647441 197.737131 
L 59.31599 197.662054 
L 59.984539 197.522852 
L 60.653089 197.286724 
L 61.321638 196.917969 
L 61.990187 196.384333 
L 62.658736 195.663146 
L 63.327286 194.743591 
L 63.995835 193.623401 
L 64.664384 192.304221 
L 65.332933 190.795619 
L 66.001482 189.134531 
L 66.670032 187.411072 
L 67.338581 185.775433 
L 68.00713 184.405142 
L 68.675679 183.44186 
L 69.344228 182.935614 
L 70.012778 182.831242 
L 70.681327 182.999753 
L 71.349876 183.290028 
L 72.018425 183.575183 
L 72.686974 183.780954 
L 73.355524 183.891468 
L 74.024073 183.93224 
L 74.692622 183.940895 
L 75.361171 183.946134 
L 76.02972 183.968395 
L 76.69827 184.033339 
L 77.366819 184.175651 
L 78.035368 184.422186 
L 78.703917 184.767528 
L 79.372467 185.164517 
L 80.041016 185.538241 
L 80.709565 185.81244 
L 81.378114 185.93258 
L 82.046663 185.878989 
L 82.715213 185.67081 
L 83.383762 185.361024 
L 84.052311 185.022942 
L 84.72086 184.734147 
L 85.389409 184.566301 
L 86.057959 184.581632 
L 86.726508 184.827621 
L 87.395057 185.323891 
L 88.063606 186.047554 
L 88.732155 186.93043 
L 89.400705 187.874806 
L 90.069254 188.781405 
L 90.737803 189.576133 
L 91.406352 190.22503 
L 92.074901 190.734532 
L 92.743451 191.140385 
L 93.412 191.490604 
L 94.080549 191.827625 
L 94.749098 192.174715 
L 95.417648 192.531187 
L 96.086197 192.877923 
L 96.754746 193.189552 
L 97.423295 193.446389 
L 98.091844 193.640645 
L 98.760394 193.775961 
L 99.428943 193.863138 
L 100.097492 193.915835 
L 100.766041 193.948047 
L 101.43459 193.972496 
L 102.10314 193.998356 
L 102.771689 194.028746 
L 103.440238 194.06062 
L 104.108787 194.088839 
L 104.777336 194.112483 
L 105.445886 194.138765 
L 106.114435 194.181067 
L 106.782984 194.251604 
L 107.451533 194.352946 
L 108.120082 194.473624 
L 108.788632 194.590883 
L 109.457181 194.679526 
L 110.12573 194.722234 
L 110.794279 194.716052 
L 111.462829 194.671952 
L 112.131378 194.608386 
L 112.799927 194.54369 
L 113.468476 194.493869 
L 114.137025 194.478695 
L 114.805575 194.530424 
L 115.474124 194.692553 
L 116.142673 195.000609 
L 116.811222 195.453778 
L 117.479771 196.000216 
L 118.148321 196.55266 
L 118.81687 197.026501 
L 119.485419 197.373801 
L 120.153968 197.592372 
L 120.822517 197.710885 
L 121.491067 197.766387 
L 122.159616 197.788878 
" style="fill:none;stroke:#ffa500;stroke-linecap:square;stroke-width:1.5;"/>
   </g>
   <g id="patch_144">
    <path d="M 38.27 197.8 
L 38.27 115.838404 
" style="fill:none;stroke:#000000;stroke-linecap:square;stroke-linejoin:miter;stroke-width:0.8;"/>
   </g>
   <g id="patch_145">
    <path d="M 126.465 197.8 
L 126.465 115.838404 
" style="fill:none;stroke:#000000;stroke-linecap:square;stroke-linejoin:miter;stroke-width:0.8;"/>
   </g>
   <g id="patch_146">
    <path d="M 38.27 197.8 
L 126.465 197.8 
" style="fill:none;stroke:#000000;stroke-linecap:square;stroke-linejoin:miter;stroke-width:0.8;"/>
   </g>
   <g id="patch_147">
    <path d="M 38.27 115.838404 
L 126.465 115.838404 
" style="fill:none;stroke:#000000;stroke-linecap:square;stroke-linejoin:miter;stroke-width:0.8;"/>
   </g>
  </g>
  <g id="axes_4">
   <g id="patch_148">
    <path d="M 140.765 197.8 
L 228.96 197.8 
L 228.96 115.838404 
L 140.765 115.838404 
z
" style="fill:none;"/>
   </g>
   <g id="patch_149">
    <path clip-path="url(#peac0fec0ab)" d="M 171.174392 197.8 
L 172.34694 197.8 
L 172.34694 196.76023 
L 171.174392 196.76023 
z
" style="fill:#800080;opacity:0.4;"/>
   </g>
   <g id="patch_150">
    <path clip-path="url(#peac0fec0ab)" d="M 172.34694 197.8 
L 173.519487 197.8 
L 173.519487 196.596056 
L 172.34694 196.596056 
z
" style="fill:#800080;opacity:0.4;"/>
   </g>
   <g id="patch_151">
    <path clip-path="url(#peac0fec0ab)" d="M 173.519487 197.8 
L 174.692035 197.8 
L 174.692035 196.103534 
L 173.519487 196.103534 
z
" style="fill:#800080;opacity:0.4;"/>
   </g>
   <g id="patch_152">
    <path clip-path="url(#peac0fec0ab)" d="M 174.692035 197.8 
L 175.864582 197.8 
L 175.864582 194.881348 
L 174.692035 194.881348 
z
" style="fill:#800080;opacity:0.4;"/>
   </g>
   <g id="patch_153">
    <path clip-path="url(#peac0fec0ab)" d="M 175.864582 197.8 
L 177.03713 197.8 
L 177.03713 196.632539 
L 175.864582 196.632539 
z
" style="fill:#800080;opacity:0.4;"/>
   </g>
   <g id="patch_154">
    <path clip-path="url(#peac0fec0ab)" d="M 177.03713 197.8 
L 178.209677 197.8 
L 178.209677 197.362202 
L 177.03713 197.362202 
z
" style="fill:#800080;opacity:0.4;"/>
   </g>
   <g id="patch_155">
    <path clip-path="url(#peac0fec0ab)" d="M 178.209677 197.8 
L 179.382225 197.8 
L 179.382225 196.851438 
L 178.209677 196.851438 
z
" style="fill:#800080;opacity:0.4;"/>
   </g>
   <g id="patch_156">
    <path clip-path="url(#peac0fec0ab)" d="M 179.382225 197.8 
L 180.554772 197.8 
L 180.554772 195.13673 
L 179.382225 195.13673 
z
" style="fill:#800080;opacity:0.4;"/>
   </g>
   <g id="patch_157">
    <path clip-path="url(#peac0fec0ab)" d="M 180.554772 197.8 
L 181.72732 197.8 
L 181.72732 193.823337 
L 180.554772 193.823337 
z
" style="fill:#800080;opacity:0.4;"/>
   </g>
   <g id="patch_158">
    <path clip-path="url(#peac0fec0ab)" d="M 181.72732 197.8 
L 182.899868 197.8 
L 182.899868 191.324242 
L 181.72732 191.324242 
z
" style="fill:#800080;opacity:0.4;"/>
   </g>
   <g id="patch_159">
    <path clip-path="url(#peac0fec0ab)" d="M 182.899868 197.8 
L 184.072415 197.8 
L 184.072415 189.372393 
L 182.899868 189.372393 
z
" style="fill:#800080;opacity:0.4;"/>
   </g>
   <g id="patch_160">
    <path clip-path="url(#peac0fec0ab)" d="M 184.072415 197.8 
L 185.244963 197.8 
L 185.244963 189.737225 
L 184.072415 189.737225 
z
" style="fill:#800080;opacity:0.4;"/>
   </g>
   <g id="patch_161">
    <path clip-path="url(#peac0fec0ab)" d="M 185.244963 197.8 
L 186.41751 197.8 
L 186.41751 188.879871 
L 185.244963 188.879871 
z
" style="fill:#800080;opacity:0.4;"/>
   </g>
   <g id="patch_162">
    <path clip-path="url(#peac0fec0ab)" d="M 186.41751 197.8 
L 187.590058 197.8 
L 187.590058 189.518326 
L 186.41751 189.518326 
z
" style="fill:#800080;opacity:0.4;"/>
   </g>
   <g id="patch_163">
    <path clip-path="url(#peac0fec0ab)" d="M 187.590058 197.8 
L 188.762605 197.8 
L 188.762605 189.718983 
L 187.590058 189.718983 
z
" style="fill:#800080;opacity:0.4;"/>
   </g>
   <g id="patch_164">
    <path clip-path="url(#peac0fec0ab)" d="M 188.762605 197.8 
L 189.935153 197.8 
L 189.935153 188.98932 
L 188.762605 188.98932 
z
" style="fill:#800080;opacity:0.4;"/>
   </g>
   <g id="patch_165">
    <path clip-path="url(#peac0fec0ab)" d="M 189.935153 197.8 
L 191.1077 197.8 
L 191.1077 187.71241 
L 189.935153 187.71241 
z
" style="fill:#800080;opacity:0.4;"/>
   </g>
   <g id="patch_166">
    <path clip-path="url(#peac0fec0ab)" d="M 191.1077 197.8 
L 192.280248 197.8 
L 192.280248 187.311096 
L 191.1077 187.311096 
z
" style="fill:#800080;opacity:0.4;"/>
   </g>
   <g id="patch_167">
    <path clip-path="url(#peac0fec0ab)" d="M 192.280248 197.8 
L 193.452795 197.8 
L 193.452795 186.891539 
L 192.280248 186.891539 
z
" style="fill:#800080;opacity:0.4;"/>
   </g>
   <g id="patch_168">
    <path clip-path="url(#peac0fec0ab)" d="M 193.452795 197.8 
L 194.625343 197.8 
L 194.625343 184.939691 
L 193.452795 184.939691 
z
" style="fill:#800080;opacity:0.4;"/>
   </g>
   <g id="patch_169">
    <path clip-path="url(#peac0fec0ab)" d="M 194.625343 197.8 
L 195.79789 197.8 
L 195.79789 185.669354 
L 194.625343 185.669354 
z
" style="fill:#800080;opacity:0.4;"/>
   </g>
   <g id="patch_170">
    <path clip-path="url(#peac0fec0ab)" d="M 195.79789 197.8 
L 196.970438 197.8 
L 196.970438 184.647826 
L 195.79789 184.647826 
z
" style="fill:#800080;opacity:0.4;"/>
   </g>
   <g id="patch_171">
    <path clip-path="url(#peac0fec0ab)" d="M 196.970438 197.8 
L 198.142985 197.8 
L 198.142985 184.957933 
L 196.970438 184.957933 
z
" style="fill:#800080;opacity:0.4;"/>
   </g>
   <g id="patch_172">
    <path clip-path="url(#peac0fec0ab)" d="M 198.142985 197.8 
L 199.315533 197.8 
L 199.315533 183.006084 
L 198.142985 183.006084 
z
" style="fill:#800080;opacity:0.4;"/>
   </g>
   <g id="patch_173">
    <path clip-path="url(#peac0fec0ab)" d="M 199.315533 197.8 
L 200.48808 197.8 
L 200.48808 182.969601 
L 199.315533 182.969601 
z
" style="fill:#800080;opacity:0.4;"/>
   </g>
   <g id="patch_174">
    <path clip-path="url(#peac0fec0ab)" d="M 200.48808 197.8 
L 201.660628 197.8 
L 201.660628 183.261466 
L 200.48808 183.261466 
z
" style="fill:#800080;opacity:0.4;"/>
   </g>
   <g id="patch_175">
    <path clip-path="url(#peac0fec0ab)" d="M 201.660628 197.8 
L 202.833176 197.8 
L 202.833176 182.732461 
L 201.660628 182.732461 
z
" style="fill:#800080;opacity:0.4;"/>
   </g>
   <g id="patch_176">
    <path clip-path="url(#peac0fec0ab)" d="M 202.833176 197.8 
L 204.005723 197.8 
L 204.005723 183.079051 
L 202.833176 183.079051 
z
" style="fill:#800080;opacity:0.4;"/>
   </g>
   <g id="patch_177">
    <path clip-path="url(#peac0fec0ab)" d="M 204.005723 197.8 
L 205.178271 197.8 
L 205.178271 184.447169 
L 204.005723 184.447169 
z
" style="fill:#800080;opacity:0.4;"/>
   </g>
   <g id="patch_178">
    <path clip-path="url(#peac0fec0ab)" d="M 205.178271 197.8 
L 206.350818 197.8 
L 206.350818 183.77223 
L 205.178271 183.77223 
z
" style="fill:#800080;opacity:0.4;"/>
   </g>
   <g id="patch_179">
    <path clip-path="url(#peac0fec0ab)" d="M 206.350818 197.8 
L 207.523366 197.8 
L 207.523366 183.243225 
L 206.350818 183.243225 
z
" style="fill:#800080;opacity:0.4;"/>
   </g>
   <g id="patch_180">
    <path clip-path="url(#peac0fec0ab)" d="M 207.523366 197.8 
L 208.695913 197.8 
L 208.695913 184.191787 
L 207.523366 184.191787 
z
" style="fill:#800080;opacity:0.4;"/>
   </g>
   <g id="patch_181">
    <path clip-path="url(#peac0fec0ab)" d="M 208.695913 197.8 
L 209.868461 197.8 
L 209.868461 185.15859 
L 208.695913 185.15859 
z
" style="fill:#800080;opacity:0.4;"/>
   </g>
   <g id="patch_182">
    <path clip-path="url(#peac0fec0ab)" d="M 209.868461 197.8 
L 211.041008 197.8 
L 211.041008 186.015944 
L 209.868461 186.015944 
z
" style="fill:#800080;opacity:0.4;"/>
   </g>
   <g id="patch_183">
    <path clip-path="url(#peac0fec0ab)" d="M 211.041008 197.8 
L 212.213556 197.8 
L 212.213556 187.36582 
L 211.041008 187.36582 
z
" style="fill:#800080;opacity:0.4;"/>
   </g>
   <g id="patch_184">
    <path clip-path="url(#peac0fec0ab)" d="M 212.213556 197.8 
L 213.386103 197.8 
L 213.386103 186.818573 
L 212.213556 186.818573 
z
" style="fill:#800080;opacity:0.4;"/>
   </g>
   <g id="patch_185">
    <path clip-path="url(#peac0fec0ab)" d="M 213.386103 197.8 
L 214.558651 197.8 
L 214.558651 187.858343 
L 213.386103 187.858343 
z
" style="fill:#800080;opacity:0.4;"/>
   </g>
   <g id="patch_186">
    <path clip-path="url(#peac0fec0ab)" d="M 214.558651 197.8 
L 215.731198 197.8 
L 215.731198 187.730652 
L 214.558651 187.730652 
z
" style="fill:#800080;opacity:0.4;"/>
   </g>
   <g id="patch_187">
    <path clip-path="url(#peac0fec0ab)" d="M 215.731198 197.8 
L 216.903746 197.8 
L 216.903746 188.624489 
L 215.731198 188.624489 
z
" style="fill:#800080;opacity:0.4;"/>
   </g>
   <g id="patch_188">
    <path clip-path="url(#peac0fec0ab)" d="M 216.903746 197.8 
L 218.076293 197.8 
L 218.076293 190.576337 
L 216.903746 190.576337 
z
" style="fill:#800080;opacity:0.4;"/>
   </g>
   <g id="patch_189">
    <path clip-path="url(#peac0fec0ab)" d="M 218.076293 197.8 
L 219.248841 197.8 
L 219.248841 182.84191 
L 218.076293 182.84191 
z
" style="fill:#800080;opacity:0.4;"/>
   </g>
   <g id="matplotlib.axis_7">
    <g id="xtick_10">
     <g id="line2d_22">
      <g>
       <use style="stroke:#000000;stroke-width:0.8;" x="147.396956" xlink:href="#m2942d698e0" y="197.8"/>
      </g>
     </g>
     <g id="text_13">
      <!-- 2.5 -->
      <g transform="translate(139.445394 212.398437)scale(0.1 -0.1)">
       <use xlink:href="#DejaVuSans-50"/>
       <use x="63.623047" xlink:href="#DejaVuSans-46"/>
       <use x="95.410156" xlink:href="#DejaVuSans-53"/>
      </g>
     </g>
    </g>
    <g id="xtick_11">
     <g id="line2d_23">
      <g>
       <use style="stroke:#000000;stroke-width:0.8;" x="175.032509" xlink:href="#m2942d698e0" y="197.8"/>
      </g>
     </g>
     <g id="text_14">
      <!-- 5.0 -->
      <g transform="translate(167.080946 212.398437)scale(0.1 -0.1)">
       <use xlink:href="#DejaVuSans-53"/>
       <use x="63.623047" xlink:href="#DejaVuSans-46"/>
       <use x="95.410156" xlink:href="#DejaVuSans-48"/>
      </g>
     </g>
    </g>
    <g id="xtick_12">
     <g id="line2d_24">
      <g>
       <use style="stroke:#000000;stroke-width:0.8;" x="202.668061" xlink:href="#m2942d698e0" y="197.8"/>
      </g>
     </g>
     <g id="text_15">
      <!-- 7.5 -->
      <g transform="translate(194.716499 212.398437)scale(0.1 -0.1)">
       <use xlink:href="#DejaVuSans-55"/>
       <use x="63.623047" xlink:href="#DejaVuSans-46"/>
       <use x="95.410156" xlink:href="#DejaVuSans-53"/>
      </g>
     </g>
    </g>
    <g id="text_16">
     <!-- Velocity (km/s) -->
     <g transform="translate(147.701562 226.076562)scale(0.1 -0.1)">
      <use xlink:href="#DejaVuSans-86"/>
      <use x="60.658203" xlink:href="#DejaVuSans-101"/>
      <use x="122.181641" xlink:href="#DejaVuSans-108"/>
      <use x="149.964844" xlink:href="#DejaVuSans-111"/>
      <use x="211.146484" xlink:href="#DejaVuSans-99"/>
      <use x="266.126953" xlink:href="#DejaVuSans-105"/>
      <use x="293.910156" xlink:href="#DejaVuSans-116"/>
      <use x="333.119141" xlink:href="#DejaVuSans-121"/>
      <use x="392.298828" xlink:href="#DejaVuSans-32"/>
      <use x="424.085938" xlink:href="#DejaVuSans-40"/>
      <use x="463.099609" xlink:href="#DejaVuSans-107"/>
      <use x="521.009766" xlink:href="#DejaVuSans-109"/>
      <use x="618.421875" xlink:href="#DejaVuSans-47"/>
      <use x="652.113281" xlink:href="#DejaVuSans-115"/>
      <use x="704.212891" xlink:href="#DejaVuSans-41"/>
     </g>
    </g>
   </g>
   <g id="matplotlib.axis_8">
    <g id="ytick_10">
     <g id="line2d_25">
      <g>
       <use style="stroke:#000000;stroke-width:0.8;" x="140.765" xlink:href="#md36c59c1ae" y="197.8"/>
      </g>
     </g>
    </g>
    <g id="ytick_11">
     <g id="line2d_26">
      <g>
       <use style="stroke:#000000;stroke-width:0.8;" x="140.765" xlink:href="#md36c59c1ae" y="157.249734"/>
      </g>
     </g>
    </g>
    <g id="ytick_12">
     <g id="line2d_27">
      <g>
       <use style="stroke:#000000;stroke-width:0.8;" x="140.765" xlink:href="#md36c59c1ae" y="116.699468"/>
      </g>
     </g>
    </g>
   </g>
   <g id="line2d_28">
    <path clip-path="url(#peac0fec0ab)" d="M 166.702968 197.798935 
L 167.2789 197.796327 
L 167.854832 197.788931 
L 168.430765 197.770761 
L 169.006697 197.732059 
L 169.582629 197.660461 
L 170.158561 197.544956 
L 170.734494 197.381243 
L 171.310426 197.174702 
L 171.886358 196.938228 
L 172.462291 196.687265 
L 173.038223 196.43833 
L 173.614155 196.213804 
L 174.190088 196.046599 
L 174.76602 195.974073 
L 175.341952 196.01873 
L 175.917884 196.167235 
L 176.493817 196.364452 
L 177.069749 196.529111 
L 177.645681 196.581806 
L 178.221614 196.468812 
L 178.797546 196.170889 
L 179.373478 195.697372 
L 179.949411 195.073668 
L 180.525343 194.331603 
L 181.101275 193.507856 
L 181.677207 192.648273 
L 182.25314 191.809833 
L 182.829072 191.05326 
L 183.405004 190.427864 
L 183.980937 189.958435 
L 184.556869 189.643072 
L 185.132801 189.46105 
L 185.708734 189.381642 
L 186.284666 189.367003 
L 186.860598 189.371663 
L 187.43653 189.346413 
L 188.012463 189.249855 
L 188.588395 189.062003 
L 189.164327 188.790159 
L 189.74026 188.461618 
L 190.316192 188.107183 
L 190.892124 187.746414 
L 191.468057 187.383936 
L 192.043989 187.017184 
L 192.619921 186.647741 
L 193.195854 186.287145 
L 193.771786 185.953243 
L 194.347718 185.660205 
L 194.92365 185.409452 
L 195.499583 185.18723 
L 196.075515 184.96922 
L 196.651447 184.729508 
L 197.22738 184.451944 
L 197.803312 184.140889 
L 198.379244 183.824051 
L 198.955177 183.541155 
L 199.531109 183.323409 
L 200.107041 183.179382 
L 200.682973 183.09878 
L 201.258906 183.069256 
L 201.834838 183.08945 
L 202.41077 183.165746 
L 202.986703 183.296041 
L 203.562635 183.456753 
L 204.138567 183.607686 
L 204.7145 183.713857 
L 205.290432 183.767768 
L 205.866364 183.794966 
L 206.442296 183.84032 
L 207.018229 183.946766 
L 207.594161 184.139874 
L 208.170093 184.423242 
L 208.746026 184.782075 
L 209.321958 185.189881 
L 209.89789 185.614619 
L 210.473823 186.023715 
L 211.049755 186.390012 
L 211.625687 186.699355 
L 212.20162 186.955739 
L 212.777552 187.178587 
L 213.353484 187.392753 
L 213.929416 187.618446 
L 214.505349 187.866282 
L 215.081281 188.135274 
L 215.657213 188.410917 
L 216.233146 188.670333 
L 216.809078 188.906749 
L 217.38501 189.168947 
L 217.960943 189.580081 
L 218.536875 190.293506 
L 219.112807 191.391047 
L 219.688739 192.797218 
L 220.264672 194.290665 
L 220.840604 195.614819 
L 221.416536 196.60235 
L 221.992469 197.225543 
L 222.568401 197.559806 
L 223.144333 197.712691 
L 223.720266 197.772463 
" style="fill:none;stroke:#800080;stroke-linecap:square;stroke-width:1.5;"/>
   </g>
   <g id="patch_190">
    <path d="M 140.765 197.8 
L 140.765 115.838404 
" style="fill:none;stroke:#000000;stroke-linecap:square;stroke-linejoin:miter;stroke-width:0.8;"/>
   </g>
   <g id="patch_191">
    <path d="M 228.96 197.8 
L 228.96 115.838404 
" style="fill:none;stroke:#000000;stroke-linecap:square;stroke-linejoin:miter;stroke-width:0.8;"/>
   </g>
   <g id="patch_192">
    <path d="M 140.765 197.8 
L 228.96 197.8 
" style="fill:none;stroke:#000000;stroke-linecap:square;stroke-linejoin:miter;stroke-width:0.8;"/>
   </g>
   <g id="patch_193">
    <path d="M 140.765 115.838404 
L 228.96 115.838404 
" style="fill:none;stroke:#000000;stroke-linecap:square;stroke-linejoin:miter;stroke-width:0.8;"/>
   </g>
  </g>
 </g>
 <defs>
  <clipPath id="pba3564c2a0">
   <rect height="81.961596" width="88.195" x="38.27" y="13.878404"/>
  </clipPath>
  <clipPath id="p63184ad895">
   <rect height="81.961596" width="88.195" x="140.765" y="13.878404"/>
  </clipPath>
  <clipPath id="pa95b61cfeb">
   <rect height="81.961596" width="88.195" x="38.27" y="115.838404"/>
  </clipPath>
  <clipPath id="peac0fec0ab">
   <rect height="81.961596" width="88.195" x="140.765" y="115.838404"/>
  </clipPath>
 </defs>
</svg>
