<?xml version="1.0" encoding="utf-8" standalone="no"?>
<!DOCTYPE svg PUBLIC "-//W3C//DTD SVG 1.1//EN"
  "http://www.w3.org/Graphics/SVG/1.1/DTD/svg11.dtd">
<!-- Created with matplotlib (https://matplotlib.org/) -->
<svg height="345.6pt" version="1.1" viewBox="0 0 460.8 345.6" width="460.8pt" xmlns="http://www.w3.org/2000/svg" xmlns:xlink="http://www.w3.org/1999/xlink">
 <defs>
  <style type="text/css">
*{stroke-linecap:butt;stroke-linejoin:round;}
  </style>
 </defs>
 <g id="figure_1">
  <g id="patch_1">
   <path d="M 0 345.6 
L 460.8 345.6 
L 460.8 0 
L 0 0 
z
" style="fill:none;"/>
  </g>
  <g id="axes_1">
   <g id="patch_2">
    <path d="M 57.6 99.322435 
L 414.72 99.322435 
L 414.72 41.472 
L 57.6 41.472 
z
" style="fill:none;"/>
   </g>
   <g id="patch_3">
    <path clip-path="url(#p2979eeb313)" d="M 182.828975 99.322435 
L 187.52443 99.322435 
L 187.52443 97.480415 
L 182.828975 97.480415 
z
" style="fill:#1f77b4;opacity:0.4;"/>
   </g>
   <g id="patch_4">
    <path clip-path="url(#p2979eeb313)" d="M 187.52443 99.322435 
L 192.219886 99.322435 
L 192.219886 90.317004 
L 187.52443 90.317004 
z
" style="fill:#1f77b4;opacity:0.4;"/>
   </g>
   <g id="patch_5">
    <path clip-path="url(#p2979eeb313)" d="M 192.219886 99.322435 
L 196.915342 99.322435 
L 196.915342 90.726341 
L 192.219886 90.726341 
z
" style="fill:#1f77b4;opacity:0.4;"/>
   </g>
   <g id="patch_6">
    <path clip-path="url(#p2979eeb313)" d="M 196.915342 99.322435 
L 201.610797 99.322435 
L 201.610797 87.553974 
L 196.915342 87.553974 
z
" style="fill:#1f77b4;opacity:0.4;"/>
   </g>
   <g id="patch_7">
    <path clip-path="url(#p2979eeb313)" d="M 201.610797 99.322435 
L 206.306253 99.322435 
L 206.306253 86.530629 
L 201.610797 86.530629 
z
" style="fill:#1f77b4;opacity:0.4;"/>
   </g>
   <g id="patch_8">
    <path clip-path="url(#p2979eeb313)" d="M 206.306253 99.322435 
L 211.001708 99.322435 
L 211.001708 79.060215 
L 206.306253 79.060215 
z
" style="fill:#1f77b4;opacity:0.4;"/>
   </g>
   <g id="patch_9">
    <path clip-path="url(#p2979eeb313)" d="M 211.001708 99.322435 
L 215.697164 99.322435 
L 215.697164 70.361787 
L 211.001708 70.361787 
z
" style="fill:#1f77b4;opacity:0.4;"/>
   </g>
   <g id="patch_10">
    <path clip-path="url(#p2979eeb313)" d="M 215.697164 99.322435 
L 220.39262 99.322435 
L 220.39262 68.315098 
L 215.697164 68.315098 
z
" style="fill:#1f77b4;opacity:0.4;"/>
   </g>
   <g id="patch_11">
    <path clip-path="url(#p2979eeb313)" d="M 220.39262 99.322435 
L 225.088075 99.322435 
L 225.088075 70.157118 
L 220.39262 70.157118 
z
" style="fill:#1f77b4;opacity:0.4;"/>
   </g>
   <g id="patch_12">
    <path clip-path="url(#p2979eeb313)" d="M 225.088075 99.322435 
L 229.783531 99.322435 
L 229.783531 56.955975 
L 225.088075 56.955975 
z
" style="fill:#1f77b4;opacity:0.4;"/>
   </g>
   <g id="patch_13">
    <path clip-path="url(#p2979eeb313)" d="M 229.783531 99.322435 
L 234.478987 99.322435 
L 234.478987 56.751306 
L 229.783531 56.751306 
z
" style="fill:#1f77b4;opacity:0.4;"/>
   </g>
   <g id="patch_14">
    <path clip-path="url(#p2979eeb313)" d="M 234.478987 99.322435 
L 239.174442 99.322435 
L 239.174442 53.783607 
L 234.478987 53.783607 
z
" style="fill:#1f77b4;opacity:0.4;"/>
   </g>
   <g id="patch_15">
    <path clip-path="url(#p2979eeb313)" d="M 239.174442 99.322435 
L 243.869898 99.322435 
L 243.869898 62.072697 
L 239.174442 62.072697 
z
" style="fill:#1f77b4;opacity:0.4;"/>
   </g>
   <g id="patch_16">
    <path clip-path="url(#p2979eeb313)" d="M 243.869898 99.322435 
L 248.565354 99.322435 
L 248.565354 67.598757 
L 243.869898 67.598757 
z
" style="fill:#1f77b4;opacity:0.4;"/>
   </g>
   <g id="patch_17">
    <path clip-path="url(#p2979eeb313)" d="M 248.565354 99.322435 
L 253.260809 99.322435 
L 253.260809 72.408476 
L 248.565354 72.408476 
z
" style="fill:#1f77b4;opacity:0.4;"/>
   </g>
   <g id="patch_18">
    <path clip-path="url(#p2979eeb313)" d="M 253.260809 99.322435 
L 257.956265 99.322435 
L 257.956265 84.279271 
L 253.260809 84.279271 
z
" style="fill:#1f77b4;opacity:0.4;"/>
   </g>
   <g id="patch_19">
    <path clip-path="url(#p2979eeb313)" d="M 257.956265 99.322435 
L 262.65172 99.322435 
L 262.65172 83.051258 
L 257.956265 83.051258 
z
" style="fill:#1f77b4;opacity:0.4;"/>
   </g>
   <g id="patch_20">
    <path clip-path="url(#p2979eeb313)" d="M 262.65172 99.322435 
L 267.347176 99.322435 
L 267.347176 83.972268 
L 262.65172 83.972268 
z
" style="fill:#1f77b4;opacity:0.4;"/>
   </g>
   <g id="patch_21">
    <path clip-path="url(#p2979eeb313)" d="M 267.347176 99.322435 
L 272.042632 99.322435 
L 272.042632 80.902235 
L 267.347176 80.902235 
z
" style="fill:#1f77b4;opacity:0.4;"/>
   </g>
   <g id="patch_22">
    <path clip-path="url(#p2979eeb313)" d="M 272.042632 99.322435 
L 276.738087 99.322435 
L 276.738087 70.771125 
L 272.042632 70.771125 
z
" style="fill:#1f77b4;opacity:0.4;"/>
   </g>
   <g id="patch_23">
    <path clip-path="url(#p2979eeb313)" d="M 276.738087 99.322435 
L 281.433543 99.322435 
L 281.433543 71.794469 
L 276.738087 71.794469 
z
" style="fill:#1f77b4;opacity:0.4;"/>
   </g>
   <g id="patch_24">
    <path clip-path="url(#p2979eeb313)" d="M 281.433543 99.322435 
L 286.128999 99.322435 
L 286.128999 75.27384 
L 281.433543 75.27384 
z
" style="fill:#1f77b4;opacity:0.4;"/>
   </g>
   <g id="patch_25">
    <path clip-path="url(#p2979eeb313)" d="M 286.128999 99.322435 
L 290.824454 99.322435 
L 290.824454 80.7999 
L 286.128999 80.7999 
z
" style="fill:#1f77b4;opacity:0.4;"/>
   </g>
   <g id="patch_26">
    <path clip-path="url(#p2979eeb313)" d="M 290.824454 99.322435 
L 295.51991 99.322435 
L 295.51991 89.191325 
L 290.824454 89.191325 
z
" style="fill:#1f77b4;opacity:0.4;"/>
   </g>
   <g id="patch_27">
    <path clip-path="url(#p2979eeb313)" d="M 295.51991 99.322435 
L 300.215365 99.322435 
L 300.215365 95.740729 
L 295.51991 95.740729 
z
" style="fill:#1f77b4;opacity:0.4;"/>
   </g>
   <g id="patch_28">
    <path clip-path="url(#p2979eeb313)" d="M 300.215365 99.322435 
L 304.910821 99.322435 
L 304.910821 97.071077 
L 300.215365 97.071077 
z
" style="fill:#1f77b4;opacity:0.4;"/>
   </g>
   <g id="patch_29">
    <path clip-path="url(#p2979eeb313)" d="M 304.910821 99.322435 
L 309.606277 99.322435 
L 309.606277 95.945398 
L 304.910821 95.945398 
z
" style="fill:#1f77b4;opacity:0.4;"/>
   </g>
   <g id="matplotlib.axis_1">
    <g id="xtick_1">
     <g id="line2d_1">
      <defs>
       <path d="M 0 0 
L 0 3.5 
" id="m4c588b4cfa" style="stroke:#000000;stroke-width:0.8;"/>
      </defs>
      <g>
       <use style="stroke:#000000;stroke-width:0.8;" x="100.737479" xlink:href="#m4c588b4cfa" y="99.322435"/>
      </g>
     </g>
    </g>
    <g id="xtick_2">
     <g id="line2d_2">
      <g>
       <use style="stroke:#000000;stroke-width:0.8;" x="154.530977" xlink:href="#m4c588b4cfa" y="99.322435"/>
      </g>
     </g>
    </g>
    <g id="xtick_3">
     <g id="line2d_3">
      <g>
       <use style="stroke:#000000;stroke-width:0.8;" x="208.324475" xlink:href="#m4c588b4cfa" y="99.322435"/>
      </g>
     </g>
    </g>
    <g id="xtick_4">
     <g id="line2d_4">
      <g>
       <use style="stroke:#000000;stroke-width:0.8;" x="262.117974" xlink:href="#m4c588b4cfa" y="99.322435"/>
      </g>
     </g>
    </g>
    <g id="xtick_5">
     <g id="line2d_5">
      <g>
       <use style="stroke:#000000;stroke-width:0.8;" x="315.911472" xlink:href="#m4c588b4cfa" y="99.322435"/>
      </g>
     </g>
    </g>
    <g id="xtick_6">
     <g id="line2d_6">
      <g>
       <use style="stroke:#000000;stroke-width:0.8;" x="369.70497" xlink:href="#m4c588b4cfa" y="99.322435"/>
      </g>
     </g>
    </g>
   </g>
   <g id="matplotlib.axis_2">
    <g id="ytick_1">
     <g id="line2d_7">
      <defs>
       <path d="M 0 0 
L -3.5 0 
" id="m1a615a5c6b" style="stroke:#000000;stroke-width:0.8;"/>
      </defs>
      <g>
       <use style="stroke:#000000;stroke-width:0.8;" x="57.6" xlink:href="#m1a615a5c6b" y="99.322435"/>
      </g>
     </g>
     <g id="text_1">
      <!-- 0 -->
      <defs>
       <path d="M 31.78125 66.40625 
Q 24.171875 66.40625 20.328125 58.90625 
Q 16.5 51.421875 16.5 36.375 
Q 16.5 21.390625 20.328125 13.890625 
Q 24.171875 6.390625 31.78125 6.390625 
Q 39.453125 6.390625 43.28125 13.890625 
Q 47.125 21.390625 47.125 36.375 
Q 47.125 51.421875 43.28125 58.90625 
Q 39.453125 66.40625 31.78125 66.40625 
z
M 31.78125 74.21875 
Q 44.046875 74.21875 50.515625 64.515625 
Q 56.984375 54.828125 56.984375 36.375 
Q 56.984375 17.96875 50.515625 8.265625 
Q 44.046875 -1.421875 31.78125 -1.421875 
Q 19.53125 -1.421875 13.0625 8.265625 
Q 6.59375 17.96875 6.59375 36.375 
Q 6.59375 54.828125 13.0625 64.515625 
Q 19.53125 74.21875 31.78125 74.21875 
z
" id="DejaVuSans-48"/>
      </defs>
      <g transform="translate(44.2375 103.121654)scale(0.1 -0.1)">
       <use xlink:href="#DejaVuSans-48"/>
      </g>
     </g>
    </g>
    <g id="ytick_2">
     <g id="line2d_8">
      <g>
       <use style="stroke:#000000;stroke-width:0.8;" x="57.6" xlink:href="#m1a615a5c6b" y="50.194051"/>
      </g>
     </g>
     <g id="text_2">
      <!-- 5 -->
      <defs>
       <path d="M 10.796875 72.90625 
L 49.515625 72.90625 
L 49.515625 64.59375 
L 19.828125 64.59375 
L 19.828125 46.734375 
Q 21.96875 47.46875 24.109375 47.828125 
Q 26.265625 48.1875 28.421875 48.1875 
Q 40.625 48.1875 47.75 41.5 
Q 54.890625 34.8125 54.890625 23.390625 
Q 54.890625 11.625 47.5625 5.09375 
Q 40.234375 -1.421875 26.90625 -1.421875 
Q 22.3125 -1.421875 17.546875 -0.640625 
Q 12.796875 0.140625 7.71875 1.703125 
L 7.71875 11.625 
Q 12.109375 9.234375 16.796875 8.0625 
Q 21.484375 6.890625 26.703125 6.890625 
Q 35.15625 6.890625 40.078125 11.328125 
Q 45.015625 15.765625 45.015625 23.390625 
Q 45.015625 31 40.078125 35.4375 
Q 35.15625 39.890625 26.703125 39.890625 
Q 22.75 39.890625 18.8125 39.015625 
Q 14.890625 38.140625 10.796875 36.28125 
z
" id="DejaVuSans-53"/>
      </defs>
      <g transform="translate(44.2375 53.99327)scale(0.1 -0.1)">
       <use xlink:href="#DejaVuSans-53"/>
      </g>
     </g>
    </g>
   </g>
   <g id="line2d_9">
    <path clip-path="url(#p2979eeb313)" d="M 168.192372 99.320691 
L 169.76864 99.31735 
L 171.344907 99.308739 
L 172.921175 99.288279 
L 174.497443 99.243433 
L 176.073711 99.152749 
L 177.649978 98.983735 
L 179.226246 98.693859 
L 180.802514 98.237332 
L 182.378782 97.57868 
L 183.955049 96.710184 
L 185.531317 95.66549 
L 187.107585 94.519779 
L 188.683853 93.371253 
L 190.26012 92.308687 
L 191.836388 91.379711 
L 193.412656 90.576557 
L 194.988924 89.846791 
L 196.565192 89.121111 
L 198.141459 88.339557 
L 199.717727 87.4602 
L 201.293995 86.449122 
L 202.870263 85.265865 
L 204.44653 83.862017 
L 206.022798 82.199863 
L 207.599066 80.282289 
L 209.175334 78.176221 
L 210.751601 76.013931 
L 212.327869 73.965697 
L 213.904137 72.188537 
L 215.480405 70.767178 
L 217.056672 69.672313 
L 218.63294 68.760648 
L 220.209208 67.82564 
L 221.785476 66.681653 
L 223.361743 65.24315 
L 224.938011 63.55997 
L 226.514279 61.792304 
L 228.090547 60.141635 
L 229.666814 58.776562 
L 231.243082 57.791589 
L 232.81935 57.213533 
L 234.395618 57.039353 
L 235.971885 57.271451 
L 237.548153 57.923824 
L 239.124421 58.999054 
L 240.700689 60.460652 
L 242.276956 62.228156 
L 243.853224 64.202119 
L 245.429492 66.300826 
L 247.00576 68.481159 
L 248.582027 70.728472 
L 250.158295 73.023052 
L 251.734563 75.306794 
L 253.310831 77.473304 
L 254.887098 79.38951 
L 256.463366 80.93696 
L 258.039634 82.048463 
L 259.615902 82.718801 
L 261.192169 82.98506 
L 262.768437 82.891515 
L 264.344705 82.462836 
L 265.920973 81.702735 
L 267.49724 80.61867 
L 269.073508 79.257117 
L 270.649776 77.726965 
L 272.226044 76.194155 
L 273.802311 74.846616 
L 275.378579 73.846431 
L 276.954847 73.294264 
L 278.531115 73.222928 
L 280.107382 73.617831 
L 281.68365 74.445985 
L 283.259918 75.673674 
L 284.836186 77.264973 
L 286.412453 79.168396 
L 287.988721 81.305948 
L 289.564989 83.574542 
L 291.141257 85.859452 
L 292.717524 88.051526 
L 294.293792 90.05965 
L 295.87006 91.816029 
L 297.446328 93.278162 
L 299.022595 94.432143 
L 300.598863 95.297157 
L 302.175131 95.925836 
L 303.751399 96.394851 
L 305.327666 96.785494 
L 306.903934 97.161025 
L 308.480202 97.55102 
L 310.05647 97.949922 
L 311.632737 98.32943 
L 313.209005 98.657175 
L 314.785273 98.912027 
L 316.361541 99.090167 
L 317.937808 99.202159 
L 319.514076 99.265554 
L 321.090344 99.297903 
L 322.666612 99.312797 
L 324.24288 99.318989 
" style="fill:none;stroke:#1f77b4;stroke-linecap:square;stroke-width:1.5;"/>
   </g>
   <g id="patch_30">
    <path d="M 57.6 99.322435 
L 57.6 41.472 
" style="fill:none;stroke:#000000;stroke-linecap:square;stroke-linejoin:miter;stroke-width:0.8;"/>
   </g>
   <g id="patch_31">
    <path d="M 414.72 99.322435 
L 414.72 41.472 
" style="fill:none;stroke:#000000;stroke-linecap:square;stroke-linejoin:miter;stroke-width:0.8;"/>
   </g>
   <g id="patch_32">
    <path d="M 57.6 99.322435 
L 414.72 99.322435 
" style="fill:none;stroke:#000000;stroke-linecap:square;stroke-linejoin:miter;stroke-width:0.8;"/>
   </g>
   <g id="patch_33">
    <path d="M 57.6 41.472 
L 414.72 41.472 
" style="fill:none;stroke:#000000;stroke-linecap:square;stroke-linejoin:miter;stroke-width:0.8;"/>
   </g>
  </g>
  <g id="axes_2">
   <g id="patch_34">
    <path d="M 57.6 168.742957 
L 414.72 168.742957 
L 414.72 110.892522 
L 57.6 110.892522 
z
" style="fill:none;"/>
   </g>
   <g id="patch_35">
    <path clip-path="url(#pd62da00e3e)" d="M 89.996193 168.742957 
L 95.863094 168.742957 
L 95.863094 157.479345 
L 89.996193 157.479345 
z
" style="fill:#1f77b4;opacity:0.4;"/>
   </g>
   <g id="patch_36">
    <path clip-path="url(#pd62da00e3e)" d="M 95.863094 168.742957 
L 101.729995 168.742957 
L 101.729995 158.090548 
L 95.863094 158.090548 
z
" style="fill:#1f77b4;opacity:0.4;"/>
   </g>
   <g id="patch_37">
    <path clip-path="url(#pd62da00e3e)" d="M 101.729995 168.742957 
L 107.596897 168.742957 
L 107.596897 139.667121 
L 101.729995 139.667121 
z
" style="fill:#1f77b4;opacity:0.4;"/>
   </g>
   <g id="patch_38">
    <path clip-path="url(#pd62da00e3e)" d="M 107.596897 168.742957 
L 113.463798 168.742957 
L 113.463798 147.61277 
L 107.596897 147.61277 
z
" style="fill:#1f77b4;opacity:0.4;"/>
   </g>
   <g id="patch_39">
    <path clip-path="url(#pd62da00e3e)" d="M 113.463798 168.742957 
L 119.330699 168.742957 
L 119.330699 154.68527 
L 113.463798 154.68527 
z
" style="fill:#1f77b4;opacity:0.4;"/>
   </g>
   <g id="patch_40">
    <path clip-path="url(#pd62da00e3e)" d="M 119.330699 168.742957 
L 125.1976 168.742957 
L 125.1976 141.500732 
L 119.330699 141.500732 
z
" style="fill:#1f77b4;opacity:0.4;"/>
   </g>
   <g id="patch_41">
    <path clip-path="url(#pd62da00e3e)" d="M 125.1976 168.742957 
L 131.064501 168.742957 
L 131.064501 140.278325 
L 125.1976 140.278325 
z
" style="fill:#1f77b4;opacity:0.4;"/>
   </g>
   <g id="patch_42">
    <path clip-path="url(#pd62da00e3e)" d="M 131.064501 168.742957 
L 136.931402 168.742957 
L 136.931402 156.256937 
L 131.064501 156.256937 
z
" style="fill:#1f77b4;opacity:0.4;"/>
   </g>
   <g id="patch_43">
    <path clip-path="url(#pd62da00e3e)" d="M 136.931402 168.742957 
L 142.798303 168.742957 
L 142.798303 152.5024 
L 136.931402 152.5024 
z
" style="fill:#1f77b4;opacity:0.4;"/>
   </g>
   <g id="patch_44">
    <path clip-path="url(#pd62da00e3e)" d="M 142.798303 168.742957 
L 148.665204 168.742957 
L 148.665204 158.876382 
L 142.798303 158.876382 
z
" style="fill:#1f77b4;opacity:0.4;"/>
   </g>
   <g id="patch_45">
    <path clip-path="url(#pd62da00e3e)" d="M 148.665204 168.742957 
L 154.532106 168.742957 
L 154.532106 158.352493 
L 148.665204 158.352493 
z
" style="fill:#1f77b4;opacity:0.4;"/>
   </g>
   <g id="patch_46">
    <path clip-path="url(#pd62da00e3e)" d="M 154.532106 168.742957 
L 160.399007 168.742957 
L 160.399007 143.858232 
L 154.532106 143.858232 
z
" style="fill:#1f77b4;opacity:0.4;"/>
   </g>
   <g id="patch_47">
    <path clip-path="url(#pd62da00e3e)" d="M 160.399007 168.742957 
L 166.265908 168.742957 
L 166.265908 132.332676 
L 160.399007 132.332676 
z
" style="fill:#1f77b4;opacity:0.4;"/>
   </g>
   <g id="patch_48">
    <path clip-path="url(#pd62da00e3e)" d="M 166.265908 168.742957 
L 172.132809 168.742957 
L 172.132809 113.647304 
L 166.265908 113.647304 
z
" style="fill:#1f77b4;opacity:0.4;"/>
   </g>
   <g id="patch_49">
    <path clip-path="url(#pd62da00e3e)" d="M 172.132809 168.742957 
L 177.99971 168.742957 
L 177.99971 121.592953 
L 172.132809 121.592953 
z
" style="fill:#1f77b4;opacity:0.4;"/>
   </g>
   <g id="patch_50">
    <path clip-path="url(#pd62da00e3e)" d="M 177.99971 168.742957 
L 183.866611 168.742957 
L 183.866611 123.601194 
L 177.99971 123.601194 
z
" style="fill:#1f77b4;opacity:0.4;"/>
   </g>
   <g id="patch_51">
    <path clip-path="url(#pd62da00e3e)" d="M 183.866611 168.742957 
L 189.733512 168.742957 
L 189.733512 143.334344 
L 183.866611 143.334344 
z
" style="fill:#1f77b4;opacity:0.4;"/>
   </g>
   <g id="patch_52">
    <path clip-path="url(#pd62da00e3e)" d="M 189.733512 168.742957 
L 195.600413 168.742957 
L 195.600413 154.161381 
L 189.733512 154.161381 
z
" style="fill:#1f77b4;opacity:0.4;"/>
   </g>
   <g id="patch_53">
    <path clip-path="url(#pd62da00e3e)" d="M 195.600413 168.742957 
L 201.467315 168.742957 
L 201.467315 161.146567 
L 195.600413 161.146567 
z
" style="fill:#1f77b4;opacity:0.4;"/>
   </g>
   <g id="patch_54">
    <path clip-path="url(#pd62da00e3e)" d="M 201.467315 168.742957 
L 207.334216 168.742957 
L 207.334216 165.424993 
L 201.467315 165.424993 
z
" style="fill:#1f77b4;opacity:0.4;"/>
   </g>
   <g id="matplotlib.axis_3">
    <g id="xtick_7">
     <g id="line2d_10">
      <g>
       <use style="stroke:#000000;stroke-width:0.8;" x="100.737479" xlink:href="#m4c588b4cfa" y="168.742957"/>
      </g>
     </g>
    </g>
    <g id="xtick_8">
     <g id="line2d_11">
      <g>
       <use style="stroke:#000000;stroke-width:0.8;" x="154.530977" xlink:href="#m4c588b4cfa" y="168.742957"/>
      </g>
     </g>
    </g>
    <g id="xtick_9">
     <g id="line2d_12">
      <g>
       <use style="stroke:#000000;stroke-width:0.8;" x="208.324475" xlink:href="#m4c588b4cfa" y="168.742957"/>
      </g>
     </g>
    </g>
    <g id="xtick_10">
     <g id="line2d_13">
      <g>
       <use style="stroke:#000000;stroke-width:0.8;" x="262.117974" xlink:href="#m4c588b4cfa" y="168.742957"/>
      </g>
     </g>
    </g>
    <g id="xtick_11">
     <g id="line2d_14">
      <g>
       <use style="stroke:#000000;stroke-width:0.8;" x="315.911472" xlink:href="#m4c588b4cfa" y="168.742957"/>
      </g>
     </g>
    </g>
    <g id="xtick_12">
     <g id="line2d_15">
      <g>
       <use style="stroke:#000000;stroke-width:0.8;" x="369.70497" xlink:href="#m4c588b4cfa" y="168.742957"/>
      </g>
     </g>
    </g>
   </g>
   <g id="matplotlib.axis_4">
    <g id="ytick_3">
     <g id="line2d_16">
      <g>
       <use style="stroke:#000000;stroke-width:0.8;" x="57.6" xlink:href="#m1a615a5c6b" y="168.742957"/>
      </g>
     </g>
     <g id="text_3">
      <!-- 0 -->
      <g transform="translate(44.2375 172.542175)scale(0.1 -0.1)">
       <use xlink:href="#DejaVuSans-48"/>
      </g>
     </g>
    </g>
    <g id="ytick_4">
     <g id="line2d_17">
      <g>
       <use style="stroke:#000000;stroke-width:0.8;" x="57.6" xlink:href="#m1a615a5c6b" y="119.614573"/>
      </g>
     </g>
     <g id="text_4">
      <!-- 5 -->
      <g transform="translate(44.2375 123.413791)scale(0.1 -0.1)">
       <use xlink:href="#DejaVuSans-53"/>
      </g>
     </g>
    </g>
   </g>
   <g id="line2d_18">
    <path clip-path="url(#pd62da00e3e)" d="M 73.832727 168.729736 
L 75.344494 168.710554 
L 76.856262 168.669124 
L 78.368029 168.586414 
L 79.879796 168.433806 
L 81.391563 168.17353 
L 82.903331 167.763043 
L 84.415098 167.163802 
L 85.926865 166.352396 
L 87.438632 165.329222 
L 88.950399 164.118965 
L 90.462167 162.759957 
L 91.973934 161.285776 
L 93.485701 159.709016 
L 94.997468 158.019093 
L 96.509236 156.200138 
L 98.021003 154.263264 
L 99.53277 152.276693 
L 101.044537 150.374819 
L 102.556304 148.73623 
L 104.068072 147.536283 
L 105.579839 146.892689 
L 107.091606 146.825381 
L 108.603373 147.244124 
L 110.11514 147.965105 
L 111.626908 148.748503 
L 113.138675 149.34622 
L 114.650442 149.550807 
L 116.162209 149.238941 
L 117.673977 148.403025 
L 119.185744 147.163191 
L 120.697511 145.752195 
L 122.209278 144.470267 
L 123.721045 143.616329 
L 125.232813 143.412835 
L 126.74458 143.947733 
L 128.256347 145.153722 
L 129.768114 146.832037 
L 131.279881 148.711511 
L 132.791649 150.521866 
L 134.303416 152.058009 
L 135.815183 153.218388 
L 137.32695 154.010251 
L 138.838718 154.52389 
L 140.350485 154.885391 
L 141.862252 155.202959 
L 143.374019 155.52399 
L 144.885786 155.816546 
L 146.397554 155.979637 
L 147.909321 155.875626 
L 149.421088 155.370737 
L 150.932855 154.369048 
L 152.444623 152.830542 
L 153.95639 150.771057 
L 155.468157 148.24845 
L 156.979924 145.34345 
L 158.491691 142.144885 
L 160.003459 138.746217 
L 161.515226 135.253676 
L 163.026993 131.798516 
L 164.53876 128.541509 
L 166.050527 125.660584 
L 167.562295 123.321679 
L 169.074062 121.643405 
L 170.585829 120.671497 
L 172.097596 120.375835 
L 173.609364 120.672708 
L 175.121131 121.463317 
L 176.632898 122.672102 
L 178.144665 124.268533 
L 179.656432 126.263327 
L 181.1682 128.681241 
L 182.679967 131.52302 
L 184.191734 134.734185 
L 185.703501 138.195417 
L 187.215268 141.739577 
L 188.727036 145.188207 
L 190.238803 148.39198 
L 191.75057 151.25906 
L 193.262337 153.762417 
L 194.774105 155.927366 
L 196.285872 157.808299 
L 197.797639 159.465388 
L 199.309406 160.948563 
L 200.821173 162.290612 
L 202.332941 163.507218 
L 203.844708 164.600669 
L 205.356475 165.564949 
L 206.868242 166.391196 
L 208.38001 167.072966 
L 209.891777 167.610465 
L 211.403544 168.01268 
L 212.915311 168.296844 
L 214.427078 168.485606 
L 215.938846 168.603135 
L 217.450613 168.671567 
L 218.96238 168.708765 
L 220.474147 168.727618 
L 221.985914 168.73652 
L 223.497682 168.740433 
" style="fill:none;stroke:#1f77b4;stroke-linecap:square;stroke-width:1.5;"/>
   </g>
   <g id="patch_55">
    <path d="M 57.6 168.742957 
L 57.6 110.892522 
" style="fill:none;stroke:#000000;stroke-linecap:square;stroke-linejoin:miter;stroke-width:0.8;"/>
   </g>
   <g id="patch_56">
    <path d="M 414.72 168.742957 
L 414.72 110.892522 
" style="fill:none;stroke:#000000;stroke-linecap:square;stroke-linejoin:miter;stroke-width:0.8;"/>
   </g>
   <g id="patch_57">
    <path d="M 57.6 168.742957 
L 414.72 168.742957 
" style="fill:none;stroke:#000000;stroke-linecap:square;stroke-linejoin:miter;stroke-width:0.8;"/>
   </g>
   <g id="patch_58">
    <path d="M 57.6 110.892522 
L 414.72 110.892522 
" style="fill:none;stroke:#000000;stroke-linecap:square;stroke-linejoin:miter;stroke-width:0.8;"/>
   </g>
  </g>
  <g id="axes_3">
   <g id="patch_59">
    <path d="M 57.6 238.163478 
L 414.72 238.163478 
L 414.72 180.313043 
L 57.6 180.313043 
z
" style="fill:none;"/>
   </g>
   <g id="patch_60">
    <path clip-path="url(#p8cf3996f16)" d="M 131.996905 238.163478 
L 137.237089 238.163478 
L 137.237089 233.044365 
L 131.996905 233.044365 
z
" style="fill:#1f77b4;opacity:0.4;"/>
   </g>
   <g id="patch_61">
    <path clip-path="url(#p8cf3996f16)" d="M 137.237089 238.163478 
L 142.477272 238.163478 
L 142.477272 217.096357 
L 137.237089 217.096357 
z
" style="fill:#1f77b4;opacity:0.4;"/>
   </g>
   <g id="patch_62">
    <path clip-path="url(#p8cf3996f16)" d="M 142.477272 238.163478 
L 147.717455 238.163478 
L 147.717455 204.298573 
L 142.477272 204.298573 
z
" style="fill:#1f77b4;opacity:0.4;"/>
   </g>
   <g id="patch_63">
    <path clip-path="url(#p8cf3996f16)" d="M 147.717455 238.163478 
L 152.957639 238.163478 
L 152.957639 185.495674 
L 147.717455 185.495674 
z
" style="fill:#1f77b4;opacity:0.4;"/>
   </g>
   <g id="patch_64">
    <path clip-path="url(#p8cf3996f16)" d="M 152.957639 238.163478 
L 158.197822 238.163478 
L 158.197822 189.728788 
L 152.957639 189.728788 
z
" style="fill:#1f77b4;opacity:0.4;"/>
   </g>
   <g id="patch_65">
    <path clip-path="url(#p8cf3996f16)" d="M 158.197822 238.163478 
L 163.438006 238.163478 
L 163.438006 191.10701 
L 158.197822 191.10701 
z
" style="fill:#1f77b4;opacity:0.4;"/>
   </g>
   <g id="patch_66">
    <path clip-path="url(#p8cf3996f16)" d="M 163.438006 238.163478 
L 168.678189 238.163478 
L 168.678189 208.433241 
L 163.438006 208.433241 
z
" style="fill:#1f77b4;opacity:0.4;"/>
   </g>
   <g id="patch_67">
    <path clip-path="url(#p8cf3996f16)" d="M 168.678189 238.163478 
L 173.918372 238.163478 
L 173.918372 215.915023 
L 168.678189 215.915023 
z
" style="fill:#1f77b4;opacity:0.4;"/>
   </g>
   <g id="patch_68">
    <path clip-path="url(#p8cf3996f16)" d="M 173.918372 238.163478 
L 179.158556 238.163478 
L 179.158556 221.920137 
L 173.918372 221.920137 
z
" style="fill:#1f77b4;opacity:0.4;"/>
   </g>
   <g id="patch_69">
    <path clip-path="url(#p8cf3996f16)" d="M 179.158556 238.163478 
L 184.398739 238.163478 
L 184.398739 232.256809 
L 179.158556 232.256809 
z
" style="fill:#1f77b4;opacity:0.4;"/>
   </g>
   <g id="patch_70">
    <path clip-path="url(#p8cf3996f16)" d="M 184.398739 238.163478 
L 189.638922 238.163478 
L 189.638922 223.101471 
L 184.398739 223.101471 
z
" style="fill:#1f77b4;opacity:0.4;"/>
   </g>
   <g id="patch_71">
    <path clip-path="url(#p8cf3996f16)" d="M 189.638922 238.163478 
L 194.879106 238.163478 
L 194.879106 210.500576 
L 189.638922 210.500576 
z
" style="fill:#1f77b4;opacity:0.4;"/>
   </g>
   <g id="patch_72">
    <path clip-path="url(#p8cf3996f16)" d="M 194.879106 238.163478 
L 200.119289 238.163478 
L 200.119289 196.12768 
L 194.879106 196.12768 
z
" style="fill:#1f77b4;opacity:0.4;"/>
   </g>
   <g id="patch_73">
    <path clip-path="url(#p8cf3996f16)" d="M 200.119289 238.163478 
L 205.359472 238.163478 
L 205.359472 200.557682 
L 200.119289 200.557682 
z
" style="fill:#1f77b4;opacity:0.4;"/>
   </g>
   <g id="patch_74">
    <path clip-path="url(#p8cf3996f16)" d="M 205.359472 238.163478 
L 210.599656 238.163478 
L 210.599656 204.987684 
L 205.359472 204.987684 
z
" style="fill:#1f77b4;opacity:0.4;"/>
   </g>
   <g id="patch_75">
    <path clip-path="url(#p8cf3996f16)" d="M 210.599656 238.163478 
L 215.839839 238.163478 
L 215.839839 210.795909 
L 210.599656 210.795909 
z
" style="fill:#1f77b4;opacity:0.4;"/>
   </g>
   <g id="patch_76">
    <path clip-path="url(#p8cf3996f16)" d="M 215.839839 238.163478 
L 221.080022 238.163478 
L 221.080022 226.350139 
L 215.839839 226.350139 
z
" style="fill:#1f77b4;opacity:0.4;"/>
   </g>
   <g id="patch_77">
    <path clip-path="url(#p8cf3996f16)" d="M 221.080022 238.163478 
L 226.320206 238.163478 
L 226.320206 227.925251 
L 221.080022 227.925251 
z
" style="fill:#1f77b4;opacity:0.4;"/>
   </g>
   <g id="patch_78">
    <path clip-path="url(#p8cf3996f16)" d="M 226.320206 238.163478 
L 231.560389 238.163478 
L 231.560389 230.189474 
L 226.320206 230.189474 
z
" style="fill:#1f77b4;opacity:0.4;"/>
   </g>
   <g id="patch_79">
    <path clip-path="url(#p8cf3996f16)" d="M 231.560389 238.163478 
L 236.800572 238.163478 
L 236.800572 230.780141 
L 231.560389 230.780141 
z
" style="fill:#1f77b4;opacity:0.4;"/>
   </g>
   <g id="patch_80">
    <path clip-path="url(#p8cf3996f16)" d="M 236.800572 238.163478 
L 242.040756 238.163478 
L 242.040756 236.489922 
L 236.800572 236.489922 
z
" style="fill:#1f77b4;opacity:0.4;"/>
   </g>
   <g id="matplotlib.axis_5">
    <g id="xtick_13">
     <g id="line2d_19">
      <g>
       <use style="stroke:#000000;stroke-width:0.8;" x="100.737479" xlink:href="#m4c588b4cfa" y="238.163478"/>
      </g>
     </g>
    </g>
    <g id="xtick_14">
     <g id="line2d_20">
      <g>
       <use style="stroke:#000000;stroke-width:0.8;" x="154.530977" xlink:href="#m4c588b4cfa" y="238.163478"/>
      </g>
     </g>
    </g>
    <g id="xtick_15">
     <g id="line2d_21">
      <g>
       <use style="stroke:#000000;stroke-width:0.8;" x="208.324475" xlink:href="#m4c588b4cfa" y="238.163478"/>
      </g>
     </g>
    </g>
    <g id="xtick_16">
     <g id="line2d_22">
      <g>
       <use style="stroke:#000000;stroke-width:0.8;" x="262.117974" xlink:href="#m4c588b4cfa" y="238.163478"/>
      </g>
     </g>
    </g>
    <g id="xtick_17">
     <g id="line2d_23">
      <g>
       <use style="stroke:#000000;stroke-width:0.8;" x="315.911472" xlink:href="#m4c588b4cfa" y="238.163478"/>
      </g>
     </g>
    </g>
    <g id="xtick_18">
     <g id="line2d_24">
      <g>
       <use style="stroke:#000000;stroke-width:0.8;" x="369.70497" xlink:href="#m4c588b4cfa" y="238.163478"/>
      </g>
     </g>
    </g>
   </g>
   <g id="matplotlib.axis_6">
    <g id="ytick_5">
     <g id="line2d_25">
      <g>
       <use style="stroke:#000000;stroke-width:0.8;" x="57.6" xlink:href="#m1a615a5c6b" y="238.163478"/>
      </g>
     </g>
     <g id="text_5">
      <!-- 0 -->
      <g transform="translate(44.2375 241.962697)scale(0.1 -0.1)">
       <use xlink:href="#DejaVuSans-48"/>
      </g>
     </g>
    </g>
    <g id="ytick_6">
     <g id="line2d_26">
      <g>
       <use style="stroke:#000000;stroke-width:0.8;" x="57.6" xlink:href="#m1a615a5c6b" y="189.035094"/>
      </g>
     </g>
     <g id="text_6">
      <!-- 5 -->
      <g transform="translate(44.2375 192.834313)scale(0.1 -0.1)">
       <use xlink:href="#DejaVuSans-53"/>
      </g>
     </g>
    </g>
    <g id="text_7">
     <!-- Density -->
     <defs>
      <path d="M 19.671875 64.796875 
L 19.671875 8.109375 
L 31.59375 8.109375 
Q 46.6875 8.109375 53.6875 14.9375 
Q 60.6875 21.78125 60.6875 36.53125 
Q 60.6875 51.171875 53.6875 57.984375 
Q 46.6875 64.796875 31.59375 64.796875 
z
M 9.8125 72.90625 
L 30.078125 72.90625 
Q 51.265625 72.90625 61.171875 64.09375 
Q 71.09375 55.28125 71.09375 36.53125 
Q 71.09375 17.671875 61.125 8.828125 
Q 51.171875 0 30.078125 0 
L 9.8125 0 
z
" id="DejaVuSans-68"/>
      <path d="M 56.203125 29.59375 
L 56.203125 25.203125 
L 14.890625 25.203125 
Q 15.484375 15.921875 20.484375 11.0625 
Q 25.484375 6.203125 34.421875 6.203125 
Q 39.59375 6.203125 44.453125 7.46875 
Q 49.3125 8.734375 54.109375 11.28125 
L 54.109375 2.78125 
Q 49.265625 0.734375 44.1875 -0.34375 
Q 39.109375 -1.421875 33.890625 -1.421875 
Q 20.796875 -1.421875 13.15625 6.1875 
Q 5.515625 13.8125 5.515625 26.8125 
Q 5.515625 40.234375 12.765625 48.109375 
Q 20.015625 56 32.328125 56 
Q 43.359375 56 49.78125 48.890625 
Q 56.203125 41.796875 56.203125 29.59375 
z
M 47.21875 32.234375 
Q 47.125 39.59375 43.09375 43.984375 
Q 39.0625 48.390625 32.421875 48.390625 
Q 24.90625 48.390625 20.390625 44.140625 
Q 15.875 39.890625 15.1875 32.171875 
z
" id="DejaVuSans-101"/>
      <path d="M 54.890625 33.015625 
L 54.890625 0 
L 45.90625 0 
L 45.90625 32.71875 
Q 45.90625 40.484375 42.875 44.328125 
Q 39.84375 48.1875 33.796875 48.1875 
Q 26.515625 48.1875 22.3125 43.546875 
Q 18.109375 38.921875 18.109375 30.90625 
L 18.109375 0 
L 9.078125 0 
L 9.078125 54.6875 
L 18.109375 54.6875 
L 18.109375 46.1875 
Q 21.34375 51.125 25.703125 53.5625 
Q 30.078125 56 35.796875 56 
Q 45.21875 56 50.046875 50.171875 
Q 54.890625 44.34375 54.890625 33.015625 
z
" id="DejaVuSans-110"/>
      <path d="M 44.28125 53.078125 
L 44.28125 44.578125 
Q 40.484375 46.53125 36.375 47.5 
Q 32.28125 48.484375 27.875 48.484375 
Q 21.1875 48.484375 17.84375 46.4375 
Q 14.5 44.390625 14.5 40.28125 
Q 14.5 37.15625 16.890625 35.375 
Q 19.28125 33.59375 26.515625 31.984375 
L 29.59375 31.296875 
Q 39.15625 29.25 43.1875 25.515625 
Q 47.21875 21.78125 47.21875 15.09375 
Q 47.21875 7.46875 41.1875 3.015625 
Q 35.15625 -1.421875 24.609375 -1.421875 
Q 20.21875 -1.421875 15.453125 -0.5625 
Q 10.6875 0.296875 5.421875 2 
L 5.421875 11.28125 
Q 10.40625 8.6875 15.234375 7.390625 
Q 20.0625 6.109375 24.8125 6.109375 
Q 31.15625 6.109375 34.5625 8.28125 
Q 37.984375 10.453125 37.984375 14.40625 
Q 37.984375 18.0625 35.515625 20.015625 
Q 33.0625 21.96875 24.703125 23.78125 
L 21.578125 24.515625 
Q 13.234375 26.265625 9.515625 29.90625 
Q 5.8125 33.546875 5.8125 39.890625 
Q 5.8125 47.609375 11.28125 51.796875 
Q 16.75 56 26.8125 56 
Q 31.78125 56 36.171875 55.265625 
Q 40.578125 54.546875 44.28125 53.078125 
z
" id="DejaVuSans-115"/>
      <path d="M 9.421875 54.6875 
L 18.40625 54.6875 
L 18.40625 0 
L 9.421875 0 
z
M 9.421875 75.984375 
L 18.40625 75.984375 
L 18.40625 64.59375 
L 9.421875 64.59375 
z
" id="DejaVuSans-105"/>
      <path d="M 18.3125 70.21875 
L 18.3125 54.6875 
L 36.8125 54.6875 
L 36.8125 47.703125 
L 18.3125 47.703125 
L 18.3125 18.015625 
Q 18.3125 11.328125 20.140625 9.421875 
Q 21.96875 7.515625 27.59375 7.515625 
L 36.8125 7.515625 
L 36.8125 0 
L 27.59375 0 
Q 17.1875 0 13.234375 3.875 
Q 9.28125 7.765625 9.28125 18.015625 
L 9.28125 47.703125 
L 2.6875 47.703125 
L 2.6875 54.6875 
L 9.28125 54.6875 
L 9.28125 70.21875 
z
" id="DejaVuSans-116"/>
      <path d="M 32.171875 -5.078125 
Q 28.375 -14.84375 24.75 -17.8125 
Q 21.140625 -20.796875 15.09375 -20.796875 
L 7.90625 -20.796875 
L 7.90625 -13.28125 
L 13.1875 -13.28125 
Q 16.890625 -13.28125 18.9375 -11.515625 
Q 21 -9.765625 23.484375 -3.21875 
L 25.09375 0.875 
L 2.984375 54.6875 
L 12.5 54.6875 
L 29.59375 11.921875 
L 46.6875 54.6875 
L 56.203125 54.6875 
z
" id="DejaVuSans-121"/>
     </defs>
     <g transform="translate(38.157812 228.246855)rotate(-90)scale(0.1 -0.1)">
      <use xlink:href="#DejaVuSans-68"/>
      <use x="77.001953" xlink:href="#DejaVuSans-101"/>
      <use x="138.525391" xlink:href="#DejaVuSans-110"/>
      <use x="201.904297" xlink:href="#DejaVuSans-115"/>
      <use x="254.003906" xlink:href="#DejaVuSans-105"/>
      <use x="281.787109" xlink:href="#DejaVuSans-116"/>
      <use x="320.996094" xlink:href="#DejaVuSans-121"/>
     </g>
    </g>
   </g>
   <g id="line2d_27">
    <path clip-path="url(#p8cf3996f16)" d="M 117.467366 238.158303 
L 118.872446 238.150123 
L 120.277526 238.131329 
L 121.682607 238.091112 
L 123.087687 238.010803 
L 124.492767 237.860789 
L 125.897847 237.598057 
L 127.302927 237.165636 
L 128.708007 236.495302 
L 130.113087 235.514386 
L 131.518167 234.156267 
L 132.923247 232.372393 
L 134.328327 230.142237 
L 135.733407 227.477412 
L 137.138487 224.418125 
L 138.543568 221.023909 
L 139.948648 217.364357 
L 141.353728 213.51655 
L 142.758808 209.572099 
L 144.163888 205.649107 
L 145.568968 201.897563 
L 146.974048 198.486989 
L 148.379128 195.574928 
L 149.784208 193.269476 
L 151.189288 191.607422 
L 152.594368 190.563444 
L 153.999449 190.086874 
L 155.404529 190.143709 
L 156.809609 190.737103 
L 158.214689 191.893417 
L 159.619769 193.623296 
L 161.024849 195.882342 
L 162.429929 198.554607 
L 163.835009 201.467527 
L 165.240089 204.430312 
L 166.645169 207.278859 
L 168.050249 209.910853 
L 169.455329 212.300682 
L 170.86041 214.490506 
L 172.26549 216.559714 
L 173.67057 218.581081 
L 175.07565 220.57752 
L 176.48073 222.495533 
L 177.88581 224.206835 
L 179.29089 225.538481 
L 180.69597 226.319329 
L 182.10105 226.423757 
L 183.50613 225.796528 
L 184.91121 224.453712 
L 186.31629 222.467174 
L 187.721371 219.94675 
L 189.126451 217.03133 
L 190.531531 213.889829 
L 191.936611 210.722571 
L 193.341691 207.750482 
L 194.746771 205.186405 
L 196.151851 203.195627 
L 197.556931 201.86219 
L 198.962011 201.177091 
L 200.367091 201.054132 
L 201.772171 201.36637 
L 203.177252 201.988532 
L 204.582332 202.831337 
L 205.987412 203.859298 
L 207.392492 205.089413 
L 208.797572 206.57237 
L 210.202652 208.361373 
L 211.607732 210.477493 
L 213.012812 212.883155 
L 214.417892 215.474252 
L 215.822972 218.095327 
L 217.228052 220.573452 
L 218.633132 222.759105 
L 220.038213 224.559885 
L 221.443293 225.956171 
L 222.848373 226.995093 
L 224.253453 227.767381 
L 225.658533 228.377414 
L 227.063613 228.917905 
L 228.468693 229.456675 
L 229.873773 230.036081 
L 231.278853 230.679637 
L 232.683933 231.398405 
L 234.089013 232.192551 
L 235.494093 233.048642 
L 236.899174 233.937115 
L 238.304254 234.814477 
L 239.709334 235.631501 
L 241.114414 236.344685 
L 242.519494 236.926149 
L 243.924574 237.368144 
L 245.329654 237.681202 
L 246.734734 237.887856 
L 248.139814 238.015087 
L 249.544894 238.088226 
L 250.949974 238.127532 
L 252.355055 238.147305 
L 253.760135 238.156625 
L 255.165215 238.160745 
L 256.570295 238.162453 
" style="fill:none;stroke:#1f77b4;stroke-linecap:square;stroke-width:1.5;"/>
   </g>
   <g id="patch_81">
    <path d="M 57.6 238.163478 
L 57.6 180.313043 
" style="fill:none;stroke:#000000;stroke-linecap:square;stroke-linejoin:miter;stroke-width:0.8;"/>
   </g>
   <g id="patch_82">
    <path d="M 414.72 238.163478 
L 414.72 180.313043 
" style="fill:none;stroke:#000000;stroke-linecap:square;stroke-linejoin:miter;stroke-width:0.8;"/>
   </g>
   <g id="patch_83">
    <path d="M 57.6 238.163478 
L 414.72 238.163478 
" style="fill:none;stroke:#000000;stroke-linecap:square;stroke-linejoin:miter;stroke-width:0.8;"/>
   </g>
   <g id="patch_84">
    <path d="M 57.6 180.313043 
L 414.72 180.313043 
" style="fill:none;stroke:#000000;stroke-linecap:square;stroke-linejoin:miter;stroke-width:0.8;"/>
   </g>
  </g>
  <g id="axes_4">
   <g id="patch_85">
    <path d="M 57.6 307.584 
L 414.72 307.584 
L 414.72 249.733565 
L 57.6 249.733565 
z
" style="fill:none;"/>
   </g>
   <g id="patch_86">
    <path clip-path="url(#p5fefac4863)" d="M 200.438079 307.584 
L 207.455982 307.584 
L 207.455982 304.018335 
L 200.438079 304.018335 
z
" style="fill:#1f77b4;opacity:0.4;"/>
   </g>
   <g id="patch_87">
    <path clip-path="url(#p5fefac4863)" d="M 207.455982 307.584 
L 214.473886 307.584 
L 214.473886 298.778989 
L 207.455982 298.778989 
z
" style="fill:#1f77b4;opacity:0.4;"/>
   </g>
   <g id="patch_88">
    <path clip-path="url(#p5fefac4863)" d="M 214.473886 307.584 
L 221.49179 307.584 
L 221.49179 295.941011 
L 214.473886 295.941011 
z
" style="fill:#1f77b4;opacity:0.4;"/>
   </g>
   <g id="patch_89">
    <path clip-path="url(#p5fefac4863)" d="M 221.49179 307.584 
L 228.509693 307.584 
L 228.509693 293.685182 
L 221.49179 293.685182 
z
" style="fill:#1f77b4;opacity:0.4;"/>
   </g>
   <g id="patch_90">
    <path clip-path="url(#p5fefac4863)" d="M 228.509693 307.584 
L 235.527597 307.584 
L 235.527597 300.670975 
L 228.509693 300.670975 
z
" style="fill:#1f77b4;opacity:0.4;"/>
   </g>
   <g id="patch_91">
    <path clip-path="url(#p5fefac4863)" d="M 235.527597 307.584 
L 242.545501 307.584 
L 242.545501 306.783544 
L 235.527597 306.783544 
z
" style="fill:#1f77b4;opacity:0.4;"/>
   </g>
   <g id="patch_92">
    <path clip-path="url(#p5fefac4863)" d="M 242.545501 307.584 
L 249.563404 307.584 
L 249.563404 297.760228 
L 242.545501 297.760228 
z
" style="fill:#1f77b4;opacity:0.4;"/>
   </g>
   <g id="patch_93">
    <path clip-path="url(#p5fefac4863)" d="M 249.563404 307.584 
L 256.581308 307.584 
L 256.581308 290.919972 
L 249.563404 290.919972 
z
" style="fill:#1f77b4;opacity:0.4;"/>
   </g>
   <g id="patch_94">
    <path clip-path="url(#p5fefac4863)" d="M 256.581308 307.584 
L 263.599212 307.584 
L 263.599212 289.682904 
L 256.581308 289.682904 
z
" style="fill:#1f77b4;opacity:0.4;"/>
   </g>
   <g id="patch_95">
    <path clip-path="url(#p5fefac4863)" d="M 263.599212 307.584 
L 270.617115 307.584 
L 270.617115 297.687459 
L 263.599212 297.687459 
z
" style="fill:#1f77b4;opacity:0.4;"/>
   </g>
   <g id="patch_96">
    <path clip-path="url(#p5fefac4863)" d="M 270.617115 307.584 
L 277.635019 307.584 
L 277.635019 290.847203 
L 270.617115 290.847203 
z
" style="fill:#1f77b4;opacity:0.4;"/>
   </g>
   <g id="patch_97">
    <path clip-path="url(#p5fefac4863)" d="M 277.635019 307.584 
L 284.652922 307.584 
L 284.652922 278.767602 
L 277.635019 278.767602 
z
" style="fill:#1f77b4;opacity:0.4;"/>
   </g>
   <g id="patch_98">
    <path clip-path="url(#p5fefac4863)" d="M 284.652922 307.584 
L 291.670826 307.584 
L 291.670826 280.659588 
L 284.652922 280.659588 
z
" style="fill:#1f77b4;opacity:0.4;"/>
   </g>
   <g id="patch_99">
    <path clip-path="url(#p5fefac4863)" d="M 291.670826 307.584 
L 298.68873 307.584 
L 298.68873 271.12689 
L 291.670826 271.12689 
z
" style="fill:#1f77b4;opacity:0.4;"/>
   </g>
   <g id="patch_100">
    <path clip-path="url(#p5fefac4863)" d="M 298.68873 307.584 
L 305.706633 307.584 
L 305.706633 274.037637 
L 298.68873 274.037637 
z
" style="fill:#1f77b4;opacity:0.4;"/>
   </g>
   <g id="patch_101">
    <path clip-path="url(#p5fefac4863)" d="M 305.706633 307.584 
L 312.724537 307.584 
L 312.724537 295.358861 
L 305.706633 295.358861 
z
" style="fill:#1f77b4;opacity:0.4;"/>
   </g>
   <g id="patch_102">
    <path clip-path="url(#p5fefac4863)" d="M 312.724537 307.584 
L 319.742441 307.584 
L 319.742441 295.504399 
L 312.724537 295.504399 
z
" style="fill:#1f77b4;opacity:0.4;"/>
   </g>
   <g id="patch_103">
    <path clip-path="url(#p5fefac4863)" d="M 319.742441 307.584 
L 326.760344 307.584 
L 326.760344 295.067787 
L 319.742441 295.067787 
z
" style="fill:#1f77b4;opacity:0.4;"/>
   </g>
   <g id="patch_104">
    <path clip-path="url(#p5fefac4863)" d="M 326.760344 307.584 
L 333.778248 307.584 
L 333.778248 294.121794 
L 326.760344 294.121794 
z
" style="fill:#1f77b4;opacity:0.4;"/>
   </g>
   <g id="patch_105">
    <path clip-path="url(#p5fefac4863)" d="M 333.778248 307.584 
L 340.796152 307.584 
L 340.796152 289.682904 
L 333.778248 289.682904 
z
" style="fill:#1f77b4;opacity:0.4;"/>
   </g>
   <g id="patch_106">
    <path clip-path="url(#p5fefac4863)" d="M 340.796152 307.584 
L 347.814055 307.584 
L 347.814055 285.826164 
L 340.796152 285.826164 
z
" style="fill:#1f77b4;opacity:0.4;"/>
   </g>
   <g id="patch_107">
    <path clip-path="url(#p5fefac4863)" d="M 347.814055 307.584 
L 354.831959 307.584 
L 354.831959 290.119516 
L 347.814055 290.119516 
z
" style="fill:#1f77b4;opacity:0.4;"/>
   </g>
   <g id="patch_108">
    <path clip-path="url(#p5fefac4863)" d="M 354.831959 307.584 
L 361.849863 307.584 
L 361.849863 295.067787 
L 354.831959 295.067787 
z
" style="fill:#1f77b4;opacity:0.4;"/>
   </g>
   <g id="patch_109">
    <path clip-path="url(#p5fefac4863)" d="M 361.849863 307.584 
L 368.867766 307.584 
L 368.867766 295.286093 
L 361.849863 295.286093 
z
" style="fill:#1f77b4;opacity:0.4;"/>
   </g>
   <g id="patch_110">
    <path clip-path="url(#p5fefac4863)" d="M 368.867766 307.584 
L 375.88567 307.584 
L 375.88567 305.619246 
L 368.867766 305.619246 
z
" style="fill:#1f77b4;opacity:0.4;"/>
   </g>
   <g id="matplotlib.axis_7">
    <g id="xtick_19">
     <g id="line2d_28">
      <g>
       <use style="stroke:#000000;stroke-width:0.8;" x="100.737479" xlink:href="#m4c588b4cfa" y="307.584"/>
      </g>
     </g>
     <g id="text_8">
      <!-- 2.4 -->
      <defs>
       <path d="M 19.1875 8.296875 
L 53.609375 8.296875 
L 53.609375 0 
L 7.328125 0 
L 7.328125 8.296875 
Q 12.9375 14.109375 22.625 23.890625 
Q 32.328125 33.6875 34.8125 36.53125 
Q 39.546875 41.84375 41.421875 45.53125 
Q 43.3125 49.21875 43.3125 52.78125 
Q 43.3125 58.59375 39.234375 62.25 
Q 35.15625 65.921875 28.609375 65.921875 
Q 23.96875 65.921875 18.8125 64.3125 
Q 13.671875 62.703125 7.8125 59.421875 
L 7.8125 69.390625 
Q 13.765625 71.78125 18.9375 73 
Q 24.125 74.21875 28.421875 74.21875 
Q 39.75 74.21875 46.484375 68.546875 
Q 53.21875 62.890625 53.21875 53.421875 
Q 53.21875 48.921875 51.53125 44.890625 
Q 49.859375 40.875 45.40625 35.40625 
Q 44.1875 33.984375 37.640625 27.21875 
Q 31.109375 20.453125 19.1875 8.296875 
z
" id="DejaVuSans-50"/>
       <path d="M 10.6875 12.40625 
L 21 12.40625 
L 21 0 
L 10.6875 0 
z
" id="DejaVuSans-46"/>
       <path d="M 37.796875 64.3125 
L 12.890625 25.390625 
L 37.796875 25.390625 
z
M 35.203125 72.90625 
L 47.609375 72.90625 
L 47.609375 25.390625 
L 58.015625 25.390625 
L 58.015625 17.1875 
L 47.609375 17.1875 
L 47.609375 0 
L 37.796875 0 
L 37.796875 17.1875 
L 4.890625 17.1875 
L 4.890625 26.703125 
z
" id="DejaVuSans-52"/>
      </defs>
      <g transform="translate(92.785916 322.182437)scale(0.1 -0.1)">
       <use xlink:href="#DejaVuSans-50"/>
       <use x="63.623047" xlink:href="#DejaVuSans-46"/>
       <use x="95.410156" xlink:href="#DejaVuSans-52"/>
      </g>
     </g>
    </g>
    <g id="xtick_20">
     <g id="line2d_29">
      <g>
       <use style="stroke:#000000;stroke-width:0.8;" x="154.530977" xlink:href="#m4c588b4cfa" y="307.584"/>
      </g>
     </g>
     <g id="text_9">
      <!-- 2.6 -->
      <defs>
       <path d="M 33.015625 40.375 
Q 26.375 40.375 22.484375 35.828125 
Q 18.609375 31.296875 18.609375 23.390625 
Q 18.609375 15.53125 22.484375 10.953125 
Q 26.375 6.390625 33.015625 6.390625 
Q 39.65625 6.390625 43.53125 10.953125 
Q 47.40625 15.53125 47.40625 23.390625 
Q 47.40625 31.296875 43.53125 35.828125 
Q 39.65625 40.375 33.015625 40.375 
z
M 52.59375 71.296875 
L 52.59375 62.3125 
Q 48.875 64.0625 45.09375 64.984375 
Q 41.3125 65.921875 37.59375 65.921875 
Q 27.828125 65.921875 22.671875 59.328125 
Q 17.53125 52.734375 16.796875 39.40625 
Q 19.671875 43.65625 24.015625 45.921875 
Q 28.375 48.1875 33.59375 48.1875 
Q 44.578125 48.1875 50.953125 41.515625 
Q 57.328125 34.859375 57.328125 23.390625 
Q 57.328125 12.15625 50.6875 5.359375 
Q 44.046875 -1.421875 33.015625 -1.421875 
Q 20.359375 -1.421875 13.671875 8.265625 
Q 6.984375 17.96875 6.984375 36.375 
Q 6.984375 53.65625 15.1875 63.9375 
Q 23.390625 74.21875 37.203125 74.21875 
Q 40.921875 74.21875 44.703125 73.484375 
Q 48.484375 72.75 52.59375 71.296875 
z
" id="DejaVuSans-54"/>
      </defs>
      <g transform="translate(146.579414 322.182437)scale(0.1 -0.1)">
       <use xlink:href="#DejaVuSans-50"/>
       <use x="63.623047" xlink:href="#DejaVuSans-46"/>
       <use x="95.410156" xlink:href="#DejaVuSans-54"/>
      </g>
     </g>
    </g>
    <g id="xtick_21">
     <g id="line2d_30">
      <g>
       <use style="stroke:#000000;stroke-width:0.8;" x="208.324475" xlink:href="#m4c588b4cfa" y="307.584"/>
      </g>
     </g>
     <g id="text_10">
      <!-- 2.8 -->
      <defs>
       <path d="M 31.78125 34.625 
Q 24.75 34.625 20.71875 30.859375 
Q 16.703125 27.09375 16.703125 20.515625 
Q 16.703125 13.921875 20.71875 10.15625 
Q 24.75 6.390625 31.78125 6.390625 
Q 38.8125 6.390625 42.859375 10.171875 
Q 46.921875 13.96875 46.921875 20.515625 
Q 46.921875 27.09375 42.890625 30.859375 
Q 38.875 34.625 31.78125 34.625 
z
M 21.921875 38.8125 
Q 15.578125 40.375 12.03125 44.71875 
Q 8.5 49.078125 8.5 55.328125 
Q 8.5 64.0625 14.71875 69.140625 
Q 20.953125 74.21875 31.78125 74.21875 
Q 42.671875 74.21875 48.875 69.140625 
Q 55.078125 64.0625 55.078125 55.328125 
Q 55.078125 49.078125 51.53125 44.71875 
Q 48 40.375 41.703125 38.8125 
Q 48.828125 37.15625 52.796875 32.3125 
Q 56.78125 27.484375 56.78125 20.515625 
Q 56.78125 9.90625 50.3125 4.234375 
Q 43.84375 -1.421875 31.78125 -1.421875 
Q 19.734375 -1.421875 13.25 4.234375 
Q 6.78125 9.90625 6.78125 20.515625 
Q 6.78125 27.484375 10.78125 32.3125 
Q 14.796875 37.15625 21.921875 38.8125 
z
M 18.3125 54.390625 
Q 18.3125 48.734375 21.84375 45.5625 
Q 25.390625 42.390625 31.78125 42.390625 
Q 38.140625 42.390625 41.71875 45.5625 
Q 45.3125 48.734375 45.3125 54.390625 
Q 45.3125 60.0625 41.71875 63.234375 
Q 38.140625 66.40625 31.78125 66.40625 
Q 25.390625 66.40625 21.84375 63.234375 
Q 18.3125 60.0625 18.3125 54.390625 
z
" id="DejaVuSans-56"/>
      </defs>
      <g transform="translate(200.372913 322.182437)scale(0.1 -0.1)">
       <use xlink:href="#DejaVuSans-50"/>
       <use x="63.623047" xlink:href="#DejaVuSans-46"/>
       <use x="95.410156" xlink:href="#DejaVuSans-56"/>
      </g>
     </g>
    </g>
    <g id="xtick_22">
     <g id="line2d_31">
      <g>
       <use style="stroke:#000000;stroke-width:0.8;" x="262.117974" xlink:href="#m4c588b4cfa" y="307.584"/>
      </g>
     </g>
     <g id="text_11">
      <!-- 3.0 -->
      <defs>
       <path d="M 40.578125 39.3125 
Q 47.65625 37.796875 51.625 33 
Q 55.609375 28.21875 55.609375 21.1875 
Q 55.609375 10.40625 48.1875 4.484375 
Q 40.765625 -1.421875 27.09375 -1.421875 
Q 22.515625 -1.421875 17.65625 -0.515625 
Q 12.796875 0.390625 7.625 2.203125 
L 7.625 11.71875 
Q 11.71875 9.328125 16.59375 8.109375 
Q 21.484375 6.890625 26.8125 6.890625 
Q 36.078125 6.890625 40.9375 10.546875 
Q 45.796875 14.203125 45.796875 21.1875 
Q 45.796875 27.640625 41.28125 31.265625 
Q 36.765625 34.90625 28.71875 34.90625 
L 20.21875 34.90625 
L 20.21875 43.015625 
L 29.109375 43.015625 
Q 36.375 43.015625 40.234375 45.921875 
Q 44.09375 48.828125 44.09375 54.296875 
Q 44.09375 59.90625 40.109375 62.90625 
Q 36.140625 65.921875 28.71875 65.921875 
Q 24.65625 65.921875 20.015625 65.03125 
Q 15.375 64.15625 9.8125 62.3125 
L 9.8125 71.09375 
Q 15.4375 72.65625 20.34375 73.4375 
Q 25.25 74.21875 29.59375 74.21875 
Q 40.828125 74.21875 47.359375 69.109375 
Q 53.90625 64.015625 53.90625 55.328125 
Q 53.90625 49.265625 50.4375 45.09375 
Q 46.96875 40.921875 40.578125 39.3125 
z
" id="DejaVuSans-51"/>
      </defs>
      <g transform="translate(254.166411 322.182437)scale(0.1 -0.1)">
       <use xlink:href="#DejaVuSans-51"/>
       <use x="63.623047" xlink:href="#DejaVuSans-46"/>
       <use x="95.410156" xlink:href="#DejaVuSans-48"/>
      </g>
     </g>
    </g>
    <g id="xtick_23">
     <g id="line2d_32">
      <g>
       <use style="stroke:#000000;stroke-width:0.8;" x="315.911472" xlink:href="#m4c588b4cfa" y="307.584"/>
      </g>
     </g>
     <g id="text_12">
      <!-- 3.2 -->
      <g transform="translate(307.95991 322.182437)scale(0.1 -0.1)">
       <use xlink:href="#DejaVuSans-51"/>
       <use x="63.623047" xlink:href="#DejaVuSans-46"/>
       <use x="95.410156" xlink:href="#DejaVuSans-50"/>
      </g>
     </g>
    </g>
    <g id="xtick_24">
     <g id="line2d_33">
      <g>
       <use style="stroke:#000000;stroke-width:0.8;" x="369.70497" xlink:href="#m4c588b4cfa" y="307.584"/>
      </g>
     </g>
     <g id="text_13">
      <!-- 3.4 -->
      <g transform="translate(361.753408 322.182437)scale(0.1 -0.1)">
       <use xlink:href="#DejaVuSans-51"/>
       <use x="63.623047" xlink:href="#DejaVuSans-46"/>
       <use x="95.410156" xlink:href="#DejaVuSans-52"/>
      </g>
     </g>
    </g>
    <g id="text_14">
     <!-- Velocity (km/s) -->
     <defs>
      <path d="M 28.609375 0 
L 0.78125 72.90625 
L 11.078125 72.90625 
L 34.1875 11.53125 
L 57.328125 72.90625 
L 67.578125 72.90625 
L 39.796875 0 
z
" id="DejaVuSans-86"/>
      <path d="M 9.421875 75.984375 
L 18.40625 75.984375 
L 18.40625 0 
L 9.421875 0 
z
" id="DejaVuSans-108"/>
      <path d="M 30.609375 48.390625 
Q 23.390625 48.390625 19.1875 42.75 
Q 14.984375 37.109375 14.984375 27.296875 
Q 14.984375 17.484375 19.15625 11.84375 
Q 23.34375 6.203125 30.609375 6.203125 
Q 37.796875 6.203125 41.984375 11.859375 
Q 46.1875 17.53125 46.1875 27.296875 
Q 46.1875 37.015625 41.984375 42.703125 
Q 37.796875 48.390625 30.609375 48.390625 
z
M 30.609375 56 
Q 42.328125 56 49.015625 48.375 
Q 55.71875 40.765625 55.71875 27.296875 
Q 55.71875 13.875 49.015625 6.21875 
Q 42.328125 -1.421875 30.609375 -1.421875 
Q 18.84375 -1.421875 12.171875 6.21875 
Q 5.515625 13.875 5.515625 27.296875 
Q 5.515625 40.765625 12.171875 48.375 
Q 18.84375 56 30.609375 56 
z
" id="DejaVuSans-111"/>
      <path d="M 48.78125 52.59375 
L 48.78125 44.1875 
Q 44.96875 46.296875 41.140625 47.34375 
Q 37.3125 48.390625 33.40625 48.390625 
Q 24.65625 48.390625 19.8125 42.84375 
Q 14.984375 37.3125 14.984375 27.296875 
Q 14.984375 17.28125 19.8125 11.734375 
Q 24.65625 6.203125 33.40625 6.203125 
Q 37.3125 6.203125 41.140625 7.25 
Q 44.96875 8.296875 48.78125 10.40625 
L 48.78125 2.09375 
Q 45.015625 0.34375 40.984375 -0.53125 
Q 36.96875 -1.421875 32.421875 -1.421875 
Q 20.0625 -1.421875 12.78125 6.34375 
Q 5.515625 14.109375 5.515625 27.296875 
Q 5.515625 40.671875 12.859375 48.328125 
Q 20.21875 56 33.015625 56 
Q 37.15625 56 41.109375 55.140625 
Q 45.0625 54.296875 48.78125 52.59375 
z
" id="DejaVuSans-99"/>
      <path id="DejaVuSans-32"/>
      <path d="M 31 75.875 
Q 24.46875 64.65625 21.28125 53.65625 
Q 18.109375 42.671875 18.109375 31.390625 
Q 18.109375 20.125 21.3125 9.0625 
Q 24.515625 -2 31 -13.1875 
L 23.1875 -13.1875 
Q 15.875 -1.703125 12.234375 9.375 
Q 8.59375 20.453125 8.59375 31.390625 
Q 8.59375 42.28125 12.203125 53.3125 
Q 15.828125 64.359375 23.1875 75.875 
z
" id="DejaVuSans-40"/>
      <path d="M 9.078125 75.984375 
L 18.109375 75.984375 
L 18.109375 31.109375 
L 44.921875 54.6875 
L 56.390625 54.6875 
L 27.390625 29.109375 
L 57.625 0 
L 45.90625 0 
L 18.109375 26.703125 
L 18.109375 0 
L 9.078125 0 
z
" id="DejaVuSans-107"/>
      <path d="M 52 44.1875 
Q 55.375 50.25 60.0625 53.125 
Q 64.75 56 71.09375 56 
Q 79.640625 56 84.28125 50.015625 
Q 88.921875 44.046875 88.921875 33.015625 
L 88.921875 0 
L 79.890625 0 
L 79.890625 32.71875 
Q 79.890625 40.578125 77.09375 44.375 
Q 74.3125 48.1875 68.609375 48.1875 
Q 61.625 48.1875 57.5625 43.546875 
Q 53.515625 38.921875 53.515625 30.90625 
L 53.515625 0 
L 44.484375 0 
L 44.484375 32.71875 
Q 44.484375 40.625 41.703125 44.40625 
Q 38.921875 48.1875 33.109375 48.1875 
Q 26.21875 48.1875 22.15625 43.53125 
Q 18.109375 38.875 18.109375 30.90625 
L 18.109375 0 
L 9.078125 0 
L 9.078125 54.6875 
L 18.109375 54.6875 
L 18.109375 46.1875 
Q 21.1875 51.21875 25.484375 53.609375 
Q 29.78125 56 35.6875 56 
Q 41.65625 56 45.828125 52.96875 
Q 50 49.953125 52 44.1875 
z
" id="DejaVuSans-109"/>
      <path d="M 25.390625 72.90625 
L 33.6875 72.90625 
L 8.296875 -9.28125 
L 0 -9.28125 
z
" id="DejaVuSans-47"/>
      <path d="M 8.015625 75.875 
L 15.828125 75.875 
Q 23.140625 64.359375 26.78125 53.3125 
Q 30.421875 42.28125 30.421875 31.390625 
Q 30.421875 20.453125 26.78125 9.375 
Q 23.140625 -1.703125 15.828125 -13.1875 
L 8.015625 -13.1875 
Q 14.5 -2 17.703125 9.0625 
Q 20.90625 20.125 20.90625 31.390625 
Q 20.90625 42.671875 17.703125 53.65625 
Q 14.5 64.65625 8.015625 75.875 
z
" id="DejaVuSans-41"/>
     </defs>
     <g transform="translate(198.999062 335.860562)scale(0.1 -0.1)">
      <use xlink:href="#DejaVuSans-86"/>
      <use x="60.658203" xlink:href="#DejaVuSans-101"/>
      <use x="122.181641" xlink:href="#DejaVuSans-108"/>
      <use x="149.964844" xlink:href="#DejaVuSans-111"/>
      <use x="211.146484" xlink:href="#DejaVuSans-99"/>
      <use x="266.126953" xlink:href="#DejaVuSans-105"/>
      <use x="293.910156" xlink:href="#DejaVuSans-116"/>
      <use x="333.119141" xlink:href="#DejaVuSans-121"/>
      <use x="392.298828" xlink:href="#DejaVuSans-32"/>
      <use x="424.085938" xlink:href="#DejaVuSans-40"/>
      <use x="463.099609" xlink:href="#DejaVuSans-107"/>
      <use x="521.009766" xlink:href="#DejaVuSans-109"/>
      <use x="618.421875" xlink:href="#DejaVuSans-47"/>
      <use x="652.113281" xlink:href="#DejaVuSans-115"/>
      <use x="704.212891" xlink:href="#DejaVuSans-41"/>
     </g>
    </g>
   </g>
   <g id="matplotlib.axis_8">
    <g id="ytick_7">
     <g id="line2d_34">
      <g>
       <use style="stroke:#000000;stroke-width:0.8;" x="57.6" xlink:href="#m1a615a5c6b" y="307.584"/>
      </g>
     </g>
     <g id="text_15">
      <!-- 0 -->
      <g transform="translate(44.2375 311.383219)scale(0.1 -0.1)">
       <use xlink:href="#DejaVuSans-48"/>
      </g>
     </g>
    </g>
    <g id="ytick_8">
     <g id="line2d_35">
      <g>
       <use style="stroke:#000000;stroke-width:0.8;" x="57.6" xlink:href="#m1a615a5c6b" y="258.455616"/>
      </g>
     </g>
     <g id="text_16">
      <!-- 5 -->
      <g transform="translate(44.2375 262.254835)scale(0.1 -0.1)">
       <use xlink:href="#DejaVuSans-53"/>
      </g>
     </g>
    </g>
   </g>
   <g id="line2d_36">
    <path clip-path="url(#p5fefac4863)" d="M 177.836476 307.580073 
L 180.065272 307.573608 
L 182.294068 307.558497 
L 184.522864 307.525878 
L 186.75166 307.460789 
L 188.980455 307.340648 
L 191.209251 307.135399 
L 193.438047 306.810656 
L 195.666843 306.334515 
L 197.895639 305.686978 
L 200.124435 304.868839 
L 202.353231 303.90573 
L 204.582027 302.844224 
L 206.810823 301.740734 
L 209.039619 300.648572 
L 211.268415 299.610526 
L 213.497211 298.661553 
L 215.726007 297.839609 
L 217.954803 297.196561 
L 220.183598 296.79971 
L 222.412394 296.718728 
L 224.64119 297.000267 
L 226.869986 297.63909 
L 229.098782 298.557643 
L 231.327578 299.604497 
L 233.556374 300.576297 
L 235.78517 301.259535 
L 238.013966 301.480444 
L 240.242762 301.147441 
L 242.471558 300.272831 
L 244.700354 298.968233 
L 246.92915 297.417372 
L 249.157946 295.836154 
L 251.386741 294.430522 
L 253.615537 293.359065 
L 255.844333 292.703711 
L 258.073129 292.451442 
L 260.301925 292.49223 
L 262.530721 292.638732 
L 264.759517 292.668362 
L 266.988313 292.379162 
L 269.217109 291.642893 
L 271.445905 290.437286 
L 273.674701 288.845795 
L 275.903497 287.024742 
L 278.132293 285.149903 
L 280.361089 283.362955 
L 282.589884 281.739145 
L 284.81868 280.289699 
L 287.047476 278.997616 
L 289.276272 277.869595 
L 291.505068 276.977485 
L 293.733864 276.465333 
L 295.96266 276.512943 
L 298.191456 277.267834 
L 300.420252 278.774603 
L 302.649048 280.934634 
L 304.877844 283.516572 
L 307.10664 286.214663 
L 309.335436 288.730103 
L 311.564232 290.841842 
L 313.793027 292.441579 
L 316.021823 293.526753 
L 318.250619 294.163842 
L 320.479415 294.443228 
L 322.708211 294.444406 
L 324.937007 294.220824 
L 327.165803 293.803392 
L 329.394599 293.215045 
L 331.623395 292.487149 
L 333.852191 291.670687 
L 336.080987 290.838936 
L 338.309783 290.081675 
L 340.538579 289.492885 
L 342.767375 289.154779 
L 344.99617 289.121747 
L 347.224966 289.408841 
L 349.453762 289.989621 
L 351.682558 290.806122 
L 353.911354 291.789032 
L 356.14015 292.880805 
L 358.368946 294.051741 
L 360.597742 295.301261 
L 362.826538 296.64347 
L 365.055334 298.084135 
L 367.28413 299.600848 
L 369.512926 301.13661 
L 371.741722 302.609994 
L 373.970518 303.936626 
L 376.199313 305.051758 
L 378.428109 305.924545 
L 380.656905 306.55991 
L 382.885701 306.989976 
L 385.114497 307.26065 
L 387.343293 307.419058 
L 389.572089 307.50526 
L 391.800885 307.548869 
L 394.029681 307.569369 
L 396.258477 307.57832 
L 398.487273 307.581947 
" style="fill:none;stroke:#1f77b4;stroke-linecap:square;stroke-width:1.5;"/>
   </g>
   <g id="patch_111">
    <path d="M 57.6 307.584 
L 57.6 249.733565 
" style="fill:none;stroke:#000000;stroke-linecap:square;stroke-linejoin:miter;stroke-width:0.8;"/>
   </g>
   <g id="patch_112">
    <path d="M 414.72 307.584 
L 414.72 249.733565 
" style="fill:none;stroke:#000000;stroke-linecap:square;stroke-linejoin:miter;stroke-width:0.8;"/>
   </g>
   <g id="patch_113">
    <path d="M 57.6 307.584 
L 414.72 307.584 
" style="fill:none;stroke:#000000;stroke-linecap:square;stroke-linejoin:miter;stroke-width:0.8;"/>
   </g>
   <g id="patch_114">
    <path d="M 57.6 249.733565 
L 414.72 249.733565 
" style="fill:none;stroke:#000000;stroke-linecap:square;stroke-linejoin:miter;stroke-width:0.8;"/>
   </g>
  </g>
 </g>
 <defs>
  <clipPath id="p2979eeb313">
   <rect height="57.850435" width="357.12" x="57.6" y="41.472"/>
  </clipPath>
  <clipPath id="pd62da00e3e">
   <rect height="57.850435" width="357.12" x="57.6" y="110.892522"/>
  </clipPath>
  <clipPath id="p8cf3996f16">
   <rect height="57.850435" width="357.12" x="57.6" y="180.313043"/>
  </clipPath>
  <clipPath id="p5fefac4863">
   <rect height="57.850435" width="357.12" x="57.6" y="249.733565"/>
  </clipPath>
 </defs>
</svg>
