<?xml version="1.0" encoding="utf-8"?>
<!-- Generator: Adobe Illustrator 24.3.0, SVG Export Plug-In . SVG Version: 6.00 Build 0)  -->
<svg version="1.1" id="Layer_1" xmlns="http://www.w3.org/2000/svg" xmlns:xlink="http://www.w3.org/1999/xlink" x="0px" y="0px"
	 viewBox="0 0 432 288" style="enable-background:new 0 0 432 288;" xml:space="preserve">
<style type="text/css">
	.st0{fill:none;}
	.st1{stroke:#000000;stroke-width:0.8;stroke-linejoin:round;}
	.st2{fill:none;stroke:#000000;stroke-width:0.8;stroke-linecap:square;}
	.st3{clip-path:url(#SVGID_2_);fill:#FFFFFF;stroke:#FFFFFF;stroke-width:1.000000e-02;}
	.st4{fill:none;stroke:#000000;stroke-width:0.8;}
	.st5{fill:#007F07;}
	.st6{fill:#F40000;}
</style>
<g id="figure_1">
	<g id="patch_1">
		<path class="st0" d="M0,288h432V0H0V288z"/>
	</g>
	<g id="axes_1">
		<g id="patch_2">
			<path class="st0" d="M54,256.3h78.8V34.6H54V256.3z"/>
		</g>
		
			<image style="overflow:visible;enable-background:new    ;" width="109" height="308" id="image8ff686f63e" xlink:href="A40BC6B4.png"  transform="matrix(0.72 0 0 -0.72 54 256.32)">
		</image>
		<g id="matplotlib.axis_1">
			<g id="xtick_1">
				<g id="line2d_1">
					<g>
						<g>
							<path id="mc828b969a9" class="st1" d="M54,256.3v3.5"/>
						</g>
					</g>
				</g>
				<g id="text_1">
					<g transform="translate(46.048437 270.918437)scale(0.1 -0.1)">
						<g>
							<path id="DejaVuSans-48" d="M31.8,66.4c-5.1,0-8.9-2.5-11.5-7.5c-2.6-5-3.8-12.5-3.8-22.5c0-10,1.3-17.5,3.8-22.5
								c2.6-5,6.4-7.5,11.5-7.5c5.1,0,8.9,2.5,11.5,7.5c2.6,5,3.8,12.5,3.8,22.5c0,10-1.3,17.5-3.8,22.5
								C40.7,63.9,36.9,66.4,31.8,66.4z M31.8,74.2c8.2,0,14.4-3.2,18.7-9.7c4.3-6.5,6.5-15.8,6.5-28.1c0-12.3-2.2-21.6-6.5-28.1
								C46.2,1.8,40-1.4,31.8-1.4c-8.2,0-14.4,3.2-18.7,9.7c-4.3,6.5-6.5,15.8-6.5,28.1c0,12.3,2.2,21.7,6.5,28.1
								C17.4,71,23.6,74.2,31.8,74.2z"/>
						</g>
						<g>
							<path id="DejaVuSans-46" d="M74.3,12.4h10.3V0H74.3V12.4z"/>
						</g>
						<g>
							<path id="DejaVuSans-48_1_" d="M127.2,66.4c-5.1,0-8.9-2.5-11.5-7.5c-2.6-5-3.8-12.5-3.8-22.5c0-10,1.3-17.5,3.8-22.5
								c2.6-5,6.4-7.5,11.5-7.5c5.1,0,8.9,2.5,11.5,7.5c2.6,5,3.8,12.5,3.8,22.5c0,10-1.3,17.5-3.8,22.5
								C136.1,63.9,132.3,66.4,127.2,66.4z M127.2,74.2c8.2,0,14.4-3.2,18.7-9.7c4.3-6.5,6.5-15.8,6.5-28.1
								c0-12.3-2.2-21.6-6.5-28.1c-4.3-6.5-10.6-9.7-18.7-9.7c-8.2,0-14.4,3.2-18.7,9.7c-4.3,6.5-6.5,15.8-6.5,28.1
								c0,12.3,2.2,21.7,6.5,28.1C112.8,71,119,74.2,127.2,74.2z"/>
						</g>
					</g>
				</g>
			</g>
			<g id="xtick_2">
				<g id="line2d_2">
					<g>
						<g>
							<path id="mc828b969a9_1_" class="st1" d="M126.4,256.3v3.5"/>
						</g>
					</g>
				</g>
				<g id="text_2">
					<g transform="translate(118.453282 270.918437)scale(0.1 -0.1)">
						<g>
							<path id="DejaVuSans-48_2_" d="M31.8,66.4c-5.1,0-8.9-2.5-11.5-7.5c-2.6-5-3.8-12.5-3.8-22.5c0-10,1.3-17.5,3.8-22.5
								c2.6-5,6.4-7.5,11.5-7.5c5.1,0,8.9,2.5,11.5,7.5c2.6,5,3.8,12.5,3.8,22.5c0,10-1.3,17.5-3.8,22.5
								C40.7,63.9,36.9,66.4,31.8,66.4z M31.8,74.2c8.2,0,14.4-3.2,18.7-9.7c4.3-6.5,6.5-15.8,6.5-28.1c0-12.3-2.2-21.6-6.5-28.1
								C46.2,1.8,40-1.4,31.8-1.4c-8.2,0-14.4,3.2-18.7,9.7c-4.3,6.5-6.5,15.8-6.5,28.1c0,12.3,2.2,21.7,6.5,28.1
								C17.4,71,23.6,74.2,31.8,74.2z"/>
						</g>
						<g>
							<path id="DejaVuSans-46_1_" d="M74.3,12.4h10.3V0H74.3V12.4z"/>
						</g>
						<g>
							<path id="DejaVuSans-53" d="M106.2,72.9h38.7v-8.3h-29.7V46.7c1.4,0.5,2.9,0.9,4.3,1.1c1.4,0.2,2.9,0.4,4.3,0.4
								c8.1,0,14.6-2.2,19.3-6.7c4.8-4.5,7.1-10.5,7.1-18.1c0-7.8-2.4-13.9-7.3-18.3c-4.9-4.3-11.8-6.5-20.7-6.5
								c-3.1,0-6.2,0.3-9.4,0.8c-3.2,0.5-6.4,1.3-9.8,2.3v9.9c2.9-1.6,6-2.8,9.1-3.6c3.1-0.8,6.4-1.2,9.9-1.2
								c5.6,0,10.1,1.5,13.4,4.4c3.3,3,4.9,7,4.9,12.1c0,5.1-1.6,9.1-4.9,12c-3.3,3-7.7,4.5-13.4,4.5c-2.6,0-5.3-0.3-7.9-0.9
								c-2.6-0.6-5.3-1.5-8-2.7V72.9z"/>
						</g>
					</g>
				</g>
			</g>
			<g id="text_3">
				<g transform="translate(76.706985 284.596563)scale(0.1 -0.1)">
					<g>
						<path id="DejaVuSans-88" d="M6.3,72.9h10.6L35,45.8l18.2,27.1h10.6l-23.4-35L65.4,0H54.8L34.3,31L13.6,0H3l26,38.9L6.3,72.9z"
							/>
					</g>
					<g>
						<path id="DejaVuSans-32" d="M68.5,0"/>
					</g>
					<g>
						<path id="DejaVuSans-40" d="M131.3,75.9c-4.4-7.5-7.6-14.9-9.7-22.2c-2.1-7.3-3.2-14.7-3.2-22.3c0-7.5,1.1-15,3.2-22.3
							s5.4-14.8,9.7-22.3h-7.8c-4.9,7.7-8.5,15.2-11,22.6c-2.4,7.4-3.6,14.7-3.6,22c0,7.3,1.2,14.6,3.6,21.9
							c2.4,7.4,6.1,14.9,11,22.6H131.3z"/>
					</g>
					<g>
						<path id="DejaVuSans-107" d="M148.4,76h9V31.1l26.8,23.6h11.5l-29-25.6L196.9,0h-11.7l-27.8,26.7V0h-9V76z"/>
					</g>
					<g>
						<path id="DejaVuSans-109" d="M249.2,44.2c2.3,4,4.9,7,8.1,8.9c3.1,1.9,6.8,2.9,11,2.9c5.7,0,10.1-2,13.2-6
							c3.1-4,4.6-9.6,4.6-17V0h-9v32.7c0,5.2-0.9,9.1-2.8,11.7c-1.9,2.5-4.7,3.8-8.5,3.8c-4.7,0-8.3-1.5-11-4.6
							c-2.7-3.1-4-7.3-4-12.6V0h-9v32.7c0,5.3-0.9,9.2-2.8,11.7c-1.9,2.5-4.7,3.8-8.6,3.8c-4.6,0-8.2-1.6-11-4.7
							c-2.7-3.1-4-7.3-4-12.6V0h-9v54.7h9v-8.5c2.1,3.4,4.5,5.8,7.4,7.4c2.9,1.6,6.3,2.4,10.2,2.4c4,0,7.4-1,10.1-3
							C245.8,51,247.9,48,249.2,44.2z"/>
					</g>
					<g>
						<path id="DejaVuSans-41" d="M302.6,75.9h7.8c4.9-7.7,8.5-15.2,11-22.6c2.4-7.4,3.6-14.7,3.6-21.9c0-7.3-1.2-14.6-3.6-22
							c-2.4-7.4-6.1-14.9-11-22.6h-7.8c4.3,7.5,7.6,14.9,9.7,22.3c2.1,7.4,3.2,14.8,3.2,22.3c0,7.5-1.1,14.9-3.2,22.3
							C310.2,61,307,68.4,302.6,75.9z"/>
					</g>
				</g>
			</g>
		</g>
		<g id="matplotlib.axis_2">
			<g id="ytick_1">
				<g id="line2d_3">
					<g>
						<g>
							<path id="m63735f644a" class="st1" d="M54,34.6h-3.5"/>
						</g>
					</g>
				</g>
				<g id="text_4">
					<g transform="translate(31.096875 38.359219)scale(0.1 -0.1)">
						<g>
							<path id="DejaVuSans-48_3_" d="M31.8,66.4c-5.1,0-8.9-2.5-11.5-7.5c-2.6-5-3.8-12.5-3.8-22.5c0-10,1.3-17.5,3.8-22.5
								c2.6-5,6.4-7.5,11.5-7.5c5.1,0,8.9,2.5,11.5,7.5c2.6,5,3.8,12.5,3.8,22.5c0,10-1.3,17.5-3.8,22.5
								C40.7,63.9,36.9,66.4,31.8,66.4z M31.8,74.2c8.2,0,14.4-3.2,18.7-9.7c4.3-6.5,6.5-15.8,6.5-28.1c0-12.3-2.2-21.6-6.5-28.1
								C46.2,1.8,40-1.4,31.8-1.4c-8.2,0-14.4,3.2-18.7,9.7c-4.3,6.5-6.5,15.8-6.5,28.1c0,12.3,2.2,21.7,6.5,28.1
								C17.4,71,23.6,74.2,31.8,74.2z"/>
						</g>
						<g>
							<path id="DejaVuSans-46_2_" d="M74.3,12.4h10.3V0H74.3V12.4z"/>
						</g>
						<g>
							<path id="DejaVuSans-48_4_" d="M127.2,66.4c-5.1,0-8.9-2.5-11.5-7.5c-2.6-5-3.8-12.5-3.8-22.5c0-10,1.3-17.5,3.8-22.5
								c2.6-5,6.4-7.5,11.5-7.5c5.1,0,8.9,2.5,11.5,7.5c2.6,5,3.8,12.5,3.8,22.5c0,10-1.3,17.5-3.8,22.5
								C136.1,63.9,132.3,66.4,127.2,66.4z M127.2,74.2c8.2,0,14.4-3.2,18.7-9.7c4.3-6.5,6.5-15.8,6.5-28.1
								c0-12.3-2.2-21.6-6.5-28.1c-4.3-6.5-10.6-9.7-18.7-9.7c-8.2,0-14.4,3.2-18.7,9.7c-4.3,6.5-6.5,15.8-6.5,28.1
								c0,12.3,2.2,21.7,6.5,28.1C112.8,71,119,74.2,127.2,74.2z"/>
						</g>
					</g>
				</g>
			</g>
			<g id="ytick_2">
				<g id="line2d_4">
					<g>
						<g>
							<path id="m63735f644a_1_" class="st1" d="M54,75.3h-3.5"/>
						</g>
					</g>
				</g>
				<g id="text_5">
					<g transform="translate(31.096875 79.123925)scale(0.1 -0.1)">
						<g>
							<path id="DejaVuSans-48_5_" d="M31.8,66.4c-5.1,0-8.9-2.5-11.5-7.5c-2.6-5-3.8-12.5-3.8-22.5c0-10,1.3-17.5,3.8-22.5
								c2.6-5,6.4-7.5,11.5-7.5c5.1,0,8.9,2.5,11.5,7.5c2.6,5,3.8,12.5,3.8,22.5c0,10-1.3,17.5-3.8,22.5
								C40.7,63.9,36.9,66.4,31.8,66.4z M31.8,74.2c8.2,0,14.4-3.2,18.7-9.7c4.3-6.5,6.5-15.8,6.5-28.1c0-12.3-2.2-21.6-6.5-28.1
								C46.2,1.8,40-1.4,31.8-1.4c-8.2,0-14.4,3.2-18.7,9.7c-4.3,6.5-6.5,15.8-6.5,28.1c0,12.3,2.2,21.7,6.5,28.1
								C17.4,71,23.6,74.2,31.8,74.2z"/>
						</g>
						<g>
							<path id="DejaVuSans-46_3_" d="M74.3,12.4h10.3V0H74.3V12.4z"/>
						</g>
						<g>
							<path id="DejaVuSans-49" d="M107.8,8.3h16.1v55.6l-17.5-3.5v9l17.4,3.5h9.9V8.3h16.1V0h-42V8.3z"/>
						</g>
					</g>
				</g>
			</g>
			<g id="ytick_3">
				<g id="line2d_5">
					<g>
						<g>
							<path id="m63735f644a_2_" class="st1" d="M54,116.1h-3.5"/>
						</g>
					</g>
				</g>
				<g id="text_6">
					<g transform="translate(31.096875 119.888631)scale(0.1 -0.1)">
						<g>
							<path id="DejaVuSans-48_6_" d="M31.8,66.4c-5.1,0-8.9-2.5-11.5-7.5c-2.6-5-3.8-12.5-3.8-22.5c0-10,1.3-17.5,3.8-22.5
								c2.6-5,6.4-7.5,11.5-7.5c5.1,0,8.9,2.5,11.5,7.5c2.6,5,3.8,12.5,3.8,22.5c0,10-1.3,17.5-3.8,22.5
								C40.7,63.9,36.9,66.4,31.8,66.4z M31.8,74.2c8.2,0,14.4-3.2,18.7-9.7c4.3-6.5,6.5-15.8,6.5-28.1c0-12.3-2.2-21.6-6.5-28.1
								C46.2,1.8,40-1.4,31.8-1.4c-8.2,0-14.4,3.2-18.7,9.7c-4.3,6.5-6.5,15.8-6.5,28.1c0,12.3,2.2,21.7,6.5,28.1
								C17.4,71,23.6,74.2,31.8,74.2z"/>
						</g>
						<g>
							<path id="DejaVuSans-46_4_" d="M74.3,12.4h10.3V0H74.3V12.4z"/>
						</g>
						<g>
							<path id="DejaVuSans-50" d="M114.6,8.3H149V0h-46.3v8.3c3.7,3.9,8.8,9.1,15.3,15.6c6.5,6.5,10.5,10.7,12.2,12.6
								c3.2,3.5,5.4,6.5,6.6,9c1.3,2.5,1.9,4.9,1.9,7.3c0,3.9-1.4,7-4.1,9.5c-2.7,2.4-6.3,3.7-10.6,3.7c-3.1,0-6.4-0.5-9.8-1.6
								c-3.4-1.1-7.1-2.7-11-4.9v10c4,1.6,7.7,2.8,11.1,3.6c3.5,0.8,6.6,1.2,9.5,1.2c7.6,0,13.6-1.9,18.1-5.7
								c4.5-3.8,6.7-8.8,6.7-15.1c0-3-0.6-5.8-1.7-8.5c-1.1-2.7-3.2-5.8-6.1-9.5c-0.8-0.9-3.4-3.7-7.8-8.2
								C128.7,22.7,122.5,16.4,114.6,8.3z"/>
						</g>
					</g>
				</g>
			</g>
			<g id="ytick_4">
				<g id="line2d_6">
					<g>
						<g>
							<path id="m63735f644a_3_" class="st1" d="M54,156.9h-3.5"/>
						</g>
					</g>
				</g>
				<g id="text_7">
					<g transform="translate(31.096875 160.653336)scale(0.1 -0.1)">
						<g>
							<path id="DejaVuSans-48_7_" d="M31.8,66.4c-5.1,0-8.9-2.5-11.5-7.5c-2.6-5-3.8-12.5-3.8-22.5c0-10,1.3-17.5,3.8-22.5
								c2.6-5,6.4-7.5,11.5-7.5c5.1,0,8.9,2.5,11.5,7.5c2.6,5,3.8,12.5,3.8,22.5c0,10-1.3,17.5-3.8,22.5
								C40.7,63.9,36.9,66.4,31.8,66.4z M31.8,74.2c8.2,0,14.4-3.2,18.7-9.7c4.3-6.5,6.5-15.8,6.5-28.1c0-12.3-2.2-21.6-6.5-28.1
								C46.2,1.8,40-1.4,31.8-1.4c-8.2,0-14.4,3.2-18.7,9.7c-4.3,6.5-6.5,15.8-6.5,28.1c0,12.3,2.2,21.7,6.5,28.1
								C17.4,71,23.6,74.2,31.8,74.2z"/>
						</g>
						<g>
							<path id="DejaVuSans-46_5_" d="M74.3,12.4h10.3V0H74.3V12.4z"/>
						</g>
						<g>
							<path id="DejaVuSans-51" d="M136,39.3c4.7-1,8.4-3.1,11-6.3c2.7-3.2,4-7.1,4-11.8c0-7.2-2.5-12.8-7.4-16.7
								c-4.9-3.9-12-5.9-21.1-5.9c-3.1,0-6.2,0.3-9.4,0.9c-3.2,0.6-6.6,1.5-10,2.7v9.5c2.7-1.6,5.7-2.8,9-3.6
								c3.3-0.8,6.7-1.2,10.2-1.2c6.2,0,10.9,1.2,14.1,3.7c3.2,2.4,4.9,6,4.9,10.6c0,4.3-1.5,7.7-4.5,10.1c-3,2.4-7.2,3.6-12.6,3.6
								h-8.5V43h8.9c4.8,0,8.6,1,11.1,2.9c2.6,1.9,3.9,4.7,3.9,8.4c0,3.7-1.3,6.6-4,8.6c-2.6,2-6.4,3-11.4,3c-2.7,0-5.6-0.3-8.7-0.9
								c-3.1-0.6-6.5-1.5-10.2-2.7v8.8c3.8,1,7.3,1.8,10.5,2.3c3.3,0.5,6.4,0.8,9.3,0.8c7.5,0,13.4-1.7,17.8-5.1
								c4.4-3.4,6.5-8,6.5-13.8c0-4-1.2-7.5-3.5-10.2S140.2,40.4,136,39.3z"/>
						</g>
					</g>
				</g>
			</g>
			<g id="ytick_5">
				<g id="line2d_7">
					<g>
						<g>
							<path id="m63735f644a_4_" class="st1" d="M54,197.6h-3.5"/>
						</g>
					</g>
				</g>
				<g id="text_8">
					<g transform="translate(31.096875 201.418042)scale(0.1 -0.1)">
						<g>
							<path id="DejaVuSans-48_8_" d="M31.8,66.4c-5.1,0-8.9-2.5-11.5-7.5c-2.6-5-3.8-12.5-3.8-22.5c0-10,1.3-17.5,3.8-22.5
								c2.6-5,6.4-7.5,11.5-7.5c5.1,0,8.9,2.5,11.5,7.5c2.6,5,3.8,12.5,3.8,22.5c0,10-1.3,17.5-3.8,22.5
								C40.7,63.9,36.9,66.4,31.8,66.4z M31.8,74.2c8.2,0,14.4-3.2,18.7-9.7c4.3-6.5,6.5-15.8,6.5-28.1c0-12.3-2.2-21.6-6.5-28.1
								C46.2,1.8,40-1.4,31.8-1.4c-8.2,0-14.4,3.2-18.7,9.7c-4.3,6.5-6.5,15.8-6.5,28.1c0,12.3,2.2,21.7,6.5,28.1
								C17.4,71,23.6,74.2,31.8,74.2z"/>
						</g>
						<g>
							<path id="DejaVuSans-46_6_" d="M74.3,12.4h10.3V0H74.3V12.4z"/>
						</g>
						<g>
							<path id="DejaVuSans-52" d="M133.2,64.3l-24.9-38.9h24.9V64.3z M130.6,72.9H143V25.4h10.4v-8.2H143V0h-9.8v17.2h-32.9v9.5
								L130.6,72.9z"/>
						</g>
					</g>
				</g>
			</g>
			<g id="ytick_6">
				<g id="line2d_8">
					<g>
						<g>
							<path id="m63735f644a_5_" class="st1" d="M54,238.4h-3.5"/>
						</g>
					</g>
				</g>
				<g id="text_9">
					<g transform="translate(31.096875 242.182748)scale(0.1 -0.1)">
						<g>
							<path id="DejaVuSans-48_9_" d="M31.8,66.4c-5.1,0-8.9-2.5-11.5-7.5c-2.6-5-3.8-12.5-3.8-22.5c0-10,1.3-17.5,3.8-22.5
								c2.6-5,6.4-7.5,11.5-7.5c5.1,0,8.9,2.5,11.5,7.5c2.6,5,3.8,12.5,3.8,22.5c0,10-1.3,17.5-3.8,22.5
								C40.7,63.9,36.9,66.4,31.8,66.4z M31.8,74.2c8.2,0,14.4-3.2,18.7-9.7c4.3-6.5,6.5-15.8,6.5-28.1c0-12.3-2.2-21.6-6.5-28.1
								C46.2,1.8,40-1.4,31.8-1.4c-8.2,0-14.4,3.2-18.7,9.7c-4.3,6.5-6.5,15.8-6.5,28.1c0,12.3,2.2,21.7,6.5,28.1
								C17.4,71,23.6,74.2,31.8,74.2z"/>
						</g>
						<g>
							<path id="DejaVuSans-46_7_" d="M74.3,12.4h10.3V0H74.3V12.4z"/>
						</g>
						<g>
							<path id="DejaVuSans-53_1_" d="M106.2,72.9h38.7v-8.3h-29.7V46.7c1.4,0.5,2.9,0.9,4.3,1.1c1.4,0.2,2.9,0.4,4.3,0.4
								c8.1,0,14.6-2.2,19.3-6.7c4.8-4.5,7.1-10.5,7.1-18.1c0-7.8-2.4-13.9-7.3-18.3c-4.9-4.3-11.8-6.5-20.7-6.5
								c-3.1,0-6.2,0.3-9.4,0.8c-3.2,0.5-6.4,1.3-9.8,2.3v9.9c2.9-1.6,6-2.8,9.1-3.6s6.4-1.2,9.9-1.2c5.6,0,10.1,1.5,13.4,4.4
								c3.3,3,4.9,7,4.9,12.1c0,5.1-1.6,9.1-4.9,12c-3.3,3-7.7,4.5-13.4,4.5c-2.6,0-5.3-0.3-7.9-0.9c-2.6-0.6-5.3-1.5-8-2.7V72.9z"
								/>
						</g>
					</g>
				</g>
			</g>
			<g id="text_10">
				<g transform="translate(25.017187 162.12125)rotate(-90)scale(0.1 -0.1)">
					<g>
						<path id="DejaVuSans-90" d="M5.6,72.9h57.3v-7.5L16.8,8.3H64V0H4.5v7.5l46.1,57.1h-45V72.9z"/>
					</g>
					<g>
						<path id="DejaVuSans-32_1_" d="M68.5,0"/>
					</g>
					<g>
						<path id="DejaVuSans-40_1_" d="M131.3,75.9c-4.4-7.5-7.6-14.9-9.7-22.2c-2.1-7.3-3.2-14.7-3.2-22.3c0-7.5,1.1-15,3.2-22.3
							s5.4-14.8,9.7-22.3h-7.8c-4.9,7.7-8.5,15.2-11,22.6c-2.4,7.4-3.6,14.7-3.6,22c0,7.3,1.2,14.6,3.6,21.9
							c2.4,7.4,6.1,14.9,11,22.6H131.3z"/>
					</g>
					<g>
						<path id="DejaVuSans-107_1_" d="M148.4,76h9V31.1l26.8,23.6h11.5l-29-25.6L196.9,0h-11.7l-27.8,26.7V0h-9V76z"/>
					</g>
					<g>
						<path id="DejaVuSans-109_1_" d="M249.2,44.2c2.3,4,4.9,7,8.1,8.9s6.8,2.9,11,2.9c5.7,0,10.1-2,13.2-6c3.1-4,4.6-9.6,4.6-17V0
							h-9v32.7c0,5.2-0.9,9.1-2.8,11.7c-1.9,2.5-4.7,3.8-8.5,3.8c-4.7,0-8.3-1.5-11-4.6c-2.7-3.1-4-7.3-4-12.6V0h-9v32.7
							c0,5.3-0.9,9.2-2.8,11.7s-4.7,3.8-8.6,3.8c-4.6,0-8.2-1.6-11-4.7c-2.7-3.1-4-7.3-4-12.6V0h-9v54.7h9v-8.5
							c2.1,3.4,4.5,5.8,7.4,7.4S229,56,232.9,56c4,0,7.4-1,10.1-3C245.8,51,247.9,48,249.2,44.2z"/>
					</g>
					<g>
						<path id="DejaVuSans-41_1_" d="M302.6,75.9h7.8c4.9-7.7,8.5-15.2,11-22.6c2.4-7.4,3.6-14.7,3.6-21.9c0-7.3-1.2-14.6-3.6-22
							s-6.1-14.9-11-22.6h-7.8c4.3,7.5,7.6,14.9,9.7,22.3s3.2,14.8,3.2,22.3c0,7.5-1.1,14.9-3.2,22.3C310.2,61,307,68.4,302.6,75.9z
							"/>
					</g>
				</g>
			</g>
		</g>
		<g id="patch_3">
			<path class="st2" d="M54,256.3V34.6"/>
		</g>
		<g id="patch_4">
			<path class="st2" d="M132.8,256.3V34.6"/>
		</g>
		<g id="patch_5">
			<path class="st2" d="M54,256.3h78.8"/>
		</g>
		<g id="patch_6">
			<path class="st2" d="M54,34.6h78.8"/>
		</g>
		<g id="text_11">
			<g transform="translate(63.17636 28.56)scale(0.12 -0.12)">
				<g>
					<path id="DejaVuSans-82" d="M44.4,34.2c2.1-0.7,4.2-2.3,6.2-4.6s4-5.6,6-9.7L66.6,0H56l-9.3,18.7c-2.4,4.9-4.8,8.1-7,9.7
						s-5.3,2.4-9.3,2.4H19.7V0H9.8v72.9h22.3c8.3,0,14.6-1.7,18.7-5.2c4.1-3.5,6.2-8.7,6.2-15.8c0-4.6-1.1-8.4-3.2-11.4
						C51.6,37.4,48.5,35.4,44.4,34.2z M19.7,64.8V38.9h12.4c4.8,0,8.3,1.1,10.8,3.3s3.6,5.4,3.6,9.7s-1.2,7.5-3.6,9.6
						s-6,3.2-10.8,3.2H19.7z"/>
				</g>
				<g>
					<path id="DejaVuSans-101" d="M121.2,29.6v-4.4H79.9c0.4-6.2,2.3-10.9,5.6-14.1s8-4.9,13.9-4.9c3.4,0,6.8,0.4,10,1.3
						c3.2,0.8,6.5,2.1,9.7,3.8V2.8c-3.2-1.4-6.5-2.4-9.9-3.1c-3.4-0.7-6.8-1.1-10.3-1.1c-8.7,0-15.6,2.5-20.7,7.6
						c-5.1,5.1-7.6,12-7.6,20.6c0,8.9,2.4,16,7.3,21.3c4.8,5.3,11.4,7.9,19.6,7.9c7.4,0,13.2-2.4,17.5-7.1
						C119,44.2,121.2,37.7,121.2,29.6z M112.2,32.2c-0.1,4.9-1.4,8.8-4.1,11.8c-2.7,2.9-6.2,4.4-10.7,4.4c-5,0-9-1.4-12-4.3
						s-4.7-6.8-5.2-12L112.2,32.2z"/>
				</g>
				<g>
					<path id="DejaVuSans-102" d="M163.6,76v-7.5H155c-3.2,0-5.5-0.7-6.7-2c-1.3-1.3-1.9-3.6-1.9-7v-4.8h14.8v-7h-14.8V0h-9v47.7
						h-8.6v7h8.6v3.8c0,6.1,1.4,10.5,4.3,13.3c2.8,2.8,7.3,4.2,13.5,4.2H163.6z"/>
				</g>
				<g>
					<path id="DejaVuSans-101_1_" d="M217.9,29.6v-4.4h-41.3c0.4-6.2,2.3-10.9,5.6-14.1c3.3-3.2,8-4.9,13.9-4.9
						c3.4,0,6.8,0.4,10,1.3c3.2,0.8,6.5,2.1,9.7,3.8V2.8c-3.2-1.4-6.5-2.4-9.9-3.1c-3.4-0.7-6.8-1.1-10.3-1.1
						c-8.7,0-15.6,2.5-20.7,7.6c-5.1,5.1-7.6,12-7.6,20.6c0,8.9,2.4,16,7.3,21.3c4.8,5.3,11.4,7.9,19.6,7.9c7.4,0,13.2-2.4,17.5-7.1
						C215.8,44.2,217.9,37.7,217.9,29.6z M208.9,32.2c-0.1,4.9-1.4,8.8-4.1,11.8c-2.7,2.9-6.2,4.4-10.7,4.4c-5,0-9-1.4-12-4.3
						c-3-2.8-4.7-6.8-5.2-12L208.9,32.2z"/>
				</g>
				<g>
					<path id="DejaVuSans-114" d="M264.3,46.3c-1,0.6-2.1,1-3.3,1.3c-1.2,0.3-2.5,0.4-3.9,0.4c-5.1,0-9-1.7-11.7-5s-4.1-8-4.1-14.2
						V0h-9v54.7h9v-8.5c1.9,3.3,4.4,5.8,7.4,7.4c3,1.6,6.7,2.4,11,2.4c0.6,0,1.3,0,2-0.1c0.8-0.1,1.6-0.2,2.5-0.4L264.3,46.3z"/>
				</g>
				<g>
					<path id="DejaVuSans-101_2_" d="M318.3,29.6v-4.4H277c0.4-6.2,2.3-10.9,5.6-14.1s8-4.9,13.9-4.9c3.4,0,6.8,0.4,10,1.3
						c3.2,0.8,6.5,2.1,9.7,3.8V2.8c-3.2-1.4-6.5-2.4-9.9-3.1c-3.4-0.7-6.8-1.1-10.3-1.1c-8.7,0-15.6,2.5-20.7,7.6
						c-5.1,5.1-7.6,12-7.6,20.6c0,8.9,2.4,16,7.3,21.3c4.8,5.3,11.4,7.9,19.6,7.9c7.4,0,13.2-2.4,17.5-7.1
						C316.2,44.2,318.3,37.7,318.3,29.6z M309.3,32.2c-0.1,4.9-1.4,8.8-4.1,11.8c-2.7,2.9-6.2,4.4-10.7,4.4c-5,0-9-1.4-12-4.3
						s-4.7-6.8-5.2-12L309.3,32.2z"/>
				</g>
				<g>
					<path id="DejaVuSans-110" d="M378.5,33V0h-9v32.7c0,5.2-1,9-3,11.6c-2,2.6-5,3.9-9.1,3.9c-4.9,0-8.7-1.5-11.5-4.6
						c-2.8-3.1-4.2-7.3-4.2-12.6V0h-9v54.7h9v-8.5c2.2,3.3,4.7,5.8,7.6,7.4c2.9,1.6,6.3,2.4,10.1,2.4c6.3,0,11-1.9,14.3-5.8
						C376.9,46.3,378.5,40.6,378.5,33z"/>
				</g>
				<g>
					<path id="DejaVuSans-99" d="M435.8,52.6v-8.4c-2.5,1.4-5.1,2.5-7.6,3.2c-2.6,0.7-5.1,1-7.7,1c-5.8,0-10.4-1.8-13.6-5.5
						c-3.2-3.7-4.8-8.9-4.8-15.5s1.6-11.9,4.8-15.6c3.2-3.7,7.8-5.5,13.6-5.5c2.6,0,5.2,0.3,7.7,1c2.6,0.7,5.1,1.8,7.6,3.2V2.1
						c-2.5-1.2-5.1-2-7.8-2.6c-2.7-0.6-5.5-0.9-8.6-0.9c-8.2,0-14.8,2.6-19.6,7.8c-4.8,5.2-7.3,12.2-7.3,21c0,8.9,2.4,15.9,7.3,21
						c4.9,5.1,11.6,7.7,20.2,7.7c2.8,0,5.5-0.3,8.1-0.9C430.7,54.6,433.3,53.7,435.8,52.6z"/>
				</g>
				<g>
					<path id="DejaVuSans-101_3_" d="M498.2,29.6v-4.4h-41.3c0.4-6.2,2.3-10.9,5.6-14.1c3.3-3.2,8-4.9,13.9-4.9
						c3.4,0,6.8,0.4,10,1.3c3.2,0.8,6.5,2.1,9.7,3.8V2.8c-3.2-1.4-6.5-2.4-9.9-3.1c-3.4-0.7-6.8-1.1-10.3-1.1
						c-8.7,0-15.6,2.5-20.7,7.6c-5.1,5.1-7.6,12-7.6,20.6c0,8.9,2.4,16,7.3,21.3c4.8,5.3,11.4,7.9,19.6,7.9c7.4,0,13.2-2.4,17.5-7.1
						C496,44.2,498.2,37.7,498.2,29.6z M489.2,32.2c-0.1,4.9-1.4,8.8-4.1,11.8c-2.7,2.9-6.2,4.4-10.7,4.4c-5,0-9-1.4-12-4.3
						c-3-2.8-4.7-6.8-5.2-12L489.2,32.2z"/>
				</g>
			</g>
		</g>
	</g>
	<g id="axes_2">
		<g id="patch_7">
			<path class="st0" d="M148.5,256.3h78.8V34.6h-78.8V256.3z"/>
		</g>
		
			<image style="overflow:visible;enable-background:new    ;" width="110" height="308" id="image60b030b7c2" xlink:href="A40BC6B5.png"  transform="matrix(0.72 0 0 -0.72 148.32 256.32)">
		</image>
		<g id="matplotlib.axis_3">
			<g id="xtick_3">
				<g id="line2d_9">
					<g>
						<g>
							<path id="mc828b969a9_2_" class="st1" d="M148.5,256.3v3.5"/>
						</g>
					</g>
				</g>
				<g id="text_12">
					<g transform="translate(140.580202 270.918437)scale(0.1 -0.1)">
						<g>
							<path id="DejaVuSans-48_10_" d="M31.8,66.4c-5.1,0-8.9-2.5-11.5-7.5c-2.6-5-3.8-12.5-3.8-22.5c0-10,1.3-17.5,3.8-22.5
								c2.6-5,6.4-7.5,11.5-7.5c5.1,0,8.9,2.5,11.5,7.5c2.6,5,3.8,12.5,3.8,22.5c0,10-1.3,17.5-3.8,22.5
								C40.7,63.9,36.9,66.4,31.8,66.4z M31.8,74.2c8.2,0,14.4-3.2,18.7-9.7c4.3-6.5,6.5-15.8,6.5-28.1c0-12.3-2.2-21.6-6.5-28.1
								C46.2,1.8,40-1.4,31.8-1.4c-8.2,0-14.4,3.2-18.7,9.7c-4.3,6.5-6.5,15.8-6.5,28.1c0,12.3,2.2,21.7,6.5,28.1
								C17.4,71,23.6,74.2,31.8,74.2z"/>
						</g>
						<g>
							<path id="DejaVuSans-46_8_" d="M74.3,12.4h10.3V0H74.3V12.4z"/>
						</g>
						<g>
							<path id="DejaVuSans-48_11_" d="M127.2,66.4c-5.1,0-8.9-2.5-11.5-7.5c-2.6-5-3.8-12.5-3.8-22.5c0-10,1.3-17.5,3.8-22.5
								c2.6-5,6.4-7.5,11.5-7.5c5.1,0,8.9,2.5,11.5,7.5c2.6,5,3.8,12.5,3.8,22.5c0,10-1.3,17.5-3.8,22.5
								C136.1,63.9,132.3,66.4,127.2,66.4z M127.2,74.2c8.2,0,14.4-3.2,18.7-9.7c4.3-6.5,6.5-15.8,6.5-28.1
								c0-12.3-2.2-21.6-6.5-28.1c-4.3-6.5-10.6-9.7-18.7-9.7c-8.2,0-14.4,3.2-18.7,9.7c-4.3,6.5-6.5,15.8-6.5,28.1
								c0,12.3,2.2,21.7,6.5,28.1C112.8,71,119,74.2,127.2,74.2z"/>
						</g>
					</g>
				</g>
			</g>
			<g id="xtick_4">
				<g id="line2d_10">
					<g>
						<g>
							<path id="mc828b969a9_3_" class="st1" d="M220.9,256.3v3.5"/>
						</g>
					</g>
				</g>
				<g id="text_13">
					<g transform="translate(212.985046 270.918437)scale(0.1 -0.1)">
						<g>
							<path id="DejaVuSans-48_12_" d="M31.8,66.4c-5.1,0-8.9-2.5-11.5-7.5c-2.6-5-3.8-12.5-3.8-22.5c0-10,1.3-17.5,3.8-22.5
								c2.6-5,6.4-7.5,11.5-7.5c5.1,0,8.9,2.5,11.5,7.5c2.6,5,3.8,12.5,3.8,22.5c0,10-1.3,17.5-3.8,22.5
								C40.7,63.9,36.9,66.4,31.8,66.4z M31.8,74.2c8.2,0,14.4-3.2,18.7-9.7c4.3-6.5,6.5-15.8,6.5-28.1c0-12.3-2.2-21.6-6.5-28.1
								C46.2,1.8,40-1.4,31.8-1.4c-8.2,0-14.4,3.2-18.7,9.7c-4.3,6.5-6.5,15.8-6.5,28.1c0,12.3,2.2,21.7,6.5,28.1
								C17.4,71,23.6,74.2,31.8,74.2z"/>
						</g>
						<g>
							<path id="DejaVuSans-46_9_" d="M74.3,12.4h10.3V0H74.3V12.4z"/>
						</g>
						<g>
							<path id="DejaVuSans-53_2_" d="M106.2,72.9h38.7v-8.3h-29.7V46.7c1.4,0.5,2.9,0.9,4.3,1.1c1.4,0.2,2.9,0.4,4.3,0.4
								c8.1,0,14.6-2.2,19.3-6.7c4.8-4.5,7.1-10.5,7.1-18.1c0-7.8-2.4-13.9-7.3-18.3c-4.9-4.3-11.8-6.5-20.7-6.5
								c-3.1,0-6.2,0.3-9.4,0.8c-3.2,0.5-6.4,1.3-9.8,2.3v9.9c2.9-1.6,6-2.8,9.1-3.6s6.4-1.2,9.9-1.2c5.6,0,10.1,1.5,13.4,4.4
								c3.3,3,4.9,7,4.9,12.1c0,5.1-1.6,9.1-4.9,12c-3.3,3-7.7,4.5-13.4,4.5c-2.6,0-5.3-0.3-7.9-0.9c-2.6-0.6-5.3-1.5-8-2.7V72.9z"
								/>
						</g>
					</g>
				</g>
			</g>
			<g id="text_14">
				<g transform="translate(171.23875 284.596563)scale(0.1 -0.1)">
					<g>
						<path id="DejaVuSans-88_1_" d="M6.3,72.9h10.6L35,45.8l18.2,27.1h10.6l-23.4-35L65.4,0H54.8L34.3,31L13.6,0H3l26,38.9
							L6.3,72.9z"/>
					</g>
					<g>
						<path id="DejaVuSans-32_2_" d="M68.5,0"/>
					</g>
					<g>
						<path id="DejaVuSans-40_2_" d="M131.3,75.9c-4.4-7.5-7.6-14.9-9.7-22.2c-2.1-7.3-3.2-14.7-3.2-22.3c0-7.5,1.1-15,3.2-22.3
							c2.1-7.4,5.4-14.8,9.7-22.3h-7.8c-4.9,7.7-8.5,15.2-11,22.6c-2.4,7.4-3.6,14.7-3.6,22c0,7.3,1.2,14.6,3.6,21.9
							c2.4,7.4,6.1,14.9,11,22.6H131.3z"/>
					</g>
					<g>
						<path id="DejaVuSans-107_2_" d="M148.4,76h9V31.1l26.8,23.6h11.5l-29-25.6L196.9,0h-11.7l-27.8,26.7V0h-9V76z"/>
					</g>
					<g>
						<path id="DejaVuSans-109_2_" d="M249.2,44.2c2.3,4,4.9,7,8.1,8.9s6.8,2.9,11,2.9c5.7,0,10.1-2,13.2-6c3.1-4,4.6-9.6,4.6-17V0
							h-9v32.7c0,5.2-0.9,9.1-2.8,11.7c-1.9,2.5-4.7,3.8-8.5,3.8c-4.7,0-8.3-1.5-11-4.6c-2.7-3.1-4-7.3-4-12.6V0h-9v32.7
							c0,5.3-0.9,9.2-2.8,11.7c-1.9,2.5-4.7,3.8-8.6,3.8c-4.6,0-8.2-1.6-11-4.7c-2.7-3.1-4-7.3-4-12.6V0h-9v54.7h9v-8.5
							c2.1,3.4,4.5,5.8,7.4,7.4c2.9,1.6,6.3,2.4,10.2,2.4c4,0,7.4-1,10.1-3C245.8,51,247.9,48,249.2,44.2z"/>
					</g>
					<g>
						<path id="DejaVuSans-41_2_" d="M302.6,75.9h7.8c4.9-7.7,8.5-15.2,11-22.6c2.4-7.4,3.6-14.7,3.6-21.9c0-7.3-1.2-14.6-3.6-22
							c-2.4-7.4-6.1-14.9-11-22.6h-7.8c4.3,7.5,7.6,14.9,9.7,22.3c2.1,7.4,3.2,14.8,3.2,22.3c0,7.5-1.1,14.9-3.2,22.3
							C310.2,61,307,68.4,302.6,75.9z"/>
					</g>
				</g>
			</g>
		</g>
		<g id="matplotlib.axis_4">
			<g id="ytick_7">
				<g id="line2d_11">
					<g>
						<g>
							<path id="m63735f644a_6_" class="st1" d="M148.5,34.6H145"/>
						</g>
					</g>
				</g>
			</g>
			<g id="ytick_8">
				<g id="line2d_12">
					<g>
						<g>
							<path id="m63735f644a_7_" class="st1" d="M148.5,75.3H145"/>
						</g>
					</g>
				</g>
			</g>
			<g id="ytick_9">
				<g id="line2d_13">
					<g>
						<g>
							<path id="m63735f644a_8_" class="st1" d="M148.5,116.1H145"/>
						</g>
					</g>
				</g>
			</g>
			<g id="ytick_10">
				<g id="line2d_14">
					<g>
						<g>
							<path id="m63735f644a_9_" class="st1" d="M148.5,156.9H145"/>
						</g>
					</g>
				</g>
			</g>
			<g id="ytick_11">
				<g id="line2d_15">
					<g>
						<g>
							<path id="m63735f644a_10_" class="st1" d="M148.5,197.6H145"/>
						</g>
					</g>
				</g>
			</g>
			<g id="ytick_12">
				<g id="line2d_16">
					<g>
						<g>
							<path id="m63735f644a_11_" class="st1" d="M148.5,238.4H145"/>
						</g>
					</g>
				</g>
			</g>
		</g>
		<g id="patch_8">
			<path class="st2" d="M148.5,256.3V34.6"/>
		</g>
		<g id="patch_9">
			<path class="st2" d="M227.3,256.3V34.6"/>
		</g>
		<g id="patch_10">
			<path class="st2" d="M148.5,256.3h78.8"/>
		</g>
		<g id="patch_11">
			<path class="st2" d="M148.5,34.6h78.8"/>
		</g>
		<g id="text_15">
			<g transform="translate(171.317813 28.56)scale(0.12 -0.12)">
				<g>
					<path id="DejaVuSans-73" d="M9.8,72.9h9.9V0H9.8V72.9z"/>
				</g>
				<g>
					<path id="DejaVuSans-110_1_" d="M84.4,33V0h-9v32.7c0,5.2-1,9-3,11.6c-2,2.6-5,3.9-9.1,3.9c-4.9,0-8.7-1.5-11.5-4.6
						c-2.8-3.1-4.2-7.3-4.2-12.6V0h-9v54.7h9v-8.5c2.2,3.3,4.7,5.8,7.6,7.4c2.9,1.6,6.3,2.4,10.1,2.4c6.3,0,11-1.9,14.3-5.8
						C82.8,46.3,84.4,40.6,84.4,33z"/>
				</g>
				<g>
					<path id="DejaVuSans-105" d="M102.3,54.7h9V0h-9V54.7z M102.3,76h9V64.6h-9V76z"/>
				</g>
				<g>
					<path id="DejaVuSans-116" d="M139,70.2V54.7h18.5v-7H139V18c0-4.5,0.6-7.3,1.8-8.6s3.7-1.9,7.5-1.9h9.2V0h-9.2
						c-6.9,0-11.7,1.3-14.4,3.9c-2.6,2.6-4,7.3-4,14.1v29.7h-6.6v7h6.6v15.5H139z"/>
				</g>
				<g>
					<path id="DejaVuSans-105_1_" d="M169.3,54.7h9V0h-9V54.7z M169.3,76h9V64.6h-9V76z"/>
				</g>
				<g>
					<path id="DejaVuSans-97" d="M221.9,27.5c-7.3,0-12.3-0.8-15.1-2.5c-2.8-1.7-4.2-4.5-4.2-8.5c0-3.2,1.1-5.7,3.2-7.6
						c2.1-1.9,5-2.8,8.6-2.8c5,0,9,1.8,12,5.3c3,3.5,4.5,8.2,4.5,14.1v2H221.9z M239.8,31.2V0h-9v8.3c-2.1-3.3-4.6-5.8-7.7-7.3
						s-6.8-2.4-11.2-2.4c-5.6,0-10,1.6-13.4,4.7c-3.3,3.1-5,7.4-5,12.6c0,6.1,2.1,10.8,6.2,13.9c4.1,3.1,10.3,4.7,18.4,4.7h12.6v0.9
						c0,4.1-1.4,7.3-4.1,9.6s-6.5,3.4-11.5,3.4c-3.1,0-6.2-0.4-9.1-1.1c-3-0.8-5.8-1.9-8.5-3.4v8.3c3.3,1.3,6.5,2.2,9.6,2.8
						c3.1,0.6,6.1,1,9,1c7.9,0,13.8-2.1,17.7-6.2C237.9,45.7,239.8,39.5,239.8,31.2z"/>
				</g>
				<g>
					<path id="DejaVuSans-108" d="M258.3,76h9V0h-9V76z"/>
				</g>
			</g>
		</g>
	</g>
	<g id="axes_3">
		<g id="patch_12">
			<path class="st0" d="M243.1,256.3h78.8V34.6h-78.8V256.3z"/>
		</g>
		
			<image style="overflow:visible;enable-background:new    ;" width="109" height="308" id="imagea0344470c4" xlink:href="A40BC6B3.png"  transform="matrix(0.72 0 0 -0.72 243.36 256.32)">
		</image>
		<g id="matplotlib.axis_5">
			<g id="xtick_5">
				<g id="line2d_17">
					<g>
						<g>
							<path id="mc828b969a9_4_" class="st1" d="M243.1,256.3v3.5"/>
						</g>
					</g>
				</g>
				<g id="text_16">
					<g transform="translate(235.111967 270.918437)scale(0.1 -0.1)">
						<g>
							<path id="DejaVuSans-48_13_" d="M31.8,66.4c-5.1,0-8.9-2.5-11.5-7.5c-2.6-5-3.8-12.5-3.8-22.5c0-10,1.3-17.5,3.8-22.5
								c2.6-5,6.4-7.5,11.5-7.5c5.1,0,8.9,2.5,11.5,7.5c2.6,5,3.8,12.5,3.8,22.5c0,10-1.3,17.5-3.8,22.5
								C40.7,63.9,36.9,66.4,31.8,66.4z M31.8,74.2c8.2,0,14.4-3.2,18.7-9.7c4.3-6.5,6.5-15.8,6.5-28.1c0-12.3-2.2-21.6-6.5-28.1
								C46.2,1.8,40-1.4,31.8-1.4c-8.2,0-14.4,3.2-18.7,9.7c-4.3,6.5-6.5,15.8-6.5,28.1c0,12.3,2.2,21.7,6.5,28.1
								C17.4,71,23.6,74.2,31.8,74.2z"/>
						</g>
						<g>
							<path id="DejaVuSans-46_10_" d="M74.3,12.4h10.3V0H74.3V12.4z"/>
						</g>
						<g>
							<path id="DejaVuSans-48_14_" d="M127.2,66.4c-5.1,0-8.9-2.5-11.5-7.5c-2.6-5-3.8-12.5-3.8-22.5c0-10,1.3-17.5,3.8-22.5
								c2.6-5,6.4-7.5,11.5-7.5c5.1,0,8.9,2.5,11.5,7.5c2.6,5,3.8,12.5,3.8,22.5c0,10-1.3,17.5-3.8,22.5
								C136.1,63.9,132.3,66.4,127.2,66.4z M127.2,74.2c8.2,0,14.4-3.2,18.7-9.7c4.3-6.5,6.5-15.8,6.5-28.1
								c0-12.3-2.2-21.6-6.5-28.1c-4.3-6.5-10.6-9.7-18.7-9.7c-8.2,0-14.4,3.2-18.7,9.7c-4.3,6.5-6.5,15.8-6.5,28.1
								c0,12.3,2.2,21.7,6.5,28.1C112.8,71,119,74.2,127.2,74.2z"/>
						</g>
					</g>
				</g>
			</g>
			<g id="xtick_6">
				<g id="line2d_18">
					<g>
						<g>
							<path id="mc828b969a9_5_" class="st1" d="M315.5,256.3v3.5"/>
						</g>
					</g>
				</g>
				<g id="text_17">
					<g transform="translate(307.516811 270.918437)scale(0.1 -0.1)">
						<g>
							<path id="DejaVuSans-48_15_" d="M31.8,66.4c-5.1,0-8.9-2.5-11.5-7.5c-2.6-5-3.8-12.5-3.8-22.5c0-10,1.3-17.5,3.8-22.5
								c2.6-5,6.4-7.5,11.5-7.5c5.1,0,8.9,2.5,11.5,7.5c2.6,5,3.8,12.5,3.8,22.5c0,10-1.3,17.5-3.8,22.5
								C40.7,63.9,36.9,66.4,31.8,66.4z M31.8,74.2c8.2,0,14.4-3.2,18.7-9.7c4.3-6.5,6.5-15.8,6.5-28.1c0-12.3-2.2-21.6-6.5-28.1
								C46.2,1.8,40-1.4,31.8-1.4c-8.2,0-14.4,3.2-18.7,9.7c-4.3,6.5-6.5,15.8-6.5,28.1c0,12.3,2.2,21.7,6.5,28.1
								C17.4,71,23.6,74.2,31.8,74.2z"/>
						</g>
						<g>
							<path id="DejaVuSans-46_11_" d="M74.3,12.4h10.3V0H74.3V12.4z"/>
						</g>
						<g>
							<path id="DejaVuSans-53_3_" d="M106.2,72.9h38.7v-8.3h-29.7V46.7c1.4,0.5,2.9,0.9,4.3,1.1c1.4,0.2,2.9,0.4,4.3,0.4
								c8.1,0,14.6-2.2,19.3-6.7c4.8-4.5,7.1-10.5,7.1-18.1c0-7.8-2.4-13.9-7.3-18.3c-4.9-4.3-11.8-6.5-20.7-6.5
								c-3.1,0-6.2,0.3-9.4,0.8c-3.2,0.5-6.4,1.3-9.8,2.3v9.9c2.9-1.6,6-2.8,9.1-3.6s6.4-1.2,9.9-1.2c5.6,0,10.1,1.5,13.4,4.4
								c3.3,3,4.9,7,4.9,12.1c0,5.1-1.6,9.1-4.9,12c-3.3,3-7.7,4.5-13.4,4.5c-2.6,0-5.3-0.3-7.9-0.9c-2.6-0.6-5.3-1.5-8-2.7V72.9z"
								/>
						</g>
					</g>
				</g>
			</g>
			<g id="text_18">
				<g transform="translate(265.770515 284.596563)scale(0.1 -0.1)">
					<g>
						<path id="DejaVuSans-88_2_" d="M6.3,72.9h10.6L35,45.8l18.2,27.1h10.6l-23.4-35L65.4,0H54.8L34.3,31L13.6,0H3l26,38.9
							L6.3,72.9z"/>
					</g>
					<g>
						<path id="DejaVuSans-32_3_" d="M68.5,0"/>
					</g>
					<g>
						<path id="DejaVuSans-40_3_" d="M131.3,75.9c-4.4-7.5-7.6-14.9-9.7-22.2c-2.1-7.3-3.2-14.7-3.2-22.3c0-7.5,1.1-15,3.2-22.3
							s5.4-14.8,9.7-22.3h-7.8c-4.9,7.7-8.5,15.2-11,22.6s-3.6,14.7-3.6,22c0,7.3,1.2,14.6,3.6,21.9c2.4,7.4,6.1,14.9,11,22.6H131.3
							z"/>
					</g>
					<g>
						<path id="DejaVuSans-107_3_" d="M148.4,76h9V31.1l26.8,23.6h11.5l-29-25.6L196.9,0h-11.7l-27.8,26.7V0h-9V76z"/>
					</g>
					<g>
						<path id="DejaVuSans-109_3_" d="M249.2,44.2c2.3,4,4.9,7,8.1,8.9s6.8,2.9,11,2.9c5.7,0,10.1-2,13.2-6c3.1-4,4.6-9.6,4.6-17V0
							h-9v32.7c0,5.2-0.9,9.1-2.8,11.7c-1.9,2.5-4.7,3.8-8.5,3.8c-4.7,0-8.3-1.5-11-4.6c-2.7-3.1-4-7.3-4-12.6V0h-9v32.7
							c0,5.3-0.9,9.2-2.8,11.7s-4.7,3.8-8.6,3.8c-4.6,0-8.2-1.6-11-4.7c-2.7-3.1-4-7.3-4-12.6V0h-9v54.7h9v-8.5
							c2.1,3.4,4.5,5.8,7.4,7.4S229,56,232.9,56c4,0,7.4-1,10.1-3C245.8,51,247.9,48,249.2,44.2z"/>
					</g>
					<g>
						<path id="DejaVuSans-41_3_" d="M302.6,75.9h7.8c4.9-7.7,8.5-15.2,11-22.6c2.4-7.4,3.6-14.7,3.6-21.9c0-7.3-1.2-14.6-3.6-22
							s-6.1-14.9-11-22.6h-7.8c4.3,7.5,7.6,14.9,9.7,22.3s3.2,14.8,3.2,22.3c0,7.5-1.1,14.9-3.2,22.3C310.2,61,307,68.4,302.6,75.9z
							"/>
					</g>
				</g>
			</g>
		</g>
		<g id="matplotlib.axis_6">
			<g id="ytick_13">
				<g id="line2d_19">
					<g>
						<g>
							<path id="m63735f644a_12_" class="st1" d="M243.1,34.6h-3.5"/>
						</g>
					</g>
				</g>
			</g>
			<g id="ytick_14">
				<g id="line2d_20">
					<g>
						<g>
							<path id="m63735f644a_13_" class="st1" d="M243.1,75.3h-3.5"/>
						</g>
					</g>
				</g>
			</g>
			<g id="ytick_15">
				<g id="line2d_21">
					<g>
						<g>
							<path id="m63735f644a_14_" class="st1" d="M243.1,116.1h-3.5"/>
						</g>
					</g>
				</g>
			</g>
			<g id="ytick_16">
				<g id="line2d_22">
					<g>
						<g>
							<path id="m63735f644a_15_" class="st1" d="M243.1,156.9h-3.5"/>
						</g>
					</g>
				</g>
			</g>
			<g id="ytick_17">
				<g id="line2d_23">
					<g>
						<g>
							<path id="m63735f644a_16_" class="st1" d="M243.1,197.6h-3.5"/>
						</g>
					</g>
				</g>
			</g>
			<g id="ytick_18">
				<g id="line2d_24">
					<g>
						<g>
							<path id="m63735f644a_17_" class="st1" d="M243.1,238.4h-3.5"/>
						</g>
					</g>
				</g>
			</g>
		</g>
		<g id="patch_13">
			<path class="st2" d="M243.1,256.3V34.6"/>
		</g>
		<g id="patch_14">
			<path class="st2" d="M321.8,256.3V34.6"/>
		</g>
		<g id="patch_15">
			<path class="st2" d="M243.1,256.3h78.8"/>
		</g>
		<g id="patch_16">
			<path class="st2" d="M243.1,34.6h78.8"/>
		</g>
		<g id="text_19">
			<g transform="translate(260.627702 28.56)scale(0.12 -0.12)">
				<g>
					<path id="DejaVuSans-77" d="M9.8,72.9h14.7l18.6-49.6l18.7,49.6h14.7V0h-9.6v64L48.1,14h-9.9L19.4,64V0H9.8V72.9z"/>
				</g>
				<g>
					<path id="DejaVuSans-101_4_" d="M142.5,29.6v-4.4h-41.3c0.4-6.2,2.3-10.9,5.6-14.1c3.3-3.2,8-4.9,13.9-4.9
						c3.4,0,6.8,0.4,10,1.3c3.2,0.8,6.5,2.1,9.7,3.8V2.8c-3.2-1.4-6.5-2.4-9.9-3.1s-6.8-1.1-10.3-1.1c-8.7,0-15.6,2.5-20.7,7.6
						c-5.1,5.1-7.6,12-7.6,20.6c0,8.9,2.4,16,7.3,21.3c4.8,5.3,11.4,7.9,19.6,7.9c7.4,0,13.2-2.4,17.5-7.1
						C140.3,44.2,142.5,37.7,142.5,29.6z M133.5,32.2c-0.1,4.9-1.4,8.8-4.1,11.8c-2.7,2.9-6.2,4.4-10.7,4.4c-5,0-9-1.4-12-4.3
						s-4.7-6.8-5.2-12L133.5,32.2z"/>
				</g>
				<g>
					<path id="DejaVuSans-100" d="M193.2,46.4V76h9V0h-9v8.2c-1.9-3.3-4.3-5.7-7.2-7.3c-2.9-1.6-6.3-2.4-10.4-2.4
						c-6.6,0-12,2.6-16.1,7.9c-4.1,5.3-6.2,12.2-6.2,20.8s2.1,15.5,6.2,20.8c4.2,5.3,9.5,7.9,16.1,7.9c4,0,7.5-0.8,10.4-2.4
						C188.9,52.1,191.3,49.6,193.2,46.4z M162.6,27.3c0-6.6,1.4-11.8,4.1-15.5s6.5-5.6,11.2-5.6s8.5,1.9,11.2,5.6
						c2.7,3.8,4.1,8.9,4.1,15.5s-1.4,11.8-4.1,15.5c-2.7,3.8-6.5,5.6-11.2,5.6s-8.5-1.9-11.2-5.6S162.6,33.9,162.6,27.3z"/>
				</g>
				<g>
					<path id="DejaVuSans-105_2_" d="M220.7,54.7h9V0h-9V54.7z M220.7,76h9V64.6h-9V76z"/>
				</g>
				<g>
					<path id="DejaVuSans-97_1_" d="M273.3,27.5c-7.3,0-12.3-0.8-15.1-2.5s-4.2-4.5-4.2-8.5c0-3.2,1.1-5.7,3.2-7.6
						c2.1-1.9,5-2.8,8.6-2.8c5,0,9,1.8,12,5.3c3,3.5,4.5,8.2,4.5,14.1v2H273.3z M291.3,31.2V0h-9v8.3c-2.1-3.3-4.6-5.8-7.7-7.3
						s-6.8-2.4-11.2-2.4c-5.6,0-10,1.6-13.4,4.7c-3.3,3.1-5,7.4-5,12.6c0,6.1,2.1,10.8,6.2,13.9c4.1,3.1,10.3,4.7,18.4,4.7h12.6v0.9
						c0,4.1-1.4,7.3-4.1,9.6s-6.5,3.4-11.5,3.4c-3.1,0-6.2-0.4-9.1-1.1c-3-0.8-5.8-1.9-8.5-3.4v8.3c3.3,1.3,6.5,2.2,9.6,2.8
						c3.1,0.6,6.1,1,9,1c7.9,0,13.8-2.1,17.7-6.2C289.3,45.7,291.3,39.5,291.3,31.2z"/>
				</g>
				<g>
					<path id="DejaVuSans-110_2_" d="M355.2,33V0h-9v32.7c0,5.2-1,9-3,11.6c-2,2.6-5,3.9-9.1,3.9c-4.9,0-8.7-1.5-11.5-4.6
						c-2.8-3.1-4.2-7.3-4.2-12.6V0h-9v54.7h9v-8.5c2.2,3.3,4.7,5.8,7.6,7.4c2.9,1.6,6.3,2.4,10.1,2.4c6.3,0,11-1.9,14.3-5.8
						C353.6,46.3,355.2,40.6,355.2,33z"/>
				</g>
			</g>
		</g>
	</g>
	<g id="axes_4">
		<g id="patch_17">
			<g>
				<defs>
					<rect id="SVGID_1_" x="338.6" y="34.6" width="11.1" height="221.8"/>
				</defs>
				<clipPath id="SVGID_2_">
					<use xlink:href="#SVGID_1_"  style="overflow:visible;"/>
				</clipPath>
				<path class="st3" d="M338.6,256.3v-0.9v-220v-0.9h11.1v0.9v220v0.9H338.6z"/>
			</g>
		</g>
		
			<image style="overflow:visible;enable-background:new    ;" width="16" height="308" id="imagedfb2ce1c83" xlink:href="A40BC6BC.png"  transform="matrix(0.72 0 0 -0.72 338.4 256.32)">
		</image>
		<g id="matplotlib.axis_7">
		</g>
		<g id="matplotlib.axis_8">
			<g id="ytick_19">
				<g id="line2d_25">
					<g>
						<g>
							<path id="me6d6998f9a" class="st1" d="M349.7,239.3h3.5"/>
						</g>
					</g>
				</g>
				<g id="text_20">
					<g transform="translate(356.668 243.060757)scale(0.1 -0.1)">
						<g>
							<path id="DejaVuSans-50_1_" d="M19.2,8.3h34.4V0H7.3v8.3c3.7,3.9,8.8,9.1,15.3,15.6c6.5,6.5,10.5,10.7,12.2,12.6
								c3.2,3.5,5.4,6.5,6.6,9c1.3,2.5,1.9,4.9,1.9,7.3c0,3.9-1.4,7-4.1,9.5c-2.7,2.4-6.3,3.7-10.6,3.7c-3.1,0-6.4-0.5-9.8-1.6
								c-3.4-1.1-7.1-2.7-11-4.9v10c4,1.6,7.7,2.8,11.1,3.6c3.5,0.8,6.6,1.2,9.5,1.2c7.6,0,13.6-1.9,18.1-5.7
								c4.5-3.8,6.7-8.8,6.7-15.1c0-3-0.6-5.8-1.7-8.5c-1.1-2.7-3.2-5.8-6.1-9.5c-0.8-0.9-3.4-3.7-7.8-8.2
								C33.3,22.7,27.1,16.4,19.2,8.3z"/>
						</g>
					</g>
				</g>
			</g>
			<g id="ytick_20">
				<g id="line2d_26">
					<g>
						<g>
							<path id="me6d6998f9a_1_" class="st1" d="M349.7,205.1h3.5"/>
						</g>
					</g>
				</g>
				<g id="text_21">
					<g transform="translate(356.668 208.943834)scale(0.1 -0.1)">
						<g>
							<path id="DejaVuSans-51_1_" d="M40.6,39.3c4.7-1,8.4-3.1,11-6.3c2.7-3.2,4-7.1,4-11.8c0-7.2-2.5-12.8-7.4-16.7
								c-4.9-3.9-12-5.9-21.1-5.9c-3.1,0-6.2,0.3-9.4,0.9S11.1,1,7.6,2.2v9.5c2.7-1.6,5.7-2.8,9-3.6c3.3-0.8,6.7-1.2,10.2-1.2
								c6.2,0,10.9,1.2,14.1,3.7s4.9,6,4.9,10.6c0,4.3-1.5,7.7-4.5,10.1c-3,2.4-7.2,3.6-12.6,3.6h-8.5V43h8.9c4.8,0,8.6,1,11.1,2.9
								s3.9,4.7,3.9,8.4c0,3.7-1.3,6.6-4,8.6c-2.6,2-6.4,3-11.4,3c-2.7,0-5.6-0.3-8.7-0.9c-3.1-0.6-6.5-1.5-10.2-2.7v8.8
								c3.8,1,7.3,1.8,10.5,2.3s6.4,0.8,9.3,0.8c7.5,0,13.4-1.7,17.8-5.1c4.4-3.4,6.5-8,6.5-13.8c0-4-1.2-7.5-3.5-10.2
								S44.8,40.4,40.6,39.3z"/>
						</g>
					</g>
				</g>
			</g>
			<g id="ytick_21">
				<g id="line2d_27">
					<g>
						<g>
							<path id="me6d6998f9a_2_" class="st1" d="M349.7,171h3.5"/>
						</g>
					</g>
				</g>
				<g id="text_22">
					<g transform="translate(356.668 174.826911)scale(0.1 -0.1)">
						<g>
							<path id="DejaVuSans-52_1_" d="M37.8,64.3L12.9,25.4h24.9V64.3z M35.2,72.9h12.4V25.4H58v-8.2H47.6V0h-9.8v17.2H4.9v9.5
								L35.2,72.9z"/>
						</g>
					</g>
				</g>
			</g>
			<g id="ytick_22">
				<g id="line2d_28">
					<g>
						<g>
							<path id="me6d6998f9a_3_" class="st1" d="M349.7,136.9h3.5"/>
						</g>
					</g>
				</g>
				<g id="text_23">
					<g transform="translate(356.668 140.709988)scale(0.1 -0.1)">
						<g>
							<path id="DejaVuSans-53_4_" d="M10.8,72.9h38.7v-8.3H19.8V46.7c1.4,0.5,2.9,0.9,4.3,1.1c1.4,0.2,2.9,0.4,4.3,0.4
								c8.1,0,14.6-2.2,19.3-6.7c4.8-4.5,7.1-10.5,7.1-18.1c0-7.8-2.4-13.9-7.3-18.3c-4.9-4.3-11.8-6.5-20.7-6.5
								c-3.1,0-6.2,0.3-9.4,0.8c-3.2,0.5-6.4,1.3-9.8,2.3v9.9c2.9-1.6,6-2.8,9.1-3.6s6.4-1.2,9.9-1.2c5.6,0,10.1,1.5,13.4,4.4
								c3.3,3,4.9,7,4.9,12.1c0,5.1-1.6,9.1-4.9,12c-3.3,3-7.7,4.5-13.4,4.5c-2.6,0-5.3-0.3-7.9-0.9c-2.6-0.6-5.3-1.5-8-2.7V72.9z"
								/>
						</g>
					</g>
				</g>
			</g>
			<g id="ytick_23">
				<g id="line2d_29">
					<g>
						<g>
							<path id="me6d6998f9a_4_" class="st1" d="M349.7,102.8h3.5"/>
						</g>
					</g>
				</g>
				<g id="text_24">
					<g transform="translate(356.668 106.593065)scale(0.1 -0.1)">
						<g>
							<path id="DejaVuSans-54" d="M33,40.4c-4.4,0-7.9-1.5-10.5-4.5c-2.6-3-3.9-7.2-3.9-12.4c0-5.2,1.3-9.4,3.9-12.4
								c2.6-3,6.1-4.6,10.5-4.6s7.9,1.5,10.5,4.6c2.6,3.1,3.9,7.2,3.9,12.4c0,5.3-1.3,9.4-3.9,12.4C40.9,38.9,37.4,40.4,33,40.4z
								 M52.6,71.3v-9c-2.5,1.2-5,2.1-7.5,2.7c-2.5,0.6-5,0.9-7.5,0.9c-6.5,0-11.5-2.2-14.9-6.6c-3.4-4.4-5.4-11-5.9-19.9
								c1.9,2.8,4.3,5,7.2,6.5c2.9,1.5,6.1,2.3,9.6,2.3c7.3,0,13.1-2.2,17.4-6.7c4.3-4.4,6.4-10.5,6.4-18.1c0-7.5-2.2-13.5-6.6-18
								C46.3,0.8,40.4-1.4,33-1.4c-8.4,0-14.9,3.2-19.3,9.7C9.2,14.7,7,24.1,7,36.4c0,11.5,2.7,20.7,8.2,27.6s12.8,10.3,22,10.3
								c2.5,0,5-0.2,7.5-0.7S49.9,72.3,52.6,71.3z"/>
						</g>
					</g>
				</g>
			</g>
			<g id="ytick_24">
				<g id="line2d_30">
					<g>
						<g>
							<path id="me6d6998f9a_5_" class="st1" d="M349.7,68.7h3.5"/>
						</g>
					</g>
				</g>
				<g id="text_25">
					<g transform="translate(356.668 72.476142)scale(0.1 -0.1)">
						<g>
							<path id="DejaVuSans-55" d="M8.2,72.9h46.9v-4.2L28.6,0H18.3l24.9,64.6h-35V72.9z"/>
						</g>
					</g>
				</g>
			</g>
			<g id="ytick_25">
				<g id="line2d_31">
					<g>
						<g>
							<path id="me6d6998f9a_6_" class="st1" d="M349.7,34.6h3.5"/>
						</g>
					</g>
				</g>
				<g id="text_26">
					<g transform="translate(356.668 38.359219)scale(0.1 -0.1)">
						<g>
							<path id="DejaVuSans-56" d="M31.8,34.6c-4.7,0-8.4-1.3-11.1-3.8c-2.7-2.5-4-6-4-10.3c0-4.4,1.3-7.8,4-10.4
								c2.7-2.5,6.4-3.8,11.1-3.8s8.4,1.3,11.1,3.8c2.7,2.5,4.1,6,4.1,10.3c0,4.4-1.3,7.8-4,10.3C40.2,33.4,36.5,34.6,31.8,34.6z
								 M21.9,38.8c-4.2,1-7.5,3-9.9,5.9c-2.4,2.9-3.5,6.4-3.5,10.6c0,5.8,2.1,10.4,6.2,13.8c4.2,3.4,9.8,5.1,17.1,5.1
								c7.3,0,13-1.7,17.1-5.1s6.2-8,6.2-13.8c0-4.2-1.2-7.7-3.5-10.6c-2.4-2.9-5.6-4.9-9.8-5.9c4.8-1.1,8.4-3.3,11.1-6.5
								c2.7-3.2,4-7.2,4-11.8c0-7.1-2.2-12.5-6.5-16.3C46,0.5,39.8-1.4,31.8-1.4c-8,0-14.2,1.9-18.5,5.7C8.9,8,6.8,13.4,6.8,20.5
								c0,4.6,1.3,8.6,4,11.8C13.5,35.5,17.2,37.7,21.9,38.8z M18.3,54.4c0-3.8,1.2-6.7,3.5-8.8c2.4-2.1,5.7-3.2,9.9-3.2
								c4.2,0,7.6,1.1,9.9,3.2c2.4,2.1,3.6,5.1,3.6,8.8c0,3.8-1.2,6.7-3.6,8.8c-2.4,2.1-5.7,3.2-9.9,3.2c-4.3,0-7.6-1.1-9.9-3.2
								C19.5,61.1,18.3,58.2,18.3,54.4z"/>
						</g>
					</g>
				</g>
			</g>
			<g id="text_27">
				<g transform="translate(374.628938 182.600937)rotate(-90)scale(0.1 -0.1)">
					<g>
						<path id="DejaVuSans-86" d="M28.6,0L0.8,72.9h10.3l23.1-61.4l23.1,61.4h10.2L39.8,0H28.6z"/>
					</g>
					<g>
						<path id="DejaVuSans-101_5_" d="M116.9,29.6v-4.4H75.5c0.4-6.2,2.3-10.9,5.6-14.1c3.3-3.2,8-4.9,13.9-4.9
							c3.4,0,6.8,0.4,10,1.3c3.2,0.8,6.5,2.1,9.7,3.8V2.8c-3.2-1.4-6.5-2.4-9.9-3.1c-3.4-0.7-6.8-1.1-10.3-1.1
							c-8.7,0-15.6,2.5-20.7,7.6c-5.1,5.1-7.6,12-7.6,20.6c0,8.9,2.4,16,7.3,21.3C78.3,53.4,84.8,56,93,56c7.4,0,13.2-2.4,17.5-7.1
							C114.7,44.2,116.9,37.7,116.9,29.6z M107.9,32.2c-0.1,4.9-1.4,8.8-4.1,11.8c-2.7,2.9-6.2,4.4-10.7,4.4c-5,0-9-1.4-12-4.3
							c-3-2.8-4.7-6.8-5.2-12L107.9,32.2z"/>
					</g>
					<g>
						<path id="DejaVuSans-108_1_" d="M131.6,76h9V0h-9V76z"/>
					</g>
					<g>
						<path id="DejaVuSans-111" d="M180.6,48.4c-4.8,0-8.6-1.9-11.4-5.6c-2.8-3.8-4.2-8.9-4.2-15.5s1.4-11.7,4.2-15.5
							c2.8-3.8,6.6-5.6,11.5-5.6c4.8,0,8.6,1.9,11.4,5.7c2.8,3.8,4.2,8.9,4.2,15.4c0,6.5-1.4,11.6-4.2,15.4
							C189.2,46.5,185.4,48.4,180.6,48.4z M180.6,56c7.8,0,13.9-2.5,18.4-7.6c4.5-5.1,6.7-12.1,6.7-21.1c0-8.9-2.2-16-6.7-21.1
							c-4.5-5.1-10.6-7.6-18.4-7.6c-7.8,0-14,2.5-18.4,7.6c-4.4,5.1-6.7,12.1-6.7,21.1c0,9,2.2,16,6.7,21.1
							C166.6,53.5,172.7,56,180.6,56z"/>
					</g>
					<g>
						<path id="DejaVuSans-99_1_" d="M259.9,52.6v-8.4c-2.5,1.4-5.1,2.5-7.6,3.2c-2.6,0.7-5.1,1-7.7,1c-5.8,0-10.4-1.8-13.6-5.5
							c-3.2-3.7-4.8-8.9-4.8-15.5s1.6-11.9,4.8-15.6c3.2-3.7,7.8-5.5,13.6-5.5c2.6,0,5.2,0.3,7.7,1c2.6,0.7,5.1,1.8,7.6,3.2V2.1
							c-2.5-1.2-5.1-2-7.8-2.6c-2.7-0.6-5.5-0.9-8.6-0.9c-8.2,0-14.8,2.6-19.6,7.8c-4.8,5.2-7.3,12.2-7.3,21c0,8.9,2.4,15.9,7.3,21
							c4.9,5.1,11.6,7.7,20.2,7.7c2.8,0,5.5-0.3,8.1-0.9C254.9,54.6,257.4,53.7,259.9,52.6z"/>
					</g>
					<g>
						<path id="DejaVuSans-105_3_" d="M275.5,54.7h9V0h-9V54.7z M275.5,76h9V64.6h-9V76z"/>
					</g>
					<g>
						<path id="DejaVuSans-116_1_" d="M312.2,70.2V54.7h18.5v-7h-18.5V18c0-4.5,0.6-7.3,1.8-8.6s3.7-1.9,7.5-1.9h9.2V0h-9.2
							c-6.9,0-11.7,1.3-14.4,3.9c-2.6,2.6-4,7.3-4,14.1v29.7h-6.6v7h6.6v15.5H312.2z"/>
					</g>
					<g>
						<path id="DejaVuSans-121" d="M365.3-5.1c-2.5-6.5-5-10.8-7.4-12.7c-2.4-2-5.6-3-9.7-3H341v7.5h5.3c2.5,0,4.4,0.6,5.8,1.8
							c1.4,1.2,2.9,3.9,4.5,8.3l1.6,4.1l-22.1,53.8h9.5l17.1-42.8l17.1,42.8h9.5L365.3-5.1z"/>
					</g>
					<g>
						<path id="DejaVuSans-32_4_" d="M392.3,0"/>
					</g>
					<g>
						<path id="DejaVuSans-40_4_" d="M455.1,75.9c-4.4-7.5-7.6-14.9-9.7-22.2c-2.1-7.3-3.2-14.7-3.2-22.3c0-7.5,1.1-15,3.2-22.3
							c2.1-7.4,5.4-14.8,9.7-22.3h-7.8c-4.9,7.7-8.5,15.2-11,22.6c-2.4,7.4-3.6,14.7-3.6,22c0,7.3,1.2,14.6,3.6,21.9
							c2.4,7.4,6.1,14.9,11,22.6H455.1z"/>
					</g>
					<g>
						<path id="DejaVuSans-107_4_" d="M472.2,76h9V31.1L508,54.7h11.5l-29-25.6L520.7,0H509l-27.8,26.7V0h-9V76z"/>
					</g>
					<g>
						<path id="DejaVuSans-109_4_" d="M573,44.2c2.3,4,4.9,7,8.1,8.9s6.8,2.9,11,2.9c5.7,0,10.1-2,13.2-6c3.1-4,4.6-9.6,4.6-17V0h-9
							v32.7c0,5.2-0.9,9.1-2.8,11.7c-1.9,2.5-4.7,3.8-8.5,3.8c-4.7,0-8.3-1.5-11-4.6c-2.7-3.1-4-7.3-4-12.6V0h-9v32.7
							c0,5.3-0.9,9.2-2.8,11.7s-4.7,3.8-8.6,3.8c-4.6,0-8.2-1.6-11-4.7c-2.7-3.1-4-7.3-4-12.6V0h-9v54.7h9v-8.5
							c2.1,3.4,4.5,5.8,7.4,7.4s6.3,2.4,10.2,2.4c4,0,7.4-1,10.1-3C569.6,51,571.7,48,573,44.2z"/>
					</g>
					<g>
						<path id="DejaVuSans-47" d="M643.8,72.9h8.3L626.7-9.3h-8.3L643.8,72.9z"/>
					</g>
					<g>
						<path id="DejaVuSans-115" d="M696.4,53.1v-8.5c-2.5,1.3-5.2,2.3-7.9,2.9c-2.7,0.7-5.6,1-8.5,1c-4.5,0-7.8-0.7-10-2
							c-2.2-1.4-3.3-3.4-3.3-6.2c0-2.1,0.8-3.7,2.4-4.9s4.8-2.3,9.6-3.4l3.1-0.7c6.4-1.4,10.9-3.3,13.6-5.8s4-6,4-10.4
							c0-5.1-2-9.1-6-12.1c-4-3-9.5-4.4-16.6-4.4c-2.9,0-6,0.3-9.2,0.9c-3.2,0.6-6.5,1.4-10,2.6v9.3c3.3-1.7,6.6-3,9.8-3.9
							c3.2-0.9,6.4-1.3,9.6-1.3c4.2,0,7.5,0.7,9.8,2.2c2.3,1.4,3.4,3.5,3.4,6.1c0,2.4-0.8,4.3-2.5,5.6c-1.6,1.3-5.2,2.6-10.8,3.8
							l-3.1,0.7c-5.6,1.2-9.6,3-12.1,5.4c-2.5,2.4-3.7,5.8-3.7,10c0,5.1,1.8,9.1,5.5,11.9c3.6,2.8,8.8,4.2,15.5,4.2
							c3.3,0,6.4-0.2,9.4-0.7C691.2,54.8,693.9,54.1,696.4,53.1z"/>
					</g>
					<g>
						<path id="DejaVuSans-41_4_" d="M712.2,75.9h7.8c4.9-7.7,8.5-15.2,11-22.6c2.4-7.4,3.6-14.7,3.6-21.9c0-7.3-1.2-14.6-3.6-22
							c-2.4-7.4-6.1-14.9-11-22.6h-7.8c4.3,7.5,7.6,14.9,9.7,22.3c2.1,7.4,3.2,14.8,3.2,22.3c0,7.5-1.1,14.9-3.2,22.3
							C719.8,61,716.6,68.4,712.2,75.9z"/>
					</g>
				</g>
			</g>
		</g>
		<g id="patch_18">
			<path class="st4" d="M338.6,256.3v-0.9v-220v-0.9h11.1v0.9v220v0.9H338.6z"/>
		</g>
	</g>
</g>
<polygon class="st5" points="54.1,38.5 52.3,35.5 50.5,32.4 54.1,32.4 57.6,32.4 55.8,35.5 "/>
<polygon class="st5" points="80.3,38.5 78.6,35.5 76.8,32.4 80.3,32.4 83.9,32.4 82.1,35.5 "/>
<polygon class="st5" points="132.9,38.5 131.1,35.5 129.3,32.4 132.9,32.4 136.4,32.4 134.6,35.5 "/>
<polygon class="st5" points="106.6,38.5 104.8,35.5 103.1,32.4 106.6,32.4 110.1,32.4 108.4,35.5 "/>
<g>
	<rect x="63.6" y="30.2" class="st0" width="9.7" height="10.4"/>
	<path class="st6" d="M63.8,32.6h2.8l1,1.7l1.2-1.7h2.6l-2.1,3l2.3,3.3h-2.8l-1.2-2l-1.4,2h-2.6l2.3-3.3L63.8,32.6z"/>
</g>
<g>
	<rect x="115.3" y="30.2" class="st0" width="9.7" height="10.4"/>
	<path class="st6" d="M115.5,32.6h2.8l1,1.7l1.2-1.7h2.6l-2.1,3l2.3,3.3h-2.8l-1.2-2l-1.4,2h-2.6l2.3-3.3L115.5,32.6z"/>
</g>
<g>
	<rect x="89.4" y="30.2" class="st0" width="9.7" height="10.4"/>
	<path class="st6" d="M89.6,32.6h2.8l1,1.7l1.2-1.7h2.6l-2.1,3l2.3,3.3h-2.8l-1.2-2l-1.4,2h-2.6l2.3-3.3L89.6,32.6z"/>
</g>
</svg>
