<?xml version="1.0" encoding="utf-8" standalone="no"?>
<!DOCTYPE svg PUBLIC "-//W3C//DTD SVG 1.1//EN"
  "http://www.w3.org/Graphics/SVG/1.1/DTD/svg11.dtd">
<!-- Created with matplotlib (https://matplotlib.org/) -->
<svg height="216pt" version="1.1" viewBox="0 0 432 216" width="432pt" xmlns="http://www.w3.org/2000/svg" xmlns:xlink="http://www.w3.org/1999/xlink">
 <defs>
  <style type="text/css">
*{stroke-linecap:butt;stroke-linejoin:round;}
  </style>
 </defs>
 <g id="figure_1">
  <g id="patch_1">
   <path d="M 0 216 
L 432 216 
L 432 0 
L 0 0 
z
" style="fill:none;"/>
  </g>
  <g id="axes_1">
   <g id="patch_2">
    <path d="M 49.934 174.04 
L 421.2 174.04 
L 421.2 10.8 
L 49.934 10.8 
z
" style="fill:none;"/>
   </g>
   <g id="PolyCollection_1">
    <path clip-path="url(#p0ef3ca05c8)" d="M 66.809727 152.04092 
L 66.809727 154.751415 
L 67.431301 154.751415 
L 68.052875 154.751415 
L 68.674449 154.751415 
L 69.296022 154.751415 
L 69.917596 158.01755 
L 70.53917 158.01755 
L 71.160744 158.01755 
L 71.782317 158.01755 
L 72.403891 158.01755 
L 73.025465 158.01755 
L 73.647039 158.01755 
L 74.268612 163.013219 
L 74.890186 163.013219 
L 75.51176 163.013219 
L 76.133334 163.013219 
L 76.754907 163.013219 
L 77.376481 161.316321 
L 77.998055 161.316321 
L 78.619628 161.316321 
L 79.241202 161.316321 
L 79.862776 161.316321 
L 80.48435 161.316321 
L 81.105923 161.316321 
L 81.727497 162.142334 
L 82.349071 162.142334 
L 82.970645 162.142334 
L 83.592218 162.142334 
L 84.213792 162.142334 
L 84.835366 162.142334 
L 85.45694 160.221364 
L 86.078513 160.221364 
L 86.700087 160.221364 
L 87.321661 160.221364 
L 87.943235 160.221364 
L 88.564808 160.221364 
L 89.186382 162.170817 
L 89.807956 162.170817 
L 90.42953 162.170817 
L 91.051103 162.170817 
L 91.672677 162.170817 
L 92.294251 162.90405 
L 92.915825 162.90405 
L 93.537398 162.90405 
L 94.158972 162.90405 
L 94.780546 162.90405 
L 95.40212 162.90405 
L 96.023693 162.90405 
L 96.645267 160.306147 
L 97.266841 160.306147 
L 97.888415 160.306147 
L 98.509988 160.306147 
L 99.131562 160.306147 
L 99.753136 162.907372 
L 100.37471 162.907372 
L 100.996283 162.907372 
L 101.617857 162.907372 
L 102.239431 162.907372 
L 102.861005 162.907372 
L 103.482578 164.443231 
L 104.104152 164.443231 
L 104.725726 164.443231 
L 105.3473 164.443231 
L 105.968873 164.443231 
L 106.590447 164.443231 
L 107.212021 164.443231 
L 107.833595 151.993664 
L 108.455168 151.993664 
L 109.076742 151.993664 
L 109.698316 151.993664 
L 110.31989 151.993664 
L 110.941463 151.993664 
L 111.563037 161.822212 
L 112.184611 161.822212 
L 112.806185 161.822212 
L 113.427758 161.822212 
L 114.049332 161.822212 
L 114.670906 161.822212 
L 115.29248 160.858701 
L 115.914053 160.858701 
L 116.535627 160.858701 
L 117.157201 160.858701 
L 117.778775 160.858701 
L 118.400348 160.858701 
L 119.021922 157.197299 
L 119.643496 157.197299 
L 120.26507 157.197299 
L 120.886643 157.197299 
L 121.508217 157.197299 
L 122.129791 157.197299 
L 122.751365 149.280064 
L 123.372938 149.280064 
L 123.994512 149.280064 
L 124.616086 149.280064 
L 125.23766 149.280064 
L 125.859233 148.313821 
L 126.480807 148.313821 
L 127.102381 148.313821 
L 127.723955 148.313821 
L 128.345528 148.313821 
L 128.967102 148.313821 
L 129.588676 148.313821 
L 130.21025 147.933755 
L 130.831823 147.933755 
L 131.453397 147.933755 
L 132.074971 147.933755 
L 132.696545 147.933755 
L 133.318118 147.933755 
L 133.939692 129.003416 
L 134.561266 129.003416 
L 135.18284 129.003416 
L 135.804413 129.003416 
L 136.425987 129.003416 
L 137.047561 129.003416 
L 137.669135 146.438012 
L 138.290708 146.438012 
L 138.912282 146.438012 
L 139.533856 146.438012 
L 140.15543 146.438012 
L 140.777003 144.232854 
L 141.398577 144.232854 
L 142.020151 144.232854 
L 142.641725 144.232854 
L 143.263298 144.232854 
L 143.884872 144.232854 
L 144.506446 144.232854 
L 145.12802 156.112365 
L 145.749593 156.112365 
L 146.371167 156.112365 
L 146.992741 156.112365 
L 147.614315 156.112365 
L 148.235888 140.996767 
L 148.857462 140.996767 
L 149.479036 140.996767 
L 150.10061 140.996767 
L 150.722183 140.996767 
L 151.343757 140.996767 
L 151.965331 144.240614 
L 152.586905 144.240614 
L 153.208478 144.240614 
L 153.830052 144.240614 
L 154.451626 144.240614 
L 155.0732 144.240614 
L 155.694773 144.240614 
L 156.316347 146.610935 
L 156.937921 146.610935 
L 157.559495 146.610935 
L 158.181068 146.610935 
L 158.802642 146.610935 
L 159.424216 146.610935 
L 160.04579 152.249187 
L 160.667363 152.249187 
L 161.288937 152.249187 
L 161.910511 152.249187 
L 162.532085 152.249187 
L 163.153658 159.758877 
L 163.775232 159.758877 
L 164.396806 159.758877 
L 165.01838 159.758877 
L 165.639953 159.758877 
L 166.261527 159.758877 
L 166.883101 159.758877 
L 167.504675 162.716447 
L 168.126248 162.716447 
L 168.747822 162.716447 
L 169.369396 162.716447 
L 169.99097 162.716447 
L 170.612543 166.62 
L 171.234117 166.62 
L 171.855691 166.62 
L 172.477265 166.62 
L 173.098838 166.62 
L 173.720412 166.62 
L 174.341986 166.62 
L 174.96356 158.088587 
L 175.585133 158.088587 
L 176.206707 158.088587 
L 176.828281 158.088587 
L 177.449855 158.088587 
L 178.071428 158.088587 
L 178.693002 148.590573 
L 179.314576 148.590573 
L 179.93615 148.590573 
L 180.557723 148.590573 
L 181.179297 148.590573 
L 181.800871 148.590573 
L 182.422445 147.034467 
L 183.044018 147.034467 
L 183.665592 147.034467 
L 184.287166 147.034467 
L 184.908739 147.034467 
L 185.530313 135.328943 
L 186.151887 135.328943 
L 186.773461 135.328943 
L 187.395034 135.328943 
L 188.016608 135.328943 
L 188.638182 135.328943 
L 189.259756 135.328943 
L 189.881329 143.036057 
L 190.502903 143.036057 
L 191.124477 143.036057 
L 191.746051 143.036057 
L 192.367624 143.036057 
L 192.989198 131.953527 
L 193.610772 131.953527 
L 194.232346 131.953527 
L 194.853919 131.953527 
L 195.475493 131.953527 
L 196.097067 131.953527 
L 196.718641 113.075174 
L 197.340214 113.075174 
L 197.961788 113.075174 
L 198.583362 113.075174 
L 199.204936 113.075174 
L 199.826509 113.075174 
L 200.448083 113.075174 
L 201.069657 116.981172 
L 201.691231 116.981172 
L 202.312804 116.981172 
L 202.934378 116.981172 
L 203.555952 116.981172 
L 204.177526 116.981172 
L 204.799099 114.124006 
L 205.420673 114.124006 
L 206.042247 114.124006 
L 206.663821 114.124006 
L 207.285394 114.124006 
L 207.906968 114.124006 
L 208.528542 118.545354 
L 209.150116 118.545354 
L 209.771689 118.545354 
L 210.393263 118.545354 
L 211.014837 118.545354 
L 211.636411 118.545354 
L 212.257984 134.707195 
L 212.879558 134.707195 
L 213.501132 134.707195 
L 214.122706 134.707195 
L 214.744279 134.707195 
L 215.365853 134.707195 
L 215.987427 122.152771 
L 216.609001 122.152771 
L 217.230574 122.152771 
L 217.852148 122.152771 
L 218.473722 122.152771 
L 219.095296 99.916062 
L 219.716869 99.916062 
L 220.338443 99.916062 
L 220.960017 99.916062 
L 221.581591 99.916062 
L 222.203164 99.916062 
L 222.824738 99.916062 
L 223.446312 120.724488 
L 224.067886 120.724488 
L 224.689459 120.724488 
L 225.311033 120.724488 
L 225.932607 120.724488 
L 226.554181 120.724488 
L 227.175754 117.10037 
L 227.797328 117.10037 
L 228.418902 117.10037 
L 229.040476 117.10037 
L 229.662049 117.10037 
L 230.283623 117.10037 
L 230.905197 111.198925 
L 231.526771 111.198925 
L 232.148344 111.198925 
L 232.769918 111.198925 
L 233.391492 111.198925 
L 234.013066 92.245341 
L 234.634639 92.245341 
L 235.256213 92.245341 
L 235.877787 92.245341 
L 236.499361 92.245341 
L 237.120934 132.906947 
L 237.742508 132.906947 
L 238.364082 132.906947 
L 238.985656 132.906947 
L 239.607229 132.906947 
L 240.228803 132.08898 
L 240.850377 132.08898 
L 241.471951 132.08898 
L 242.093524 132.08898 
L 242.715098 132.08898 
L 243.336672 108.338609 
L 243.958246 108.338609 
L 244.579819 108.338609 
L 245.201393 108.338609 
L 245.822967 108.338609 
L 246.444541 121.097916 
L 247.066114 121.097916 
L 247.687688 121.097916 
L 248.309262 121.097916 
L 248.930836 121.097916 
L 249.552409 118.562418 
L 250.173983 118.562418 
L 250.795557 118.562418 
L 251.417131 118.562418 
L 252.038704 118.562418 
L 252.660278 126.142971 
L 253.281852 126.142971 
L 253.903426 126.142971 
L 254.524999 126.142971 
L 255.146573 126.142971 
L 255.768147 137.094898 
L 256.389721 137.094898 
L 257.011294 137.094898 
L 257.632868 137.094898 
L 258.254442 137.094898 
L 258.876016 136.625341 
L 259.497589 136.625341 
L 260.119163 136.625341 
L 260.740737 136.625341 
L 261.362311 136.625341 
L 261.983884 151.780976 
L 262.605458 151.780976 
L 263.227032 151.780976 
L 263.848606 151.780976 
L 264.470179 151.780976 
L 265.091753 127.077063 
L 265.713327 127.077063 
L 266.334901 127.077063 
L 266.956474 127.077063 
L 267.578048 127.077063 
L 268.199622 129.009805 
L 268.821196 129.009805 
L 269.442769 129.009805 
L 270.064343 129.009805 
L 270.685917 129.009805 
L 271.307491 134.541024 
L 271.929064 134.541024 
L 272.550638 134.541024 
L 273.172212 134.541024 
L 273.793786 134.541024 
L 274.415359 150.23167 
L 275.036933 150.23167 
L 275.658507 150.23167 
L 276.280081 150.23167 
L 276.901654 150.23167 
L 277.523228 118.336072 
L 278.144802 118.336072 
L 278.766376 118.336072 
L 279.387949 118.336072 
L 280.009523 118.336072 
L 280.631097 117.478155 
L 281.252671 117.478155 
L 281.874244 117.478155 
L 282.495818 117.478155 
L 283.117392 117.478155 
L 283.738966 104.690089 
L 284.360539 104.690089 
L 284.982113 104.690089 
L 285.603687 104.690089 
L 286.225261 104.690089 
L 286.846834 121.710711 
L 287.468408 121.710711 
L 288.089982 121.710711 
L 288.711555 121.710711 
L 289.333129 121.710711 
L 289.954703 128.729565 
L 290.576277 128.729565 
L 291.19785 128.729565 
L 291.819424 128.729565 
L 292.440998 128.729565 
L 293.062572 100.542245 
L 293.684145 100.542245 
L 294.305719 100.542245 
L 294.927293 100.542245 
L 295.548867 100.542245 
L 296.17044 140.526451 
L 296.792014 140.526451 
L 297.413588 140.526451 
L 298.035162 140.526451 
L 298.656735 140.526451 
L 299.278309 125.058759 
L 299.899883 125.058759 
L 300.521457 125.058759 
L 301.14303 125.058759 
L 301.764604 125.058759 
L 302.386178 122.754094 
L 303.007752 122.754094 
L 303.629325 122.754094 
L 304.250899 122.754094 
L 304.872473 122.754094 
L 305.494047 127.21854 
L 306.11562 127.21854 
L 306.737194 127.21854 
L 307.358768 127.21854 
L 307.980342 127.21854 
L 308.601915 123.8639 
L 309.223489 123.8639 
L 309.845063 123.8639 
L 310.466637 123.8639 
L 311.08821 123.8639 
L 311.709784 91.129794 
L 312.331358 91.129794 
L 312.952932 91.129794 
L 313.574505 91.129794 
L 314.196079 91.129794 
L 314.817653 116.35502 
L 315.439227 116.35502 
L 316.0608 116.35502 
L 316.682374 116.35502 
L 317.303948 116.35502 
L 317.925522 113.089819 
L 318.547095 113.089819 
L 319.168669 113.089819 
L 319.790243 113.089819 
L 320.411817 113.089819 
L 321.03339 100.10917 
L 321.654964 100.10917 
L 322.276538 100.10917 
L 322.898112 100.10917 
L 323.519685 100.10917 
L 324.141259 106.002166 
L 324.762833 106.002166 
L 325.384407 106.002166 
L 326.00598 106.002166 
L 326.627554 106.002166 
L 327.249128 101.070679 
L 327.870702 101.070679 
L 328.492275 101.070679 
L 329.113849 101.070679 
L 329.735423 101.070679 
L 330.356997 114.972344 
L 330.97857 114.972344 
L 331.600144 114.972344 
L 332.221718 114.972344 
L 332.843292 114.972344 
L 333.464865 85.596476 
L 334.086439 85.596476 
L 334.708013 85.596476 
L 335.329587 85.596476 
L 335.95116 85.596476 
L 336.572734 119.722745 
L 337.194308 119.722745 
L 337.815882 119.722745 
L 338.437455 119.722745 
L 339.059029 119.722745 
L 339.680603 140.512752 
L 340.302177 140.512752 
L 340.92375 140.512752 
L 341.545324 140.512752 
L 342.166898 140.512752 
L 342.788472 129.222933 
L 343.410045 129.222933 
L 344.031619 129.222933 
L 344.653193 129.222933 
L 345.274767 129.222933 
L 345.89634 115.973444 
L 346.517914 115.973444 
L 347.139488 115.973444 
L 347.761062 115.973444 
L 348.382635 115.973444 
L 349.004209 118.458086 
L 349.625783 118.458086 
L 350.247357 118.458086 
L 350.86893 118.458086 
L 351.490504 118.458086 
L 352.112078 113.78936 
L 352.733652 113.78936 
L 353.355225 113.78936 
L 353.976799 113.78936 
L 354.598373 113.78936 
L 355.219947 126.335357 
L 355.84152 126.335357 
L 356.463094 126.335357 
L 357.084668 126.335357 
L 357.706242 126.335357 
L 358.327815 122.172173 
L 358.949389 122.172173 
L 359.570963 122.172173 
L 360.192537 122.172173 
L 360.81411 122.172173 
L 361.435684 130.015694 
L 362.057258 130.015694 
L 362.678832 130.015694 
L 363.300405 130.015694 
L 363.921979 130.015694 
L 364.543553 121.441335 
L 365.165127 121.441335 
L 365.7867 121.441335 
L 366.408274 121.441335 
L 367.029848 121.441335 
L 367.651422 130.688882 
L 368.272995 130.688882 
L 368.894569 130.688882 
L 369.516143 130.688882 
L 370.137717 130.688882 
L 370.75929 130.596011 
L 371.380864 130.596011 
L 372.002438 130.596011 
L 372.624012 130.596011 
L 373.245585 130.596011 
L 373.867159 91.869369 
L 374.488733 91.869369 
L 375.110307 91.869369 
L 375.73188 91.869369 
L 376.353454 91.869369 
L 376.975028 135.129704 
L 377.596602 135.129704 
L 378.218175 135.129704 
L 378.839749 135.129704 
L 379.461323 135.129704 
L 380.082897 120.602409 
L 380.70447 120.602409 
L 381.326044 120.602409 
L 381.947618 120.602409 
L 382.569192 120.602409 
L 383.190765 99.805834 
L 383.812339 99.805834 
L 384.433913 99.805834 
L 385.055487 99.805834 
L 385.67706 99.805834 
L 386.298634 107.644688 
L 386.920208 107.644688 
L 387.541782 107.644688 
L 388.163355 107.644688 
L 388.784929 107.644688 
L 389.406503 101.041315 
L 390.028077 101.041315 
L 390.64965 101.041315 
L 391.271224 101.041315 
L 391.892798 101.041315 
L 392.514372 84.272882 
L 393.135945 84.272882 
L 393.757519 84.272882 
L 394.379093 84.272882 
L 395.000666 84.272882 
L 395.62224 95.862876 
L 396.243814 95.862876 
L 396.865388 95.862876 
L 397.486961 95.862876 
L 398.108535 95.862876 
L 398.730109 104.603919 
L 399.351683 104.603919 
L 399.973256 104.603919 
L 400.59483 104.603919 
L 401.216404 104.603919 
L 401.837978 65.498146 
L 402.459551 65.498146 
L 403.081125 65.498146 
L 403.702699 65.498146 
L 404.324273 65.498146 
L 404.324273 40.580166 
L 404.324273 40.580166 
L 403.702699 40.580166 
L 403.081125 40.580166 
L 402.459551 40.580166 
L 401.837978 40.580166 
L 401.216404 18.220533 
L 400.59483 18.220533 
L 399.973256 18.220533 
L 399.351683 18.220533 
L 398.730109 18.220533 
L 398.108535 18.220975 
L 397.486961 18.220975 
L 396.865388 18.220975 
L 396.243814 18.220975 
L 395.62224 18.220975 
L 395.000666 18.220449 
L 394.379093 18.220449 
L 393.757519 18.220449 
L 393.135945 18.220449 
L 392.514372 18.220449 
L 391.892798 18.221097 
L 391.271224 18.221097 
L 390.64965 18.221097 
L 390.028077 18.221097 
L 389.406503 18.221097 
L 388.784929 18.220495 
L 388.163355 18.220495 
L 387.541782 18.220495 
L 386.920208 18.220495 
L 386.298634 18.220495 
L 385.67706 18.220244 
L 385.055487 18.220244 
L 384.433913 18.220244 
L 383.812339 18.220244 
L 383.190765 18.220244 
L 382.569192 18.223618 
L 381.947618 18.223618 
L 381.326044 18.223618 
L 380.70447 18.223618 
L 380.082897 18.223618 
L 379.461323 18.229331 
L 378.839749 18.229331 
L 378.218175 18.229331 
L 377.596602 18.229331 
L 376.975028 18.229331 
L 376.353454 18.221089 
L 375.73188 18.221089 
L 375.110307 18.221089 
L 374.488733 18.221089 
L 373.867159 18.221089 
L 373.245585 18.221402 
L 372.624012 18.221402 
L 372.002438 18.221402 
L 371.380864 18.221402 
L 370.75929 18.221402 
L 370.137717 36.485734 
L 369.516143 36.485734 
L 368.894569 36.485734 
L 368.272995 36.485734 
L 367.651422 36.485734 
L 367.029848 18.224251 
L 366.408274 18.224251 
L 365.7867 18.224251 
L 365.165127 18.224251 
L 364.543553 18.224251 
L 363.921979 18.224944 
L 363.300405 18.224944 
L 362.678832 18.224944 
L 362.057258 18.224944 
L 361.435684 18.224944 
L 360.81411 18.220236 
L 360.192537 18.220236 
L 359.570963 18.220236 
L 358.949389 18.220236 
L 358.327815 18.220236 
L 357.706242 18.221234 
L 357.084668 18.221234 
L 356.463094 18.221234 
L 355.84152 18.221234 
L 355.219947 18.221234 
L 354.598373 18.222369 
L 353.976799 18.222369 
L 353.355225 18.222369 
L 352.733652 18.222369 
L 352.112078 18.222369 
L 351.490504 18.222034 
L 350.86893 18.222034 
L 350.247357 18.222034 
L 349.625783 18.222034 
L 349.004209 18.222034 
L 348.382635 18.222895 
L 347.761062 18.222895 
L 347.139488 18.222895 
L 346.517914 18.222895 
L 345.89634 18.222895 
L 345.274767 18.225271 
L 344.653193 18.225271 
L 344.031619 18.225271 
L 343.410045 18.225271 
L 342.788472 18.225271 
L 342.166898 18.221973 
L 341.545324 18.221973 
L 340.92375 18.221973 
L 340.302177 18.221973 
L 339.680603 18.221973 
L 339.059029 18.221851 
L 338.437455 18.221851 
L 337.815882 18.221851 
L 337.194308 18.221851 
L 336.572734 18.221851 
L 335.95116 18.220008 
L 335.329587 18.220008 
L 334.708013 18.220008 
L 334.086439 18.220008 
L 333.464865 18.220008 
L 332.843292 18.221676 
L 332.221718 18.221676 
L 331.600144 18.221676 
L 330.97857 18.221676 
L 330.356997 18.221676 
L 329.735423 18.225454 
L 329.113849 18.225454 
L 328.492275 18.225454 
L 327.870702 18.225454 
L 327.249128 18.225454 
L 326.627554 18.220152 
L 326.00598 18.220152 
L 325.384407 18.220152 
L 324.762833 18.220152 
L 324.141259 18.220152 
L 323.519685 18.225561 
L 322.898112 18.225561 
L 322.276538 18.225561 
L 321.654964 18.225561 
L 321.03339 18.225561 
L 320.411817 18.22048 
L 319.790243 18.22048 
L 319.168669 18.22048 
L 318.547095 18.22048 
L 317.925522 18.22048 
L 317.303948 18.220229 
L 316.682374 18.220229 
L 316.0608 18.220229 
L 315.439227 18.220229 
L 314.817653 18.220229 
L 314.196079 18.22 
L 313.574505 18.22 
L 312.952932 18.22 
L 312.331358 18.22 
L 311.709784 18.22 
L 311.08821 18.220769 
L 310.466637 18.220769 
L 309.845063 18.220769 
L 309.223489 18.220769 
L 308.601915 18.220769 
L 307.980342 18.22064 
L 307.358768 18.22064 
L 306.737194 18.22064 
L 306.11562 18.22064 
L 305.494047 18.22064 
L 304.872473 18.220175 
L 304.250899 18.220175 
L 303.629325 18.220175 
L 303.007752 18.220175 
L 302.386178 18.220175 
L 301.764604 18.220571 
L 301.14303 18.220571 
L 300.521457 18.220571 
L 299.899883 18.220571 
L 299.278309 18.220571 
L 298.656735 18.220564 
L 298.035162 18.220564 
L 297.413588 18.220564 
L 296.792014 18.220564 
L 296.17044 18.220564 
L 295.548867 18.220229 
L 294.927293 18.220229 
L 294.305719 18.220229 
L 293.684145 18.220229 
L 293.062572 18.220229 
L 292.440998 18.220008 
L 291.819424 18.220008 
L 291.19785 18.220008 
L 290.576277 18.220008 
L 289.954703 18.220008 
L 289.333129 18.221044 
L 288.711555 18.221044 
L 288.089982 18.221044 
L 287.468408 18.221044 
L 286.846834 18.221044 
L 286.225261 18.220876 
L 285.603687 18.220876 
L 284.982113 18.220876 
L 284.360539 18.220876 
L 283.738966 18.220876 
L 283.117392 18.220914 
L 282.495818 18.220914 
L 281.874244 18.220914 
L 281.252671 18.220914 
L 280.631097 18.220914 
L 280.009523 18.222156 
L 279.387949 18.222156 
L 278.766376 18.222156 
L 278.144802 18.222156 
L 277.523228 18.222156 
L 276.901654 101.649176 
L 276.280081 101.649176 
L 275.658507 101.649176 
L 275.036933 101.649176 
L 274.415359 101.649176 
L 273.793786 18.220389 
L 273.172212 18.220389 
L 272.550638 18.220389 
L 271.929064 18.220389 
L 271.307491 18.220389 
L 270.685917 18.221409 
L 270.064343 18.221409 
L 269.442769 18.221409 
L 268.821196 18.221409 
L 268.199622 18.221409 
L 267.578048 18.22115 
L 266.956474 18.22115 
L 266.334901 18.22115 
L 265.713327 18.22115 
L 265.091753 18.22115 
L 264.470179 38.422702 
L 263.848606 38.422702 
L 263.227032 38.422702 
L 262.605458 38.422702 
L 261.983884 38.422702 
L 261.362311 18.220609 
L 260.740737 18.220609 
L 260.119163 18.220609 
L 259.497589 18.220609 
L 258.876016 18.220609 
L 258.254442 54.206169 
L 257.632868 54.206169 
L 257.011294 54.206169 
L 256.389721 54.206169 
L 255.768147 54.206169 
L 255.146573 18.223336 
L 254.524999 18.223336 
L 253.903426 18.223336 
L 253.281852 18.223336 
L 252.660278 18.223336 
L 252.038704 18.221371 
L 251.417131 18.221371 
L 250.795557 18.221371 
L 250.173983 18.221371 
L 249.552409 18.221371 
L 248.930836 18.224593 
L 248.309262 18.224593 
L 247.687688 18.224593 
L 247.066114 18.224593 
L 246.444541 18.224593 
L 245.822967 18.221691 
L 245.201393 18.221691 
L 244.579819 18.221691 
L 243.958246 18.221691 
L 243.336672 18.221691 
L 242.715098 18.220289 
L 242.093524 18.220289 
L 241.471951 18.220289 
L 240.850377 18.220289 
L 240.228803 18.220289 
L 239.607229 53.206573 
L 238.985656 53.206573 
L 238.364082 53.206573 
L 237.742508 53.206573 
L 237.120934 53.206573 
L 236.499361 18.220427 
L 235.877787 18.220427 
L 235.256213 18.220427 
L 234.634639 18.220427 
L 234.013066 18.220427 
L 233.391492 18.223527 
L 232.769918 18.223527 
L 232.148344 18.223527 
L 231.526771 18.223527 
L 230.905197 18.223527 
L 230.283623 18.220587 
L 229.662049 18.220587 
L 229.040476 18.220587 
L 228.418902 18.220587 
L 227.797328 18.220587 
L 227.175754 18.220587 
L 226.554181 18.22617 
L 225.932607 18.22617 
L 225.311033 18.22617 
L 224.689459 18.22617 
L 224.067886 18.22617 
L 223.446312 18.22617 
L 222.824738 18.220427 
L 222.203164 18.220427 
L 221.581591 18.220427 
L 220.960017 18.220427 
L 220.338443 18.220427 
L 219.716869 18.220427 
L 219.095296 18.220427 
L 218.473722 18.220609 
L 217.852148 18.220609 
L 217.230574 18.220609 
L 216.609001 18.220609 
L 215.987427 18.220609 
L 215.365853 18.22115 
L 214.744279 18.22115 
L 214.122706 18.22115 
L 213.501132 18.22115 
L 212.879558 18.22115 
L 212.257984 18.22115 
L 211.636411 18.221783 
L 211.014837 18.221783 
L 210.393263 18.221783 
L 209.771689 18.221783 
L 209.150116 18.221783 
L 208.528542 18.221783 
L 207.906968 18.224563 
L 207.285394 18.224563 
L 206.663821 18.224563 
L 206.042247 18.224563 
L 205.420673 18.224563 
L 204.799099 18.224563 
L 204.177526 18.220335 
L 203.555952 18.220335 
L 202.934378 18.220335 
L 202.312804 18.220335 
L 201.691231 18.220335 
L 201.069657 18.220335 
L 200.448083 18.220587 
L 199.826509 18.220587 
L 199.204936 18.220587 
L 198.583362 18.220587 
L 197.961788 18.220587 
L 197.340214 18.220587 
L 196.718641 18.220587 
L 196.097067 18.221219 
L 195.475493 18.221219 
L 194.853919 18.221219 
L 194.232346 18.221219 
L 193.610772 18.221219 
L 192.989198 18.221219 
L 192.367624 18.224113 
L 191.746051 18.224113 
L 191.124477 18.224113 
L 190.502903 18.224113 
L 189.881329 18.224113 
L 189.259756 18.250251 
L 188.638182 18.250251 
L 188.016608 18.250251 
L 187.395034 18.250251 
L 186.773461 18.250251 
L 186.151887 18.250251 
L 185.530313 18.250251 
L 184.908739 45.448798 
L 184.287166 45.448798 
L 183.665592 45.448798 
L 183.044018 45.448798 
L 182.422445 45.448798 
L 181.800871 26.482246 
L 181.179297 26.482246 
L 180.557723 26.482246 
L 179.93615 26.482246 
L 179.314576 26.482246 
L 178.693002 26.482246 
L 178.071428 111.512993 
L 177.449855 111.512993 
L 176.828281 111.512993 
L 176.206707 111.512993 
L 175.585133 111.512993 
L 174.96356 111.512993 
L 174.341986 147.204672 
L 173.720412 147.204672 
L 173.098838 147.204672 
L 172.477265 147.204672 
L 171.855691 147.204672 
L 171.234117 147.204672 
L 170.612543 147.204672 
L 169.99097 18.229712 
L 169.369396 18.229712 
L 168.747822 18.229712 
L 168.126248 18.229712 
L 167.504675 18.229712 
L 166.883101 125.743853 
L 166.261527 125.743853 
L 165.639953 125.743853 
L 165.01838 125.743853 
L 164.396806 125.743853 
L 163.775232 125.743853 
L 163.153658 125.743853 
L 162.532085 116.019675 
L 161.910511 116.019675 
L 161.288937 116.019675 
L 160.667363 116.019675 
L 160.04579 116.019675 
L 159.424216 101.481031 
L 158.802642 101.481031 
L 158.181068 101.481031 
L 157.559495 101.481031 
L 156.937921 101.481031 
L 156.316347 101.481031 
L 155.694773 18.227038 
L 155.0732 18.227038 
L 154.451626 18.227038 
L 153.830052 18.227038 
L 153.208478 18.227038 
L 152.586905 18.227038 
L 151.965331 18.227038 
L 151.343757 25.765534 
L 150.722183 25.765534 
L 150.10061 25.765534 
L 149.479036 25.765534 
L 148.857462 25.765534 
L 148.235888 25.765534 
L 147.614315 89.624753 
L 146.992741 89.624753 
L 146.371167 89.624753 
L 145.749593 89.624753 
L 145.12802 89.624753 
L 144.506446 95.897309 
L 143.884872 95.897309 
L 143.263298 95.897309 
L 142.641725 95.897309 
L 142.020151 95.897309 
L 141.398577 95.897309 
L 140.777003 95.897309 
L 140.15543 72.364711 
L 139.533856 72.364711 
L 138.912282 72.364711 
L 138.290708 72.364711 
L 137.669135 72.364711 
L 137.047561 18.220701 
L 136.425987 18.220701 
L 135.804413 18.220701 
L 135.18284 18.220701 
L 134.561266 18.220701 
L 133.939692 18.220701 
L 133.318118 74.473521 
L 132.696545 74.473521 
L 132.074971 74.473521 
L 131.453397 74.473521 
L 130.831823 74.473521 
L 130.21025 74.473521 
L 129.588676 108.472614 
L 128.967102 108.472614 
L 128.345528 108.472614 
L 127.723955 108.472614 
L 127.102381 108.472614 
L 126.480807 108.472614 
L 125.859233 108.472614 
L 125.23766 92.958742 
L 124.616086 92.958742 
L 123.994512 92.958742 
L 123.372938 92.958742 
L 122.751365 92.958742 
L 122.129791 122.407853 
L 121.508217 122.407853 
L 120.886643 122.407853 
L 120.26507 122.407853 
L 119.643496 122.407853 
L 119.021922 122.407853 
L 118.400348 143.487352 
L 117.778775 143.487352 
L 117.157201 143.487352 
L 116.535627 143.487352 
L 115.914053 143.487352 
L 115.29248 143.487352 
L 114.670906 150.234513 
L 114.049332 150.234513 
L 113.427758 150.234513 
L 112.806185 150.234513 
L 112.184611 150.234513 
L 111.563037 150.234513 
L 110.941463 114.244891 
L 110.31989 114.244891 
L 109.698316 114.244891 
L 109.076742 114.244891 
L 108.455168 114.244891 
L 107.833595 114.244891 
L 107.212021 144.263083 
L 106.590447 144.263083 
L 105.968873 144.263083 
L 105.3473 144.263083 
L 104.725726 144.263083 
L 104.104152 144.263083 
L 103.482578 144.263083 
L 102.861005 129.424919 
L 102.239431 129.424919 
L 101.617857 129.424919 
L 100.996283 129.424919 
L 100.37471 129.424919 
L 99.753136 129.424919 
L 99.131562 102.89612 
L 98.509988 102.89612 
L 97.888415 102.89612 
L 97.266841 102.89612 
L 96.645267 102.89612 
L 96.023693 144.387871 
L 95.40212 144.387871 
L 94.780546 144.387871 
L 94.158972 144.387871 
L 93.537398 144.387871 
L 92.915825 144.387871 
L 92.294251 144.387871 
L 91.672677 134.061443 
L 91.051103 134.061443 
L 90.42953 134.061443 
L 89.807956 134.061443 
L 89.186382 134.061443 
L 88.564808 125.162617 
L 87.943235 125.162617 
L 87.321661 125.162617 
L 86.700087 125.162617 
L 86.078513 125.162617 
L 85.45694 125.162617 
L 84.835366 138.055539 
L 84.213792 138.055539 
L 83.592218 138.055539 
L 82.970645 138.055539 
L 82.349071 138.055539 
L 81.727497 138.055539 
L 81.105923 146.670461 
L 80.48435 146.670461 
L 79.862776 146.670461 
L 79.241202 146.670461 
L 78.619628 146.670461 
L 77.998055 146.670461 
L 77.376481 146.670461 
L 76.754907 133.343312 
L 76.133334 133.343312 
L 75.51176 133.343312 
L 74.890186 133.343312 
L 74.268612 133.343312 
L 73.647039 132.240846 
L 73.025465 132.240846 
L 72.403891 132.240846 
L 71.782317 132.240846 
L 71.160744 132.240846 
L 70.53917 132.240846 
L 69.917596 132.240846 
L 69.296022 152.04092 
L 68.674449 152.04092 
L 68.052875 152.04092 
L 67.431301 152.04092 
L 66.809727 152.04092 
z
" style="fill:#1f77b4;fill-opacity:0.3;"/>
   </g>
   <g id="matplotlib.axis_1">
    <g id="xtick_1">
     <g id="line2d_1">
      <defs>
       <path d="M 0 0 
L 0 3.5 
" id="mcd64586c97" style="stroke:#000000;stroke-width:0.8;"/>
      </defs>
      <g>
       <use style="stroke:#000000;stroke-width:0.8;" x="66.809727" xlink:href="#mcd64586c97" y="174.04"/>
      </g>
     </g>
     <g id="text_1">
      <!-- 0.0 -->
      <defs>
       <path d="M 31.78125 66.40625 
Q 24.171875 66.40625 20.328125 58.90625 
Q 16.5 51.421875 16.5 36.375 
Q 16.5 21.390625 20.328125 13.890625 
Q 24.171875 6.390625 31.78125 6.390625 
Q 39.453125 6.390625 43.28125 13.890625 
Q 47.125 21.390625 47.125 36.375 
Q 47.125 51.421875 43.28125 58.90625 
Q 39.453125 66.40625 31.78125 66.40625 
z
M 31.78125 74.21875 
Q 44.046875 74.21875 50.515625 64.515625 
Q 56.984375 54.828125 56.984375 36.375 
Q 56.984375 17.96875 50.515625 8.265625 
Q 44.046875 -1.421875 31.78125 -1.421875 
Q 19.53125 -1.421875 13.0625 8.265625 
Q 6.59375 17.96875 6.59375 36.375 
Q 6.59375 54.828125 13.0625 64.515625 
Q 19.53125 74.21875 31.78125 74.21875 
z
" id="DejaVuSans-48"/>
       <path d="M 10.6875 12.40625 
L 21 12.40625 
L 21 0 
L 10.6875 0 
z
" id="DejaVuSans-46"/>
      </defs>
      <g transform="translate(58.858165 188.638438)scale(0.1 -0.1)">
       <use xlink:href="#DejaVuSans-48"/>
       <use x="63.623047" xlink:href="#DejaVuSans-46"/>
       <use x="95.410156" xlink:href="#DejaVuSans-48"/>
      </g>
     </g>
    </g>
    <g id="xtick_2">
     <g id="line2d_2">
      <g>
       <use style="stroke:#000000;stroke-width:0.8;" x="128.852842" xlink:href="#mcd64586c97" y="174.04"/>
      </g>
     </g>
     <g id="text_2">
      <!-- 0.1 -->
      <defs>
       <path d="M 12.40625 8.296875 
L 28.515625 8.296875 
L 28.515625 63.921875 
L 10.984375 60.40625 
L 10.984375 69.390625 
L 28.421875 72.90625 
L 38.28125 72.90625 
L 38.28125 8.296875 
L 54.390625 8.296875 
L 54.390625 0 
L 12.40625 0 
z
" id="DejaVuSans-49"/>
      </defs>
      <g transform="translate(120.90128 188.638438)scale(0.1 -0.1)">
       <use xlink:href="#DejaVuSans-48"/>
       <use x="63.623047" xlink:href="#DejaVuSans-46"/>
       <use x="95.410156" xlink:href="#DejaVuSans-49"/>
      </g>
     </g>
    </g>
    <g id="xtick_3">
     <g id="line2d_3">
      <g>
       <use style="stroke:#000000;stroke-width:0.8;" x="190.895957" xlink:href="#mcd64586c97" y="174.04"/>
      </g>
     </g>
     <g id="text_3">
      <!-- 0.2 -->
      <defs>
       <path d="M 19.1875 8.296875 
L 53.609375 8.296875 
L 53.609375 0 
L 7.328125 0 
L 7.328125 8.296875 
Q 12.9375 14.109375 22.625 23.890625 
Q 32.328125 33.6875 34.8125 36.53125 
Q 39.546875 41.84375 41.421875 45.53125 
Q 43.3125 49.21875 43.3125 52.78125 
Q 43.3125 58.59375 39.234375 62.25 
Q 35.15625 65.921875 28.609375 65.921875 
Q 23.96875 65.921875 18.8125 64.3125 
Q 13.671875 62.703125 7.8125 59.421875 
L 7.8125 69.390625 
Q 13.765625 71.78125 18.9375 73 
Q 24.125 74.21875 28.421875 74.21875 
Q 39.75 74.21875 46.484375 68.546875 
Q 53.21875 62.890625 53.21875 53.421875 
Q 53.21875 48.921875 51.53125 44.890625 
Q 49.859375 40.875 45.40625 35.40625 
Q 44.1875 33.984375 37.640625 27.21875 
Q 31.109375 20.453125 19.1875 8.296875 
z
" id="DejaVuSans-50"/>
      </defs>
      <g transform="translate(182.944395 188.638438)scale(0.1 -0.1)">
       <use xlink:href="#DejaVuSans-48"/>
       <use x="63.623047" xlink:href="#DejaVuSans-46"/>
       <use x="95.410156" xlink:href="#DejaVuSans-50"/>
      </g>
     </g>
    </g>
    <g id="xtick_4">
     <g id="line2d_4">
      <g>
       <use style="stroke:#000000;stroke-width:0.8;" x="252.939072" xlink:href="#mcd64586c97" y="174.04"/>
      </g>
     </g>
     <g id="text_4">
      <!-- 0.3 -->
      <defs>
       <path d="M 40.578125 39.3125 
Q 47.65625 37.796875 51.625 33 
Q 55.609375 28.21875 55.609375 21.1875 
Q 55.609375 10.40625 48.1875 4.484375 
Q 40.765625 -1.421875 27.09375 -1.421875 
Q 22.515625 -1.421875 17.65625 -0.515625 
Q 12.796875 0.390625 7.625 2.203125 
L 7.625 11.71875 
Q 11.71875 9.328125 16.59375 8.109375 
Q 21.484375 6.890625 26.8125 6.890625 
Q 36.078125 6.890625 40.9375 10.546875 
Q 45.796875 14.203125 45.796875 21.1875 
Q 45.796875 27.640625 41.28125 31.265625 
Q 36.765625 34.90625 28.71875 34.90625 
L 20.21875 34.90625 
L 20.21875 43.015625 
L 29.109375 43.015625 
Q 36.375 43.015625 40.234375 45.921875 
Q 44.09375 48.828125 44.09375 54.296875 
Q 44.09375 59.90625 40.109375 62.90625 
Q 36.140625 65.921875 28.71875 65.921875 
Q 24.65625 65.921875 20.015625 65.03125 
Q 15.375 64.15625 9.8125 62.3125 
L 9.8125 71.09375 
Q 15.4375 72.65625 20.34375 73.4375 
Q 25.25 74.21875 29.59375 74.21875 
Q 40.828125 74.21875 47.359375 69.109375 
Q 53.90625 64.015625 53.90625 55.328125 
Q 53.90625 49.265625 50.4375 45.09375 
Q 46.96875 40.921875 40.578125 39.3125 
z
" id="DejaVuSans-51"/>
      </defs>
      <g transform="translate(244.98751 188.638438)scale(0.1 -0.1)">
       <use xlink:href="#DejaVuSans-48"/>
       <use x="63.623047" xlink:href="#DejaVuSans-46"/>
       <use x="95.410156" xlink:href="#DejaVuSans-51"/>
      </g>
     </g>
    </g>
    <g id="xtick_5">
     <g id="line2d_5">
      <g>
       <use style="stroke:#000000;stroke-width:0.8;" x="314.982187" xlink:href="#mcd64586c97" y="174.04"/>
      </g>
     </g>
     <g id="text_5">
      <!-- 0.4 -->
      <defs>
       <path d="M 37.796875 64.3125 
L 12.890625 25.390625 
L 37.796875 25.390625 
z
M 35.203125 72.90625 
L 47.609375 72.90625 
L 47.609375 25.390625 
L 58.015625 25.390625 
L 58.015625 17.1875 
L 47.609375 17.1875 
L 47.609375 0 
L 37.796875 0 
L 37.796875 17.1875 
L 4.890625 17.1875 
L 4.890625 26.703125 
z
" id="DejaVuSans-52"/>
      </defs>
      <g transform="translate(307.030625 188.638438)scale(0.1 -0.1)">
       <use xlink:href="#DejaVuSans-48"/>
       <use x="63.623047" xlink:href="#DejaVuSans-46"/>
       <use x="95.410156" xlink:href="#DejaVuSans-52"/>
      </g>
     </g>
    </g>
    <g id="xtick_6">
     <g id="line2d_6">
      <g>
       <use style="stroke:#000000;stroke-width:0.8;" x="377.025302" xlink:href="#mcd64586c97" y="174.04"/>
      </g>
     </g>
     <g id="text_6">
      <!-- 0.5 -->
      <defs>
       <path d="M 10.796875 72.90625 
L 49.515625 72.90625 
L 49.515625 64.59375 
L 19.828125 64.59375 
L 19.828125 46.734375 
Q 21.96875 47.46875 24.109375 47.828125 
Q 26.265625 48.1875 28.421875 48.1875 
Q 40.625 48.1875 47.75 41.5 
Q 54.890625 34.8125 54.890625 23.390625 
Q 54.890625 11.625 47.5625 5.09375 
Q 40.234375 -1.421875 26.90625 -1.421875 
Q 22.3125 -1.421875 17.546875 -0.640625 
Q 12.796875 0.140625 7.71875 1.703125 
L 7.71875 11.625 
Q 12.109375 9.234375 16.796875 8.0625 
Q 21.484375 6.890625 26.703125 6.890625 
Q 35.15625 6.890625 40.078125 11.328125 
Q 45.015625 15.765625 45.015625 23.390625 
Q 45.015625 31 40.078125 35.4375 
Q 35.15625 39.890625 26.703125 39.890625 
Q 22.75 39.890625 18.8125 39.015625 
Q 14.890625 38.140625 10.796875 36.28125 
z
" id="DejaVuSans-53"/>
      </defs>
      <g transform="translate(369.07374 188.638438)scale(0.1 -0.1)">
       <use xlink:href="#DejaVuSans-48"/>
       <use x="63.623047" xlink:href="#DejaVuSans-46"/>
       <use x="95.410156" xlink:href="#DejaVuSans-53"/>
      </g>
     </g>
    </g>
    <g id="text_7">
     <!-- Depth (km) -->
     <defs>
      <path d="M 19.671875 64.796875 
L 19.671875 8.109375 
L 31.59375 8.109375 
Q 46.6875 8.109375 53.6875 14.9375 
Q 60.6875 21.78125 60.6875 36.53125 
Q 60.6875 51.171875 53.6875 57.984375 
Q 46.6875 64.796875 31.59375 64.796875 
z
M 9.8125 72.90625 
L 30.078125 72.90625 
Q 51.265625 72.90625 61.171875 64.09375 
Q 71.09375 55.28125 71.09375 36.53125 
Q 71.09375 17.671875 61.125 8.828125 
Q 51.171875 0 30.078125 0 
L 9.8125 0 
z
" id="DejaVuSans-68"/>
      <path d="M 56.203125 29.59375 
L 56.203125 25.203125 
L 14.890625 25.203125 
Q 15.484375 15.921875 20.484375 11.0625 
Q 25.484375 6.203125 34.421875 6.203125 
Q 39.59375 6.203125 44.453125 7.46875 
Q 49.3125 8.734375 54.109375 11.28125 
L 54.109375 2.78125 
Q 49.265625 0.734375 44.1875 -0.34375 
Q 39.109375 -1.421875 33.890625 -1.421875 
Q 20.796875 -1.421875 13.15625 6.1875 
Q 5.515625 13.8125 5.515625 26.8125 
Q 5.515625 40.234375 12.765625 48.109375 
Q 20.015625 56 32.328125 56 
Q 43.359375 56 49.78125 48.890625 
Q 56.203125 41.796875 56.203125 29.59375 
z
M 47.21875 32.234375 
Q 47.125 39.59375 43.09375 43.984375 
Q 39.0625 48.390625 32.421875 48.390625 
Q 24.90625 48.390625 20.390625 44.140625 
Q 15.875 39.890625 15.1875 32.171875 
z
" id="DejaVuSans-101"/>
      <path d="M 18.109375 8.203125 
L 18.109375 -20.796875 
L 9.078125 -20.796875 
L 9.078125 54.6875 
L 18.109375 54.6875 
L 18.109375 46.390625 
Q 20.953125 51.265625 25.265625 53.625 
Q 29.59375 56 35.59375 56 
Q 45.5625 56 51.78125 48.09375 
Q 58.015625 40.1875 58.015625 27.296875 
Q 58.015625 14.40625 51.78125 6.484375 
Q 45.5625 -1.421875 35.59375 -1.421875 
Q 29.59375 -1.421875 25.265625 0.953125 
Q 20.953125 3.328125 18.109375 8.203125 
z
M 48.6875 27.296875 
Q 48.6875 37.203125 44.609375 42.84375 
Q 40.53125 48.484375 33.40625 48.484375 
Q 26.265625 48.484375 22.1875 42.84375 
Q 18.109375 37.203125 18.109375 27.296875 
Q 18.109375 17.390625 22.1875 11.75 
Q 26.265625 6.109375 33.40625 6.109375 
Q 40.53125 6.109375 44.609375 11.75 
Q 48.6875 17.390625 48.6875 27.296875 
z
" id="DejaVuSans-112"/>
      <path d="M 18.3125 70.21875 
L 18.3125 54.6875 
L 36.8125 54.6875 
L 36.8125 47.703125 
L 18.3125 47.703125 
L 18.3125 18.015625 
Q 18.3125 11.328125 20.140625 9.421875 
Q 21.96875 7.515625 27.59375 7.515625 
L 36.8125 7.515625 
L 36.8125 0 
L 27.59375 0 
Q 17.1875 0 13.234375 3.875 
Q 9.28125 7.765625 9.28125 18.015625 
L 9.28125 47.703125 
L 2.6875 47.703125 
L 2.6875 54.6875 
L 9.28125 54.6875 
L 9.28125 70.21875 
z
" id="DejaVuSans-116"/>
      <path d="M 54.890625 33.015625 
L 54.890625 0 
L 45.90625 0 
L 45.90625 32.71875 
Q 45.90625 40.484375 42.875 44.328125 
Q 39.84375 48.1875 33.796875 48.1875 
Q 26.515625 48.1875 22.3125 43.546875 
Q 18.109375 38.921875 18.109375 30.90625 
L 18.109375 0 
L 9.078125 0 
L 9.078125 75.984375 
L 18.109375 75.984375 
L 18.109375 46.1875 
Q 21.34375 51.125 25.703125 53.5625 
Q 30.078125 56 35.796875 56 
Q 45.21875 56 50.046875 50.171875 
Q 54.890625 44.34375 54.890625 33.015625 
z
" id="DejaVuSans-104"/>
      <path id="DejaVuSans-32"/>
      <path d="M 31 75.875 
Q 24.46875 64.65625 21.28125 53.65625 
Q 18.109375 42.671875 18.109375 31.390625 
Q 18.109375 20.125 21.3125 9.0625 
Q 24.515625 -2 31 -13.1875 
L 23.1875 -13.1875 
Q 15.875 -1.703125 12.234375 9.375 
Q 8.59375 20.453125 8.59375 31.390625 
Q 8.59375 42.28125 12.203125 53.3125 
Q 15.828125 64.359375 23.1875 75.875 
z
" id="DejaVuSans-40"/>
      <path d="M 9.078125 75.984375 
L 18.109375 75.984375 
L 18.109375 31.109375 
L 44.921875 54.6875 
L 56.390625 54.6875 
L 27.390625 29.109375 
L 57.625 0 
L 45.90625 0 
L 18.109375 26.703125 
L 18.109375 0 
L 9.078125 0 
z
" id="DejaVuSans-107"/>
      <path d="M 52 44.1875 
Q 55.375 50.25 60.0625 53.125 
Q 64.75 56 71.09375 56 
Q 79.640625 56 84.28125 50.015625 
Q 88.921875 44.046875 88.921875 33.015625 
L 88.921875 0 
L 79.890625 0 
L 79.890625 32.71875 
Q 79.890625 40.578125 77.09375 44.375 
Q 74.3125 48.1875 68.609375 48.1875 
Q 61.625 48.1875 57.5625 43.546875 
Q 53.515625 38.921875 53.515625 30.90625 
L 53.515625 0 
L 44.484375 0 
L 44.484375 32.71875 
Q 44.484375 40.625 41.703125 44.40625 
Q 38.921875 48.1875 33.109375 48.1875 
Q 26.21875 48.1875 22.15625 43.53125 
Q 18.109375 38.875 18.109375 30.90625 
L 18.109375 0 
L 9.078125 0 
L 9.078125 54.6875 
L 18.109375 54.6875 
L 18.109375 46.1875 
Q 21.1875 51.21875 25.484375 53.609375 
Q 29.78125 56 35.6875 56 
Q 41.65625 56 45.828125 52.96875 
Q 50 49.953125 52 44.1875 
z
" id="DejaVuSans-109"/>
      <path d="M 8.015625 75.875 
L 15.828125 75.875 
Q 23.140625 64.359375 26.78125 53.3125 
Q 30.421875 42.28125 30.421875 31.390625 
Q 30.421875 20.453125 26.78125 9.375 
Q 23.140625 -1.703125 15.828125 -13.1875 
L 8.015625 -13.1875 
Q 14.5 -2 17.703125 9.0625 
Q 20.90625 20.125 20.90625 31.390625 
Q 20.90625 42.671875 17.703125 53.65625 
Q 14.5 64.65625 8.015625 75.875 
z
" id="DejaVuSans-41"/>
     </defs>
     <g transform="translate(207.081063 202.316563)scale(0.1 -0.1)">
      <use xlink:href="#DejaVuSans-68"/>
      <use x="77.001953" xlink:href="#DejaVuSans-101"/>
      <use x="138.525391" xlink:href="#DejaVuSans-112"/>
      <use x="202.001953" xlink:href="#DejaVuSans-116"/>
      <use x="241.210938" xlink:href="#DejaVuSans-104"/>
      <use x="304.589844" xlink:href="#DejaVuSans-32"/>
      <use x="336.376953" xlink:href="#DejaVuSans-40"/>
      <use x="375.390625" xlink:href="#DejaVuSans-107"/>
      <use x="433.300781" xlink:href="#DejaVuSans-109"/>
      <use x="530.712891" xlink:href="#DejaVuSans-41"/>
     </g>
    </g>
   </g>
   <g id="matplotlib.axis_2">
    <g id="ytick_1">
     <g id="line2d_7">
      <defs>
       <path d="M 0 0 
L -3.5 0 
" id="m8a3103171c" style="stroke:#000000;stroke-width:0.8;"/>
      </defs>
      <g>
       <use style="stroke:#000000;stroke-width:0.8;" x="49.934" xlink:href="#m8a3103171c" y="152.860577"/>
      </g>
     </g>
     <g id="text_8">
      <!-- 3 -->
      <g transform="translate(36.5715 156.659796)scale(0.1 -0.1)">
       <use xlink:href="#DejaVuSans-51"/>
      </g>
     </g>
    </g>
    <g id="ytick_2">
     <g id="line2d_8">
      <g>
       <use style="stroke:#000000;stroke-width:0.8;" x="49.934" xlink:href="#m8a3103171c" y="130.420476"/>
      </g>
     </g>
     <g id="text_9">
      <!-- 4 -->
      <g transform="translate(36.5715 134.219695)scale(0.1 -0.1)">
       <use xlink:href="#DejaVuSans-52"/>
      </g>
     </g>
    </g>
    <g id="ytick_3">
     <g id="line2d_9">
      <g>
       <use style="stroke:#000000;stroke-width:0.8;" x="49.934" xlink:href="#m8a3103171c" y="107.980375"/>
      </g>
     </g>
     <g id="text_10">
      <!-- 5 -->
      <g transform="translate(36.5715 111.779593)scale(0.1 -0.1)">
       <use xlink:href="#DejaVuSans-53"/>
      </g>
     </g>
    </g>
    <g id="ytick_4">
     <g id="line2d_10">
      <g>
       <use style="stroke:#000000;stroke-width:0.8;" x="49.934" xlink:href="#m8a3103171c" y="85.540273"/>
      </g>
     </g>
     <g id="text_11">
      <!-- 6 -->
      <defs>
       <path d="M 33.015625 40.375 
Q 26.375 40.375 22.484375 35.828125 
Q 18.609375 31.296875 18.609375 23.390625 
Q 18.609375 15.53125 22.484375 10.953125 
Q 26.375 6.390625 33.015625 6.390625 
Q 39.65625 6.390625 43.53125 10.953125 
Q 47.40625 15.53125 47.40625 23.390625 
Q 47.40625 31.296875 43.53125 35.828125 
Q 39.65625 40.375 33.015625 40.375 
z
M 52.59375 71.296875 
L 52.59375 62.3125 
Q 48.875 64.0625 45.09375 64.984375 
Q 41.3125 65.921875 37.59375 65.921875 
Q 27.828125 65.921875 22.671875 59.328125 
Q 17.53125 52.734375 16.796875 39.40625 
Q 19.671875 43.65625 24.015625 45.921875 
Q 28.375 48.1875 33.59375 48.1875 
Q 44.578125 48.1875 50.953125 41.515625 
Q 57.328125 34.859375 57.328125 23.390625 
Q 57.328125 12.15625 50.6875 5.359375 
Q 44.046875 -1.421875 33.015625 -1.421875 
Q 20.359375 -1.421875 13.671875 8.265625 
Q 6.984375 17.96875 6.984375 36.375 
Q 6.984375 53.65625 15.1875 63.9375 
Q 23.390625 74.21875 37.203125 74.21875 
Q 40.921875 74.21875 44.703125 73.484375 
Q 48.484375 72.75 52.59375 71.296875 
z
" id="DejaVuSans-54"/>
      </defs>
      <g transform="translate(36.5715 89.339492)scale(0.1 -0.1)">
       <use xlink:href="#DejaVuSans-54"/>
      </g>
     </g>
    </g>
    <g id="ytick_5">
     <g id="line2d_11">
      <g>
       <use style="stroke:#000000;stroke-width:0.8;" x="49.934" xlink:href="#m8a3103171c" y="63.100172"/>
      </g>
     </g>
     <g id="text_12">
      <!-- 7 -->
      <defs>
       <path d="M 8.203125 72.90625 
L 55.078125 72.90625 
L 55.078125 68.703125 
L 28.609375 0 
L 18.3125 0 
L 43.21875 64.59375 
L 8.203125 64.59375 
z
" id="DejaVuSans-55"/>
      </defs>
      <g transform="translate(36.5715 66.89939)scale(0.1 -0.1)">
       <use xlink:href="#DejaVuSans-55"/>
      </g>
     </g>
    </g>
    <g id="ytick_6">
     <g id="line2d_12">
      <g>
       <use style="stroke:#000000;stroke-width:0.8;" x="49.934" xlink:href="#m8a3103171c" y="40.66007"/>
      </g>
     </g>
     <g id="text_13">
      <!-- 8 -->
      <defs>
       <path d="M 31.78125 34.625 
Q 24.75 34.625 20.71875 30.859375 
Q 16.703125 27.09375 16.703125 20.515625 
Q 16.703125 13.921875 20.71875 10.15625 
Q 24.75 6.390625 31.78125 6.390625 
Q 38.8125 6.390625 42.859375 10.171875 
Q 46.921875 13.96875 46.921875 20.515625 
Q 46.921875 27.09375 42.890625 30.859375 
Q 38.875 34.625 31.78125 34.625 
z
M 21.921875 38.8125 
Q 15.578125 40.375 12.03125 44.71875 
Q 8.5 49.078125 8.5 55.328125 
Q 8.5 64.0625 14.71875 69.140625 
Q 20.953125 74.21875 31.78125 74.21875 
Q 42.671875 74.21875 48.875 69.140625 
Q 55.078125 64.0625 55.078125 55.328125 
Q 55.078125 49.078125 51.53125 44.71875 
Q 48 40.375 41.703125 38.8125 
Q 48.828125 37.15625 52.796875 32.3125 
Q 56.78125 27.484375 56.78125 20.515625 
Q 56.78125 9.90625 50.3125 4.234375 
Q 43.84375 -1.421875 31.78125 -1.421875 
Q 19.734375 -1.421875 13.25 4.234375 
Q 6.78125 9.90625 6.78125 20.515625 
Q 6.78125 27.484375 10.78125 32.3125 
Q 14.796875 37.15625 21.921875 38.8125 
z
M 18.3125 54.390625 
Q 18.3125 48.734375 21.84375 45.5625 
Q 25.390625 42.390625 31.78125 42.390625 
Q 38.140625 42.390625 41.71875 45.5625 
Q 45.3125 48.734375 45.3125 54.390625 
Q 45.3125 60.0625 41.71875 63.234375 
Q 38.140625 66.40625 31.78125 66.40625 
Q 25.390625 66.40625 21.84375 63.234375 
Q 18.3125 60.0625 18.3125 54.390625 
z
" id="DejaVuSans-56"/>
      </defs>
      <g transform="translate(36.5715 44.459289)scale(0.1 -0.1)">
       <use xlink:href="#DejaVuSans-56"/>
      </g>
     </g>
    </g>
    <g id="ytick_7">
     <g id="line2d_13">
      <g>
       <use style="stroke:#000000;stroke-width:0.8;" x="49.934" xlink:href="#m8a3103171c" y="18.219969"/>
      </g>
     </g>
     <g id="text_14">
      <!-- 9 -->
      <defs>
       <path d="M 10.984375 1.515625 
L 10.984375 10.5 
Q 14.703125 8.734375 18.5 7.8125 
Q 22.3125 6.890625 25.984375 6.890625 
Q 35.75 6.890625 40.890625 13.453125 
Q 46.046875 20.015625 46.78125 33.40625 
Q 43.953125 29.203125 39.59375 26.953125 
Q 35.25 24.703125 29.984375 24.703125 
Q 19.046875 24.703125 12.671875 31.3125 
Q 6.296875 37.9375 6.296875 49.421875 
Q 6.296875 60.640625 12.9375 67.421875 
Q 19.578125 74.21875 30.609375 74.21875 
Q 43.265625 74.21875 49.921875 64.515625 
Q 56.59375 54.828125 56.59375 36.375 
Q 56.59375 19.140625 48.40625 8.859375 
Q 40.234375 -1.421875 26.421875 -1.421875 
Q 22.703125 -1.421875 18.890625 -0.6875 
Q 15.09375 0.046875 10.984375 1.515625 
z
M 30.609375 32.421875 
Q 37.25 32.421875 41.125 36.953125 
Q 45.015625 41.5 45.015625 49.421875 
Q 45.015625 57.28125 41.125 61.84375 
Q 37.25 66.40625 30.609375 66.40625 
Q 23.96875 66.40625 20.09375 61.84375 
Q 16.21875 57.28125 16.21875 49.421875 
Q 16.21875 41.5 20.09375 36.953125 
Q 23.96875 32.421875 30.609375 32.421875 
z
" id="DejaVuSans-57"/>
      </defs>
      <g transform="translate(36.5715 22.019188)scale(0.1 -0.1)">
       <use xlink:href="#DejaVuSans-57"/>
      </g>
     </g>
    </g>
    <g id="text_15">
     <!-- Velocity -->
     <defs>
      <path d="M 28.609375 0 
L 0.78125 72.90625 
L 11.078125 72.90625 
L 34.1875 11.53125 
L 57.328125 72.90625 
L 67.578125 72.90625 
L 39.796875 0 
z
" id="DejaVuSans-86"/>
      <path d="M 9.421875 75.984375 
L 18.40625 75.984375 
L 18.40625 0 
L 9.421875 0 
z
" id="DejaVuSans-108"/>
      <path d="M 30.609375 48.390625 
Q 23.390625 48.390625 19.1875 42.75 
Q 14.984375 37.109375 14.984375 27.296875 
Q 14.984375 17.484375 19.15625 11.84375 
Q 23.34375 6.203125 30.609375 6.203125 
Q 37.796875 6.203125 41.984375 11.859375 
Q 46.1875 17.53125 46.1875 27.296875 
Q 46.1875 37.015625 41.984375 42.703125 
Q 37.796875 48.390625 30.609375 48.390625 
z
M 30.609375 56 
Q 42.328125 56 49.015625 48.375 
Q 55.71875 40.765625 55.71875 27.296875 
Q 55.71875 13.875 49.015625 6.21875 
Q 42.328125 -1.421875 30.609375 -1.421875 
Q 18.84375 -1.421875 12.171875 6.21875 
Q 5.515625 13.875 5.515625 27.296875 
Q 5.515625 40.765625 12.171875 48.375 
Q 18.84375 56 30.609375 56 
z
" id="DejaVuSans-111"/>
      <path d="M 48.78125 52.59375 
L 48.78125 44.1875 
Q 44.96875 46.296875 41.140625 47.34375 
Q 37.3125 48.390625 33.40625 48.390625 
Q 24.65625 48.390625 19.8125 42.84375 
Q 14.984375 37.3125 14.984375 27.296875 
Q 14.984375 17.28125 19.8125 11.734375 
Q 24.65625 6.203125 33.40625 6.203125 
Q 37.3125 6.203125 41.140625 7.25 
Q 44.96875 8.296875 48.78125 10.40625 
L 48.78125 2.09375 
Q 45.015625 0.34375 40.984375 -0.53125 
Q 36.96875 -1.421875 32.421875 -1.421875 
Q 20.0625 -1.421875 12.78125 6.34375 
Q 5.515625 14.109375 5.515625 27.296875 
Q 5.515625 40.671875 12.859375 48.328125 
Q 20.21875 56 33.015625 56 
Q 37.15625 56 41.109375 55.140625 
Q 45.0625 54.296875 48.78125 52.59375 
z
" id="DejaVuSans-99"/>
      <path d="M 9.421875 54.6875 
L 18.40625 54.6875 
L 18.40625 0 
L 9.421875 0 
z
M 9.421875 75.984375 
L 18.40625 75.984375 
L 18.40625 64.59375 
L 9.421875 64.59375 
z
" id="DejaVuSans-105"/>
      <path d="M 32.171875 -5.078125 
Q 28.375 -14.84375 24.75 -17.8125 
Q 21.140625 -20.796875 15.09375 -20.796875 
L 7.90625 -20.796875 
L 7.90625 -13.28125 
L 13.1875 -13.28125 
Q 16.890625 -13.28125 18.9375 -11.515625 
Q 21 -9.765625 23.484375 -3.21875 
L 25.09375 0.875 
L 2.984375 54.6875 
L 12.5 54.6875 
L 29.59375 11.921875 
L 46.6875 54.6875 
L 56.203125 54.6875 
z
" id="DejaVuSans-121"/>
     </defs>
     <g transform="translate(19.294 112.035625)rotate(-90)scale(0.1 -0.1)">
      <use xlink:href="#DejaVuSans-86"/>
      <use x="60.658203" xlink:href="#DejaVuSans-101"/>
      <use x="122.181641" xlink:href="#DejaVuSans-108"/>
      <use x="149.964844" xlink:href="#DejaVuSans-111"/>
      <use x="211.146484" xlink:href="#DejaVuSans-99"/>
      <use x="266.126953" xlink:href="#DejaVuSans-105"/>
      <use x="293.910156" xlink:href="#DejaVuSans-116"/>
      <use x="333.119141" xlink:href="#DejaVuSans-121"/>
     </g>
     <!-- (km/s) -->
     <defs>
      <path d="M 25.390625 72.90625 
L 33.6875 72.90625 
L 8.296875 -9.28125 
L 0 -9.28125 
z
" id="DejaVuSans-47"/>
      <path d="M 44.28125 53.078125 
L 44.28125 44.578125 
Q 40.484375 46.53125 36.375 47.5 
Q 32.28125 48.484375 27.875 48.484375 
Q 21.1875 48.484375 17.84375 46.4375 
Q 14.5 44.390625 14.5 40.28125 
Q 14.5 37.15625 16.890625 35.375 
Q 19.28125 33.59375 26.515625 31.984375 
L 29.59375 31.296875 
Q 39.15625 29.25 43.1875 25.515625 
Q 47.21875 21.78125 47.21875 15.09375 
Q 47.21875 7.46875 41.1875 3.015625 
Q 35.15625 -1.421875 24.609375 -1.421875 
Q 20.21875 -1.421875 15.453125 -0.5625 
Q 10.6875 0.296875 5.421875 2 
L 5.421875 11.28125 
Q 10.40625 8.6875 15.234375 7.390625 
Q 20.0625 6.109375 24.8125 6.109375 
Q 31.15625 6.109375 34.5625 8.28125 
Q 37.984375 10.453125 37.984375 14.40625 
Q 37.984375 18.0625 35.515625 20.015625 
Q 33.0625 21.96875 24.703125 23.78125 
L 21.578125 24.515625 
Q 13.234375 26.265625 9.515625 29.90625 
Q 5.8125 33.546875 5.8125 39.890625 
Q 5.8125 47.609375 11.28125 51.796875 
Q 16.75 56 26.8125 56 
Q 31.78125 56 36.171875 55.265625 
Q 40.578125 54.546875 44.28125 53.078125 
z
" id="DejaVuSans-115"/>
     </defs>
     <g transform="translate(30.491813 108.37625)rotate(-90)scale(0.1 -0.1)">
      <use xlink:href="#DejaVuSans-40"/>
      <use x="39.013672" xlink:href="#DejaVuSans-107"/>
      <use x="96.923828" xlink:href="#DejaVuSans-109"/>
      <use x="194.335938" xlink:href="#DejaVuSans-47"/>
      <use x="228.027344" xlink:href="#DejaVuSans-115"/>
      <use x="280.126953" xlink:href="#DejaVuSans-41"/>
     </g>
    </g>
   </g>
   <g id="line2d_14">
    <path clip-path="url(#p0ef3ca05c8)" d="M 66.809727 153.471313 
L 69.296022 153.471313 
L 69.917596 151.896217 
L 73.647039 151.896217 
L 74.268612 145.991819 
L 76.754907 145.991819 
L 77.376481 155.376474 
L 81.105923 155.376474 
L 81.727497 147.76319 
L 84.835366 147.76319 
L 85.45694 148.614324 
L 88.564808 148.614324 
L 89.186382 154.604979 
L 91.672677 154.604979 
L 92.294251 156.27644 
L 96.023693 156.27644 
L 96.645267 143.776278 
L 99.131562 143.776278 
L 99.753136 151.312978 
L 102.861005 151.312978 
L 103.482578 157.236925 
L 107.212021 157.236925 
L 107.833595 140.889717 
L 110.941463 140.889717 
L 111.563037 157.708558 
L 114.670906 157.708558 
L 115.29248 152.516338 
L 118.400348 152.516338 
L 119.021922 146.490958 
L 122.129791 146.490958 
L 122.751365 139.930142 
L 125.23766 139.930142 
L 125.859233 134.469926 
L 129.588676 134.469926 
L 130.21025 133.241091 
L 133.318118 133.241091 
L 133.939692 104.091429 
L 137.047561 104.091429 
L 137.669135 134.989553 
L 140.15543 134.989553 
L 140.777003 130.367169 
L 144.506446 130.367169 
L 145.12802 140.76268 
L 147.614315 140.76268 
L 148.235888 105.28304 
L 151.343757 105.28304 
L 151.965331 129.439863 
L 155.694773 129.439863 
L 156.316347 132.802178 
L 159.424216 132.802178 
L 160.04579 140.339717 
L 162.532085 140.339717 
L 163.153658 151.029747 
L 166.883101 151.029747 
L 167.504675 154.418387 
L 169.99097 154.418387 
L 170.612543 157.410726 
L 174.341986 157.410726 
L 174.96356 149.99334 
L 178.071428 149.99334 
L 178.693002 127.150864 
L 181.800871 127.150864 
L 182.422445 123.970891 
L 184.908739 123.970891 
L 185.530313 106.643473 
L 189.259756 106.643473 
L 189.881329 108.012659 
L 192.367624 108.012659 
L 192.989198 87.736605 
L 196.097067 87.736605 
L 196.718641 75.53447 
L 200.448083 75.53447 
L 201.069657 92.781581 
L 204.177526 92.781581 
L 204.799099 69.962262 
L 207.906968 69.962262 
L 208.528542 65.823135 
L 211.636411 65.823135 
L 212.257984 94.300915 
L 215.365853 94.300915 
L 215.987427 88.418869 
L 218.473722 88.418869 
L 219.095296 59.196429 
L 222.824738 59.196429 
L 223.446312 82.155669 
L 226.554181 82.155669 
L 227.175754 80.319435 
L 230.283623 80.319435 
L 230.905197 75.110001 
L 233.391492 75.110001 
L 234.013066 52.668332 
L 236.499361 52.668332 
L 237.120934 108.595522 
L 239.607229 108.595522 
L 240.228803 81.888673 
L 242.715098 81.888673 
L 243.336672 67.470962 
L 245.822967 67.470962 
L 246.444541 93.074589 
L 248.930836 93.074589 
L 249.552409 90.610519 
L 252.038704 90.610519 
L 252.660278 77.772392 
L 255.146573 77.772392 
L 255.768147 116.874507 
L 258.254442 116.874507 
L 258.876016 106.403361 
L 261.362311 106.403361 
L 261.983884 129.468943 
L 264.470179 129.468943 
L 265.091753 99.570975 
L 267.578048 99.570975 
L 268.199622 96.200095 
L 270.685917 96.200095 
L 271.307491 111.4436 
L 273.793786 111.4436 
L 274.415359 131.954335 
L 276.901654 131.954335 
L 277.523228 83.911463 
L 280.009523 83.911463 
L 280.631097 64.620614 
L 283.117392 64.620614 
L 283.738966 58.048585 
L 286.225261 58.048585 
L 286.846834 77.868664 
L 289.333129 77.868664 
L 289.954703 87.499177 
L 292.440998 87.499177 
L 293.062572 54.237685 
L 295.548867 54.237685 
L 296.17044 85.543174 
L 298.656735 85.543174 
L 299.278309 88.521211 
L 301.764604 88.521211 
L 302.386178 67.091304 
L 304.872473 67.091304 
L 305.494047 96.862503 
L 307.980342 96.862503 
L 308.601915 99.463546 
L 311.08821 99.463546 
L 311.709784 62.043885 
L 314.196079 62.043885 
L 314.817653 66.292954 
L 317.303948 66.292954 
L 317.925522 64.812256 
L 320.411817 64.812256 
L 321.03339 67.896791 
L 323.519685 67.896791 
L 324.141259 65.203752 
L 326.627554 65.203752 
L 327.249128 67.751692 
L 329.735423 67.751692 
L 330.356997 83.584754 
L 332.843292 83.584754 
L 333.464865 53.321406 
L 335.95116 53.321406 
L 336.572734 78.476778 
L 339.059029 78.476778 
L 339.680603 100.670061 
L 342.166898 100.670061 
L 342.788472 82.349115 
L 345.274767 82.349115 
L 345.89634 67.770985 
L 348.382635 67.770985 
L 349.004209 74.664602 
L 351.490504 74.664602 
L 352.112078 85.422871 
L 354.598373 85.422871 
L 355.219947 97.576319 
L 357.706242 97.576319 
L 358.327815 91.143112 
L 360.81411 91.143112 
L 361.435684 86.769087 
L 363.921979 86.769087 
L 364.543553 82.984554 
L 367.029848 82.984554 
L 367.651422 95.5006 
L 370.137717 95.5006 
L 370.75929 80.661819 
L 373.245585 80.661819 
L 373.867159 55.474476 
L 376.353454 55.474476 
L 376.975028 80.443663 
L 379.461323 80.443663 
L 380.082897 75.381544 
L 382.569192 75.381544 
L 383.190765 59.676713 
L 385.67706 59.676713 
L 386.298634 63.087767 
L 388.784929 63.087767 
L 389.406503 57.710828 
L 391.892798 57.710828 
L 392.514372 48.090954 
L 395.000666 48.090954 
L 395.62224 52.151866 
L 398.108535 52.151866 
L 398.730109 78.946837 
L 401.216404 78.946837 
L 401.837978 53.879452 
L 404.324273 53.879452 
L 404.324273 53.879452 
" style="fill:none;stroke:#1f77b4;stroke-linecap:square;stroke-width:0.5;"/>
   </g>
   <g id="line2d_15">
    <path clip-path="url(#p0ef3ca05c8)" d="M 66.809727 152.860577 
L 122.129791 152.860577 
L 122.751365 130.420476 
L 159.424216 130.420476 
L 160.04579 152.860577 
L 178.071428 152.860577 
L 178.693002 107.980375 
L 196.097067 107.980375 
L 196.718641 85.540273 
L 248.930836 85.540273 
L 249.552409 107.980375 
L 280.009523 107.980375 
L 280.631097 63.100172 
L 295.548867 63.100172 
L 296.17044 85.540273 
L 311.08821 85.540273 
L 311.709784 63.100172 
L 342.166898 63.100172 
L 342.788472 85.540273 
L 388.784929 85.540273 
L 389.406503 63.100172 
L 404.324273 63.100172 
L 404.324273 63.100172 
" style="fill:none;stroke:#000000;stroke-linecap:square;stroke-width:0.5;"/>
   </g>
   <g id="line2d_16">
    <path clip-path="url(#p0ef3ca05c8)" d="M 66.809727 151.812371 
L 74.268612 151.684949 
L 81.727497 151.319251 
L 88.564808 150.769977 
L 95.40212 150.013969 
L 102.861005 148.959928 
L 110.941463 147.573949 
L 120.26507 145.727858 
L 133.318118 142.882204 
L 146.992741 139.689623 
L 155.0732 137.591232 
L 161.288937 135.758653 
L 166.883101 133.873672 
L 171.855691 131.964238 
L 176.828281 129.802968 
L 181.800871 127.372623 
L 186.773461 124.673948 
L 191.746051 121.729917 
L 197.961788 117.782217 
L 214.122706 107.350689 
L 218.473722 104.869936 
L 222.824738 102.661741 
L 226.554181 101.016839 
L 230.283623 99.610799 
L 234.013066 98.436872 
L 237.742508 97.473976 
L 242.093524 96.573401 
L 247.687688 95.667663 
L 267.578048 92.743481 
L 273.172212 91.582372 
L 278.766376 90.19804 
L 284.982113 88.424187 
L 293.684145 85.669571 
L 304.250899 82.339439 
L 309.845063 80.79449 
L 314.817653 79.636101 
L 319.790243 78.721491 
L 324.141259 78.135277 
L 329.113849 77.704251 
L 334.086439 77.501727 
L 339.680603 77.491254 
L 347.761062 77.724278 
L 363.300405 78.210401 
L 371.380864 78.199343 
L 380.082897 77.957571 
L 401.837978 77.230337 
L 404.324273 77.216263 
L 404.324273 77.216263 
" style="fill:none;stroke:#ff7f0e;stroke-linecap:square;stroke-width:0.5;"/>
   </g>
   <g id="patch_3">
    <path d="M 49.934 174.04 
L 49.934 10.8 
" style="fill:none;stroke:#000000;stroke-linecap:square;stroke-linejoin:miter;stroke-width:0.8;"/>
   </g>
   <g id="patch_4">
    <path d="M 421.2 174.04 
L 421.2 10.8 
" style="fill:none;stroke:#000000;stroke-linecap:square;stroke-linejoin:miter;stroke-width:0.8;"/>
   </g>
   <g id="patch_5">
    <path d="M 49.934 174.04 
L 421.2 174.04 
" style="fill:none;stroke:#000000;stroke-linecap:square;stroke-linejoin:miter;stroke-width:0.8;"/>
   </g>
   <g id="patch_6">
    <path d="M 49.934 10.8 
L 421.2 10.8 
" style="fill:none;stroke:#000000;stroke-linecap:square;stroke-linejoin:miter;stroke-width:0.8;"/>
   </g>
   <g id="legend_1">
    <g id="patch_7">
     <path d="M 54.134 50.8275 
L 126.211813 50.8275 
Q 127.411813 50.8275 127.411813 49.6275 
L 127.411813 15 
Q 127.411813 13.8 126.211813 13.8 
L 54.134 13.8 
Q 52.934 13.8 52.934 15 
L 52.934 49.6275 
Q 52.934 50.8275 54.134 50.8275 
z
" style="fill:#ffffff;opacity:0.8;stroke:#cccccc;stroke-linejoin:miter;"/>
    </g>
    <g id="line2d_17">
     <path d="M 55.334 18.659062 
L 67.334 18.659062 
" style="fill:none;stroke:#1f77b4;stroke-linecap:square;stroke-width:0.5;"/>
    </g>
    <g id="line2d_18"/>
    <g id="text_16">
     <!-- Median -->
     <defs>
      <path d="M 9.8125 72.90625 
L 24.515625 72.90625 
L 43.109375 23.296875 
L 61.8125 72.90625 
L 76.515625 72.90625 
L 76.515625 0 
L 66.890625 0 
L 66.890625 64.015625 
L 48.09375 14.015625 
L 38.1875 14.015625 
L 19.390625 64.015625 
L 19.390625 0 
L 9.8125 0 
z
" id="DejaVuSans-77"/>
      <path d="M 45.40625 46.390625 
L 45.40625 75.984375 
L 54.390625 75.984375 
L 54.390625 0 
L 45.40625 0 
L 45.40625 8.203125 
Q 42.578125 3.328125 38.25 0.953125 
Q 33.9375 -1.421875 27.875 -1.421875 
Q 17.96875 -1.421875 11.734375 6.484375 
Q 5.515625 14.40625 5.515625 27.296875 
Q 5.515625 40.1875 11.734375 48.09375 
Q 17.96875 56 27.875 56 
Q 33.9375 56 38.25 53.625 
Q 42.578125 51.265625 45.40625 46.390625 
z
M 14.796875 27.296875 
Q 14.796875 17.390625 18.875 11.75 
Q 22.953125 6.109375 30.078125 6.109375 
Q 37.203125 6.109375 41.296875 11.75 
Q 45.40625 17.390625 45.40625 27.296875 
Q 45.40625 37.203125 41.296875 42.84375 
Q 37.203125 48.484375 30.078125 48.484375 
Q 22.953125 48.484375 18.875 42.84375 
Q 14.796875 37.203125 14.796875 27.296875 
z
" id="DejaVuSans-100"/>
      <path d="M 34.28125 27.484375 
Q 23.390625 27.484375 19.1875 25 
Q 14.984375 22.515625 14.984375 16.5 
Q 14.984375 11.71875 18.140625 8.90625 
Q 21.296875 6.109375 26.703125 6.109375 
Q 34.1875 6.109375 38.703125 11.40625 
Q 43.21875 16.703125 43.21875 25.484375 
L 43.21875 27.484375 
z
M 52.203125 31.203125 
L 52.203125 0 
L 43.21875 0 
L 43.21875 8.296875 
Q 40.140625 3.328125 35.546875 0.953125 
Q 30.953125 -1.421875 24.3125 -1.421875 
Q 15.921875 -1.421875 10.953125 3.296875 
Q 6 8.015625 6 15.921875 
Q 6 25.140625 12.171875 29.828125 
Q 18.359375 34.515625 30.609375 34.515625 
L 43.21875 34.515625 
L 43.21875 35.40625 
Q 43.21875 41.609375 39.140625 45 
Q 35.0625 48.390625 27.6875 48.390625 
Q 23 48.390625 18.546875 47.265625 
Q 14.109375 46.140625 10.015625 43.890625 
L 10.015625 52.203125 
Q 14.9375 54.109375 19.578125 55.046875 
Q 24.21875 56 28.609375 56 
Q 40.484375 56 46.34375 49.84375 
Q 52.203125 43.703125 52.203125 31.203125 
z
" id="DejaVuSans-97"/>
      <path d="M 54.890625 33.015625 
L 54.890625 0 
L 45.90625 0 
L 45.90625 32.71875 
Q 45.90625 40.484375 42.875 44.328125 
Q 39.84375 48.1875 33.796875 48.1875 
Q 26.515625 48.1875 22.3125 43.546875 
Q 18.109375 38.921875 18.109375 30.90625 
L 18.109375 0 
L 9.078125 0 
L 9.078125 54.6875 
L 18.109375 54.6875 
L 18.109375 46.1875 
Q 21.34375 51.125 25.703125 53.5625 
Q 30.078125 56 35.796875 56 
Q 45.21875 56 50.046875 50.171875 
Q 54.890625 44.34375 54.890625 33.015625 
z
" id="DejaVuSans-110"/>
     </defs>
     <g transform="translate(72.134 20.759062)scale(0.06 -0.06)">
      <use xlink:href="#DejaVuSans-77"/>
      <use x="86.279297" xlink:href="#DejaVuSans-101"/>
      <use x="147.802734" xlink:href="#DejaVuSans-100"/>
      <use x="211.279297" xlink:href="#DejaVuSans-105"/>
      <use x="239.0625" xlink:href="#DejaVuSans-97"/>
      <use x="300.341797" xlink:href="#DejaVuSans-110"/>
     </g>
    </g>
    <g id="line2d_19">
     <path d="M 55.334 27.465937 
L 67.334 27.465937 
" style="fill:none;stroke:#000000;stroke-linecap:square;stroke-width:0.5;"/>
    </g>
    <g id="line2d_20"/>
    <g id="text_17">
     <!-- Reference -->
     <defs>
      <path d="M 44.390625 34.1875 
Q 47.5625 33.109375 50.5625 29.59375 
Q 53.5625 26.078125 56.59375 19.921875 
L 66.609375 0 
L 56 0 
L 46.6875 18.703125 
Q 43.0625 26.03125 39.671875 28.421875 
Q 36.28125 30.8125 30.421875 30.8125 
L 19.671875 30.8125 
L 19.671875 0 
L 9.8125 0 
L 9.8125 72.90625 
L 32.078125 72.90625 
Q 44.578125 72.90625 50.734375 67.671875 
Q 56.890625 62.453125 56.890625 51.90625 
Q 56.890625 45.015625 53.6875 40.46875 
Q 50.484375 35.9375 44.390625 34.1875 
z
M 19.671875 64.796875 
L 19.671875 38.921875 
L 32.078125 38.921875 
Q 39.203125 38.921875 42.84375 42.21875 
Q 46.484375 45.515625 46.484375 51.90625 
Q 46.484375 58.296875 42.84375 61.546875 
Q 39.203125 64.796875 32.078125 64.796875 
z
" id="DejaVuSans-82"/>
      <path d="M 37.109375 75.984375 
L 37.109375 68.5 
L 28.515625 68.5 
Q 23.6875 68.5 21.796875 66.546875 
Q 19.921875 64.59375 19.921875 59.515625 
L 19.921875 54.6875 
L 34.71875 54.6875 
L 34.71875 47.703125 
L 19.921875 47.703125 
L 19.921875 0 
L 10.890625 0 
L 10.890625 47.703125 
L 2.296875 47.703125 
L 2.296875 54.6875 
L 10.890625 54.6875 
L 10.890625 58.5 
Q 10.890625 67.625 15.140625 71.796875 
Q 19.390625 75.984375 28.609375 75.984375 
z
" id="DejaVuSans-102"/>
      <path d="M 41.109375 46.296875 
Q 39.59375 47.171875 37.8125 47.578125 
Q 36.03125 48 33.890625 48 
Q 26.265625 48 22.1875 43.046875 
Q 18.109375 38.09375 18.109375 28.8125 
L 18.109375 0 
L 9.078125 0 
L 9.078125 54.6875 
L 18.109375 54.6875 
L 18.109375 46.1875 
Q 20.953125 51.171875 25.484375 53.578125 
Q 30.03125 56 36.53125 56 
Q 37.453125 56 38.578125 55.875 
Q 39.703125 55.765625 41.0625 55.515625 
z
" id="DejaVuSans-114"/>
     </defs>
     <g transform="translate(72.134 29.565937)scale(0.06 -0.06)">
      <use xlink:href="#DejaVuSans-82"/>
      <use x="64.982422" xlink:href="#DejaVuSans-101"/>
      <use x="126.505859" xlink:href="#DejaVuSans-102"/>
      <use x="161.710938" xlink:href="#DejaVuSans-101"/>
      <use x="223.234375" xlink:href="#DejaVuSans-114"/>
      <use x="262.097656" xlink:href="#DejaVuSans-101"/>
      <use x="323.621094" xlink:href="#DejaVuSans-110"/>
      <use x="387" xlink:href="#DejaVuSans-99"/>
      <use x="441.980469" xlink:href="#DejaVuSans-101"/>
     </g>
    </g>
    <g id="line2d_21">
     <path d="M 55.334 36.272812 
L 67.334 36.272812 
" style="fill:none;stroke:#ff7f0e;stroke-linecap:square;stroke-width:0.5;"/>
    </g>
    <g id="line2d_22"/>
    <g id="text_18">
     <!-- Initial -->
     <defs>
      <path d="M 9.8125 72.90625 
L 19.671875 72.90625 
L 19.671875 0 
L 9.8125 0 
z
" id="DejaVuSans-73"/>
     </defs>
     <g transform="translate(72.134 38.372812)scale(0.06 -0.06)">
      <use xlink:href="#DejaVuSans-73"/>
      <use x="29.492188" xlink:href="#DejaVuSans-110"/>
      <use x="92.871094" xlink:href="#DejaVuSans-105"/>
      <use x="120.654297" xlink:href="#DejaVuSans-116"/>
      <use x="159.863281" xlink:href="#DejaVuSans-105"/>
      <use x="187.646484" xlink:href="#DejaVuSans-97"/>
      <use x="248.925781" xlink:href="#DejaVuSans-108"/>
     </g>
    </g>
    <g id="patch_8">
     <path d="M 55.334 47.179687 
L 67.334 47.179687 
L 67.334 42.979687 
L 55.334 42.979687 
z
" style="fill:#1f77b4;opacity:0.3;"/>
    </g>
    <g id="text_19">
     <!-- 95% HPD Interval -->
     <defs>
      <path d="M 72.703125 32.078125 
Q 68.453125 32.078125 66.03125 28.46875 
Q 63.625 24.859375 63.625 18.40625 
Q 63.625 12.0625 66.03125 8.421875 
Q 68.453125 4.78125 72.703125 4.78125 
Q 76.859375 4.78125 79.265625 8.421875 
Q 81.6875 12.0625 81.6875 18.40625 
Q 81.6875 24.8125 79.265625 28.4375 
Q 76.859375 32.078125 72.703125 32.078125 
z
M 72.703125 38.28125 
Q 80.421875 38.28125 84.953125 32.90625 
Q 89.5 27.546875 89.5 18.40625 
Q 89.5 9.28125 84.9375 3.921875 
Q 80.375 -1.421875 72.703125 -1.421875 
Q 64.890625 -1.421875 60.34375 3.921875 
Q 55.8125 9.28125 55.8125 18.40625 
Q 55.8125 27.59375 60.375 32.9375 
Q 64.9375 38.28125 72.703125 38.28125 
z
M 22.3125 68.015625 
Q 18.109375 68.015625 15.6875 64.375 
Q 13.28125 60.75 13.28125 54.390625 
Q 13.28125 47.953125 15.671875 44.328125 
Q 18.0625 40.71875 22.3125 40.71875 
Q 26.5625 40.71875 28.96875 44.328125 
Q 31.390625 47.953125 31.390625 54.390625 
Q 31.390625 60.6875 28.953125 64.34375 
Q 26.515625 68.015625 22.3125 68.015625 
z
M 66.40625 74.21875 
L 74.21875 74.21875 
L 28.609375 -1.421875 
L 20.796875 -1.421875 
z
M 22.3125 74.21875 
Q 30.03125 74.21875 34.609375 68.875 
Q 39.203125 63.53125 39.203125 54.390625 
Q 39.203125 45.171875 34.640625 39.84375 
Q 30.078125 34.515625 22.3125 34.515625 
Q 14.546875 34.515625 10.03125 39.859375 
Q 5.515625 45.21875 5.515625 54.390625 
Q 5.515625 63.484375 10.046875 68.84375 
Q 14.59375 74.21875 22.3125 74.21875 
z
" id="DejaVuSans-37"/>
      <path d="M 9.8125 72.90625 
L 19.671875 72.90625 
L 19.671875 43.015625 
L 55.515625 43.015625 
L 55.515625 72.90625 
L 65.375 72.90625 
L 65.375 0 
L 55.515625 0 
L 55.515625 34.71875 
L 19.671875 34.71875 
L 19.671875 0 
L 9.8125 0 
z
" id="DejaVuSans-72"/>
      <path d="M 19.671875 64.796875 
L 19.671875 37.40625 
L 32.078125 37.40625 
Q 38.96875 37.40625 42.71875 40.96875 
Q 46.484375 44.53125 46.484375 51.125 
Q 46.484375 57.671875 42.71875 61.234375 
Q 38.96875 64.796875 32.078125 64.796875 
z
M 9.8125 72.90625 
L 32.078125 72.90625 
Q 44.34375 72.90625 50.609375 67.359375 
Q 56.890625 61.8125 56.890625 51.125 
Q 56.890625 40.328125 50.609375 34.8125 
Q 44.34375 29.296875 32.078125 29.296875 
L 19.671875 29.296875 
L 19.671875 0 
L 9.8125 0 
z
" id="DejaVuSans-80"/>
      <path d="M 2.984375 54.6875 
L 12.5 54.6875 
L 29.59375 8.796875 
L 46.6875 54.6875 
L 56.203125 54.6875 
L 35.6875 0 
L 23.484375 0 
z
" id="DejaVuSans-118"/>
     </defs>
     <g transform="translate(72.134 47.179687)scale(0.06 -0.06)">
      <use xlink:href="#DejaVuSans-57"/>
      <use x="63.623047" xlink:href="#DejaVuSans-53"/>
      <use x="127.246094" xlink:href="#DejaVuSans-37"/>
      <use x="222.265625" xlink:href="#DejaVuSans-32"/>
      <use x="254.052734" xlink:href="#DejaVuSans-72"/>
      <use x="329.248047" xlink:href="#DejaVuSans-80"/>
      <use x="389.550781" xlink:href="#DejaVuSans-68"/>
      <use x="466.552734" xlink:href="#DejaVuSans-32"/>
      <use x="498.339844" xlink:href="#DejaVuSans-73"/>
      <use x="527.832031" xlink:href="#DejaVuSans-110"/>
      <use x="591.210938" xlink:href="#DejaVuSans-116"/>
      <use x="630.419922" xlink:href="#DejaVuSans-101"/>
      <use x="691.943359" xlink:href="#DejaVuSans-114"/>
      <use x="733.056641" xlink:href="#DejaVuSans-118"/>
      <use x="792.236328" xlink:href="#DejaVuSans-97"/>
      <use x="853.515625" xlink:href="#DejaVuSans-108"/>
     </g>
    </g>
   </g>
  </g>
 </g>
 <defs>
  <clipPath id="p0ef3ca05c8">
   <rect height="163.24" width="371.266" x="49.934" y="10.8"/>
  </clipPath>
 </defs>
</svg>
