<?xml version="1.0" encoding="utf-8"?>
<!-- Generator: Adobe Illustrator 24.3.0, SVG Export Plug-In . SVG Version: 6.00 Build 0)  -->
<svg version="1.1" id="Layer_1" xmlns="http://www.w3.org/2000/svg" xmlns:xlink="http://www.w3.org/1999/xlink" x="0px" y="0px"
	 viewBox="0 0 422.4 206" style="enable-background:new 0 0 422.4 206;" xml:space="preserve">
<style type="text/css">
	.st0{fill:none;}
	.st1{clip-path:url(#SVGID_2_);fill:#1F77B4;fill-opacity:0.3;}
	.st2{stroke:#000000;stroke-width:0.8;stroke-linejoin:round;}
	.st3{clip-path:url(#SVGID_4_);fill:none;stroke:#1F77B4;stroke-width:0.5;stroke-linecap:square;stroke-linejoin:round;}
	.st4{clip-path:url(#SVGID_6_);fill:none;stroke:#000000;stroke-width:0.5;stroke-linecap:square;stroke-linejoin:round;}
	.st5{clip-path:url(#SVGID_8_);fill:none;stroke:#FF7F0E;stroke-width:0.5;stroke-linecap:square;stroke-linejoin:round;}
	.st6{fill:none;stroke:#000000;stroke-width:0.8;stroke-linecap:square;}
	.st7{opacity:0.8;fill:#FFFFFF;stroke:#CCCCCC;enable-background:new    ;}
	.st8{fill:none;stroke:#1F77B4;stroke-width:0.5;stroke-linecap:square;stroke-linejoin:round;}
	.st9{fill:none;stroke:#000000;stroke-width:0.5;stroke-linecap:square;stroke-linejoin:round;}
	.st10{fill:none;stroke:#FF7F0E;stroke-width:0.5;stroke-linecap:square;stroke-linejoin:round;}
	.st11{opacity:0.3;fill:#1F77B4;enable-background:new    ;}
</style>
<g id="figure_1">
	<g id="patch_1">
		<path class="st0" d="M-9.6,216h432V0h-432V216z"/>
	</g>
	<g id="axes_1">
		<g id="patch_2">
			<path class="st0" d="M40.4,174h371.3V10.8H40.4V174z"/>
		</g>
		<g id="PolyCollection_1">
			<g>
				<defs>
					<rect id="SVGID_1_" x="40.4" y="10.8" width="371.3" height="163.2"/>
				</defs>
				<clipPath id="SVGID_2_">
					<use xlink:href="#SVGID_1_"  style="overflow:visible;"/>
				</clipPath>
				<path class="st1" d="M57.2,152v2.7h0.6h0.6h0.6h0.6l0.6,3.3H61h0.6h0.6h0.6h0.6h0.6l0.6,5h0.6h0.6h0.6h0.6l0.6-1.7h0.6h0.6h0.6
					h0.6h0.6h0.6l0.6,0.8h0.6h0.6H74h0.6h0.6l0.6-1.9h0.6h0.6h0.6h0.6H79l0.6,1.9h0.6h0.6h0.6h0.6l0.6,0.7h0.6H84h0.6h0.6h0.6h0.6
					l0.6-2.6h0.6h0.6h0.6h0.6l0.6,2.6h0.6h0.6h0.6h0.6h0.6l0.6,1.5h0.6h0.6h0.6h0.6H97h0.6l0.6-12.4h0.6h0.6h0.6h0.6h0.6l0.6,9.8
					h0.6h0.6h0.6h0.6h0.6l0.6-1h0.6h0.6h0.6h0.6h0.6l0.6-3.7h0.6h0.6h0.6h0.6h0.6l0.6-7.9h0.6h0.6h0.6h0.6l0.6-1h0.6h0.6h0.6h0.6
					h0.6h0.6l0.6-0.4h0.6h0.6h0.6h0.6h0.6l0.6-18.9h0.6h0.6h0.6h0.6h0.6l0.6,17.4h0.6h0.6h0.6h0.6l0.6-2.2h0.6h0.6h0.6h0.6h0.6h0.6
					l0.6,11.9h0.6h0.6h0.6h0.6l0.6-15.1h0.6h0.6h0.6h0.6h0.6l0.6,3.2h0.6h0.6h0.6h0.6h0.6h0.6l0.6,2.4h0.6h0.6h0.6h0.6h0.6l0.6,5.6
					h0.6h0.6h0.6h0.6l0.6,7.5h0.6h0.6h0.6h0.6h0.6h0.6l0.6,3h0.6h0.6h0.6h0.6l0.6,3.9h0.6h0.6h0.6h0.6h0.6h0.6l0.6-8.5h0.6h0.6h0.6
					h0.6h0.6l0.6-9.5h0.6h0.6h0.6h0.6h0.6l0.6-1.6h0.6h0.6h0.6h0.6l0.6-11.7h0.6h0.6h0.6h0.6h0.6h0.6l0.6,7.7h0.6h0.6h0.6h0.6
					l0.6-11.1h0.6h0.6h0.6h0.6h0.6l0.6-18.9h0.6h0.6h0.6h0.6h0.6h0.6l0.6,3.9h0.6h0.6h0.6h0.6h0.6l0.6-2.9h0.6h0.6h0.6h0.6h0.6
					l0.6,4.4h0.6h0.6h0.6h0.6h0.6l0.6,16.2h0.6h0.6h0.6h0.6h0.6l0.6-12.6h0.6h0.6h0.6h0.6l0.6-22.2h0.6h0.6h0.6h0.6h0.6h0.6
					l0.6,20.8h0.6h0.6h0.6h0.6h0.6l0.6-3.6h0.6h0.6h0.6h0.6h0.6l0.6-5.9h0.6h0.6h0.6h0.6l0.6-19h0.6h0.6h0.6h0.6l0.6,40.7h0.6h0.6
					h0.6h0.6l0.6-0.8h0.6h0.6h0.6h0.6l0.6-23.8h0.6h0.6h0.6h0.6l0.6,12.8h0.6h0.6h0.6h0.6l0.6-2.5h0.6h0.6h0.6h0.6l0.6,7.6h0.6h0.6
					h0.6h0.6l0.6,11h0.6h0.6h0.6h0.6l0.6-0.5h0.6h0.6h0.6h0.6l0.6,15.2h0.6h0.6h0.6h0.6l0.6-24.7h0.6h0.6h0.6h0.6l0.6,1.9h0.6h0.6
					h0.6h0.6l0.6,5.5h0.6h0.6h0.6h0.6l0.6,15.7h0.6h0.6h0.6h0.6l0.6-31.9h0.6h0.6h0.6h0.6l0.6-0.9h0.6h0.6h0.6h0.6l0.6-12.8h0.6h0.6
					h0.6h0.6l0.6,17h0.6h0.6h0.6h0.6l0.6,7h0.6h0.6h0.6h0.6l0.6-28.2h0.6h0.6h0.6h0.6l0.6,40h0.6h0.6h0.6h0.6l0.6-15.5h0.6h0.6h0.6
					h0.6l0.6-2.3h0.6h0.6h0.6h0.6l0.6,4.5h0.6h0.6h0.6h0.6l0.6-3.4h0.6h0.6h0.6h0.6l0.6-32.7h0.6h0.6h0.6h0.6l0.6,25.2h0.6h0.6h0.6
					h0.6l0.6-3.3h0.6h0.6h0.6h0.6l0.6-13h0.6h0.6h0.6h0.6l0.6,5.9h0.6h0.6h0.6h0.6l0.6-4.9h0.6h0.6h0.6h0.6l0.6,13.9h0.6h0.6h0.6
					h0.6l0.6-29.4h0.6h0.6h0.6h0.6l0.6,34.1h0.6h0.6h0.6h0.6l0.6,20.8h0.6h0.6h0.6h0.6l0.6-11.3h0.6h0.6h0.6h0.6l0.6-13.2h0.6h0.6
					h0.6h0.6l0.6,2.5h0.6h0.6h0.6h0.6l0.6-4.7h0.6h0.6h0.6h0.6l0.6,12.5h0.6h0.6h0.6h0.6l0.6-4.2h0.6h0.6h0.6h0.6l0.6,7.8h0.6h0.6
					h0.6h0.6l0.6-8.6h0.6h0.6h0.6h0.6l0.6,9.2h0.6h0.6h0.6h0.6l0.6-0.1h0.6h0.6h0.6h0.6l0.6-38.7h0.6h0.6h0.6h0.6l0.6,43.3h0.6h0.6
					h0.6h0.6l0.6-14.5h0.6h0.6h0.6h0.6l0.6-20.8h0.6h0.6h0.6h0.6l0.6,7.8h0.6h0.6h0.6h0.6l0.6-6.6h0.6h0.6h0.6h0.6l0.6-16.8h0.6h0.6
					h0.6h0.6l0.6,11.6h0.6h0.6h0.6h0.6l0.6,8.7h0.6h0.6h0.6h0.6l0.6-39.1h0.6h0.6h0.6h0.6V40.6l0,0h-0.6h-0.6h-0.6h-0.6l-0.6-22.4
					H391h-0.6h-0.6h-0.6l-0.6,0h-0.6h-0.6h-0.6h-0.6l-0.6,0h-0.6h-0.6h-0.6h-0.6l-0.6,0h-0.6h-0.6h-0.6h-0.6l-0.6,0h-0.6H378h-0.6
					h-0.6l-0.6,0h-0.6h-0.6h-0.6h-0.6l-0.6,0h-0.6h-0.6h-0.6h-0.6l-0.6,0h-0.6h-0.6H368h-0.6l-0.6,0h-0.6h-0.6h-0.6h-0.6l-0.6,0
					h-0.6h-0.6h-0.6h-0.6l-0.6,18.3H360h-0.6h-0.6h-0.6l-0.6-18.3h-0.6h-0.6h-0.6H355l-0.6,0h-0.6h-0.6h-0.6h-0.6l-0.6,0h-0.6H350
					h-0.6h-0.6l-0.6,0h-0.6h-0.6h-0.6h-0.6l-0.6,0h-0.6h-0.6h-0.6h-0.6l-0.6,0h-0.6h-0.6h-0.6h-0.6l-0.6,0h-0.6h-0.6H337h-0.6
					l-0.6,0h-0.6h-0.6h-0.6h-0.6l-0.6,0H332h-0.6h-0.6h-0.6l-0.6,0h-0.6h-0.6h-0.6H327l-0.6,0h-0.6h-0.6h-0.6h-0.6l-0.6,0h-0.6H322
					h-0.6h-0.6l-0.6,0h-0.6h-0.6h-0.6h-0.6l-0.6,0h-0.6h-0.6h-0.6h-0.6l-0.6,0h-0.6h-0.6h-0.6h-0.6l-0.6,0h-0.6h-0.6H309h-0.6
					l-0.6,0h-0.6h-0.6h-0.6h-0.6l-0.6,0H304h-0.6h-0.6h-0.6l-0.6,0h-0.6h-0.6h-0.6H299l-0.6,0h-0.6h-0.6h-0.6h-0.6l-0.6,0h-0.6h-0.6
					h-0.6h-0.6l-0.6,0h-0.6H291h-0.6h-0.6l-0.6,0h-0.6h-0.6h-0.6h-0.6l-0.6,0h-0.6h-0.6h-0.6h-0.6l-0.6,0h-0.6h-0.6H281h-0.6l-0.6,0
					h-0.6h-0.6h-0.6h-0.6l-0.6,0H276h-0.6h-0.6h-0.6l-0.6,0h-0.6h-0.6h-0.6h-0.6l-0.6,0h-0.6h-0.6h-0.6H268l-0.6,83.4h-0.6h-0.6
					h-0.6h-0.6l-0.6-83.4h-0.6H263h-0.6h-0.6l-0.6,0h-0.6h-0.6h-0.6h-0.6l-0.6,0h-0.6h-0.6h-0.6h-0.6l-0.6,20.2h-0.6h-0.6H253h-0.6
					l-0.6-20.2h-0.6h-0.6h-0.6h-0.6l-0.6,36h-0.6h-0.6h-0.6h-0.6l-0.6-36H245h-0.6h-0.6h-0.6l-0.6,0h-0.6h-0.6h-0.6H240l-0.6,0h-0.6
					h-0.6h-0.6h-0.6l-0.6,0h-0.6H235h-0.6h-0.6l-0.6,0h-0.6h-0.6h-0.6h-0.6l-0.6,35h-0.6h-0.6h-0.6h-0.6l-0.6-35h-0.6h-0.6h-0.6
					h-0.6l-0.6,0h-0.6h-0.6H222h-0.6l-0.6,0h-0.6h-0.6h-0.6h-0.6h-0.6l-0.6,0h-0.6h-0.6h-0.6h-0.6h-0.6l-0.6,0h-0.6H212h-0.6h-0.6
					h-0.6h-0.6l-0.6,0h-0.6h-0.6H207h-0.6l-0.6,0h-0.6h-0.6h-0.6h-0.6h-0.6l-0.6,0h-0.6h-0.6h-0.6h-0.6H199l-0.6,0h-0.6h-0.6h-0.6
					h-0.6h-0.6l-0.6,0H194h-0.6h-0.6h-0.6h-0.6l-0.6,0h-0.6h-0.6H189h-0.6h-0.6h-0.6l-0.6,0h-0.6h-0.6h-0.6H184h-0.6l-0.6,0h-0.6
					h-0.6h-0.6h-0.6l-0.6,0h-0.6h-0.6h-0.6h-0.6h-0.6H176l-0.6,27.2h-0.6h-0.6h-0.6h-0.6l-0.6-19h-0.6H171h-0.6h-0.6h-0.6l-0.6,85
					h-0.6h-0.6h-0.6H166h-0.6l-0.6,35.7h-0.6h-0.6h-0.6h-0.6h-0.6H161l-0.6-129h-0.6h-0.6h-0.6h-0.6l-0.6,107.5h-0.6h-0.6h-0.6h-0.6
					h-0.6h-0.6L153,116h-0.6h-0.6h-0.6h-0.6l-0.6-14.5h-0.6h-0.6H148h-0.6h-0.6l-0.6-83.3h-0.6h-0.6h-0.6h-0.6H143h-0.6l-0.6,7.5
					h-0.6h-0.6h-0.6h-0.6h-0.6L138,89.6h-0.6h-0.6h-0.6h-0.6l-0.6,6.3h-0.6h-0.6h-0.6h-0.6h-0.6h-0.6l-0.6-23.5H130h-0.6h-0.6h-0.6
					l-0.6-54.1h-0.6h-0.6h-0.6H125h-0.6l-0.6,56.3h-0.6h-0.6h-0.6h-0.6h-0.6l-0.6,34h-0.6h-0.6h-0.6h-0.6h-0.6h-0.6L115.7,93h-0.6
					h-0.6h-0.6h-0.6l-0.6,29.4h-0.6h-0.6h-0.6h-0.6h-0.6l-0.6,21.1h-0.6h-0.6H107h-0.6h-0.6l-0.6,6.7h-0.6h-0.6h-0.6h-0.6H102
					l-0.6-36h-0.6h-0.6h-0.6h-0.6h-0.6l-0.6,30H97h-0.6h-0.6h-0.6h-0.6h-0.6l-0.6-14.8h-0.6h-0.6h-0.6h-0.6h-0.6l-0.6-26.5h-0.6
					h-0.6h-0.6h-0.6l-0.6,41.5h-0.6h-0.6h-0.6H84h-0.6h-0.6l-0.6-10.3h-0.6h-0.6h-0.6h-0.6l-0.6-8.9h-0.6h-0.6h-0.6h-0.6h-0.6
					l-0.6,12.9h-0.6H74h-0.6h-0.6h-0.6l-0.6,8.6h-0.6h-0.6h-0.6h-0.6h-0.6h-0.6l-0.6-13.3h-0.6h-0.6h-0.6h-0.6l-0.6-1.1h-0.6h-0.6
					h-0.6h-0.6H61h-0.6L59.7,152h-0.6h-0.6h-0.6H57.2z"/>
			</g>
		</g>
		<g id="matplotlib.axis_1">
			<g id="xtick_1">
				<g id="line2d_1">
					<g>
						<g>
							<path id="mcd64586c97" class="st2" d="M57.2,174v3.5"/>
						</g>
					</g>
				</g>
				<g id="text_1">
					<g transform="translate(58.858165 188.638438)scale(0.1 -0.1)">
						<g>
							<path id="DejaVuSans-48" d="M-63.9,66.4c-5.1,0-8.9-2.5-11.5-7.5c-2.6-5-3.8-12.5-3.8-22.5c0-10,1.3-17.5,3.8-22.5
								c2.6-5,6.4-7.5,11.5-7.5c5.1,0,8.9,2.5,11.5,7.5c2.6,5,3.8,12.5,3.8,22.5c0,10-1.3,17.5-3.8,22.5
								C-54.9,63.9-58.8,66.4-63.9,66.4z M-63.9,74.2c8.2,0,14.4-3.2,18.7-9.7c4.3-6.5,6.5-15.8,6.5-28.1c0-12.3-2.2-21.6-6.5-28.1
								c-4.3-6.5-10.6-9.7-18.7-9.7c-8.2,0-14.4,3.2-18.7,9.7c-4.3,6.5-6.5,15.8-6.5,28.1c0,12.3,2.2,21.7,6.5,28.1
								C-78.3,71-72,74.2-63.9,74.2z"/>
						</g>
						<g>
							<path id="DejaVuSans-46" d="M-21.3,12.4H-11V0h-10.3V12.4z"/>
						</g>
						<g>
							<path id="DejaVuSans-48_1_" d="M31.5,66.4c-5.1,0-8.9-2.5-11.5-7.5c-2.6-5-3.8-12.5-3.8-22.5c0-10,1.3-17.5,3.8-22.5
								c2.6-5,6.4-7.5,11.5-7.5c5.1,0,8.9,2.5,11.5,7.5c2.6,5,3.8,12.5,3.8,22.5c0,10-1.3,17.5-3.8,22.5
								C40.5,63.9,36.7,66.4,31.5,66.4z M31.5,74.2c8.2,0,14.4-3.2,18.7-9.7c4.3-6.5,6.5-15.8,6.5-28.1c0-12.3-2.2-21.6-6.5-28.1
								C46,1.8,39.7-1.4,31.5-1.4c-8.2,0-14.4,3.2-18.7,9.7c-4.3,6.5-6.5,15.8-6.5,28.1c0,12.3,2.2,21.7,6.5,28.1
								C17.1,71,23.4,74.2,31.5,74.2z"/>
						</g>
					</g>
				</g>
			</g>
			<g id="xtick_2">
				<g id="line2d_2">
					<g>
						<g>
							<path id="mcd64586c97_1_" class="st2" d="M119.3,174v3.5"/>
						</g>
					</g>
				</g>
				<g id="text_2">
					<g transform="translate(120.90128 188.638438)scale(0.1 -0.1)">
						<g>
							<path id="DejaVuSans-48_2_" d="M-63.9,66.4c-5.1,0-8.9-2.5-11.5-7.5c-2.6-5-3.8-12.5-3.8-22.5c0-10,1.3-17.5,3.8-22.5
								c2.6-5,6.4-7.5,11.5-7.5c5.1,0,8.9,2.5,11.5,7.5c2.6,5,3.8,12.5,3.8,22.5c0,10-1.3,17.5-3.8,22.5
								C-54.9,63.9-58.8,66.4-63.9,66.4z M-63.9,74.2c8.2,0,14.4-3.2,18.7-9.7c4.3-6.5,6.5-15.8,6.5-28.1c0-12.3-2.2-21.6-6.5-28.1
								c-4.3-6.5-10.6-9.7-18.7-9.7c-8.2,0-14.4,3.2-18.7,9.7c-4.3,6.5-6.5,15.8-6.5,28.1c0,12.3,2.2,21.7,6.5,28.1
								C-78.3,71-72,74.2-63.9,74.2z"/>
						</g>
						<g>
							<path id="DejaVuSans-46_1_" d="M-21.3,12.4H-11V0h-10.3V12.4z"/>
						</g>
						<g>
							<path id="DejaVuSans-49" d="M12.2,8.3h16.1v55.6l-17.5-3.5v9l17.4,3.5H38V8.3h16.1V0h-42V8.3z"/>
						</g>
					</g>
				</g>
			</g>
			<g id="xtick_3">
				<g id="line2d_3">
					<g>
						<g>
							<path id="mcd64586c97_2_" class="st2" d="M181.3,174v3.5"/>
						</g>
					</g>
				</g>
				<g id="text_3">
					<g transform="translate(182.944395 188.638438)scale(0.1 -0.1)">
						<g>
							<path id="DejaVuSans-48_3_" d="M-63.9,66.4c-5.1,0-8.9-2.5-11.5-7.5c-2.6-5-3.8-12.5-3.8-22.5c0-10,1.3-17.5,3.8-22.5
								c2.6-5,6.4-7.5,11.5-7.5c5.1,0,8.9,2.5,11.5,7.5c2.6,5,3.8,12.5,3.8,22.5c0,10-1.3,17.5-3.8,22.5
								C-54.9,63.9-58.8,66.4-63.9,66.4z M-63.9,74.2c8.2,0,14.4-3.2,18.7-9.7c4.3-6.5,6.5-15.8,6.5-28.1c0-12.3-2.2-21.6-6.5-28.1
								c-4.3-6.5-10.6-9.7-18.7-9.7c-8.2,0-14.4,3.2-18.7,9.7c-4.3,6.5-6.5,15.8-6.5,28.1c0,12.3,2.2,21.7,6.5,28.1
								C-78.3,71-72,74.2-63.9,74.2z"/>
						</g>
						<g>
							<path id="DejaVuSans-46_2_" d="M-21.3,12.4H-11V0h-10.3V12.4z"/>
						</g>
						<g>
							<path id="DejaVuSans-50" d="M18.9,8.3h34.4V0H7.1v8.3c3.7,3.9,8.8,9.1,15.3,15.6c6.5,6.5,10.5,10.7,12.2,12.6
								c3.2,3.5,5.4,6.5,6.6,9c1.3,2.5,1.9,4.9,1.9,7.3c0,3.9-1.4,7-4.1,9.5c-2.7,2.4-6.3,3.7-10.6,3.7c-3.1,0-6.4-0.5-9.8-1.6
								c-3.4-1.1-7.1-2.7-11-4.9v10c4,1.6,7.7,2.8,11.1,3.6c3.5,0.8,6.6,1.2,9.5,1.2c7.6,0,13.6-1.9,18.1-5.7
								c4.5-3.8,6.7-8.8,6.7-15.1c0-3-0.6-5.8-1.7-8.5c-1.1-2.7-3.2-5.8-6.1-9.5c-0.8-0.9-3.4-3.7-7.8-8.2
								C33,22.7,26.9,16.4,18.9,8.3z"/>
						</g>
					</g>
				</g>
			</g>
			<g id="xtick_4">
				<g id="line2d_4">
					<g>
						<g>
							<path id="mcd64586c97_3_" class="st2" d="M243.4,174v3.5"/>
						</g>
					</g>
				</g>
				<g id="text_4">
					<g transform="translate(244.98751 188.638438)scale(0.1 -0.1)">
						<g>
							<path id="DejaVuSans-48_4_" d="M-63.9,66.4c-5.1,0-8.9-2.5-11.5-7.5c-2.6-5-3.8-12.5-3.8-22.5c0-10,1.3-17.5,3.8-22.5
								c2.6-5,6.4-7.5,11.5-7.5c5.1,0,8.9,2.5,11.5,7.5c2.6,5,3.8,12.5,3.8,22.5c0,10-1.3,17.5-3.8,22.5
								C-54.9,63.9-58.8,66.4-63.9,66.4z M-63.9,74.2c8.2,0,14.4-3.2,18.7-9.7c4.3-6.5,6.5-15.8,6.5-28.1c0-12.3-2.2-21.6-6.5-28.1
								c-4.3-6.5-10.6-9.7-18.7-9.7c-8.2,0-14.4,3.2-18.7,9.7c-4.3,6.5-6.5,15.8-6.5,28.1c0,12.3,2.2,21.7,6.5,28.1
								C-78.3,71-72,74.2-63.9,74.2z"/>
						</g>
						<g>
							<path id="DejaVuSans-46_3_" d="M-21.3,12.4H-11V0h-10.3V12.4z"/>
						</g>
						<g>
							<path id="DejaVuSans-51" d="M40.3,39.3c4.7-1,8.4-3.1,11-6.3c2.7-3.2,4-7.1,4-11.8c0-7.2-2.5-12.8-7.4-16.7
								C43,0.5,36-1.4,26.9-1.4c-3.1,0-6.2,0.3-9.4,0.9S10.8,1,7.4,2.2v9.5c2.7-1.6,5.7-2.8,9-3.6c3.3-0.8,6.7-1.2,10.2-1.2
								c6.2,0,10.9,1.2,14.1,3.7s4.9,6,4.9,10.6c0,4.3-1.5,7.7-4.5,10.1c-3,2.4-7.2,3.6-12.6,3.6H20V43h8.9c4.8,0,8.6,1,11.1,2.9
								s3.9,4.7,3.9,8.4c0,3.7-1.3,6.6-4,8.6c-2.6,2-6.4,3-11.4,3c-2.7,0-5.6-0.3-8.7-0.9c-3.1-0.6-6.5-1.5-10.2-2.7v8.8
								c3.8,1,7.3,1.8,10.5,2.3s6.4,0.8,9.3,0.8c7.5,0,13.4-1.7,17.8-5.1c4.4-3.4,6.5-8,6.5-13.8c0-4-1.2-7.5-3.5-10.2
								S44.6,40.4,40.3,39.3z"/>
						</g>
					</g>
				</g>
			</g>
			<g id="xtick_5">
				<g id="line2d_5">
					<g>
						<g>
							<path id="mcd64586c97_4_" class="st2" d="M305.4,174v3.5"/>
						</g>
					</g>
				</g>
				<g id="text_5">
					<g transform="translate(307.030625 188.638438)scale(0.1 -0.1)">
						<g>
							<path id="DejaVuSans-48_5_" d="M-63.9,66.4c-5.1,0-8.9-2.5-11.5-7.5c-2.6-5-3.8-12.5-3.8-22.5c0-10,1.3-17.5,3.8-22.5
								c2.6-5,6.4-7.5,11.5-7.5c5.1,0,8.9,2.5,11.5,7.5c2.6,5,3.8,12.5,3.8,22.5c0,10-1.3,17.5-3.8,22.5
								C-54.9,63.9-58.8,66.4-63.9,66.4z M-63.9,74.2c8.2,0,14.4-3.2,18.7-9.7c4.3-6.5,6.5-15.8,6.5-28.1c0-12.3-2.2-21.6-6.5-28.1
								c-4.3-6.5-10.6-9.7-18.7-9.7c-8.2,0-14.4,3.2-18.7,9.7c-4.3,6.5-6.5,15.8-6.5,28.1c0,12.3,2.2,21.7,6.5,28.1
								C-78.3,71-72,74.2-63.9,74.2z"/>
						</g>
						<g>
							<path id="DejaVuSans-46_4_" d="M-21.3,12.4H-11V0h-10.3V12.4z"/>
						</g>
						<g>
							<path id="DejaVuSans-52" d="M37.6,64.3L12.6,25.4h24.9V64.3z M35,72.9h12.4V25.4h10.4v-8.2H47.4V0h-9.8v17.2H4.6v9.5L35,72.9
								z"/>
						</g>
					</g>
				</g>
			</g>
			<g id="text_7">
				<g transform="translate(207.081063 202.316563)scale(0.1 -0.1)">
					<g>
						<path id="DejaVuSans-68" d="M-76,64.8V8.1h11.9c10.1,0,17.4,2.3,22.1,6.8c4.7,4.6,7,11.8,7,21.6c0,9.8-2.3,16.9-7,21.5
							s-12,6.8-22.1,6.8H-76z M-85.8,72.9h20.3c14.1,0,24.5-2.9,31.1-8.8c6.6-5.9,9.9-15.1,9.9-27.6c0-12.6-3.3-21.8-10-27.7
							c-6.6-5.9-17-8.8-31-8.8h-20.3V72.9z"/>
					</g>
					<g>
						<path id="DejaVuSans-101" d="M37.6,29.6v-4.4H-3.8c0.4-6.2,2.3-10.9,5.6-14.1s8-4.9,13.9-4.9c3.4,0,6.8,0.4,10,1.3
							s6.5,2.1,9.7,3.8V2.8c-3.2-1.4-6.5-2.4-9.9-3.1s-6.8-1.1-10.3-1.1C6.5-1.4-0.4,1.1-5.5,6.2c-5.1,5.1-7.6,12-7.6,20.6
							c0,8.9,2.4,16,7.3,21.3C-1.1,53.4,5.5,56,13.7,56c7.4,0,13.2-2.4,17.5-7.1C35.4,44.2,37.6,37.7,37.6,29.6z M28.6,32.2
							c-0.1,4.9-1.4,8.8-4.1,11.8c-2.7,2.9-6.2,4.4-10.7,4.4c-5,0-9-1.4-12-4.3s-4.7-6.8-5.2-12L28.6,32.2z"/>
					</g>
					<g>
						<path id="DejaVuSans-112" d="M61,8.2v-29h-9v75.5h9v-8.3c1.9,3.3,4.3,5.7,7.2,7.2C71,55.2,74.5,56,78.5,56
							c6.6,0,12-2.6,16.2-7.9c4.2-5.3,6.2-12.2,6.2-20.8s-2.1-15.5-6.2-20.8c-4.1-5.3-9.5-7.9-16.2-7.9c-4,0-7.4,0.8-10.3,2.4
							C65.3,2.5,62.9,5,61,8.2z M91.6,27.3c0,6.6-1.4,11.8-4.1,15.5s-6.5,5.6-11.2,5.6c-4.8,0-8.5-1.9-11.2-5.6
							c-2.7-3.8-4.1-8.9-4.1-15.5s1.4-11.8,4.1-15.5c2.7-3.8,6.5-5.6,11.2-5.6c4.8,0,8.5,1.9,11.2,5.6S91.6,20.7,91.6,27.3z"/>
					</g>
					<g>
						<path id="DejaVuSans-116" d="M124.7,70.2V54.7h18.5v-7h-18.5V18c0-4.5,0.6-7.3,1.8-8.6s3.7-1.9,7.5-1.9h9.2V0h-9.2
							c-6.9,0-11.7,1.3-14.4,3.9c-2.6,2.6-4,7.3-4,14.1v29.7H109v7h6.6v15.5H124.7z"/>
					</g>
					<g>
						<path id="DejaVuSans-104" d="M200.4,33V0h-9v32.7c0,5.2-1,9-3,11.6c-2,2.6-5,3.9-9.1,3.9c-4.9,0-8.7-1.5-11.5-4.6
							c-2.8-3.1-4.2-7.3-4.2-12.6V0h-9v76h9V46.2c2.2,3.3,4.7,5.8,7.6,7.4c2.9,1.6,6.3,2.4,10.1,2.4c6.3,0,11-1.9,14.3-5.8
							C198.8,46.3,200.4,40.6,200.4,33z"/>
					</g>
					<g>
						<path id="DejaVuSans-32" d="M208.9,0"/>
					</g>
					<g>
						<path id="DejaVuSans-40" d="M271.7,75.9c-4.4-7.5-7.6-14.9-9.7-22.2c-2.1-7.3-3.2-14.7-3.2-22.3c0-7.5,1.1-15,3.2-22.3
							c2.1-7.4,5.4-14.8,9.7-22.3h-7.8C259-5.5,255.4,2,253,9.4c-2.4,7.4-3.6,14.7-3.6,22c0,7.3,1.2,14.6,3.6,21.9
							c2.4,7.4,6.1,14.9,11,22.6H271.7z"/>
					</g>
					<g>
						<path id="DejaVuSans-107" d="M288.8,76h9V31.1l26.8,23.6h11.5l-29-25.6L337.4,0h-11.7l-27.8,26.7V0h-9V76z"/>
					</g>
					<g>
						<path id="DejaVuSans-109" d="M389.6,44.2c2.3,4,4.9,7,8.1,8.9s6.8,2.9,11,2.9c5.7,0,10.1-2,13.2-6c3.1-4,4.6-9.6,4.6-17V0h-9
							v32.7c0,5.2-0.9,9.1-2.8,11.7c-1.9,2.5-4.7,3.8-8.5,3.8c-4.7,0-8.3-1.5-11-4.6c-2.7-3.1-4-7.3-4-12.6V0h-9v32.7
							c0,5.3-0.9,9.2-2.8,11.7c-1.9,2.5-4.7,3.8-8.6,3.8c-4.6,0-8.2-1.6-11-4.7c-2.7-3.1-4-7.3-4-12.6V0h-9v54.7h9v-8.5
							c2.1,3.4,4.5,5.8,7.4,7.4c2.9,1.6,6.3,2.4,10.2,2.4c4,0,7.4-1,10.1-3C386.3,51,388.3,48,389.6,44.2z"/>
					</g>
					<g>
						<path id="DejaVuSans-41" d="M443.1,75.9h7.8c4.9-7.7,8.5-15.2,11-22.6c2.4-7.4,3.6-14.7,3.6-21.9c0-7.3-1.2-14.6-3.6-22
							s-6.1-14.9-11-22.6h-7.8c4.3,7.5,7.6,14.9,9.7,22.3c2.1,7.4,3.2,14.8,3.2,22.3c0,7.5-1.1,14.9-3.2,22.3
							C450.6,61,447.4,68.4,443.1,75.9z"/>
					</g>
				</g>
			</g>
		</g>
		<g id="matplotlib.axis_2">
			<g id="ytick_1">
				<g id="line2d_7">
					<g>
						<g>
							<path id="m8a3103171c" class="st2" d="M40.4,152.9h-3.5"/>
						</g>
					</g>
				</g>
				<g id="text_8">
					<g transform="translate(36.5715 156.659796)scale(0.1 -0.1)">
						<g>
							<path id="DejaVuSans-51_1_" d="M-55.1,39.3c4.7-1,8.4-3.1,11-6.3c2.7-3.2,4-7.1,4-11.8c0-7.2-2.5-12.8-7.4-16.7
								c-4.9-3.9-12-5.9-21.1-5.9c-3.1,0-6.2,0.3-9.4,0.9S-84.6,1-88,2.2v9.5c2.7-1.6,5.7-2.8,9-3.6c3.3-0.8,6.7-1.2,10.2-1.2
								c6.2,0,10.9,1.2,14.1,3.7s4.9,6,4.9,10.6c0,4.3-1.5,7.7-4.5,10.1c-3,2.4-7.2,3.6-12.6,3.6h-8.5V43h8.9c4.8,0,8.6,1,11.1,2.9
								s3.9,4.7,3.9,8.4c0,3.7-1.3,6.6-4,8.6c-2.6,2-6.4,3-11.4,3c-2.7,0-5.6-0.3-8.7-0.9c-3.1-0.6-6.5-1.5-10.2-2.7v8.8
								c3.8,1,7.3,1.8,10.5,2.3s6.4,0.8,9.3,0.8c7.5,0,13.4-1.7,17.8-5.1c4.4-3.4,6.5-8,6.5-13.8c0-4-1.2-7.5-3.5-10.2
								S-50.8,40.4-55.1,39.3z"/>
						</g>
					</g>
				</g>
			</g>
			<g id="ytick_2">
				<g id="line2d_8">
					<g>
						<g>
							<path id="m8a3103171c_1_" class="st2" d="M40.4,130.4h-3.5"/>
						</g>
					</g>
				</g>
				<g id="text_9">
					<g transform="translate(36.5715 134.219695)scale(0.1 -0.1)">
						<g>
							<path id="DejaVuSans-52_1_" d="M-57.9,64.3l-24.9-38.9h24.9V64.3z M-60.4,72.9H-48V25.4h10.4v-8.2H-48V0h-9.8v17.2h-32.9v9.5
								L-60.4,72.9z"/>
						</g>
					</g>
				</g>
			</g>
			<g id="ytick_3">
				<g id="line2d_9">
					<g>
						<g>
							<path id="m8a3103171c_2_" class="st2" d="M40.4,108h-3.5"/>
						</g>
					</g>
				</g>
				<g id="text_10">
					<g transform="translate(36.5715 111.779593)scale(0.1 -0.1)">
						<g>
							<path id="DejaVuSans-53_1_" d="M-84.9,72.9h38.7v-8.3h-29.7V46.7c1.4,0.5,2.9,0.9,4.3,1.1c1.4,0.2,2.9,0.4,4.3,0.4
								c8.1,0,14.6-2.2,19.3-6.7c4.8-4.5,7.1-10.5,7.1-18.1c0-7.8-2.4-13.9-7.3-18.3C-53,0.7-59.9-1.4-68.7-1.4
								c-3.1,0-6.2,0.3-9.4,0.8c-3.2,0.5-6.4,1.3-9.8,2.3v9.9c2.9-1.6,6-2.8,9.1-3.6s6.4-1.2,9.9-1.2c5.6,0,10.1,1.5,13.4,4.4
								c3.3,3,4.9,7,4.9,12.1c0,5.1-1.6,9.1-4.9,12c-3.3,3-7.7,4.5-13.4,4.5c-2.6,0-5.3-0.3-7.9-0.9c-2.6-0.6-5.3-1.5-8-2.7V72.9z"
								/>
						</g>
					</g>
				</g>
			</g>
			<g id="ytick_4">
				<g id="line2d_10">
					<g>
						<g>
							<path id="m8a3103171c_3_" class="st2" d="M40.4,85.5h-3.5"/>
						</g>
					</g>
				</g>
				<g id="text_11">
					<g transform="translate(36.5715 89.339492)scale(0.1 -0.1)">
						<g>
							<path id="DejaVuSans-54" d="M-62.6,40.4c-4.4,0-7.9-1.5-10.5-4.5c-2.6-3-3.9-7.2-3.9-12.4c0-5.2,1.3-9.4,3.9-12.4
								c2.6-3,6.1-4.6,10.5-4.6s7.9,1.5,10.5,4.6c2.6,3.1,3.9,7.2,3.9,12.4c0,5.3-1.3,9.4-3.9,12.4C-54.7,38.9-58.2,40.4-62.6,40.4z
								 M-43.1,71.3v-9c-2.5,1.2-5,2.1-7.5,2.7c-2.5,0.6-5,0.9-7.5,0.9c-6.5,0-11.5-2.2-14.9-6.6c-3.4-4.4-5.4-11-5.9-19.9
								c1.9,2.8,4.3,5,7.2,6.5c2.9,1.5,6.1,2.3,9.6,2.3c7.3,0,13.1-2.2,17.4-6.7c4.3-4.4,6.4-10.5,6.4-18.1c0-7.5-2.2-13.5-6.6-18
								c-4.4-4.5-10.3-6.8-17.7-6.8c-8.4,0-14.9,3.2-19.3,9.7c-4.5,6.5-6.7,15.8-6.7,28.1c0,11.5,2.7,20.7,8.2,27.6
								c5.5,6.9,12.8,10.3,22,10.3c2.5,0,5-0.2,7.5-0.7S-45.8,72.3-43.1,71.3z"/>
						</g>
					</g>
				</g>
			</g>
			<g id="ytick_5">
				<g id="line2d_11">
					<g>
						<g>
							<path id="m8a3103171c_4_" class="st2" d="M40.4,63.1h-3.5"/>
						</g>
					</g>
				</g>
				<g id="text_12">
					<g transform="translate(36.5715 66.89939)scale(0.1 -0.1)">
						<g>
							<path id="DejaVuSans-55" d="M-87.4,72.9h46.9v-4.2L-67,0h-10.3l24.9,64.6h-35V72.9z"/>
						</g>
					</g>
				</g>
			</g>
			<g id="ytick_6">
				<g id="line2d_12">
					<g>
						<g>
							<path id="m8a3103171c_5_" class="st2" d="M40.4,40.7h-3.5"/>
						</g>
					</g>
				</g>
				<g id="text_13">
					<g transform="translate(36.5715 44.459289)scale(0.1 -0.1)">
						<g>
							<path id="DejaVuSans-56" d="M-63.9,34.6c-4.7,0-8.4-1.3-11.1-3.8c-2.7-2.5-4-6-4-10.3c0-4.4,1.3-7.8,4-10.4
								c2.7-2.5,6.4-3.8,11.1-3.8s8.4,1.3,11.1,3.8c2.7,2.5,4.1,6,4.1,10.3c0,4.4-1.3,7.8-4,10.3C-55.4,33.4-59.1,34.6-63.9,34.6z
								 M-73.7,38.8c-4.2,1-7.5,3-9.9,5.9c-2.4,2.9-3.5,6.4-3.5,10.6c0,5.8,2.1,10.4,6.2,13.8c4.2,3.4,9.8,5.1,17.1,5.1
								c7.3,0,13-1.7,17.1-5.1s6.2-8,6.2-13.8c0-4.2-1.2-7.7-3.5-10.6c-2.4-2.9-5.6-4.9-9.8-5.9c4.8-1.1,8.4-3.3,11.1-6.5
								c2.7-3.2,4-7.2,4-11.8c0-7.1-2.2-12.5-6.5-16.3c-4.3-3.8-10.5-5.7-18.5-5.7c-8,0-14.2,1.9-18.5,5.7
								c-4.3,3.8-6.5,9.2-6.5,16.3c0,4.6,1.3,8.6,4,11.8C-82.2,35.5-78.5,37.7-73.7,38.8z M-77.3,54.4c0-3.8,1.2-6.7,3.5-8.8
								c2.4-2.1,5.7-3.2,9.9-3.2c4.2,0,7.6,1.1,9.9,3.2c2.4,2.1,3.6,5.1,3.6,8.8c0,3.8-1.2,6.7-3.6,8.8c-2.4,2.1-5.7,3.2-9.9,3.2
								c-4.3,0-7.6-1.1-9.9-3.2C-76.2,61.1-77.3,58.2-77.3,54.4z"/>
						</g>
					</g>
				</g>
			</g>
			<g id="ytick_7">
				<g id="line2d_13">
					<g>
						<g>
							<path id="m8a3103171c_6_" class="st2" d="M40.4,18.2h-3.5"/>
						</g>
					</g>
				</g>
				<g id="text_14">
					<g transform="translate(36.5715 22.019188)scale(0.1 -0.1)">
						<g>
							<path id="DejaVuSans-57" d="M-84.7,1.5v9c2.5-1.2,5-2.1,7.5-2.7c2.5-0.6,5-0.9,7.5-0.9c6.5,0,11.5,2.2,14.9,6.6
								c3.4,4.4,5.4,11,5.9,20c-1.9-2.8-4.3-5-7.2-6.5c-2.9-1.5-6.1-2.3-9.6-2.3c-7.3,0-13.1,2.2-17.3,6.6
								c-4.3,4.4-6.4,10.5-6.4,18.1c0,7.5,2.2,13.5,6.6,18c4.4,4.5,10.3,6.8,17.7,6.8c8.4,0,14.9-3.2,19.3-9.7
								c4.4-6.5,6.7-15.8,6.7-28.1c0-11.5-2.7-20.7-8.2-27.5C-52.7,2-60-1.4-69.2-1.4c-2.5,0-5,0.2-7.5,0.7
								C-79.3-0.2-81.9,0.5-84.7,1.5z M-65,32.4c4.4,0,7.9,1.5,10.5,4.5c2.6,3,3.9,7.2,3.9,12.5c0,5.2-1.3,9.4-3.9,12.4
								c-2.6,3-6.1,4.6-10.5,4.6s-7.9-1.5-10.5-4.6c-2.6-3-3.9-7.2-3.9-12.4c0-5.3,1.3-9.4,3.9-12.5C-73,33.9-69.5,32.4-65,32.4z"/>
						</g>
					</g>
				</g>
			</g>
			<g id="text_15">
				<g transform="translate(19.294 112.035625)rotate(-90)scale(0.1 -0.1)">
					<g>
						<path id="DejaVuSans-86" d="M28.6,95.7L0.8,168.6h10.3l23.1-61.4l23.1,61.4h10.3L39.8,95.7H28.6z"/>
					</g>
					<g>
						<path id="DejaVuSans-101_1_" d="M116.9,125.2v-4.4H75.5c0.4-6.2,2.3-10.9,5.6-14.1c3.3-3.2,8-4.9,13.9-4.9
							c3.4,0,6.8,0.4,10,1.3c3.2,0.8,6.5,2.1,9.7,3.8v-8.5c-3.2-1.4-6.5-2.4-9.9-3.1c-3.4-0.7-6.8-1.1-10.3-1.1
							c-8.7,0-15.6,2.5-20.7,7.6c-5.1,5.1-7.6,12-7.6,20.6c0,8.9,2.4,16,7.3,21.3c4.8,5.3,11.4,7.9,19.6,7.9
							c7.4,0,13.2-2.4,17.5-7.1C114.7,139.8,116.9,133.4,116.9,125.2z M107.9,127.9c-0.1,4.9-1.4,8.8-4.1,11.8
							c-2.7,2.9-6.2,4.4-10.7,4.4c-5,0-9-1.4-12-4.3c-3-2.8-4.7-6.8-5.2-12L107.9,127.9z"/>
					</g>
					<g>
						<path id="DejaVuSans-108" d="M131.6,171.6h9v-76h-9V171.6z"/>
					</g>
					<g>
						<path id="DejaVuSans-111" d="M180.6,144c-4.8,0-8.6-1.9-11.4-5.6c-2.8-3.8-4.2-8.9-4.2-15.5c0-6.5,1.4-11.7,4.2-15.5
							c2.8-3.8,6.6-5.6,11.5-5.6c4.8,0,8.6,1.9,11.4,5.7c2.8,3.8,4.2,8.9,4.2,15.4c0,6.5-1.4,11.6-4.2,15.4
							C189.2,142.1,185.4,144,180.6,144z M180.6,151.7c7.8,0,13.9-2.5,18.4-7.6c4.5-5.1,6.7-12.1,6.7-21.1c0-8.9-2.2-16-6.7-21.1
							c-4.5-5.1-10.6-7.6-18.4-7.6c-7.8,0-14,2.5-18.4,7.6c-4.4,5.1-6.7,12.1-6.7,21.1c0,9,2.2,16,6.7,21.1
							C166.6,149.1,172.7,151.7,180.6,151.7z"/>
					</g>
					<g>
						<path id="DejaVuSans-99" d="M259.9,148.2v-8.4c-2.5,1.4-5.1,2.5-7.6,3.2c-2.6,0.7-5.1,1-7.7,1c-5.8,0-10.4-1.8-13.6-5.5
							c-3.2-3.7-4.8-8.9-4.8-15.5s1.6-11.9,4.8-15.6c3.2-3.7,7.8-5.5,13.6-5.5c2.6,0,5.2,0.3,7.7,1c2.6,0.7,5.1,1.8,7.6,3.2v-8.3
							c-2.5-1.2-5.1-2-7.8-2.6c-2.7-0.6-5.5-0.9-8.6-0.9c-8.2,0-14.8,2.6-19.6,7.8c-4.8,5.2-7.3,12.2-7.3,21c0,8.9,2.4,15.9,7.3,21
							c4.9,5.1,11.6,7.7,20.2,7.7c2.8,0,5.5-0.3,8.1-0.9C254.9,150.2,257.4,149.4,259.9,148.2z"/>
					</g>
					<g>
						<path id="DejaVuSans-105" d="M275.5,150.3h9V95.7h-9V150.3z M275.5,171.6h9v-11.4h-9V171.6z"/>
					</g>
					<g>
						<path id="DejaVuSans-116_1_" d="M312.2,165.9v-15.5h18.5v-7h-18.5v-29.7c0-4.5,0.6-7.3,1.8-8.6c1.2-1.3,3.7-1.9,7.5-1.9h9.2
							v-7.5h-9.2c-6.9,0-11.7,1.3-14.4,3.9c-2.6,2.6-4,7.3-4,14.1v29.7h-6.6v7h6.6v15.5H312.2z"/>
					</g>
					<g>
						<path id="DejaVuSans-121" d="M365.3,90.6c-2.5-6.5-5-10.8-7.4-12.7c-2.4-2-5.6-3-9.7-3H341v7.5h5.3c2.5,0,4.4,0.6,5.8,1.8
							c1.4,1.2,2.9,3.9,4.5,8.3l1.6,4.1l-22.1,53.8h9.5l17.1-42.8l17.1,42.8h9.5L365.3,90.6z"/>
					</g>
				</g>
				<g transform="translate(30.491813 108.37625)rotate(-90)scale(0.1 -0.1)">
					<g>
						<path id="DejaVuSans-40_1_" d="M31,171.5c-4.4-7.5-7.6-14.9-9.7-22.2c-2.1-7.3-3.2-14.7-3.2-22.3c0-7.5,1.1-15,3.2-22.3
							s5.4-14.8,9.7-22.3h-7.8c-4.9,7.7-8.5,15.2-11,22.6s-3.6,14.7-3.6,22c0,7.3,1.2,14.6,3.6,21.9c2.4,7.4,6.1,14.9,11,22.6H31z"
							/>
					</g>
					<g>
						<path id="DejaVuSans-107_1_" d="M48.1,171.6h9v-44.9l26.8,23.6h11.5l-29-25.6l30.2-29.1H84.9l-27.8,26.7V95.7h-9V171.6z"/>
					</g>
					<g>
						<path id="DejaVuSans-109_1_" d="M148.9,139.8c2.3,4,4.9,7,8.1,8.9s6.8,2.9,11,2.9c5.7,0,10.1-2,13.2-6c3.1-4,4.6-9.6,4.6-17
							v-33h-9v32.7c0,5.2-0.9,9.1-2.8,11.7c-1.9,2.5-4.7,3.8-8.5,3.8c-4.7,0-8.3-1.5-11-4.6c-2.7-3.1-4-7.3-4-12.6V95.7h-9v32.7
							c0,5.3-0.9,9.2-2.8,11.7s-4.7,3.8-8.6,3.8c-4.6,0-8.2-1.6-11-4.7c-2.7-3.1-4-7.3-4-12.6V95.7h-9v54.7h9v-8.5
							c2.1,3.4,4.5,5.8,7.4,7.4s6.3,2.4,10.2,2.4c4,0,7.4-1,10.1-3C145.5,146.6,147.6,143.7,148.9,139.8z"/>
					</g>
					<g>
						<path id="DejaVuSans-47" d="M219.7,168.6h8.3l-25.4-82.2h-8.3L219.7,168.6z"/>
					</g>
					<g>
						<path id="DejaVuSans-115" d="M272.3,148.7v-8.5c-2.5,1.3-5.2,2.3-7.9,2.9c-2.7,0.7-5.6,1-8.5,1c-4.5,0-7.8-0.7-10-2
							s-3.3-3.4-3.3-6.2c0-2.1,0.8-3.7,2.4-4.9s4.8-2.3,9.6-3.4l3.1-0.7c6.4-1.4,10.9-3.3,13.6-5.8s4-6,4-10.4c0-5.1-2-9.1-6-12.1
							c-4-3-9.5-4.4-16.6-4.4c-2.9,0-6,0.3-9.2,0.9c-3.2,0.6-6.5,1.4-10,2.6v9.3c3.3-1.7,6.6-3,9.8-3.9c3.2-0.9,6.4-1.3,9.6-1.3
							c4.2,0,7.5,0.7,9.8,2.2c2.3,1.4,3.4,3.5,3.4,6.1c0,2.4-0.8,4.3-2.5,5.6c-1.6,1.3-5.2,2.6-10.8,3.8l-3.1,0.7
							c-5.6,1.2-9.6,3-12.1,5.4c-2.5,2.4-3.7,5.8-3.7,10c0,5.1,1.8,9.1,5.5,11.9c3.6,2.8,8.8,4.2,15.5,4.2c3.3,0,6.4-0.2,9.4-0.7
							C267.1,150.4,269.8,149.7,272.3,148.7z"/>
					</g>
					<g>
						<path id="DejaVuSans-41_1_" d="M288.1,171.5h7.8c4.9-7.7,8.5-15.2,11-22.6c2.4-7.4,3.6-14.7,3.6-21.9c0-7.3-1.2-14.6-3.6-22
							s-6.1-14.9-11-22.6h-7.8c4.3,7.5,7.6,14.9,9.7,22.3s3.2,14.8,3.2,22.3c0,7.5-1.1,14.9-3.2,22.3
							C295.7,156.6,292.5,164,288.1,171.5z"/>
					</g>
				</g>
			</g>
		</g>
		<g id="line2d_14">
			<g>
				<defs>
					<rect id="SVGID_3_" x="40.4" y="10.8" width="371.3" height="163.2"/>
				</defs>
				<clipPath id="SVGID_4_">
					<use xlink:href="#SVGID_3_"  style="overflow:visible;"/>
				</clipPath>
				<path class="st3" d="M57.2,153.5h2.5l0.6-1.6h3.7l0.6-5.9h2.5l0.6,9.4h3.7l0.6-7.6h3.1l0.6,0.9H79l0.6,6h2.5l0.6,1.7h3.7
					l0.6-12.5h2.5l0.6,7.5h3.1l0.6,5.9h3.7l0.6-16.3h3.1l0.6,16.8h3.1l0.6-5.2h3.1l0.6-6h3.1l0.6-6.6h2.5l0.6-5.5h3.7l0.6-1.2h3.1
					l0.6-29.1h3.1l0.6,30.9h2.5l0.6-4.6h3.7l0.6,10.4h2.5l0.6-35.5h3.1l0.6,24.2h3.7l0.6,3.4h3.1l0.6,7.5h2.5l0.6,10.7h3.7l0.6,3.4
					h2.5l0.6,3h3.7l0.6-7.4h3.1l0.6-22.8h3.1l0.6-3.2h2.5l0.6-17.3h3.7l0.6,1.4h2.5l0.6-20.3h3.1l0.6-12.2h3.7l0.6,17.2h3.1
					l0.6-22.8h3.1l0.6-4.1h3.1l0.6,28.5h3.1l0.6-5.9h2.5l0.6-29.2h3.7l0.6,23h3.1l0.6-1.8h3.1l0.6-5.2h2.5l0.6-22.4h2.5l0.6,55.9
					h2.5l0.6-26.7h2.5l0.6-14.4h2.5l0.6,25.6h2.5l0.6-2.5h2.5l0.6-12.8h2.5l0.6,39.1h2.5l0.6-10.5h2.5l0.6,23.1h2.5l0.6-29.9h2.5
					l0.6-3.4h2.5l0.6,15.2h2.5l0.6,20.5h2.5l0.6-48h2.5l0.6-19.3h2.5l0.6-6.6h2.5l0.6,19.8h2.5l0.6,9.6h2.5l0.6-33.3h2.5l0.6,31.3
					h2.5l0.6,3h2.5l0.6-21.4h2.5l0.6,29.8h2.5l0.6,2.6h2.5l0.6-37.4h2.5l0.6,4.2h2.5l0.6-1.5h2.5l0.6,3.1h2.5l0.6-2.7h2.5l0.6,2.5
					h2.5l0.6,15.8h2.5l0.6-30.3h2.5l0.6,25.2h2.5l0.6,22.2h2.5l0.6-18.3h2.5l0.6-14.6h2.5l0.6,6.9h2.5l0.6,10.8h2.5l0.6,12.2h2.5
					l0.6-6.4h2.5l0.6-4.4h2.5L355,83h2.5l0.6,12.5h2.5l0.6-14.8h2.5l0.6-25.2h2.5l0.6,25h2.5l0.6-5.1h2.5l0.6-15.7h2.5l0.6,3.4h2.5
					l0.6-5.4h2.5l0.6-9.6h2.5l0.6,4.1h2.5l0.6,26.8h2.5l0.6-25.1h2.5l0,0"/>
			</g>
		</g>
		<g id="line2d_15">
			<g>
				<defs>
					<rect id="SVGID_5_" x="40.4" y="10.8" width="371.3" height="163.2"/>
				</defs>
				<clipPath id="SVGID_6_">
					<use xlink:href="#SVGID_5_"  style="overflow:visible;"/>
				</clipPath>
				<path class="st4" d="M57.2,152.9h55.3l0.6-22.4h36.7l0.6,22.4h18l0.6-44.9h17.4l0.6-22.4h52.2L240,108h30.5l0.6-44.9H286
					l0.6,22.4h14.9l0.6-22.4h30.5l0.6,22.4h46l0.6-22.4h14.9l0,0"/>
			</g>
		</g>
		<g id="line2d_16">
			<g>
				<defs>
					<rect id="SVGID_7_" x="40.4" y="10.8" width="371.3" height="163.2"/>
				</defs>
				<clipPath id="SVGID_8_">
					<use xlink:href="#SVGID_7_"  style="overflow:visible;"/>
				</clipPath>
				<path class="st5" d="M57.2,151.8l7.5-0.1l7.5-0.4l6.8-0.5l6.8-0.8l7.5-1.1l8.1-1.4l9.3-1.8l13.1-2.8l13.7-3.2l8.1-2.1l6.2-1.8
					l5.6-1.9l5-1.9l5-2.2l5-2.4l5-2.7l5-2.9l6.2-3.9l16.2-10.4l4.4-2.5l4.4-2.2l3.7-1.6l3.7-1.4l3.7-1.2l3.7-1l4.4-0.9l5.6-0.9
					l19.9-2.9l5.6-1.2l5.6-1.4l6.2-1.8l8.7-2.8l10.6-3.3l5.6-1.5l5-1.2l5-0.9l4.4-0.6l5-0.4l5-0.2l5.6,0l8.1,0.2l15.5,0.5l8.1,0
					l8.7-0.2l21.8-0.7l2.5,0l0,0"/>
			</g>
		</g>
		<g id="patch_3">
			<path class="st6" d="M40.4,174V10.8"/>
		</g>
		<g id="patch_4">
			<path class="st6" d="M411.6,174V10.8"/>
		</g>
		<g id="patch_5">
			<path class="st6" d="M40.4,174h371.3"/>
		</g>
		<g id="patch_6">
			<path class="st6" d="M40.4,10.8h371.3"/>
		</g>
		<g id="legend_1">
			<g id="patch_7">
				<path class="st7" d="M315.7,200.9h104.6c1.2,0,1.7-0.6,1.7-1.7v-50.2c0-1.2-0.6-1.7-1.7-1.7H315.7c-1.2,0-1.7,0.6-1.7,1.7v50.2
					C313.9,200.3,314.5,200.9,315.7,200.9z"/>
			</g>
			<g id="line2d_17">
				<path class="st8" d="M317.4,154.2h17.4"/>
			</g>
			<g id="line2d_18">
			</g>
			<g id="text_16">
				<g transform="translate(72.134 20.759062)scale(0.06 -0.06)">
					<g>
						<path id="DejaVuSans-77" d="M4508.6-2169.2h21.3l27-72l27.1,72h21.3v-105.8h-14v92.9l-27.3-72.5h-14.4l-27.3,72.5v-92.9h-13.9
							V-2169.2z"/>
					</g>
					<g>
						<path id="DejaVuSans-101_2_" d="M4701.1-2232v-6.4h-59.9c0.6-9,3.3-15.8,8.1-20.5c4.8-4.7,11.6-7.1,20.2-7.1
							c5,0,9.9,0.6,14.6,1.8c4.7,1.2,9.4,3.1,14,5.5v-12.3c-4.7-2-9.5-3.5-14.4-4.5c-4.9-1-9.9-1.6-14.9-1.6
							c-12.7,0-22.7,3.7-30.1,11c-7.4,7.4-11.1,17.4-11.1,29.9c0,13,3.5,23.3,10.5,30.9c7,7.6,16.5,11.4,28.4,11.4
							c10.7,0,19.1-3.4,25.3-10.3C4698-2210.9,4701.1-2220.2,4701.1-2232z M4688.1-2228.2c-0.1,7.1-2.1,12.8-6,17
							c-3.9,4.3-9.1,6.4-15.5,6.4c-7.3,0-13.1-2.1-17.5-6.2s-6.9-9.9-7.5-17.4L4688.1-2228.2z"/>
					</g>
					<g>
						<path id="DejaVuSans-100" d="M4774.7-2207.6v42.9h13v-110.3h-13v11.9c-2.7-4.7-6.2-8.2-10.4-10.5c-4.2-2.3-9.2-3.4-15.1-3.4
							c-9.6,0-17.4,3.8-23.4,11.5c-6,7.7-9,17.7-9,30.2c0,12.5,3,22.5,9,30.2c6,7.6,13.8,11.5,23.4,11.5c5.9,0,10.9-1.1,15.1-3.4
							C4768.5-2199.4,4772-2202.9,4774.7-2207.6z M4730.3-2235.3c0-9.6,2-17.1,5.9-22.6s9.4-8.2,16.3-8.2s12.3,2.7,16.3,8.2
							c4,5.5,6,13,6,22.6s-2,17.1-6,22.6c-4,5.5-9.4,8.2-16.3,8.2s-12.3-2.7-16.3-8.2S4730.3-2225.8,4730.3-2235.3z"/>
					</g>
					<g>
						<path id="DejaVuSans-105_1_" d="M4814.6-2195.6h13v-79.4h-13V-2195.6z M4814.6-2164.7h13v-16.5h-13V-2164.7z"/>
					</g>
					<g>
						<path id="DejaVuSans-97" d="M4891-2235.1c-10.5,0-17.8-1.2-21.9-3.6s-6.1-6.5-6.1-12.3c0-4.6,1.5-8.3,4.6-11
							c3.1-2.7,7.2-4.1,12.4-4.1c7.2,0,13,2.6,17.4,7.7s6.6,11.9,6.6,20.4v2.9H4891z M4917-2229.7v-45.3h-13v12
							c-3-4.8-6.7-8.4-11.1-10.7c-4.4-2.3-9.9-3.4-16.3-3.4c-8.1,0-14.6,2.3-19.4,6.8c-4.8,4.6-7.2,10.7-7.2,18.3
							c0,8.9,3,15.6,9,20.2c6,4.5,14.9,6.8,26.8,6.8h18.3v1.3c0,6-2,10.6-5.9,13.9c-3.9,3.3-9.5,4.9-16.6,4.9c-4.5,0-9-0.5-13.3-1.6
							c-4.3-1.1-8.4-2.7-12.4-4.9v12.1c4.8,1.8,9.4,3.2,13.9,4.1c4.5,0.9,8.9,1.4,13.1,1.4c11.5,0,20.1-3,25.7-8.9
							C4914.2-2208.6,4917-2217.6,4917-2229.7z"/>
					</g>
					<g>
						<path id="DejaVuSans-110" d="M5009.8-2227v-47.9h-13v47.5c0,7.5-1.5,13.1-4.4,16.8c-2.9,3.7-7.3,5.6-13.2,5.6
							c-7,0-12.6-2.2-16.7-6.7c-4.1-4.5-6.1-10.6-6.1-18.3v-44.8h-13.1v79.4h13.1v-12.3c3.1,4.8,6.8,8.3,11,10.7
							c4.2,2.4,9.1,3.5,14.6,3.5c9.1,0,16-2.8,20.7-8.5C5007.5-2207.8,5009.8-2216.1,5009.8-2227z"/>
					</g>
				</g>
			</g>
			<g id="line2d_19">
				<path class="st9" d="M317.4,167h17.4"/>
			</g>
			<g id="line2d_20">
			</g>
			<g id="text_17">
				<g transform="translate(72.134 29.565937)scale(0.06 -0.06)">
					<g>
						<path id="DejaVuSans-82" d="M4558.8-2291.5c3.1-1,6.1-3.3,9-6.7c2.9-3.4,5.8-8.1,8.8-14l14.5-28.9h-15.4l-13.5,27.1
							c-3.5,7.1-6.9,11.8-10.2,14.1s-7.8,3.5-13.4,3.5h-15.6v-44.7h-14.3v105.8h32.3c12.1,0,21.1-2.5,27.1-7.6
							c6-5,8.9-12.7,8.9-22.9c0-6.7-1.5-12.2-4.6-16.6C4569.2-2286.8,4564.7-2289.8,4558.8-2291.5z M4522.9-2247.1v-37.5h18
							c6.9,0,12.1,1.6,15.6,4.8c3.5,3.2,5.3,7.9,5.3,14.1s-1.8,10.8-5.3,14c-3.5,3.1-8.7,4.7-15.6,4.7H4522.9z"/>
					</g>
					<g>
						<path id="DejaVuSans-101_3_" d="M4670.2-2298.2v-6.4h-59.9c0.6-9,3.3-15.8,8.1-20.5c4.8-4.7,11.6-7.1,20.2-7.1
							c5,0,9.9,0.6,14.6,1.8s9.4,3.1,14,5.5v-12.3c-4.7-2-9.5-3.5-14.4-4.5c-4.9-1-9.9-1.6-14.9-1.6c-12.7,0-22.7,3.7-30.1,11
							c-7.4,7.4-11.1,17.4-11.1,29.9c0,13,3.5,23.3,10.5,30.9c7,7.6,16.5,11.4,28.4,11.4c10.7,0,19.1-3.4,25.3-10.3
							C4667.1-2277.1,4670.2-2286.4,4670.2-2298.2z M4657.2-2294.4c-0.1,7.1-2.1,12.8-6,17c-3.9,4.3-9.1,6.4-15.5,6.4
							c-7.3,0-13.1-2.1-17.5-6.2s-6.9-9.9-7.5-17.4L4657.2-2294.4z"/>
					</g>
					<g>
						<path id="DejaVuSans-102" d="M4731.8-2230.9v-10.9h-12.5c-4.7,0-7.9-0.9-9.7-2.8c-1.8-1.9-2.7-5.3-2.7-10.2v-7h21.5v-10.1
							h-21.5v-69.2h-13.1v69.2h-12.5v10.1h12.5v5.5c0,8.8,2.1,15.3,6.2,19.3c4.1,4.1,10.6,6.1,19.5,6.1H4731.8z"/>
					</g>
					<g>
						<path id="DejaVuSans-101_4_" d="M4810.6-2298.2v-6.4h-59.9c0.6-9,3.3-15.8,8.1-20.5c4.8-4.7,11.6-7.1,20.2-7.1
							c5,0,9.9,0.6,14.6,1.8s9.4,3.1,14,5.5v-12.3c-4.7-2-9.5-3.5-14.4-4.5c-4.9-1-9.9-1.6-14.9-1.6c-12.7,0-22.7,3.7-30.1,11
							c-7.4,7.4-11.1,17.4-11.1,29.9c0,13,3.5,23.3,10.5,30.9c7,7.6,16.5,11.4,28.4,11.4c10.7,0,19.1-3.4,25.3-10.3
							C4807.5-2277.1,4810.6-2286.4,4810.6-2298.2z M4797.5-2294.4c-0.1,7.1-2.1,12.8-6,17c-3.9,4.3-9.1,6.4-15.5,6.4
							c-7.3,0-13.1-2.1-17.5-6.2c-4.4-4.1-6.9-9.9-7.5-17.4L4797.5-2294.4z"/>
					</g>
					<g>
						<path id="DejaVuSans-114" d="M4877.9-2274c-1.5,0.8-3.1,1.5-4.8,1.9c-1.7,0.4-3.6,0.6-5.7,0.6c-7.4,0-13-2.4-17-7.2
							s-5.9-11.7-5.9-20.7v-41.8h-13.1v79.4h13.1v-12.3c2.8,4.8,6.3,8.4,10.7,10.7c4.4,2.3,9.7,3.5,16,3.5c0.9,0,1.9-0.1,3-0.2
							c1.1-0.1,2.3-0.3,3.6-0.5L4877.9-2274z"/>
					</g>
					<g>
						<path id="DejaVuSans-101_5_" d="M4956.2-2298.2v-6.4h-59.9c0.6-9,3.3-15.8,8.1-20.5c4.8-4.7,11.6-7.1,20.2-7.1
							c5,0,9.9,0.6,14.6,1.8s9.4,3.1,14,5.5v-12.3c-4.7-2-9.5-3.5-14.4-4.5c-4.9-1-9.9-1.6-14.9-1.6c-12.7,0-22.7,3.7-30.1,11
							c-7.4,7.4-11.1,17.4-11.1,29.9c0,13,3.5,23.3,10.5,30.9c7,7.6,16.5,11.4,28.4,11.4c10.7,0,19.1-3.4,25.3-10.3
							C4953.1-2277.1,4956.2-2286.4,4956.2-2298.2z M4943.2-2294.4c-0.1,7.1-2.1,12.8-6,17c-3.9,4.3-9.1,6.4-15.5,6.4
							c-7.3,0-13.1-2.1-17.5-6.2s-6.9-9.9-7.5-17.4L4943.2-2294.4z"/>
					</g>
					<g>
						<path id="DejaVuSans-110_1_" d="M5043.6-2293.2v-47.9h-13v47.5c0,7.5-1.5,13.1-4.4,16.8c-2.9,3.7-7.3,5.6-13.2,5.6
							c-7,0-12.6-2.2-16.7-6.7c-4.1-4.5-6.1-10.6-6.1-18.3v-44.8h-13.1v79.4h13.1v-12.3c3.1,4.8,6.8,8.3,11,10.7
							c4.2,2.4,9.1,3.5,14.6,3.5c9.1,0,16-2.8,20.7-8.5C5041.2-2274,5043.6-2282.3,5043.6-2293.2z"/>
					</g>
					<g>
						<path id="DejaVuSans-99_1_" d="M5126.7-2264.8v-12.2c-3.7,2-7.4,3.6-11.1,4.6s-7.4,1.5-11.2,1.5c-8.5,0-15-2.7-19.7-8
							c-4.7-5.4-7-12.9-7-22.6s2.3-17.2,7-22.6c4.7-5.4,11.3-8,19.7-8c3.8,0,7.5,0.5,11.2,1.5s7.4,2.5,11.1,4.6v-12.1
							c-3.6-1.7-7.4-3-11.3-3.8c-3.9-0.9-8-1.3-12.4-1.3c-12,0-21.5,3.8-28.5,11.3c-7,7.5-10.5,17.6-10.5,30.4
							c0,12.9,3.6,23.1,10.7,30.5c7.1,7.4,16.9,11.1,29.2,11.1c4,0,7.9-0.4,11.7-1.2C5119.4-2261.9,5123.1-2263.2,5126.7-2264.8z"/>
					</g>
					<g>
						<path id="DejaVuSans-101_6_" d="M5217.2-2298.2v-6.4h-59.9c0.6-9,3.3-15.8,8.1-20.5c4.8-4.7,11.6-7.1,20.2-7.1
							c5,0,9.9,0.6,14.6,1.8s9.4,3.1,14,5.5v-12.3c-4.7-2-9.5-3.5-14.4-4.5c-4.9-1-9.9-1.6-14.9-1.6c-12.7,0-22.7,3.7-30.1,11
							c-7.4,7.4-11.1,17.4-11.1,29.9c0,13,3.5,23.3,10.5,30.9c7,7.6,16.5,11.4,28.4,11.4c10.7,0,19.1-3.4,25.3-10.3
							C5214.1-2277.1,5217.2-2286.4,5217.2-2298.2z M5204.2-2294.4c-0.1,7.1-2.1,12.8-6,17c-3.9,4.3-9.1,6.4-15.5,6.4
							c-7.3,0-13.1-2.1-17.5-6.2s-6.9-9.9-7.5-17.4L5204.2-2294.4z"/>
					</g>
				</g>
			</g>
			<g id="line2d_21">
				<path class="st10" d="M317.4,179.8h17.4"/>
			</g>
			<g id="line2d_22">
			</g>
			<g id="text_18">
				<g transform="translate(72.134 38.372812)scale(0.06 -0.06)">
					<g>
						<path id="DejaVuSans-73" d="M4508.6-2301.5h14.3v-105.8h-14.3V-2301.5z"/>
					</g>
					<g>
						<path id="DejaVuSans-110_2_" d="M4616.8-2359.4v-47.9h-13v47.5c0,7.5-1.5,13.1-4.4,16.8c-2.9,3.7-7.3,5.6-13.2,5.6
							c-7,0-12.6-2.2-16.7-6.7c-4.1-4.5-6.1-10.6-6.1-18.3v-44.8h-13.1v79.4h13.1v-12.3c3.1,4.8,6.8,8.3,11,10.7
							c4.2,2.4,9.1,3.5,14.6,3.5c9.1,0,16-2.8,20.7-8.5C4614.5-2340.2,4616.8-2348.5,4616.8-2359.4z"/>
					</g>
					<g>
						<path id="DejaVuSans-105_2_" d="M4642.8-2328h13v-79.4h-13V-2328z M4642.8-2297.1h13v-16.5h-13V-2297.1z"/>
					</g>
					<g>
						<path id="DejaVuSans-116_2_" d="M4696-2305.4v-22.5h26.8v-10.1H4696v-43.1c0-6.5,0.9-10.6,2.7-12.5c1.8-1.8,5.4-2.8,10.8-2.8
							h13.4v-10.9h-13.4c-10.1,0-17,1.9-20.8,5.6c-3.8,3.8-5.7,10.6-5.7,20.5v43.1h-9.6v10.1h9.6v22.5H4696z"/>
					</g>
					<g>
						<path id="DejaVuSans-105_3_" d="M4740-2328h13v-79.4h-13V-2328z M4740-2297.1h13v-16.5h-13V-2297.1z"/>
					</g>
					<g>
						<path id="DejaVuSans-97_1_" d="M4816.4-2367.5c-10.5,0-17.8-1.2-21.9-3.6c-4.1-2.4-6.1-6.5-6.1-12.3c0-4.6,1.5-8.3,4.6-11
							c3.1-2.7,7.2-4.1,12.4-4.1c7.2,0,13,2.6,17.4,7.7c4.4,5.1,6.6,11.9,6.6,20.4v2.9H4816.4z M4842.4-2362.1v-45.3h-13v12
							c-3-4.8-6.7-8.4-11.1-10.7c-4.4-2.3-9.9-3.4-16.3-3.4c-8.1,0-14.6,2.3-19.4,6.8c-4.8,4.6-7.2,10.7-7.2,18.3
							c0,8.9,3,15.6,9,20.2c6,4.5,14.9,6.8,26.8,6.8h18.3v1.3c0,6-2,10.6-5.9,13.9s-9.5,4.9-16.6,4.9c-4.5,0-9-0.5-13.3-1.6
							c-4.3-1.1-8.4-2.7-12.4-4.9v12.1c4.8,1.8,9.4,3.2,13.9,4.1c4.5,0.9,8.9,1.4,13.1,1.4c11.5,0,20.1-3,25.7-8.9
							C4839.6-2341,4842.4-2350,4842.4-2362.1z"/>
					</g>
					<g>
						<path id="DejaVuSans-108_1_" d="M4869.2-2297.1h13v-110.3h-13V-2297.1z"/>
					</g>
				</g>
			</g>
			<g id="patch_8">
				<path class="st11" d="M317.4,195.6h17.4v-6.1h-17.4V195.6z"/>
			</g>
			<g id="text_19">
				<g transform="translate(72.134 47.179687)scale(0.06 -0.06)">
					<g>
						<path id="DejaVuSans-57_1_" d="M4510.3-2471.3v13c3.6-1.7,7.2-3,10.9-3.9c3.7-0.9,7.3-1.3,10.9-1.3c9.4,0,16.7,3.2,21.6,9.5
							c5,6.3,7.8,16,8.5,29c-2.7-4.1-6.2-7.2-10.4-9.4c-4.2-2.2-8.8-3.3-13.9-3.3c-10.6,0-19,3.2-25.1,9.6
							c-6.2,6.4-9.3,15.2-9.3,26.3c0,10.9,3.2,19.6,9.6,26.1c6.4,6.6,15,9.9,25.6,9.9c12.2,0,21.6-4.7,28-14.1
							c6.5-9.4,9.7-23,9.7-40.8c0-16.7-4-30-11.9-39.9c-7.9-9.9-18.5-14.9-31.9-14.9c-3.6,0-7.2,0.4-10.9,1.1
							C4518.1-2473.8,4514.3-2472.8,4510.3-2471.3z M4538.8-2426.5c6.4,0,11.5,2.2,15.3,6.6c3.8,4.4,5.6,10.4,5.6,18.1
							c0,7.6-1.9,13.6-5.6,18c-3.7,4.4-8.8,6.6-15.3,6.6c-6.4,0-11.5-2.2-15.3-6.6s-5.6-10.4-5.6-18c0-7.7,1.9-13.7,5.6-18.1
							C4527.3-2424.3,4532.4-2426.5,4538.8-2426.5z"/>
					</g>
					<g>
						<path id="DejaVuSans-53_2_" d="M4602.4-2367.7h56.2v-12.1h-43.1v-25.9c2.1,0.7,4.1,1.2,6.2,1.6c2.1,0.3,4.2,0.5,6.3,0.5
							c11.8,0,21.2-3.2,28-9.7c6.9-6.5,10.4-15.2,10.4-26.3c0-11.4-3.5-20.2-10.6-26.5c-7.1-6.3-17.1-9.5-30-9.5
							c-4.4,0-9,0.4-13.6,1.1c-4.6,0.8-9.3,1.9-14.3,3.4v14.4c4.2-2.3,8.6-4,13.2-5.2s9.3-1.7,14.4-1.7c8.2,0,14.6,2.1,19.4,6.4
							c4.8,4.3,7.2,10.1,7.2,17.5c0,7.4-2.4,13.2-7.2,17.5c-4.8,4.3-11.2,6.5-19.4,6.5c-3.8,0-7.6-0.4-11.4-1.3
							c-3.8-0.8-7.7-2.2-11.6-4V-2367.7z"/>
					</g>
					<g>
						<path id="DejaVuSans-37" d="M4784.5-2427c-4.1,0-7.3-1.7-9.7-5.2c-2.3-3.5-3.5-8.4-3.5-14.6c0-6.1,1.2-11,3.5-14.5
							c2.3-3.5,5.6-5.3,9.7-5.3c4,0,7.2,1.8,9.5,5.3c2.3,3.5,3.5,8.4,3.5,14.5c0,6.2-1.2,11-3.5,14.6
							C4791.7-2428.7,4788.5-2427,4784.5-2427z M4784.5-2418c7.5,0,13.4-2.6,17.8-7.8c4.4-5.2,6.6-12.2,6.6-21
							c0-8.8-2.2-15.8-6.6-21c-4.4-5.2-10.3-7.8-17.8-7.8c-7.6,0-13.5,2.6-17.9,7.8c-4.4,5.2-6.6,12.2-6.6,21
							c0,8.9,2.2,15.9,6.6,21.1C4771-2420.6,4777-2418,4784.5-2418z M4711.4-2374.8c-4.1,0-7.3-1.8-9.6-5.3
							c-2.3-3.5-3.5-8.3-3.5-14.5c0-6.2,1.2-11.1,3.5-14.6c2.3-3.5,5.5-5.2,9.6-5.2c4.1,0,7.3,1.7,9.7,5.2c2.3,3.5,3.5,8.4,3.5,14.6
							c0,6.1-1.2,10.9-3.5,14.4C4718.7-2376.6,4715.5-2374.8,4711.4-2374.8z M4775.4-2365.8h11.3l-66.2-109.8h-11.3L4775.4-2365.8z
							 M4711.4-2365.8c7.5,0,13.4-2.6,17.8-7.8c4.4-5.2,6.7-12.2,6.7-21c0-8.9-2.2-16-6.6-21.1c-4.4-5.2-10.4-7.7-17.9-7.7
							c-7.5,0-13.5,2.6-17.8,7.8c-4.4,5.2-6.6,12.2-6.6,21.1c0,8.8,2.2,15.8,6.6,21C4698-2368.4,4703.9-2365.8,4711.4-2365.8z"/>
					</g>
					<g>
						<path id="DejaVuSans-32_1_" d="M4816.9-2473.5"/>
					</g>
					<g>
						<path id="DejaVuSans-72" d="M4877.2-2367.7h14.3v-43.4h52v43.4h14.3v-105.8h-14.3v50.4h-52v-50.4h-14.3V-2367.7z"/>
					</g>
					<g>
						<path id="DejaVuSans-80" d="M5000.7-2379.5v-39.7h18c6.7,0,11.8,1.7,15.4,5.2c3.6,3.4,5.5,8.4,5.5,14.7
							c0,6.3-1.8,11.2-5.5,14.7c-3.6,3.4-8.8,5.2-15.4,5.2H5000.7z M4986.3-2367.7h32.3c11.9,0,20.8-2.7,26.9-8
							c6.1-5.4,9.1-13.2,9.1-23.6c0-10.4-3-18.3-9.1-23.7c-6.1-5.3-15-8-26.9-8h-18v-42.5h-14.3V-2367.7z"/>
					</g>
					<g>
						<path id="DejaVuSans-68_1_" d="M5088.2-2379.5v-82.3h17.3c14.6,0,25.3,3.3,32.1,9.9c6.8,6.6,10.2,17.1,10.2,31.3
							c0,14.2-3.4,24.5-10.2,31.1c-6.8,6.6-17.5,9.9-32.1,9.9H5088.2z M5073.8-2367.7h29.4c20.5,0,35.5-4.3,45.1-12.8
							c9.6-8.5,14.4-21.9,14.4-40c0-18.2-4.8-31.6-14.5-40.2c-9.6-8.5-24.6-12.8-45-12.8h-29.4V-2367.7z"/>
					</g>
					<g>
						<path id="DejaVuSans-32_2_" d="M5171.3-2473.5"/>
					</g>
					<g>
						<path id="DejaVuSans-73_1_" d="M5231.7-2367.7h14.3v-105.8h-14.3V-2367.7z"/>
					</g>
					<g>
						<path id="DejaVuSans-110_3_" d="M5339.9-2425.6v-47.9h-13v47.5c0,7.5-1.5,13.1-4.4,16.8c-2.9,3.7-7.3,5.6-13.2,5.6
							c-7,0-12.6-2.2-16.7-6.7c-4.1-4.5-6.1-10.6-6.1-18.3v-44.8h-13.1v79.4h13.1v-12.3c3.1,4.8,6.8,8.3,11,10.7
							c4.2,2.4,9.1,3.5,14.6,3.5c9.1,0,16-2.8,20.7-8.5C5337.6-2406.4,5339.9-2414.7,5339.9-2425.6z"/>
					</g>
					<g>
						<path id="DejaVuSans-116_3_" d="M5378.8-2371.6v-22.5h26.8v-10.1h-26.8v-43.1c0-6.5,0.9-10.6,2.7-12.5s5.4-2.8,10.8-2.8h13.4
							v-10.9h-13.4c-10.1,0-17,1.9-20.8,5.6c-3.8,3.8-5.7,10.6-5.7,20.5v43.1h-9.6v10.1h9.6v22.5H5378.8z"/>
					</g>
					<g>
						<path id="DejaVuSans-101_7_" d="M5490.7-2430.6v-6.4h-59.9c0.6-9,3.3-15.8,8.1-20.5c4.8-4.7,11.6-7.1,20.2-7.1
							c5,0,9.9,0.6,14.6,1.8c4.7,1.2,9.4,3.1,14,5.5v-12.3c-4.7-2-9.5-3.5-14.4-4.5c-4.9-1-9.9-1.6-14.9-1.6
							c-12.7,0-22.7,3.7-30.1,11c-7.4,7.4-11.1,17.4-11.1,29.9c0,13,3.5,23.3,10.5,30.9c7,7.6,16.5,11.4,28.4,11.4
							c10.7,0,19.1-3.4,25.3-10.3C5487.5-2409.5,5490.7-2418.8,5490.7-2430.6z M5477.6-2426.8c-0.1,7.1-2.1,12.8-6,17
							c-3.9,4.3-9.1,6.4-15.5,6.4c-7.3,0-13.1-2.1-17.5-6.2c-4.4-4.1-6.9-9.9-7.5-17.4L5477.6-2426.8z"/>
					</g>
					<g>
						<path id="DejaVuSans-114_1_" d="M5558-2406.4c-1.5,0.8-3.1,1.5-4.8,1.9c-1.7,0.4-3.6,0.6-5.7,0.6c-7.4,0-13-2.4-17-7.2
							s-5.9-11.7-5.9-20.7v-41.8h-13.1v79.4h13.1v-12.3c2.8,4.8,6.3,8.4,10.7,10.7c4.4,2.3,9.7,3.5,16,3.5c0.9,0,1.9-0.1,3-0.2
							c1.1-0.1,2.3-0.3,3.6-0.5L5558-2406.4z"/>
					</g>
					<g>
						<path id="DejaVuSans-118" d="M5562.4-2394.2h13.8l24.8-66.6l24.8,66.6h13.8l-29.8-79.4h-17.7L5562.4-2394.2z"/>
					</g>
					<g>
						<path id="DejaVuSans-97_2_" d="M5693.6-2433.7c-10.5,0-17.8-1.2-21.9-3.6c-4.1-2.4-6.1-6.5-6.1-12.3c0-4.6,1.5-8.3,4.6-11
							c3.1-2.7,7.2-4.1,12.4-4.1c7.2,0,13,2.6,17.4,7.7s6.6,11.9,6.6,20.4v2.9H5693.6z M5719.6-2428.3v-45.3h-13v12
							c-3-4.8-6.7-8.4-11.1-10.7c-4.4-2.3-9.9-3.4-16.3-3.4c-8.1,0-14.6,2.3-19.4,6.8c-4.8,4.6-7.2,10.7-7.2,18.3
							c0,8.9,3,15.6,9,20.2c6,4.5,14.9,6.8,26.8,6.8h18.3v1.3c0,6-2,10.6-5.9,13.9s-9.5,4.9-16.6,4.9c-4.5,0-9-0.5-13.3-1.6
							c-4.3-1.1-8.4-2.7-12.4-4.9v12.1c4.8,1.8,9.4,3.2,13.9,4.1c4.5,0.9,8.9,1.4,13.1,1.4c11.5,0,20.1-3,25.7-8.9
							C5716.8-2407.1,5719.6-2416.2,5719.6-2428.3z"/>
					</g>
					<g>
						<path id="DejaVuSans-108_2_" d="M5746.5-2363.3h13v-110.3h-13V-2363.3z"/>
					</g>
				</g>
			</g>
		</g>
	</g>
</g>
</svg>
