<?xml version="1.0" encoding="utf-8"?>
<!-- Generator: Adobe Illustrator 24.3.0, SVG Export Plug-In . SVG Version: 6.00 Build 0)  -->
<svg version="1.1" id="Layer_1" xmlns="http://www.w3.org/2000/svg" xmlns:xlink="http://www.w3.org/1999/xlink" x="0px" y="0px"
	 viewBox="0 0 432 216" style="enable-background:new 0 0 432 216;" xml:space="preserve">
<style type="text/css">
	.st0{fill:none;}
	.st1{clip-path:url(#SVGID_2_);fill:#1F77B4;fill-opacity:0.3;}
	.st2{stroke:#000000;stroke-width:0.8;stroke-linejoin:round;}
	.st3{clip-path:url(#SVGID_4_);fill:none;stroke:#1F77B4;stroke-width:0.5;stroke-linecap:square;stroke-linejoin:round;}
	.st4{clip-path:url(#SVGID_6_);fill:none;stroke:#000000;stroke-width:0.5;stroke-linecap:square;stroke-linejoin:round;}
	.st5{clip-path:url(#SVGID_8_);fill:none;stroke:#FF7F0E;stroke-width:0.5;stroke-linecap:square;stroke-linejoin:round;}
	.st6{fill:none;stroke:#000000;stroke-width:0.8;stroke-linecap:square;}
	.st7{opacity:0.8;fill:#FFFFFF;stroke:#CCCCCC;enable-background:new    ;}
	.st8{fill:none;stroke:#1F77B4;stroke-width:0.5;stroke-linecap:square;stroke-linejoin:round;}
	.st9{fill:none;stroke:#000000;stroke-width:0.5;stroke-linecap:square;stroke-linejoin:round;}
	.st10{fill:none;stroke:#FF7F0E;stroke-width:0.5;stroke-linecap:square;stroke-linejoin:round;}
	.st11{opacity:0.3;fill:#1F77B4;enable-background:new    ;}
</style>
<g id="figure_1">
	<g id="patch_1">
		<path class="st0" d="M0,216h432V0H0V216z"/>
	</g>
	<g id="axes_1">
		<g id="patch_2">
			<path class="st0" d="M49.9,174h371.3V10.8H49.9V174z"/>
		</g>
		<g id="PolyCollection_1">
			<g>
				<defs>
					<rect id="SVGID_1_" x="49.9" y="10.8" width="371.3" height="163.2"/>
				</defs>
				<clipPath id="SVGID_2_">
					<use xlink:href="#SVGID_1_"  style="overflow:visible;"/>
				</clipPath>
				<path class="st1" d="M66.8,152v2.7h0.6h0.6h0.6h0.6l0.6,3.3h0.6h0.6h0.6h0.6H73h0.6l0.6,5h0.6h0.6h0.6h0.6l0.6-1.7H78h0.6h0.6
					h0.6h0.6h0.6l0.6,0.8h0.6H83h0.6h0.6h0.6l0.6-1.9h0.6h0.6h0.6h0.6h0.6l0.6,1.9h0.6h0.6h0.6h0.6l0.6,0.7h0.6h0.6h0.6h0.6h0.6H96
					l0.6-2.6h0.6h0.6h0.6h0.6l0.6,2.6h0.6h0.6h0.6h0.6h0.6l0.6,1.5h0.6h0.6h0.6h0.6h0.6h0.6l0.6-12.4h0.6h0.6h0.6h0.6h0.6l0.6,9.8
					h0.6h0.6h0.6h0.6h0.6l0.6-1h0.6h0.6h0.6h0.6h0.6l0.6-3.7h0.6h0.6h0.6h0.6h0.6l0.6-7.9h0.6h0.6h0.6h0.6l0.6-1h0.6h0.6h0.6h0.6
					h0.6h0.6l0.6-0.4h0.6h0.6h0.6h0.6h0.6l0.6-18.9h0.6h0.6h0.6h0.6h0.6l0.6,17.4h0.6h0.6h0.6h0.6l0.6-2.2h0.6h0.6h0.6h0.6h0.6h0.6
					l0.6,11.9h0.6h0.6h0.6h0.6l0.6-15.1h0.6h0.6h0.6h0.6h0.6l0.6,3.2h0.6h0.6h0.6h0.6h0.6h0.6l0.6,2.4h0.6h0.6h0.6h0.6h0.6l0.6,5.6
					h0.6h0.6h0.6h0.6l0.6,7.5h0.6h0.6h0.6h0.6h0.6h0.6l0.6,3h0.6h0.6h0.6h0.6l0.6,3.9h0.6h0.6h0.6h0.6h0.6h0.6l0.6-8.5h0.6h0.6h0.6
					h0.6h0.6l0.6-9.5h0.6h0.6h0.6h0.6h0.6l0.6-1.6h0.6h0.6h0.6h0.6l0.6-11.7h0.6h0.6h0.6h0.6h0.6h0.6l0.6,7.7h0.6h0.6h0.6h0.6
					L193,132h0.6h0.6h0.6h0.6h0.6l0.6-18.9h0.6h0.6h0.6h0.6h0.6h0.6l0.6,3.9h0.6h0.6h0.6h0.6h0.6l0.6-2.9h0.6h0.6h0.6h0.6h0.6
					l0.6,4.4h0.6h0.6h0.6h0.6h0.6l0.6,16.2h0.6h0.6h0.6h0.6h0.6l0.6-12.6h0.6h0.6h0.6h0.6l0.6-22.2h0.6h0.6h0.6h0.6h0.6h0.6
					l0.6,20.8h0.6h0.6h0.6h0.6h0.6l0.6-3.6h0.6h0.6h0.6h0.6h0.6l0.6-5.9h0.6h0.6h0.6h0.6l0.6-19h0.6h0.6h0.6h0.6l0.6,40.7h0.6h0.6
					h0.6h0.6l0.6-0.8h0.6h0.6h0.6h0.6l0.6-23.8h0.6h0.6h0.6h0.6l0.6,12.8h0.6h0.6h0.6h0.6l0.6-2.5h0.6h0.6h0.6h0.6l0.6,7.6h0.6h0.6
					h0.6h0.6l0.6,11h0.6h0.6h0.6h0.6l0.6-0.5h0.6h0.6h0.6h0.6l0.6,15.2h0.6h0.6h0.6h0.6l0.6-24.7h0.6h0.6h0.6h0.6l0.6,1.9h0.6h0.6
					h0.6h0.6l0.6,5.5h0.6h0.6h0.6h0.6l0.6,15.7h0.6h0.6h0.6h0.6l0.6-31.9h0.6h0.6h0.6h0.6l0.6-0.9h0.6h0.6h0.6h0.6l0.6-12.8h0.6h0.6
					h0.6h0.6l0.6,17h0.6h0.6h0.6h0.6l0.6,7h0.6h0.6h0.6h0.6l0.6-28.2h0.6h0.6h0.6h0.6l0.6,40h0.6h0.6h0.6h0.6l0.6-15.5h0.6h0.6h0.6
					h0.6l0.6-2.3h0.6h0.6h0.6h0.6l0.6,4.5h0.6h0.6h0.6h0.6l0.6-3.4h0.6h0.6h0.6h0.6l0.6-32.7h0.6h0.6h0.6h0.6l0.6,25.2h0.6h0.6h0.6
					h0.6l0.6-3.3h0.6h0.6h0.6h0.6l0.6-13h0.6h0.6h0.6h0.6l0.6,5.9h0.6h0.6h0.6h0.6l0.6-4.9h0.6h0.6h0.6h0.6l0.6,13.9h0.6h0.6h0.6
					h0.6l0.6-29.4h0.6h0.6h0.6h0.6l0.6,34.1h0.6h0.6h0.6h0.6l0.6,20.8h0.6h0.6h0.6h0.6l0.6-11.3h0.6h0.6h0.6h0.6l0.6-13.2h0.6h0.6
					h0.6h0.6l0.6,2.5h0.6h0.6h0.6h0.6l0.6-4.7h0.6h0.6h0.6h0.6l0.6,12.5h0.6h0.6h0.6h0.6l0.6-4.2h0.6h0.6h0.6h0.6l0.6,7.8h0.6h0.6
					h0.6h0.6l0.6-8.6h0.6h0.6h0.6h0.6l0.6,9.2h0.6h0.6h0.6h0.6l0.6-0.1h0.6h0.6h0.6h0.6l0.6-38.7h0.6h0.6h0.6h0.6l0.6,43.3h0.6h0.6
					h0.6h0.6l0.6-14.5h0.6h0.6h0.6h0.6l0.6-20.8h0.6h0.6h0.6h0.6l0.6,7.8h0.6h0.6h0.6h0.6l0.6-6.6h0.6h0.6h0.6h0.6l0.6-16.8h0.6h0.6
					h0.6h0.6l0.6,11.6h0.6h0.6h0.6h0.6l0.6,8.7h0.6h0.6h0.6h0.6l0.6-39.1h0.6h0.6h0.6h0.6V40.6l0,0h-0.6h-0.6h-0.6h-0.6l-0.6-22.4
					h-0.6H400h-0.6h-0.6l-0.6,0h-0.6h-0.6h-0.6h-0.6l-0.6,0h-0.6h-0.6h-0.6h-0.6l-0.6,0h-0.6h-0.6H390h-0.6l-0.6,0h-0.6h-0.6h-0.6
					h-0.6l-0.6,0h-0.6h-0.6h-0.6h-0.6l-0.6,0h-0.6h-0.6h-0.6h-0.6l-0.6,0h-0.6h-0.6h-0.6H377l-0.6,0h-0.6h-0.6h-0.6h-0.6l-0.6,0
					h-0.6H372h-0.6h-0.6l-0.6,18.3h-0.6h-0.6h-0.6h-0.6L367,18.2h-0.6h-0.6h-0.6h-0.6l-0.6,0h-0.6h-0.6h-0.6h-0.6l-0.6,0h-0.6h-0.6
					h-0.6h-0.6l-0.6,0h-0.6h-0.6h-0.6h-0.6l-0.6,0H354h-0.6h-0.6h-0.6l-0.6,0h-0.6h-0.6h-0.6H349l-0.6,0h-0.6h-0.6h-0.6h-0.6l-0.6,0
					h-0.6H344h-0.6h-0.6l-0.6,0h-0.6h-0.6h-0.6h-0.6l-0.6,0h-0.6h-0.6h-0.6h-0.6l-0.6,0h-0.6h-0.6h-0.6h-0.6l-0.6,0h-0.6h-0.6H331
					h-0.6l-0.6,0h-0.6h-0.6h-0.6h-0.6l-0.6,0H326h-0.6h-0.6h-0.6l-0.6,0h-0.6h-0.6h-0.6H321l-0.6,0h-0.6h-0.6h-0.6h-0.6l-0.6,0h-0.6
					h-0.6h-0.6h-0.6l-0.6,0h-0.6H313h-0.6h-0.6l-0.6,0h-0.6h-0.6h-0.6h-0.6l-0.6,0h-0.6h-0.6h-0.6h-0.6l-0.6,0h-0.6h-0.6H303h-0.6
					l-0.6,0h-0.6h-0.6h-0.6h-0.6l-0.6,0H298h-0.6h-0.6h-0.6l-0.6,0h-0.6h-0.6h-0.6h-0.6l-0.6,0h-0.6h-0.6h-0.6H290l-0.6,0h-0.6h-0.6
					h-0.6h-0.6l-0.6,0h-0.6H285h-0.6h-0.6l-0.6,0h-0.6h-0.6h-0.6h-0.6l-0.6,0h-0.6h-0.6h-0.6h-0.6l-0.6,83.4h-0.6h-0.6H275h-0.6
					l-0.6-83.4h-0.6h-0.6h-0.6h-0.6l-0.6,0h-0.6h-0.6h-0.6h-0.6l-0.6,0H267h-0.6h-0.6h-0.6l-0.6,20.2h-0.6h-0.6h-0.6H262l-0.6-20.2
					h-0.6h-0.6h-0.6h-0.6l-0.6,36h-0.6H257h-0.6h-0.6l-0.6-36h-0.6h-0.6h-0.6h-0.6l-0.6,0h-0.6h-0.6h-0.6h-0.6l-0.6,0h-0.6h-0.6
					h-0.6h-0.6l-0.6,0h-0.6h-0.6H244h-0.6l-0.6,0h-0.6h-0.6h-0.6h-0.6l-0.6,35H239h-0.6h-0.6h-0.6l-0.6-35h-0.6h-0.6h-0.6H234
					l-0.6,0h-0.6h-0.6h-0.6h-0.6l-0.6,0h-0.6H229h-0.6h-0.6h-0.6l-0.6,0h-0.6h-0.6h-0.6h-0.6h-0.6l-0.6,0h-0.6h-0.6H221h-0.6h-0.6
					h-0.6l-0.6,0h-0.6h-0.6h-0.6H216l-0.6,0h-0.6h-0.6h-0.6h-0.6h-0.6l-0.6,0H211h-0.6h-0.6h-0.6h-0.6l-0.6,0h-0.6h-0.6H206h-0.6
					h-0.6l-0.6,0h-0.6h-0.6h-0.6h-0.6h-0.6l-0.6,0h-0.6h-0.6h-0.6H198h-0.6h-0.6l-0.6,0h-0.6h-0.6h-0.6h-0.6H193l-0.6,0h-0.6h-0.6
					h-0.6h-0.6l-0.6,0h-0.6H188h-0.6h-0.6h-0.6h-0.6l-0.6,27.2h-0.6h-0.6H183h-0.6l-0.6-19h-0.6h-0.6h-0.6h-0.6h-0.6l-0.6,85h-0.6
					h-0.6h-0.6h-0.6H175l-0.6,35.7h-0.6h-0.6h-0.6h-0.6h-0.6h-0.6l-0.6-129h-0.6h-0.6h-0.6h-0.6l-0.6,107.5h-0.6h-0.6H165h-0.6h-0.6
					h-0.6l-0.6-9.7h-0.6h-0.6h-0.6H160l-0.6-14.5h-0.6h-0.6h-0.6h-0.6h-0.6l-0.6-83.3h-0.6h-0.6h-0.6h-0.6h-0.6H152l-0.6,7.5h-0.6
					h-0.6h-0.6h-0.6h-0.6l-0.6,63.9H147h-0.6h-0.6h-0.6l-0.6,6.3h-0.6h-0.6h-0.6H142h-0.6h-0.6l-0.6-23.5h-0.6h-0.6h-0.6h-0.6
					L137,18.2h-0.6h-0.6h-0.6h-0.6h-0.6l-0.6,56.3h-0.6h-0.6h-0.6h-0.6h-0.6l-0.6,34H129h-0.6h-0.6h-0.6h-0.6h-0.6L125.2,93h-0.6
					H124h-0.6h-0.6l-0.6,29.4h-0.6h-0.6h-0.6h-0.6H119l-0.6,21.1h-0.6h-0.6h-0.6h-0.6h-0.6l-0.6,6.7H114h-0.6h-0.6h-0.6h-0.6
					l-0.6-36h-0.6h-0.6h-0.6h-0.6h-0.6l-0.6,30h-0.6H106h-0.6h-0.6h-0.6h-0.6l-0.6-14.8h-0.6h-0.6H101h-0.6h-0.6l-0.6-26.5h-0.6
					h-0.6h-0.6h-0.6L96,144.4h-0.6h-0.6h-0.6h-0.6h-0.6h-0.6l-0.6-10.3h-0.6h-0.6h-0.6h-0.6l-0.6-8.9h-0.6h-0.6h-0.6h-0.6h-0.6
					l-0.6,12.9h-0.6h-0.6H83h-0.6h-0.6l-0.6,8.6h-0.6h-0.6h-0.6h-0.6H78h-0.6l-0.6-13.3h-0.6h-0.6h-0.6h-0.6l-0.6-1.1H73h-0.6h-0.6
					h-0.6h-0.6h-0.6L69.3,152h-0.6h-0.6h-0.6H66.8z"/>
			</g>
		</g>
		<g id="matplotlib.axis_1">
			<g id="xtick_2">
				<g id="line2d_2">
					<g>
						<g>
							<path id="mcd64586c97_1_" class="st2" d="M128.9,174v3.5"/>
						</g>
					</g>
				</g>
				<g id="text_2">
					<g transform="translate(120.90128 188.638438)scale(0.1 -0.1)">
						<g>
							<path id="DejaVuSans-48_2_" d="M31.8,66.4c-5.1,0-8.9-2.5-11.5-7.5c-2.6-5-3.8-12.5-3.8-22.5c0-10,1.3-17.5,3.8-22.5
								c2.6-5,6.4-7.5,11.5-7.5c5.1,0,8.9,2.5,11.5,7.5c2.6,5,3.8,12.5,3.8,22.5c0,10-1.3,17.5-3.8,22.5
								C40.7,63.9,36.9,66.4,31.8,66.4z M31.8,74.2c8.2,0,14.4-3.2,18.7-9.7c4.3-6.5,6.5-15.8,6.5-28.1c0-12.3-2.2-21.6-6.5-28.1
								C46.2,1.8,40-1.4,31.8-1.4c-8.2,0-14.4,3.2-18.7,9.7c-4.3,6.5-6.5,15.8-6.5,28.1c0,12.3,2.2,21.7,6.5,28.1
								C17.4,71,23.6,74.2,31.8,74.2z"/>
						</g>
						<g>
							<path id="DejaVuSans-46_1_" d="M74.3,12.4h10.3V0H74.3V12.4z"/>
						</g>
						<g>
							<path id="DejaVuSans-49" d="M107.8,8.3h16.1v55.6l-17.5-3.5v9l17.4,3.5h9.9V8.3h16.1V0h-42V8.3z"/>
						</g>
					</g>
				</g>
			</g>
			<g id="xtick_3">
				<g id="line2d_3">
					<g>
						<g>
							<path id="mcd64586c97_2_" class="st2" d="M190.9,174v3.5"/>
						</g>
					</g>
				</g>
				<g id="text_3">
					<g transform="translate(182.944395 188.638438)scale(0.1 -0.1)">
						<g>
							<path id="DejaVuSans-48_3_" d="M31.8,66.4c-5.1,0-8.9-2.5-11.5-7.5c-2.6-5-3.8-12.5-3.8-22.5c0-10,1.3-17.5,3.8-22.5
								c2.6-5,6.4-7.5,11.5-7.5c5.1,0,8.9,2.5,11.5,7.5c2.6,5,3.8,12.5,3.8,22.5c0,10-1.3,17.5-3.8,22.5
								C40.7,63.9,36.9,66.4,31.8,66.4z M31.8,74.2c8.2,0,14.4-3.2,18.7-9.7c4.3-6.5,6.5-15.8,6.5-28.1c0-12.3-2.2-21.6-6.5-28.1
								C46.2,1.8,40-1.4,31.8-1.4c-8.2,0-14.4,3.2-18.7,9.7c-4.3,6.5-6.5,15.8-6.5,28.1c0,12.3,2.2,21.7,6.5,28.1
								C17.4,71,23.6,74.2,31.8,74.2z"/>
						</g>
						<g>
							<path id="DejaVuSans-46_2_" d="M74.3,12.4h10.3V0H74.3V12.4z"/>
						</g>
						<g>
							<path id="DejaVuSans-50" d="M114.6,8.3H149V0h-46.3v8.3c3.7,3.9,8.8,9.1,15.3,15.6c6.5,6.5,10.5,10.7,12.2,12.6
								c3.2,3.5,5.4,6.5,6.6,9c1.3,2.5,1.9,4.9,1.9,7.3c0,3.9-1.4,7-4.1,9.5c-2.7,2.4-6.3,3.7-10.6,3.7c-3.1,0-6.4-0.5-9.8-1.6
								c-3.4-1.1-7.1-2.7-11-4.9v10c4,1.6,7.7,2.8,11.1,3.6c3.5,0.8,6.6,1.2,9.5,1.2c7.6,0,13.6-1.9,18.1-5.7
								c4.5-3.8,6.7-8.8,6.7-15.1c0-3-0.6-5.8-1.7-8.5c-1.1-2.7-3.2-5.8-6.1-9.5c-0.8-0.9-3.4-3.7-7.8-8.2
								C128.7,22.7,122.5,16.4,114.6,8.3z"/>
						</g>
					</g>
				</g>
			</g>
			<g id="xtick_4">
				<g id="line2d_4">
					<g>
						<g>
							<path id="mcd64586c97_3_" class="st2" d="M252.9,174v3.5"/>
						</g>
					</g>
				</g>
				<g id="text_4">
					<g transform="translate(244.98751 188.638438)scale(0.1 -0.1)">
						<g>
							<path id="DejaVuSans-48_4_" d="M31.8,66.4c-5.1,0-8.9-2.5-11.5-7.5c-2.6-5-3.8-12.5-3.8-22.5c0-10,1.3-17.5,3.8-22.5
								c2.6-5,6.4-7.5,11.5-7.5c5.1,0,8.9,2.5,11.5,7.5c2.6,5,3.8,12.5,3.8,22.5c0,10-1.3,17.5-3.8,22.5
								C40.7,63.9,36.9,66.4,31.8,66.4z M31.8,74.2c8.2,0,14.4-3.2,18.7-9.7c4.3-6.5,6.5-15.8,6.5-28.1c0-12.3-2.2-21.6-6.5-28.1
								C46.2,1.8,40-1.4,31.8-1.4c-8.2,0-14.4,3.2-18.7,9.7c-4.3,6.5-6.5,15.8-6.5,28.1c0,12.3,2.2,21.7,6.5,28.1
								C17.4,71,23.6,74.2,31.8,74.2z"/>
						</g>
						<g>
							<path id="DejaVuSans-46_3_" d="M74.3,12.4h10.3V0H74.3V12.4z"/>
						</g>
						<g>
							<path id="DejaVuSans-51" d="M136,39.3c4.7-1,8.4-3.1,11-6.3c2.7-3.2,4-7.1,4-11.8c0-7.2-2.5-12.8-7.4-16.7
								c-4.9-3.9-12-5.9-21.1-5.9c-3.1,0-6.2,0.3-9.4,0.9c-3.2,0.6-6.6,1.5-10,2.7v9.5c2.7-1.6,5.7-2.8,9-3.6
								c3.3-0.8,6.7-1.2,10.2-1.2c6.2,0,10.9,1.2,14.1,3.7s4.9,6,4.9,10.6c0,4.3-1.5,7.7-4.5,10.1c-3,2.4-7.2,3.6-12.6,3.6h-8.5V43
								h8.9c4.8,0,8.6,1,11.1,2.9s3.9,4.7,3.9,8.4c0,3.7-1.3,6.6-4,8.6c-2.6,2-6.4,3-11.4,3c-2.7,0-5.6-0.3-8.7-0.9
								c-3.1-0.6-6.5-1.5-10.2-2.7v8.8c3.8,1,7.3,1.8,10.5,2.3c3.3,0.5,6.4,0.8,9.3,0.8c7.5,0,13.4-1.7,17.8-5.1
								c4.4-3.4,6.5-8,6.5-13.8c0-4-1.2-7.5-3.5-10.2S140.2,40.4,136,39.3z"/>
						</g>
					</g>
				</g>
			</g>
			<g id="xtick_5">
				<g id="line2d_5">
					<g>
						<g>
							<path id="mcd64586c97_4_" class="st2" d="M315,174v3.5"/>
						</g>
					</g>
				</g>
				<g id="text_5">
					<g transform="translate(307.030625 188.638438)scale(0.1 -0.1)">
						<g>
							<path id="DejaVuSans-48_5_" d="M31.8,66.4c-5.1,0-8.9-2.5-11.5-7.5c-2.6-5-3.8-12.5-3.8-22.5c0-10,1.3-17.5,3.8-22.5
								c2.6-5,6.4-7.5,11.5-7.5c5.1,0,8.9,2.5,11.5,7.5c2.6,5,3.8,12.5,3.8,22.5c0,10-1.3,17.5-3.8,22.5
								C40.7,63.9,36.9,66.4,31.8,66.4z M31.8,74.2c8.2,0,14.4-3.2,18.7-9.7c4.3-6.5,6.5-15.8,6.5-28.1c0-12.3-2.2-21.6-6.5-28.1
								C46.2,1.8,40-1.4,31.8-1.4c-8.2,0-14.4,3.2-18.7,9.7c-4.3,6.5-6.5,15.8-6.5,28.1c0,12.3,2.2,21.7,6.5,28.1
								C17.4,71,23.6,74.2,31.8,74.2z"/>
						</g>
						<g>
							<path id="DejaVuSans-46_4_" d="M74.3,12.4h10.3V0H74.3V12.4z"/>
						</g>
						<g>
							<path id="DejaVuSans-52" d="M133.2,64.3l-24.9-38.9h24.9V64.3z M130.6,72.9H143V25.4h10.4v-8.2H143V0h-9.8v17.2h-32.9v9.5
								L130.6,72.9z"/>
						</g>
					</g>
				</g>
			</g>
			<g id="xtick_6">
				<g id="line2d_6">
					<g>
						<g>
							<path id="mcd64586c97_5_" class="st2" d="M377,174v3.5"/>
						</g>
					</g>
				</g>
				<g id="text_6">
					<g transform="translate(369.07374 188.638438)scale(0.1 -0.1)">
						<g>
							<path id="DejaVuSans-48_6_" d="M31.8,66.4c-5.1,0-8.9-2.5-11.5-7.5c-2.6-5-3.8-12.5-3.8-22.5c0-10,1.3-17.5,3.8-22.5
								c2.6-5,6.4-7.5,11.5-7.5c5.1,0,8.9,2.5,11.5,7.5c2.6,5,3.8,12.5,3.8,22.5c0,10-1.3,17.5-3.8,22.5
								C40.7,63.9,36.9,66.4,31.8,66.4z M31.8,74.2c8.2,0,14.4-3.2,18.7-9.7c4.3-6.5,6.5-15.8,6.5-28.1c0-12.3-2.2-21.6-6.5-28.1
								C46.2,1.8,40-1.4,31.8-1.4c-8.2,0-14.4,3.2-18.7,9.7c-4.3,6.5-6.5,15.8-6.5,28.1c0,12.3,2.2,21.7,6.5,28.1
								C17.4,71,23.6,74.2,31.8,74.2z"/>
						</g>
						<g>
							<path id="DejaVuSans-46_5_" d="M74.3,12.4h10.3V0H74.3V12.4z"/>
						</g>
						<g>
							<path id="DejaVuSans-53" d="M106.2,72.9h38.7v-8.3h-29.7V46.7c1.4,0.5,2.9,0.9,4.3,1.1c1.4,0.2,2.9,0.4,4.3,0.4
								c8.1,0,14.6-2.2,19.3-6.7c4.8-4.5,7.1-10.5,7.1-18.1c0-7.8-2.4-13.9-7.3-18.3c-4.9-4.3-11.8-6.5-20.7-6.5
								c-3.1,0-6.2,0.3-9.4,0.8c-3.2,0.5-6.4,1.3-9.8,2.3v9.9c2.9-1.6,6-2.8,9.1-3.6s6.4-1.2,9.9-1.2c5.6,0,10.1,1.5,13.4,4.4
								c3.3,3,4.9,7,4.9,12.1c0,5.1-1.6,9.1-4.9,12c-3.3,3-7.7,4.5-13.4,4.5c-2.6,0-5.3-0.3-7.9-0.9c-2.6-0.6-5.3-1.5-8-2.7V72.9z"
								/>
						</g>
					</g>
				</g>
			</g>
			<g id="text_7">
				<g transform="translate(207.081063 202.316563)scale(0.1 -0.1)">
					<g>
						<path id="DejaVuSans-68" d="M19.7,64.8V8.1h11.9c10.1,0,17.4,2.3,22.1,6.8c4.7,4.6,7,11.8,7,21.6c0,9.8-2.3,16.9-7,21.5
							s-12,6.8-22.1,6.8H19.7z M9.8,72.9h20.3c14.1,0,24.5-2.9,31.1-8.8c6.6-5.9,9.9-15.1,9.9-27.6c0-12.6-3.3-21.8-10-27.7
							c-6.6-5.9-17-8.8-31-8.8H9.8V72.9z"/>
					</g>
					<g>
						<path id="DejaVuSans-101" d="M133.2,29.6v-4.4H91.9c0.4-6.2,2.3-10.9,5.6-14.1s8-4.9,13.9-4.9c3.4,0,6.8,0.4,10,1.3
							c3.2,0.8,6.5,2.1,9.7,3.8V2.8c-3.2-1.4-6.5-2.4-9.9-3.1c-3.4-0.7-6.8-1.1-10.3-1.1c-8.7,0-15.6,2.5-20.7,7.6
							c-5.1,5.1-7.6,12-7.6,20.6c0,8.9,2.4,16,7.3,21.3c4.8,5.3,11.4,7.9,19.6,7.9c7.4,0,13.2-2.4,17.5-7.1
							C131.1,44.2,133.2,37.7,133.2,29.6z M124.2,32.2c-0.1,4.9-1.4,8.8-4.1,11.8c-2.7,2.9-6.2,4.4-10.7,4.4c-5,0-9-1.4-12-4.3
							s-4.7-6.8-5.2-12L124.2,32.2z"/>
					</g>
					<g>
						<path id="DejaVuSans-112" d="M156.6,8.2v-29h-9v75.5h9v-8.3c1.9,3.3,4.3,5.7,7.2,7.2c2.9,1.6,6.3,2.4,10.3,2.4
							c6.6,0,12-2.6,16.2-7.9c4.2-5.3,6.2-12.2,6.2-20.8s-2.1-15.5-6.2-20.8c-4.1-5.3-9.5-7.9-16.2-7.9c-4,0-7.4,0.8-10.3,2.4
							C160.9,2.5,158.5,5,156.6,8.2z M187.2,27.3c0,6.6-1.4,11.8-4.1,15.5s-6.5,5.6-11.2,5.6c-4.8,0-8.5-1.9-11.2-5.6
							s-4.1-8.9-4.1-15.5s1.4-11.8,4.1-15.5s6.5-5.6,11.2-5.6c4.8,0,8.5,1.9,11.2,5.6S187.2,20.7,187.2,27.3z"/>
					</g>
					<g>
						<path id="DejaVuSans-116" d="M220.3,70.2V54.7h18.5v-7h-18.5V18c0-4.5,0.6-7.3,1.8-8.6s3.7-1.9,7.5-1.9h9.2V0h-9.2
							c-6.9,0-11.7,1.3-14.4,3.9c-2.6,2.6-4,7.3-4,14.1v29.7h-6.6v7h6.6v15.5H220.3z"/>
					</g>
					<g>
						<path id="DejaVuSans-104" d="M296.1,33V0h-9v32.7c0,5.2-1,9-3,11.6c-2,2.6-5,3.9-9.1,3.9c-4.9,0-8.7-1.5-11.5-4.6
							c-2.8-3.1-4.2-7.3-4.2-12.6V0h-9v76h9V46.2c2.2,3.3,4.7,5.8,7.6,7.4c2.9,1.6,6.3,2.4,10.1,2.4c6.3,0,11-1.9,14.3-5.8
							C294.5,46.3,296.1,40.6,296.1,33z"/>
					</g>
					<g>
						<path id="DejaVuSans-32" d="M304.6,0"/>
					</g>
					<g>
						<path id="DejaVuSans-40" d="M367.4,75.9c-4.4-7.5-7.6-14.9-9.7-22.2c-2.1-7.3-3.2-14.7-3.2-22.3c0-7.5,1.1-15,3.2-22.3
							s5.4-14.8,9.7-22.3h-7.8c-4.9,7.7-8.5,15.2-11,22.6s-3.6,14.7-3.6,22c0,7.3,1.2,14.6,3.6,21.9c2.4,7.4,6.1,14.9,11,22.6H367.4
							z"/>
					</g>
					<g>
						<path id="DejaVuSans-107" d="M384.5,76h9V31.1l26.8,23.6h11.5l-29-25.6L433,0h-11.7l-27.8,26.7V0h-9V76z"/>
					</g>
					<g>
						<path id="DejaVuSans-109" d="M485.3,44.2c2.3,4,4.9,7,8.1,8.9s6.8,2.9,11,2.9c5.7,0,10.1-2,13.2-6c3.1-4,4.6-9.6,4.6-17V0h-9
							v32.7c0,5.2-0.9,9.1-2.8,11.7c-1.9,2.5-4.7,3.8-8.5,3.8c-4.7,0-8.3-1.5-11-4.6c-2.7-3.1-4-7.3-4-12.6V0h-9v32.7
							c0,5.3-0.9,9.2-2.8,11.7c-1.9,2.5-4.7,3.8-8.6,3.8c-4.6,0-8.2-1.6-11-4.7c-2.7-3.1-4-7.3-4-12.6V0h-9v54.7h9v-8.5
							c2.1,3.4,4.5,5.8,7.4,7.4c2.9,1.6,6.3,2.4,10.2,2.4c4,0,7.4-1,10.1-3C481.9,51,484,48,485.3,44.2z"/>
					</g>
					<g>
						<path id="DejaVuSans-41" d="M538.7,75.9h7.8c4.9-7.7,8.5-15.2,11-22.6c2.4-7.4,3.6-14.7,3.6-21.9c0-7.3-1.2-14.6-3.6-22
							s-6.1-14.9-11-22.6h-7.8c4.3,7.5,7.6,14.9,9.7,22.3s3.2,14.8,3.2,22.3c0,7.5-1.1,14.9-3.2,22.3
							C546.3,61,543.1,68.4,538.7,75.9z"/>
					</g>
				</g>
			</g>
		</g>
		<g id="matplotlib.axis_2">
			<g id="ytick_1">
				<g id="line2d_7">
					<g>
						<g>
							<path id="m8a3103171c" class="st2" d="M49.9,152.9h-3.5"/>
						</g>
					</g>
				</g>
				<g id="text_8">
					<g transform="translate(36.5715 156.659796)scale(0.1 -0.1)">
						<g>
							<path id="DejaVuSans-51_1_" d="M40.6,39.3c4.7-1,8.4-3.1,11-6.3c2.7-3.2,4-7.1,4-11.8c0-7.2-2.5-12.8-7.4-16.7
								c-4.9-3.9-12-5.9-21.1-5.9c-3.1,0-6.2,0.3-9.4,0.9S11.1,1,7.6,2.2v9.5c2.7-1.6,5.7-2.8,9-3.6c3.3-0.8,6.7-1.2,10.2-1.2
								c6.2,0,10.9,1.2,14.1,3.7s4.9,6,4.9,10.6c0,4.3-1.5,7.7-4.5,10.1c-3,2.4-7.2,3.6-12.6,3.6h-8.5V43h8.9c4.8,0,8.6,1,11.1,2.9
								s3.9,4.7,3.9,8.4c0,3.7-1.3,6.6-4,8.6c-2.6,2-6.4,3-11.4,3c-2.7,0-5.6-0.3-8.7-0.9c-3.1-0.6-6.5-1.5-10.2-2.7v8.8
								c3.8,1,7.3,1.8,10.5,2.3s6.4,0.8,9.3,0.8c7.5,0,13.4-1.7,17.8-5.1c4.4-3.4,6.5-8,6.5-13.8c0-4-1.2-7.5-3.5-10.2
								S44.8,40.4,40.6,39.3z"/>
						</g>
					</g>
				</g>
			</g>
			<g id="ytick_2">
				<g id="line2d_8">
					<g>
						<g>
							<path id="m8a3103171c_1_" class="st2" d="M49.9,130.4h-3.5"/>
						</g>
					</g>
				</g>
				<g id="text_9">
					<g transform="translate(36.5715 134.219695)scale(0.1 -0.1)">
						<g>
							<path id="DejaVuSans-52_1_" d="M37.8,64.3L12.9,25.4h24.9V64.3z M35.2,72.9h12.4V25.4H58v-8.2H47.6V0h-9.8v17.2H4.9v9.5
								L35.2,72.9z"/>
						</g>
					</g>
				</g>
			</g>
			<g id="ytick_3">
				<g id="line2d_9">
					<g>
						<g>
							<path id="m8a3103171c_2_" class="st2" d="M49.9,108h-3.5"/>
						</g>
					</g>
				</g>
				<g id="text_10">
					<g transform="translate(36.5715 111.779593)scale(0.1 -0.1)">
						<g>
							<path id="DejaVuSans-53_1_" d="M10.8,72.9h38.7v-8.3H19.8V46.7c1.4,0.5,2.9,0.9,4.3,1.1c1.4,0.2,2.9,0.4,4.3,0.4
								c8.1,0,14.6-2.2,19.3-6.7c4.8-4.5,7.1-10.5,7.1-18.1c0-7.8-2.4-13.9-7.3-18.3c-4.9-4.3-11.8-6.5-20.7-6.5
								c-3.1,0-6.2,0.3-9.4,0.8c-3.2,0.5-6.4,1.3-9.8,2.3v9.9c2.9-1.6,6-2.8,9.1-3.6s6.4-1.2,9.9-1.2c5.6,0,10.1,1.5,13.4,4.4
								c3.3,3,4.9,7,4.9,12.1c0,5.1-1.6,9.1-4.9,12c-3.3,3-7.7,4.5-13.4,4.5c-2.6,0-5.3-0.3-7.9-0.9c-2.6-0.6-5.3-1.5-8-2.7V72.9z"
								/>
						</g>
					</g>
				</g>
			</g>
			<g id="ytick_4">
				<g id="line2d_10">
					<g>
						<g>
							<path id="m8a3103171c_3_" class="st2" d="M49.9,85.5h-3.5"/>
						</g>
					</g>
				</g>
				<g id="text_11">
					<g transform="translate(36.5715 89.339492)scale(0.1 -0.1)">
						<g>
							<path id="DejaVuSans-54" d="M33,40.4c-4.4,0-7.9-1.5-10.5-4.5c-2.6-3-3.9-7.2-3.9-12.4c0-5.2,1.3-9.4,3.9-12.4
								c2.6-3,6.1-4.6,10.5-4.6s7.9,1.5,10.5,4.6c2.6,3.1,3.9,7.2,3.9,12.4c0,5.3-1.3,9.4-3.9,12.4C40.9,38.9,37.4,40.4,33,40.4z
								 M52.6,71.3v-9c-2.5,1.2-5,2.1-7.5,2.7c-2.5,0.6-5,0.9-7.5,0.9c-6.5,0-11.5-2.2-14.9-6.6c-3.4-4.4-5.4-11-5.9-19.9
								c1.9,2.8,4.3,5,7.2,6.5c2.9,1.5,6.1,2.3,9.6,2.3c7.3,0,13.1-2.2,17.4-6.7c4.3-4.4,6.4-10.5,6.4-18.1c0-7.5-2.2-13.5-6.6-18
								C46.3,0.8,40.4-1.4,33-1.4c-8.4,0-14.9,3.2-19.3,9.7C9.2,14.7,7,24.1,7,36.4c0,11.5,2.7,20.7,8.2,27.6
								c5.5,6.9,12.8,10.3,22,10.3c2.5,0,5-0.2,7.5-0.7S49.9,72.3,52.6,71.3z"/>
						</g>
					</g>
				</g>
			</g>
			<g id="ytick_5">
				<g id="line2d_11">
					<g>
						<g>
							<path id="m8a3103171c_4_" class="st2" d="M49.9,63.1h-3.5"/>
						</g>
					</g>
				</g>
				<g id="text_12">
					<g transform="translate(36.5715 66.89939)scale(0.1 -0.1)">
						<g>
							<path id="DejaVuSans-55" d="M8.2,72.9h46.9v-4.2L28.6,0H18.3l24.9,64.6h-35V72.9z"/>
						</g>
					</g>
				</g>
			</g>
			<g id="ytick_6">
				<g id="line2d_12">
					<g>
						<g>
							<path id="m8a3103171c_5_" class="st2" d="M49.9,40.7h-3.5"/>
						</g>
					</g>
				</g>
				<g id="text_13">
					<g transform="translate(36.5715 44.459289)scale(0.1 -0.1)">
						<g>
							<path id="DejaVuSans-56" d="M31.8,34.6c-4.7,0-8.4-1.3-11.1-3.8c-2.7-2.5-4-6-4-10.3c0-4.4,1.3-7.8,4-10.4
								c2.7-2.5,6.4-3.8,11.1-3.8s8.4,1.3,11.1,3.8c2.7,2.5,4.1,6,4.1,10.3c0,4.4-1.3,7.8-4,10.3C40.2,33.4,36.5,34.6,31.8,34.6z
								 M21.9,38.8c-4.2,1-7.5,3-9.9,5.9c-2.4,2.9-3.5,6.4-3.5,10.6c0,5.8,2.1,10.4,6.2,13.8c4.2,3.4,9.8,5.1,17.1,5.1
								c7.3,0,13-1.7,17.1-5.1s6.2-8,6.2-13.8c0-4.2-1.2-7.7-3.5-10.6c-2.4-2.9-5.6-4.9-9.8-5.9c4.8-1.1,8.4-3.3,11.1-6.5
								c2.7-3.2,4-7.2,4-11.8c0-7.1-2.2-12.5-6.5-16.3C46,0.5,39.8-1.4,31.8-1.4c-8,0-14.2,1.9-18.5,5.7C8.9,8,6.8,13.4,6.8,20.5
								c0,4.6,1.3,8.6,4,11.8C13.5,35.5,17.2,37.7,21.9,38.8z M18.3,54.4c0-3.8,1.2-6.7,3.5-8.8c2.4-2.1,5.7-3.2,9.9-3.2
								c4.2,0,7.6,1.1,9.9,3.2c2.4,2.1,3.6,5.1,3.6,8.8c0,3.8-1.2,6.7-3.6,8.8c-2.4,2.1-5.7,3.2-9.9,3.2c-4.3,0-7.6-1.1-9.9-3.2
								C19.5,61.1,18.3,58.2,18.3,54.4z"/>
						</g>
					</g>
				</g>
			</g>
			<g id="ytick_7">
				<g id="line2d_13">
					<g>
						<g>
							<path id="m8a3103171c_6_" class="st2" d="M49.9,18.2h-3.5"/>
						</g>
					</g>
				</g>
				<g id="text_14">
					<g transform="translate(36.5715 22.019188)scale(0.1 -0.1)">
						<g>
							<path id="DejaVuSans-57" d="M11,1.5v9c2.5-1.2,5-2.1,7.5-2.7c2.5-0.6,5-0.9,7.5-0.9c6.5,0,11.5,2.2,14.9,6.6
								c3.4,4.4,5.4,11,5.9,20c-1.9-2.8-4.3-5-7.2-6.5c-2.9-1.5-6.1-2.3-9.6-2.3c-7.3,0-13.1,2.2-17.3,6.6
								c-4.3,4.4-6.4,10.5-6.4,18.1c0,7.5,2.2,13.5,6.6,18c4.4,4.5,10.3,6.8,17.7,6.8c8.4,0,14.9-3.2,19.3-9.7
								c4.4-6.5,6.7-15.8,6.7-28.1c0-11.5-2.7-20.7-8.2-27.5C43,2,35.6-1.4,26.4-1.4c-2.5,0-5,0.2-7.5,0.7C16.4-0.2,13.7,0.5,11,1.5
								z M30.6,32.4c4.4,0,7.9,1.5,10.5,4.5c2.6,3,3.9,7.2,3.9,12.5c0,5.2-1.3,9.4-3.9,12.4c-2.6,3-6.1,4.6-10.5,4.6
								s-7.9-1.5-10.5-4.6c-2.6-3-3.9-7.2-3.9-12.4c0-5.3,1.3-9.4,3.9-12.5C22.7,33.9,26.2,32.4,30.6,32.4z"/>
						</g>
					</g>
				</g>
			</g>
			<g id="text_15">
				<g transform="translate(19.294 112.035625)rotate(-90)scale(0.1 -0.1)">
					<g>
						<path id="DejaVuSans-86" d="M28.6,0L0.8,72.9h10.3l23.1-61.4l23.1,61.4h10.3L39.8,0H28.6z"/>
					</g>
					<g>
						<path id="DejaVuSans-101_1_" d="M116.9,29.6v-4.4H75.5c0.4-6.2,2.3-10.9,5.6-14.1c3.3-3.2,8-4.9,13.9-4.9
							c3.4,0,6.8,0.4,10,1.3c3.2,0.8,6.5,2.1,9.7,3.8V2.8c-3.2-1.4-6.5-2.4-9.9-3.1c-3.4-0.7-6.8-1.1-10.3-1.1
							c-8.7,0-15.6,2.5-20.7,7.6c-5.1,5.1-7.6,12-7.6,20.6c0,8.9,2.4,16,7.3,21.3C78.3,53.4,84.8,56,93,56c7.4,0,13.2-2.4,17.5-7.1
							C114.7,44.2,116.9,37.7,116.9,29.6z M107.9,32.2c-0.1,4.9-1.4,8.8-4.1,11.8c-2.7,2.9-6.2,4.4-10.7,4.4c-5,0-9-1.4-12-4.3
							c-3-2.8-4.7-6.8-5.2-12L107.9,32.2z"/>
					</g>
					<g>
						<path id="DejaVuSans-108" d="M131.6,76h9V0h-9V76z"/>
					</g>
					<g>
						<path id="DejaVuSans-111" d="M180.6,48.4c-4.8,0-8.6-1.9-11.4-5.6c-2.8-3.8-4.2-8.9-4.2-15.5s1.4-11.7,4.2-15.5
							c2.8-3.8,6.6-5.6,11.5-5.6c4.8,0,8.6,1.9,11.4,5.7c2.8,3.8,4.2,8.9,4.2,15.4c0,6.5-1.4,11.6-4.2,15.4
							C189.2,46.5,185.4,48.4,180.6,48.4z M180.6,56c7.8,0,13.9-2.5,18.4-7.6c4.5-5.1,6.7-12.1,6.7-21.1c0-8.9-2.2-16-6.7-21.1
							c-4.5-5.1-10.6-7.6-18.4-7.6c-7.8,0-14,2.5-18.4,7.6c-4.4,5.1-6.7,12.1-6.7,21.1c0,9,2.2,16,6.7,21.1
							C166.6,53.5,172.7,56,180.6,56z"/>
					</g>
					<g>
						<path id="DejaVuSans-99" d="M259.9,52.6v-8.4c-2.5,1.4-5.1,2.5-7.6,3.2c-2.6,0.7-5.1,1-7.7,1c-5.8,0-10.4-1.8-13.6-5.5
							c-3.2-3.7-4.8-8.9-4.8-15.5s1.6-11.9,4.8-15.6c3.2-3.7,7.8-5.5,13.6-5.5c2.6,0,5.2,0.3,7.7,1c2.6,0.7,5.1,1.8,7.6,3.2V2.1
							c-2.5-1.2-5.1-2-7.8-2.6c-2.7-0.6-5.5-0.9-8.6-0.9c-8.2,0-14.8,2.6-19.6,7.8c-4.8,5.2-7.3,12.2-7.3,21c0,8.9,2.4,15.9,7.3,21
							c4.9,5.1,11.6,7.7,20.2,7.7c2.8,0,5.5-0.3,8.1-0.9C254.9,54.6,257.4,53.7,259.9,52.6z"/>
					</g>
					<g>
						<path id="DejaVuSans-105" d="M275.5,54.7h9V0h-9V54.7z M275.5,76h9V64.6h-9V76z"/>
					</g>
					<g>
						<path id="DejaVuSans-116_1_" d="M312.2,70.2V54.7h18.5v-7h-18.5V18c0-4.5,0.6-7.3,1.8-8.6s3.7-1.9,7.5-1.9h9.2V0h-9.2
							c-6.9,0-11.7,1.3-14.4,3.9c-2.6,2.6-4,7.3-4,14.1v29.7h-6.6v7h6.6v15.5H312.2z"/>
					</g>
					<g>
						<path id="DejaVuSans-121" d="M365.3-5.1c-2.5-6.5-5-10.8-7.4-12.7c-2.4-2-5.6-3-9.7-3H341v7.5h5.3c2.5,0,4.4,0.6,5.8,1.8
							c1.4,1.2,2.9,3.9,4.5,8.3l1.6,4.1l-22.1,53.8h9.5l17.1-42.8l17.1,42.8h9.5L365.3-5.1z"/>
					</g>
				</g>
				<g transform="translate(30.491813 108.37625)rotate(-90)scale(0.1 -0.1)">
					<g>
						<path id="DejaVuSans-40_1_" d="M31,75.9c-4.4-7.5-7.6-14.9-9.7-22.2c-2.1-7.3-3.2-14.7-3.2-22.3c0-7.5,1.1-15,3.2-22.3
							S26.7-5.7,31-13.2h-7.8C18.3-5.5,14.7,2,12.2,9.4s-3.6,14.7-3.6,22c0,7.3,1.2,14.6,3.6,21.9c2.4,7.4,6.1,14.9,11,22.6H31z"/>
					</g>
					<g>
						<path id="DejaVuSans-107_1_" d="M48.1,76h9V31.1l26.8,23.6h11.5l-29-25.6L96.6,0H84.9L57.1,26.7V0h-9V76z"/>
					</g>
					<g>
						<path id="DejaVuSans-109_1_" d="M148.9,44.2c2.3,4,4.9,7,8.1,8.9s6.8,2.9,11,2.9c5.7,0,10.1-2,13.2-6c3.1-4,4.6-9.6,4.6-17V0
							h-9v32.7c0,5.2-0.9,9.1-2.8,11.7c-1.9,2.5-4.7,3.8-8.5,3.8c-4.7,0-8.3-1.5-11-4.6c-2.7-3.1-4-7.3-4-12.6V0h-9v32.7
							c0,5.3-0.9,9.2-2.8,11.7s-4.7,3.8-8.6,3.8c-4.6,0-8.2-1.6-11-4.7c-2.7-3.1-4-7.3-4-12.6V0h-9v54.7h9v-8.5
							c2.1,3.4,4.5,5.8,7.4,7.4s6.3,2.4,10.2,2.4c4,0,7.4-1,10.1-3C145.5,51,147.6,48,148.9,44.2z"/>
					</g>
					<g>
						<path id="DejaVuSans-47" d="M219.7,72.9h8.3L202.6-9.3h-8.3L219.7,72.9z"/>
					</g>
					<g>
						<path id="DejaVuSans-115" d="M272.3,53.1v-8.5c-2.5,1.3-5.2,2.3-7.9,2.9c-2.7,0.7-5.6,1-8.5,1c-4.5,0-7.8-0.7-10-2
							s-3.3-3.4-3.3-6.2c0-2.1,0.8-3.7,2.4-4.9s4.8-2.3,9.6-3.4l3.1-0.7c6.4-1.4,10.9-3.3,13.6-5.8s4-6,4-10.4c0-5.1-2-9.1-6-12.1
							c-4-3-9.5-4.4-16.6-4.4c-2.9,0-6,0.3-9.2,0.9s-6.5,1.4-10,2.6v9.3c3.3-1.7,6.6-3,9.8-3.9c3.2-0.9,6.4-1.3,9.6-1.3
							c4.2,0,7.5,0.7,9.8,2.2c2.3,1.4,3.4,3.5,3.4,6.1c0,2.4-0.8,4.3-2.5,5.6c-1.6,1.3-5.2,2.6-10.8,3.8l-3.1,0.7
							c-5.6,1.2-9.6,3-12.1,5.4c-2.5,2.4-3.7,5.8-3.7,10c0,5.1,1.8,9.1,5.5,11.9c3.6,2.8,8.8,4.2,15.5,4.2c3.3,0,6.4-0.2,9.4-0.7
							C267.1,54.8,269.8,54.1,272.3,53.1z"/>
					</g>
					<g>
						<path id="DejaVuSans-41_1_" d="M288.1,75.9h7.8c4.9-7.7,8.5-15.2,11-22.6c2.4-7.4,3.6-14.7,3.6-21.9c0-7.3-1.2-14.6-3.6-22
							s-6.1-14.9-11-22.6h-7.8c4.3,7.5,7.6,14.9,9.7,22.3s3.2,14.8,3.2,22.3c0,7.5-1.1,14.9-3.2,22.3
							C295.7,61,292.5,68.4,288.1,75.9z"/>
					</g>
				</g>
			</g>
		</g>
		<g id="line2d_14">
			<g>
				<defs>
					<rect id="SVGID_3_" x="49.9" y="10.8" width="371.3" height="163.2"/>
				</defs>
				<clipPath id="SVGID_4_">
					<use xlink:href="#SVGID_3_"  style="overflow:visible;"/>
				</clipPath>
				<path class="st3" d="M66.8,153.5h2.5l0.6-1.6h3.7l0.6-5.9h2.5l0.6,9.4h3.7l0.6-7.6h3.1l0.6,0.9h3.1l0.6,6h2.5l0.6,1.7H96
					l0.6-12.5h2.5l0.6,7.5h3.1l0.6,5.9h3.7l0.6-16.3h3.1l0.6,16.8h3.1l0.6-5.2h3.1l0.6-6h3.1l0.6-6.6h2.5l0.6-5.5h3.7l0.6-1.2h3.1
					l0.6-29.1h3.1l0.6,30.9h2.5l0.6-4.6h3.7l0.6,10.4h2.5l0.6-35.5h3.1l0.6,24.2h3.7l0.6,3.4h3.1l0.6,7.5h2.5l0.6,10.7h3.7l0.6,3.4
					h2.5l0.6,3h3.7l0.6-7.4h3.1l0.6-22.8h3.1l0.6-3.2h2.5l0.6-17.3h3.7l0.6,1.4h2.5l0.6-20.3h3.1l0.6-12.2h3.7l0.6,17.2h3.1
					l0.6-22.8h3.1l0.6-4.1h3.1l0.6,28.5h3.1l0.6-5.9h2.5l0.6-29.2h3.7l0.6,23h3.1l0.6-1.8h3.1l0.6-5.2h2.5l0.6-22.4h2.5l0.6,55.9
					h2.5l0.6-26.7h2.5l0.6-14.4h2.5l0.6,25.6h2.5l0.6-2.5h2.5l0.6-12.8h2.5l0.6,39.1h2.5l0.6-10.5h2.5l0.6,23.1h2.5l0.6-29.9h2.5
					l0.6-3.4h2.5l0.6,15.2h2.5l0.6,20.5h2.5l0.6-48h2.5l0.6-19.3h2.5l0.6-6.6h2.5l0.6,19.8h2.5l0.6,9.6h2.5l0.6-33.3h2.5l0.6,31.3
					h2.5l0.6,3h2.5l0.6-21.4h2.5l0.6,29.8h2.5l0.6,2.6h2.5l0.6-37.4h2.5l0.6,4.2h2.5l0.6-1.5h2.5l0.6,3.1h2.5l0.6-2.7h2.5l0.6,2.5
					h2.5l0.6,15.8h2.5l0.6-30.3h2.5l0.6,25.2h2.5l0.6,22.2h2.5l0.6-18.3h2.5l0.6-14.6h2.5l0.6,6.9h2.5l0.6,10.8h2.5l0.6,12.2h2.5
					l0.6-6.4h2.5l0.6-4.4h2.5l0.6-3.8h2.5l0.6,12.5h2.5l0.6-14.8h2.5l0.6-25.2h2.5l0.6,25h2.5l0.6-5.1h2.5l0.6-15.7h2.5l0.6,3.4h2.5
					l0.6-5.4h2.5l0.6-9.6h2.5l0.6,4.1h2.5l0.6,26.8h2.5l0.6-25.1h2.5l0,0"/>
			</g>
		</g>
		<g id="line2d_15">
			<g>
				<defs>
					<rect id="SVGID_5_" x="49.9" y="10.8" width="371.3" height="163.2"/>
				</defs>
				<clipPath id="SVGID_6_">
					<use xlink:href="#SVGID_5_"  style="overflow:visible;"/>
				</clipPath>
				<path class="st4" d="M66.8,152.9h55.3l0.6-22.4h36.7l0.6,22.4h18l0.6-44.9h17.4l0.6-22.4h52.2l0.6,22.4H280l0.6-44.9h14.9
					l0.6,22.4h14.9l0.6-22.4h30.5l0.6,22.4h46l0.6-22.4h14.9l0,0"/>
			</g>
		</g>
		<g id="line2d_16">
			<g>
				<defs>
					<rect id="SVGID_7_" x="49.9" y="10.8" width="371.3" height="163.2"/>
				</defs>
				<clipPath id="SVGID_8_">
					<use xlink:href="#SVGID_7_"  style="overflow:visible;"/>
				</clipPath>
				<path class="st5" d="M66.8,151.8l7.5-0.1l7.5-0.4l6.8-0.5l6.8-0.8l7.5-1.1l8.1-1.4l9.3-1.8l13.1-2.8l13.7-3.2l8.1-2.1l6.2-1.8
					l5.6-1.9l5-1.9l5-2.2l5-2.4l5-2.7l5-2.9l6.2-3.9l16.2-10.4l4.4-2.5l4.4-2.2l3.7-1.6l3.7-1.4l3.7-1.2l3.7-1l4.4-0.9l5.6-0.9
					l19.9-2.9l5.6-1.2l5.6-1.4l6.2-1.8l8.7-2.8l10.6-3.3l5.6-1.5l5-1.2l5-0.9l4.4-0.6l5-0.4l5-0.2l5.6,0l8.1,0.2l15.5,0.5l8.1,0
					l8.7-0.2l21.8-0.7l2.5,0l0,0"/>
			</g>
		</g>
		<g id="patch_3">
			<path class="st6" d="M49.9,174V10.8"/>
		</g>
		<g id="patch_4">
			<path class="st6" d="M421.2,174V10.8"/>
		</g>
		<g id="patch_5">
			<path class="st6" d="M49.9,174h371.3"/>
		</g>
		<g id="patch_6">
			<path class="st6" d="M49.9,10.8h371.3"/>
		</g>
		<g id="legend_1">
			<g id="patch_7">
				<path class="st7" d="M2.7,215.5h104.6c1.2,0,1.7-0.6,1.7-1.7v-50.2c0-1.2-0.6-1.7-1.7-1.7H2.7c-1.2,0-1.7,0.6-1.7,1.7v50.2
					C0.9,214.9,1.5,215.5,2.7,215.5z"/>
			</g>
			<g id="line2d_17">
				<path class="st8" d="M4.4,168.9h17.4"/>
			</g>
			<g id="line2d_18">
			</g>
			<g id="text_16">
				<g transform="translate(72.134 20.759062)scale(0.06 -0.06)">
					<g>
						<path id="DejaVuSans-77" d="M-708.1-2413.2h21.3l27-72l27.1,72h21.3V-2519h-14v92.9l-27.3-72.5h-14.4l-27.3,72.5v-92.9h-13.9
							V-2413.2z"/>
					</g>
					<g>
						<path id="DejaVuSans-101_2_" d="M-515.6-2476v-6.4h-59.9c0.6-9,3.3-15.8,8.1-20.5c4.8-4.7,11.6-7.1,20.2-7.1
							c5,0,9.9,0.6,14.6,1.8c4.7,1.2,9.4,3.1,14,5.5v-12.3c-4.7-2-9.5-3.5-14.4-4.5c-4.9-1-9.9-1.6-14.9-1.6
							c-12.7,0-22.7,3.7-30.1,11c-7.4,7.4-11.1,17.4-11.1,29.9c0,13,3.5,23.3,10.5,30.9c7,7.6,16.5,11.4,28.4,11.4
							c10.7,0,19.1-3.4,25.3-10.3C-518.7-2454.9-515.6-2464.2-515.6-2476z M-528.6-2472.2c-0.1,7.1-2.1,12.8-6,17
							c-3.9,4.3-9.1,6.4-15.5,6.4c-7.3,0-13.1-2.1-17.5-6.2c-4.4-4.1-6.9-9.9-7.5-17.4L-528.6-2472.2z"/>
					</g>
					<g>
						<path id="DejaVuSans-100" d="M-442-2451.7v42.9h13V-2519h-13v11.9c-2.7-4.7-6.2-8.2-10.4-10.5c-4.2-2.3-9.2-3.4-15.1-3.4
							c-9.6,0-17.4,3.8-23.4,11.5c-6,7.7-9,17.7-9,30.2c0,12.5,3,22.5,9,30.2c6,7.6,13.8,11.5,23.4,11.5c5.9,0,10.9-1.1,15.1-3.4
							C-448.2-2443.4-444.7-2446.9-442-2451.7z M-486.4-2479.4c0-9.6,2-17.1,5.9-22.6c3.9-5.5,9.4-8.2,16.3-8.2
							c6.9,0,12.3,2.7,16.3,8.2c4,5.5,6,13,6,22.6s-2,17.1-6,22.6c-4,5.5-9.4,8.2-16.3,8.2c-6.9,0-12.3-2.7-16.3-8.2
							C-484.5-2462.3-486.4-2469.8-486.4-2479.4z"/>
					</g>
					<g>
						<path id="DejaVuSans-105_1_" d="M-402.1-2439.6h13v-79.4h-13V-2439.6z M-402.1-2408.7h13v-16.5h-13V-2408.7z"/>
					</g>
					<g>
						<path id="DejaVuSans-97" d="M-325.7-2479.1c-10.5,0-17.8-1.2-21.9-3.6c-4.1-2.4-6.1-6.5-6.1-12.3c0-4.6,1.5-8.3,4.6-11
							c3.1-2.7,7.2-4.1,12.4-4.1c7.2,0,13,2.6,17.4,7.7c4.4,5.1,6.6,11.9,6.6,20.4v2.9H-325.7z M-299.7-2473.7v-45.3h-13v12
							c-3-4.8-6.7-8.4-11.1-10.7s-9.9-3.4-16.3-3.4c-8.1,0-14.6,2.3-19.4,6.8c-4.8,4.6-7.2,10.7-7.2,18.3c0,8.9,3,15.6,9,20.2
							c6,4.5,14.9,6.8,26.8,6.8h18.3v1.3c0,6-2,10.6-5.9,13.9c-3.9,3.3-9.5,4.9-16.6,4.9c-4.5,0-9-0.5-13.3-1.6
							c-4.3-1.1-8.4-2.7-12.4-4.9v12.1c4.8,1.8,9.4,3.2,13.9,4.1c4.5,0.9,8.9,1.4,13.1,1.4c11.5,0,20.1-3,25.7-8.9
							C-302.6-2452.6-299.7-2461.6-299.7-2473.7z"/>
					</g>
					<g>
						<path id="DejaVuSans-110" d="M-206.9-2471.1v-47.9h-13v47.5c0,7.5-1.5,13.1-4.4,16.8c-2.9,3.7-7.3,5.6-13.2,5.6
							c-7,0-12.6-2.2-16.7-6.7c-4.1-4.5-6.1-10.6-6.1-18.3v-44.8h-13.1v79.4h13.1v-12.3c3.1,4.8,6.8,8.3,11,10.7
							c4.2,2.4,9.1,3.5,14.6,3.5c9.1,0,16-2.8,20.7-8.5C-209.3-2451.8-206.9-2460.1-206.9-2471.1z"/>
					</g>
				</g>
			</g>
			<g id="line2d_19">
				<path class="st9" d="M4.4,181.6h17.4"/>
			</g>
			<g id="line2d_20">
			</g>
			<g id="text_17">
				<g transform="translate(72.134 29.565937)scale(0.06 -0.06)">
					<g>
						<path id="DejaVuSans-82" d="M-657.9-2535.6c3.1-1,6.1-3.3,9-6.7c2.9-3.4,5.8-8.1,8.8-14l14.5-28.9h-15.4l-13.5,27.1
							c-3.5,7.1-6.9,11.8-10.2,14.1s-7.8,3.5-13.4,3.5h-15.6v-44.7h-14.3v105.8h32.3c12.1,0,21.1-2.5,27.1-7.6
							c6-5,8.9-12.7,8.9-22.9c0-6.7-1.5-12.2-4.6-16.6C-647.6-2530.8-652-2533.9-657.9-2535.6z M-693.8-2491.2v-37.5h18
							c6.9,0,12.1,1.6,15.6,4.8s5.3,7.9,5.3,14.1c0,6.2-1.8,10.8-5.3,14s-8.7,4.7-15.6,4.7H-693.8z"/>
					</g>
					<g>
						<path id="DejaVuSans-101_3_" d="M-546.5-2542.2v-6.4h-59.9c0.6-9,3.3-15.8,8.1-20.5c4.8-4.7,11.6-7.1,20.2-7.1
							c5,0,9.9,0.6,14.6,1.8c4.7,1.2,9.4,3.1,14,5.5v-12.3c-4.7-2-9.5-3.5-14.4-4.5c-4.9-1-9.9-1.6-14.9-1.6
							c-12.7,0-22.7,3.7-30.1,11c-7.4,7.4-11.1,17.4-11.1,29.9c0,13,3.5,23.3,10.5,30.9c7,7.6,16.5,11.4,28.4,11.4
							c10.7,0,19.1-3.4,25.3-10.3C-549.6-2521.1-546.5-2530.4-546.5-2542.2z M-559.6-2538.4c-0.1,7.1-2.1,12.8-6,17
							c-3.9,4.3-9.1,6.4-15.5,6.4c-7.3,0-13.1-2.1-17.5-6.2c-4.4-4.1-6.9-9.9-7.5-17.4L-559.6-2538.4z"/>
					</g>
					<g>
						<path id="DejaVuSans-102" d="M-484.9-2474.9v-10.9h-12.5c-4.7,0-7.9-0.9-9.7-2.8c-1.8-1.9-2.7-5.3-2.7-10.2v-7h21.5v-10.1
							h-21.5v-69.2H-523v69.2h-12.5v10.1h12.5v5.5c0,8.8,2.1,15.3,6.2,19.3c4.1,4.1,10.6,6.1,19.5,6.1H-484.9z"/>
					</g>
					<g>
						<path id="DejaVuSans-101_4_" d="M-406.2-2542.2v-6.4h-59.9c0.6-9,3.3-15.8,8.1-20.5c4.8-4.7,11.6-7.1,20.2-7.1
							c5,0,9.9,0.6,14.6,1.8c4.7,1.2,9.4,3.1,14,5.5v-12.3c-4.7-2-9.5-3.5-14.4-4.5c-4.9-1-9.9-1.6-14.9-1.6
							c-12.7,0-22.7,3.7-30.1,11c-7.4,7.4-11.1,17.4-11.1,29.9c0,13,3.5,23.3,10.5,30.9c7,7.6,16.5,11.4,28.4,11.4
							c10.7,0,19.1-3.4,25.3-10.3C-409.3-2521.1-406.2-2530.4-406.2-2542.2z M-419.2-2538.4c-0.1,7.1-2.1,12.8-6,17
							c-3.9,4.3-9.1,6.4-15.5,6.4c-7.3,0-13.1-2.1-17.5-6.2c-4.4-4.1-6.9-9.9-7.5-17.4L-419.2-2538.4z"/>
					</g>
					<g>
						<path id="DejaVuSans-114" d="M-338.8-2518c-1.5,0.8-3.1,1.5-4.8,1.9c-1.7,0.4-3.6,0.6-5.7,0.6c-7.4,0-13-2.4-17-7.2
							s-5.9-11.7-5.9-20.7v-41.8h-13.1v79.4h13.1v-12.3c2.8,4.8,6.3,8.4,10.7,10.7c4.4,2.3,9.7,3.5,16,3.5c0.9,0,1.9-0.1,3-0.2
							c1.1-0.1,2.3-0.3,3.6-0.5L-338.8-2518z"/>
					</g>
					<g>
						<path id="DejaVuSans-101_5_" d="M-260.5-2542.2v-6.4h-59.9c0.6-9,3.3-15.8,8.1-20.5c4.8-4.7,11.6-7.1,20.2-7.1
							c5,0,9.9,0.6,14.6,1.8c4.7,1.2,9.4,3.1,14,5.5v-12.3c-4.7-2-9.5-3.5-14.4-4.5c-4.9-1-9.9-1.6-14.9-1.6
							c-12.7,0-22.7,3.7-30.1,11c-7.4,7.4-11.1,17.4-11.1,29.9c0,13,3.5,23.3,10.5,30.9c7,7.6,16.5,11.4,28.4,11.4
							c10.7,0,19.1-3.4,25.3-10.3C-263.6-2521.1-260.5-2530.4-260.5-2542.2z M-273.5-2538.4c-0.1,7.1-2.1,12.8-6,17
							c-3.9,4.3-9.1,6.4-15.5,6.4c-7.3,0-13.1-2.1-17.5-6.2c-4.4-4.1-6.9-9.9-7.5-17.4L-273.5-2538.4z"/>
					</g>
					<g>
						<path id="DejaVuSans-110_1_" d="M-173.1-2537.3v-47.9h-13v47.5c0,7.5-1.5,13.1-4.4,16.8c-2.9,3.7-7.3,5.6-13.2,5.6
							c-7,0-12.6-2.2-16.7-6.7c-4.1-4.5-6.1-10.6-6.1-18.3v-44.8h-13.1v79.4h13.1v-12.3c3.1,4.8,6.8,8.3,11,10.7
							c4.2,2.4,9.1,3.5,14.6,3.5c9.1,0,16-2.8,20.7-8.5C-175.5-2518-173.1-2526.3-173.1-2537.3z"/>
					</g>
					<g>
						<path id="DejaVuSans-99_1_" d="M-90-2508.9v-12.2c-3.7,2-7.4,3.6-11.1,4.6s-7.4,1.5-11.2,1.5c-8.5,0-15-2.7-19.7-8
							c-4.7-5.4-7-12.9-7-22.6c0-9.7,2.3-17.2,7-22.6c4.7-5.4,11.3-8,19.7-8c3.8,0,7.5,0.5,11.2,1.5s7.4,2.5,11.1,4.6v-12.1
							c-3.6-1.7-7.4-3-11.3-3.8c-3.9-0.9-8-1.3-12.4-1.3c-12,0-21.5,3.8-28.5,11.3c-7,7.5-10.5,17.6-10.5,30.4
							c0,12.9,3.6,23.1,10.7,30.5c7.1,7.4,16.9,11.1,29.2,11.1c4,0,7.9-0.4,11.7-1.2C-97.3-2506-93.6-2507.2-90-2508.9z"/>
					</g>
					<g>
						<path id="DejaVuSans-101_6_" d="M0.5-2542.2v-6.4h-59.9c0.6-9,3.3-15.8,8.1-20.5c4.8-4.7,11.6-7.1,20.2-7.1
							c5,0,9.9,0.6,14.6,1.8c4.7,1.2,9.4,3.1,14,5.5v-12.3c-4.7-2-9.5-3.5-14.4-4.5c-4.9-1-9.9-1.6-14.9-1.6
							c-12.7,0-22.7,3.7-30.1,11c-7.4,7.4-11.1,17.4-11.1,29.9c0,13,3.5,23.3,10.5,30.9c7,7.6,16.5,11.4,28.4,11.4
							c10.7,0,19.1-3.4,25.3-10.3C-2.6-2521.1,0.5-2530.4,0.5-2542.2z M-12.5-2538.4c-0.1,7.1-2.1,12.8-6,17
							c-3.9,4.3-9.1,6.4-15.5,6.4c-7.3,0-13.1-2.1-17.5-6.2s-6.9-9.9-7.5-17.4L-12.5-2538.4z"/>
					</g>
				</g>
			</g>
			<g id="line2d_21">
				<path class="st10" d="M4.4,194.4h17.4"/>
			</g>
			<g id="line2d_22">
			</g>
			<g id="text_18">
				<g transform="translate(72.134 38.372812)scale(0.06 -0.06)">
					<g>
						<path id="DejaVuSans-73" d="M-708.1-2545.6h14.3v-105.8h-14.3V-2545.6z"/>
					</g>
					<g>
						<path id="DejaVuSans-110_2_" d="M-599.9-2603.5v-47.9h-13v47.5c0,7.5-1.5,13.1-4.4,16.8c-2.9,3.7-7.3,5.6-13.2,5.6
							c-7,0-12.6-2.2-16.7-6.7c-4.1-4.5-6.1-10.6-6.1-18.3v-44.8h-13.1v79.4h13.1v-12.3c3.1,4.8,6.8,8.3,11,10.7
							c4.2,2.4,9.1,3.5,14.6,3.5c9.1,0,16-2.8,20.7-8.5C-602.3-2584.2-599.9-2592.5-599.9-2603.5z"/>
					</g>
					<g>
						<path id="DejaVuSans-105_2_" d="M-573.9-2572h13v-79.4h-13V-2572z M-573.9-2541.1h13v-16.5h-13V-2541.1z"/>
					</g>
					<g>
						<path id="DejaVuSans-116_2_" d="M-520.7-2549.5v-22.5h26.8v-10.1h-26.8v-43.1c0-6.5,0.9-10.6,2.7-12.5s5.4-2.8,10.8-2.8h13.4
							v-10.9h-13.4c-10.1,0-17,1.9-20.8,5.6c-3.8,3.8-5.7,10.6-5.7,20.5v43.1h-9.6v10.1h9.6v22.5H-520.7z"/>
					</g>
					<g>
						<path id="DejaVuSans-105_3_" d="M-476.7-2572h13v-79.4h-13V-2572z M-476.7-2541.1h13v-16.5h-13V-2541.1z"/>
					</g>
					<g>
						<path id="DejaVuSans-97_1_" d="M-400.3-2611.5c-10.5,0-17.8-1.2-21.9-3.6c-4.1-2.4-6.1-6.5-6.1-12.3c0-4.6,1.5-8.3,4.6-11
							c3.1-2.7,7.2-4.1,12.4-4.1c7.2,0,13,2.6,17.4,7.7s6.6,11.9,6.6,20.4v2.9H-400.3z M-374.3-2606.1v-45.3h-13v12
							c-3-4.8-6.7-8.4-11.1-10.7s-9.9-3.4-16.3-3.4c-8.1,0-14.6,2.3-19.4,6.8c-4.8,4.6-7.2,10.7-7.2,18.3c0,8.9,3,15.6,9,20.2
							c6,4.5,14.9,6.8,26.8,6.8h18.3v1.3c0,6-2,10.6-5.9,13.9c-3.9,3.3-9.5,4.9-16.6,4.9c-4.5,0-9-0.5-13.3-1.6
							c-4.3-1.1-8.4-2.7-12.4-4.9v12.1c4.8,1.8,9.4,3.2,13.9,4.1c4.5,0.9,8.9,1.4,13.1,1.4c11.5,0,20.1-3,25.7-8.9
							C-377.2-2585-374.3-2594-374.3-2606.1z"/>
					</g>
					<g>
						<path id="DejaVuSans-108_1_" d="M-347.5-2541.1h13v-110.3h-13V-2541.1z"/>
					</g>
				</g>
			</g>
			<g id="patch_8">
				<path class="st11" d="M4.4,210.2h17.4v-6.1H4.4V210.2z"/>
			</g>
			<g id="text_19">
				<g transform="translate(72.134 47.179687)scale(0.06 -0.06)">
					<g>
						<path id="DejaVuSans-57_1_" d="M-706.4-2715.4v13c3.6-1.7,7.2-3,10.9-3.9c3.7-0.9,7.3-1.3,10.9-1.3c9.4,0,16.7,3.2,21.6,9.5
							c5,6.3,7.8,16,8.5,29c-2.7-4.1-6.2-7.2-10.4-9.4c-4.2-2.2-8.8-3.3-13.9-3.3c-10.6,0-19,3.2-25.1,9.6
							c-6.2,6.4-9.3,15.2-9.3,26.3c0,10.9,3.2,19.6,9.6,26.1c6.4,6.6,15,9.9,25.6,9.9c12.2,0,21.6-4.7,28-14.1
							c6.5-9.4,9.7-23,9.7-40.8c0-16.7-4-30-11.9-39.9c-7.9-9.9-18.5-14.9-31.9-14.9c-3.6,0-7.2,0.4-10.9,1.1
							C-698.6-2717.8-702.4-2716.8-706.4-2715.4z M-677.9-2670.5c6.4,0,11.5,2.2,15.3,6.6c3.8,4.4,5.6,10.4,5.6,18.1
							c0,7.6-1.9,13.6-5.6,18c-3.7,4.4-8.8,6.6-15.3,6.6c-6.4,0-11.5-2.2-15.3-6.6c-3.7-4.4-5.6-10.4-5.6-18
							c0-7.7,1.9-13.7,5.6-18.1C-689.4-2668.3-684.4-2670.5-677.9-2670.5z"/>
					</g>
					<g>
						<path id="DejaVuSans-53_2_" d="M-614.4-2611.8h56.2v-12.1h-43.1v-25.9c2.1,0.7,4.1,1.2,6.2,1.6c2.1,0.3,4.2,0.5,6.3,0.5
							c11.8,0,21.2-3.2,28-9.7c6.9-6.5,10.4-15.2,10.4-26.3c0-11.4-3.5-20.2-10.6-26.5c-7.1-6.3-17.1-9.5-30-9.5
							c-4.4,0-9,0.4-13.6,1.1c-4.6,0.8-9.3,1.9-14.3,3.4v14.4c4.2-2.3,8.6-4,13.2-5.2c4.5-1.1,9.3-1.7,14.4-1.7
							c8.2,0,14.6,2.1,19.4,6.4c4.8,4.3,7.2,10.1,7.2,17.5c0,7.4-2.4,13.2-7.2,17.5c-4.8,4.3-11.2,6.5-19.4,6.5
							c-3.8,0-7.6-0.4-11.4-1.3c-3.8-0.8-7.7-2.2-11.6-4V-2611.8z"/>
					</g>
					<g>
						<path id="DejaVuSans-37" d="M-432.2-2671c-4.1,0-7.3-1.7-9.7-5.2c-2.3-3.5-3.5-8.4-3.5-14.6c0-6.1,1.2-11,3.5-14.5
							c2.3-3.5,5.6-5.3,9.7-5.3c4,0,7.2,1.8,9.5,5.3c2.3,3.5,3.5,8.4,3.5,14.5c0,6.2-1.2,11-3.5,14.6
							C-425-2672.8-428.2-2671-432.2-2671z M-432.2-2662c7.5,0,13.4-2.6,17.8-7.8c4.4-5.2,6.6-12.2,6.6-21c0-8.8-2.2-15.8-6.6-21
							c-4.4-5.2-10.3-7.8-17.8-7.8c-7.6,0-13.5,2.6-17.9,7.8c-4.4,5.2-6.6,12.2-6.6,21c0,8.9,2.2,15.9,6.6,21.1
							C-445.7-2664.6-439.7-2662-432.2-2662z M-505.3-2618.9c-4.1,0-7.3-1.8-9.6-5.3c-2.3-3.5-3.5-8.3-3.5-14.5
							c0-6.2,1.2-11.1,3.5-14.6c2.3-3.5,5.5-5.2,9.6-5.2s7.3,1.7,9.7,5.2c2.3,3.5,3.5,8.4,3.5,14.6c0,6.1-1.2,10.9-3.5,14.4
							C-498.1-2620.6-501.3-2618.9-505.3-2618.9z M-441.4-2609.9h11.3l-66.2-109.8h-11.3L-441.4-2609.9z M-505.3-2609.9
							c7.5,0,13.4-2.6,17.8-7.8c4.4-5.2,6.7-12.2,6.7-21c0-8.9-2.2-16-6.6-21.1c-4.4-5.2-10.4-7.7-17.9-7.7s-13.5,2.6-17.8,7.8
							c-4.4,5.2-6.6,12.2-6.6,21.1c0,8.8,2.2,15.8,6.6,21C-518.7-2612.5-512.8-2609.9-505.3-2609.9z"/>
					</g>
					<g>
						<path id="DejaVuSans-32_1_" d="M-399.8-2717.6"/>
					</g>
					<g>
						<path id="DejaVuSans-72" d="M-339.5-2611.8h14.3v-43.4h52v43.4h14.3v-105.8h-14.3v50.4h-52v-50.4h-14.3V-2611.8z"/>
					</g>
					<g>
						<path id="DejaVuSans-80" d="M-216.1-2623.5v-39.7h18c6.7,0,11.8,1.7,15.4,5.2c3.6,3.4,5.5,8.4,5.5,14.7
							c0,6.3-1.8,11.2-5.5,14.7c-3.6,3.4-8.8,5.2-15.4,5.2H-216.1z M-230.4-2611.8h32.3c11.9,0,20.8-2.7,26.9-8
							c6.1-5.4,9.1-13.2,9.1-23.6c0-10.4-3-18.3-9.1-23.7c-6.1-5.3-15-8-26.9-8h-18v-42.5h-14.3V-2611.8z"/>
					</g>
					<g>
						<path id="DejaVuSans-68_1_" d="M-128.6-2623.5v-82.3h17.3c14.6,0,25.3,3.3,32.1,9.9c6.8,6.6,10.2,17.1,10.2,31.3
							c0,14.2-3.4,24.5-10.2,31.1c-6.8,6.6-17.5,9.9-32.1,9.9H-128.6z M-142.9-2611.8h29.4c20.5,0,35.5-4.3,45.1-12.8
							c9.6-8.5,14.4-21.9,14.4-40c0-18.2-4.8-31.6-14.5-40.2c-9.6-8.5-24.6-12.8-45-12.8h-29.4V-2611.8z"/>
					</g>
					<g>
						<path id="DejaVuSans-32_2_" d="M-45.4-2717.6"/>
					</g>
					<g>
						<path id="DejaVuSans-73_1_" d="M15-2611.8h14.3v-105.8H15V-2611.8z"/>
					</g>
					<g>
						<path id="DejaVuSans-110_3_" d="M123.2-2669.7v-47.9h-13v47.5c0,7.5-1.5,13.1-4.4,16.8c-2.9,3.7-7.3,5.6-13.2,5.6
							c-7,0-12.6-2.2-16.7-6.7c-4.1-4.5-6.1-10.6-6.1-18.3v-44.8H56.7v79.4h13.1v-12.3c3.1,4.8,6.8,8.3,11,10.7
							c4.2,2.4,9.1,3.5,14.6,3.5c9.1,0,16-2.8,20.7-8.5C120.8-2650.4,123.2-2658.7,123.2-2669.7z"/>
					</g>
					<g>
						<path id="DejaVuSans-116_3_" d="M162.1-2615.7v-22.5h26.8v-10.1h-26.8v-43.1c0-6.5,0.9-10.6,2.7-12.5s5.4-2.8,10.8-2.8h13.4
							v-10.9h-13.4c-10.1,0-17,1.9-20.8,5.6c-3.8,3.8-5.7,10.6-5.7,20.5v43.1h-9.6v10.1h9.6v22.5H162.1z"/>
					</g>
					<g>
						<path id="DejaVuSans-101_7_" d="M273.9-2674.6v-6.4H214c0.6-9,3.3-15.8,8.1-20.5c4.8-4.7,11.6-7.1,20.2-7.1
							c5,0,9.9,0.6,14.6,1.8c4.7,1.2,9.4,3.1,14,5.5v-12.3c-4.7-2-9.5-3.5-14.4-4.5c-4.9-1-9.9-1.6-14.9-1.6
							c-12.7,0-22.7,3.7-30.1,11c-7.4,7.4-11.1,17.4-11.1,29.9c0,13,3.5,23.3,10.5,30.9c7,7.6,16.5,11.4,28.4,11.4
							c10.7,0,19.1-3.4,25.3-10.3C270.8-2653.5,273.9-2662.8,273.9-2674.6z M260.9-2670.8c-0.1,7.1-2.1,12.8-6,17
							c-3.9,4.3-9.1,6.4-15.5,6.4c-7.3,0-13.1-2.1-17.5-6.2c-4.4-4.1-6.9-9.9-7.5-17.4L260.9-2670.8z"/>
					</g>
					<g>
						<path id="DejaVuSans-114_1_" d="M341.3-2650.4c-1.5,0.8-3.1,1.5-4.8,1.9c-1.7,0.4-3.6,0.6-5.7,0.6c-7.4,0-13-2.4-17-7.2
							s-5.9-11.7-5.9-20.7v-41.8h-13.1v79.4h13.1v-12.3c2.8,4.8,6.3,8.4,10.7,10.7c4.4,2.3,9.7,3.5,16,3.5c0.9,0,1.9-0.1,3-0.2
							c1.1-0.1,2.3-0.3,3.6-0.5L341.3-2650.4z"/>
					</g>
					<g>
						<path id="DejaVuSans-118" d="M345.6-2638.2h13.8l24.8-66.6l24.8,66.6h13.8l-29.8-79.4h-17.7L345.6-2638.2z"/>
					</g>
					<g>
						<path id="DejaVuSans-97_2_" d="M476.9-2677.7c-10.5,0-17.8-1.2-21.9-3.6c-4.1-2.4-6.1-6.5-6.1-12.3c0-4.6,1.5-8.3,4.6-11
							c3.1-2.7,7.2-4.1,12.4-4.1c7.2,0,13,2.6,17.4,7.7c4.4,5.1,6.6,11.9,6.6,20.4v2.9H476.9z M502.9-2672.3v-45.3h-13v12
							c-3-4.8-6.7-8.4-11.1-10.7s-9.9-3.4-16.3-3.4c-8.1,0-14.6,2.3-19.4,6.8c-4.8,4.6-7.2,10.7-7.2,18.3c0,8.9,3,15.6,9,20.2
							c6,4.5,14.9,6.8,26.8,6.8h18.3v1.3c0,6-2,10.6-5.9,13.9c-3.9,3.3-9.5,4.9-16.6,4.9c-4.5,0-9-0.5-13.3-1.6
							c-4.3-1.1-8.4-2.7-12.4-4.9v12.1c4.8,1.8,9.4,3.2,13.9,4.1c4.5,0.9,8.9,1.4,13.1,1.4c11.5,0,20.1-3,25.7-8.9
							C500.1-2651.2,502.9-2660.2,502.9-2672.3z"/>
					</g>
					<g>
						<path id="DejaVuSans-108_2_" d="M529.8-2607.3h13v-110.3h-13V-2607.3z"/>
					</g>
				</g>
			</g>
		</g>
	</g>
</g>
</svg>
