<?xml version="1.0" encoding="utf-8"?>
<!-- Generator: Adobe Illustrator 24.3.0, SVG Export Plug-In . SVG Version: 6.00 Build 0)  -->
<svg version="1.1" id="Layer_1" xmlns="http://www.w3.org/2000/svg" xmlns:xlink="http://www.w3.org/1999/xlink" x="0px" y="0px"
	 viewBox="0 0 252 288" style="enable-background:new 0 0 252 288;" xml:space="preserve">
<style type="text/css">
	.st0{fill:none;}
	.st1{stroke:#000000;stroke-width:0.8;stroke-linejoin:round;}
	.st2{fill:none;stroke:#000000;stroke-width:0.8;stroke-linecap:square;}
	.st3{clip-path:url(#SVGID_2_);fill:#FFFFFF;stroke:#FFFFFF;stroke-width:1.000000e-02;}
	.st4{fill:none;stroke:#000000;stroke-width:0.8;}
	.st5{fill:#FF9815;stroke:#FFFFFF;stroke-miterlimit:10;}
	.st6{fill:#F40000;stroke:#FFFFFF;stroke-miterlimit:10;}
	.st7{fill:#0032FF;stroke:#FFFFFF;stroke-miterlimit:10;}
	.st8{fill:#A500FF;stroke:#FFFFFF;stroke-miterlimit:10;}
</style>
<g id="figure_1">
	<g id="patch_1">
		<path class="st0" d="M0,288h252V0H0V288z"/>
	</g>
	<g id="axes_1">
		<g id="patch_2">
			<path class="st0" d="M47.8,246h147.3V14.8H47.8V246z"/>
		</g>
		
			<image style="overflow:visible;enable-background:new    ;" width="205" height="321" id="image66b90dee3f" xlink:href="2BCA9E23.png"  transform="matrix(0.72 0 0 -0.72 47.52 246.24)">
		</image>
		<g id="matplotlib.axis_1">
			<g id="xtick_1">
				<g id="line2d_1">
					<g>
						<g>
							<path id="m039d6828a3" class="st1" d="M47.8,246v3.5"/>
						</g>
					</g>
				</g>
				<g id="text_1">
					<g transform="translate(39.858438 260.638438)scale(0.1 -0.1)">
						<g>
							<path id="DejaVuSans-48" d="M31.8,66.4c-5.1,0-8.9-2.5-11.5-7.5c-2.6-5-3.8-12.5-3.8-22.5c0-10,1.3-17.5,3.8-22.5
								c2.6-5,6.4-7.5,11.5-7.5c5.1,0,8.9,2.5,11.5,7.5c2.6,5,3.8,12.5,3.8,22.5c0,10-1.3,17.5-3.8,22.5
								C40.7,63.9,36.9,66.4,31.8,66.4z M31.8,74.2c8.2,0,14.4-3.2,18.7-9.7c4.3-6.5,6.5-15.8,6.5-28.1c0-12.3-2.2-21.6-6.5-28.1
								C46.2,1.8,40-1.4,31.8-1.4c-8.2,0-14.4,3.2-18.7,9.7c-4.3,6.5-6.5,15.8-6.5,28.1c0,12.3,2.2,21.7,6.5,28.1
								C17.4,71,23.6,74.2,31.8,74.2z"/>
						</g>
						<g>
							<path id="DejaVuSans-46" d="M74.3,12.4h10.3V0H74.3V12.4z"/>
						</g>
						<g>
							<path id="DejaVuSans-48_1_" d="M127.2,66.4c-5.1,0-8.9-2.5-11.5-7.5c-2.6-5-3.8-12.5-3.8-22.5c0-10,1.3-17.5,3.8-22.5
								c2.6-5,6.4-7.5,11.5-7.5c5.1,0,8.9,2.5,11.5,7.5c2.6,5,3.8,12.5,3.8,22.5c0,10-1.3,17.5-3.8,22.5
								C136.1,63.9,132.3,66.4,127.2,66.4z M127.2,74.2c8.2,0,14.4-3.2,18.7-9.7c4.3-6.5,6.5-15.8,6.5-28.1
								c0-12.3-2.2-21.6-6.5-28.1c-4.3-6.5-10.6-9.7-18.7-9.7c-8.2,0-14.4,3.2-18.7,9.7c-4.3,6.5-6.5,15.8-6.5,28.1
								c0,12.3,2.2,21.7,6.5,28.1C112.8,71,119,74.2,127.2,74.2z"/>
						</g>
					</g>
				</g>
			</g>
			<g id="xtick_2">
				<g id="line2d_2">
					<g>
						<g>
							<path id="m039d6828a3_1_" class="st1" d="M87.8,246v3.5"/>
						</g>
					</g>
				</g>
				<g id="text_2">
					<g transform="translate(79.799218 260.638438)scale(0.1 -0.1)">
						<g>
							<path id="DejaVuSans-50" d="M19.2,8.3h34.4V0H7.3v8.3c3.7,3.9,8.8,9.1,15.3,15.6c6.5,6.5,10.5,10.7,12.2,12.6
								c3.2,3.5,5.4,6.5,6.6,9c1.3,2.5,1.9,4.9,1.9,7.3c0,3.9-1.4,7-4.1,9.5c-2.7,2.4-6.3,3.7-10.6,3.7c-3.1,0-6.4-0.5-9.8-1.6
								c-3.4-1.1-7.1-2.7-11-4.9v10c4,1.6,7.7,2.8,11.1,3.6c3.5,0.8,6.6,1.2,9.5,1.2c7.6,0,13.6-1.9,18.1-5.7
								c4.5-3.8,6.7-8.8,6.7-15.1c0-3-0.6-5.8-1.7-8.5c-1.1-2.7-3.2-5.8-6.1-9.5c-0.8-0.9-3.4-3.7-7.8-8.2
								C33.3,22.7,27.1,16.4,19.2,8.3z"/>
						</g>
						<g>
							<path id="DejaVuSans-46_1_" d="M74.3,12.4h10.3V0H74.3V12.4z"/>
						</g>
						<g>
							<path id="DejaVuSans-53" d="M106.2,72.9h38.7v-8.3h-29.7V46.7c1.4,0.5,2.9,0.9,4.3,1.1c1.4,0.2,2.9,0.4,4.3,0.4
								c8.1,0,14.6-2.2,19.3-6.7c4.8-4.5,7.1-10.5,7.1-18.1c0-7.8-2.4-13.9-7.3-18.3c-4.9-4.3-11.8-6.5-20.7-6.5
								c-3.1,0-6.2,0.3-9.4,0.8c-3.2,0.5-6.4,1.3-9.8,2.3v9.9c2.9-1.6,6-2.8,9.1-3.6s6.4-1.2,9.9-1.2c5.6,0,10.1,1.5,13.4,4.4
								c3.3,3,4.9,7,4.9,12.1c0,5.1-1.6,9.1-4.9,12c-3.3,3-7.7,4.5-13.4,4.5c-2.6,0-5.3-0.3-7.9-0.9c-2.6-0.6-5.3-1.5-8-2.7V72.9z"
								/>
						</g>
					</g>
				</g>
			</g>
			<g id="xtick_3">
				<g id="line2d_3">
					<g>
						<g>
							<path id="m039d6828a3_2_" class="st1" d="M127.7,246v3.5"/>
						</g>
					</g>
				</g>
				<g id="text_3">
					<g transform="translate(119.739999 260.638438)scale(0.1 -0.1)">
						<g>
							<path id="DejaVuSans-53_1_" d="M10.8,72.9h38.7v-8.3H19.8V46.7c1.4,0.5,2.9,0.9,4.3,1.1c1.4,0.2,2.9,0.4,4.3,0.4
								c8.1,0,14.6-2.2,19.3-6.7c4.8-4.5,7.1-10.5,7.1-18.1c0-7.8-2.4-13.9-7.3-18.3c-4.9-4.3-11.8-6.5-20.7-6.5
								c-3.1,0-6.2,0.3-9.4,0.8c-3.2,0.5-6.4,1.3-9.8,2.3v9.9c2.9-1.6,6-2.8,9.1-3.6s6.4-1.2,9.9-1.2c5.6,0,10.1,1.5,13.4,4.4
								c3.3,3,4.9,7,4.9,12.1c0,5.1-1.6,9.1-4.9,12c-3.3,3-7.7,4.5-13.4,4.5c-2.6,0-5.3-0.3-7.9-0.9c-2.6-0.6-5.3-1.5-8-2.7V72.9z"
								/>
						</g>
						<g>
							<path id="DejaVuSans-46_2_" d="M74.3,12.4h10.3V0H74.3V12.4z"/>
						</g>
						<g>
							<path id="DejaVuSans-48_2_" d="M127.2,66.4c-5.1,0-8.9-2.5-11.5-7.5c-2.6-5-3.8-12.5-3.8-22.5c0-10,1.3-17.5,3.8-22.5
								c2.6-5,6.4-7.5,11.5-7.5c5.1,0,8.9,2.5,11.5,7.5c2.6,5,3.8,12.5,3.8,22.5c0,10-1.3,17.5-3.8,22.5
								C136.1,63.9,132.3,66.4,127.2,66.4z M127.2,74.2c8.2,0,14.4-3.2,18.7-9.7c4.3-6.5,6.5-15.8,6.5-28.1
								c0-12.3-2.2-21.6-6.5-28.1c-4.3-6.5-10.6-9.7-18.7-9.7c-8.2,0-14.4,3.2-18.7,9.7c-4.3,6.5-6.5,15.8-6.5,28.1
								c0,12.3,2.2,21.7,6.5,28.1C112.8,71,119,74.2,127.2,74.2z"/>
						</g>
					</g>
				</g>
			</g>
			<g id="xtick_4">
				<g id="line2d_4">
					<g>
						<g>
							<path id="m039d6828a3_3_" class="st1" d="M167.6,246v3.5"/>
						</g>
					</g>
				</g>
				<g id="text_4">
					<g transform="translate(159.68078 260.638438)scale(0.1 -0.1)">
						<g>
							<path id="DejaVuSans-55" d="M8.2,72.9h46.9v-4.2L28.6,0H18.3l24.9,64.6h-35V72.9z"/>
						</g>
						<g>
							<path id="DejaVuSans-46_3_" d="M74.3,12.4h10.3V0H74.3V12.4z"/>
						</g>
						<g>
							<path id="DejaVuSans-53_2_" d="M106.2,72.9h38.7v-8.3h-29.7V46.7c1.4,0.5,2.9,0.9,4.3,1.1c1.4,0.2,2.9,0.4,4.3,0.4
								c8.1,0,14.6-2.2,19.3-6.7c4.8-4.5,7.1-10.5,7.1-18.1c0-7.8-2.4-13.9-7.3-18.3c-4.9-4.3-11.8-6.5-20.7-6.5
								c-3.1,0-6.2,0.3-9.4,0.8c-3.2,0.5-6.4,1.3-9.8,2.3v9.9c2.9-1.6,6-2.8,9.1-3.6s6.4-1.2,9.9-1.2c5.6,0,10.1,1.5,13.4,4.4
								c3.3,3,4.9,7,4.9,12.1c0,5.1-1.6,9.1-4.9,12c-3.3,3-7.7,4.5-13.4,4.5c-2.6,0-5.3-0.3-7.9-0.9c-2.6-0.6-5.3-1.5-8-2.7V72.9z"
								/>
						</g>
					</g>
				</g>
			</g>
			<g id="text_5">
				<g transform="translate(104.77955 274.316562)scale(0.1 -0.1)">
					<g>
						<path id="DejaVuSans-88" d="M6.3,72.9h10.6L35,45.8l18.2,27.1h10.6l-23.4-35L65.4,0H54.8L34.3,31L13.6,0H3l26,38.9L6.3,72.9z"
							/>
					</g>
					<g>
						<path id="DejaVuSans-32" d="M68.5,0"/>
					</g>
					<g>
						<path id="DejaVuSans-40" d="M131.3,75.9c-4.4-7.5-7.6-14.9-9.7-22.2c-2.1-7.3-3.2-14.7-3.2-22.3c0-7.5,1.1-15,3.2-22.3
							s5.4-14.8,9.7-22.3h-7.8c-4.9,7.7-8.5,15.2-11,22.6c-2.4,7.4-3.6,14.7-3.6,22c0,7.3,1.2,14.6,3.6,21.9
							c2.4,7.4,6.1,14.9,11,22.6H131.3z"/>
					</g>
					<g>
						<path id="DejaVuSans-107" d="M148.4,76h9V31.1l26.8,23.6h11.5l-29-25.6L196.9,0h-11.7l-27.8,26.7V0h-9V76z"/>
					</g>
					<g>
						<path id="DejaVuSans-109" d="M249.2,44.2c2.3,4,4.9,7,8.1,8.9s6.8,2.9,11,2.9c5.7,0,10.1-2,13.2-6c3.1-4,4.6-9.6,4.6-17V0h-9
							v32.7c0,5.2-0.9,9.1-2.8,11.7c-1.9,2.5-4.7,3.8-8.5,3.8c-4.7,0-8.3-1.5-11-4.6c-2.7-3.1-4-7.3-4-12.6V0h-9v32.7
							c0,5.3-0.9,9.2-2.8,11.7s-4.7,3.8-8.6,3.8c-4.6,0-8.2-1.6-11-4.7c-2.7-3.1-4-7.3-4-12.6V0h-9v54.7h9v-8.5
							c2.1,3.4,4.5,5.8,7.4,7.4S229,56,232.9,56c4,0,7.4-1,10.1-3C245.8,51,247.9,48,249.2,44.2z"/>
					</g>
					<g>
						<path id="DejaVuSans-41" d="M302.6,75.9h7.8c4.9-7.7,8.5-15.2,11-22.6c2.4-7.4,3.6-14.7,3.6-21.9c0-7.3-1.2-14.6-3.6-22
							s-6.1-14.9-11-22.6h-7.8c4.3,7.5,7.6,14.9,9.7,22.3s3.2,14.8,3.2,22.3c0,7.5-1.1,14.9-3.2,22.3C310.2,61,307,68.4,302.6,75.9z
							"/>
					</g>
				</g>
			</g>
		</g>
		<g id="matplotlib.axis_2">
			<g id="ytick_1">
				<g id="line2d_5">
					<g>
						<g>
							<path id="m6752bd64b6" class="st1" d="M47.8,14.8h-3.5"/>
						</g>
					</g>
				</g>
				<g id="text_6">
					<g transform="translate(24.906875 18.559219)scale(0.1 -0.1)">
						<g>
							<path id="DejaVuSans-48_3_" d="M31.8,66.4c-5.1,0-8.9-2.5-11.5-7.5c-2.6-5-3.8-12.5-3.8-22.5c0-10,1.3-17.5,3.8-22.5
								c2.6-5,6.4-7.5,11.5-7.5c5.1,0,8.9,2.5,11.5,7.5c2.6,5,3.8,12.5,3.8,22.5c0,10-1.3,17.5-3.8,22.5
								C40.7,63.9,36.9,66.4,31.8,66.4z M31.8,74.2c8.2,0,14.4-3.2,18.7-9.7c4.3-6.5,6.5-15.8,6.5-28.1c0-12.3-2.2-21.6-6.5-28.1
								C46.2,1.8,40-1.4,31.8-1.4c-8.2,0-14.4,3.2-18.7,9.7c-4.3,6.5-6.5,15.8-6.5,28.1c0,12.3,2.2,21.7,6.5,28.1
								C17.4,71,23.6,74.2,31.8,74.2z"/>
						</g>
						<g>
							<path id="DejaVuSans-46_4_" d="M74.3,12.4h10.3V0H74.3V12.4z"/>
						</g>
						<g>
							<path id="DejaVuSans-48_4_" d="M127.2,66.4c-5.1,0-8.9-2.5-11.5-7.5c-2.6-5-3.8-12.5-3.8-22.5c0-10,1.3-17.5,3.8-22.5
								c2.6-5,6.4-7.5,11.5-7.5c5.1,0,8.9,2.5,11.5,7.5c2.6,5,3.8,12.5,3.8,22.5c0,10-1.3,17.5-3.8,22.5
								C136.1,63.9,132.3,66.4,127.2,66.4z M127.2,74.2c8.2,0,14.4-3.2,18.7-9.7c4.3-6.5,6.5-15.8,6.5-28.1
								c0-12.3-2.2-21.6-6.5-28.1c-4.3-6.5-10.6-9.7-18.7-9.7c-8.2,0-14.4,3.2-18.7,9.7c-4.3,6.5-6.5,15.8-6.5,28.1
								c0,12.3,2.2,21.7,6.5,28.1C112.8,71,119,74.2,127.2,74.2z"/>
						</g>
					</g>
				</g>
			</g>
			<g id="ytick_2">
				<g id="line2d_6">
					<g>
						<g>
							<path id="m6752bd64b6_1_" class="st1" d="M47.8,53.1h-3.5"/>
						</g>
					</g>
				</g>
				<g id="text_7">
					<g transform="translate(24.906875 56.850609)scale(0.1 -0.1)">
						<g>
							<path id="DejaVuSans-48_5_" d="M31.8,66.4c-5.1,0-8.9-2.5-11.5-7.5c-2.6-5-3.8-12.5-3.8-22.5c0-10,1.3-17.5,3.8-22.5
								c2.6-5,6.4-7.5,11.5-7.5c5.1,0,8.9,2.5,11.5,7.5c2.6,5,3.8,12.5,3.8,22.5c0,10-1.3,17.5-3.8,22.5
								C40.7,63.9,36.9,66.4,31.8,66.4z M31.8,74.2c8.2,0,14.4-3.2,18.7-9.7c4.3-6.5,6.5-15.8,6.5-28.1c0-12.3-2.2-21.6-6.5-28.1
								C46.2,1.8,40-1.4,31.8-1.4c-8.2,0-14.4,3.2-18.7,9.7c-4.3,6.5-6.5,15.8-6.5,28.1c0,12.3,2.2,21.7,6.5,28.1
								C17.4,71,23.6,74.2,31.8,74.2z"/>
						</g>
						<g>
							<path id="DejaVuSans-46_5_" d="M74.3,12.4h10.3V0H74.3V12.4z"/>
						</g>
						<g>
							<path id="DejaVuSans-53_3_" d="M106.2,72.9h38.7v-8.3h-29.7V46.7c1.4,0.5,2.9,0.9,4.3,1.1c1.4,0.2,2.9,0.4,4.3,0.4
								c8.1,0,14.6-2.2,19.3-6.7c4.8-4.5,7.1-10.5,7.1-18.1c0-7.8-2.4-13.9-7.3-18.3c-4.9-4.3-11.8-6.5-20.7-6.5
								c-3.1,0-6.2,0.3-9.4,0.8c-3.2,0.5-6.4,1.3-9.8,2.3v9.9c2.9-1.6,6-2.8,9.1-3.6s6.4-1.2,9.9-1.2c5.6,0,10.1,1.5,13.4,4.4
								c3.3,3,4.9,7,4.9,12.1c0,5.1-1.6,9.1-4.9,12c-3.3,3-7.7,4.5-13.4,4.5c-2.6,0-5.3-0.3-7.9-0.9c-2.6-0.6-5.3-1.5-8-2.7V72.9z"
								/>
						</g>
					</g>
				</g>
			</g>
			<g id="ytick_3">
				<g id="line2d_7">
					<g>
						<g>
							<path id="m6752bd64b6_2_" class="st1" d="M47.8,91.3h-3.5"/>
						</g>
					</g>
				</g>
				<g id="text_8">
					<g transform="translate(24.906875 95.142)scale(0.1 -0.1)">
						<g>
							<path id="DejaVuSans-49" d="M12.4,8.3h16.1v55.6L11,60.4v9l17.4,3.5h9.9V8.3h16.1V0h-42V8.3z"/>
						</g>
						<g>
							<path id="DejaVuSans-46_6_" d="M74.3,12.4h10.3V0H74.3V12.4z"/>
						</g>
						<g>
							<path id="DejaVuSans-48_6_" d="M127.2,66.4c-5.1,0-8.9-2.5-11.5-7.5c-2.6-5-3.8-12.5-3.8-22.5c0-10,1.3-17.5,3.8-22.5
								c2.6-5,6.4-7.5,11.5-7.5c5.1,0,8.9,2.5,11.5,7.5c2.6,5,3.8,12.5,3.8,22.5c0,10-1.3,17.5-3.8,22.5
								C136.1,63.9,132.3,66.4,127.2,66.4z M127.2,74.2c8.2,0,14.4-3.2,18.7-9.7c4.3-6.5,6.5-15.8,6.5-28.1
								c0-12.3-2.2-21.6-6.5-28.1c-4.3-6.5-10.6-9.7-18.7-9.7c-8.2,0-14.4,3.2-18.7,9.7c-4.3,6.5-6.5,15.8-6.5,28.1
								c0,12.3,2.2,21.7,6.5,28.1C112.8,71,119,74.2,127.2,74.2z"/>
						</g>
					</g>
				</g>
			</g>
			<g id="ytick_4">
				<g id="line2d_8">
					<g>
						<g>
							<path id="m6752bd64b6_3_" class="st1" d="M47.8,129.6h-3.5"/>
						</g>
					</g>
				</g>
				<g id="text_9">
					<g transform="translate(24.906875 133.433391)scale(0.1 -0.1)">
						<g>
							<path id="DejaVuSans-49_1_" d="M12.4,8.3h16.1v55.6L11,60.4v9l17.4,3.5h9.9V8.3h16.1V0h-42V8.3z"/>
						</g>
						<g>
							<path id="DejaVuSans-46_7_" d="M74.3,12.4h10.3V0H74.3V12.4z"/>
						</g>
						<g>
							<path id="DejaVuSans-53_4_" d="M106.2,72.9h38.7v-8.3h-29.7V46.7c1.4,0.5,2.9,0.9,4.3,1.1c1.4,0.2,2.9,0.4,4.3,0.4
								c8.1,0,14.6-2.2,19.3-6.7c4.8-4.5,7.1-10.5,7.1-18.1c0-7.8-2.4-13.9-7.3-18.3c-4.9-4.3-11.8-6.5-20.7-6.5
								c-3.1,0-6.2,0.3-9.4,0.8c-3.2,0.5-6.4,1.3-9.8,2.3v9.9c2.9-1.6,6-2.8,9.1-3.6s6.4-1.2,9.9-1.2c5.6,0,10.1,1.5,13.4,4.4
								c3.3,3,4.9,7,4.9,12.1c0,5.1-1.6,9.1-4.9,12c-3.3,3-7.7,4.5-13.4,4.5c-2.6,0-5.3-0.3-7.9-0.9c-2.6-0.6-5.3-1.5-8-2.7V72.9z"
								/>
						</g>
					</g>
				</g>
			</g>
			<g id="ytick_5">
				<g id="line2d_9">
					<g>
						<g>
							<path id="m6752bd64b6_4_" class="st1" d="M47.8,167.9h-3.5"/>
						</g>
					</g>
				</g>
				<g id="text_10">
					<g transform="translate(24.906875 171.724782)scale(0.1 -0.1)">
						<g>
							<path id="DejaVuSans-50_1_" d="M19.2,8.3h34.4V0H7.3v8.3c3.7,3.9,8.8,9.1,15.3,15.6c6.5,6.5,10.5,10.7,12.2,12.6
								c3.2,3.5,5.4,6.5,6.6,9c1.3,2.5,1.9,4.9,1.9,7.3c0,3.9-1.4,7-4.1,9.5c-2.7,2.4-6.3,3.7-10.6,3.7c-3.1,0-6.4-0.5-9.8-1.6
								c-3.4-1.1-7.1-2.7-11-4.9v10c4,1.6,7.7,2.8,11.1,3.6c3.5,0.8,6.6,1.2,9.5,1.2c7.6,0,13.6-1.9,18.1-5.7
								c4.5-3.8,6.7-8.8,6.7-15.1c0-3-0.6-5.8-1.7-8.5c-1.1-2.7-3.2-5.8-6.1-9.5c-0.8-0.9-3.4-3.7-7.8-8.2
								C33.3,22.7,27.1,16.4,19.2,8.3z"/>
						</g>
						<g>
							<path id="DejaVuSans-46_8_" d="M74.3,12.4h10.3V0H74.3V12.4z"/>
						</g>
						<g>
							<path id="DejaVuSans-48_7_" d="M127.2,66.4c-5.1,0-8.9-2.5-11.5-7.5c-2.6-5-3.8-12.5-3.8-22.5c0-10,1.3-17.5,3.8-22.5
								c2.6-5,6.4-7.5,11.5-7.5c5.1,0,8.9,2.5,11.5,7.5c2.6,5,3.8,12.5,3.8,22.5c0,10-1.3,17.5-3.8,22.5
								C136.1,63.9,132.3,66.4,127.2,66.4z M127.2,74.2c8.2,0,14.4-3.2,18.7-9.7c4.3-6.5,6.5-15.8,6.5-28.1
								c0-12.3-2.2-21.6-6.5-28.1c-4.3-6.5-10.6-9.7-18.7-9.7c-8.2,0-14.4,3.2-18.7,9.7c-4.3,6.5-6.5,15.8-6.5,28.1
								c0,12.3,2.2,21.7,6.5,28.1C112.8,71,119,74.2,127.2,74.2z"/>
						</g>
					</g>
				</g>
			</g>
			<g id="ytick_6">
				<g id="line2d_10">
					<g>
						<g>
							<path id="m6752bd64b6_5_" class="st1" d="M47.8,206.2h-3.5"/>
						</g>
					</g>
				</g>
				<g id="text_11">
					<g transform="translate(24.906875 210.016172)scale(0.1 -0.1)">
						<g>
							<path id="DejaVuSans-50_2_" d="M19.2,8.3h34.4V0H7.3v8.3c3.7,3.9,8.8,9.1,15.3,15.6c6.5,6.5,10.5,10.7,12.2,12.6
								c3.2,3.5,5.4,6.5,6.6,9c1.3,2.5,1.9,4.9,1.9,7.3c0,3.9-1.4,7-4.1,9.5c-2.7,2.4-6.3,3.7-10.6,3.7c-3.1,0-6.4-0.5-9.8-1.6
								c-3.4-1.1-7.1-2.7-11-4.9v10c4,1.6,7.7,2.8,11.1,3.6c3.5,0.8,6.6,1.2,9.5,1.2c7.6,0,13.6-1.9,18.1-5.7
								c4.5-3.8,6.7-8.8,6.7-15.1c0-3-0.6-5.8-1.7-8.5c-1.1-2.7-3.2-5.8-6.1-9.5c-0.8-0.9-3.4-3.7-7.8-8.2
								C33.3,22.7,27.1,16.4,19.2,8.3z"/>
						</g>
						<g>
							<path id="DejaVuSans-46_9_" d="M74.3,12.4h10.3V0H74.3V12.4z"/>
						</g>
						<g>
							<path id="DejaVuSans-53_5_" d="M106.2,72.9h38.7v-8.3h-29.7V46.7c1.4,0.5,2.9,0.9,4.3,1.1c1.4,0.2,2.9,0.4,4.3,0.4
								c8.1,0,14.6-2.2,19.3-6.7c4.8-4.5,7.1-10.5,7.1-18.1c0-7.8-2.4-13.9-7.3-18.3c-4.9-4.3-11.8-6.5-20.7-6.5
								c-3.1,0-6.2,0.3-9.4,0.8c-3.2,0.5-6.4,1.3-9.8,2.3v9.9c2.9-1.6,6-2.8,9.1-3.6s6.4-1.2,9.9-1.2c5.6,0,10.1,1.5,13.4,4.4
								c3.3,3,4.9,7,4.9,12.1c0,5.1-1.6,9.1-4.9,12c-3.3,3-7.7,4.5-13.4,4.5c-2.6,0-5.3-0.3-7.9-0.9c-2.6-0.6-5.3-1.5-8-2.7V72.9z"
								/>
						</g>
					</g>
				</g>
			</g>
			<g id="ytick_7">
				<g id="line2d_11">
					<g>
						<g>
							<path id="m6752bd64b6_6_" class="st1" d="M47.8,244.5h-3.5"/>
						</g>
					</g>
				</g>
				<g id="text_12">
					<g transform="translate(24.906875 248.307563)scale(0.1 -0.1)">
						<g>
							<path id="DejaVuSans-51" d="M40.6,39.3c4.7-1,8.4-3.1,11-6.3c2.7-3.2,4-7.1,4-11.8c0-7.2-2.5-12.8-7.4-16.7
								c-4.9-3.9-12-5.9-21.1-5.9c-3.1,0-6.2,0.3-9.4,0.9S11.1,1,7.6,2.2v9.5c2.7-1.6,5.7-2.8,9-3.6c3.3-0.8,6.7-1.2,10.2-1.2
								c6.2,0,10.9,1.2,14.1,3.7s4.9,6,4.9,10.6c0,4.3-1.5,7.7-4.5,10.1c-3,2.4-7.2,3.6-12.6,3.6h-8.5V43h8.9c4.8,0,8.6,1,11.1,2.9
								s3.9,4.7,3.9,8.4c0,3.7-1.3,6.6-4,8.6c-2.6,2-6.4,3-11.4,3c-2.7,0-5.6-0.3-8.7-0.9c-3.1-0.6-6.5-1.5-10.2-2.7v8.8
								c3.8,1,7.3,1.8,10.5,2.3s6.4,0.8,9.3,0.8c7.5,0,13.4-1.7,17.8-5.1c4.4-3.4,6.5-8,6.5-13.8c0-4-1.2-7.5-3.5-10.2
								S44.8,40.4,40.6,39.3z"/>
						</g>
						<g>
							<path id="DejaVuSans-46_10_" d="M74.3,12.4h10.3V0H74.3V12.4z"/>
						</g>
						<g>
							<path id="DejaVuSans-48_8_" d="M127.2,66.4c-5.1,0-8.9-2.5-11.5-7.5c-2.6-5-3.8-12.5-3.8-22.5c0-10,1.3-17.5,3.8-22.5
								c2.6-5,6.4-7.5,11.5-7.5c5.1,0,8.9,2.5,11.5,7.5c2.6,5,3.8,12.5,3.8,22.5c0,10-1.3,17.5-3.8,22.5
								C136.1,63.9,132.3,66.4,127.2,66.4z M127.2,74.2c8.2,0,14.4-3.2,18.7-9.7c4.3-6.5,6.5-15.8,6.5-28.1
								c0-12.3-2.2-21.6-6.5-28.1c-4.3-6.5-10.6-9.7-18.7-9.7c-8.2,0-14.4,3.2-18.7,9.7c-4.3,6.5-6.5,15.8-6.5,28.1
								c0,12.3,2.2,21.7,6.5,28.1C112.8,71,119,74.2,127.2,74.2z"/>
						</g>
					</g>
				</g>
			</g>
			<g id="text_13">
				<g transform="translate(18.827187 147.08125)rotate(-90)scale(0.1 -0.1)">
					<g>
						<path id="DejaVuSans-90" d="M5.6,72.9h57.3v-7.5L16.8,8.3H64V0H4.5v7.5l46.1,57.1h-45V72.9z"/>
					</g>
					<g>
						<path id="DejaVuSans-32_1_" d="M68.5,0"/>
					</g>
					<g>
						<path id="DejaVuSans-40_1_" d="M131.3,75.9c-4.4-7.5-7.6-14.9-9.7-22.2c-2.1-7.3-3.2-14.7-3.2-22.3c0-7.5,1.1-15,3.2-22.3
							s5.4-14.8,9.7-22.3h-7.8c-4.9,7.7-8.5,15.2-11,22.6c-2.4,7.4-3.6,14.7-3.6,22c0,7.3,1.2,14.6,3.6,21.9
							c2.4,7.4,6.1,14.9,11,22.6H131.3z"/>
					</g>
					<g>
						<path id="DejaVuSans-107_1_" d="M148.4,76h9V31.1l26.8,23.6h11.5l-29-25.6L196.9,0h-11.7l-27.8,26.7V0h-9V76z"/>
					</g>
					<g>
						<path id="DejaVuSans-109_1_" d="M249.2,44.2c2.3,4,4.9,7,8.1,8.9s6.8,2.9,11,2.9c5.7,0,10.1-2,13.2-6c3.1-4,4.6-9.6,4.6-17V0
							h-9v32.7c0,5.2-0.9,9.1-2.8,11.7c-1.9,2.5-4.7,3.8-8.5,3.8c-4.7,0-8.3-1.5-11-4.6c-2.7-3.1-4-7.3-4-12.6V0h-9v32.7
							c0,5.3-0.9,9.2-2.8,11.7s-4.7,3.8-8.6,3.8c-4.6,0-8.2-1.6-11-4.7c-2.7-3.1-4-7.3-4-12.6V0h-9v54.7h9v-8.5
							c2.1,3.4,4.5,5.8,7.4,7.4c2.9,1.6,6.3,2.4,10.2,2.4c4,0,7.4-1,10.1-3C245.8,51,247.9,48,249.2,44.2z"/>
					</g>
					<g>
						<path id="DejaVuSans-41_1_" d="M302.6,75.9h7.8c4.9-7.7,8.5-15.2,11-22.6c2.4-7.4,3.6-14.7,3.6-21.9c0-7.3-1.2-14.6-3.6-22
							s-6.1-14.9-11-22.6h-7.8c4.3,7.5,7.6,14.9,9.7,22.3s3.2,14.8,3.2,22.3c0,7.5-1.1,14.9-3.2,22.3C310.2,61,307,68.4,302.6,75.9z
							"/>
					</g>
				</g>
			</g>
		</g>
		<g id="patch_3">
			<path class="st2" d="M47.8,246V14.8"/>
		</g>
		<g id="patch_4">
			<path class="st2" d="M195.1,246V14.8"/>
		</g>
		<g id="patch_5">
			<path class="st2" d="M47.8,246h147.3"/>
		</g>
		<g id="patch_6">
			<path class="st2" d="M47.8,14.8h147.3"/>
		</g>
	</g>
	<g id="axes_2">
		<g id="patch_7">
			<g>
				<defs>
					<rect id="SVGID_1_" x="204.3" y="14.8" width="11.6" height="231.3"/>
				</defs>
				<clipPath id="SVGID_2_">
					<use xlink:href="#SVGID_1_"  style="overflow:visible;"/>
				</clipPath>
				<path class="st3" d="M204.3,246v-0.9V15.7v-0.9h11.6v0.9v229.5v0.9H204.3z"/>
			</g>
		</g>
		
			<image style="overflow:visible;enable-background:new    ;" width="16" height="321" id="image872c4dea2a" xlink:href="2BCA9E21.png"  transform="matrix(0.72 0 0 -0.72 204.48 246.24)">
		</image>
		<g id="matplotlib.axis_3">
		</g>
		<g id="matplotlib.axis_4">
			<g id="ytick_8">
				<g id="line2d_12">
					<g>
						<g>
							<path id="m260541258d" class="st1" d="M215.9,220h3.5"/>
						</g>
					</g>
				</g>
				<g id="text_14">
					<g transform="translate(222.88195 223.753634)scale(0.1 -0.1)">
						<g>
							<path id="DejaVuSans-50_3_" d="M19.2,8.3h34.4V0H7.3v8.3c3.7,3.9,8.8,9.1,15.3,15.6c6.5,6.5,10.5,10.7,12.2,12.6
								c3.2,3.5,5.4,6.5,6.6,9c1.3,2.5,1.9,4.9,1.9,7.3c0,3.9-1.4,7-4.1,9.5c-2.7,2.4-6.3,3.7-10.6,3.7c-3.1,0-6.4-0.5-9.8-1.6
								c-3.4-1.1-7.1-2.7-11-4.9v10c4,1.6,7.7,2.8,11.1,3.6c3.5,0.8,6.6,1.2,9.5,1.2c7.6,0,13.6-1.9,18.1-5.7
								c4.5-3.8,6.7-8.8,6.7-15.1c0-3-0.6-5.8-1.7-8.5c-1.1-2.7-3.2-5.8-6.1-9.5c-0.8-0.9-3.4-3.7-7.8-8.2
								C33.3,22.7,27.1,16.4,19.2,8.3z"/>
						</g>
					</g>
				</g>
			</g>
			<g id="ytick_9">
				<g id="line2d_13">
					<g>
						<g>
							<path id="m260541258d_1_" class="st1" d="M215.9,174.3h3.5"/>
						</g>
					</g>
				</g>
				<g id="text_15">
					<g transform="translate(222.88195 178.119775)scale(0.1 -0.1)">
						<g>
							<path id="DejaVuSans-51_1_" d="M40.6,39.3c4.7-1,8.4-3.1,11-6.3c2.7-3.2,4-7.1,4-11.8c0-7.2-2.5-12.8-7.4-16.7
								c-4.9-3.9-12-5.9-21.1-5.9c-3.1,0-6.2,0.3-9.4,0.9S11.1,1,7.6,2.2v9.5c2.7-1.6,5.7-2.8,9-3.6c3.3-0.8,6.7-1.2,10.2-1.2
								c6.2,0,10.9,1.2,14.1,3.7c3.2,2.4,4.9,6,4.9,10.6c0,4.3-1.5,7.7-4.5,10.1c-3,2.4-7.2,3.6-12.6,3.6h-8.5V43h8.9
								c4.8,0,8.6,1,11.1,2.9c2.6,1.9,3.9,4.7,3.9,8.4c0,3.7-1.3,6.6-4,8.6c-2.6,2-6.4,3-11.4,3c-2.7,0-5.6-0.3-8.7-0.9
								c-3.1-0.6-6.5-1.5-10.2-2.7v8.8c3.8,1,7.3,1.8,10.5,2.3s6.4,0.8,9.3,0.8c7.5,0,13.4-1.7,17.8-5.1c4.4-3.4,6.5-8,6.5-13.8
								c0-4-1.2-7.5-3.5-10.2S44.8,40.4,40.6,39.3z"/>
						</g>
					</g>
				</g>
			</g>
			<g id="ytick_10">
				<g id="line2d_14">
					<g>
						<g>
							<path id="m260541258d_2_" class="st1" d="M215.9,128.7h3.5"/>
						</g>
					</g>
				</g>
				<g id="text_16">
					<g transform="translate(222.88195 132.485916)scale(0.1 -0.1)">
						<g>
							<path id="DejaVuSans-52" d="M37.8,64.3L12.9,25.4h24.9V64.3z M35.2,72.9h12.4V25.4H58v-8.2H47.6V0h-9.8v17.2H4.9v9.5
								L35.2,72.9z"/>
						</g>
					</g>
				</g>
			</g>
			<g id="ytick_11">
				<g id="line2d_15">
					<g>
						<g>
							<path id="m260541258d_3_" class="st1" d="M215.9,83.1h3.5"/>
						</g>
					</g>
				</g>
				<g id="text_17">
					<g transform="translate(222.88195 86.852058)scale(0.1 -0.1)">
						<g>
							<path id="DejaVuSans-53_6_" d="M10.8,72.9h38.7v-8.3H19.8V46.7c1.4,0.5,2.9,0.9,4.3,1.1c1.4,0.2,2.9,0.4,4.3,0.4
								c8.1,0,14.6-2.2,19.3-6.7c4.8-4.5,7.1-10.5,7.1-18.1c0-7.8-2.4-13.9-7.3-18.3c-4.9-4.3-11.8-6.5-20.7-6.5
								c-3.1,0-6.2,0.3-9.4,0.8c-3.2,0.5-6.4,1.3-9.8,2.3v9.9c2.9-1.6,6-2.8,9.1-3.6s6.4-1.2,9.9-1.2c5.6,0,10.1,1.5,13.4,4.4
								c3.3,3,4.9,7,4.9,12.1c0,5.1-1.6,9.1-4.9,12c-3.3,3-7.7,4.5-13.4,4.5c-2.6,0-5.3-0.3-7.9-0.9c-2.6-0.6-5.3-1.5-8-2.7V72.9z"
								/>
						</g>
					</g>
				</g>
			</g>
			<g id="ytick_12">
				<g id="line2d_16">
					<g>
						<g>
							<path id="m260541258d_4_" class="st1" d="M215.9,37.4h3.5"/>
						</g>
					</g>
				</g>
				<g id="text_18">
					<g transform="translate(222.88195 41.218199)scale(0.1 -0.1)">
						<g>
							<path id="DejaVuSans-54" d="M33,40.4c-4.4,0-7.9-1.5-10.5-4.5c-2.6-3-3.9-7.2-3.9-12.4c0-5.2,1.3-9.4,3.9-12.4
								c2.6-3,6.1-4.6,10.5-4.6s7.9,1.5,10.5,4.6c2.6,3.1,3.9,7.2,3.9,12.4c0,5.3-1.3,9.4-3.9,12.4C40.9,38.9,37.4,40.4,33,40.4z
								 M52.6,71.3v-9c-2.5,1.2-5,2.1-7.5,2.7c-2.5,0.6-5,0.9-7.5,0.9c-6.5,0-11.5-2.2-14.9-6.6c-3.4-4.4-5.4-11-5.9-19.9
								c1.9,2.8,4.3,5,7.2,6.5c2.9,1.5,6.1,2.3,9.6,2.3c7.3,0,13.1-2.2,17.4-6.7c4.3-4.4,6.4-10.5,6.4-18.1c0-7.5-2.2-13.5-6.6-18
								C46.3,0.8,40.4-1.4,33-1.4c-8.4,0-14.9,3.2-19.3,9.7C9.2,14.7,7,24.1,7,36.4c0,11.5,2.7,20.7,8.2,27.6s12.8,10.3,22,10.3
								c2.5,0,5-0.2,7.5-0.7S49.9,72.3,52.6,71.3z"/>
						</g>
					</g>
				</g>
			</g>
			<g id="text_19">
				<g transform="translate(240.842887 167.560938)rotate(-90)scale(0.1 -0.1)">
					<g>
						<path id="DejaVuSans-86" d="M28.6,0L0.8,72.9h10.3l23.1-61.4l23.1,61.4h10.3L39.8,0H28.6z"/>
					</g>
					<g>
						<path id="DejaVuSans-101" d="M116.9,29.6v-4.4H75.5c0.4-6.2,2.3-10.9,5.6-14.1c3.3-3.2,8-4.9,13.9-4.9c3.4,0,6.8,0.4,10,1.3
							c3.2,0.8,6.5,2.1,9.7,3.8V2.8c-3.2-1.4-6.5-2.4-9.9-3.1c-3.4-0.7-6.8-1.1-10.3-1.1c-8.7,0-15.6,2.5-20.7,7.6
							c-5.1,5.1-7.6,12-7.6,20.6c0,8.9,2.4,16,7.3,21.3C78.3,53.4,84.8,56,93,56c7.4,0,13.2-2.4,17.5-7.1
							C114.7,44.2,116.9,37.7,116.9,29.6z M107.9,32.2c-0.1,4.9-1.4,8.8-4.1,11.8c-2.7,2.9-6.2,4.4-10.7,4.4c-5,0-9-1.4-12-4.3
							c-3-2.8-4.7-6.8-5.2-12L107.9,32.2z"/>
					</g>
					<g>
						<path id="DejaVuSans-108" d="M131.6,76h9V0h-9V76z"/>
					</g>
					<g>
						<path id="DejaVuSans-111" d="M180.6,48.4c-4.8,0-8.6-1.9-11.4-5.6c-2.8-3.8-4.2-8.9-4.2-15.5s1.4-11.7,4.2-15.5
							c2.8-3.8,6.6-5.6,11.5-5.6c4.8,0,8.6,1.9,11.4,5.7c2.8,3.8,4.2,8.9,4.2,15.4c0,6.5-1.4,11.6-4.2,15.4
							C189.2,46.5,185.4,48.4,180.6,48.4z M180.6,56c7.8,0,13.9-2.5,18.4-7.6c4.5-5.1,6.7-12.1,6.7-21.1c0-8.9-2.2-16-6.7-21.1
							c-4.5-5.1-10.6-7.6-18.4-7.6c-7.8,0-14,2.5-18.4,7.6c-4.4,5.1-6.7,12.1-6.7,21.1c0,9,2.2,16,6.7,21.1
							C166.6,53.5,172.7,56,180.6,56z"/>
					</g>
					<g>
						<path id="DejaVuSans-99" d="M259.9,52.6v-8.4c-2.5,1.4-5.1,2.5-7.6,3.2c-2.6,0.7-5.1,1-7.7,1c-5.8,0-10.4-1.8-13.6-5.5
							c-3.2-3.7-4.8-8.9-4.8-15.5s1.6-11.9,4.8-15.6c3.2-3.7,7.8-5.5,13.6-5.5c2.6,0,5.2,0.3,7.7,1c2.6,0.7,5.1,1.8,7.6,3.2V2.1
							c-2.5-1.2-5.1-2-7.8-2.6c-2.7-0.6-5.5-0.9-8.6-0.9c-8.2,0-14.8,2.6-19.6,7.8c-4.8,5.2-7.3,12.2-7.3,21c0,8.9,2.4,15.9,7.3,21
							c4.9,5.1,11.6,7.7,20.2,7.7c2.8,0,5.5-0.3,8.1-0.9C254.9,54.6,257.4,53.7,259.9,52.6z"/>
					</g>
					<g>
						<path id="DejaVuSans-105" d="M275.5,54.7h9V0h-9V54.7z M275.5,76h9V64.6h-9V76z"/>
					</g>
					<g>
						<path id="DejaVuSans-116" d="M312.2,70.2V54.7h18.5v-7h-18.5V18c0-4.5,0.6-7.3,1.8-8.6s3.7-1.9,7.5-1.9h9.2V0h-9.2
							c-6.9,0-11.7,1.3-14.4,3.9c-2.6,2.6-4,7.3-4,14.1v29.7h-6.6v7h6.6v15.5H312.2z"/>
					</g>
					<g>
						<path id="DejaVuSans-121" d="M365.3-5.1c-2.5-6.5-5-10.8-7.4-12.7c-2.4-2-5.6-3-9.7-3H341v7.5h5.3c2.5,0,4.4,0.6,5.8,1.8
							c1.4,1.2,2.9,3.9,4.5,8.3l1.6,4.1l-22.1,53.8h9.5l17.1-42.8l17.1,42.8h9.5L365.3-5.1z"/>
					</g>
					<g>
						<path id="DejaVuSans-32_2_" d="M392.3,0"/>
					</g>
					<g>
						<path id="DejaVuSans-40_2_" d="M455.1,75.9c-4.4-7.5-7.6-14.9-9.7-22.2c-2.1-7.3-3.2-14.7-3.2-22.3c0-7.5,1.1-15,3.2-22.3
							c2.1-7.4,5.4-14.8,9.7-22.3h-7.8c-4.9,7.7-8.5,15.2-11,22.6c-2.4,7.4-3.6,14.7-3.6,22c0,7.3,1.2,14.6,3.6,21.9
							c2.4,7.4,6.1,14.9,11,22.6H455.1z"/>
					</g>
					<g>
						<path id="DejaVuSans-107_2_" d="M472.2,76h9V31.1L508,54.7h11.5l-29-25.6L520.7,0H509l-27.8,26.7V0h-9V76z"/>
					</g>
					<g>
						<path id="DejaVuSans-109_2_" d="M573,44.2c2.3,4,4.9,7,8.1,8.9s6.8,2.9,11,2.9c5.7,0,10.1-2,13.2-6c3.1-4,4.6-9.6,4.6-17V0h-9
							v32.7c0,5.2-0.9,9.1-2.8,11.7c-1.9,2.5-4.7,3.8-8.5,3.8c-4.7,0-8.3-1.5-11-4.6c-2.7-3.1-4-7.3-4-12.6V0h-9v32.7
							c0,5.3-0.9,9.2-2.8,11.7c-1.9,2.5-4.7,3.8-8.6,3.8c-4.6,0-8.2-1.6-11-4.7c-2.7-3.1-4-7.3-4-12.6V0h-9v54.7h9v-8.5
							c2.1,3.4,4.5,5.8,7.4,7.4c2.9,1.6,6.3,2.4,10.2,2.4c4,0,7.4-1,10.1-3C569.6,51,571.7,48,573,44.2z"/>
					</g>
					<g>
						<path id="DejaVuSans-47" d="M643.8,72.9h8.3L626.7-9.3h-8.3L643.8,72.9z"/>
					</g>
					<g>
						<path id="DejaVuSans-115" d="M696.4,53.1v-8.5c-2.5,1.3-5.2,2.3-7.9,2.9c-2.7,0.7-5.6,1-8.5,1c-4.5,0-7.8-0.7-10-2
							c-2.2-1.4-3.3-3.4-3.3-6.2c0-2.1,0.8-3.7,2.4-4.9s4.8-2.3,9.6-3.4l3.1-0.7c6.4-1.4,10.9-3.3,13.6-5.8s4-6,4-10.4
							c0-5.1-2-9.1-6-12.1c-4-3-9.5-4.4-16.6-4.4c-2.9,0-6,0.3-9.2,0.9c-3.2,0.6-6.5,1.4-10,2.6v9.3c3.3-1.7,6.6-3,9.8-3.9
							c3.2-0.9,6.4-1.3,9.6-1.3c4.2,0,7.5,0.7,9.8,2.2c2.3,1.4,3.4,3.5,3.4,6.1c0,2.4-0.8,4.3-2.5,5.6c-1.6,1.3-5.2,2.6-10.8,3.8
							l-3.1,0.7c-5.6,1.2-9.6,3-12.1,5.4c-2.5,2.4-3.7,5.8-3.7,10c0,5.1,1.8,9.1,5.5,11.9c3.6,2.8,8.8,4.2,15.5,4.2
							c3.3,0,6.4-0.2,9.4-0.7C691.2,54.8,693.9,54.1,696.4,53.1z"/>
					</g>
					<g>
						<path id="DejaVuSans-41_2_" d="M712.2,75.9h7.8c4.9-7.7,8.5-15.2,11-22.6c2.4-7.4,3.6-14.7,3.6-21.9c0-7.3-1.2-14.6-3.6-22
							c-2.4-7.4-6.1-14.9-11-22.6h-7.8c4.3,7.5,7.6,14.9,9.7,22.3c2.1,7.4,3.2,14.8,3.2,22.3c0,7.5-1.1,14.9-3.2,22.3
							C719.8,61,716.6,68.4,712.2,75.9z"/>
					</g>
				</g>
			</g>
		</g>
		<g id="patch_8">
			<path class="st4" d="M204.3,246v-0.9V15.7v-0.9h11.6v0.9v229.5v0.9H204.3z"/>
		</g>
	</g>
</g>
<g>
	<rect x="54.1" y="141.5" class="st0" width="16.6" height="19.1"/>
	<path class="st5" d="M59,145.9l-3.9-0.7c0.3-1.3,1-2.2,1.9-2.9c0.9-0.7,2.3-1,4-1c2,0,3.4,0.4,4.3,1.1s1.3,1.7,1.3,2.8
		c0,0.7-0.2,1.2-0.5,1.8c-0.4,0.5-0.9,1-1.6,1.4c0.6,0.1,1,0.3,1.3,0.5c0.5,0.3,0.9,0.7,1.2,1.2c0.3,0.5,0.4,1.1,0.4,1.8
		c0,0.9-0.2,1.7-0.7,2.5c-0.5,0.8-1.1,1.4-2,1.9c-0.9,0.4-2,0.7-3.4,0.7c-1.4,0-2.4-0.2-3.2-0.5c-0.8-0.3-1.4-0.8-1.9-1.4
		c-0.5-0.6-0.9-1.4-1.2-2.3L59,152c0.2,0.8,0.4,1.4,0.8,1.7c0.3,0.3,0.8,0.5,1.3,0.5c0.6,0,1-0.2,1.4-0.6s0.6-1,0.6-1.6
		c0-0.7-0.2-1.2-0.5-1.6c-0.4-0.4-0.8-0.6-1.5-0.6c-0.3,0-0.8,0.1-1.4,0.2l0.2-3c0.2,0,0.4,0.1,0.5,0.1c0.5,0,1-0.2,1.4-0.5
		c0.4-0.3,0.5-0.8,0.5-1.2c0-0.5-0.1-0.8-0.4-1.1s-0.6-0.4-1.1-0.4c-0.5,0-0.9,0.1-1.2,0.4C59.3,144.6,59.1,145.1,59,145.9z"/>
</g>
<g>
	<rect x="58.2" y="201.5" class="st0" width="14.7" height="17.3"/>
	<path class="st6" d="M68.5,201.3v15.3h-4.2v-10c-0.7,0.5-1.3,0.9-2,1.3c-0.6,0.3-1.4,0.6-2.4,0.9v-3.4c1.4-0.5,2.5-1,3.3-1.7
		c0.8-0.6,1.4-1.4,1.8-2.4H68.5z"/>
</g>
<g>
	<rect x="79.9" y="229.2" class="st0" width="14.7" height="16.3"/>
	<path class="st7" d="M93,244.3H80.5c0.1-1.2,0.6-2.4,1.3-3.5c0.7-1.1,2.1-2.4,4.1-3.9c1.2-0.9,2-1.6,2.3-2.1
		c0.3-0.5,0.5-0.9,0.5-1.3c0-0.5-0.2-0.8-0.5-1.2c-0.3-0.3-0.8-0.5-1.3-0.5c-0.5,0-1,0.2-1.3,0.5c-0.3,0.3-0.6,0.9-0.7,1.8l-4.2-0.3
		c0.2-1.2,0.5-2.1,0.9-2.8c0.4-0.7,1.1-1.2,1.9-1.5c0.8-0.4,1.9-0.5,3.3-0.5c1.5,0,2.6,0.2,3.4,0.5c0.8,0.3,1.5,0.8,1.9,1.5
		c0.5,0.7,0.7,1.5,0.7,2.3c0,0.9-0.3,1.8-0.8,2.6c-0.5,0.8-1.5,1.8-2.9,2.7c-0.8,0.6-1.4,1-1.7,1.2c-0.3,0.2-0.6,0.5-1,0.9H93V244.3
		z"/>
</g>
<g>
	<rect x="174.7" y="174.5" class="st0" width="20.1" height="19.4"/>
	<path class="st8" d="M182.8,186.7h-7.6v-3.4l7.6-9h3.6v9.2h1.9v3.2h-1.9v2.8h-3.6V186.7z M182.8,183.5v-4.7l-4,4.7H182.8z"/>
</g>
</svg>
