<?xml version="1.0" encoding="utf-8"?>
<!-- Generator: Adobe Illustrator 24.3.0, SVG Export Plug-In . SVG Version: 6.00 Build 0)  -->
<svg version="1.1" id="Layer_1" xmlns="http://www.w3.org/2000/svg" xmlns:xlink="http://www.w3.org/1999/xlink" x="0px" y="0px"
	 viewBox="0 0 413.6 260" style="enable-background:new 0 0 413.6 260;" xml:space="preserve">
<style type="text/css">
	.st0{fill:none;}
	.st1{stroke:#000000;stroke-width:0.8;stroke-linejoin:round;}
	.st2{fill:none;stroke:#000000;stroke-width:0.8;stroke-linecap:square;}
	.st3{clip-path:url(#SVGID_2_);fill:#FFFFFF;stroke:#FFFFFF;stroke-width:1.000000e-02;}
	.st4{fill:none;stroke:#000000;stroke-width:0.8;}
</style>
<g id="figure_1">
	<g id="patch_1">
		<path class="st0" d="M-33,260h504V-28H-33V260z"/>
	</g>
	<g id="axes_1">
		<g id="patch_2">
			<path class="st0" d="M30,71.8h312.5V6.6H30V71.8z"/>
		</g>
		
			<image style="overflow:visible;enable-background:new    ;" width="434" height="91" id="image9db633c253" xlink:href="84E7BD98.png"  transform="matrix(0.72 0 0 -0.72 30.3165 72.1235)">
		</image>
		<g id="matplotlib.axis_1">
			<g id="xtick_1">
				<g id="line2d_1">
					<g>
						<g>
							<path id="m531fe61eba" class="st1" d="M30,71.8v3.5"/>
						</g>
					</g>
				</g>
			</g>
			<g id="xtick_2">
				<g id="line2d_2">
					<g>
						<g>
							<path id="m531fe61eba_1_" class="st1" d="M97.7,71.8v3.5"/>
						</g>
					</g>
				</g>
			</g>
			<g id="xtick_3">
				<g id="line2d_3">
					<g>
						<g>
							<path id="m531fe61eba_2_" class="st1" d="M165.5,71.8v3.5"/>
						</g>
					</g>
				</g>
			</g>
			<g id="xtick_4">
				<g id="line2d_4">
					<g>
						<g>
							<path id="m531fe61eba_3_" class="st1" d="M233.3,71.8v3.5"/>
						</g>
					</g>
				</g>
			</g>
			<g id="xtick_5">
				<g id="line2d_5">
					<g>
						<g>
							<path id="m531fe61eba_4_" class="st1" d="M301.1,71.8v3.5"/>
						</g>
					</g>
				</g>
			</g>
		</g>
		<g id="matplotlib.axis_2">
			<g id="ytick_1">
				<g id="line2d_6">
					<g>
						<g>
							<path id="m26af831aea" class="st1" d="M30,6.6h-3.5"/>
						</g>
					</g>
				</g>
				<g id="text_1">
					<g transform="translate(49.6375 38.359219)scale(0.1 -0.1)">
						<g>
							<path id="DejaVuSans-48" d="M-298.7,346c-5.1,0-8.9-2.5-11.5-7.5c-2.6-5-3.8-12.5-3.8-22.5c0-10,1.3-17.5,3.8-22.5
								c2.6-5,6.4-7.5,11.5-7.5c5.1,0,8.9,2.5,11.5,7.5c2.6,5,3.8,12.5,3.8,22.5c0,10-1.3,17.5-3.8,22.5
								C-289.7,343.5-293.5,346-298.7,346z M-298.7,353.8c8.2,0,14.4-3.2,18.7-9.7c4.3-6.5,6.5-15.8,6.5-28.1
								c0-12.3-2.2-21.6-6.5-28.1c-4.3-6.5-10.6-9.7-18.7-9.7c-8.2,0-14.4,3.2-18.7,9.7c-4.3,6.5-6.5,15.8-6.5,28.1
								c0,12.3,2.2,21.7,6.5,28.1C-313.1,350.5-306.8,353.8-298.7,353.8z"/>
						</g>
					</g>
				</g>
			</g>
			<g id="ytick_2">
				<g id="line2d_7">
					<g>
						<g>
							<path id="m26af831aea_1_" class="st1" d="M30,49.8h-3.5"/>
						</g>
					</g>
				</g>
				<g id="text_2">
					<g transform="translate(49.6375 81.553609)scale(0.1 -0.1)">
						<g>
							<path id="DejaVuSans-50" d="M-311.2,287.9h34.4v-8.3h-46.3v8.3c3.7,3.9,8.8,9.1,15.3,15.6c6.5,6.5,10.5,10.7,12.2,12.6
								c3.2,3.5,5.4,6.5,6.6,9c1.3,2.5,1.9,4.9,1.9,7.3c0,3.9-1.4,7-4.1,9.5c-2.7,2.4-6.3,3.7-10.6,3.7c-3.1,0-6.4-0.5-9.8-1.6
								c-3.4-1.1-7.1-2.7-11-4.9v10c4,1.6,7.7,2.8,11.1,3.6c3.5,0.8,6.6,1.2,9.5,1.2c7.6,0,13.6-1.9,18.1-5.7
								c4.5-3.8,6.7-8.8,6.7-15.1c0-3-0.6-5.8-1.7-8.5c-1.1-2.7-3.2-5.8-6.1-9.5c-0.8-0.9-3.4-3.7-7.8-8.2
								C-297.1,302.3-303.3,296-311.2,287.9z"/>
						</g>
					</g>
				</g>
			</g>
			<g id="text_3">
				<g transform="translate(43.557812 83.853015)rotate(-90)scale(0.1 -0.1)">
					<g>
						<path id="DejaVuSans-90" d="M285.2,403.3h57.3v-7.5l-46.1-57.1h47.2v-8.3h-59.5v7.5l46.1,57.1h-45V403.3z"/>
					</g>
					<g>
						<path id="DejaVuSans-32" d="M348.1,330.4"/>
					</g>
					<g>
						<path id="DejaVuSans-40" d="M410.9,406.3c-4.4-7.5-7.6-14.9-9.7-22.2c-2.1-7.3-3.2-14.7-3.2-22.3c0-7.5,1.1-15,3.2-22.3
							s5.4-14.8,9.7-22.3H403c-4.9,7.7-8.5,15.2-11,22.6s-3.6,14.7-3.6,22c0,7.3,1.2,14.6,3.6,21.9c2.4,7.4,6.1,14.9,11,22.6H410.9z
							"/>
					</g>
					<g>
						<path id="DejaVuSans-107" d="M427.9,406.4h9v-44.9l26.8,23.6h11.5l-29-25.6l30.2-29.1h-11.7L437,357.1v-26.7h-9V406.4z"/>
					</g>
					<g>
						<path id="DejaVuSans-109" d="M528.8,374.6c2.3,4,4.9,7,8.1,8.9s6.8,2.9,11,2.9c5.7,0,10.1-2,13.2-6c3.1-4,4.6-9.6,4.6-17v-33
							h-9v32.7c0,5.2-0.9,9.1-2.8,11.7c-1.9,2.5-4.7,3.8-8.5,3.8c-4.7,0-8.3-1.5-11-4.6c-2.7-3.1-4-7.3-4-12.6v-30.9h-9v32.7
							c0,5.3-0.9,9.2-2.8,11.7c-1.9,2.5-4.7,3.8-8.6,3.8c-4.6,0-8.2-1.6-11-4.7c-2.7-3.1-4-7.3-4-12.6v-30.9h-9v54.7h9v-8.5
							c2.1,3.4,4.5,5.8,7.4,7.4s6.3,2.4,10.2,2.4c4,0,7.4-1,10.1-3C525.4,381.4,527.4,378.5,528.8,374.6z"/>
					</g>
					<g>
						<path id="DejaVuSans-41" d="M582.2,406.3h7.8c4.9-7.7,8.5-15.2,11-22.6c2.4-7.4,3.6-14.7,3.6-21.9c0-7.3-1.2-14.6-3.6-22
							c-2.4-7.4-6.1-14.9-11-22.6h-7.8c4.3,7.5,7.6,14.9,9.7,22.3c2.1,7.4,3.2,14.8,3.2,22.3c0,7.5-1.1,14.9-3.2,22.3
							C589.8,391.4,586.5,398.8,582.2,406.3z"/>
					</g>
				</g>
			</g>
		</g>
		<g id="patch_3">
			<path class="st2" d="M30,71.8V6.6"/>
		</g>
		<g id="patch_4">
			<path class="st2" d="M342.4,71.8V6.6"/>
		</g>
		<g id="patch_5">
			<path class="st2" d="M30,71.8h312.5"/>
		</g>
		<g id="patch_6">
			<path class="st2" d="M30,6.6h312.5"/>
		</g>
	</g>
	<g id="axes_2">
		<g id="patch_7">
			<path class="st0" d="M30,150.1h312.5V84.9H30V150.1z"/>
		</g>
		
			<image style="overflow:visible;enable-background:new    ;" width="434" height="90" id="image272512b071" xlink:href="84E7BD9F.png"  transform="matrix(0.72 0 0 -0.72 30.3165 149.8835)">
		</image>
		<g id="matplotlib.axis_3">
			<g id="xtick_6">
				<g id="line2d_8">
					<g>
						<g>
							<path id="m531fe61eba_5_" class="st1" d="M30,150.1v3.5"/>
						</g>
					</g>
				</g>
			</g>
			<g id="xtick_7">
				<g id="line2d_9">
					<g>
						<g>
							<path id="m531fe61eba_6_" class="st1" d="M97.7,150.1v3.5"/>
						</g>
					</g>
				</g>
			</g>
			<g id="xtick_8">
				<g id="line2d_10">
					<g>
						<g>
							<path id="m531fe61eba_7_" class="st1" d="M165.5,150.1v3.5"/>
						</g>
					</g>
				</g>
			</g>
			<g id="xtick_9">
				<g id="line2d_11">
					<g>
						<g>
							<path id="m531fe61eba_8_" class="st1" d="M233.3,150.1v3.5"/>
						</g>
					</g>
				</g>
			</g>
			<g id="xtick_10">
				<g id="line2d_12">
					<g>
						<g>
							<path id="m531fe61eba_9_" class="st1" d="M301.1,150.1v3.5"/>
						</g>
					</g>
				</g>
			</g>
		</g>
		<g id="matplotlib.axis_4">
			<g id="ytick_3">
				<g id="line2d_13">
					<g>
						<g>
							<path id="m26af831aea_2_" class="st1" d="M30,84.9h-3.5"/>
						</g>
					</g>
				</g>
				<g id="text_4">
					<g transform="translate(49.6375 116.627454)scale(0.1 -0.1)">
						<g>
							<path id="DejaVuSans-48_1_" d="M-298.7,346c-5.1,0-8.9-2.5-11.5-7.5c-2.6-5-3.8-12.5-3.8-22.5c0-10,1.3-17.5,3.8-22.5
								c2.6-5,6.4-7.5,11.5-7.5c5.1,0,8.9,2.5,11.5,7.5c2.6,5,3.8,12.5,3.8,22.5c0,10-1.3,17.5-3.8,22.5
								C-289.7,343.5-293.5,346-298.7,346z M-298.7,353.8c8.2,0,14.4-3.2,18.7-9.7c4.3-6.5,6.5-15.8,6.5-28.1
								c0-12.3-2.2-21.6-6.5-28.1c-4.3-6.5-10.6-9.7-18.7-9.7c-8.2,0-14.4,3.2-18.7,9.7c-4.3,6.5-6.5,15.8-6.5,28.1
								c0,12.3,2.2,21.7,6.5,28.1C-313.1,350.5-306.8,353.8-298.7,353.8z"/>
						</g>
					</g>
				</g>
			</g>
			<g id="ytick_4">
				<g id="line2d_14">
					<g>
						<g>
							<path id="m26af831aea_3_" class="st1" d="M30,128.1h-3.5"/>
						</g>
					</g>
				</g>
				<g id="text_5">
					<g transform="translate(49.6375 159.821844)scale(0.1 -0.1)">
						<g>
							<path id="DejaVuSans-50_1_" d="M-311.2,287.9h34.4v-8.3h-46.3v8.3c3.7,3.9,8.8,9.1,15.3,15.6c6.5,6.5,10.5,10.7,12.2,12.6
								c3.2,3.5,5.4,6.5,6.6,9c1.3,2.5,1.9,4.9,1.9,7.3c0,3.9-1.4,7-4.1,9.5c-2.7,2.4-6.3,3.7-10.6,3.7c-3.1,0-6.4-0.5-9.8-1.6
								c-3.4-1.1-7.1-2.7-11-4.9v10c4,1.6,7.7,2.8,11.1,3.6c3.5,0.8,6.6,1.2,9.5,1.2c7.6,0,13.6-1.9,18.1-5.7
								c4.5-3.8,6.7-8.8,6.7-15.1c0-3-0.6-5.8-1.7-8.5c-1.1-2.7-3.2-5.8-6.1-9.5c-0.8-0.9-3.4-3.7-7.8-8.2
								C-297.1,302.3-303.3,296-311.2,287.9z"/>
						</g>
					</g>
				</g>
			</g>
			<g id="text_6">
				<g transform="translate(43.557812 162.12125)rotate(-90)scale(0.1 -0.1)">
					<g>
						<path id="DejaVuSans-90_1_" d="M285.2,403.3h57.3v-7.5l-46.1-57.1h47.2v-8.3h-59.5v7.5l46.1,57.1h-45V403.3z"/>
					</g>
					<g>
						<path id="DejaVuSans-32_1_" d="M348.1,330.4"/>
					</g>
					<g>
						<path id="DejaVuSans-40_1_" d="M410.9,406.3c-4.4-7.5-7.6-14.9-9.7-22.2c-2.1-7.3-3.2-14.7-3.2-22.3c0-7.5,1.1-15,3.2-22.3
							s5.4-14.8,9.7-22.3H403c-4.9,7.7-8.5,15.2-11,22.6s-3.6,14.7-3.6,22c0,7.3,1.2,14.6,3.6,21.9c2.4,7.4,6.1,14.9,11,22.6H410.9z
							"/>
					</g>
					<g>
						<path id="DejaVuSans-107_1_" d="M427.9,406.4h9v-44.9l26.8,23.6h11.5l-29-25.6l30.2-29.1h-11.7L437,357.1v-26.7h-9V406.4z"/>
					</g>
					<g>
						<path id="DejaVuSans-109_1_" d="M528.8,374.6c2.3,4,4.9,7,8.1,8.9s6.8,2.9,11,2.9c5.7,0,10.1-2,13.2-6c3.1-4,4.6-9.6,4.6-17
							v-33h-9v32.7c0,5.2-0.9,9.1-2.8,11.7c-1.9,2.5-4.7,3.8-8.5,3.8c-4.7,0-8.3-1.5-11-4.6c-2.7-3.1-4-7.3-4-12.6v-30.9h-9v32.7
							c0,5.3-0.9,9.2-2.8,11.7c-1.9,2.5-4.7,3.8-8.6,3.8c-4.6,0-8.2-1.6-11-4.7c-2.7-3.1-4-7.3-4-12.6v-30.9h-9v54.7h9v-8.5
							c2.1,3.4,4.5,5.8,7.4,7.4s6.3,2.4,10.2,2.4c4,0,7.4-1,10.1-3C525.4,381.4,527.4,378.5,528.8,374.6z"/>
					</g>
					<g>
						<path id="DejaVuSans-41_1_" d="M582.2,406.3h7.8c4.9-7.7,8.5-15.2,11-22.6c2.4-7.4,3.6-14.7,3.6-21.9c0-7.3-1.2-14.6-3.6-22
							c-2.4-7.4-6.1-14.9-11-22.6h-7.8c4.3,7.5,7.6,14.9,9.7,22.3c2.1,7.4,3.2,14.8,3.2,22.3c0,7.5-1.1,14.9-3.2,22.3
							C589.8,391.4,586.5,398.8,582.2,406.3z"/>
					</g>
				</g>
			</g>
		</g>
		<g id="patch_8">
			<path class="st2" d="M30,150.1V84.9"/>
		</g>
		<g id="patch_9">
			<path class="st2" d="M342.4,150.1V84.9"/>
		</g>
		<g id="patch_10">
			<path class="st2" d="M30,150.1h312.5"/>
		</g>
		<g id="patch_11">
			<path class="st2" d="M30,84.9h312.5"/>
		</g>
	</g>
	<g id="axes_3">
		<g id="patch_12">
			<path class="st0" d="M30,228.4h312.5v-65.2H30V228.4z"/>
		</g>
		
			<image style="overflow:visible;enable-background:new    ;" width="434" height="91" id="image98603777b1" xlink:href="84E7BD95.png"  transform="matrix(0.72 0 0 -0.72 30.3165 228.3635)">
		</image>
		<g id="matplotlib.axis_5">
			<g id="xtick_11">
				<g id="line2d_15">
					<g>
						<g>
							<path id="m531fe61eba_10_" class="st1" d="M30,228.4v3.5"/>
						</g>
					</g>
				</g>
				<g id="text_7">
					<g transform="translate(59.81875 270.918437)scale(0.1 -0.1)">
						<g>
							<path id="DejaVuSans-48_2_" d="M-298.7,346c-5.1,0-8.9-2.5-11.5-7.5c-2.6-5-3.8-12.5-3.8-22.5c0-10,1.3-17.5,3.8-22.5
								c2.6-5,6.4-7.5,11.5-7.5c5.1,0,8.9,2.5,11.5,7.5c2.6,5,3.8,12.5,3.8,22.5c0,10-1.3,17.5-3.8,22.5
								C-289.7,343.5-293.5,346-298.7,346z M-298.7,353.8c8.2,0,14.4-3.2,18.7-9.7c4.3-6.5,6.5-15.8,6.5-28.1
								c0-12.3-2.2-21.6-6.5-28.1c-4.3-6.5-10.6-9.7-18.7-9.7c-8.2,0-14.4,3.2-18.7,9.7c-4.3,6.5-6.5,15.8-6.5,28.1
								c0,12.3,2.2,21.7,6.5,28.1C-313.1,350.5-306.8,353.8-298.7,353.8z"/>
						</g>
					</g>
				</g>
			</g>
			<g id="xtick_12">
				<g id="line2d_16">
					<g>
						<g>
							<path id="m531fe61eba_11_" class="st1" d="M97.7,228.4v3.5"/>
						</g>
					</g>
				</g>
				<g id="text_8">
					<g transform="translate(127.60183 270.918437)scale(0.1 -0.1)">
						<g>
							<path id="DejaVuSans-50_2_" d="M-311.2,287.9h34.4v-8.3h-46.3v8.3c3.7,3.9,8.8,9.1,15.3,15.6c6.5,6.5,10.5,10.7,12.2,12.6
								c3.2,3.5,5.4,6.5,6.6,9c1.3,2.5,1.9,4.9,1.9,7.3c0,3.9-1.4,7-4.1,9.5c-2.7,2.4-6.3,3.7-10.6,3.7c-3.1,0-6.4-0.5-9.8-1.6
								c-3.4-1.1-7.1-2.7-11-4.9v10c4,1.6,7.7,2.8,11.1,3.6c3.5,0.8,6.6,1.2,9.5,1.2c7.6,0,13.6-1.9,18.1-5.7
								c4.5-3.8,6.7-8.8,6.7-15.1c0-3-0.6-5.8-1.7-8.5c-1.1-2.7-3.2-5.8-6.1-9.5c-0.8-0.9-3.4-3.7-7.8-8.2
								C-297.1,302.3-303.3,296-311.2,287.9z"/>
						</g>
					</g>
				</g>
			</g>
			<g id="xtick_13">
				<g id="line2d_17">
					<g>
						<g>
							<path id="m531fe61eba_12_" class="st1" d="M165.5,228.4v3.5"/>
						</g>
					</g>
				</g>
				<g id="text_9">
					<g transform="translate(195.384911 270.918437)scale(0.1 -0.1)">
						<g>
							<path id="DejaVuSans-52" d="M-292.6,343.9l-24.9-38.9h24.9V343.9z M-295.2,352.5h12.4V305h10.4v-8.2h-10.4v-17.2h-9.8v17.2
								h-32.9v9.5L-295.2,352.5z"/>
						</g>
					</g>
				</g>
			</g>
			<g id="xtick_14">
				<g id="line2d_18">
					<g>
						<g>
							<path id="m531fe61eba_13_" class="st1" d="M233.3,228.4v3.5"/>
						</g>
					</g>
				</g>
				<g id="text_10">
					<g transform="translate(263.167991 270.918437)scale(0.1 -0.1)">
						<g>
							<path id="DejaVuSans-54" d="M-297.4,319.9c-4.4,0-7.9-1.5-10.5-4.5c-2.6-3-3.9-7.2-3.9-12.4c0-5.2,1.3-9.4,3.9-12.4
								c2.6-3,6.1-4.6,10.5-4.6s7.9,1.5,10.5,4.6c2.6,3.1,3.9,7.2,3.9,12.4c0,5.3-1.3,9.4-3.9,12.4
								C-289.5,318.4-293,319.9-297.4,319.9z M-277.8,350.9v-9c-2.5,1.2-5,2.1-7.5,2.7c-2.5,0.6-5,0.9-7.5,0.9
								c-6.5,0-11.5-2.2-14.9-6.6c-3.4-4.4-5.4-11-5.9-19.9c1.9,2.8,4.3,5,7.2,6.5c2.9,1.5,6.1,2.3,9.6,2.3c7.3,0,13.1-2.2,17.4-6.7
								c4.3-4.4,6.4-10.5,6.4-18.1c0-7.5-2.2-13.5-6.6-18c-4.4-4.5-10.3-6.8-17.7-6.8c-8.4,0-14.9,3.2-19.3,9.7
								c-4.5,6.5-6.7,15.8-6.7,28.1c0,11.5,2.7,20.7,8.2,27.6s12.8,10.3,22,10.3c2.5,0,5-0.2,7.5-0.7
								C-283.2,352.6-280.6,351.8-277.8,350.9z"/>
						</g>
					</g>
				</g>
			</g>
			<g id="xtick_15">
				<g id="line2d_19">
					<g>
						<g>
							<path id="m531fe61eba_14_" class="st1" d="M301.1,228.4v3.5"/>
						</g>
					</g>
				</g>
				<g id="text_11">
					<g transform="translate(330.951071 270.918437)scale(0.1 -0.1)">
						<g>
							<path id="DejaVuSans-56" d="M-298.7,314.2c-4.7,0-8.4-1.3-11.1-3.8c-2.7-2.5-4-6-4-10.3c0-4.4,1.3-7.8,4-10.4
								c2.7-2.5,6.4-3.8,11.1-3.8s8.4,1.3,11.1,3.8c2.7,2.5,4.1,6,4.1,10.3c0,4.4-1.3,7.8-4,10.3
								C-290.2,312.9-293.9,314.2-298.7,314.2z M-308.5,318.4c-4.2,1-7.5,3-9.9,5.9c-2.4,2.9-3.5,6.4-3.5,10.6
								c0,5.8,2.1,10.4,6.2,13.8c4.2,3.4,9.8,5.1,17.1,5.1c7.3,0,13-1.7,17.1-5.1c4.1-3.4,6.2-8,6.2-13.8c0-4.2-1.2-7.7-3.5-10.6
								c-2.4-2.9-5.6-4.9-9.8-5.9c4.8-1.1,8.4-3.3,11.1-6.5c2.7-3.2,4-7.2,4-11.8c0-7.1-2.2-12.5-6.5-16.3
								c-4.3-3.8-10.5-5.7-18.5-5.7c-8,0-14.2,1.9-18.5,5.7c-4.3,3.8-6.5,9.2-6.5,16.3c0,4.6,1.3,8.6,4,11.8
								C-317,315.1-313.3,317.3-308.5,318.4z M-312.1,334c0-3.8,1.2-6.7,3.5-8.8c2.4-2.1,5.7-3.2,9.9-3.2c4.2,0,7.6,1.1,9.9,3.2
								c2.4,2.1,3.6,5.1,3.6,8.8c0,3.8-1.2,6.7-3.6,8.8c-2.4,2.1-5.7,3.2-9.9,3.2c-4.3,0-7.6-1.1-9.9-3.2
								C-310.9,340.7-312.1,337.7-312.1,334z"/>
						</g>
					</g>
				</g>
			</g>
			<g id="text_12">
				<g transform="translate(202.55875 284.596563)scale(0.1 -0.1)">
					<g>
						<path id="DejaVuSans-88" d="M-324.1,352.5h10.6l18.1-27.1l18.2,27.1h10.6l-23.4-35l25-37.9h-10.6l-20.5,31l-20.7-31h-10.6
							l26,38.9L-324.1,352.5z"/>
					</g>
					<g>
						<path id="DejaVuSans-32_2_" d="M-261.9,279.6"/>
					</g>
					<g>
						<path id="DejaVuSans-40_2_" d="M-199.1,355.4c-4.4-7.5-7.6-14.9-9.7-22.2c-2.1-7.3-3.2-14.7-3.2-22.3c0-7.5,1.1-15,3.2-22.3
							c2.1-7.4,5.4-14.8,9.7-22.3h-7.8c-4.9,7.7-8.5,15.2-11,22.6c-2.4,7.4-3.6,14.7-3.6,22c0,7.3,1.2,14.6,3.6,21.9
							c2.4,7.4,6.1,14.9,11,22.6H-199.1z"/>
					</g>
					<g>
						<path id="DejaVuSans-107_2_" d="M-182.1,355.5h9v-44.9l26.8,23.6h11.5l-29-25.6l30.2-29.1h-11.7l-27.8,26.7v-26.7h-9V355.5z"
							/>
					</g>
					<g>
						<path id="DejaVuSans-109_2_" d="M-81.2,323.8c2.3,4,4.9,7,8.1,8.9c3.1,1.9,6.8,2.9,11,2.9c5.7,0,10.1-2,13.2-6
							c3.1-4,4.6-9.6,4.6-17v-33h-9v32.7c0,5.2-0.9,9.1-2.8,11.7c-1.9,2.5-4.7,3.8-8.5,3.8c-4.7,0-8.3-1.5-11-4.6
							c-2.7-3.1-4-7.3-4-12.6v-30.9h-9v32.7c0,5.3-0.9,9.2-2.8,11.7c-1.9,2.5-4.7,3.8-8.6,3.8c-4.6,0-8.2-1.6-11-4.7
							c-2.7-3.1-4-7.3-4-12.6v-30.9h-9v54.7h9v-8.5c2.1,3.4,4.5,5.8,7.4,7.4s6.3,2.4,10.2,2.4c4,0,7.4-1,10.1-3
							C-84.6,330.5-82.6,327.6-81.2,323.8z"/>
					</g>
					<g>
						<path id="DejaVuSans-41_2_" d="M-27.8,355.4h7.8c4.9-7.7,8.5-15.2,11-22.6c2.4-7.4,3.6-14.7,3.6-21.9c0-7.3-1.2-14.6-3.6-22
							s-6.1-14.9-11-22.6h-7.8c4.3,7.5,7.6,14.9,9.7,22.3s3.2,14.8,3.2,22.3c0,7.5-1.1,14.9-3.2,22.3
							C-20.2,340.6-23.5,348-27.8,355.4z"/>
					</g>
				</g>
			</g>
		</g>
		<g id="matplotlib.axis_6">
			<g id="ytick_5">
				<g id="line2d_20">
					<g>
						<g>
							<path id="m26af831aea_4_" class="st1" d="M30,163.1h-3.5"/>
						</g>
					</g>
				</g>
				<g id="text_13">
					<g transform="translate(49.6375 194.895689)scale(0.1 -0.1)">
						<g>
							<path id="DejaVuSans-48_3_" d="M-298.7,346c-5.1,0-8.9-2.5-11.5-7.5c-2.6-5-3.8-12.5-3.8-22.5c0-10,1.3-17.5,3.8-22.5
								c2.6-5,6.4-7.5,11.5-7.5c5.1,0,8.9,2.5,11.5,7.5c2.6,5,3.8,12.5,3.8,22.5c0,10-1.3,17.5-3.8,22.5
								C-289.7,343.5-293.5,346-298.7,346z M-298.7,353.8c8.2,0,14.4-3.2,18.7-9.7c4.3-6.5,6.5-15.8,6.5-28.1
								c0-12.3-2.2-21.6-6.5-28.1c-4.3-6.5-10.6-9.7-18.7-9.7c-8.2,0-14.4,3.2-18.7,9.7c-4.3,6.5-6.5,15.8-6.5,28.1
								c0,12.3,2.2,21.7,6.5,28.1C-313.1,350.5-306.8,353.8-298.7,353.8z"/>
						</g>
					</g>
				</g>
			</g>
			<g id="ytick_6">
				<g id="line2d_21">
					<g>
						<g>
							<path id="m26af831aea_5_" class="st1" d="M30,206.3h-3.5"/>
						</g>
					</g>
				</g>
				<g id="text_14">
					<g transform="translate(49.6375 238.09008)scale(0.1 -0.1)">
						<g>
							<path id="DejaVuSans-50_3_" d="M-311.2,287.9h34.4v-8.3h-46.3v8.3c3.7,3.9,8.8,9.1,15.3,15.6c6.5,6.5,10.5,10.7,12.2,12.6
								c3.2,3.5,5.4,6.5,6.6,9c1.3,2.5,1.9,4.9,1.9,7.3c0,3.9-1.4,7-4.1,9.5c-2.7,2.4-6.3,3.7-10.6,3.7c-3.1,0-6.4-0.5-9.8-1.6
								c-3.4-1.1-7.1-2.7-11-4.9v10c4,1.6,7.7,2.8,11.1,3.6c3.5,0.8,6.6,1.2,9.5,1.2c7.6,0,13.6-1.9,18.1-5.7
								c4.5-3.8,6.7-8.8,6.7-15.1c0-3-0.6-5.8-1.7-8.5c-1.1-2.7-3.2-5.8-6.1-9.5c-0.8-0.9-3.4-3.7-7.8-8.2
								C-297.1,302.3-303.3,296-311.2,287.9z"/>
						</g>
					</g>
				</g>
			</g>
			<g id="text_15">
				<g transform="translate(43.557812 240.389485)rotate(-90)scale(0.1 -0.1)">
					<g>
						<path id="DejaVuSans-90_2_" d="M285.2,403.3h57.3v-7.5l-46.1-57.1h47.2v-8.3h-59.5v7.5l46.1,57.1h-45V403.3z"/>
					</g>
					<g>
						<path id="DejaVuSans-32_3_" d="M348.1,330.4"/>
					</g>
					<g>
						<path id="DejaVuSans-40_3_" d="M410.9,406.3c-4.4-7.5-7.6-14.9-9.7-22.2c-2.1-7.3-3.2-14.7-3.2-22.3c0-7.5,1.1-15,3.2-22.3
							c2.1-7.4,5.4-14.8,9.7-22.3H403c-4.9,7.7-8.5,15.2-11,22.6c-2.4,7.4-3.6,14.7-3.6,22c0,7.3,1.2,14.6,3.6,21.9
							c2.4,7.4,6.1,14.9,11,22.6H410.9z"/>
					</g>
					<g>
						<path id="DejaVuSans-107_3_" d="M427.9,406.4h9v-44.9l26.8,23.6h11.5l-29-25.6l30.2-29.1h-11.7L437,357.1v-26.7h-9V406.4z"/>
					</g>
					<g>
						<path id="DejaVuSans-109_3_" d="M528.8,374.6c2.3,4,4.9,7,8.1,8.9s6.8,2.9,11,2.9c5.7,0,10.1-2,13.2-6c3.1-4,4.6-9.6,4.6-17
							v-33h-9v32.7c0,5.2-0.9,9.1-2.8,11.7c-1.9,2.5-4.7,3.8-8.5,3.8c-4.7,0-8.3-1.5-11-4.6c-2.7-3.1-4-7.3-4-12.6v-30.9h-9v32.7
							c0,5.3-0.9,9.2-2.8,11.7c-1.9,2.5-4.7,3.8-8.6,3.8c-4.6,0-8.2-1.6-11-4.7c-2.7-3.1-4-7.3-4-12.6v-30.9h-9v54.7h9v-8.5
							c2.1,3.4,4.5,5.8,7.4,7.4c2.9,1.6,6.3,2.4,10.2,2.4c4,0,7.4-1,10.1-3C525.4,381.4,527.4,378.5,528.8,374.6z"/>
					</g>
					<g>
						<path id="DejaVuSans-41_3_" d="M582.2,406.3h7.8c4.9-7.7,8.5-15.2,11-22.6c2.4-7.4,3.6-14.7,3.6-21.9c0-7.3-1.2-14.6-3.6-22
							c-2.4-7.4-6.1-14.9-11-22.6h-7.8c4.3,7.5,7.6,14.9,9.7,22.3c2.1,7.4,3.2,14.8,3.2,22.3c0,7.5-1.1,14.9-3.2,22.3
							C589.8,391.4,586.5,398.8,582.2,406.3z"/>
					</g>
				</g>
			</g>
		</g>
		<g id="patch_13">
			<path class="st2" d="M30,228.4v-65.2"/>
		</g>
		<g id="patch_14">
			<path class="st2" d="M342.4,228.4v-65.2"/>
		</g>
		<g id="patch_15">
			<path class="st2" d="M30,228.4h312.5"/>
		</g>
		<g id="patch_16">
			<path class="st2" d="M30,163.1h312.5"/>
		</g>
	</g>
	<g id="axes_4">
		<g id="patch_17">
			<g>
				<defs>
					<rect id="SVGID_1_" x="362" y="6.6" width="11.1" height="221.8"/>
				</defs>
				<clipPath id="SVGID_2_">
					<use xlink:href="#SVGID_1_"  style="overflow:visible;"/>
				</clipPath>
				<path class="st3" d="M362,228.4v-0.9V7.5V6.6h11.1v0.9v220v0.9H362z"/>
			</g>
		</g>
		
			<image style="overflow:visible;enable-background:new    ;" width="15" height="308" id="image96b8bb82ad" xlink:href="84E7BD96.png"  transform="matrix(0.72 0 0 -0.72 362.2365 228.3635)">
		</image>
		<g id="matplotlib.axis_7">
		</g>
		<g id="matplotlib.axis_8">
			<g id="ytick_7">
				<g id="line2d_22">
					<g>
						<g>
							<path id="m68176479d0" class="st1" d="M373.1,228.4h3.5"/>
						</g>
					</g>
				</g>
				<g id="text_16">
					<g transform="translate(413.098 260.119219)scale(0.1 -0.1)">
						<g>
							<path id="DejaVuSans-49" d="M-318,287.9h16.1v55.6l-17.5-3.5v9l17.4,3.5h9.9v-64.6h16.1v-8.3h-42V287.9z"/>
						</g>
						<g>
							<path id="DejaVuSans-46" d="M-256.1,292h10.3v-12.4h-10.3V292z"/>
						</g>
						<g>
							<path id="DejaVuSans-53" d="M-224.2,352.5h38.7v-8.3h-29.7v-17.9c1.4,0.5,2.9,0.9,4.3,1.1c1.4,0.2,2.9,0.4,4.3,0.4
								c8.1,0,14.6-2.2,19.3-6.7c4.8-4.5,7.1-10.5,7.1-18.1c0-7.8-2.4-13.9-7.3-18.3c-4.9-4.3-11.8-6.5-20.7-6.5
								c-3.1,0-6.2,0.3-9.4,0.8c-3.2,0.5-6.4,1.3-9.8,2.3v9.9c2.9-1.6,6-2.8,9.1-3.6s6.4-1.2,9.9-1.2c5.6,0,10.1,1.5,13.4,4.4
								c3.3,3,4.9,7,4.9,12.1c0,5.1-1.6,9.1-4.9,12c-3.3,3-7.7,4.5-13.4,4.5c-2.6,0-5.3-0.3-7.9-0.9c-2.6-0.6-5.3-1.5-8-2.7V352.5z"
								/>
						</g>
					</g>
				</g>
			</g>
			<g id="ytick_8">
				<g id="line2d_23">
					<g>
						<g>
							<path id="m68176479d0_1_" class="st1" d="M373.1,200.6h3.5"/>
						</g>
					</g>
				</g>
				<g id="text_17">
					<g transform="translate(413.098 232.399219)scale(0.1 -0.1)">
						<g>
							<path id="DejaVuSans-50_4_" d="M-311.2,287.9h34.4v-8.3h-46.3v8.3c3.7,3.9,8.8,9.1,15.3,15.6c6.5,6.5,10.5,10.7,12.2,12.6
								c3.2,3.5,5.4,6.5,6.6,9c1.3,2.5,1.9,4.9,1.9,7.3c0,3.9-1.4,7-4.1,9.5c-2.7,2.4-6.3,3.7-10.6,3.7c-3.1,0-6.4-0.5-9.8-1.6
								c-3.4-1.1-7.1-2.7-11-4.9v10c4,1.6,7.7,2.8,11.1,3.6c3.5,0.8,6.6,1.2,9.5,1.2c7.6,0,13.6-1.9,18.1-5.7
								c4.5-3.8,6.7-8.8,6.7-15.1c0-3-0.6-5.8-1.7-8.5c-1.1-2.7-3.2-5.8-6.1-9.5c-0.8-0.9-3.4-3.7-7.8-8.2
								C-297.1,302.3-303.3,296-311.2,287.9z"/>
						</g>
						<g>
							<path id="DejaVuSans-46_1_" d="M-256.1,292h10.3v-12.4h-10.3V292z"/>
						</g>
						<g>
							<path id="DejaVuSans-48_4_" d="M-203.2,346c-5.1,0-8.9-2.5-11.5-7.5c-2.6-5-3.8-12.5-3.8-22.5c0-10,1.3-17.5,3.8-22.5
								c2.6-5,6.4-7.5,11.5-7.5c5.1,0,8.9,2.5,11.5,7.5c2.6,5,3.8,12.5,3.8,22.5c0,10-1.3,17.5-3.8,22.5
								C-194.3,343.5-198.1,346-203.2,346z M-203.2,353.8c8.2,0,14.4-3.2,18.7-9.7c4.3-6.5,6.5-15.8,6.5-28.1
								c0-12.3-2.2-21.6-6.5-28.1c-4.3-6.5-10.6-9.7-18.7-9.7c-8.2,0-14.4,3.2-18.7,9.7c-4.3,6.5-6.5,15.8-6.5,28.1
								c0,12.3,2.2,21.7,6.5,28.1C-217.6,350.5-211.4,353.8-203.2,353.8z"/>
						</g>
					</g>
				</g>
			</g>
			<g id="ytick_9">
				<g id="line2d_24">
					<g>
						<g>
							<path id="m68176479d0_2_" class="st1" d="M373.1,172.9h3.5"/>
						</g>
					</g>
				</g>
				<g id="text_18">
					<g transform="translate(413.098 204.679219)scale(0.1 -0.1)">
						<g>
							<path id="DejaVuSans-50_5_" d="M-311.2,287.9h34.4v-8.3h-46.3v8.3c3.7,3.9,8.8,9.1,15.3,15.6c6.5,6.5,10.5,10.7,12.2,12.6
								c3.2,3.5,5.4,6.5,6.6,9c1.3,2.5,1.9,4.9,1.9,7.3c0,3.9-1.4,7-4.1,9.5c-2.7,2.4-6.3,3.7-10.6,3.7c-3.1,0-6.4-0.5-9.8-1.6
								c-3.4-1.1-7.1-2.7-11-4.9v10c4,1.6,7.7,2.8,11.1,3.6c3.5,0.8,6.6,1.2,9.5,1.2c7.6,0,13.6-1.9,18.1-5.7
								c4.5-3.8,6.7-8.8,6.7-15.1c0-3-0.6-5.8-1.7-8.5c-1.1-2.7-3.2-5.8-6.1-9.5c-0.8-0.9-3.4-3.7-7.8-8.2
								C-297.1,302.3-303.3,296-311.2,287.9z"/>
						</g>
						<g>
							<path id="DejaVuSans-46_2_" d="M-256.1,292h10.3v-12.4h-10.3V292z"/>
						</g>
						<g>
							<path id="DejaVuSans-53_1_" d="M-224.2,352.5h38.7v-8.3h-29.7v-17.9c1.4,0.5,2.9,0.9,4.3,1.1c1.4,0.2,2.9,0.4,4.3,0.4
								c8.1,0,14.6-2.2,19.3-6.7c4.8-4.5,7.1-10.5,7.1-18.1c0-7.8-2.4-13.9-7.3-18.3c-4.9-4.3-11.8-6.5-20.7-6.5
								c-3.1,0-6.2,0.3-9.4,0.8c-3.2,0.5-6.4,1.3-9.8,2.3v9.9c2.9-1.6,6-2.8,9.1-3.6s6.4-1.2,9.9-1.2c5.6,0,10.1,1.5,13.4,4.4
								c3.3,3,4.9,7,4.9,12.1c0,5.1-1.6,9.1-4.9,12c-3.3,3-7.7,4.5-13.4,4.5c-2.6,0-5.3-0.3-7.9-0.9c-2.6-0.6-5.3-1.5-8-2.7V352.5z"
								/>
						</g>
					</g>
				</g>
			</g>
			<g id="ytick_10">
				<g id="line2d_25">
					<g>
						<g>
							<path id="m68176479d0_3_" class="st1" d="M373.1,145.2h3.5"/>
						</g>
					</g>
				</g>
				<g id="text_19">
					<g transform="translate(413.098 176.959219)scale(0.1 -0.1)">
						<g>
							<path id="DejaVuSans-51" d="M-289.9,318.9c4.7-1,8.4-3.1,11-6.3c2.7-3.2,4-7.1,4-11.8c0-7.2-2.5-12.8-7.4-16.7
								c-4.9-3.9-12-5.9-21.1-5.9c-3.1,0-6.2,0.3-9.4,0.9s-6.6,1.5-10,2.7v9.5c2.7-1.6,5.7-2.8,9-3.6c3.3-0.8,6.7-1.2,10.2-1.2
								c6.2,0,10.9,1.2,14.1,3.7s4.9,6,4.9,10.6c0,4.3-1.5,7.7-4.5,10.1c-3,2.4-7.2,3.6-12.6,3.6h-8.5v8.1h8.9c4.8,0,8.6,1,11.1,2.9
								s3.9,4.7,3.9,8.4c0,3.7-1.3,6.6-4,8.6c-2.6,2-6.4,3-11.4,3c-2.7,0-5.6-0.3-8.7-0.9c-3.1-0.6-6.5-1.5-10.2-2.7v8.8
								c3.8,1,7.3,1.8,10.5,2.3s6.4,0.8,9.3,0.8c7.5,0,13.4-1.7,17.8-5.1c4.4-3.4,6.5-8,6.5-13.8c0-4-1.2-7.5-3.5-10.2
								S-285.6,320-289.9,318.9z"/>
						</g>
						<g>
							<path id="DejaVuSans-46_3_" d="M-256.1,292h10.3v-12.4h-10.3V292z"/>
						</g>
						<g>
							<path id="DejaVuSans-48_5_" d="M-203.2,346c-5.1,0-8.9-2.5-11.5-7.5c-2.6-5-3.8-12.5-3.8-22.5c0-10,1.3-17.5,3.8-22.5
								c2.6-5,6.4-7.5,11.5-7.5c5.1,0,8.9,2.5,11.5,7.5c2.6,5,3.8,12.5,3.8,22.5c0,10-1.3,17.5-3.8,22.5
								C-194.3,343.5-198.1,346-203.2,346z M-203.2,353.8c8.2,0,14.4-3.2,18.7-9.7c4.3-6.5,6.5-15.8,6.5-28.1
								c0-12.3-2.2-21.6-6.5-28.1c-4.3-6.5-10.6-9.7-18.7-9.7c-8.2,0-14.4,3.2-18.7,9.7c-4.3,6.5-6.5,15.8-6.5,28.1
								c0,12.3,2.2,21.7,6.5,28.1C-217.6,350.5-211.4,353.8-203.2,353.8z"/>
						</g>
					</g>
				</g>
			</g>
			<g id="ytick_11">
				<g id="line2d_26">
					<g>
						<g>
							<path id="m68176479d0_4_" class="st1" d="M373.1,117.5h3.5"/>
						</g>
					</g>
				</g>
				<g id="text_20">
					<g transform="translate(413.098 149.239219)scale(0.1 -0.1)">
						<g>
							<path id="DejaVuSans-51_1_" d="M-289.9,318.9c4.7-1,8.4-3.1,11-6.3c2.7-3.2,4-7.1,4-11.8c0-7.2-2.5-12.8-7.4-16.7
								c-4.9-3.9-12-5.9-21.1-5.9c-3.1,0-6.2,0.3-9.4,0.9s-6.6,1.5-10,2.7v9.5c2.7-1.6,5.7-2.8,9-3.6c3.3-0.8,6.7-1.2,10.2-1.2
								c6.2,0,10.9,1.2,14.1,3.7s4.9,6,4.9,10.6c0,4.3-1.5,7.7-4.5,10.1c-3,2.4-7.2,3.6-12.6,3.6h-8.5v8.1h8.9c4.8,0,8.6,1,11.1,2.9
								s3.9,4.7,3.9,8.4c0,3.7-1.3,6.6-4,8.6c-2.6,2-6.4,3-11.4,3c-2.7,0-5.6-0.3-8.7-0.9c-3.1-0.6-6.5-1.5-10.2-2.7v8.8
								c3.8,1,7.3,1.8,10.5,2.3s6.4,0.8,9.3,0.8c7.5,0,13.4-1.7,17.8-5.1c4.4-3.4,6.5-8,6.5-13.8c0-4-1.2-7.5-3.5-10.2
								S-285.6,320-289.9,318.9z"/>
						</g>
						<g>
							<path id="DejaVuSans-46_4_" d="M-256.1,292h10.3v-12.4h-10.3V292z"/>
						</g>
						<g>
							<path id="DejaVuSans-53_2_" d="M-224.2,352.5h38.7v-8.3h-29.7v-17.9c1.4,0.5,2.9,0.9,4.3,1.1c1.4,0.2,2.9,0.4,4.3,0.4
								c8.1,0,14.6-2.2,19.3-6.7c4.8-4.5,7.1-10.5,7.1-18.1c0-7.8-2.4-13.9-7.3-18.3c-4.9-4.3-11.8-6.5-20.7-6.5
								c-3.1,0-6.2,0.3-9.4,0.8c-3.2,0.5-6.4,1.3-9.8,2.3v9.9c2.9-1.6,6-2.8,9.1-3.6s6.4-1.2,9.9-1.2c5.6,0,10.1,1.5,13.4,4.4
								c3.3,3,4.9,7,4.9,12.1c0,5.1-1.6,9.1-4.9,12c-3.3,3-7.7,4.5-13.4,4.5c-2.6,0-5.3-0.3-7.9-0.9c-2.6-0.6-5.3-1.5-8-2.7V352.5z"
								/>
						</g>
					</g>
				</g>
			</g>
			<g id="ytick_12">
				<g id="line2d_27">
					<g>
						<g>
							<path id="m68176479d0_5_" class="st1" d="M373.1,89.8h3.5"/>
						</g>
					</g>
				</g>
				<g id="text_21">
					<g transform="translate(413.098 121.519219)scale(0.1 -0.1)">
						<g>
							<path id="DejaVuSans-52_1_" d="M-292.6,343.9l-24.9-38.9h24.9V343.9z M-295.2,352.5h12.4V305h10.4v-8.2h-10.4v-17.2h-9.8
								v17.2h-32.9v9.5L-295.2,352.5z"/>
						</g>
						<g>
							<path id="DejaVuSans-46_5_" d="M-256.1,292h10.3v-12.4h-10.3V292z"/>
						</g>
						<g>
							<path id="DejaVuSans-48_6_" d="M-203.2,346c-5.1,0-8.9-2.5-11.5-7.5c-2.6-5-3.8-12.5-3.8-22.5c0-10,1.3-17.5,3.8-22.5
								c2.6-5,6.4-7.5,11.5-7.5c5.1,0,8.9,2.5,11.5,7.5c2.6,5,3.8,12.5,3.8,22.5c0,10-1.3,17.5-3.8,22.5
								C-194.3,343.5-198.1,346-203.2,346z M-203.2,353.8c8.2,0,14.4-3.2,18.7-9.7c4.3-6.5,6.5-15.8,6.5-28.1
								c0-12.3-2.2-21.6-6.5-28.1c-4.3-6.5-10.6-9.7-18.7-9.7c-8.2,0-14.4,3.2-18.7,9.7c-4.3,6.5-6.5,15.8-6.5,28.1
								c0,12.3,2.2,21.7,6.5,28.1C-217.6,350.5-211.4,353.8-203.2,353.8z"/>
						</g>
					</g>
				</g>
			</g>
			<g id="ytick_13">
				<g id="line2d_28">
					<g>
						<g>
							<path id="m68176479d0_6_" class="st1" d="M373.1,62h3.5"/>
						</g>
					</g>
				</g>
				<g id="text_22">
					<g transform="translate(413.098 93.799219)scale(0.1 -0.1)">
						<g>
							<path id="DejaVuSans-52_2_" d="M-292.6,343.9l-24.9-38.9h24.9V343.9z M-295.2,352.5h12.4V305h10.4v-8.2h-10.4v-17.2h-9.8
								v17.2h-32.9v9.5L-295.2,352.5z"/>
						</g>
						<g>
							<path id="DejaVuSans-46_6_" d="M-256.1,292h10.3v-12.4h-10.3V292z"/>
						</g>
						<g>
							<path id="DejaVuSans-53_3_" d="M-224.2,352.5h38.7v-8.3h-29.7v-17.9c1.4,0.5,2.9,0.9,4.3,1.1c1.4,0.2,2.9,0.4,4.3,0.4
								c8.1,0,14.6-2.2,19.3-6.7c4.8-4.5,7.1-10.5,7.1-18.1c0-7.8-2.4-13.9-7.3-18.3c-4.9-4.3-11.8-6.5-20.7-6.5
								c-3.1,0-6.2,0.3-9.4,0.8c-3.2,0.5-6.4,1.3-9.8,2.3v9.9c2.9-1.6,6-2.8,9.1-3.6s6.4-1.2,9.9-1.2c5.6,0,10.1,1.5,13.4,4.4
								c3.3,3,4.9,7,4.9,12.1c0,5.1-1.6,9.1-4.9,12c-3.3,3-7.7,4.5-13.4,4.5c-2.6,0-5.3-0.3-7.9-0.9c-2.6-0.6-5.3-1.5-8-2.7V352.5z"
								/>
						</g>
					</g>
				</g>
			</g>
			<g id="ytick_14">
				<g id="line2d_29">
					<g>
						<g>
							<path id="m68176479d0_7_" class="st1" d="M373.1,34.3h3.5"/>
						</g>
					</g>
				</g>
				<g id="text_23">
					<g transform="translate(413.098 66.079219)scale(0.1 -0.1)">
						<g>
							<path id="DejaVuSans-53_4_" d="M-319.6,352.5h38.7v-8.3h-29.7v-17.9c1.4,0.5,2.9,0.9,4.3,1.1c1.4,0.2,2.9,0.4,4.3,0.4
								c8.1,0,14.6-2.2,19.3-6.7c4.8-4.5,7.1-10.5,7.1-18.1c0-7.8-2.4-13.9-7.3-18.3c-4.9-4.3-11.8-6.5-20.7-6.5
								c-3.1,0-6.2,0.3-9.4,0.8c-3.2,0.5-6.4,1.3-9.8,2.3v9.9c2.9-1.6,6-2.8,9.1-3.6s6.4-1.2,9.9-1.2c5.6,0,10.1,1.5,13.4,4.4
								c3.3,3,4.9,7,4.9,12.1c0,5.1-1.6,9.1-4.9,12c-3.3,3-7.7,4.5-13.4,4.5c-2.6,0-5.3-0.3-7.9-0.9c-2.6-0.6-5.3-1.5-8-2.7V352.5z"
								/>
						</g>
						<g>
							<path id="DejaVuSans-46_7_" d="M-256.1,292h10.3v-12.4h-10.3V292z"/>
						</g>
						<g>
							<path id="DejaVuSans-48_7_" d="M-203.2,346c-5.1,0-8.9-2.5-11.5-7.5c-2.6-5-3.8-12.5-3.8-22.5c0-10,1.3-17.5,3.8-22.5
								c2.6-5,6.4-7.5,11.5-7.5c5.1,0,8.9,2.5,11.5,7.5c2.6,5,3.8,12.5,3.8,22.5c0,10-1.3,17.5-3.8,22.5
								C-194.3,343.5-198.1,346-203.2,346z M-203.2,353.8c8.2,0,14.4-3.2,18.7-9.7c4.3-6.5,6.5-15.8,6.5-28.1
								c0-12.3-2.2-21.6-6.5-28.1c-4.3-6.5-10.6-9.7-18.7-9.7c-8.2,0-14.4,3.2-18.7,9.7c-4.3,6.5-6.5,15.8-6.5,28.1
								c0,12.3,2.2,21.7,6.5,28.1C-217.6,350.5-211.4,353.8-203.2,353.8z"/>
						</g>
					</g>
				</g>
			</g>
			<g id="ytick_15">
				<g id="line2d_30">
					<g>
						<g>
							<path id="m68176479d0_8_" class="st1" d="M373.1,6.6h3.5"/>
						</g>
					</g>
				</g>
				<g id="text_24">
					<g transform="translate(413.098 38.359219)scale(0.1 -0.1)">
						<g>
							<path id="DejaVuSans-53_5_" d="M-319.6,352.5h38.7v-8.3h-29.7v-17.9c1.4,0.5,2.9,0.9,4.3,1.1c1.4,0.2,2.9,0.4,4.3,0.4
								c8.1,0,14.6-2.2,19.3-6.7c4.8-4.5,7.1-10.5,7.1-18.1c0-7.8-2.4-13.9-7.3-18.3c-4.9-4.3-11.8-6.5-20.7-6.5
								c-3.1,0-6.2,0.3-9.4,0.8c-3.2,0.5-6.4,1.3-9.8,2.3v9.9c2.9-1.6,6-2.8,9.1-3.6s6.4-1.2,9.9-1.2c5.6,0,10.1,1.5,13.4,4.4
								c3.3,3,4.9,7,4.9,12.1c0,5.1-1.6,9.1-4.9,12c-3.3,3-7.7,4.5-13.4,4.5c-2.6,0-5.3-0.3-7.9-0.9c-2.6-0.6-5.3-1.5-8-2.7V352.5z"
								/>
						</g>
						<g>
							<path id="DejaVuSans-46_8_" d="M-256.1,292h10.3v-12.4h-10.3V292z"/>
						</g>
						<g>
							<path id="DejaVuSans-53_6_" d="M-224.2,352.5h38.7v-8.3h-29.7v-17.9c1.4,0.5,2.9,0.9,4.3,1.1c1.4,0.2,2.9,0.4,4.3,0.4
								c8.1,0,14.6-2.2,19.3-6.7c4.8-4.5,7.1-10.5,7.1-18.1c0-7.8-2.4-13.9-7.3-18.3c-4.9-4.3-11.8-6.5-20.7-6.5
								c-3.1,0-6.2,0.3-9.4,0.8c-3.2,0.5-6.4,1.3-9.8,2.3v9.9c2.9-1.6,6-2.8,9.1-3.6s6.4-1.2,9.9-1.2c5.6,0,10.1,1.5,13.4,4.4
								c3.3,3,4.9,7,4.9,12.1c0,5.1-1.6,9.1-4.9,12c-3.3,3-7.7,4.5-13.4,4.5c-2.6,0-5.3-0.3-7.9-0.9c-2.6-0.6-5.3-1.5-8-2.7V352.5z"
								/>
						</g>
					</g>
				</g>
			</g>
			<g id="text_25">
				<g transform="translate(440.599562 182.600937)rotate(-90)scale(0.1 -0.1)">
					<g>
						<path id="DejaVuSans-86" d="M308.2,330.4l-27.8,72.9h10.3l23.1-61.4l23.1,61.4h10.3l-27.8-72.9H308.2z"/>
					</g>
					<g>
						<path id="DejaVuSans-101" d="M396.4,360v-4.4h-41.3c0.4-6.2,2.3-10.9,5.6-14.1s8-4.9,13.9-4.9c3.4,0,6.8,0.4,10,1.3
							c3.2,0.8,6.5,2.1,9.7,3.8v-8.5c-3.2-1.4-6.5-2.4-9.9-3.1c-3.4-0.7-6.8-1.1-10.3-1.1c-8.7,0-15.6,2.5-20.7,7.6
							c-5.1,5.1-7.6,12-7.6,20.6c0,8.9,2.4,16,7.3,21.3c4.8,5.3,11.4,7.9,19.6,7.9c7.4,0,13.2-2.4,17.5-7.1
							C394.3,374.6,396.4,368.2,396.4,360z M387.4,362.7c-0.1,4.9-1.4,8.8-4.1,11.8c-2.7,2.9-6.2,4.4-10.7,4.4c-5,0-9-1.4-12-4.3
							c-3-2.8-4.7-6.8-5.2-12L387.4,362.7z"/>
					</g>
					<g>
						<path id="DejaVuSans-108" d="M411.2,406.4h9v-76h-9V406.4z"/>
					</g>
					<g>
						<path id="DejaVuSans-111" d="M460.1,378.8c-4.8,0-8.6-1.9-11.4-5.6c-2.8-3.8-4.2-8.9-4.2-15.5s1.4-11.7,4.2-15.5
							c2.8-3.8,6.6-5.6,11.5-5.6c4.8,0,8.6,1.9,11.4,5.7c2.8,3.8,4.2,8.9,4.2,15.4c0,6.5-1.4,11.6-4.2,15.4
							C468.7,376.9,464.9,378.8,460.1,378.8z M460.1,386.4c7.8,0,13.9-2.5,18.4-7.6c4.5-5.1,6.7-12.1,6.7-21.1
							c0-8.9-2.2-16-6.7-21.1c-4.5-5.1-10.6-7.6-18.4-7.6c-7.8,0-14,2.5-18.4,7.6c-4.4,5.1-6.7,12.1-6.7,21.1c0,9,2.2,16,6.7,21.1
							C446.1,383.9,452.3,386.4,460.1,386.4z"/>
					</g>
					<g>
						<path id="DejaVuSans-99" d="M539.5,383v-8.4c-2.5,1.4-5.1,2.5-7.6,3.2c-2.6,0.7-5.1,1-7.7,1c-5.8,0-10.4-1.8-13.6-5.5
							c-3.2-3.7-4.8-8.9-4.8-15.5c0-6.7,1.6-11.9,4.8-15.6c3.2-3.7,7.8-5.5,13.6-5.5c2.6,0,5.2,0.3,7.7,1c2.6,0.7,5.1,1.8,7.6,3.2
							v-8.3c-2.5-1.2-5.1-2-7.8-2.6c-2.7-0.6-5.5-0.9-8.6-0.9c-8.2,0-14.8,2.6-19.6,7.8c-4.8,5.2-7.3,12.2-7.3,21
							c0,8.9,2.4,15.9,7.3,21c4.9,5.1,11.6,7.7,20.2,7.7c2.8,0,5.5-0.3,8.1-0.9C534.5,385,537,384.2,539.5,383z"/>
					</g>
					<g>
						<path id="DejaVuSans-105" d="M555.1,385.1h9v-54.7h-9V385.1z M555.1,406.4h9V395h-9V406.4z"/>
					</g>
					<g>
						<path id="DejaVuSans-116" d="M591.8,400.7v-15.5h18.5v-7h-18.5v-29.7c0-4.5,0.6-7.3,1.8-8.6s3.7-1.9,7.5-1.9h9.2v-7.5h-9.2
							c-6.9,0-11.7,1.3-14.4,3.9c-2.6,2.6-4,7.3-4,14.1v29.7h-6.6v7h6.6v15.5H591.8z"/>
					</g>
					<g>
						<path id="DejaVuSans-121" d="M644.9,325.4c-2.5-6.5-5-10.8-7.4-12.7c-2.4-2-5.6-3-9.7-3h-7.2v7.5h5.3c2.5,0,4.4,0.6,5.8,1.8
							c1.4,1.2,2.9,3.9,4.5,8.3l1.6,4.1l-22.1,53.8h9.5l17.1-42.8l17.1,42.8h9.5L644.9,325.4z"/>
					</g>
					<g>
						<path id="DejaVuSans-32_4_" d="M671.9,330.4"/>
					</g>
					<g>
						<path id="DejaVuSans-40_4_" d="M734.7,406.3c-4.4-7.5-7.6-14.9-9.7-22.2c-2.1-7.3-3.2-14.7-3.2-22.3c0-7.5,1.1-15,3.2-22.3
							c2.1-7.4,5.4-14.8,9.7-22.3h-7.8c-4.9,7.7-8.5,15.2-11,22.6c-2.4,7.4-3.6,14.7-3.6,22c0,7.3,1.2,14.6,3.6,21.9
							c2.4,7.4,6.1,14.9,11,22.6H734.7z"/>
					</g>
					<g>
						<path id="DejaVuSans-107_4_" d="M751.7,406.4h9v-44.9l26.8,23.6h11.5l-29-25.6l30.2-29.1h-11.7l-27.8,26.7v-26.7h-9V406.4z"/>
					</g>
					<g>
						<path id="DejaVuSans-109_4_" d="M852.6,374.6c2.3,4,4.9,7,8.1,8.9c3.1,1.9,6.8,2.9,11,2.9c5.7,0,10.1-2,13.2-6
							c3.1-4,4.6-9.6,4.6-17v-33h-9v32.7c0,5.2-0.9,9.1-2.8,11.7c-1.9,2.5-4.7,3.8-8.5,3.8c-4.7,0-8.3-1.5-11-4.6
							c-2.7-3.1-4-7.3-4-12.6v-30.9h-9v32.7c0,5.3-0.9,9.2-2.8,11.7c-1.9,2.5-4.7,3.8-8.6,3.8c-4.6,0-8.2-1.6-11-4.7
							c-2.7-3.1-4-7.3-4-12.6v-30.9h-9v54.7h9v-8.5c2.1,3.4,4.5,5.8,7.4,7.4c2.9,1.6,6.3,2.4,10.2,2.4c4,0,7.4-1,10.1-3
							C849.2,381.4,851.2,378.5,852.6,374.6z"/>
					</g>
					<g>
						<path id="DejaVuSans-47" d="M923.4,403.3h8.3l-25.4-82.2H898L923.4,403.3z"/>
					</g>
					<g>
						<path id="DejaVuSans-115" d="M976,383.5V375c-2.5,1.3-5.2,2.3-7.9,2.9c-2.7,0.7-5.6,1-8.5,1c-4.5,0-7.8-0.7-10-2
							c-2.2-1.4-3.3-3.4-3.3-6.2c0-2.1,0.8-3.7,2.4-4.9s4.8-2.3,9.6-3.4l3.1-0.7c6.4-1.4,10.9-3.3,13.6-5.8s4-6,4-10.4
							c0-5.1-2-9.1-6-12.1c-4-3-9.5-4.4-16.6-4.4c-2.9,0-6,0.3-9.2,0.9c-3.2,0.6-6.5,1.4-10,2.6v9.3c3.3-1.7,6.6-3,9.8-3.9
							c3.2-0.9,6.4-1.3,9.6-1.3c4.2,0,7.5,0.7,9.8,2.2c2.3,1.4,3.4,3.5,3.4,6.1c0,2.4-0.8,4.3-2.5,5.6c-1.6,1.3-5.2,2.6-10.8,3.8
							l-3.1,0.7c-5.6,1.2-9.6,3-12.1,5.4c-2.5,2.4-3.7,5.8-3.7,10c0,5.1,1.8,9.1,5.5,11.9c3.6,2.8,8.8,4.2,15.5,4.2
							c3.3,0,6.4-0.2,9.4-0.7C970.8,385.2,973.5,384.5,976,383.5z"/>
					</g>
					<g>
						<path id="DejaVuSans-41_4_" d="M991.8,406.3h7.8c4.9-7.7,8.5-15.2,11-22.6c2.4-7.4,3.6-14.7,3.6-21.9c0-7.3-1.2-14.6-3.6-22
							c-2.4-7.4-6.1-14.9-11-22.6h-7.8c4.3,7.5,7.6,14.9,9.7,22.3c2.1,7.4,3.2,14.8,3.2,22.3c0,7.5-1.1,14.9-3.2,22.3
							C999.3,391.4,996.1,398.8,991.8,406.3z"/>
					</g>
				</g>
			</g>
		</g>
		<g id="patch_18">
			<path class="st4" d="M362,228.4v-0.9V7.5V6.6h11.1v0.9v220v0.9H362z"/>
		</g>
	</g>
</g>
</svg>
