<?xml version="1.0" encoding="utf-8" standalone="no"?>
<!DOCTYPE svg PUBLIC "-//W3C//DTD SVG 1.1//EN"
  "http://www.w3.org/Graphics/SVG/1.1/DTD/svg11.dtd">
<!-- Created with matplotlib (https://matplotlib.org/) -->
<svg height="432pt" version="1.1" viewBox="0 0 216 432" width="216pt" xmlns="http://www.w3.org/2000/svg" xmlns:xlink="http://www.w3.org/1999/xlink">
 <defs>
  <style type="text/css">
*{stroke-linecap:butt;stroke-linejoin:round;}
  </style>
 </defs>
 <g id="figure_1">
  <g id="patch_1">
   <path d="M 0 432 
L 216 432 
L 216 0 
L 0 0 
z
" style="fill:none;"/>
  </g>
  <g id="axes_1">
   <g id="patch_2">
    <path d="M 47.81 390.04 
L 205.2 390.04 
L 205.2 10.8 
L 47.81 10.8 
z
" style="fill:none;"/>
   </g>
   <g id="PolyCollection_1">
    <path clip-path="url(#pebc20c21be)" d="M 58.270241 28.038182 
L 54.964091 28.038182 
L 55.211571 30.336606 
L 56.382638 32.63503 
L 58.536982 34.933455 
L 59.717578 37.231879 
L 58.68567 39.530303 
L 56.700223 41.828727 
L 55.767848 44.127152 
L 56.295301 46.425576 
L 57.623207 48.724 
L 58.37545 51.022424 
L 57.963792 53.320848 
L 57.024733 55.619273 
L 56.562514 57.917697 
L 56.852854 60.216121 
L 57.540887 62.514545 
L 57.884308 64.81297 
L 57.532407 67.111394 
L 56.833273 69.409818 
L 56.530539 71.708242 
L 56.961273 74.006667 
L 57.860826 76.305091 
L 58.446692 78.603515 
L 58.608329 80.901939 
L 58.658299 83.200364 
L 58.573514 85.498788 
L 58.077708 87.797212 
L 57.298746 90.095636 
L 56.988827 92.394061 
L 57.57533 94.692485 
L 58.783382 96.990909 
L 59.634065 99.289333 
L 60.106146 101.587758 
L 60.611417 103.886182 
L 60.909068 106.184606 
L 60.940428 108.48303 
L 60.874885 110.781455 
L 60.718513 113.079879 
L 60.186986 115.378303 
L 59.379646 117.676727 
L 59.126301 119.975152 
L 60.071807 122.273576 
L 61.961875 124.572 
L 63.076264 126.870424 
L 62.620131 129.168848 
L 61.491406 131.467273 
L 61.060968 133.765697 
L 62.026441 136.064121 
L 64.035821 138.362545 
L 65.348365 140.66097 
L 65.434914 142.959394 
L 65.095536 145.257818 
L 65.023365 147.556242 
L 65.671166 149.854667 
L 66.861748 152.153091 
L 67.341639 154.451515 
L 66.211628 156.749939 
L 64.288993 159.048364 
L 63.45975 161.346788 
L 64.402741 163.645212 
L 66.544678 165.943636 
L 68.223637 168.242061 
L 69.668252 170.540485 
L 71.658958 172.838909 
L 72.76041 175.137333 
L 72.146629 177.435758 
L 70.774368 179.734182 
L 70.256606 182.032606 
L 71.443277 184.33103 
L 73.88302 186.629455 
L 75.1014 188.927879 
L 73.839774 191.226303 
L 72.79786 193.524727 
L 74.585234 195.823152 
L 76.643592 198.121576 
L 77.269288 200.42 
L 77.677017 202.718424 
L 79.063591 205.016848 
L 81.572684 207.315273 
L 83.304567 209.613697 
L 83.305683 211.912121 
L 81.654131 214.210545 
L 81.690646 216.50897 
L 87.284102 218.807394 
L 94.890442 221.105818 
L 103.707132 223.404242 
L 113.044218 225.702667 
L 99.679734 228.001091 
L 81.789788 230.299515 
L 75.556766 232.597939 
L 75.076646 234.896364 
L 76.837521 237.194788 
L 79.947234 239.493212 
L 82.24864 241.791636 
L 83.762658 244.090061 
L 87.176601 246.388485 
L 92.589292 248.686909 
L 92.270353 250.985333 
L 86.836161 253.283758 
L 84.910077 255.582182 
L 85.7082 257.880606 
L 85.166079 260.17903 
L 84.178802 262.477455 
L 83.743399 264.775879 
L 85.099734 267.074303 
L 89.360126 269.372727 
L 92.411709 271.671152 
L 91.609934 273.969576 
L 91.032575 276.268 
L 94.194681 278.566424 
L 97.857871 280.864848 
L 100.763754 283.163273 
L 104.101445 285.461697 
L 104.112907 287.760121 
L 97.789972 290.058545 
L 89.914515 292.35697 
L 86.103247 294.655394 
L 85.072607 296.953818 
L 84.348904 299.252242 
L 83.349201 301.550667 
L 84.232419 303.849091 
L 89.413385 306.147515 
L 96.323294 308.445939 
L 106.118052 310.744364 
L 123.154846 313.042788 
L 131.588411 315.341212 
L 124.050776 317.639636 
L 119.022505 319.938061 
L 118.38322 322.236485 
L 118.115369 324.534909 
L 113.8828 326.833333 
L 101.210888 329.131758 
L 88.997064 331.430182 
L 85.304198 333.728606 
L 87.283179 336.02703 
L 89.883941 338.325455 
L 90.67412 340.623879 
L 89.407387 342.922303 
L 88.949878 345.220727 
L 92.192221 347.519152 
L 98.786001 349.817576 
L 101.07939 352.116 
L 97.483971 354.414424 
L 94.248648 356.712848 
L 92.430318 359.011273 
L 91.865442 361.309697 
L 92.15288 363.608121 
L 92.379538 365.906545 
L 91.722364 368.20497 
L 88.499624 370.503394 
L 84.341263 372.801818 
L 159.274359 372.801818 
L 159.274359 372.801818 
L 146.368365 370.503394 
L 134.94967 368.20497 
L 128.949788 365.906545 
L 135.403941 363.608121 
L 156.841694 361.309697 
L 162.51881 359.011273 
L 146.962933 356.712848 
L 146.625924 354.414424 
L 164.949314 352.116 
L 178.619464 349.817576 
L 173.476036 347.519152 
L 166.322691 345.220727 
L 160.057353 342.922303 
L 159.192904 340.623879 
L 168.419024 338.325455 
L 169.084721 336.02703 
L 158.041944 333.728606 
L 155.697518 331.430182 
L 164.138086 329.131758 
L 176.362157 326.833333 
L 188.821398 324.534909 
L 196.296638 322.236485 
L 198.024778 319.938061 
L 198.045909 317.639636 
L 196.568781 315.341212 
L 190.065008 313.042788 
L 178.194483 310.744364 
L 159.470617 308.445939 
L 131.646907 306.147515 
L 114.275456 303.849091 
L 113.785441 301.550667 
L 121.339327 299.252242 
L 130.205298 296.953818 
L 137.621194 294.655394 
L 148.392005 292.35697 
L 168.611828 290.058545 
L 180.620279 287.760121 
L 161.697169 285.461697 
L 137.405483 283.163273 
L 125.551234 280.864848 
L 118.420381 278.566424 
L 112.126088 276.268 
L 109.084969 273.969576 
L 108.075176 271.671152 
L 106.150265 269.372727 
L 102.891841 267.074303 
L 100.562254 264.775879 
L 100.507322 262.477455 
L 104.468113 260.17903 
L 111.872157 257.880606 
L 115.532226 255.582182 
L 117.626708 253.283758 
L 120.414972 250.985333 
L 113.901234 248.686909 
L 102.670119 246.388485 
L 98.131094 244.090061 
L 98.553723 241.791636 
L 99.17454 239.493212 
L 98.983987 237.194788 
L 99.414358 234.896364 
L 103.114106 232.597939 
L 116.289977 230.299515 
L 144.09149 228.001091 
L 154.803024 225.702667 
L 135.625563 223.404242 
L 122.244357 221.105818 
L 110.768294 218.807394 
L 100.956094 216.50897 
L 97.760332 214.210545 
L 98.43009 211.912121 
L 99.871758 209.613697 
L 101.264539 207.315273 
L 101.923411 205.016848 
L 99.221048 202.718424 
L 94.301945 200.42 
L 92.242817 198.121576 
L 93.600536 195.823152 
L 93.416052 193.524727 
L 88.64752 191.226303 
L 85.498924 188.927879 
L 85.426229 186.629455 
L 86.46872 184.33103 
L 86.659434 182.032606 
L 84.56281 179.734182 
L 81.272091 177.435758 
L 79.443248 175.137333 
L 78.872408 172.838909 
L 78.509135 170.540485 
L 78.075499 168.242061 
L 76.970159 165.943636 
L 75.343972 163.645212 
L 74.646934 161.346788 
L 75.537344 159.048364 
L 77.429806 156.749939 
L 78.227234 154.451515 
L 76.476506 152.153091 
L 73.512594 149.854667 
L 71.77521 147.556242 
L 70.862704 145.257818 
L 69.919935 142.959394 
L 69.296741 140.66097 
L 68.773681 138.362545 
L 68.13329 136.064121 
L 68.011527 133.765697 
L 69.150075 131.467273 
L 71.3058 129.168848 
L 72.039952 126.870424 
L 69.290767 124.572 
L 65.174807 122.273576 
L 63.247087 119.975152 
L 63.580658 117.676727 
L 64.893589 115.378303 
L 65.701063 113.079879 
L 65.585537 110.781455 
L 65.095968 108.48303 
L 64.857466 106.184606 
L 65.077251 103.886182 
L 65.532004 101.587758 
L 65.52926 99.289333 
L 64.296019 96.990909 
L 62.375073 94.692485 
L 61.477615 92.394061 
L 62.040222 90.095636 
L 63.412434 87.797212 
L 64.179444 85.498788 
L 63.737805 83.200364 
L 62.724393 80.901939 
L 62.01604 78.603515 
L 61.36195 76.305091 
L 60.531801 74.006667 
L 60.179065 71.708242 
L 60.667824 69.409818 
L 61.684751 67.111394 
L 62.22947 64.81297 
L 61.857235 62.514545 
L 61.049261 60.216121 
L 60.645663 57.917697 
L 60.885983 55.619273 
L 61.462814 53.320848 
L 61.801381 51.022424 
L 61.755079 48.724 
L 61.564748 46.425576 
L 61.617148 44.127152 
L 62.416608 41.828727 
L 63.847918 39.530303 
L 64.358214 37.231879 
L 62.681214 34.933455 
L 59.99862 32.63503 
L 58.570123 30.336606 
L 58.270241 28.038182 
z
" style="fill:#1f77b4;fill-opacity:0.5;"/>
   </g>
   <g id="matplotlib.axis_1">
    <g id="xtick_1">
     <g id="line2d_1">
      <defs>
       <path d="M 0 0 
L 0 3.5 
" id="m64ea7ece97" style="stroke:#000000;stroke-width:0.8;"/>
      </defs>
      <g>
       <use style="stroke:#000000;stroke-width:0.8;" x="67.41644" xlink:href="#m64ea7ece97" y="390.04"/>
      </g>
     </g>
     <g id="text_1">
      <!-- 2 -->
      <defs>
       <path d="M 19.1875 8.296875 
L 53.609375 8.296875 
L 53.609375 0 
L 7.328125 0 
L 7.328125 8.296875 
Q 12.9375 14.109375 22.625 23.890625 
Q 32.328125 33.6875 34.8125 36.53125 
Q 39.546875 41.84375 41.421875 45.53125 
Q 43.3125 49.21875 43.3125 52.78125 
Q 43.3125 58.59375 39.234375 62.25 
Q 35.15625 65.921875 28.609375 65.921875 
Q 23.96875 65.921875 18.8125 64.3125 
Q 13.671875 62.703125 7.8125 59.421875 
L 7.8125 69.390625 
Q 13.765625 71.78125 18.9375 73 
Q 24.125 74.21875 28.421875 74.21875 
Q 39.75 74.21875 46.484375 68.546875 
Q 53.21875 62.890625 53.21875 53.421875 
Q 53.21875 48.921875 51.53125 44.890625 
Q 49.859375 40.875 45.40625 35.40625 
Q 44.1875 33.984375 37.640625 27.21875 
Q 31.109375 20.453125 19.1875 8.296875 
z
" id="DejaVuSans-50"/>
      </defs>
      <g transform="translate(64.23519 404.638438)scale(0.1 -0.1)">
       <use xlink:href="#DejaVuSans-50"/>
      </g>
     </g>
    </g>
    <g id="xtick_2">
     <g id="line2d_2">
      <g>
       <use style="stroke:#000000;stroke-width:0.8;" x="119.720345" xlink:href="#m64ea7ece97" y="390.04"/>
      </g>
     </g>
     <g id="text_2">
      <!-- 4 -->
      <defs>
       <path d="M 37.796875 64.3125 
L 12.890625 25.390625 
L 37.796875 25.390625 
z
M 35.203125 72.90625 
L 47.609375 72.90625 
L 47.609375 25.390625 
L 58.015625 25.390625 
L 58.015625 17.1875 
L 47.609375 17.1875 
L 47.609375 0 
L 37.796875 0 
L 37.796875 17.1875 
L 4.890625 17.1875 
L 4.890625 26.703125 
z
" id="DejaVuSans-52"/>
      </defs>
      <g transform="translate(116.539095 404.638438)scale(0.1 -0.1)">
       <use xlink:href="#DejaVuSans-52"/>
      </g>
     </g>
    </g>
    <g id="xtick_3">
     <g id="line2d_3">
      <g>
       <use style="stroke:#000000;stroke-width:0.8;" x="172.024251" xlink:href="#m64ea7ece97" y="390.04"/>
      </g>
     </g>
     <g id="text_3">
      <!-- 6 -->
      <defs>
       <path d="M 33.015625 40.375 
Q 26.375 40.375 22.484375 35.828125 
Q 18.609375 31.296875 18.609375 23.390625 
Q 18.609375 15.53125 22.484375 10.953125 
Q 26.375 6.390625 33.015625 6.390625 
Q 39.65625 6.390625 43.53125 10.953125 
Q 47.40625 15.53125 47.40625 23.390625 
Q 47.40625 31.296875 43.53125 35.828125 
Q 39.65625 40.375 33.015625 40.375 
z
M 52.59375 71.296875 
L 52.59375 62.3125 
Q 48.875 64.0625 45.09375 64.984375 
Q 41.3125 65.921875 37.59375 65.921875 
Q 27.828125 65.921875 22.671875 59.328125 
Q 17.53125 52.734375 16.796875 39.40625 
Q 19.671875 43.65625 24.015625 45.921875 
Q 28.375 48.1875 33.59375 48.1875 
Q 44.578125 48.1875 50.953125 41.515625 
Q 57.328125 34.859375 57.328125 23.390625 
Q 57.328125 12.15625 50.6875 5.359375 
Q 44.046875 -1.421875 33.015625 -1.421875 
Q 20.359375 -1.421875 13.671875 8.265625 
Q 6.984375 17.96875 6.984375 36.375 
Q 6.984375 53.65625 15.1875 63.9375 
Q 23.390625 74.21875 37.203125 74.21875 
Q 40.921875 74.21875 44.703125 73.484375 
Q 48.484375 72.75 52.59375 71.296875 
z
" id="DejaVuSans-54"/>
      </defs>
      <g transform="translate(168.843001 404.638438)scale(0.1 -0.1)">
       <use xlink:href="#DejaVuSans-54"/>
      </g>
     </g>
    </g>
    <g id="text_4">
     <!-- Velocity (km/s) -->
     <defs>
      <path d="M 28.609375 0 
L 0.78125 72.90625 
L 11.078125 72.90625 
L 34.1875 11.53125 
L 57.328125 72.90625 
L 67.578125 72.90625 
L 39.796875 0 
z
" id="DejaVuSans-86"/>
      <path d="M 56.203125 29.59375 
L 56.203125 25.203125 
L 14.890625 25.203125 
Q 15.484375 15.921875 20.484375 11.0625 
Q 25.484375 6.203125 34.421875 6.203125 
Q 39.59375 6.203125 44.453125 7.46875 
Q 49.3125 8.734375 54.109375 11.28125 
L 54.109375 2.78125 
Q 49.265625 0.734375 44.1875 -0.34375 
Q 39.109375 -1.421875 33.890625 -1.421875 
Q 20.796875 -1.421875 13.15625 6.1875 
Q 5.515625 13.8125 5.515625 26.8125 
Q 5.515625 40.234375 12.765625 48.109375 
Q 20.015625 56 32.328125 56 
Q 43.359375 56 49.78125 48.890625 
Q 56.203125 41.796875 56.203125 29.59375 
z
M 47.21875 32.234375 
Q 47.125 39.59375 43.09375 43.984375 
Q 39.0625 48.390625 32.421875 48.390625 
Q 24.90625 48.390625 20.390625 44.140625 
Q 15.875 39.890625 15.1875 32.171875 
z
" id="DejaVuSans-101"/>
      <path d="M 9.421875 75.984375 
L 18.40625 75.984375 
L 18.40625 0 
L 9.421875 0 
z
" id="DejaVuSans-108"/>
      <path d="M 30.609375 48.390625 
Q 23.390625 48.390625 19.1875 42.75 
Q 14.984375 37.109375 14.984375 27.296875 
Q 14.984375 17.484375 19.15625 11.84375 
Q 23.34375 6.203125 30.609375 6.203125 
Q 37.796875 6.203125 41.984375 11.859375 
Q 46.1875 17.53125 46.1875 27.296875 
Q 46.1875 37.015625 41.984375 42.703125 
Q 37.796875 48.390625 30.609375 48.390625 
z
M 30.609375 56 
Q 42.328125 56 49.015625 48.375 
Q 55.71875 40.765625 55.71875 27.296875 
Q 55.71875 13.875 49.015625 6.21875 
Q 42.328125 -1.421875 30.609375 -1.421875 
Q 18.84375 -1.421875 12.171875 6.21875 
Q 5.515625 13.875 5.515625 27.296875 
Q 5.515625 40.765625 12.171875 48.375 
Q 18.84375 56 30.609375 56 
z
" id="DejaVuSans-111"/>
      <path d="M 48.78125 52.59375 
L 48.78125 44.1875 
Q 44.96875 46.296875 41.140625 47.34375 
Q 37.3125 48.390625 33.40625 48.390625 
Q 24.65625 48.390625 19.8125 42.84375 
Q 14.984375 37.3125 14.984375 27.296875 
Q 14.984375 17.28125 19.8125 11.734375 
Q 24.65625 6.203125 33.40625 6.203125 
Q 37.3125 6.203125 41.140625 7.25 
Q 44.96875 8.296875 48.78125 10.40625 
L 48.78125 2.09375 
Q 45.015625 0.34375 40.984375 -0.53125 
Q 36.96875 -1.421875 32.421875 -1.421875 
Q 20.0625 -1.421875 12.78125 6.34375 
Q 5.515625 14.109375 5.515625 27.296875 
Q 5.515625 40.671875 12.859375 48.328125 
Q 20.21875 56 33.015625 56 
Q 37.15625 56 41.109375 55.140625 
Q 45.0625 54.296875 48.78125 52.59375 
z
" id="DejaVuSans-99"/>
      <path d="M 9.421875 54.6875 
L 18.40625 54.6875 
L 18.40625 0 
L 9.421875 0 
z
M 9.421875 75.984375 
L 18.40625 75.984375 
L 18.40625 64.59375 
L 9.421875 64.59375 
z
" id="DejaVuSans-105"/>
      <path d="M 18.3125 70.21875 
L 18.3125 54.6875 
L 36.8125 54.6875 
L 36.8125 47.703125 
L 18.3125 47.703125 
L 18.3125 18.015625 
Q 18.3125 11.328125 20.140625 9.421875 
Q 21.96875 7.515625 27.59375 7.515625 
L 36.8125 7.515625 
L 36.8125 0 
L 27.59375 0 
Q 17.1875 0 13.234375 3.875 
Q 9.28125 7.765625 9.28125 18.015625 
L 9.28125 47.703125 
L 2.6875 47.703125 
L 2.6875 54.6875 
L 9.28125 54.6875 
L 9.28125 70.21875 
z
" id="DejaVuSans-116"/>
      <path d="M 32.171875 -5.078125 
Q 28.375 -14.84375 24.75 -17.8125 
Q 21.140625 -20.796875 15.09375 -20.796875 
L 7.90625 -20.796875 
L 7.90625 -13.28125 
L 13.1875 -13.28125 
Q 16.890625 -13.28125 18.9375 -11.515625 
Q 21 -9.765625 23.484375 -3.21875 
L 25.09375 0.875 
L 2.984375 54.6875 
L 12.5 54.6875 
L 29.59375 11.921875 
L 46.6875 54.6875 
L 56.203125 54.6875 
z
" id="DejaVuSans-121"/>
      <path id="DejaVuSans-32"/>
      <path d="M 31 75.875 
Q 24.46875 64.65625 21.28125 53.65625 
Q 18.109375 42.671875 18.109375 31.390625 
Q 18.109375 20.125 21.3125 9.0625 
Q 24.515625 -2 31 -13.1875 
L 23.1875 -13.1875 
Q 15.875 -1.703125 12.234375 9.375 
Q 8.59375 20.453125 8.59375 31.390625 
Q 8.59375 42.28125 12.203125 53.3125 
Q 15.828125 64.359375 23.1875 75.875 
z
" id="DejaVuSans-40"/>
      <path d="M 9.078125 75.984375 
L 18.109375 75.984375 
L 18.109375 31.109375 
L 44.921875 54.6875 
L 56.390625 54.6875 
L 27.390625 29.109375 
L 57.625 0 
L 45.90625 0 
L 18.109375 26.703125 
L 18.109375 0 
L 9.078125 0 
z
" id="DejaVuSans-107"/>
      <path d="M 52 44.1875 
Q 55.375 50.25 60.0625 53.125 
Q 64.75 56 71.09375 56 
Q 79.640625 56 84.28125 50.015625 
Q 88.921875 44.046875 88.921875 33.015625 
L 88.921875 0 
L 79.890625 0 
L 79.890625 32.71875 
Q 79.890625 40.578125 77.09375 44.375 
Q 74.3125 48.1875 68.609375 48.1875 
Q 61.625 48.1875 57.5625 43.546875 
Q 53.515625 38.921875 53.515625 30.90625 
L 53.515625 0 
L 44.484375 0 
L 44.484375 32.71875 
Q 44.484375 40.625 41.703125 44.40625 
Q 38.921875 48.1875 33.109375 48.1875 
Q 26.21875 48.1875 22.15625 43.53125 
Q 18.109375 38.875 18.109375 30.90625 
L 18.109375 0 
L 9.078125 0 
L 9.078125 54.6875 
L 18.109375 54.6875 
L 18.109375 46.1875 
Q 21.1875 51.21875 25.484375 53.609375 
Q 29.78125 56 35.6875 56 
Q 41.65625 56 45.828125 52.96875 
Q 50 49.953125 52 44.1875 
z
" id="DejaVuSans-109"/>
      <path d="M 25.390625 72.90625 
L 33.6875 72.90625 
L 8.296875 -9.28125 
L 0 -9.28125 
z
" id="DejaVuSans-47"/>
      <path d="M 44.28125 53.078125 
L 44.28125 44.578125 
Q 40.484375 46.53125 36.375 47.5 
Q 32.28125 48.484375 27.875 48.484375 
Q 21.1875 48.484375 17.84375 46.4375 
Q 14.5 44.390625 14.5 40.28125 
Q 14.5 37.15625 16.890625 35.375 
Q 19.28125 33.59375 26.515625 31.984375 
L 29.59375 31.296875 
Q 39.15625 29.25 43.1875 25.515625 
Q 47.21875 21.78125 47.21875 15.09375 
Q 47.21875 7.46875 41.1875 3.015625 
Q 35.15625 -1.421875 24.609375 -1.421875 
Q 20.21875 -1.421875 15.453125 -0.5625 
Q 10.6875 0.296875 5.421875 2 
L 5.421875 11.28125 
Q 10.40625 8.6875 15.234375 7.390625 
Q 20.0625 6.109375 24.8125 6.109375 
Q 31.15625 6.109375 34.5625 8.28125 
Q 37.984375 10.453125 37.984375 14.40625 
Q 37.984375 18.0625 35.515625 20.015625 
Q 33.0625 21.96875 24.703125 23.78125 
L 21.578125 24.515625 
Q 13.234375 26.265625 9.515625 29.90625 
Q 5.8125 33.546875 5.8125 39.890625 
Q 5.8125 47.609375 11.28125 51.796875 
Q 16.75 56 26.8125 56 
Q 31.78125 56 36.171875 55.265625 
Q 40.578125 54.546875 44.28125 53.078125 
z
" id="DejaVuSans-115"/>
      <path d="M 8.015625 75.875 
L 15.828125 75.875 
Q 23.140625 64.359375 26.78125 53.3125 
Q 30.421875 42.28125 30.421875 31.390625 
Q 30.421875 20.453125 26.78125 9.375 
Q 23.140625 -1.703125 15.828125 -13.1875 
L 8.015625 -13.1875 
Q 14.5 -2 17.703125 9.0625 
Q 20.90625 20.125 20.90625 31.390625 
Q 20.90625 42.671875 17.703125 53.65625 
Q 14.5 64.65625 8.015625 75.875 
z
" id="DejaVuSans-41"/>
     </defs>
     <g transform="translate(89.344062 418.316562)scale(0.1 -0.1)">
      <use xlink:href="#DejaVuSans-86"/>
      <use x="60.658203" xlink:href="#DejaVuSans-101"/>
      <use x="122.181641" xlink:href="#DejaVuSans-108"/>
      <use x="149.964844" xlink:href="#DejaVuSans-111"/>
      <use x="211.146484" xlink:href="#DejaVuSans-99"/>
      <use x="266.126953" xlink:href="#DejaVuSans-105"/>
      <use x="293.910156" xlink:href="#DejaVuSans-116"/>
      <use x="333.119141" xlink:href="#DejaVuSans-121"/>
      <use x="392.298828" xlink:href="#DejaVuSans-32"/>
      <use x="424.085938" xlink:href="#DejaVuSans-40"/>
      <use x="463.099609" xlink:href="#DejaVuSans-107"/>
      <use x="521.009766" xlink:href="#DejaVuSans-109"/>
      <use x="618.421875" xlink:href="#DejaVuSans-47"/>
      <use x="652.113281" xlink:href="#DejaVuSans-115"/>
      <use x="704.212891" xlink:href="#DejaVuSans-41"/>
     </g>
    </g>
   </g>
   <g id="matplotlib.axis_2">
    <g id="ytick_1">
     <g id="line2d_4">
      <defs>
       <path d="M 0 0 
L -3.5 0 
" id="m91e68e062d" style="stroke:#000000;stroke-width:0.8;"/>
      </defs>
      <g>
       <use style="stroke:#000000;stroke-width:0.8;" x="47.81" xlink:href="#m91e68e062d" y="28.038182"/>
      </g>
     </g>
     <g id="text_5">
      <!-- 0.0 -->
      <defs>
       <path d="M 31.78125 66.40625 
Q 24.171875 66.40625 20.328125 58.90625 
Q 16.5 51.421875 16.5 36.375 
Q 16.5 21.390625 20.328125 13.890625 
Q 24.171875 6.390625 31.78125 6.390625 
Q 39.453125 6.390625 43.28125 13.890625 
Q 47.125 21.390625 47.125 36.375 
Q 47.125 51.421875 43.28125 58.90625 
Q 39.453125 66.40625 31.78125 66.40625 
z
M 31.78125 74.21875 
Q 44.046875 74.21875 50.515625 64.515625 
Q 56.984375 54.828125 56.984375 36.375 
Q 56.984375 17.96875 50.515625 8.265625 
Q 44.046875 -1.421875 31.78125 -1.421875 
Q 19.53125 -1.421875 13.0625 8.265625 
Q 6.59375 17.96875 6.59375 36.375 
Q 6.59375 54.828125 13.0625 64.515625 
Q 19.53125 74.21875 31.78125 74.21875 
z
" id="DejaVuSans-48"/>
       <path d="M 10.6875 12.40625 
L 21 12.40625 
L 21 0 
L 10.6875 0 
z
" id="DejaVuSans-46"/>
      </defs>
      <g transform="translate(24.906875 31.837401)scale(0.1 -0.1)">
       <use xlink:href="#DejaVuSans-48"/>
       <use x="63.623047" xlink:href="#DejaVuSans-46"/>
       <use x="95.410156" xlink:href="#DejaVuSans-48"/>
      </g>
     </g>
    </g>
    <g id="ytick_2">
     <g id="line2d_5">
      <g>
       <use style="stroke:#000000;stroke-width:0.8;" x="47.81" xlink:href="#m91e68e062d" y="85.118254"/>
      </g>
     </g>
     <g id="text_6">
      <!-- 0.5 -->
      <defs>
       <path d="M 10.796875 72.90625 
L 49.515625 72.90625 
L 49.515625 64.59375 
L 19.828125 64.59375 
L 19.828125 46.734375 
Q 21.96875 47.46875 24.109375 47.828125 
Q 26.265625 48.1875 28.421875 48.1875 
Q 40.625 48.1875 47.75 41.5 
Q 54.890625 34.8125 54.890625 23.390625 
Q 54.890625 11.625 47.5625 5.09375 
Q 40.234375 -1.421875 26.90625 -1.421875 
Q 22.3125 -1.421875 17.546875 -0.640625 
Q 12.796875 0.140625 7.71875 1.703125 
L 7.71875 11.625 
Q 12.109375 9.234375 16.796875 8.0625 
Q 21.484375 6.890625 26.703125 6.890625 
Q 35.15625 6.890625 40.078125 11.328125 
Q 45.015625 15.765625 45.015625 23.390625 
Q 45.015625 31 40.078125 35.4375 
Q 35.15625 39.890625 26.703125 39.890625 
Q 22.75 39.890625 18.8125 39.015625 
Q 14.890625 38.140625 10.796875 36.28125 
z
" id="DejaVuSans-53"/>
      </defs>
      <g transform="translate(24.906875 88.917473)scale(0.1 -0.1)">
       <use xlink:href="#DejaVuSans-48"/>
       <use x="63.623047" xlink:href="#DejaVuSans-46"/>
       <use x="95.410156" xlink:href="#DejaVuSans-53"/>
      </g>
     </g>
    </g>
    <g id="ytick_3">
     <g id="line2d_6">
      <g>
       <use style="stroke:#000000;stroke-width:0.8;" x="47.81" xlink:href="#m91e68e062d" y="142.198326"/>
      </g>
     </g>
     <g id="text_7">
      <!-- 1.0 -->
      <defs>
       <path d="M 12.40625 8.296875 
L 28.515625 8.296875 
L 28.515625 63.921875 
L 10.984375 60.40625 
L 10.984375 69.390625 
L 28.421875 72.90625 
L 38.28125 72.90625 
L 38.28125 8.296875 
L 54.390625 8.296875 
L 54.390625 0 
L 12.40625 0 
z
" id="DejaVuSans-49"/>
      </defs>
      <g transform="translate(24.906875 145.997545)scale(0.1 -0.1)">
       <use xlink:href="#DejaVuSans-49"/>
       <use x="63.623047" xlink:href="#DejaVuSans-46"/>
       <use x="95.410156" xlink:href="#DejaVuSans-48"/>
      </g>
     </g>
    </g>
    <g id="ytick_4">
     <g id="line2d_7">
      <g>
       <use style="stroke:#000000;stroke-width:0.8;" x="47.81" xlink:href="#m91e68e062d" y="199.278399"/>
      </g>
     </g>
     <g id="text_8">
      <!-- 1.5 -->
      <g transform="translate(24.906875 203.077617)scale(0.1 -0.1)">
       <use xlink:href="#DejaVuSans-49"/>
       <use x="63.623047" xlink:href="#DejaVuSans-46"/>
       <use x="95.410156" xlink:href="#DejaVuSans-53"/>
      </g>
     </g>
    </g>
    <g id="ytick_5">
     <g id="line2d_8">
      <g>
       <use style="stroke:#000000;stroke-width:0.8;" x="47.81" xlink:href="#m91e68e062d" y="256.358471"/>
      </g>
     </g>
     <g id="text_9">
      <!-- 2.0 -->
      <g transform="translate(24.906875 260.15769)scale(0.1 -0.1)">
       <use xlink:href="#DejaVuSans-50"/>
       <use x="63.623047" xlink:href="#DejaVuSans-46"/>
       <use x="95.410156" xlink:href="#DejaVuSans-48"/>
      </g>
     </g>
    </g>
    <g id="ytick_6">
     <g id="line2d_9">
      <g>
       <use style="stroke:#000000;stroke-width:0.8;" x="47.81" xlink:href="#m91e68e062d" y="313.438543"/>
      </g>
     </g>
     <g id="text_10">
      <!-- 2.5 -->
      <g transform="translate(24.906875 317.237762)scale(0.1 -0.1)">
       <use xlink:href="#DejaVuSans-50"/>
       <use x="63.623047" xlink:href="#DejaVuSans-46"/>
       <use x="95.410156" xlink:href="#DejaVuSans-53"/>
      </g>
     </g>
    </g>
    <g id="ytick_7">
     <g id="line2d_10">
      <g>
       <use style="stroke:#000000;stroke-width:0.8;" x="47.81" xlink:href="#m91e68e062d" y="370.518615"/>
      </g>
     </g>
     <g id="text_11">
      <!-- 3.0 -->
      <defs>
       <path d="M 40.578125 39.3125 
Q 47.65625 37.796875 51.625 33 
Q 55.609375 28.21875 55.609375 21.1875 
Q 55.609375 10.40625 48.1875 4.484375 
Q 40.765625 -1.421875 27.09375 -1.421875 
Q 22.515625 -1.421875 17.65625 -0.515625 
Q 12.796875 0.390625 7.625 2.203125 
L 7.625 11.71875 
Q 11.71875 9.328125 16.59375 8.109375 
Q 21.484375 6.890625 26.8125 6.890625 
Q 36.078125 6.890625 40.9375 10.546875 
Q 45.796875 14.203125 45.796875 21.1875 
Q 45.796875 27.640625 41.28125 31.265625 
Q 36.765625 34.90625 28.71875 34.90625 
L 20.21875 34.90625 
L 20.21875 43.015625 
L 29.109375 43.015625 
Q 36.375 43.015625 40.234375 45.921875 
Q 44.09375 48.828125 44.09375 54.296875 
Q 44.09375 59.90625 40.109375 62.90625 
Q 36.140625 65.921875 28.71875 65.921875 
Q 24.65625 65.921875 20.015625 65.03125 
Q 15.375 64.15625 9.8125 62.3125 
L 9.8125 71.09375 
Q 15.4375 72.65625 20.34375 73.4375 
Q 25.25 74.21875 29.59375 74.21875 
Q 40.828125 74.21875 47.359375 69.109375 
Q 53.90625 64.015625 53.90625 55.328125 
Q 53.90625 49.265625 50.4375 45.09375 
Q 46.96875 40.921875 40.578125 39.3125 
z
" id="DejaVuSans-51"/>
      </defs>
      <g transform="translate(24.906875 374.317834)scale(0.1 -0.1)">
       <use xlink:href="#DejaVuSans-51"/>
       <use x="63.623047" xlink:href="#DejaVuSans-46"/>
       <use x="95.410156" xlink:href="#DejaVuSans-48"/>
      </g>
     </g>
    </g>
    <g id="text_12">
     <!-- Depth (km) -->
     <defs>
      <path d="M 19.671875 64.796875 
L 19.671875 8.109375 
L 31.59375 8.109375 
Q 46.6875 8.109375 53.6875 14.9375 
Q 60.6875 21.78125 60.6875 36.53125 
Q 60.6875 51.171875 53.6875 57.984375 
Q 46.6875 64.796875 31.59375 64.796875 
z
M 9.8125 72.90625 
L 30.078125 72.90625 
Q 51.265625 72.90625 61.171875 64.09375 
Q 71.09375 55.28125 71.09375 36.53125 
Q 71.09375 17.671875 61.125 8.828125 
Q 51.171875 0 30.078125 0 
L 9.8125 0 
z
" id="DejaVuSans-68"/>
      <path d="M 18.109375 8.203125 
L 18.109375 -20.796875 
L 9.078125 -20.796875 
L 9.078125 54.6875 
L 18.109375 54.6875 
L 18.109375 46.390625 
Q 20.953125 51.265625 25.265625 53.625 
Q 29.59375 56 35.59375 56 
Q 45.5625 56 51.78125 48.09375 
Q 58.015625 40.1875 58.015625 27.296875 
Q 58.015625 14.40625 51.78125 6.484375 
Q 45.5625 -1.421875 35.59375 -1.421875 
Q 29.59375 -1.421875 25.265625 0.953125 
Q 20.953125 3.328125 18.109375 8.203125 
z
M 48.6875 27.296875 
Q 48.6875 37.203125 44.609375 42.84375 
Q 40.53125 48.484375 33.40625 48.484375 
Q 26.265625 48.484375 22.1875 42.84375 
Q 18.109375 37.203125 18.109375 27.296875 
Q 18.109375 17.390625 22.1875 11.75 
Q 26.265625 6.109375 33.40625 6.109375 
Q 40.53125 6.109375 44.609375 11.75 
Q 48.6875 17.390625 48.6875 27.296875 
z
" id="DejaVuSans-112"/>
      <path d="M 54.890625 33.015625 
L 54.890625 0 
L 45.90625 0 
L 45.90625 32.71875 
Q 45.90625 40.484375 42.875 44.328125 
Q 39.84375 48.1875 33.796875 48.1875 
Q 26.515625 48.1875 22.3125 43.546875 
Q 18.109375 38.921875 18.109375 30.90625 
L 18.109375 0 
L 9.078125 0 
L 9.078125 75.984375 
L 18.109375 75.984375 
L 18.109375 46.1875 
Q 21.34375 51.125 25.703125 53.5625 
Q 30.078125 56 35.796875 56 
Q 45.21875 56 50.046875 50.171875 
Q 54.890625 44.34375 54.890625 33.015625 
z
" id="DejaVuSans-104"/>
     </defs>
     <g transform="translate(18.827187 228.905938)rotate(-90)scale(0.1 -0.1)">
      <use xlink:href="#DejaVuSans-68"/>
      <use x="77.001953" xlink:href="#DejaVuSans-101"/>
      <use x="138.525391" xlink:href="#DejaVuSans-112"/>
      <use x="202.001953" xlink:href="#DejaVuSans-116"/>
      <use x="241.210938" xlink:href="#DejaVuSans-104"/>
      <use x="304.589844" xlink:href="#DejaVuSans-32"/>
      <use x="336.376953" xlink:href="#DejaVuSans-40"/>
      <use x="375.390625" xlink:href="#DejaVuSans-107"/>
      <use x="433.300781" xlink:href="#DejaVuSans-109"/>
      <use x="530.712891" xlink:href="#DejaVuSans-41"/>
     </g>
    </g>
   </g>
   <g id="line2d_11">
    <path clip-path="url(#pebc20c21be)" d="M 57.143793 28.038182 
L 57.358195 30.336606 
L 58.363283 32.63503 
L 60.176938 34.933455 
L 61.230236 37.231879 
L 60.747885 39.530303 
L 59.588039 41.828727 
L 58.967992 44.127152 
L 59.071426 46.425576 
L 59.476371 48.724 
L 59.666013 51.022424 
L 59.403336 53.320848 
L 58.900005 55.619273 
L 58.689726 57.917697 
L 59.048808 60.216121 
L 59.76035 62.514545 
L 60.037388 64.81297 
L 59.335891 67.111394 
L 58.11485 69.409818 
L 57.530543 71.708242 
L 57.915987 74.006667 
L 58.844419 76.305091 
L 59.532711 78.603515 
L 60.088989 80.901939 
L 60.811406 83.200364 
L 61.176151 85.498788 
L 60.888172 87.797212 
L 60.279461 90.095636 
L 59.984305 92.394061 
L 60.221311 94.692485 
L 60.756769 96.990909 
L 61.417346 101.587758 
L 62.026062 106.184606 
L 62.706455 113.079879 
L 62.14049 115.378303 
L 61.201706 117.676727 
L 60.904165 119.975152 
L 61.992498 122.273576 
L 64.192979 124.572 
L 65.497907 126.870424 
L 64.925766 129.168848 
L 63.55018 131.467273 
L 62.985966 133.765697 
L 63.93011 136.064121 
L 65.946585 138.362545 
L 67.290682 140.66097 
L 67.520553 142.959394 
L 67.416901 145.257818 
L 67.544023 147.556242 
L 68.521548 149.854667 
L 70.285977 152.153091 
L 71.310499 154.451515 
L 70.942598 156.749939 
L 69.979476 159.048364 
L 69.654505 161.346788 
L 70.727301 163.645212 
L 72.888729 165.943636 
L 74.394029 168.242061 
L 76.144477 175.137333 
L 77.766061 177.435758 
L 80.606459 179.734182 
L 82.346053 182.032606 
L 81.952745 184.33103 
L 80.679147 186.629455 
L 80.118917 188.927879 
L 80.857892 191.226303 
L 82.251753 193.524727 
L 82.880542 195.823152 
L 83.248934 198.121576 
L 85.192799 200.42 
L 88.889891 202.718424 
L 91.594697 205.016848 
L 92.484722 207.315273 
L 92.080037 209.613697 
L 89.227034 214.210545 
L 90.490738 216.50897 
L 96.922373 218.807394 
L 104.994949 221.105818 
L 115.616074 223.404242 
L 130.908711 225.702667 
L 122.512901 228.001091 
L 100.43025 230.299515 
L 89.871067 232.597939 
L 87.20552 234.896364 
L 87.911262 237.194788 
L 89.596001 239.493212 
L 90.339185 241.791636 
L 90.777427 244.090061 
L 94.420743 246.388485 
L 102.017704 248.686909 
L 105.095051 250.985333 
L 101.816117 253.283758 
L 100.015256 255.582182 
L 98.998544 257.880606 
L 96.046027 260.17903 
L 93.713197 262.477455 
L 92.120501 264.775879 
L 92.297931 267.074303 
L 96.293317 269.372727 
L 99.670535 271.671152 
L 99.179965 273.969576 
L 99.383472 276.268 
L 104.406141 278.566424 
L 110.074481 280.864848 
L 117.116852 285.461697 
L 119.890883 287.760121 
L 118.16933 290.058545 
L 111.61241 292.35697 
L 106.825663 294.655394 
L 102.977297 296.953818 
L 98.3233 299.252242 
L 95.481438 301.550667 
L 98.361394 303.849091 
L 111.135579 306.147515 
L 128.323911 308.445939 
L 143.369078 310.744364 
L 161.005999 313.042788 
L 173.273485 315.341212 
L 174.856574 317.639636 
L 172.56977 319.938061 
L 167.701379 322.236485 
L 156.883266 324.534909 
L 139.783322 326.833333 
L 120.339984 329.131758 
L 106.119726 331.430182 
L 103.293835 333.728606 
L 108.420537 336.02703 
L 112.467292 338.325455 
L 110.425556 340.623879 
L 105.481793 342.922303 
L 103.73603 345.220727 
L 108.911297 347.519152 
L 120.019472 349.817576 
L 120.473227 352.116 
L 110.240236 354.414424 
L 106.040346 356.712848 
L 107.304959 359.011273 
L 107.960847 361.309697 
L 107.092621 363.608121 
L 107.900311 365.906545 
L 111.346791 368.20497 
L 116.869493 370.503394 
L 123.499073 372.801818 
L 123.499073 372.801818 
" style="fill:none;stroke:#ff0000;stroke-linecap:square;"/>
   </g>
   <g id="patch_3">
    <path d="M 47.81 390.04 
L 47.81 10.8 
" style="fill:none;stroke:#000000;stroke-linecap:square;stroke-linejoin:miter;stroke-width:0.8;"/>
   </g>
   <g id="patch_4">
    <path d="M 205.2 390.04 
L 205.2 10.8 
" style="fill:none;stroke:#000000;stroke-linecap:square;stroke-linejoin:miter;stroke-width:0.8;"/>
   </g>
   <g id="patch_5">
    <path d="M 47.81 390.04 
L 205.2 390.04 
" style="fill:none;stroke:#000000;stroke-linecap:square;stroke-linejoin:miter;stroke-width:0.8;"/>
   </g>
   <g id="patch_6">
    <path d="M 47.81 10.8 
L 205.2 10.8 
" style="fill:none;stroke:#000000;stroke-linecap:square;stroke-linejoin:miter;stroke-width:0.8;"/>
   </g>
  </g>
 </g>
 <defs>
  <clipPath id="pebc20c21be">
   <rect height="379.24" width="157.39" x="47.81" y="10.8"/>
  </clipPath>
 </defs>
</svg>
