<?xml version="1.0" encoding="utf-8" standalone="no"?>
<!DOCTYPE svg PUBLIC "-//W3C//DTD SVG 1.1//EN"
  "http://www.w3.org/Graphics/SVG/1.1/DTD/svg11.dtd">
<!-- Created with matplotlib (https://matplotlib.org/) -->
<svg height="288pt" version="1.1" viewBox="0 0 252 288" width="252pt" xmlns="http://www.w3.org/2000/svg" xmlns:xlink="http://www.w3.org/1999/xlink">
 <defs>
  <style type="text/css">
*{stroke-linecap:butt;stroke-linejoin:round;}
  </style>
 </defs>
 <g id="figure_1">
  <g id="patch_1">
   <path d="M 0 288 
L 252 288 
L 252 0 
L 0 0 
z
" style="fill:none;"/>
  </g>
  <g id="axes_1">
   <g id="patch_2">
    <path d="M 47.81 119.96 
L 133.047741 119.96 
L 133.047741 12.289758 
L 47.81 12.289758 
z
" style="fill:none;"/>
   </g>
   <g id="patch_3">
    <path clip-path="url(#pfcd9bc9295)" d="M 78.869502 119.96 
L 81.144473 119.96 
L 81.144473 115.912852 
L 78.869502 115.912852 
z
" style="fill:#ff0000;opacity:0.4;"/>
   </g>
   <g id="patch_4">
    <path clip-path="url(#pfcd9bc9295)" d="M 81.144473 119.96 
L 83.419443 119.96 
L 83.419443 116.292272 
L 81.144473 116.292272 
z
" style="fill:#ff0000;opacity:0.4;"/>
   </g>
   <g id="patch_5">
    <path clip-path="url(#pfcd9bc9295)" d="M 83.419443 119.96 
L 85.694413 119.96 
L 85.694413 116.545219 
L 83.419443 116.545219 
z
" style="fill:#ff0000;opacity:0.4;"/>
   </g>
   <g id="patch_6">
    <path clip-path="url(#pfcd9bc9295)" d="M 85.694413 119.96 
L 87.969384 119.96 
L 87.969384 116.292272 
L 85.694413 116.292272 
z
" style="fill:#ff0000;opacity:0.4;"/>
   </g>
   <g id="patch_7">
    <path clip-path="url(#pfcd9bc9295)" d="M 87.969384 119.96 
L 90.244354 119.96 
L 90.244354 114.964301 
L 87.969384 114.964301 
z
" style="fill:#ff0000;opacity:0.4;"/>
   </g>
   <g id="patch_8">
    <path clip-path="url(#pfcd9bc9295)" d="M 90.244354 119.96 
L 92.519325 119.96 
L 92.519325 102.822856 
L 90.244354 102.822856 
z
" style="fill:#ff0000;opacity:0.4;"/>
   </g>
   <g id="patch_9">
    <path clip-path="url(#pfcd9bc9295)" d="M 92.519325 119.96 
L 94.794295 119.96 
L 94.794295 80.816487 
L 92.519325 80.816487 
z
" style="fill:#ff0000;opacity:0.4;"/>
   </g>
   <g id="patch_10">
    <path clip-path="url(#pfcd9bc9295)" d="M 94.794295 119.96 
L 97.069265 119.96 
L 97.069265 94.475613 
L 94.794295 94.475613 
z
" style="fill:#ff0000;opacity:0.4;"/>
   </g>
   <g id="patch_11">
    <path clip-path="url(#pfcd9bc9295)" d="M 97.069265 119.96 
L 99.344236 119.96 
L 99.344236 105.858217 
L 97.069265 105.858217 
z
" style="fill:#ff0000;opacity:0.4;"/>
   </g>
   <g id="patch_12">
    <path clip-path="url(#pfcd9bc9295)" d="M 99.344236 119.96 
L 101.619206 119.96 
L 101.619206 103.51846 
L 99.344236 103.51846 
z
" style="fill:#ff0000;opacity:0.4;"/>
   </g>
   <g id="patch_13">
    <path clip-path="url(#pfcd9bc9295)" d="M 101.619206 119.96 
L 103.894176 119.96 
L 103.894176 109.652419 
L 101.619206 109.652419 
z
" style="fill:#ff0000;opacity:0.4;"/>
   </g>
   <g id="patch_14">
    <path clip-path="url(#pfcd9bc9295)" d="M 103.894176 119.96 
L 106.169147 119.96 
L 106.169147 108.450922 
L 103.894176 108.450922 
z
" style="fill:#ff0000;opacity:0.4;"/>
   </g>
   <g id="patch_15">
    <path clip-path="url(#pfcd9bc9295)" d="M 106.169147 119.96 
L 108.444117 119.96 
L 108.444117 109.968602 
L 106.169147 109.968602 
z
" style="fill:#ff0000;opacity:0.4;"/>
   </g>
   <g id="patch_16">
    <path clip-path="url(#pfcd9bc9295)" d="M 108.444117 119.96 
L 110.719087 119.96 
L 110.719087 102.190489 
L 108.444117 102.190489 
z
" style="fill:#ff0000;opacity:0.4;"/>
   </g>
   <g id="patch_17">
    <path clip-path="url(#pfcd9bc9295)" d="M 110.719087 119.96 
L 112.994058 119.96 
L 112.994058 93.843246 
L 110.719087 93.843246 
z
" style="fill:#ff0000;opacity:0.4;"/>
   </g>
   <g id="patch_18">
    <path clip-path="url(#pfcd9bc9295)" d="M 112.994058 119.96 
L 115.269028 119.96 
L 115.269028 89.290204 
L 112.994058 89.290204 
z
" style="fill:#ff0000;opacity:0.4;"/>
   </g>
   <g id="patch_19">
    <path clip-path="url(#pfcd9bc9295)" d="M 115.269028 119.96 
L 117.543998 119.96 
L 117.543998 87.64605 
L 115.269028 87.64605 
z
" style="fill:#ff0000;opacity:0.4;"/>
   </g>
   <g id="patch_20">
    <path clip-path="url(#pfcd9bc9295)" d="M 117.543998 119.96 
L 119.818969 119.96 
L 119.818969 87.013683 
L 117.543998 87.013683 
z
" style="fill:#ff0000;opacity:0.4;"/>
   </g>
   <g id="patch_21">
    <path clip-path="url(#pfcd9bc9295)" d="M 119.818969 119.96 
L 122.093939 119.96 
L 122.093939 80.120883 
L 119.818969 80.120883 
z
" style="fill:#ff0000;opacity:0.4;"/>
   </g>
   <g id="matplotlib.axis_1">
    <g id="xtick_1">
     <g id="line2d_1">
      <defs>
       <path d="M 0 0 
L 0 3.5 
" id="m54c0e73894" style="stroke:#000000;stroke-width:0.8;"/>
      </defs>
      <g>
       <use style="stroke:#000000;stroke-width:0.8;" x="55.119971" xlink:href="#m54c0e73894" y="119.96"/>
      </g>
     </g>
    </g>
    <g id="xtick_2">
     <g id="line2d_2">
      <g>
       <use style="stroke:#000000;stroke-width:0.8;" x="92.327812" xlink:href="#m54c0e73894" y="119.96"/>
      </g>
     </g>
    </g>
    <g id="xtick_3">
     <g id="line2d_3">
      <g>
       <use style="stroke:#000000;stroke-width:0.8;" x="129.535654" xlink:href="#m54c0e73894" y="119.96"/>
      </g>
     </g>
    </g>
   </g>
   <g id="matplotlib.axis_2">
    <g id="ytick_1">
     <g id="line2d_4">
      <defs>
       <path d="M 0 0 
L -3.5 0 
" id="mcc57d46d85" style="stroke:#000000;stroke-width:0.8;"/>
      </defs>
      <g>
       <use style="stroke:#000000;stroke-width:0.8;" x="47.81" xlink:href="#mcc57d46d85" y="119.96"/>
      </g>
     </g>
     <g id="text_1">
      <!-- 0.0 -->
      <defs>
       <path d="M 31.78125 66.40625 
Q 24.171875 66.40625 20.328125 58.90625 
Q 16.5 51.421875 16.5 36.375 
Q 16.5 21.390625 20.328125 13.890625 
Q 24.171875 6.390625 31.78125 6.390625 
Q 39.453125 6.390625 43.28125 13.890625 
Q 47.125 21.390625 47.125 36.375 
Q 47.125 51.421875 43.28125 58.90625 
Q 39.453125 66.40625 31.78125 66.40625 
z
M 31.78125 74.21875 
Q 44.046875 74.21875 50.515625 64.515625 
Q 56.984375 54.828125 56.984375 36.375 
Q 56.984375 17.96875 50.515625 8.265625 
Q 44.046875 -1.421875 31.78125 -1.421875 
Q 19.53125 -1.421875 13.0625 8.265625 
Q 6.59375 17.96875 6.59375 36.375 
Q 6.59375 54.828125 13.0625 64.515625 
Q 19.53125 74.21875 31.78125 74.21875 
z
" id="DejaVuSans-48"/>
       <path d="M 10.6875 12.40625 
L 21 12.40625 
L 21 0 
L 10.6875 0 
z
" id="DejaVuSans-46"/>
      </defs>
      <g transform="translate(24.906875 123.759219)scale(0.1 -0.1)">
       <use xlink:href="#DejaVuSans-48"/>
       <use x="63.623047" xlink:href="#DejaVuSans-46"/>
       <use x="95.410156" xlink:href="#DejaVuSans-48"/>
      </g>
     </g>
    </g>
    <g id="ytick_2">
     <g id="line2d_5">
      <g>
       <use style="stroke:#000000;stroke-width:0.8;" x="47.81" xlink:href="#mcc57d46d85" y="93.702091"/>
      </g>
     </g>
     <g id="text_2">
      <!-- 0.5 -->
      <defs>
       <path d="M 10.796875 72.90625 
L 49.515625 72.90625 
L 49.515625 64.59375 
L 19.828125 64.59375 
L 19.828125 46.734375 
Q 21.96875 47.46875 24.109375 47.828125 
Q 26.265625 48.1875 28.421875 48.1875 
Q 40.625 48.1875 47.75 41.5 
Q 54.890625 34.8125 54.890625 23.390625 
Q 54.890625 11.625 47.5625 5.09375 
Q 40.234375 -1.421875 26.90625 -1.421875 
Q 22.3125 -1.421875 17.546875 -0.640625 
Q 12.796875 0.140625 7.71875 1.703125 
L 7.71875 11.625 
Q 12.109375 9.234375 16.796875 8.0625 
Q 21.484375 6.890625 26.703125 6.890625 
Q 35.15625 6.890625 40.078125 11.328125 
Q 45.015625 15.765625 45.015625 23.390625 
Q 45.015625 31 40.078125 35.4375 
Q 35.15625 39.890625 26.703125 39.890625 
Q 22.75 39.890625 18.8125 39.015625 
Q 14.890625 38.140625 10.796875 36.28125 
z
" id="DejaVuSans-53"/>
      </defs>
      <g transform="translate(24.906875 97.50131)scale(0.1 -0.1)">
       <use xlink:href="#DejaVuSans-48"/>
       <use x="63.623047" xlink:href="#DejaVuSans-46"/>
       <use x="95.410156" xlink:href="#DejaVuSans-53"/>
      </g>
     </g>
    </g>
    <g id="ytick_3">
     <g id="line2d_6">
      <g>
       <use style="stroke:#000000;stroke-width:0.8;" x="47.81" xlink:href="#mcc57d46d85" y="67.444182"/>
      </g>
     </g>
     <g id="text_3">
      <!-- 1.0 -->
      <defs>
       <path d="M 12.40625 8.296875 
L 28.515625 8.296875 
L 28.515625 63.921875 
L 10.984375 60.40625 
L 10.984375 69.390625 
L 28.421875 72.90625 
L 38.28125 72.90625 
L 38.28125 8.296875 
L 54.390625 8.296875 
L 54.390625 0 
L 12.40625 0 
z
" id="DejaVuSans-49"/>
      </defs>
      <g transform="translate(24.906875 71.243401)scale(0.1 -0.1)">
       <use xlink:href="#DejaVuSans-49"/>
       <use x="63.623047" xlink:href="#DejaVuSans-46"/>
       <use x="95.410156" xlink:href="#DejaVuSans-48"/>
      </g>
     </g>
    </g>
    <g id="ytick_4">
     <g id="line2d_7">
      <g>
       <use style="stroke:#000000;stroke-width:0.8;" x="47.81" xlink:href="#mcc57d46d85" y="41.186274"/>
      </g>
     </g>
     <g id="text_4">
      <!-- 1.5 -->
      <g transform="translate(24.906875 44.985492)scale(0.1 -0.1)">
       <use xlink:href="#DejaVuSans-49"/>
       <use x="63.623047" xlink:href="#DejaVuSans-46"/>
       <use x="95.410156" xlink:href="#DejaVuSans-53"/>
      </g>
     </g>
    </g>
    <g id="ytick_5">
     <g id="line2d_8">
      <g>
       <use style="stroke:#000000;stroke-width:0.8;" x="47.81" xlink:href="#mcc57d46d85" y="14.928365"/>
      </g>
     </g>
     <g id="text_5">
      <!-- 2.0 -->
      <defs>
       <path d="M 19.1875 8.296875 
L 53.609375 8.296875 
L 53.609375 0 
L 7.328125 0 
L 7.328125 8.296875 
Q 12.9375 14.109375 22.625 23.890625 
Q 32.328125 33.6875 34.8125 36.53125 
Q 39.546875 41.84375 41.421875 45.53125 
Q 43.3125 49.21875 43.3125 52.78125 
Q 43.3125 58.59375 39.234375 62.25 
Q 35.15625 65.921875 28.609375 65.921875 
Q 23.96875 65.921875 18.8125 64.3125 
Q 13.671875 62.703125 7.8125 59.421875 
L 7.8125 69.390625 
Q 13.765625 71.78125 18.9375 73 
Q 24.125 74.21875 28.421875 74.21875 
Q 39.75 74.21875 46.484375 68.546875 
Q 53.21875 62.890625 53.21875 53.421875 
Q 53.21875 48.921875 51.53125 44.890625 
Q 49.859375 40.875 45.40625 35.40625 
Q 44.1875 33.984375 37.640625 27.21875 
Q 31.109375 20.453125 19.1875 8.296875 
z
" id="DejaVuSans-50"/>
      </defs>
      <g transform="translate(24.906875 18.727583)scale(0.1 -0.1)">
       <use xlink:href="#DejaVuSans-50"/>
       <use x="63.623047" xlink:href="#DejaVuSans-46"/>
       <use x="95.410156" xlink:href="#DejaVuSans-48"/>
      </g>
     </g>
    </g>
    <g id="text_6">
     <!-- Density -->
     <defs>
      <path d="M 19.671875 64.796875 
L 19.671875 8.109375 
L 31.59375 8.109375 
Q 46.6875 8.109375 53.6875 14.9375 
Q 60.6875 21.78125 60.6875 36.53125 
Q 60.6875 51.171875 53.6875 57.984375 
Q 46.6875 64.796875 31.59375 64.796875 
z
M 9.8125 72.90625 
L 30.078125 72.90625 
Q 51.265625 72.90625 61.171875 64.09375 
Q 71.09375 55.28125 71.09375 36.53125 
Q 71.09375 17.671875 61.125 8.828125 
Q 51.171875 0 30.078125 0 
L 9.8125 0 
z
" id="DejaVuSans-68"/>
      <path d="M 56.203125 29.59375 
L 56.203125 25.203125 
L 14.890625 25.203125 
Q 15.484375 15.921875 20.484375 11.0625 
Q 25.484375 6.203125 34.421875 6.203125 
Q 39.59375 6.203125 44.453125 7.46875 
Q 49.3125 8.734375 54.109375 11.28125 
L 54.109375 2.78125 
Q 49.265625 0.734375 44.1875 -0.34375 
Q 39.109375 -1.421875 33.890625 -1.421875 
Q 20.796875 -1.421875 13.15625 6.1875 
Q 5.515625 13.8125 5.515625 26.8125 
Q 5.515625 40.234375 12.765625 48.109375 
Q 20.015625 56 32.328125 56 
Q 43.359375 56 49.78125 48.890625 
Q 56.203125 41.796875 56.203125 29.59375 
z
M 47.21875 32.234375 
Q 47.125 39.59375 43.09375 43.984375 
Q 39.0625 48.390625 32.421875 48.390625 
Q 24.90625 48.390625 20.390625 44.140625 
Q 15.875 39.890625 15.1875 32.171875 
z
" id="DejaVuSans-101"/>
      <path d="M 54.890625 33.015625 
L 54.890625 0 
L 45.90625 0 
L 45.90625 32.71875 
Q 45.90625 40.484375 42.875 44.328125 
Q 39.84375 48.1875 33.796875 48.1875 
Q 26.515625 48.1875 22.3125 43.546875 
Q 18.109375 38.921875 18.109375 30.90625 
L 18.109375 0 
L 9.078125 0 
L 9.078125 54.6875 
L 18.109375 54.6875 
L 18.109375 46.1875 
Q 21.34375 51.125 25.703125 53.5625 
Q 30.078125 56 35.796875 56 
Q 45.21875 56 50.046875 50.171875 
Q 54.890625 44.34375 54.890625 33.015625 
z
" id="DejaVuSans-110"/>
      <path d="M 44.28125 53.078125 
L 44.28125 44.578125 
Q 40.484375 46.53125 36.375 47.5 
Q 32.28125 48.484375 27.875 48.484375 
Q 21.1875 48.484375 17.84375 46.4375 
Q 14.5 44.390625 14.5 40.28125 
Q 14.5 37.15625 16.890625 35.375 
Q 19.28125 33.59375 26.515625 31.984375 
L 29.59375 31.296875 
Q 39.15625 29.25 43.1875 25.515625 
Q 47.21875 21.78125 47.21875 15.09375 
Q 47.21875 7.46875 41.1875 3.015625 
Q 35.15625 -1.421875 24.609375 -1.421875 
Q 20.21875 -1.421875 15.453125 -0.5625 
Q 10.6875 0.296875 5.421875 2 
L 5.421875 11.28125 
Q 10.40625 8.6875 15.234375 7.390625 
Q 20.0625 6.109375 24.8125 6.109375 
Q 31.15625 6.109375 34.5625 8.28125 
Q 37.984375 10.453125 37.984375 14.40625 
Q 37.984375 18.0625 35.515625 20.015625 
Q 33.0625 21.96875 24.703125 23.78125 
L 21.578125 24.515625 
Q 13.234375 26.265625 9.515625 29.90625 
Q 5.8125 33.546875 5.8125 39.890625 
Q 5.8125 47.609375 11.28125 51.796875 
Q 16.75 56 26.8125 56 
Q 31.78125 56 36.171875 55.265625 
Q 40.578125 54.546875 44.28125 53.078125 
z
" id="DejaVuSans-115"/>
      <path d="M 9.421875 54.6875 
L 18.40625 54.6875 
L 18.40625 0 
L 9.421875 0 
z
M 9.421875 75.984375 
L 18.40625 75.984375 
L 18.40625 64.59375 
L 9.421875 64.59375 
z
" id="DejaVuSans-105"/>
      <path d="M 18.3125 70.21875 
L 18.3125 54.6875 
L 36.8125 54.6875 
L 36.8125 47.703125 
L 18.3125 47.703125 
L 18.3125 18.015625 
Q 18.3125 11.328125 20.140625 9.421875 
Q 21.96875 7.515625 27.59375 7.515625 
L 36.8125 7.515625 
L 36.8125 0 
L 27.59375 0 
Q 17.1875 0 13.234375 3.875 
Q 9.28125 7.765625 9.28125 18.015625 
L 9.28125 47.703125 
L 2.6875 47.703125 
L 2.6875 54.6875 
L 9.28125 54.6875 
L 9.28125 70.21875 
z
" id="DejaVuSans-116"/>
      <path d="M 32.171875 -5.078125 
Q 28.375 -14.84375 24.75 -17.8125 
Q 21.140625 -20.796875 15.09375 -20.796875 
L 7.90625 -20.796875 
L 7.90625 -13.28125 
L 13.1875 -13.28125 
Q 16.890625 -13.28125 18.9375 -11.515625 
Q 21 -9.765625 23.484375 -3.21875 
L 25.09375 0.875 
L 2.984375 54.6875 
L 12.5 54.6875 
L 29.59375 11.921875 
L 46.6875 54.6875 
L 56.203125 54.6875 
z
" id="DejaVuSans-121"/>
     </defs>
     <g transform="translate(18.827187 85.133473)rotate(-90)scale(0.1 -0.1)">
      <use xlink:href="#DejaVuSans-68"/>
      <use x="77.001953" xlink:href="#DejaVuSans-101"/>
      <use x="138.525391" xlink:href="#DejaVuSans-110"/>
      <use x="201.904297" xlink:href="#DejaVuSans-115"/>
      <use x="254.003906" xlink:href="#DejaVuSans-105"/>
      <use x="281.787109" xlink:href="#DejaVuSans-116"/>
      <use x="320.996094" xlink:href="#DejaVuSans-121"/>
     </g>
    </g>
   </g>
   <g id="line2d_9">
    <path clip-path="url(#pfcd9bc9295)" d="M 72.796472 119.953735 
L 73.35577 119.945137 
L 73.915068 119.927149 
L 74.474366 119.892296 
L 75.033664 119.829745 
L 75.592962 119.725767 
L 76.15226 119.565693 
L 76.711558 119.337514 
L 77.270856 119.036526 
L 77.830154 118.669563 
L 78.389452 118.256994 
L 78.94875 117.831047 
L 79.508048 117.430171 
L 80.067345 117.090636 
L 80.626643 116.83769 
L 81.185941 116.679057 
L 81.745239 116.603109 
L 82.304537 116.582727 
L 82.863835 116.583924 
L 83.423133 116.576179 
L 83.982431 116.540229 
L 84.541729 116.469642 
L 85.101027 116.364973 
L 85.660325 116.222684 
L 86.219623 116.023507 
L 86.778921 115.725137 
L 87.338219 115.262192 
L 87.897517 114.553258 
L 88.456815 113.512672 
L 89.016113 112.064302 
L 89.575411 110.155911 
L 90.134709 107.774263 
L 90.694007 104.961232 
L 91.253305 101.829015 
L 91.812602 98.568825 
L 92.3719 95.444657 
L 92.931198 92.764713 
L 93.490496 90.829473 
L 94.049794 89.865891 
L 94.609092 89.967013 
L 95.16839 91.059504 
L 95.727688 92.914653 
L 96.286986 95.202989 
L 96.846284 97.575725 
L 97.405582 99.745782 
L 97.96488 101.542288 
L 98.524178 102.923981 
L 99.083476 103.953134 
L 99.642774 104.745246 
L 100.202072 105.415726 
L 100.76137 106.042027 
L 101.320668 106.650505 
L 101.879966 107.226216 
L 102.439264 107.73553 
L 102.998562 108.148702 
L 103.557859 108.45257 
L 104.117157 108.650045 
L 104.676455 108.749375 
L 105.235753 108.749974 
L 105.795051 108.631915 
L 106.354349 108.354043 
L 106.913647 107.86224 
L 107.472945 107.105796 
L 108.032243 106.056758 
L 108.591541 104.72526 
L 109.150839 103.164202 
L 109.710137 101.459824 
L 110.269435 99.710221 
L 110.828733 97.999678 
L 111.388031 96.37961 
L 111.947329 94.864703 
L 112.506627 93.44583 
L 113.065925 92.112758 
L 113.625223 90.874507 
L 114.184521 89.766489 
L 114.743819 88.840998 
L 115.303116 88.146811 
L 115.862414 87.70931 
L 116.421712 87.52156 
L 116.98101 87.550423 
L 117.540308 87.754673 
L 118.099606 88.108088 
L 118.658904 88.620245 
L 119.218202 89.348776 
L 119.7775 90.397047 
L 120.336798 91.89225 
L 120.896096 93.943955 
L 121.455394 96.593217 
L 122.014692 99.772141 
L 122.57399 103.295199 
L 123.133288 106.892107 
L 123.692586 110.272592 
L 124.251884 113.197506 
L 124.811182 115.528498 
L 125.37048 117.240596 
L 125.929778 118.400312 
L 126.489075 119.125197 
L 127.048373 119.543521 
L 127.607671 119.766513 
L 128.166969 119.876357 
" style="fill:none;stroke:#ff0000;stroke-linecap:square;stroke-width:1.5;"/>
   </g>
   <g id="patch_22">
    <path d="M 47.81 119.96 
L 47.81 12.289758 
" style="fill:none;stroke:#000000;stroke-linecap:square;stroke-linejoin:miter;stroke-width:0.8;"/>
   </g>
   <g id="patch_23">
    <path d="M 133.047741 119.96 
L 133.047741 12.289758 
" style="fill:none;stroke:#000000;stroke-linecap:square;stroke-linejoin:miter;stroke-width:0.8;"/>
   </g>
   <g id="patch_24">
    <path d="M 47.81 119.96 
L 133.047741 119.96 
" style="fill:none;stroke:#000000;stroke-linecap:square;stroke-linejoin:miter;stroke-width:0.8;"/>
   </g>
   <g id="patch_25">
    <path d="M 47.81 12.289758 
L 133.047741 12.289758 
" style="fill:none;stroke:#000000;stroke-linecap:square;stroke-linejoin:miter;stroke-width:0.8;"/>
   </g>
  </g>
  <g id="axes_2">
   <g id="patch_26">
    <path d="M 151.655 119.96 
L 236.892741 119.96 
L 236.892741 12.289758 
L 151.655 12.289758 
z
" style="fill:none;"/>
   </g>
   <g id="patch_27">
    <path clip-path="url(#pea6a8a1883)" d="M 163.584053 119.96 
L 164.717627 119.96 
L 164.717627 86.836552 
L 163.584053 86.836552 
z
" style="fill:#0000ff;opacity:0.4;"/>
   </g>
   <g id="patch_28">
    <path clip-path="url(#pea6a8a1883)" d="M 164.717627 119.96 
L 165.851201 119.96 
L 165.851201 52.824736 
L 164.717627 52.824736 
z
" style="fill:#0000ff;opacity:0.4;"/>
   </g>
   <g id="patch_29">
    <path clip-path="url(#pea6a8a1883)" d="M 165.851201 119.96 
L 166.984775 119.96 
L 166.984775 35.945738 
L 165.851201 35.945738 
z
" style="fill:#0000ff;opacity:0.4;"/>
   </g>
   <g id="patch_30">
    <path clip-path="url(#pea6a8a1883)" d="M 166.984775 119.96 
L 168.118349 119.96 
L 168.118349 52.951646 
L 166.984775 52.951646 
z
" style="fill:#0000ff;opacity:0.4;"/>
   </g>
   <g id="patch_31">
    <path clip-path="url(#pea6a8a1883)" d="M 168.118349 119.96 
L 169.251923 119.96 
L 169.251923 17.416912 
L 168.118349 17.416912 
z
" style="fill:#0000ff;opacity:0.4;"/>
   </g>
   <g id="patch_32">
    <path clip-path="url(#pea6a8a1883)" d="M 169.251923 119.96 
L 170.385497 119.96 
L 170.385497 65.515712 
L 169.251923 65.515712 
z
" style="fill:#0000ff;opacity:0.4;"/>
   </g>
   <g id="patch_33">
    <path clip-path="url(#pea6a8a1883)" d="M 170.385497 119.96 
L 171.519071 119.96 
L 171.519071 59.043314 
L 170.385497 59.043314 
z
" style="fill:#0000ff;opacity:0.4;"/>
   </g>
   <g id="patch_34">
    <path clip-path="url(#pea6a8a1883)" d="M 171.519071 119.96 
L 172.652645 119.96 
L 172.652645 76.176132 
L 171.519071 76.176132 
z
" style="fill:#0000ff;opacity:0.4;"/>
   </g>
   <g id="patch_35">
    <path clip-path="url(#pea6a8a1883)" d="M 172.652645 119.96 
L 173.786219 119.96 
L 173.786219 113.487602 
L 172.652645 113.487602 
z
" style="fill:#0000ff;opacity:0.4;"/>
   </g>
   <g id="patch_36">
    <path clip-path="url(#pea6a8a1883)" d="M 173.786219 119.96 
L 174.919793 119.96 
L 174.919793 119.96 
L 173.786219 119.96 
z
" style="fill:#0000ff;opacity:0.4;"/>
   </g>
   <g id="patch_37">
    <path clip-path="url(#pea6a8a1883)" d="M 174.919793 119.96 
L 176.053367 119.96 
L 176.053367 119.96 
L 174.919793 119.96 
z
" style="fill:#0000ff;opacity:0.4;"/>
   </g>
   <g id="patch_38">
    <path clip-path="url(#pea6a8a1883)" d="M 176.053367 119.96 
L 177.186941 119.96 
L 177.186941 119.96 
L 176.053367 119.96 
z
" style="fill:#0000ff;opacity:0.4;"/>
   </g>
   <g id="patch_39">
    <path clip-path="url(#pea6a8a1883)" d="M 177.186941 119.96 
L 178.320515 119.96 
L 178.320515 119.96 
L 177.186941 119.96 
z
" style="fill:#0000ff;opacity:0.4;"/>
   </g>
   <g id="patch_40">
    <path clip-path="url(#pea6a8a1883)" d="M 178.320515 119.96 
L 179.454088 119.96 
L 179.454088 119.96 
L 178.320515 119.96 
z
" style="fill:#0000ff;opacity:0.4;"/>
   </g>
   <g id="patch_41">
    <path clip-path="url(#pea6a8a1883)" d="M 179.454088 119.96 
L 180.587662 119.96 
L 180.587662 119.96 
L 179.454088 119.96 
z
" style="fill:#0000ff;opacity:0.4;"/>
   </g>
   <g id="patch_42">
    <path clip-path="url(#pea6a8a1883)" d="M 180.587662 119.96 
L 181.721236 119.96 
L 181.721236 119.96 
L 180.587662 119.96 
z
" style="fill:#0000ff;opacity:0.4;"/>
   </g>
   <g id="patch_43">
    <path clip-path="url(#pea6a8a1883)" d="M 181.721236 119.96 
L 182.85481 119.96 
L 182.85481 119.96 
L 181.721236 119.96 
z
" style="fill:#0000ff;opacity:0.4;"/>
   </g>
   <g id="patch_44">
    <path clip-path="url(#pea6a8a1883)" d="M 182.85481 119.96 
L 183.988384 119.96 
L 183.988384 117.421805 
L 182.85481 117.421805 
z
" style="fill:#0000ff;opacity:0.4;"/>
   </g>
   <g id="patch_45">
    <path clip-path="url(#pea6a8a1883)" d="M 183.988384 119.96 
L 185.121958 119.96 
L 185.121958 117.421805 
L 183.988384 117.421805 
z
" style="fill:#0000ff;opacity:0.4;"/>
   </g>
   <g id="patch_46">
    <path clip-path="url(#pea6a8a1883)" d="M 185.121958 119.96 
L 186.255532 119.96 
L 186.255532 117.548715 
L 185.121958 117.548715 
z
" style="fill:#0000ff;opacity:0.4;"/>
   </g>
   <g id="patch_47">
    <path clip-path="url(#pea6a8a1883)" d="M 186.255532 119.96 
L 187.389106 119.96 
L 187.389106 118.944722 
L 186.255532 118.944722 
z
" style="fill:#0000ff;opacity:0.4;"/>
   </g>
   <g id="patch_48">
    <path clip-path="url(#pea6a8a1883)" d="M 187.389106 119.96 
L 188.52268 119.96 
L 188.52268 116.152707 
L 187.389106 116.152707 
z
" style="fill:#0000ff;opacity:0.4;"/>
   </g>
   <g id="patch_49">
    <path clip-path="url(#pea6a8a1883)" d="M 188.52268 119.96 
L 189.656254 119.96 
L 189.656254 111.457046 
L 188.52268 111.457046 
z
" style="fill:#0000ff;opacity:0.4;"/>
   </g>
   <g id="patch_50">
    <path clip-path="url(#pea6a8a1883)" d="M 189.656254 119.96 
L 190.789828 119.96 
L 190.789828 109.29958 
L 189.656254 109.29958 
z
" style="fill:#0000ff;opacity:0.4;"/>
   </g>
   <g id="patch_51">
    <path clip-path="url(#pea6a8a1883)" d="M 190.789828 119.96 
L 191.923402 119.96 
L 191.923402 114.122151 
L 190.789828 114.122151 
z
" style="fill:#0000ff;opacity:0.4;"/>
   </g>
   <g id="patch_52">
    <path clip-path="url(#pea6a8a1883)" d="M 191.923402 119.96 
L 193.056976 119.96 
L 193.056976 116.025797 
L 191.923402 116.025797 
z
" style="fill:#0000ff;opacity:0.4;"/>
   </g>
   <g id="patch_53">
    <path clip-path="url(#pea6a8a1883)" d="M 193.056976 119.96 
L 194.19055 119.96 
L 194.19055 119.325451 
L 193.056976 119.325451 
z
" style="fill:#0000ff;opacity:0.4;"/>
   </g>
   <g id="patch_54">
    <path clip-path="url(#pea6a8a1883)" d="M 194.19055 119.96 
L 195.324124 119.96 
L 195.324124 116.660346 
L 194.19055 116.660346 
z
" style="fill:#0000ff;opacity:0.4;"/>
   </g>
   <g id="patch_55">
    <path clip-path="url(#pea6a8a1883)" d="M 195.324124 119.96 
L 196.457698 119.96 
L 196.457698 117.929444 
L 195.324124 117.929444 
z
" style="fill:#0000ff;opacity:0.4;"/>
   </g>
   <g id="patch_56">
    <path clip-path="url(#pea6a8a1883)" d="M 196.457698 119.96 
L 197.591272 119.96 
L 197.591272 116.152707 
L 196.457698 116.152707 
z
" style="fill:#0000ff;opacity:0.4;"/>
   </g>
   <g id="patch_57">
    <path clip-path="url(#pea6a8a1883)" d="M 197.591272 119.96 
L 198.724846 119.96 
L 198.724846 112.472324 
L 197.591272 112.472324 
z
" style="fill:#0000ff;opacity:0.4;"/>
   </g>
   <g id="patch_58">
    <path clip-path="url(#pea6a8a1883)" d="M 198.724846 119.96 
L 199.85842 119.96 
L 199.85842 115.391249 
L 198.724846 115.391249 
z
" style="fill:#0000ff;opacity:0.4;"/>
   </g>
   <g id="patch_59">
    <path clip-path="url(#pea6a8a1883)" d="M 199.85842 119.96 
L 200.991994 119.96 
L 200.991994 108.157392 
L 199.85842 108.157392 
z
" style="fill:#0000ff;opacity:0.4;"/>
   </g>
   <g id="patch_60">
    <path clip-path="url(#pea6a8a1883)" d="M 200.991994 119.96 
L 202.125568 119.96 
L 202.125568 108.284302 
L 200.991994 108.284302 
z
" style="fill:#0000ff;opacity:0.4;"/>
   </g>
   <g id="patch_61">
    <path clip-path="url(#pea6a8a1883)" d="M 202.125568 119.96 
L 203.259142 119.96 
L 203.259142 107.395934 
L 202.125568 107.395934 
z
" style="fill:#0000ff;opacity:0.4;"/>
   </g>
   <g id="patch_62">
    <path clip-path="url(#pea6a8a1883)" d="M 203.259142 119.96 
L 204.392716 119.96 
L 204.392716 107.776663 
L 203.259142 107.776663 
z
" style="fill:#0000ff;opacity:0.4;"/>
   </g>
   <g id="patch_63">
    <path clip-path="url(#pea6a8a1883)" d="M 204.392716 119.96 
L 205.52629 119.96 
L 205.52629 113.868331 
L 204.392716 113.868331 
z
" style="fill:#0000ff;opacity:0.4;"/>
   </g>
   <g id="patch_64">
    <path clip-path="url(#pea6a8a1883)" d="M 205.52629 119.96 
L 206.659864 119.96 
L 206.659864 114.249061 
L 205.52629 114.249061 
z
" style="fill:#0000ff;opacity:0.4;"/>
   </g>
   <g id="patch_65">
    <path clip-path="url(#pea6a8a1883)" d="M 206.659864 119.96 
L 207.793438 119.96 
L 207.793438 115.771978 
L 206.659864 115.771978 
z
" style="fill:#0000ff;opacity:0.4;"/>
   </g>
   <g id="patch_66">
    <path clip-path="url(#pea6a8a1883)" d="M 207.793438 119.96 
L 208.927011 119.96 
L 208.927011 110.061039 
L 207.793438 110.061039 
z
" style="fill:#0000ff;opacity:0.4;"/>
   </g>
   <g id="patch_67">
    <path clip-path="url(#pea6a8a1883)" d="M 208.927011 119.96 
L 210.060585 119.96 
L 210.060585 111.203226 
L 208.927011 111.203226 
z
" style="fill:#0000ff;opacity:0.4;"/>
   </g>
   <g id="patch_68">
    <path clip-path="url(#pea6a8a1883)" d="M 210.060585 119.96 
L 211.194159 119.96 
L 211.194159 115.010519 
L 210.060585 115.010519 
z
" style="fill:#0000ff;opacity:0.4;"/>
   </g>
   <g id="patch_69">
    <path clip-path="url(#pea6a8a1883)" d="M 211.194159 119.96 
L 212.327733 119.96 
L 212.327733 115.391249 
L 211.194159 115.391249 
z
" style="fill:#0000ff;opacity:0.4;"/>
   </g>
   <g id="patch_70">
    <path clip-path="url(#pea6a8a1883)" d="M 212.327733 119.96 
L 213.461307 119.96 
L 213.461307 116.533436 
L 212.327733 116.533436 
z
" style="fill:#0000ff;opacity:0.4;"/>
   </g>
   <g id="patch_71">
    <path clip-path="url(#pea6a8a1883)" d="M 213.461307 119.96 
L 214.594881 119.96 
L 214.594881 118.817812 
L 213.461307 118.817812 
z
" style="fill:#0000ff;opacity:0.4;"/>
   </g>
   <g id="patch_72">
    <path clip-path="url(#pea6a8a1883)" d="M 214.594881 119.96 
L 215.728455 119.96 
L 215.728455 119.579271 
L 214.594881 119.579271 
z
" style="fill:#0000ff;opacity:0.4;"/>
   </g>
   <g id="patch_73">
    <path clip-path="url(#pea6a8a1883)" d="M 215.728455 119.96 
L 216.862029 119.96 
L 216.862029 117.548715 
L 215.728455 117.548715 
z
" style="fill:#0000ff;opacity:0.4;"/>
   </g>
   <g id="patch_74">
    <path clip-path="url(#pea6a8a1883)" d="M 216.862029 119.96 
L 217.995603 119.96 
L 217.995603 116.279617 
L 216.862029 116.279617 
z
" style="fill:#0000ff;opacity:0.4;"/>
   </g>
   <g id="patch_75">
    <path clip-path="url(#pea6a8a1883)" d="M 217.995603 119.96 
L 219.129177 119.96 
L 219.129177 117.929444 
L 217.995603 117.929444 
z
" style="fill:#0000ff;opacity:0.4;"/>
   </g>
   <g id="patch_76">
    <path clip-path="url(#pea6a8a1883)" d="M 219.129177 119.96 
L 220.262751 119.96 
L 220.262751 118.437083 
L 219.129177 118.437083 
z
" style="fill:#0000ff;opacity:0.4;"/>
   </g>
   <g id="matplotlib.axis_3">
    <g id="xtick_4">
     <g id="line2d_10">
      <g>
       <use style="stroke:#000000;stroke-width:0.8;" x="158.964971" xlink:href="#m54c0e73894" y="119.96"/>
      </g>
     </g>
    </g>
    <g id="xtick_5">
     <g id="line2d_11">
      <g>
       <use style="stroke:#000000;stroke-width:0.8;" x="196.172812" xlink:href="#m54c0e73894" y="119.96"/>
      </g>
     </g>
    </g>
    <g id="xtick_6">
     <g id="line2d_12">
      <g>
       <use style="stroke:#000000;stroke-width:0.8;" x="233.380654" xlink:href="#m54c0e73894" y="119.96"/>
      </g>
     </g>
    </g>
   </g>
   <g id="matplotlib.axis_4">
    <g id="ytick_6">
     <g id="line2d_13">
      <g>
       <use style="stroke:#000000;stroke-width:0.8;" x="151.655" xlink:href="#mcc57d46d85" y="119.96"/>
      </g>
     </g>
    </g>
    <g id="ytick_7">
     <g id="line2d_14">
      <g>
       <use style="stroke:#000000;stroke-width:0.8;" x="151.655" xlink:href="#mcc57d46d85" y="93.702091"/>
      </g>
     </g>
    </g>
    <g id="ytick_8">
     <g id="line2d_15">
      <g>
       <use style="stroke:#000000;stroke-width:0.8;" x="151.655" xlink:href="#mcc57d46d85" y="67.444182"/>
      </g>
     </g>
    </g>
    <g id="ytick_9">
     <g id="line2d_16">
      <g>
       <use style="stroke:#000000;stroke-width:0.8;" x="151.655" xlink:href="#mcc57d46d85" y="41.186274"/>
      </g>
     </g>
    </g>
    <g id="ytick_10">
     <g id="line2d_17">
      <g>
       <use style="stroke:#000000;stroke-width:0.8;" x="151.655" xlink:href="#mcc57d46d85" y="14.928365"/>
      </g>
     </g>
    </g>
   </g>
   <g id="line2d_18">
    <path clip-path="url(#pea6a8a1883)" d="M 155.529443 119.913042 
L 156.264674 119.843107 
L 156.999906 119.68804 
L 157.735137 119.368202 
L 158.470369 118.754548 
L 159.2056 117.659345 
L 159.940832 115.841247 
L 160.676063 113.034243 
L 161.411295 109.004443 
L 162.146526 103.627035 
L 162.881758 96.962136 
L 163.616989 89.300477 
L 164.352221 81.15503 
L 165.087452 73.193101 
L 165.822684 66.12695 
L 166.557915 60.596737 
L 167.293147 57.078975 
L 168.028378 55.838432 
L 168.76361 56.921703 
L 169.498841 60.177822 
L 170.234073 65.290196 
L 170.969304 71.811877 
L 171.704536 79.205515 
L 172.439767 86.893536 
L 173.174999 94.320451 
L 173.91023 101.020035 
L 174.645462 106.671681 
L 175.380693 111.128817 
L 176.115925 114.410321 
L 176.851156 116.65924 
L 177.586388 118.084553 
L 178.321619 118.905259 
L 179.056851 119.311115 
L 179.792082 119.445006 
L 180.527314 119.403351 
L 181.262545 119.246459 
L 181.997777 119.010723 
L 182.733008 118.71749 
L 183.46824 118.377378 
L 184.203471 117.99215 
L 184.938703 117.557596 
L 185.673934 117.069855 
L 186.409166 116.534712 
L 187.144397 115.976237 
L 187.879629 115.439809 
L 188.61486 114.986035 
L 189.350092 114.676041 
L 190.085323 114.552834 
L 190.820555 114.62575 
L 191.555786 114.864067 
L 192.291018 115.202126 
L 193.026249 115.553847 
L 193.761481 115.831299 
L 194.496712 115.961403 
L 195.231944 115.896652 
L 195.967175 115.618746 
L 196.702407 115.136703 
L 197.437638 114.482322 
L 198.17287 113.705499 
L 198.908101 112.870391 
L 199.643333 112.051533 
L 200.378564 111.327916 
L 201.113796 110.773437 
L 201.849027 110.444136 
L 202.584259 110.365341 
L 203.31949 110.523677 
L 204.054722 110.868484 
L 204.789953 111.324232 
L 205.525185 111.811071 
L 206.260416 112.266833 
L 206.995648 112.662585 
L 207.730879 113.006064 
L 208.466111 113.332226 
L 209.201342 113.685305 
L 209.936574 114.099815 
L 210.671805 114.58746 
L 211.407037 115.133658 
L 212.142268 115.703244 
L 212.8775 116.251994 
L 213.612731 116.739639 
L 214.347963 117.140544 
L 215.083194 117.449482 
L 215.818426 117.681292 
L 216.553657 117.864821 
L 217.288889 118.033218 
L 218.02412 118.213852 
L 218.759352 118.421208 
L 219.494583 118.65481 
L 220.229815 118.902138 
L 220.965046 119.144669 
L 221.700278 119.364385 
L 222.435509 119.548546 
L 223.170741 119.691691 
L 223.905972 119.795083 
L 224.641204 119.864583 
L 225.376435 119.9081 
L 226.111667 119.933494 
L 226.846898 119.947304 
L 227.58213 119.954304 
L 228.317361 119.957608 
" style="fill:none;stroke:#0000ff;stroke-linecap:square;stroke-width:1.5;"/>
   </g>
   <g id="patch_77">
    <path d="M 151.655 119.96 
L 151.655 12.289758 
" style="fill:none;stroke:#000000;stroke-linecap:square;stroke-linejoin:miter;stroke-width:0.8;"/>
   </g>
   <g id="patch_78">
    <path d="M 236.892741 119.96 
L 236.892741 12.289758 
" style="fill:none;stroke:#000000;stroke-linecap:square;stroke-linejoin:miter;stroke-width:0.8;"/>
   </g>
   <g id="patch_79">
    <path d="M 151.655 119.96 
L 236.892741 119.96 
" style="fill:none;stroke:#000000;stroke-linecap:square;stroke-linejoin:miter;stroke-width:0.8;"/>
   </g>
   <g id="patch_80">
    <path d="M 151.655 12.289758 
L 236.892741 12.289758 
" style="fill:none;stroke:#000000;stroke-linecap:square;stroke-linejoin:miter;stroke-width:0.8;"/>
   </g>
  </g>
  <g id="axes_3">
   <g id="patch_81">
    <path d="M 47.81 246.04 
L 133.047741 246.04 
L 133.047741 138.369758 
L 47.81 138.369758 
z
" style="fill:none;"/>
   </g>
   <g id="patch_82">
    <path clip-path="url(#pe1a564d34c)" d="M 77.818102 246.04 
L 80.585349 246.04 
L 80.585349 242.556854 
L 77.818102 242.556854 
z
" style="fill:#ffa500;opacity:0.4;"/>
   </g>
   <g id="patch_83">
    <path clip-path="url(#pe1a564d34c)" d="M 80.585349 246.04 
L 83.352597 246.04 
L 83.352597 240.321401 
L 80.585349 240.321401 
z
" style="fill:#ffa500;opacity:0.4;"/>
   </g>
   <g id="patch_84">
    <path clip-path="url(#pe1a564d34c)" d="M 83.352597 246.04 
L 86.119844 246.04 
L 86.119844 233.407096 
L 83.352597 233.407096 
z
" style="fill:#ffa500;opacity:0.4;"/>
   </g>
   <g id="patch_85">
    <path clip-path="url(#pe1a564d34c)" d="M 86.119844 246.04 
L 88.887091 246.04 
L 88.887091 221.969899 
L 86.119844 221.969899 
z
" style="fill:#ffa500;opacity:0.4;"/>
   </g>
   <g id="patch_86">
    <path clip-path="url(#pe1a564d34c)" d="M 88.887091 246.04 
L 91.654338 246.04 
L 91.654338 220.566243 
L 88.887091 220.566243 
z
" style="fill:#ffa500;opacity:0.4;"/>
   </g>
   <g id="patch_87">
    <path clip-path="url(#pe1a564d34c)" d="M 91.654338 246.04 
L 94.421586 246.04 
L 94.421586 223.165606 
L 91.654338 223.165606 
z
" style="fill:#ffa500;opacity:0.4;"/>
   </g>
   <g id="patch_88">
    <path clip-path="url(#pe1a564d34c)" d="M 94.421586 246.04 
L 97.188833 246.04 
L 97.188833 224.4133 
L 94.421586 224.4133 
z
" style="fill:#ffa500;opacity:0.4;"/>
   </g>
   <g id="patch_89">
    <path clip-path="url(#pe1a564d34c)" d="M 97.188833 246.04 
L 99.95608 246.04 
L 99.95608 230.391835 
L 97.188833 230.391835 
z
" style="fill:#ffa500;opacity:0.4;"/>
   </g>
   <g id="patch_90">
    <path clip-path="url(#pe1a564d34c)" d="M 99.95608 246.04 
L 102.723327 246.04 
L 102.723327 229.508051 
L 99.95608 229.508051 
z
" style="fill:#ffa500;opacity:0.4;"/>
   </g>
   <g id="patch_91">
    <path clip-path="url(#pe1a564d34c)" d="M 102.723327 246.04 
L 105.490574 246.04 
L 105.490574 240.269414 
L 102.723327 240.269414 
z
" style="fill:#ffa500;opacity:0.4;"/>
   </g>
   <g id="patch_92">
    <path clip-path="url(#pe1a564d34c)" d="M 105.490574 246.04 
L 108.257822 246.04 
L 108.257822 241.049223 
L 105.490574 241.049223 
z
" style="fill:#ffa500;opacity:0.4;"/>
   </g>
   <g id="patch_93">
    <path clip-path="url(#pe1a564d34c)" d="M 108.257822 246.04 
L 111.025069 246.04 
L 111.025069 240.113452 
L 108.257822 240.113452 
z
" style="fill:#ffa500;opacity:0.4;"/>
   </g>
   <g id="patch_94">
    <path clip-path="url(#pe1a564d34c)" d="M 111.025069 246.04 
L 113.792316 246.04 
L 113.792316 228.520293 
L 111.025069 228.520293 
z
" style="fill:#ffa500;opacity:0.4;"/>
   </g>
   <g id="patch_95">
    <path clip-path="url(#pe1a564d34c)" d="M 113.792316 246.04 
L 116.559563 246.04 
L 116.559563 217.291045 
L 113.792316 217.291045 
z
" style="fill:#ffa500;opacity:0.4;"/>
   </g>
   <g id="patch_96">
    <path clip-path="url(#pe1a564d34c)" d="M 116.559563 246.04 
L 119.326811 246.04 
L 119.326811 217.447007 
L 116.559563 217.447007 
z
" style="fill:#ffa500;opacity:0.4;"/>
   </g>
   <g id="patch_97">
    <path clip-path="url(#pe1a564d34c)" d="M 119.326811 246.04 
L 122.094058 246.04 
L 122.094058 203.202498 
L 119.326811 203.202498 
z
" style="fill:#ffa500;opacity:0.4;"/>
   </g>
   <g id="matplotlib.axis_5">
    <g id="xtick_7">
     <g id="line2d_19">
      <g>
       <use style="stroke:#000000;stroke-width:0.8;" x="55.119971" xlink:href="#m54c0e73894" y="246.04"/>
      </g>
     </g>
     <g id="text_7">
      <!-- 2.5 -->
      <g transform="translate(47.168409 260.638438)scale(0.1 -0.1)">
       <use xlink:href="#DejaVuSans-50"/>
       <use x="63.623047" xlink:href="#DejaVuSans-46"/>
       <use x="95.410156" xlink:href="#DejaVuSans-53"/>
      </g>
     </g>
    </g>
    <g id="xtick_8">
     <g id="line2d_20">
      <g>
       <use style="stroke:#000000;stroke-width:0.8;" x="92.327812" xlink:href="#m54c0e73894" y="246.04"/>
      </g>
     </g>
     <g id="text_8">
      <!-- 5.0 -->
      <g transform="translate(84.37625 260.638438)scale(0.1 -0.1)">
       <use xlink:href="#DejaVuSans-53"/>
       <use x="63.623047" xlink:href="#DejaVuSans-46"/>
       <use x="95.410156" xlink:href="#DejaVuSans-48"/>
      </g>
     </g>
    </g>
    <g id="xtick_9">
     <g id="line2d_21">
      <g>
       <use style="stroke:#000000;stroke-width:0.8;" x="129.535654" xlink:href="#m54c0e73894" y="246.04"/>
      </g>
     </g>
     <g id="text_9">
      <!-- 7.5 -->
      <defs>
       <path d="M 8.203125 72.90625 
L 55.078125 72.90625 
L 55.078125 68.703125 
L 28.609375 0 
L 18.3125 0 
L 43.21875 64.59375 
L 8.203125 64.59375 
z
" id="DejaVuSans-55"/>
      </defs>
      <g transform="translate(121.584091 260.638438)scale(0.1 -0.1)">
       <use xlink:href="#DejaVuSans-55"/>
       <use x="63.623047" xlink:href="#DejaVuSans-46"/>
       <use x="95.410156" xlink:href="#DejaVuSans-53"/>
      </g>
     </g>
    </g>
    <g id="text_10">
     <!-- Velocity (km/s) -->
     <defs>
      <path d="M 28.609375 0 
L 0.78125 72.90625 
L 11.078125 72.90625 
L 34.1875 11.53125 
L 57.328125 72.90625 
L 67.578125 72.90625 
L 39.796875 0 
z
" id="DejaVuSans-86"/>
      <path d="M 9.421875 75.984375 
L 18.40625 75.984375 
L 18.40625 0 
L 9.421875 0 
z
" id="DejaVuSans-108"/>
      <path d="M 30.609375 48.390625 
Q 23.390625 48.390625 19.1875 42.75 
Q 14.984375 37.109375 14.984375 27.296875 
Q 14.984375 17.484375 19.15625 11.84375 
Q 23.34375 6.203125 30.609375 6.203125 
Q 37.796875 6.203125 41.984375 11.859375 
Q 46.1875 17.53125 46.1875 27.296875 
Q 46.1875 37.015625 41.984375 42.703125 
Q 37.796875 48.390625 30.609375 48.390625 
z
M 30.609375 56 
Q 42.328125 56 49.015625 48.375 
Q 55.71875 40.765625 55.71875 27.296875 
Q 55.71875 13.875 49.015625 6.21875 
Q 42.328125 -1.421875 30.609375 -1.421875 
Q 18.84375 -1.421875 12.171875 6.21875 
Q 5.515625 13.875 5.515625 27.296875 
Q 5.515625 40.765625 12.171875 48.375 
Q 18.84375 56 30.609375 56 
z
" id="DejaVuSans-111"/>
      <path d="M 48.78125 52.59375 
L 48.78125 44.1875 
Q 44.96875 46.296875 41.140625 47.34375 
Q 37.3125 48.390625 33.40625 48.390625 
Q 24.65625 48.390625 19.8125 42.84375 
Q 14.984375 37.3125 14.984375 27.296875 
Q 14.984375 17.28125 19.8125 11.734375 
Q 24.65625 6.203125 33.40625 6.203125 
Q 37.3125 6.203125 41.140625 7.25 
Q 44.96875 8.296875 48.78125 10.40625 
L 48.78125 2.09375 
Q 45.015625 0.34375 40.984375 -0.53125 
Q 36.96875 -1.421875 32.421875 -1.421875 
Q 20.0625 -1.421875 12.78125 6.34375 
Q 5.515625 14.109375 5.515625 27.296875 
Q 5.515625 40.671875 12.859375 48.328125 
Q 20.21875 56 33.015625 56 
Q 37.15625 56 41.109375 55.140625 
Q 45.0625 54.296875 48.78125 52.59375 
z
" id="DejaVuSans-99"/>
      <path id="DejaVuSans-32"/>
      <path d="M 31 75.875 
Q 24.46875 64.65625 21.28125 53.65625 
Q 18.109375 42.671875 18.109375 31.390625 
Q 18.109375 20.125 21.3125 9.0625 
Q 24.515625 -2 31 -13.1875 
L 23.1875 -13.1875 
Q 15.875 -1.703125 12.234375 9.375 
Q 8.59375 20.453125 8.59375 31.390625 
Q 8.59375 42.28125 12.203125 53.3125 
Q 15.828125 64.359375 23.1875 75.875 
z
" id="DejaVuSans-40"/>
      <path d="M 9.078125 75.984375 
L 18.109375 75.984375 
L 18.109375 31.109375 
L 44.921875 54.6875 
L 56.390625 54.6875 
L 27.390625 29.109375 
L 57.625 0 
L 45.90625 0 
L 18.109375 26.703125 
L 18.109375 0 
L 9.078125 0 
z
" id="DejaVuSans-107"/>
      <path d="M 52 44.1875 
Q 55.375 50.25 60.0625 53.125 
Q 64.75 56 71.09375 56 
Q 79.640625 56 84.28125 50.015625 
Q 88.921875 44.046875 88.921875 33.015625 
L 88.921875 0 
L 79.890625 0 
L 79.890625 32.71875 
Q 79.890625 40.578125 77.09375 44.375 
Q 74.3125 48.1875 68.609375 48.1875 
Q 61.625 48.1875 57.5625 43.546875 
Q 53.515625 38.921875 53.515625 30.90625 
L 53.515625 0 
L 44.484375 0 
L 44.484375 32.71875 
Q 44.484375 40.625 41.703125 44.40625 
Q 38.921875 48.1875 33.109375 48.1875 
Q 26.21875 48.1875 22.15625 43.53125 
Q 18.109375 38.875 18.109375 30.90625 
L 18.109375 0 
L 9.078125 0 
L 9.078125 54.6875 
L 18.109375 54.6875 
L 18.109375 46.1875 
Q 21.1875 51.21875 25.484375 53.609375 
Q 29.78125 56 35.6875 56 
Q 41.65625 56 45.828125 52.96875 
Q 50 49.953125 52 44.1875 
z
" id="DejaVuSans-109"/>
      <path d="M 25.390625 72.90625 
L 33.6875 72.90625 
L 8.296875 -9.28125 
L 0 -9.28125 
z
" id="DejaVuSans-47"/>
      <path d="M 8.015625 75.875 
L 15.828125 75.875 
Q 23.140625 64.359375 26.78125 53.3125 
Q 30.421875 42.28125 30.421875 31.390625 
Q 30.421875 20.453125 26.78125 9.375 
Q 23.140625 -1.703125 15.828125 -13.1875 
L 8.015625 -13.1875 
Q 14.5 -2 17.703125 9.0625 
Q 20.90625 20.125 20.90625 31.390625 
Q 20.90625 42.671875 17.703125 53.65625 
Q 14.5 64.65625 8.015625 75.875 
z
" id="DejaVuSans-41"/>
     </defs>
     <g transform="translate(53.267933 274.316562)scale(0.1 -0.1)">
      <use xlink:href="#DejaVuSans-86"/>
      <use x="60.658203" xlink:href="#DejaVuSans-101"/>
      <use x="122.181641" xlink:href="#DejaVuSans-108"/>
      <use x="149.964844" xlink:href="#DejaVuSans-111"/>
      <use x="211.146484" xlink:href="#DejaVuSans-99"/>
      <use x="266.126953" xlink:href="#DejaVuSans-105"/>
      <use x="293.910156" xlink:href="#DejaVuSans-116"/>
      <use x="333.119141" xlink:href="#DejaVuSans-121"/>
      <use x="392.298828" xlink:href="#DejaVuSans-32"/>
      <use x="424.085938" xlink:href="#DejaVuSans-40"/>
      <use x="463.099609" xlink:href="#DejaVuSans-107"/>
      <use x="521.009766" xlink:href="#DejaVuSans-109"/>
      <use x="618.421875" xlink:href="#DejaVuSans-47"/>
      <use x="652.113281" xlink:href="#DejaVuSans-115"/>
      <use x="704.212891" xlink:href="#DejaVuSans-41"/>
     </g>
    </g>
   </g>
   <g id="matplotlib.axis_6">
    <g id="ytick_11">
     <g id="line2d_22">
      <g>
       <use style="stroke:#000000;stroke-width:0.8;" x="47.81" xlink:href="#mcc57d46d85" y="246.04"/>
      </g>
     </g>
     <g id="text_11">
      <!-- 0.0 -->
      <g transform="translate(24.906875 249.839219)scale(0.1 -0.1)">
       <use xlink:href="#DejaVuSans-48"/>
       <use x="63.623047" xlink:href="#DejaVuSans-46"/>
       <use x="95.410156" xlink:href="#DejaVuSans-48"/>
      </g>
     </g>
    </g>
    <g id="ytick_12">
     <g id="line2d_23">
      <g>
       <use style="stroke:#000000;stroke-width:0.8;" x="47.81" xlink:href="#mcc57d46d85" y="219.782091"/>
      </g>
     </g>
     <g id="text_12">
      <!-- 0.5 -->
      <g transform="translate(24.906875 223.58131)scale(0.1 -0.1)">
       <use xlink:href="#DejaVuSans-48"/>
       <use x="63.623047" xlink:href="#DejaVuSans-46"/>
       <use x="95.410156" xlink:href="#DejaVuSans-53"/>
      </g>
     </g>
    </g>
    <g id="ytick_13">
     <g id="line2d_24">
      <g>
       <use style="stroke:#000000;stroke-width:0.8;" x="47.81" xlink:href="#mcc57d46d85" y="193.524182"/>
      </g>
     </g>
     <g id="text_13">
      <!-- 1.0 -->
      <g transform="translate(24.906875 197.323401)scale(0.1 -0.1)">
       <use xlink:href="#DejaVuSans-49"/>
       <use x="63.623047" xlink:href="#DejaVuSans-46"/>
       <use x="95.410156" xlink:href="#DejaVuSans-48"/>
      </g>
     </g>
    </g>
    <g id="ytick_14">
     <g id="line2d_25">
      <g>
       <use style="stroke:#000000;stroke-width:0.8;" x="47.81" xlink:href="#mcc57d46d85" y="167.266274"/>
      </g>
     </g>
     <g id="text_14">
      <!-- 1.5 -->
      <g transform="translate(24.906875 171.065492)scale(0.1 -0.1)">
       <use xlink:href="#DejaVuSans-49"/>
       <use x="63.623047" xlink:href="#DejaVuSans-46"/>
       <use x="95.410156" xlink:href="#DejaVuSans-53"/>
      </g>
     </g>
    </g>
    <g id="ytick_15">
     <g id="line2d_26">
      <g>
       <use style="stroke:#000000;stroke-width:0.8;" x="47.81" xlink:href="#mcc57d46d85" y="141.008365"/>
      </g>
     </g>
     <g id="text_15">
      <!-- 2.0 -->
      <g transform="translate(24.906875 144.807583)scale(0.1 -0.1)">
       <use xlink:href="#DejaVuSans-50"/>
       <use x="63.623047" xlink:href="#DejaVuSans-46"/>
       <use x="95.410156" xlink:href="#DejaVuSans-48"/>
      </g>
     </g>
    </g>
    <g id="text_16">
     <!-- Density -->
     <g transform="translate(18.827187 211.213473)rotate(-90)scale(0.1 -0.1)">
      <use xlink:href="#DejaVuSans-68"/>
      <use x="77.001953" xlink:href="#DejaVuSans-101"/>
      <use x="138.525391" xlink:href="#DejaVuSans-110"/>
      <use x="201.904297" xlink:href="#DejaVuSans-115"/>
      <use x="254.003906" xlink:href="#DejaVuSans-105"/>
      <use x="281.787109" xlink:href="#DejaVuSans-116"/>
      <use x="320.996094" xlink:href="#DejaVuSans-121"/>
     </g>
    </g>
   </g>
   <g id="line2d_27">
    <path clip-path="url(#pe1a564d34c)" d="M 70.738862 246.037959 
L 71.329109 246.035231 
L 71.919355 246.029422 
L 72.509602 246.017712 
L 73.099849 245.995376 
L 73.690096 245.955065 
L 74.280343 245.886256 
L 74.87059 245.775205 
L 75.460836 245.605829 
L 76.051083 245.361775 
L 76.64133 245.029598 
L 77.231577 244.602329 
L 77.821824 244.082168 
L 78.412071 243.480752 
L 79.002317 242.815946 
L 79.592564 242.105328 
L 80.182811 241.358158 
L 80.773058 240.568897 
L 81.363305 239.715385 
L 81.953552 238.76344 
L 82.543798 237.677125 
L 83.134045 236.431574 
L 83.724292 235.023987 
L 84.314539 233.478909 
L 84.904786 231.845879 
L 85.495033 230.190201 
L 86.085279 228.579815 
L 86.675526 227.072537 
L 87.265773 225.707731 
L 87.85602 224.504984 
L 88.446267 223.469811 
L 89.036514 222.60362 
L 89.62676 221.913266 
L 90.217007 221.415552 
L 90.807254 221.134334 
L 91.397501 221.091501 
L 91.987748 221.296201 
L 92.577995 221.73742 
L 93.168241 222.382909 
L 93.758488 223.183908 
L 94.348735 224.082469 
L 94.938982 225.018065 
L 95.529229 225.932432 
L 96.119476 226.774135 
L 96.709722 227.504977 
L 97.299969 228.10852 
L 97.890216 228.597852 
L 98.480463 229.017938 
L 99.07071 229.438922 
L 99.660957 229.940357 
L 100.251203 230.590603 
L 100.84145 231.428102 
L 101.431697 232.450775 
L 102.021944 233.616662 
L 102.612191 234.854837 
L 103.202438 236.082283 
L 103.792684 237.221006 
L 104.382931 238.210387 
L 104.973178 239.011941 
L 105.563425 239.606475 
L 106.153672 239.98609 
L 106.743919 240.144806 
L 107.334165 240.071631 
L 107.924412 239.748553 
L 108.514659 239.153911 
L 109.104906 238.269657 
L 109.695153 237.089779 
L 110.2854 235.62704 
L 110.875646 233.916021 
L 111.465893 232.011851 
L 112.05614 229.985318 
L 112.646387 227.915885 
L 113.236634 225.884237 
L 113.826881 223.965448 
L 114.417127 222.223142 
L 115.007374 220.704653 
L 115.597621 219.437508 
L 116.187868 218.428502 
L 116.778115 217.667348 
L 117.368362 217.136511 
L 117.958608 216.826656 
L 118.548855 216.753699 
L 119.139102 216.970301 
L 119.729349 217.564072 
L 120.319596 218.638142 
L 120.909843 220.276755 
L 121.500089 222.506341 
L 122.090336 225.266981 
L 122.680583 228.407246 
L 123.27083 231.707036 
L 123.861077 234.921808 
L 124.451324 237.833117 
L 125.04157 240.288653 
L 125.631817 242.220504 
L 126.222064 243.639817 
L 126.812311 244.6145 
L 127.402558 245.240613 
L 127.992805 245.617062 
L 128.583052 245.829017 
L 129.173298 245.940815 
" style="fill:none;stroke:#ffa500;stroke-linecap:square;stroke-width:1.5;"/>
   </g>
   <g id="patch_98">
    <path d="M 47.81 246.04 
L 47.81 138.369758 
" style="fill:none;stroke:#000000;stroke-linecap:square;stroke-linejoin:miter;stroke-width:0.8;"/>
   </g>
   <g id="patch_99">
    <path d="M 133.047741 246.04 
L 133.047741 138.369758 
" style="fill:none;stroke:#000000;stroke-linecap:square;stroke-linejoin:miter;stroke-width:0.8;"/>
   </g>
   <g id="patch_100">
    <path d="M 47.81 246.04 
L 133.047741 246.04 
" style="fill:none;stroke:#000000;stroke-linecap:square;stroke-linejoin:miter;stroke-width:0.8;"/>
   </g>
   <g id="patch_101">
    <path d="M 47.81 138.369758 
L 133.047741 138.369758 
" style="fill:none;stroke:#000000;stroke-linecap:square;stroke-linejoin:miter;stroke-width:0.8;"/>
   </g>
  </g>
  <g id="axes_4">
   <g id="patch_102">
    <path d="M 151.655 246.04 
L 236.892741 246.04 
L 236.892741 138.369758 
L 151.655 138.369758 
z
" style="fill:none;"/>
   </g>
   <g id="patch_103">
    <path clip-path="url(#p3e6e6fbde2)" d="M 183.012153 246.04 
L 185.158354 246.04 
L 185.158354 243.023613 
L 183.012153 243.023613 
z
" style="fill:#800080;opacity:0.4;"/>
   </g>
   <g id="patch_104">
    <path clip-path="url(#p3e6e6fbde2)" d="M 185.158354 246.04 
L 187.304555 246.04 
L 187.304555 235.650222 
L 185.158354 235.650222 
z
" style="fill:#800080;opacity:0.4;"/>
   </g>
   <g id="patch_105">
    <path clip-path="url(#p3e6e6fbde2)" d="M 187.304555 246.04 
L 189.450755 246.04 
L 189.450755 237.258962 
L 187.304555 237.258962 
z
" style="fill:#800080;opacity:0.4;"/>
   </g>
   <g id="patch_106">
    <path clip-path="url(#p3e6e6fbde2)" d="M 189.450755 246.04 
L 191.596956 246.04 
L 191.596956 232.566804 
L 189.450755 232.566804 
z
" style="fill:#800080;opacity:0.4;"/>
   </g>
   <g id="patch_107">
    <path clip-path="url(#p3e6e6fbde2)" d="M 191.596956 246.04 
L 193.743157 246.04 
L 193.743157 208.703831 
L 191.596956 208.703831 
z
" style="fill:#800080;opacity:0.4;"/>
   </g>
   <g id="patch_108">
    <path clip-path="url(#p3e6e6fbde2)" d="M 193.743157 246.04 
L 195.889358 246.04 
L 195.889358 206.558845 
L 193.743157 206.558845 
z
" style="fill:#800080;opacity:0.4;"/>
   </g>
   <g id="patch_109">
    <path clip-path="url(#p3e6e6fbde2)" d="M 195.889358 246.04 
L 198.035558 246.04 
L 198.035558 230.421818 
L 195.889358 230.421818 
z
" style="fill:#800080;opacity:0.4;"/>
   </g>
   <g id="patch_110">
    <path clip-path="url(#p3e6e6fbde2)" d="M 198.035558 246.04 
L 200.181759 246.04 
L 200.181759 238.130363 
L 198.035558 238.130363 
z
" style="fill:#800080;opacity:0.4;"/>
   </g>
   <g id="patch_111">
    <path clip-path="url(#p3e6e6fbde2)" d="M 200.181759 246.04 
L 202.32796 246.04 
L 202.32796 235.181006 
L 200.181759 235.181006 
z
" style="fill:#800080;opacity:0.4;"/>
   </g>
   <g id="patch_112">
    <path clip-path="url(#p3e6e6fbde2)" d="M 202.32796 246.04 
L 204.47416 246.04 
L 204.47416 230.086664 
L 202.32796 230.086664 
z
" style="fill:#800080;opacity:0.4;"/>
   </g>
   <g id="patch_113">
    <path clip-path="url(#p3e6e6fbde2)" d="M 204.47416 246.04 
L 206.620361 246.04 
L 206.620361 232.164619 
L 204.47416 232.164619 
z
" style="fill:#800080;opacity:0.4;"/>
   </g>
   <g id="patch_114">
    <path clip-path="url(#p3e6e6fbde2)" d="M 206.620361 246.04 
L 208.766562 246.04 
L 208.766562 225.72966 
L 206.620361 225.72966 
z
" style="fill:#800080;opacity:0.4;"/>
   </g>
   <g id="patch_115">
    <path clip-path="url(#p3e6e6fbde2)" d="M 208.766562 246.04 
L 210.912762 246.04 
L 210.912762 215.339883 
L 208.766562 215.339883 
z
" style="fill:#800080;opacity:0.4;"/>
   </g>
   <g id="patch_116">
    <path clip-path="url(#p3e6e6fbde2)" d="M 210.912762 246.04 
L 213.058963 246.04 
L 213.058963 212.122403 
L 210.912762 212.122403 
z
" style="fill:#800080;opacity:0.4;"/>
   </g>
   <g id="patch_117">
    <path clip-path="url(#p3e6e6fbde2)" d="M 213.058963 246.04 
L 215.205164 246.04 
L 215.205164 219.830948 
L 213.058963 219.830948 
z
" style="fill:#800080;opacity:0.4;"/>
   </g>
   <g id="patch_118">
    <path clip-path="url(#p3e6e6fbde2)" d="M 215.205164 246.04 
L 217.351365 246.04 
L 217.351365 219.495794 
L 215.205164 219.495794 
z
" style="fill:#800080;opacity:0.4;"/>
   </g>
   <g id="patch_119">
    <path clip-path="url(#p3e6e6fbde2)" d="M 217.351365 246.04 
L 219.497565 246.04 
L 219.497565 231.36025 
L 217.351365 231.36025 
z
" style="fill:#800080;opacity:0.4;"/>
   </g>
   <g id="patch_120">
    <path clip-path="url(#p3e6e6fbde2)" d="M 219.497565 246.04 
L 221.643766 246.04 
L 221.643766 235.248037 
L 219.497565 235.248037 
z
" style="fill:#800080;opacity:0.4;"/>
   </g>
   <g id="patch_121">
    <path clip-path="url(#p3e6e6fbde2)" d="M 221.643766 246.04 
L 223.789967 246.04 
L 223.789967 236.32053 
L 221.643766 236.32053 
z
" style="fill:#800080;opacity:0.4;"/>
   </g>
   <g id="patch_122">
    <path clip-path="url(#p3e6e6fbde2)" d="M 223.789967 246.04 
L 225.936167 246.04 
L 225.936167 231.42728 
L 223.789967 231.42728 
z
" style="fill:#800080;opacity:0.4;"/>
   </g>
   <g id="matplotlib.axis_7">
    <g id="xtick_10">
     <g id="line2d_28">
      <g>
       <use style="stroke:#000000;stroke-width:0.8;" x="158.964971" xlink:href="#m54c0e73894" y="246.04"/>
      </g>
     </g>
     <g id="text_17">
      <!-- 2.5 -->
      <g transform="translate(151.013409 260.638438)scale(0.1 -0.1)">
       <use xlink:href="#DejaVuSans-50"/>
       <use x="63.623047" xlink:href="#DejaVuSans-46"/>
       <use x="95.410156" xlink:href="#DejaVuSans-53"/>
      </g>
     </g>
    </g>
    <g id="xtick_11">
     <g id="line2d_29">
      <g>
       <use style="stroke:#000000;stroke-width:0.8;" x="196.172812" xlink:href="#m54c0e73894" y="246.04"/>
      </g>
     </g>
     <g id="text_18">
      <!-- 5.0 -->
      <g transform="translate(188.22125 260.638438)scale(0.1 -0.1)">
       <use xlink:href="#DejaVuSans-53"/>
       <use x="63.623047" xlink:href="#DejaVuSans-46"/>
       <use x="95.410156" xlink:href="#DejaVuSans-48"/>
      </g>
     </g>
    </g>
    <g id="xtick_12">
     <g id="line2d_30">
      <g>
       <use style="stroke:#000000;stroke-width:0.8;" x="233.380654" xlink:href="#m54c0e73894" y="246.04"/>
      </g>
     </g>
     <g id="text_19">
      <!-- 7.5 -->
      <g transform="translate(225.429091 260.638438)scale(0.1 -0.1)">
       <use xlink:href="#DejaVuSans-55"/>
       <use x="63.623047" xlink:href="#DejaVuSans-46"/>
       <use x="95.410156" xlink:href="#DejaVuSans-53"/>
      </g>
     </g>
    </g>
    <g id="text_20">
     <!-- Velocity (km/s) -->
     <g transform="translate(157.112933 274.316562)scale(0.1 -0.1)">
      <use xlink:href="#DejaVuSans-86"/>
      <use x="60.658203" xlink:href="#DejaVuSans-101"/>
      <use x="122.181641" xlink:href="#DejaVuSans-108"/>
      <use x="149.964844" xlink:href="#DejaVuSans-111"/>
      <use x="211.146484" xlink:href="#DejaVuSans-99"/>
      <use x="266.126953" xlink:href="#DejaVuSans-105"/>
      <use x="293.910156" xlink:href="#DejaVuSans-116"/>
      <use x="333.119141" xlink:href="#DejaVuSans-121"/>
      <use x="392.298828" xlink:href="#DejaVuSans-32"/>
      <use x="424.085938" xlink:href="#DejaVuSans-40"/>
      <use x="463.099609" xlink:href="#DejaVuSans-107"/>
      <use x="521.009766" xlink:href="#DejaVuSans-109"/>
      <use x="618.421875" xlink:href="#DejaVuSans-47"/>
      <use x="652.113281" xlink:href="#DejaVuSans-115"/>
      <use x="704.212891" xlink:href="#DejaVuSans-41"/>
     </g>
    </g>
   </g>
   <g id="matplotlib.axis_8">
    <g id="ytick_16">
     <g id="line2d_31">
      <g>
       <use style="stroke:#000000;stroke-width:0.8;" x="151.655" xlink:href="#mcc57d46d85" y="246.04"/>
      </g>
     </g>
    </g>
    <g id="ytick_17">
     <g id="line2d_32">
      <g>
       <use style="stroke:#000000;stroke-width:0.8;" x="151.655" xlink:href="#mcc57d46d85" y="219.782091"/>
      </g>
     </g>
    </g>
    <g id="ytick_18">
     <g id="line2d_33">
      <g>
       <use style="stroke:#000000;stroke-width:0.8;" x="151.655" xlink:href="#mcc57d46d85" y="193.524182"/>
      </g>
     </g>
    </g>
    <g id="ytick_19">
     <g id="line2d_34">
      <g>
       <use style="stroke:#000000;stroke-width:0.8;" x="151.655" xlink:href="#mcc57d46d85" y="167.266274"/>
      </g>
     </g>
    </g>
    <g id="ytick_20">
     <g id="line2d_35">
      <g>
       <use style="stroke:#000000;stroke-width:0.8;" x="151.655" xlink:href="#mcc57d46d85" y="141.008365"/>
      </g>
     </g>
    </g>
   </g>
   <g id="line2d_36">
    <path clip-path="url(#p3e6e6fbde2)" d="M 177.130866 246.034776 
L 177.683256 246.027424 
L 178.235645 246.011883 
L 178.788035 245.981553 
L 179.340425 245.926832 
L 179.892815 245.835385 
L 180.445205 245.69331 
L 180.997594 245.486867 
L 181.549984 245.203709 
L 182.102374 244.832462 
L 182.654764 244.360475 
L 183.207154 243.771619 
L 183.759543 243.047615 
L 184.311933 242.175613 
L 184.864323 241.160669 
L 185.416713 240.036254 
L 185.969102 238.863232 
L 186.521492 237.711333 
L 187.073882 236.626696 
L 187.626272 235.599001 
L 188.178662 234.545605 
L 188.731051 233.324402 
L 189.283441 231.774968 
L 189.835831 229.775186 
L 190.388221 227.294111 
L 190.940611 224.423123 
L 191.493 221.374969 
L 192.04539 218.450564 
L 192.59778 215.982914 
L 193.15017 214.273356 
L 193.70256 213.535907 
L 194.254949 213.861317 
L 194.807339 215.205888 
L 195.359729 217.404098 
L 195.912119 220.200079 
L 196.464508 223.290903 
L 197.016898 226.373413 
L 197.569288 229.18601 
L 198.121678 231.537974 
L 198.674068 233.322195 
L 199.226457 234.511626 
L 199.778847 235.143793 
L 200.331237 235.299562 
L 200.883627 235.082037 
L 201.436017 234.599407 
L 201.988406 233.952861 
L 202.540796 233.228313 
L 203.093186 232.489555 
L 203.645576 231.771457 
L 204.197965 231.074508 
L 204.750355 230.364383 
L 205.302745 229.580209 
L 205.855135 228.651923 
L 206.407525 227.522548 
L 206.959914 226.168337 
L 207.512304 224.610222 
L 208.064694 222.913556 
L 208.617084 221.177412 
L 209.169474 219.517826 
L 209.721863 218.050051 
L 210.274253 216.873409 
L 210.826643 216.059748 
L 211.379033 215.645014 
L 211.931423 215.624208 
L 212.483812 215.952247 
L 213.036202 216.554241 
L 213.588592 217.345837 
L 214.140982 218.258405 
L 214.693371 219.258761 
L 215.245761 220.353449 
L 215.798151 221.574362 
L 216.350541 222.951995 
L 216.902931 224.489108 
L 217.45532 226.146945 
L 218.00771 227.849318 
L 218.5601 229.501064 
L 219.11249 231.011675 
L 219.66488 232.314559 
L 220.217269 233.376343 
L 220.769659 234.196027 
L 221.322049 234.797894 
L 221.874439 235.223554 
L 222.426828 235.527116 
L 222.979218 235.774145 
L 223.531608 236.041242 
L 224.083998 236.411006 
L 224.636388 236.958733 
L 225.188777 237.732456 
L 225.741167 238.733973 
L 226.293557 239.911069 
L 226.845947 241.167388 
L 227.398337 242.387912 
L 227.950726 243.47 
L 228.503116 244.347441 
L 229.055506 244.999378 
L 229.607896 245.443868 
L 230.160286 245.722285 
L 230.712675 245.882651 
L 231.265065 245.967654 
L 231.817455 246.009142 
" style="fill:none;stroke:#800080;stroke-linecap:square;stroke-width:1.5;"/>
   </g>
   <g id="patch_123">
    <path d="M 151.655 246.04 
L 151.655 138.369758 
" style="fill:none;stroke:#000000;stroke-linecap:square;stroke-linejoin:miter;stroke-width:0.8;"/>
   </g>
   <g id="patch_124">
    <path d="M 236.892741 246.04 
L 236.892741 138.369758 
" style="fill:none;stroke:#000000;stroke-linecap:square;stroke-linejoin:miter;stroke-width:0.8;"/>
   </g>
   <g id="patch_125">
    <path d="M 151.655 246.04 
L 236.892741 246.04 
" style="fill:none;stroke:#000000;stroke-linecap:square;stroke-linejoin:miter;stroke-width:0.8;"/>
   </g>
   <g id="patch_126">
    <path d="M 151.655 138.369758 
L 236.892741 138.369758 
" style="fill:none;stroke:#000000;stroke-linecap:square;stroke-linejoin:miter;stroke-width:0.8;"/>
   </g>
  </g>
 </g>
 <defs>
  <clipPath id="pfcd9bc9295">
   <rect height="107.670242" width="85.237741" x="47.81" y="12.289758"/>
  </clipPath>
  <clipPath id="pea6a8a1883">
   <rect height="107.670242" width="85.237741" x="151.655" y="12.289758"/>
  </clipPath>
  <clipPath id="pe1a564d34c">
   <rect height="107.670242" width="85.237741" x="47.81" y="138.369758"/>
  </clipPath>
  <clipPath id="p3e6e6fbde2">
   <rect height="107.670242" width="85.237741" x="151.655" y="138.369758"/>
  </clipPath>
 </defs>
</svg>
