<?xml version="1.0" encoding="utf-8" standalone="no"?>
<!DOCTYPE svg PUBLIC "-//W3C//DTD SVG 1.1//EN"
  "http://www.w3.org/Graphics/SVG/1.1/DTD/svg11.dtd">
<!-- Created with matplotlib (https://matplotlib.org/) -->
<svg height="239.76pt" version="1.1" viewBox="0 0 239.76 239.76" width="239.76pt" xmlns="http://www.w3.org/2000/svg" xmlns:xlink="http://www.w3.org/1999/xlink">
 <defs>
  <style type="text/css">
*{stroke-linecap:butt;stroke-linejoin:round;}
  </style>
 </defs>
 <g id="figure_1">
  <g id="patch_1">
   <path d="M 0 239.76 
L 239.76 239.76 
L 239.76 0 
L 0 0 
z
" style="fill:none;"/>
  </g>
  <g id="axes_1">
   <g id="patch_2">
    <path d="M 38.27 95.84 
L 121.980079 95.84 
L 121.980079 12.703523 
L 38.27 12.703523 
z
" style="fill:none;"/>
   </g>
   <g id="patch_3">
    <path clip-path="url(#pa37eb77e56)" d="M 68.772843 95.84 
L 71.00704 95.84 
L 71.00704 92.715036 
L 68.772843 92.715036 
z
" style="fill:#ff0000;opacity:0.4;"/>
   </g>
   <g id="patch_4">
    <path clip-path="url(#pa37eb77e56)" d="M 71.00704 95.84 
L 73.241238 95.84 
L 73.241238 93.008001 
L 71.00704 93.008001 
z
" style="fill:#ff0000;opacity:0.4;"/>
   </g>
   <g id="patch_5">
    <path clip-path="url(#pa37eb77e56)" d="M 73.241238 95.84 
L 75.475435 95.84 
L 75.475435 93.203311 
L 73.241238 93.203311 
z
" style="fill:#ff0000;opacity:0.4;"/>
   </g>
   <g id="patch_6">
    <path clip-path="url(#pa37eb77e56)" d="M 75.475435 95.84 
L 77.709633 95.84 
L 77.709633 93.008001 
L 75.475435 93.008001 
z
" style="fill:#ff0000;opacity:0.4;"/>
   </g>
   <g id="patch_7">
    <path clip-path="url(#pa37eb77e56)" d="M 77.709633 95.84 
L 79.94383 95.84 
L 79.94383 91.982622 
L 77.709633 91.982622 
z
" style="fill:#ff0000;opacity:0.4;"/>
   </g>
   <g id="patch_8">
    <path clip-path="url(#pa37eb77e56)" d="M 79.94383 95.84 
L 82.178028 95.84 
L 82.178028 82.60773 
L 79.94383 82.60773 
z
" style="fill:#ff0000;opacity:0.4;"/>
   </g>
   <g id="patch_9">
    <path clip-path="url(#pa37eb77e56)" d="M 82.178028 95.84 
L 84.412225 95.84 
L 84.412225 65.615737 
L 82.178028 65.615737 
z
" style="fill:#ff0000;opacity:0.4;"/>
   </g>
   <g id="patch_10">
    <path clip-path="url(#pa37eb77e56)" d="M 84.412225 95.84 
L 86.646423 95.84 
L 86.646423 76.162491 
L 84.412225 76.162491 
z
" style="fill:#ff0000;opacity:0.4;"/>
   </g>
   <g id="patch_11">
    <path clip-path="url(#pa37eb77e56)" d="M 86.646423 95.84 
L 88.88062 95.84 
L 88.88062 84.951453 
L 86.646423 84.951453 
z
" style="fill:#ff0000;opacity:0.4;"/>
   </g>
   <g id="patch_12">
    <path clip-path="url(#pa37eb77e56)" d="M 88.88062 95.84 
L 91.114818 95.84 
L 91.114818 83.144833 
L 88.88062 83.144833 
z
" style="fill:#ff0000;opacity:0.4;"/>
   </g>
   <g id="patch_13">
    <path clip-path="url(#pa37eb77e56)" d="M 91.114818 95.84 
L 93.349015 95.84 
L 93.349015 87.881107 
L 91.114818 87.881107 
z
" style="fill:#ff0000;opacity:0.4;"/>
   </g>
   <g id="patch_14">
    <path clip-path="url(#pa37eb77e56)" d="M 93.349015 95.84 
L 95.583213 95.84 
L 95.583213 86.953383 
L 93.349015 86.953383 
z
" style="fill:#ff0000;opacity:0.4;"/>
   </g>
   <g id="patch_15">
    <path clip-path="url(#pa37eb77e56)" d="M 95.583213 95.84 
L 97.81741 95.84 
L 97.81741 88.125245 
L 95.583213 88.125245 
z
" style="fill:#ff0000;opacity:0.4;"/>
   </g>
   <g id="patch_16">
    <path clip-path="url(#pa37eb77e56)" d="M 97.81741 95.84 
L 100.051608 95.84 
L 100.051608 82.119454 
L 97.81741 82.119454 
z
" style="fill:#ff0000;opacity:0.4;"/>
   </g>
   <g id="patch_17">
    <path clip-path="url(#pa37eb77e56)" d="M 100.051608 95.84 
L 102.285805 95.84 
L 102.285805 75.674215 
L 100.051608 75.674215 
z
" style="fill:#ff0000;opacity:0.4;"/>
   </g>
   <g id="patch_18">
    <path clip-path="url(#pa37eb77e56)" d="M 102.285805 95.84 
L 104.520003 95.84 
L 104.520003 72.15863 
L 102.285805 72.15863 
z
" style="fill:#ff0000;opacity:0.4;"/>
   </g>
   <g id="patch_19">
    <path clip-path="url(#pa37eb77e56)" d="M 104.520003 95.84 
L 106.7542 95.84 
L 106.7542 70.889114 
L 104.520003 70.889114 
z
" style="fill:#ff0000;opacity:0.4;"/>
   </g>
   <g id="patch_20">
    <path clip-path="url(#pa37eb77e56)" d="M 106.7542 95.84 
L 108.988398 95.84 
L 108.988398 70.400838 
L 106.7542 70.400838 
z
" style="fill:#ff0000;opacity:0.4;"/>
   </g>
   <g id="patch_21">
    <path clip-path="url(#pa37eb77e56)" d="M 108.988398 95.84 
L 111.222595 95.84 
L 111.222595 65.078633 
L 108.988398 65.078633 
z
" style="fill:#ff0000;opacity:0.4;"/>
   </g>
   <g id="matplotlib.axis_1">
    <g id="xtick_1">
     <g id="line2d_1">
      <defs>
       <path d="M 0 0 
L 0 3.5 
" id="m0c621905c9" style="stroke:#000000;stroke-width:0.8;"/>
      </defs>
      <g>
       <use style="stroke:#000000;stroke-width:0.8;" x="45.448959" xlink:href="#m0c621905c9" y="95.84"/>
      </g>
     </g>
    </g>
    <g id="xtick_2">
     <g id="line2d_2">
      <g>
       <use style="stroke:#000000;stroke-width:0.8;" x="81.989948" xlink:href="#m0c621905c9" y="95.84"/>
      </g>
     </g>
    </g>
    <g id="xtick_3">
     <g id="line2d_3">
      <g>
       <use style="stroke:#000000;stroke-width:0.8;" x="118.530937" xlink:href="#m0c621905c9" y="95.84"/>
      </g>
     </g>
    </g>
   </g>
   <g id="matplotlib.axis_2">
    <g id="ytick_1">
     <g id="line2d_4">
      <defs>
       <path d="M 0 0 
L -3.5 0 
" id="m1cac4115b9" style="stroke:#000000;stroke-width:0.8;"/>
      </defs>
      <g>
       <use style="stroke:#000000;stroke-width:0.8;" x="38.27" xlink:href="#m1cac4115b9" y="95.84"/>
      </g>
     </g>
     <g id="text_1">
      <!-- 0 -->
      <defs>
       <path d="M 31.78125 66.40625 
Q 24.171875 66.40625 20.328125 58.90625 
Q 16.5 51.421875 16.5 36.375 
Q 16.5 21.390625 20.328125 13.890625 
Q 24.171875 6.390625 31.78125 6.390625 
Q 39.453125 6.390625 43.28125 13.890625 
Q 47.125 21.390625 47.125 36.375 
Q 47.125 51.421875 43.28125 58.90625 
Q 39.453125 66.40625 31.78125 66.40625 
z
M 31.78125 74.21875 
Q 44.046875 74.21875 50.515625 64.515625 
Q 56.984375 54.828125 56.984375 36.375 
Q 56.984375 17.96875 50.515625 8.265625 
Q 44.046875 -1.421875 31.78125 -1.421875 
Q 19.53125 -1.421875 13.0625 8.265625 
Q 6.59375 17.96875 6.59375 36.375 
Q 6.59375 54.828125 13.0625 64.515625 
Q 19.53125 74.21875 31.78125 74.21875 
z
" id="DejaVuSans-48"/>
      </defs>
      <g transform="translate(24.9075 99.639219)scale(0.1 -0.1)">
       <use xlink:href="#DejaVuSans-48"/>
      </g>
     </g>
    </g>
    <g id="ytick_2">
     <g id="line2d_5">
      <g>
       <use style="stroke:#000000;stroke-width:0.8;" x="38.27" xlink:href="#m1cac4115b9" y="55.290448"/>
      </g>
     </g>
     <g id="text_2">
      <!-- 1 -->
      <defs>
       <path d="M 12.40625 8.296875 
L 28.515625 8.296875 
L 28.515625 63.921875 
L 10.984375 60.40625 
L 10.984375 69.390625 
L 28.421875 72.90625 
L 38.28125 72.90625 
L 38.28125 8.296875 
L 54.390625 8.296875 
L 54.390625 0 
L 12.40625 0 
z
" id="DejaVuSans-49"/>
      </defs>
      <g transform="translate(24.9075 59.089667)scale(0.1 -0.1)">
       <use xlink:href="#DejaVuSans-49"/>
      </g>
     </g>
    </g>
    <g id="ytick_3">
     <g id="line2d_6">
      <g>
       <use style="stroke:#000000;stroke-width:0.8;" x="38.27" xlink:href="#m1cac4115b9" y="14.740897"/>
      </g>
     </g>
     <g id="text_3">
      <!-- 2 -->
      <defs>
       <path d="M 19.1875 8.296875 
L 53.609375 8.296875 
L 53.609375 0 
L 7.328125 0 
L 7.328125 8.296875 
Q 12.9375 14.109375 22.625 23.890625 
Q 32.328125 33.6875 34.8125 36.53125 
Q 39.546875 41.84375 41.421875 45.53125 
Q 43.3125 49.21875 43.3125 52.78125 
Q 43.3125 58.59375 39.234375 62.25 
Q 35.15625 65.921875 28.609375 65.921875 
Q 23.96875 65.921875 18.8125 64.3125 
Q 13.671875 62.703125 7.8125 59.421875 
L 7.8125 69.390625 
Q 13.765625 71.78125 18.9375 73 
Q 24.125 74.21875 28.421875 74.21875 
Q 39.75 74.21875 46.484375 68.546875 
Q 53.21875 62.890625 53.21875 53.421875 
Q 53.21875 48.921875 51.53125 44.890625 
Q 49.859375 40.875 45.40625 35.40625 
Q 44.1875 33.984375 37.640625 27.21875 
Q 31.109375 20.453125 19.1875 8.296875 
z
" id="DejaVuSans-50"/>
      </defs>
      <g transform="translate(24.9075 18.540115)scale(0.1 -0.1)">
       <use xlink:href="#DejaVuSans-50"/>
      </g>
     </g>
    </g>
    <g id="text_4">
     <!-- Density -->
     <defs>
      <path d="M 19.671875 64.796875 
L 19.671875 8.109375 
L 31.59375 8.109375 
Q 46.6875 8.109375 53.6875 14.9375 
Q 60.6875 21.78125 60.6875 36.53125 
Q 60.6875 51.171875 53.6875 57.984375 
Q 46.6875 64.796875 31.59375 64.796875 
z
M 9.8125 72.90625 
L 30.078125 72.90625 
Q 51.265625 72.90625 61.171875 64.09375 
Q 71.09375 55.28125 71.09375 36.53125 
Q 71.09375 17.671875 61.125 8.828125 
Q 51.171875 0 30.078125 0 
L 9.8125 0 
z
" id="DejaVuSans-68"/>
      <path d="M 56.203125 29.59375 
L 56.203125 25.203125 
L 14.890625 25.203125 
Q 15.484375 15.921875 20.484375 11.0625 
Q 25.484375 6.203125 34.421875 6.203125 
Q 39.59375 6.203125 44.453125 7.46875 
Q 49.3125 8.734375 54.109375 11.28125 
L 54.109375 2.78125 
Q 49.265625 0.734375 44.1875 -0.34375 
Q 39.109375 -1.421875 33.890625 -1.421875 
Q 20.796875 -1.421875 13.15625 6.1875 
Q 5.515625 13.8125 5.515625 26.8125 
Q 5.515625 40.234375 12.765625 48.109375 
Q 20.015625 56 32.328125 56 
Q 43.359375 56 49.78125 48.890625 
Q 56.203125 41.796875 56.203125 29.59375 
z
M 47.21875 32.234375 
Q 47.125 39.59375 43.09375 43.984375 
Q 39.0625 48.390625 32.421875 48.390625 
Q 24.90625 48.390625 20.390625 44.140625 
Q 15.875 39.890625 15.1875 32.171875 
z
" id="DejaVuSans-101"/>
      <path d="M 54.890625 33.015625 
L 54.890625 0 
L 45.90625 0 
L 45.90625 32.71875 
Q 45.90625 40.484375 42.875 44.328125 
Q 39.84375 48.1875 33.796875 48.1875 
Q 26.515625 48.1875 22.3125 43.546875 
Q 18.109375 38.921875 18.109375 30.90625 
L 18.109375 0 
L 9.078125 0 
L 9.078125 54.6875 
L 18.109375 54.6875 
L 18.109375 46.1875 
Q 21.34375 51.125 25.703125 53.5625 
Q 30.078125 56 35.796875 56 
Q 45.21875 56 50.046875 50.171875 
Q 54.890625 44.34375 54.890625 33.015625 
z
" id="DejaVuSans-110"/>
      <path d="M 44.28125 53.078125 
L 44.28125 44.578125 
Q 40.484375 46.53125 36.375 47.5 
Q 32.28125 48.484375 27.875 48.484375 
Q 21.1875 48.484375 17.84375 46.4375 
Q 14.5 44.390625 14.5 40.28125 
Q 14.5 37.15625 16.890625 35.375 
Q 19.28125 33.59375 26.515625 31.984375 
L 29.59375 31.296875 
Q 39.15625 29.25 43.1875 25.515625 
Q 47.21875 21.78125 47.21875 15.09375 
Q 47.21875 7.46875 41.1875 3.015625 
Q 35.15625 -1.421875 24.609375 -1.421875 
Q 20.21875 -1.421875 15.453125 -0.5625 
Q 10.6875 0.296875 5.421875 2 
L 5.421875 11.28125 
Q 10.40625 8.6875 15.234375 7.390625 
Q 20.0625 6.109375 24.8125 6.109375 
Q 31.15625 6.109375 34.5625 8.28125 
Q 37.984375 10.453125 37.984375 14.40625 
Q 37.984375 18.0625 35.515625 20.015625 
Q 33.0625 21.96875 24.703125 23.78125 
L 21.578125 24.515625 
Q 13.234375 26.265625 9.515625 29.90625 
Q 5.8125 33.546875 5.8125 39.890625 
Q 5.8125 47.609375 11.28125 51.796875 
Q 16.75 56 26.8125 56 
Q 31.78125 56 36.171875 55.265625 
Q 40.578125 54.546875 44.28125 53.078125 
z
" id="DejaVuSans-115"/>
      <path d="M 9.421875 54.6875 
L 18.40625 54.6875 
L 18.40625 0 
L 9.421875 0 
z
M 9.421875 75.984375 
L 18.40625 75.984375 
L 18.40625 64.59375 
L 9.421875 64.59375 
z
" id="DejaVuSans-105"/>
      <path d="M 18.3125 70.21875 
L 18.3125 54.6875 
L 36.8125 54.6875 
L 36.8125 47.703125 
L 18.3125 47.703125 
L 18.3125 18.015625 
Q 18.3125 11.328125 20.140625 9.421875 
Q 21.96875 7.515625 27.59375 7.515625 
L 36.8125 7.515625 
L 36.8125 0 
L 27.59375 0 
Q 17.1875 0 13.234375 3.875 
Q 9.28125 7.765625 9.28125 18.015625 
L 9.28125 47.703125 
L 2.6875 47.703125 
L 2.6875 54.6875 
L 9.28125 54.6875 
L 9.28125 70.21875 
z
" id="DejaVuSans-116"/>
      <path d="M 32.171875 -5.078125 
Q 28.375 -14.84375 24.75 -17.8125 
Q 21.140625 -20.796875 15.09375 -20.796875 
L 7.90625 -20.796875 
L 7.90625 -13.28125 
L 13.1875 -13.28125 
Q 16.890625 -13.28125 18.9375 -11.515625 
Q 21 -9.765625 23.484375 -3.21875 
L 25.09375 0.875 
L 2.984375 54.6875 
L 12.5 54.6875 
L 29.59375 11.921875 
L 46.6875 54.6875 
L 56.203125 54.6875 
z
" id="DejaVuSans-121"/>
     </defs>
     <g transform="translate(18.827813 73.280355)rotate(-90)scale(0.1 -0.1)">
      <use xlink:href="#DejaVuSans-68"/>
      <use x="77.001953" xlink:href="#DejaVuSans-101"/>
      <use x="138.525391" xlink:href="#DejaVuSans-110"/>
      <use x="201.904297" xlink:href="#DejaVuSans-115"/>
      <use x="254.003906" xlink:href="#DejaVuSans-105"/>
      <use x="281.787109" xlink:href="#DejaVuSans-116"/>
      <use x="320.996094" xlink:href="#DejaVuSans-121"/>
     </g>
    </g>
   </g>
   <g id="line2d_7">
    <path clip-path="url(#pa37eb77e56)" d="M 62.808656 95.835162 
L 63.35793 95.828523 
L 63.907204 95.814635 
L 64.456478 95.787723 
L 65.005752 95.739425 
L 65.555026 95.65914 
L 66.1043 95.53554 
L 66.653574 95.359354 
L 67.202848 95.126949 
L 67.752122 94.843602 
L 68.301396 94.525042 
L 68.85067 94.196151 
L 69.399944 93.886619 
L 69.949218 93.62445 
L 70.498492 93.42914 
L 71.047766 93.306654 
L 71.59704 93.248011 
L 72.146314 93.232273 
L 72.695588 93.233198 
L 73.244862 93.227217 
L 73.794136 93.199459 
L 74.34341 93.144956 
L 74.892684 93.064136 
L 75.441958 92.95427 
L 75.991232 92.800477 
L 76.540506 92.570094 
L 77.08978 92.212636 
L 77.639054 91.665239 
L 78.188328 90.861761 
L 78.737602 89.743418 
L 79.286876 88.269873 
L 79.83615 86.430908 
L 80.385424 84.258854 
L 80.934698 81.840345 
L 81.483972 79.323023 
L 82.033246 76.910729 
L 82.58252 74.841438 
L 83.131794 73.347162 
L 83.681068 72.603142 
L 84.230342 72.681222 
L 84.779616 73.524778 
L 85.32889 74.957212 
L 85.878164 76.724127 
L 86.427438 78.556211 
L 86.976712 80.231798 
L 87.525986 81.618952 
L 88.07526 82.685812 
L 88.624534 83.480462 
L 89.173808 84.092083 
L 89.723082 84.609787 
L 90.272356 85.09338 
L 90.82163 85.56321 
L 91.370904 86.007739 
L 91.920178 86.401001 
L 92.469452 86.720027 
L 93.018726 86.954656 
L 93.568 87.107134 
L 94.117274 87.183831 
L 94.666548 87.184293 
L 95.215822 87.093135 
L 95.765096 86.878579 
L 96.31437 86.498838 
L 96.863644 85.914758 
L 97.412918 85.104754 
L 97.962192 84.076651 
L 98.511466 82.871296 
L 99.06074 81.555278 
L 99.610014 80.20434 
L 100.159288 78.883562 
L 100.708562 77.632643 
L 101.257836 76.462923 
L 101.80711 75.367355 
L 102.356384 74.338037 
L 102.905658 73.381934 
L 103.454932 72.526389 
L 104.004206 71.811781 
L 104.55348 71.275771 
L 105.102754 70.937959 
L 105.652028 70.79299 
L 106.201302 70.815276 
L 106.750576 70.972986 
L 107.29985 71.245871 
L 107.849124 71.641329 
L 108.398398 72.203857 
L 108.947672 73.013268 
L 109.496946 74.167774 
L 110.04622 75.751977 
L 110.595494 77.797578 
L 111.144768 80.252151 
L 111.694042 82.972445 
L 112.243316 85.74976 
L 112.792591 88.359967 
L 113.341865 90.61841 
L 113.891139 92.418261 
L 114.440413 93.74024 
L 114.989687 94.635703 
L 115.538961 95.195415 
L 116.088235 95.51842 
L 116.637509 95.690601 
L 117.186783 95.775416 
" style="fill:none;stroke:#ff0000;stroke-linecap:square;stroke-width:1.5;"/>
   </g>
   <g id="patch_22">
    <path d="M 38.27 95.84 
L 38.27 12.703523 
" style="fill:none;stroke:#000000;stroke-linecap:square;stroke-linejoin:miter;stroke-width:0.8;"/>
   </g>
   <g id="patch_23">
    <path d="M 121.980079 95.84 
L 121.980079 12.703523 
" style="fill:none;stroke:#000000;stroke-linecap:square;stroke-linejoin:miter;stroke-width:0.8;"/>
   </g>
   <g id="patch_24">
    <path d="M 38.27 95.84 
L 121.980079 95.84 
" style="fill:none;stroke:#000000;stroke-linecap:square;stroke-linejoin:miter;stroke-width:0.8;"/>
   </g>
   <g id="patch_25">
    <path d="M 38.27 12.703523 
L 121.980079 12.703523 
" style="fill:none;stroke:#000000;stroke-linecap:square;stroke-linejoin:miter;stroke-width:0.8;"/>
   </g>
  </g>
  <g id="axes_2">
   <g id="patch_26">
    <path d="M 140.765 95.84 
L 224.475079 95.84 
L 224.475079 12.703523 
L 140.765 12.703523 
z
" style="fill:none;"/>
   </g>
   <g id="patch_27">
    <path clip-path="url(#p88ca049c71)" d="M 152.480256 95.84 
L 153.593514 95.84 
L 153.593514 70.264068 
L 152.480256 70.264068 
z
" style="fill:#0000ff;opacity:0.4;"/>
   </g>
   <g id="patch_28">
    <path clip-path="url(#p88ca049c71)" d="M 153.593514 95.84 
L 154.706771 95.84 
L 154.706771 44.002192 
L 153.593514 44.002192 
z
" style="fill:#0000ff;opacity:0.4;"/>
   </g>
   <g id="patch_29">
    <path clip-path="url(#p88ca049c71)" d="M 154.706771 95.84 
L 155.820029 95.84 
L 155.820029 30.969246 
L 154.706771 30.969246 
z
" style="fill:#0000ff;opacity:0.4;"/>
   </g>
   <g id="patch_30">
    <path clip-path="url(#p88ca049c71)" d="M 155.820029 95.84 
L 156.933287 95.84 
L 156.933287 44.100184 
L 155.820029 44.100184 
z
" style="fill:#0000ff;opacity:0.4;"/>
   </g>
   <g id="patch_31">
    <path clip-path="url(#p88ca049c71)" d="M 156.933287 95.84 
L 158.046544 95.84 
L 158.046544 16.662403 
L 156.933287 16.662403 
z
" style="fill:#0000ff;opacity:0.4;"/>
   </g>
   <g id="patch_32">
    <path clip-path="url(#p88ca049c71)" d="M 158.046544 95.84 
L 159.159802 95.84 
L 159.159802 53.8014 
L 158.046544 53.8014 
z
" style="fill:#0000ff;opacity:0.4;"/>
   </g>
   <g id="patch_33">
    <path clip-path="url(#p88ca049c71)" d="M 159.159802 95.84 
L 160.27306 95.84 
L 160.27306 48.803804 
L 159.159802 48.803804 
z
" style="fill:#0000ff;opacity:0.4;"/>
   </g>
   <g id="patch_34">
    <path clip-path="url(#p88ca049c71)" d="M 160.27306 95.84 
L 161.386317 95.84 
L 161.386317 62.032734 
L 160.27306 62.032734 
z
" style="fill:#0000ff;opacity:0.4;"/>
   </g>
   <g id="patch_35">
    <path clip-path="url(#p88ca049c71)" d="M 161.386317 95.84 
L 162.499575 95.84 
L 162.499575 90.842404 
L 161.386317 90.842404 
z
" style="fill:#0000ff;opacity:0.4;"/>
   </g>
   <g id="patch_36">
    <path clip-path="url(#p88ca049c71)" d="M 162.499575 95.84 
L 163.612833 95.84 
L 163.612833 95.84 
L 162.499575 95.84 
z
" style="fill:#0000ff;opacity:0.4;"/>
   </g>
   <g id="patch_37">
    <path clip-path="url(#p88ca049c71)" d="M 163.612833 95.84 
L 164.72609 95.84 
L 164.72609 95.84 
L 163.612833 95.84 
z
" style="fill:#0000ff;opacity:0.4;"/>
   </g>
   <g id="patch_38">
    <path clip-path="url(#p88ca049c71)" d="M 164.72609 95.84 
L 165.839348 95.84 
L 165.839348 95.84 
L 164.72609 95.84 
z
" style="fill:#0000ff;opacity:0.4;"/>
   </g>
   <g id="patch_39">
    <path clip-path="url(#p88ca049c71)" d="M 165.839348 95.84 
L 166.952605 95.84 
L 166.952605 95.84 
L 165.839348 95.84 
z
" style="fill:#0000ff;opacity:0.4;"/>
   </g>
   <g id="patch_40">
    <path clip-path="url(#p88ca049c71)" d="M 166.952605 95.84 
L 168.065863 95.84 
L 168.065863 95.84 
L 166.952605 95.84 
z
" style="fill:#0000ff;opacity:0.4;"/>
   </g>
   <g id="patch_41">
    <path clip-path="url(#p88ca049c71)" d="M 168.065863 95.84 
L 169.179121 95.84 
L 169.179121 95.84 
L 168.065863 95.84 
z
" style="fill:#0000ff;opacity:0.4;"/>
   </g>
   <g id="patch_42">
    <path clip-path="url(#p88ca049c71)" d="M 169.179121 95.84 
L 170.292378 95.84 
L 170.292378 95.84 
L 169.179121 95.84 
z
" style="fill:#0000ff;opacity:0.4;"/>
   </g>
   <g id="patch_43">
    <path clip-path="url(#p88ca049c71)" d="M 170.292378 95.84 
L 171.405636 95.84 
L 171.405636 95.84 
L 170.292378 95.84 
z
" style="fill:#0000ff;opacity:0.4;"/>
   </g>
   <g id="patch_44">
    <path clip-path="url(#p88ca049c71)" d="M 171.405636 95.84 
L 172.518894 95.84 
L 172.518894 93.880158 
L 171.405636 93.880158 
z
" style="fill:#0000ff;opacity:0.4;"/>
   </g>
   <g id="patch_45">
    <path clip-path="url(#p88ca049c71)" d="M 172.518894 95.84 
L 173.632151 95.84 
L 173.632151 93.880158 
L 172.518894 93.880158 
z
" style="fill:#0000ff;opacity:0.4;"/>
   </g>
   <g id="patch_46">
    <path clip-path="url(#p88ca049c71)" d="M 173.632151 95.84 
L 174.745409 95.84 
L 174.745409 93.978151 
L 173.632151 93.978151 
z
" style="fill:#0000ff;opacity:0.4;"/>
   </g>
   <g id="patch_47">
    <path clip-path="url(#p88ca049c71)" d="M 174.745409 95.84 
L 175.858667 95.84 
L 175.858667 95.056063 
L 174.745409 95.056063 
z
" style="fill:#0000ff;opacity:0.4;"/>
   </g>
   <g id="patch_48">
    <path clip-path="url(#p88ca049c71)" d="M 175.858667 95.84 
L 176.971924 95.84 
L 176.971924 92.900238 
L 175.858667 92.900238 
z
" style="fill:#0000ff;opacity:0.4;"/>
   </g>
   <g id="patch_49">
    <path clip-path="url(#p88ca049c71)" d="M 176.971924 95.84 
L 178.085182 95.84 
L 178.085182 89.274531 
L 176.971924 89.274531 
z
" style="fill:#0000ff;opacity:0.4;"/>
   </g>
   <g id="patch_50">
    <path clip-path="url(#p88ca049c71)" d="M 178.085182 95.84 
L 179.19844 95.84 
L 179.19844 87.608666 
L 178.085182 87.608666 
z
" style="fill:#0000ff;opacity:0.4;"/>
   </g>
   <g id="patch_51">
    <path clip-path="url(#p88ca049c71)" d="M 179.19844 95.84 
L 180.311697 95.84 
L 180.311697 91.332365 
L 179.19844 91.332365 
z
" style="fill:#0000ff;opacity:0.4;"/>
   </g>
   <g id="patch_52">
    <path clip-path="url(#p88ca049c71)" d="M 180.311697 95.84 
L 181.424955 95.84 
L 181.424955 92.802246 
L 180.311697 92.802246 
z
" style="fill:#0000ff;opacity:0.4;"/>
   </g>
   <g id="patch_53">
    <path clip-path="url(#p88ca049c71)" d="M 181.424955 95.84 
L 182.538212 95.84 
L 182.538212 95.35004 
L 181.424955 95.35004 
z
" style="fill:#0000ff;opacity:0.4;"/>
   </g>
   <g id="patch_54">
    <path clip-path="url(#p88ca049c71)" d="M 182.538212 95.84 
L 183.65147 95.84 
L 183.65147 93.292206 
L 182.538212 93.292206 
z
" style="fill:#0000ff;opacity:0.4;"/>
   </g>
   <g id="patch_55">
    <path clip-path="url(#p88ca049c71)" d="M 183.65147 95.84 
L 184.764728 95.84 
L 184.764728 94.272127 
L 183.65147 94.272127 
z
" style="fill:#0000ff;opacity:0.4;"/>
   </g>
   <g id="patch_56">
    <path clip-path="url(#p88ca049c71)" d="M 184.764728 95.84 
L 185.877985 95.84 
L 185.877985 92.900238 
L 184.764728 92.900238 
z
" style="fill:#0000ff;opacity:0.4;"/>
   </g>
   <g id="patch_57">
    <path clip-path="url(#p88ca049c71)" d="M 185.877985 95.84 
L 186.991243 95.84 
L 186.991243 90.058468 
L 185.877985 90.058468 
z
" style="fill:#0000ff;opacity:0.4;"/>
   </g>
   <g id="patch_58">
    <path clip-path="url(#p88ca049c71)" d="M 186.991243 95.84 
L 188.104501 95.84 
L 188.104501 92.312285 
L 186.991243 92.312285 
z
" style="fill:#0000ff;opacity:0.4;"/>
   </g>
   <g id="patch_59">
    <path clip-path="url(#p88ca049c71)" d="M 188.104501 95.84 
L 189.217758 95.84 
L 189.217758 86.726737 
L 188.104501 86.726737 
z
" style="fill:#0000ff;opacity:0.4;"/>
   </g>
   <g id="patch_60">
    <path clip-path="url(#p88ca049c71)" d="M 189.217758 95.84 
L 190.331016 95.84 
L 190.331016 86.824729 
L 189.217758 86.824729 
z
" style="fill:#0000ff;opacity:0.4;"/>
   </g>
   <g id="patch_61">
    <path clip-path="url(#p88ca049c71)" d="M 190.331016 95.84 
L 191.444274 95.84 
L 191.444274 86.138785 
L 190.331016 86.138785 
z
" style="fill:#0000ff;opacity:0.4;"/>
   </g>
   <g id="patch_62">
    <path clip-path="url(#p88ca049c71)" d="M 191.444274 95.84 
L 192.557531 95.84 
L 192.557531 86.432761 
L 191.444274 86.432761 
z
" style="fill:#0000ff;opacity:0.4;"/>
   </g>
   <g id="patch_63">
    <path clip-path="url(#p88ca049c71)" d="M 192.557531 95.84 
L 193.670789 95.84 
L 193.670789 91.13638 
L 192.557531 91.13638 
z
" style="fill:#0000ff;opacity:0.4;"/>
   </g>
   <g id="patch_64">
    <path clip-path="url(#p88ca049c71)" d="M 193.670789 95.84 
L 194.784046 95.84 
L 194.784046 91.430357 
L 193.670789 91.430357 
z
" style="fill:#0000ff;opacity:0.4;"/>
   </g>
   <g id="patch_65">
    <path clip-path="url(#p88ca049c71)" d="M 194.784046 95.84 
L 195.897304 95.84 
L 195.897304 92.606262 
L 194.784046 92.606262 
z
" style="fill:#0000ff;opacity:0.4;"/>
   </g>
   <g id="patch_66">
    <path clip-path="url(#p88ca049c71)" d="M 195.897304 95.84 
L 197.010562 95.84 
L 197.010562 88.196618 
L 195.897304 88.196618 
z
" style="fill:#0000ff;opacity:0.4;"/>
   </g>
   <g id="patch_67">
    <path clip-path="url(#p88ca049c71)" d="M 197.010562 95.84 
L 198.123819 95.84 
L 198.123819 89.078547 
L 197.010562 89.078547 
z
" style="fill:#0000ff;opacity:0.4;"/>
   </g>
   <g id="patch_68">
    <path clip-path="url(#p88ca049c71)" d="M 198.123819 95.84 
L 199.237077 95.84 
L 199.237077 92.018309 
L 198.123819 92.018309 
z
" style="fill:#0000ff;opacity:0.4;"/>
   </g>
   <g id="patch_69">
    <path clip-path="url(#p88ca049c71)" d="M 199.237077 95.84 
L 200.350335 95.84 
L 200.350335 92.312285 
L 199.237077 92.312285 
z
" style="fill:#0000ff;opacity:0.4;"/>
   </g>
   <g id="patch_70">
    <path clip-path="url(#p88ca049c71)" d="M 200.350335 95.84 
L 201.463592 95.84 
L 201.463592 93.194214 
L 200.350335 93.194214 
z
" style="fill:#0000ff;opacity:0.4;"/>
   </g>
   <g id="patch_71">
    <path clip-path="url(#p88ca049c71)" d="M 201.463592 95.84 
L 202.57685 95.84 
L 202.57685 94.958071 
L 201.463592 94.958071 
z
" style="fill:#0000ff;opacity:0.4;"/>
   </g>
   <g id="patch_72">
    <path clip-path="url(#p88ca049c71)" d="M 202.57685 95.84 
L 203.690108 95.84 
L 203.690108 95.546024 
L 202.57685 95.546024 
z
" style="fill:#0000ff;opacity:0.4;"/>
   </g>
   <g id="patch_73">
    <path clip-path="url(#p88ca049c71)" d="M 203.690108 95.84 
L 204.803365 95.84 
L 204.803365 93.978151 
L 203.690108 93.978151 
z
" style="fill:#0000ff;opacity:0.4;"/>
   </g>
   <g id="patch_74">
    <path clip-path="url(#p88ca049c71)" d="M 204.803365 95.84 
L 205.916623 95.84 
L 205.916623 92.99823 
L 204.803365 92.99823 
z
" style="fill:#0000ff;opacity:0.4;"/>
   </g>
   <g id="patch_75">
    <path clip-path="url(#p88ca049c71)" d="M 205.916623 95.84 
L 207.02988 95.84 
L 207.02988 94.272127 
L 205.916623 94.272127 
z
" style="fill:#0000ff;opacity:0.4;"/>
   </g>
   <g id="patch_76">
    <path clip-path="url(#p88ca049c71)" d="M 207.02988 95.84 
L 208.143138 95.84 
L 208.143138 94.664095 
L 207.02988 94.664095 
z
" style="fill:#0000ff;opacity:0.4;"/>
   </g>
   <g id="matplotlib.axis_3">
    <g id="xtick_4">
     <g id="line2d_8">
      <g>
       <use style="stroke:#000000;stroke-width:0.8;" x="147.943959" xlink:href="#m0c621905c9" y="95.84"/>
      </g>
     </g>
    </g>
    <g id="xtick_5">
     <g id="line2d_9">
      <g>
       <use style="stroke:#000000;stroke-width:0.8;" x="184.484948" xlink:href="#m0c621905c9" y="95.84"/>
      </g>
     </g>
    </g>
    <g id="xtick_6">
     <g id="line2d_10">
      <g>
       <use style="stroke:#000000;stroke-width:0.8;" x="221.025937" xlink:href="#m0c621905c9" y="95.84"/>
      </g>
     </g>
    </g>
   </g>
   <g id="matplotlib.axis_4">
    <g id="ytick_4">
     <g id="line2d_11">
      <g>
       <use style="stroke:#000000;stroke-width:0.8;" x="140.765" xlink:href="#m1cac4115b9" y="95.84"/>
      </g>
     </g>
    </g>
    <g id="ytick_5">
     <g id="line2d_12">
      <g>
       <use style="stroke:#000000;stroke-width:0.8;" x="140.765" xlink:href="#m1cac4115b9" y="55.290448"/>
      </g>
     </g>
    </g>
    <g id="ytick_6">
     <g id="line2d_13">
      <g>
       <use style="stroke:#000000;stroke-width:0.8;" x="140.765" xlink:href="#m1cac4115b9" y="14.740897"/>
      </g>
     </g>
    </g>
   </g>
   <g id="line2d_14">
    <path clip-path="url(#p88ca049c71)" d="M 144.570004 95.803742 
L 145.292058 95.749742 
L 146.014112 95.630009 
L 146.736167 95.38305 
L 147.458221 94.909223 
L 148.180276 94.063572 
L 148.90233 92.659747 
L 149.624385 90.492348 
L 150.346439 87.380779 
L 151.068493 83.228668 
L 151.790548 78.082434 
L 152.512602 72.166563 
L 153.234657 65.877139 
L 153.956711 59.729417 
L 154.678765 54.273361 
L 155.40082 50.003264 
L 156.122874 47.287059 
L 156.844929 46.329187 
L 157.566983 47.165623 
L 158.289037 49.679803 
L 159.011092 53.62727 
L 159.733146 58.662919 
L 160.455201 64.371841 
L 161.177255 70.308068 
L 161.89931 76.042684 
L 162.621364 81.2157 
L 163.343418 85.57956 
L 164.065473 89.021093 
L 164.787527 91.554872 
L 165.509582 93.291352 
L 166.231636 94.391893 
L 166.95369 95.025593 
L 167.675745 95.33897 
L 168.397799 95.442352 
L 169.119854 95.410189 
L 169.841908 95.289046 
L 170.563963 95.107025 
L 171.286017 94.880608 
L 172.008071 94.617995 
L 172.730126 94.320545 
L 173.45218 93.985008 
L 174.174235 93.608404 
L 174.896289 93.195199 
L 175.618343 92.763978 
L 176.340398 92.34978 
L 177.062452 91.999404 
L 177.784507 91.760045 
L 178.506561 91.664912 
L 179.228616 91.721214 
L 179.95067 91.905228 
L 180.672724 92.166257 
L 181.394779 92.437834 
L 182.116833 92.652066 
L 182.838888 92.752524 
L 183.560942 92.702527 
L 184.282996 92.487945 
L 185.005051 92.115741 
L 185.727105 91.610467 
L 186.44916 91.010651 
L 187.171214 90.365831 
L 187.893269 89.733558 
L 188.615323 89.174825 
L 189.337377 88.746689 
L 190.059432 88.492423 
L 190.781486 88.431582 
L 191.503541 88.553839 
L 192.225595 88.820079 
L 192.947649 89.17198 
L 193.669704 89.547888 
L 194.391758 89.8998 
L 195.113813 90.205376 
L 195.835867 90.470589 
L 196.557921 90.722432 
L 197.279976 90.995059 
L 198.00203 91.315118 
L 198.724085 91.691648 
L 199.446139 92.11339 
L 200.168194 92.553189 
L 200.890248 92.976901 
L 201.612302 93.353431 
L 202.334357 93.662986 
L 203.056411 93.901529 
L 203.778466 94.080519 
L 204.50052 94.222229 
L 205.222574 94.352255 
L 205.944629 94.491729 
L 206.666683 94.651837 
L 207.388738 94.832211 
L 208.110792 95.023183 
L 208.832847 95.21045 
L 209.554901 95.380102 
L 210.276955 95.5223 
L 210.99901 95.632828 
L 211.721064 95.712661 
L 212.443119 95.766324 
L 213.165173 95.799926 
L 213.887227 95.819533 
L 214.609282 95.830197 
L 215.331336 95.835602 
L 216.053391 95.838153 
" style="fill:none;stroke:#0000ff;stroke-linecap:square;stroke-width:1.5;"/>
   </g>
   <g id="patch_77">
    <path d="M 140.765 95.84 
L 140.765 12.703523 
" style="fill:none;stroke:#000000;stroke-linecap:square;stroke-linejoin:miter;stroke-width:0.8;"/>
   </g>
   <g id="patch_78">
    <path d="M 224.475079 95.84 
L 224.475079 12.703523 
" style="fill:none;stroke:#000000;stroke-linecap:square;stroke-linejoin:miter;stroke-width:0.8;"/>
   </g>
   <g id="patch_79">
    <path d="M 140.765 95.84 
L 224.475079 95.84 
" style="fill:none;stroke:#000000;stroke-linecap:square;stroke-linejoin:miter;stroke-width:0.8;"/>
   </g>
   <g id="patch_80">
    <path d="M 140.765 12.703523 
L 224.475079 12.703523 
" style="fill:none;stroke:#000000;stroke-linecap:square;stroke-linejoin:miter;stroke-width:0.8;"/>
   </g>
  </g>
  <g id="axes_3">
   <g id="patch_81">
    <path d="M 38.27 197.8 
L 121.980079 197.8 
L 121.980079 114.663523 
L 38.27 114.663523 
z
" style="fill:none;"/>
   </g>
   <g id="patch_82">
    <path clip-path="url(#pc34acaee4b)" d="M 67.740286 197.8 
L 70.457938 197.8 
L 70.457938 195.110524 
L 67.740286 195.110524 
z
" style="fill:#ffa500;opacity:0.4;"/>
   </g>
   <g id="patch_83">
    <path clip-path="url(#pc34acaee4b)" d="M 70.457938 197.8 
L 73.175589 197.8 
L 73.175589 193.384443 
L 70.457938 193.384443 
z
" style="fill:#ffa500;opacity:0.4;"/>
   </g>
   <g id="patch_84">
    <path clip-path="url(#pc34acaee4b)" d="M 73.175589 197.8 
L 75.893241 197.8 
L 75.893241 188.045632 
L 73.175589 188.045632 
z
" style="fill:#ffa500;opacity:0.4;"/>
   </g>
   <g id="patch_85">
    <path clip-path="url(#pc34acaee4b)" d="M 75.893241 197.8 
L 78.610893 197.8 
L 78.610893 179.214517 
L 75.893241 179.214517 
z
" style="fill:#ffa500;opacity:0.4;"/>
   </g>
   <g id="patch_86">
    <path clip-path="url(#pc34acaee4b)" d="M 78.610893 197.8 
L 81.328544 197.8 
L 81.328544 178.130699 
L 78.610893 178.130699 
z
" style="fill:#ffa500;opacity:0.4;"/>
   </g>
   <g id="patch_87">
    <path clip-path="url(#pc34acaee4b)" d="M 81.328544 197.8 
L 84.046196 197.8 
L 84.046196 180.13777 
L 81.328544 180.13777 
z
" style="fill:#ffa500;opacity:0.4;"/>
   </g>
   <g id="patch_88">
    <path clip-path="url(#pc34acaee4b)" d="M 84.046196 197.8 
L 86.763847 197.8 
L 86.763847 181.101165 
L 84.046196 181.101165 
z
" style="fill:#ffa500;opacity:0.4;"/>
   </g>
   <g id="patch_89">
    <path clip-path="url(#pc34acaee4b)" d="M 86.763847 197.8 
L 89.481499 197.8 
L 89.481499 185.717429 
L 86.763847 185.717429 
z
" style="fill:#ffa500;opacity:0.4;"/>
   </g>
   <g id="patch_90">
    <path clip-path="url(#pc34acaee4b)" d="M 89.481499 197.8 
L 92.199151 197.8 
L 92.199151 185.035025 
L 89.481499 185.035025 
z
" style="fill:#ffa500;opacity:0.4;"/>
   </g>
   <g id="patch_91">
    <path clip-path="url(#pc34acaee4b)" d="M 92.199151 197.8 
L 94.916802 197.8 
L 94.916802 193.344301 
L 92.199151 193.344301 
z
" style="fill:#ffa500;opacity:0.4;"/>
   </g>
   <g id="patch_92">
    <path clip-path="url(#pc34acaee4b)" d="M 94.916802 197.8 
L 97.634454 197.8 
L 97.634454 193.946423 
L 94.916802 193.946423 
z
" style="fill:#ffa500;opacity:0.4;"/>
   </g>
   <g id="patch_93">
    <path clip-path="url(#pc34acaee4b)" d="M 97.634454 197.8 
L 100.352106 197.8 
L 100.352106 193.223877 
L 97.634454 193.223877 
z
" style="fill:#ffa500;opacity:0.4;"/>
   </g>
   <g id="patch_94">
    <path clip-path="url(#pc34acaee4b)" d="M 100.352106 197.8 
L 103.069757 197.8 
L 103.069757 184.272338 
L 100.352106 184.272338 
z
" style="fill:#ffa500;opacity:0.4;"/>
   </g>
   <g id="patch_95">
    <path clip-path="url(#pc34acaee4b)" d="M 103.069757 197.8 
L 105.787409 197.8 
L 105.787409 175.601788 
L 103.069757 175.601788 
z
" style="fill:#ffa500;opacity:0.4;"/>
   </g>
   <g id="patch_96">
    <path clip-path="url(#pc34acaee4b)" d="M 105.787409 197.8 
L 108.50506 197.8 
L 108.50506 175.722213 
L 105.787409 175.722213 
z
" style="fill:#ffa500;opacity:0.4;"/>
   </g>
   <g id="patch_97">
    <path clip-path="url(#pc34acaee4b)" d="M 108.50506 197.8 
L 111.222712 197.8 
L 111.222712 164.723461 
L 108.50506 164.723461 
z
" style="fill:#ffa500;opacity:0.4;"/>
   </g>
   <g id="matplotlib.axis_5">
    <g id="xtick_7">
     <g id="line2d_15">
      <g>
       <use style="stroke:#000000;stroke-width:0.8;" x="45.448959" xlink:href="#m0c621905c9" y="197.8"/>
      </g>
     </g>
     <g id="text_5">
      <!-- 2.5 -->
      <defs>
       <path d="M 10.6875 12.40625 
L 21 12.40625 
L 21 0 
L 10.6875 0 
z
" id="DejaVuSans-46"/>
       <path d="M 10.796875 72.90625 
L 49.515625 72.90625 
L 49.515625 64.59375 
L 19.828125 64.59375 
L 19.828125 46.734375 
Q 21.96875 47.46875 24.109375 47.828125 
Q 26.265625 48.1875 28.421875 48.1875 
Q 40.625 48.1875 47.75 41.5 
Q 54.890625 34.8125 54.890625 23.390625 
Q 54.890625 11.625 47.5625 5.09375 
Q 40.234375 -1.421875 26.90625 -1.421875 
Q 22.3125 -1.421875 17.546875 -0.640625 
Q 12.796875 0.140625 7.71875 1.703125 
L 7.71875 11.625 
Q 12.109375 9.234375 16.796875 8.0625 
Q 21.484375 6.890625 26.703125 6.890625 
Q 35.15625 6.890625 40.078125 11.328125 
Q 45.015625 15.765625 45.015625 23.390625 
Q 45.015625 31 40.078125 35.4375 
Q 35.15625 39.890625 26.703125 39.890625 
Q 22.75 39.890625 18.8125 39.015625 
Q 14.890625 38.140625 10.796875 36.28125 
z
" id="DejaVuSans-53"/>
      </defs>
      <g transform="translate(37.497397 212.398438)scale(0.1 -0.1)">
       <use xlink:href="#DejaVuSans-50"/>
       <use x="63.623047" xlink:href="#DejaVuSans-46"/>
       <use x="95.410156" xlink:href="#DejaVuSans-53"/>
      </g>
     </g>
    </g>
    <g id="xtick_8">
     <g id="line2d_16">
      <g>
       <use style="stroke:#000000;stroke-width:0.8;" x="81.989948" xlink:href="#m0c621905c9" y="197.8"/>
      </g>
     </g>
     <g id="text_6">
      <!-- 5.0 -->
      <g transform="translate(74.038385 212.398438)scale(0.1 -0.1)">
       <use xlink:href="#DejaVuSans-53"/>
       <use x="63.623047" xlink:href="#DejaVuSans-46"/>
       <use x="95.410156" xlink:href="#DejaVuSans-48"/>
      </g>
     </g>
    </g>
    <g id="xtick_9">
     <g id="line2d_17">
      <g>
       <use style="stroke:#000000;stroke-width:0.8;" x="118.530937" xlink:href="#m0c621905c9" y="197.8"/>
      </g>
     </g>
     <g id="text_7">
      <!-- 7.5 -->
      <defs>
       <path d="M 8.203125 72.90625 
L 55.078125 72.90625 
L 55.078125 68.703125 
L 28.609375 0 
L 18.3125 0 
L 43.21875 64.59375 
L 8.203125 64.59375 
z
" id="DejaVuSans-55"/>
      </defs>
      <g transform="translate(110.579374 212.398438)scale(0.1 -0.1)">
       <use xlink:href="#DejaVuSans-55"/>
       <use x="63.623047" xlink:href="#DejaVuSans-46"/>
       <use x="95.410156" xlink:href="#DejaVuSans-53"/>
      </g>
     </g>
    </g>
    <g id="text_8">
     <!-- Velocity (km/s) -->
     <defs>
      <path d="M 28.609375 0 
L 0.78125 72.90625 
L 11.078125 72.90625 
L 34.1875 11.53125 
L 57.328125 72.90625 
L 67.578125 72.90625 
L 39.796875 0 
z
" id="DejaVuSans-86"/>
      <path d="M 9.421875 75.984375 
L 18.40625 75.984375 
L 18.40625 0 
L 9.421875 0 
z
" id="DejaVuSans-108"/>
      <path d="M 30.609375 48.390625 
Q 23.390625 48.390625 19.1875 42.75 
Q 14.984375 37.109375 14.984375 27.296875 
Q 14.984375 17.484375 19.15625 11.84375 
Q 23.34375 6.203125 30.609375 6.203125 
Q 37.796875 6.203125 41.984375 11.859375 
Q 46.1875 17.53125 46.1875 27.296875 
Q 46.1875 37.015625 41.984375 42.703125 
Q 37.796875 48.390625 30.609375 48.390625 
z
M 30.609375 56 
Q 42.328125 56 49.015625 48.375 
Q 55.71875 40.765625 55.71875 27.296875 
Q 55.71875 13.875 49.015625 6.21875 
Q 42.328125 -1.421875 30.609375 -1.421875 
Q 18.84375 -1.421875 12.171875 6.21875 
Q 5.515625 13.875 5.515625 27.296875 
Q 5.515625 40.765625 12.171875 48.375 
Q 18.84375 56 30.609375 56 
z
" id="DejaVuSans-111"/>
      <path d="M 48.78125 52.59375 
L 48.78125 44.1875 
Q 44.96875 46.296875 41.140625 47.34375 
Q 37.3125 48.390625 33.40625 48.390625 
Q 24.65625 48.390625 19.8125 42.84375 
Q 14.984375 37.3125 14.984375 27.296875 
Q 14.984375 17.28125 19.8125 11.734375 
Q 24.65625 6.203125 33.40625 6.203125 
Q 37.3125 6.203125 41.140625 7.25 
Q 44.96875 8.296875 48.78125 10.40625 
L 48.78125 2.09375 
Q 45.015625 0.34375 40.984375 -0.53125 
Q 36.96875 -1.421875 32.421875 -1.421875 
Q 20.0625 -1.421875 12.78125 6.34375 
Q 5.515625 14.109375 5.515625 27.296875 
Q 5.515625 40.671875 12.859375 48.328125 
Q 20.21875 56 33.015625 56 
Q 37.15625 56 41.109375 55.140625 
Q 45.0625 54.296875 48.78125 52.59375 
z
" id="DejaVuSans-99"/>
      <path id="DejaVuSans-32"/>
      <path d="M 31 75.875 
Q 24.46875 64.65625 21.28125 53.65625 
Q 18.109375 42.671875 18.109375 31.390625 
Q 18.109375 20.125 21.3125 9.0625 
Q 24.515625 -2 31 -13.1875 
L 23.1875 -13.1875 
Q 15.875 -1.703125 12.234375 9.375 
Q 8.59375 20.453125 8.59375 31.390625 
Q 8.59375 42.28125 12.203125 53.3125 
Q 15.828125 64.359375 23.1875 75.875 
z
" id="DejaVuSans-40"/>
      <path d="M 9.078125 75.984375 
L 18.109375 75.984375 
L 18.109375 31.109375 
L 44.921875 54.6875 
L 56.390625 54.6875 
L 27.390625 29.109375 
L 57.625 0 
L 45.90625 0 
L 18.109375 26.703125 
L 18.109375 0 
L 9.078125 0 
z
" id="DejaVuSans-107"/>
      <path d="M 52 44.1875 
Q 55.375 50.25 60.0625 53.125 
Q 64.75 56 71.09375 56 
Q 79.640625 56 84.28125 50.015625 
Q 88.921875 44.046875 88.921875 33.015625 
L 88.921875 0 
L 79.890625 0 
L 79.890625 32.71875 
Q 79.890625 40.578125 77.09375 44.375 
Q 74.3125 48.1875 68.609375 48.1875 
Q 61.625 48.1875 57.5625 43.546875 
Q 53.515625 38.921875 53.515625 30.90625 
L 53.515625 0 
L 44.484375 0 
L 44.484375 32.71875 
Q 44.484375 40.625 41.703125 44.40625 
Q 38.921875 48.1875 33.109375 48.1875 
Q 26.21875 48.1875 22.15625 43.53125 
Q 18.109375 38.875 18.109375 30.90625 
L 18.109375 0 
L 9.078125 0 
L 9.078125 54.6875 
L 18.109375 54.6875 
L 18.109375 46.1875 
Q 21.1875 51.21875 25.484375 53.609375 
Q 29.78125 56 35.6875 56 
Q 41.65625 56 45.828125 52.96875 
Q 50 49.953125 52 44.1875 
z
" id="DejaVuSans-109"/>
      <path d="M 25.390625 72.90625 
L 33.6875 72.90625 
L 8.296875 -9.28125 
L 0 -9.28125 
z
" id="DejaVuSans-47"/>
      <path d="M 8.015625 75.875 
L 15.828125 75.875 
Q 23.140625 64.359375 26.78125 53.3125 
Q 30.421875 42.28125 30.421875 31.390625 
Q 30.421875 20.453125 26.78125 9.375 
Q 23.140625 -1.703125 15.828125 -13.1875 
L 8.015625 -13.1875 
Q 14.5 -2 17.703125 9.0625 
Q 20.90625 20.125 20.90625 31.390625 
Q 20.90625 42.671875 17.703125 53.65625 
Q 14.5 64.65625 8.015625 75.875 
z
" id="DejaVuSans-41"/>
     </defs>
     <g transform="translate(42.964102 226.076563)scale(0.1 -0.1)">
      <use xlink:href="#DejaVuSans-86"/>
      <use x="60.658203" xlink:href="#DejaVuSans-101"/>
      <use x="122.181641" xlink:href="#DejaVuSans-108"/>
      <use x="149.964844" xlink:href="#DejaVuSans-111"/>
      <use x="211.146484" xlink:href="#DejaVuSans-99"/>
      <use x="266.126953" xlink:href="#DejaVuSans-105"/>
      <use x="293.910156" xlink:href="#DejaVuSans-116"/>
      <use x="333.119141" xlink:href="#DejaVuSans-121"/>
      <use x="392.298828" xlink:href="#DejaVuSans-32"/>
      <use x="424.085938" xlink:href="#DejaVuSans-40"/>
      <use x="463.099609" xlink:href="#DejaVuSans-107"/>
      <use x="521.009766" xlink:href="#DejaVuSans-109"/>
      <use x="618.421875" xlink:href="#DejaVuSans-47"/>
      <use x="652.113281" xlink:href="#DejaVuSans-115"/>
      <use x="704.212891" xlink:href="#DejaVuSans-41"/>
     </g>
    </g>
   </g>
   <g id="matplotlib.axis_6">
    <g id="ytick_7">
     <g id="line2d_18">
      <g>
       <use style="stroke:#000000;stroke-width:0.8;" x="38.27" xlink:href="#m1cac4115b9" y="197.8"/>
      </g>
     </g>
     <g id="text_9">
      <!-- 0 -->
      <g transform="translate(24.9075 201.599219)scale(0.1 -0.1)">
       <use xlink:href="#DejaVuSans-48"/>
      </g>
     </g>
    </g>
    <g id="ytick_8">
     <g id="line2d_19">
      <g>
       <use style="stroke:#000000;stroke-width:0.8;" x="38.27" xlink:href="#m1cac4115b9" y="157.250448"/>
      </g>
     </g>
     <g id="text_10">
      <!-- 1 -->
      <g transform="translate(24.9075 161.049667)scale(0.1 -0.1)">
       <use xlink:href="#DejaVuSans-49"/>
      </g>
     </g>
    </g>
    <g id="ytick_9">
     <g id="line2d_20">
      <g>
       <use style="stroke:#000000;stroke-width:0.8;" x="38.27" xlink:href="#m1cac4115b9" y="116.700897"/>
      </g>
     </g>
     <g id="text_11">
      <!-- 2 -->
      <g transform="translate(24.9075 120.500115)scale(0.1 -0.1)">
       <use xlink:href="#DejaVuSans-50"/>
      </g>
     </g>
    </g>
    <g id="text_12">
     <!-- Density -->
     <g transform="translate(18.827813 175.240355)rotate(-90)scale(0.1 -0.1)">
      <use xlink:href="#DejaVuSans-68"/>
      <use x="77.001953" xlink:href="#DejaVuSans-101"/>
      <use x="138.525391" xlink:href="#DejaVuSans-110"/>
      <use x="201.904297" xlink:href="#DejaVuSans-115"/>
      <use x="254.003906" xlink:href="#DejaVuSans-105"/>
      <use x="281.787109" xlink:href="#DejaVuSans-116"/>
      <use x="320.996094" xlink:href="#DejaVuSans-121"/>
     </g>
    </g>
   </g>
   <g id="line2d_21">
    <path clip-path="url(#pc34acaee4b)" d="M 60.787922 197.798424 
L 61.367591 197.796318 
L 61.947259 197.791832 
L 62.526927 197.78279 
L 63.106595 197.765544 
L 63.686263 197.734418 
L 64.265932 197.681288 
L 64.8456 197.595541 
L 65.425268 197.464759 
L 66.004936 197.276316 
L 66.584604 197.019828 
L 67.164273 196.689917 
L 67.743941 196.28828 
L 68.323609 195.823903 
L 68.903277 195.31058 
L 69.482946 194.761883 
L 70.062614 194.184964 
L 70.642282 193.575543 
L 71.22195 192.916513 
L 71.801618 192.181479 
L 72.381287 191.342691 
L 72.960955 190.380952 
L 73.540623 189.294098 
L 74.120291 188.101082 
L 74.69996 186.840155 
L 75.279628 185.56174 
L 75.859296 184.318297 
L 76.438964 183.154468 
L 77.018632 182.100646 
L 77.598301 181.171957 
L 78.177969 180.37266 
L 78.757637 179.703839 
L 79.337305 179.170789 
L 79.916973 178.786484 
L 80.496642 178.569345 
L 81.07631 178.536271 
L 81.655978 178.694328 
L 82.235646 179.035011 
L 82.815315 179.533419 
L 83.394983 180.151902 
L 83.974651 180.845717 
L 84.554319 181.568128 
L 85.133987 182.274147 
L 85.713656 182.924059 
L 86.293324 183.488371 
L 86.872992 183.954391 
L 87.45266 184.332223 
L 88.032329 184.656589 
L 88.611997 184.981647 
L 89.191665 185.368825 
L 89.771333 185.870906 
L 90.351001 186.517572 
L 90.93067 187.307219 
L 91.510338 188.207447 
L 92.090006 189.163491 
L 92.669674 190.11125 
L 93.249342 190.990504 
L 93.829011 191.754444 
L 94.408679 192.373356 
L 94.988347 192.83242 
L 95.568015 193.125535 
L 96.147684 193.248086 
L 96.727352 193.191585 
L 97.30702 192.942124 
L 97.886688 192.482977 
L 98.466356 191.800209 
L 99.046025 190.889178 
L 99.625693 189.759739 
L 100.205361 188.438593 
L 100.785029 186.968308 
L 101.364698 185.403541 
L 101.944366 183.80565 
L 102.524034 182.236934 
L 103.103702 180.75536 
L 103.68337 179.410057 
L 104.263039 178.237571 
L 104.842707 177.259158 
L 105.422375 176.480064 
L 106.002043 175.892347 
L 106.581711 175.482466 
L 107.16138 175.243215 
L 107.741048 175.186882 
L 108.320716 175.354129 
L 108.900384 175.812604 
L 109.480053 176.641936 
L 110.059721 177.907174 
L 110.639389 179.628726 
L 111.219057 181.760325 
L 111.798725 184.185049 
L 112.378394 186.732949 
L 112.958062 189.215202 
L 113.53773 191.463139 
L 114.117398 193.359156 
L 114.697066 194.850815 
L 115.276735 195.946723 
L 115.856403 196.699315 
L 116.436071 197.182761 
L 117.015739 197.473433 
L 117.595408 197.637091 
L 118.175076 197.723415 
" style="fill:none;stroke:#ffa500;stroke-linecap:square;stroke-width:1.5;"/>
   </g>
   <g id="patch_98">
    <path d="M 38.27 197.8 
L 38.27 114.663523 
" style="fill:none;stroke:#000000;stroke-linecap:square;stroke-linejoin:miter;stroke-width:0.8;"/>
   </g>
   <g id="patch_99">
    <path d="M 121.980079 197.8 
L 121.980079 114.663523 
" style="fill:none;stroke:#000000;stroke-linecap:square;stroke-linejoin:miter;stroke-width:0.8;"/>
   </g>
   <g id="patch_100">
    <path d="M 38.27 197.8 
L 121.980079 197.8 
" style="fill:none;stroke:#000000;stroke-linecap:square;stroke-linejoin:miter;stroke-width:0.8;"/>
   </g>
   <g id="patch_101">
    <path d="M 38.27 114.663523 
L 121.980079 114.663523 
" style="fill:none;stroke:#000000;stroke-linecap:square;stroke-linejoin:miter;stroke-width:0.8;"/>
   </g>
  </g>
  <g id="axes_4">
   <g id="patch_102">
    <path d="M 140.765 197.8 
L 224.475079 197.8 
L 224.475079 114.663523 
L 140.765 114.663523 
z
" style="fill:none;"/>
   </g>
   <g id="patch_103">
    <path clip-path="url(#p7f207cf71e)" d="M 171.560159 197.8 
L 173.667895 197.8 
L 173.667895 195.470928 
L 171.560159 195.470928 
z
" style="fill:#800080;opacity:0.4;"/>
   </g>
   <g id="patch_104">
    <path clip-path="url(#p7f207cf71e)" d="M 173.667895 197.8 
L 175.775631 197.8 
L 175.775631 189.777639 
L 173.667895 189.777639 
z
" style="fill:#800080;opacity:0.4;"/>
   </g>
   <g id="patch_105">
    <path clip-path="url(#p7f207cf71e)" d="M 175.775631 197.8 
L 177.883366 197.8 
L 177.883366 191.019811 
L 175.775631 191.019811 
z
" style="fill:#800080;opacity:0.4;"/>
   </g>
   <g id="patch_106">
    <path clip-path="url(#p7f207cf71e)" d="M 177.883366 197.8 
L 179.991102 197.8 
L 179.991102 187.39681 
L 177.883366 187.39681 
z
" style="fill:#800080;opacity:0.4;"/>
   </g>
   <g id="patch_107">
    <path clip-path="url(#p7f207cf71e)" d="M 179.991102 197.8 
L 182.098838 197.8 
L 182.098838 168.971259 
L 179.991102 168.971259 
z
" style="fill:#800080;opacity:0.4;"/>
   </g>
   <g id="patch_108">
    <path clip-path="url(#p7f207cf71e)" d="M 182.098838 197.8 
L 184.206573 197.8 
L 184.206573 167.31503 
L 182.098838 167.31503 
z
" style="fill:#800080;opacity:0.4;"/>
   </g>
   <g id="patch_109">
    <path clip-path="url(#p7f207cf71e)" d="M 184.206573 197.8 
L 186.314309 197.8 
L 186.314309 185.74058 
L 184.206573 185.74058 
z
" style="fill:#800080;opacity:0.4;"/>
   </g>
   <g id="patch_110">
    <path clip-path="url(#p7f207cf71e)" d="M 186.314309 197.8 
L 188.422045 197.8 
L 188.422045 191.692654 
L 186.314309 191.692654 
z
" style="fill:#800080;opacity:0.4;"/>
   </g>
   <g id="patch_111">
    <path clip-path="url(#p7f207cf71e)" d="M 188.422045 197.8 
L 190.529781 197.8 
L 190.529781 189.415339 
L 188.422045 189.415339 
z
" style="fill:#800080;opacity:0.4;"/>
   </g>
   <g id="patch_112">
    <path clip-path="url(#p7f207cf71e)" d="M 190.529781 197.8 
L 192.637516 197.8 
L 192.637516 185.481795 
L 190.529781 185.481795 
z
" style="fill:#800080;opacity:0.4;"/>
   </g>
   <g id="patch_113">
    <path clip-path="url(#p7f207cf71e)" d="M 192.637516 197.8 
L 194.745252 197.8 
L 194.745252 187.086267 
L 192.637516 187.086267 
z
" style="fill:#800080;opacity:0.4;"/>
   </g>
   <g id="patch_114">
    <path clip-path="url(#p7f207cf71e)" d="M 194.745252 197.8 
L 196.852988 197.8 
L 196.852988 182.117579 
L 194.745252 182.117579 
z
" style="fill:#800080;opacity:0.4;"/>
   </g>
   <g id="patch_115">
    <path clip-path="url(#p7f207cf71e)" d="M 196.852988 197.8 
L 198.960723 197.8 
L 198.960723 174.095218 
L 196.852988 174.095218 
z
" style="fill:#800080;opacity:0.4;"/>
   </g>
   <g id="patch_116">
    <path clip-path="url(#p7f207cf71e)" d="M 198.960723 197.8 
L 201.068459 197.8 
L 201.068459 171.610874 
L 198.960723 171.610874 
z
" style="fill:#800080;opacity:0.4;"/>
   </g>
   <g id="patch_117">
    <path clip-path="url(#p7f207cf71e)" d="M 201.068459 197.8 
L 203.176195 197.8 
L 203.176195 177.562948 
L 201.068459 177.562948 
z
" style="fill:#800080;opacity:0.4;"/>
   </g>
   <g id="patch_118">
    <path clip-path="url(#p7f207cf71e)" d="M 203.176195 197.8 
L 205.28393 197.8 
L 205.28393 177.304162 
L 203.176195 177.304162 
z
" style="fill:#800080;opacity:0.4;"/>
   </g>
   <g id="patch_119">
    <path clip-path="url(#p7f207cf71e)" d="M 205.28393 197.8 
L 207.391666 197.8 
L 207.391666 186.465181 
L 205.28393 186.465181 
z
" style="fill:#800080;opacity:0.4;"/>
   </g>
   <g id="patch_120">
    <path clip-path="url(#p7f207cf71e)" d="M 207.391666 197.8 
L 209.499402 197.8 
L 209.499402 189.467096 
L 207.391666 189.467096 
z
" style="fill:#800080;opacity:0.4;"/>
   </g>
   <g id="patch_121">
    <path clip-path="url(#p7f207cf71e)" d="M 209.499402 197.8 
L 211.607138 197.8 
L 211.607138 190.295211 
L 209.499402 190.295211 
z
" style="fill:#800080;opacity:0.4;"/>
   </g>
   <g id="patch_122">
    <path clip-path="url(#p7f207cf71e)" d="M 211.607138 197.8 
L 213.714873 197.8 
L 213.714873 186.516938 
L 211.607138 186.516938 
z
" style="fill:#800080;opacity:0.4;"/>
   </g>
   <g id="matplotlib.axis_7">
    <g id="xtick_10">
     <g id="line2d_22">
      <g>
       <use style="stroke:#000000;stroke-width:0.8;" x="147.943959" xlink:href="#m0c621905c9" y="197.8"/>
      </g>
     </g>
     <g id="text_13">
      <!-- 2.5 -->
      <g transform="translate(139.992397 212.398438)scale(0.1 -0.1)">
       <use xlink:href="#DejaVuSans-50"/>
       <use x="63.623047" xlink:href="#DejaVuSans-46"/>
       <use x="95.410156" xlink:href="#DejaVuSans-53"/>
      </g>
     </g>
    </g>
    <g id="xtick_11">
     <g id="line2d_23">
      <g>
       <use style="stroke:#000000;stroke-width:0.8;" x="184.484948" xlink:href="#m0c621905c9" y="197.8"/>
      </g>
     </g>
     <g id="text_14">
      <!-- 5.0 -->
      <g transform="translate(176.533385 212.398438)scale(0.1 -0.1)">
       <use xlink:href="#DejaVuSans-53"/>
       <use x="63.623047" xlink:href="#DejaVuSans-46"/>
       <use x="95.410156" xlink:href="#DejaVuSans-48"/>
      </g>
     </g>
    </g>
    <g id="xtick_12">
     <g id="line2d_24">
      <g>
       <use style="stroke:#000000;stroke-width:0.8;" x="221.025937" xlink:href="#m0c621905c9" y="197.8"/>
      </g>
     </g>
     <g id="text_15">
      <!-- 7.5 -->
      <g transform="translate(213.074374 212.398438)scale(0.1 -0.1)">
       <use xlink:href="#DejaVuSans-55"/>
       <use x="63.623047" xlink:href="#DejaVuSans-46"/>
       <use x="95.410156" xlink:href="#DejaVuSans-53"/>
      </g>
     </g>
    </g>
    <g id="text_16">
     <!-- Velocity (km/s) -->
     <g transform="translate(145.459102 226.076563)scale(0.1 -0.1)">
      <use xlink:href="#DejaVuSans-86"/>
      <use x="60.658203" xlink:href="#DejaVuSans-101"/>
      <use x="122.181641" xlink:href="#DejaVuSans-108"/>
      <use x="149.964844" xlink:href="#DejaVuSans-111"/>
      <use x="211.146484" xlink:href="#DejaVuSans-99"/>
      <use x="266.126953" xlink:href="#DejaVuSans-105"/>
      <use x="293.910156" xlink:href="#DejaVuSans-116"/>
      <use x="333.119141" xlink:href="#DejaVuSans-121"/>
      <use x="392.298828" xlink:href="#DejaVuSans-32"/>
      <use x="424.085938" xlink:href="#DejaVuSans-40"/>
      <use x="463.099609" xlink:href="#DejaVuSans-107"/>
      <use x="521.009766" xlink:href="#DejaVuSans-109"/>
      <use x="618.421875" xlink:href="#DejaVuSans-47"/>
      <use x="652.113281" xlink:href="#DejaVuSans-115"/>
      <use x="704.212891" xlink:href="#DejaVuSans-41"/>
     </g>
    </g>
   </g>
   <g id="matplotlib.axis_8">
    <g id="ytick_10">
     <g id="line2d_25">
      <g>
       <use style="stroke:#000000;stroke-width:0.8;" x="140.765" xlink:href="#m1cac4115b9" y="197.8"/>
      </g>
     </g>
    </g>
    <g id="ytick_11">
     <g id="line2d_26">
      <g>
       <use style="stroke:#000000;stroke-width:0.8;" x="140.765" xlink:href="#m1cac4115b9" y="157.250448"/>
      </g>
     </g>
    </g>
    <g id="ytick_12">
     <g id="line2d_27">
      <g>
       <use style="stroke:#000000;stroke-width:0.8;" x="140.765" xlink:href="#m1cac4115b9" y="116.700897"/>
      </g>
     </g>
    </g>
   </g>
   <g id="line2d_28">
    <path clip-path="url(#p7f207cf71e)" d="M 165.784278 197.795966 
L 166.326768 197.790289 
L 166.869257 197.77829 
L 167.411747 197.754871 
L 167.954237 197.712619 
L 168.496726 197.642008 
L 169.039216 197.532307 
L 169.581706 197.372904 
L 170.124195 197.154267 
L 170.666685 196.867612 
L 171.209175 196.503172 
L 171.751664 196.048493 
L 172.294154 195.489461 
L 172.836644 194.816153 
L 173.379133 194.032474 
L 173.921623 193.164269 
L 174.464113 192.258532 
L 175.006602 191.369105 
L 175.549092 190.531613 
L 176.091582 189.73809 
L 176.634071 188.92472 
L 177.176561 187.981781 
L 177.719051 186.785401 
L 178.26154 185.24129 
L 178.80403 183.325553 
L 179.34652 181.108749 
L 179.889009 178.755148 
L 180.431499 176.497099 
L 180.973989 174.591728 
L 181.516478 173.27171 
L 182.058968 172.702297 
L 182.601458 172.953559 
L 183.143947 173.991756 
L 183.686437 175.689081 
L 184.228927 177.84797 
L 184.771416 180.234518 
L 185.313906 182.614646 
L 185.856395 184.786364 
L 186.398885 186.602409 
L 186.941375 187.980077 
L 187.483864 188.898484 
L 188.026354 189.386605 
L 188.568844 189.50688 
L 189.111333 189.338921 
L 189.653823 188.966263 
L 190.196313 188.467039 
L 190.738802 187.907587 
L 191.281292 187.337162 
L 191.823782 186.782691 
L 192.366271 186.244548 
L 192.908761 185.696232 
L 193.451251 185.090741 
L 193.99374 184.373974 
L 194.53623 183.501939 
L 195.07872 182.456299 
L 195.621209 181.253216 
L 196.163699 179.943153 
L 196.706189 178.602607 
L 197.248678 177.321174 
L 197.791168 176.187847 
L 198.333658 175.279315 
L 198.876147 174.651055 
L 199.418637 174.330823 
L 199.961127 174.314757 
L 200.503616 174.568049 
L 201.046106 175.032873 
L 201.588596 175.644095 
L 202.131085 176.348725 
L 202.673575 177.12114 
L 203.216065 177.966393 
L 203.758554 178.909108 
L 204.301044 179.972833 
L 204.843534 181.159699 
L 205.386023 182.439781 
L 205.928513 183.754251 
L 206.471002 185.02963 
L 207.013492 186.196032 
L 207.555982 187.202041 
L 208.098471 188.021887 
L 208.640961 188.654797 
L 209.183451 189.119523 
L 209.72594 189.448192 
L 210.26843 189.682584 
L 210.81092 189.873325 
L 211.353409 190.079561 
L 211.895899 190.36507 
L 212.438389 190.787992 
L 212.980878 191.385415 
L 213.523368 192.158726 
L 214.065858 193.067609 
L 214.608347 194.037662 
L 215.150837 194.980077 
L 215.693327 195.815601 
L 216.235816 196.493108 
L 216.778306 196.996494 
L 217.320796 197.339703 
L 217.863285 197.55468 
L 218.405775 197.678504 
L 218.948265 197.744138 
L 219.490754 197.776173 
" style="fill:none;stroke:#800080;stroke-linecap:square;stroke-width:1.5;"/>
   </g>
   <g id="patch_123">
    <path d="M 140.765 197.8 
L 140.765 114.663523 
" style="fill:none;stroke:#000000;stroke-linecap:square;stroke-linejoin:miter;stroke-width:0.8;"/>
   </g>
   <g id="patch_124">
    <path d="M 224.475079 197.8 
L 224.475079 114.663523 
" style="fill:none;stroke:#000000;stroke-linecap:square;stroke-linejoin:miter;stroke-width:0.8;"/>
   </g>
   <g id="patch_125">
    <path d="M 140.765 197.8 
L 224.475079 197.8 
" style="fill:none;stroke:#000000;stroke-linecap:square;stroke-linejoin:miter;stroke-width:0.8;"/>
   </g>
   <g id="patch_126">
    <path d="M 140.765 114.663523 
L 224.475079 114.663523 
" style="fill:none;stroke:#000000;stroke-linecap:square;stroke-linejoin:miter;stroke-width:0.8;"/>
   </g>
  </g>
 </g>
 <defs>
  <clipPath id="pa37eb77e56">
   <rect height="83.136477" width="83.710079" x="38.27" y="12.703523"/>
  </clipPath>
  <clipPath id="p88ca049c71">
   <rect height="83.136477" width="83.710079" x="140.765" y="12.703523"/>
  </clipPath>
  <clipPath id="pc34acaee4b">
   <rect height="83.136477" width="83.710079" x="38.27" y="114.663523"/>
  </clipPath>
  <clipPath id="p7f207cf71e">
   <rect height="83.136477" width="83.710079" x="140.765" y="114.663523"/>
  </clipPath>
 </defs>
</svg>
