<?xml version="1.0" encoding="utf-8" standalone="no"?>
<!DOCTYPE svg PUBLIC "-//W3C//DTD SVG 1.1//EN"
  "http://www.w3.org/Graphics/SVG/1.1/DTD/svg11.dtd">
<!-- Created with matplotlib (https://matplotlib.org/) -->
<svg height="345.6pt" version="1.1" viewBox="0 0 460.8 345.6" width="460.8pt" xmlns="http://www.w3.org/2000/svg" xmlns:xlink="http://www.w3.org/1999/xlink">
 <defs>
  <style type="text/css">
*{stroke-linecap:butt;stroke-linejoin:round;}
  </style>
 </defs>
 <g id="figure_1">
  <g id="patch_1">
   <path d="M 0 345.6 
L 460.8 345.6 
L 460.8 0 
L 0 0 
z
" style="fill:none;"/>
  </g>
  <g id="axes_1">
   <g id="patch_2">
    <path d="M 57.6 87.353379 
L 414.72 87.353379 
L 414.72 41.472 
L 57.6 41.472 
z
" style="fill:none;"/>
   </g>
   <g id="patch_3">
    <path clip-path="url(#p0a2598ac09)" d="M 93.808465 87.353379 
L 99.561518 87.353379 
L 99.561518 85.920705 
L 93.808465 85.920705 
z
" style="fill:#1f77b4;opacity:0.4;"/>
   </g>
   <g id="patch_4">
    <path clip-path="url(#p0a2598ac09)" d="M 99.561518 87.353379 
L 105.314571 87.353379 
L 105.314571 83.055358 
L 99.561518 83.055358 
z
" style="fill:#1f77b4;opacity:0.4;"/>
   </g>
   <g id="patch_5">
    <path clip-path="url(#p0a2598ac09)" d="M 105.314571 87.353379 
L 111.067625 87.353379 
L 111.067625 73.742978 
L 105.314571 73.742978 
z
" style="fill:#1f77b4;opacity:0.4;"/>
   </g>
   <g id="patch_6">
    <path clip-path="url(#p0a2598ac09)" d="M 111.067625 87.353379 
L 116.820678 87.353379 
L 116.820678 74.936873 
L 111.067625 74.936873 
z
" style="fill:#1f77b4;opacity:0.4;"/>
   </g>
   <g id="patch_7">
    <path clip-path="url(#p0a2598ac09)" d="M 116.820678 87.353379 
L 122.573731 87.353379 
L 122.573731 81.622684 
L 116.820678 81.622684 
z
" style="fill:#1f77b4;opacity:0.4;"/>
   </g>
   <g id="patch_8">
    <path clip-path="url(#p0a2598ac09)" d="M 122.573731 87.353379 
L 128.326784 87.353379 
L 128.326784 82.5778 
L 122.573731 82.5778 
z
" style="fill:#1f77b4;opacity:0.4;"/>
   </g>
   <g id="patch_9">
    <path clip-path="url(#p0a2598ac09)" d="M 128.326784 87.353379 
L 134.079838 87.353379 
L 134.079838 71.593967 
L 128.326784 71.593967 
z
" style="fill:#1f77b4;opacity:0.4;"/>
   </g>
   <g id="patch_10">
    <path clip-path="url(#p0a2598ac09)" d="M 134.079838 87.353379 
L 139.832891 87.353379 
L 139.832891 72.071525 
L 134.079838 72.071525 
z
" style="fill:#1f77b4;opacity:0.4;"/>
   </g>
   <g id="patch_11">
    <path clip-path="url(#p0a2598ac09)" d="M 139.832891 87.353379 
L 145.585944 87.353379 
L 145.585944 53.207986 
L 139.832891 53.207986 
z
" style="fill:#1f77b4;opacity:0.4;"/>
   </g>
   <g id="patch_12">
    <path clip-path="url(#p0a2598ac09)" d="M 145.585944 87.353379 
L 151.338997 87.353379 
L 151.338997 62.759145 
L 145.585944 62.759145 
z
" style="fill:#1f77b4;opacity:0.4;"/>
   </g>
   <g id="patch_13">
    <path clip-path="url(#p0a2598ac09)" d="M 151.338997 87.353379 
L 157.092051 87.353379 
L 157.092051 58.938682 
L 151.338997 58.938682 
z
" style="fill:#1f77b4;opacity:0.4;"/>
   </g>
   <g id="patch_14">
    <path clip-path="url(#p0a2598ac09)" d="M 157.092051 87.353379 
L 162.845104 87.353379 
L 162.845104 64.430598 
L 157.092051 64.430598 
z
" style="fill:#1f77b4;opacity:0.4;"/>
   </g>
   <g id="patch_15">
    <path clip-path="url(#p0a2598ac09)" d="M 162.845104 87.353379 
L 168.598157 87.353379 
L 168.598157 63.236703 
L 162.845104 63.236703 
z
" style="fill:#1f77b4;opacity:0.4;"/>
   </g>
   <g id="patch_16">
    <path clip-path="url(#p0a2598ac09)" d="M 168.598157 87.353379 
L 174.35121 87.353379 
L 174.35121 53.207986 
L 168.598157 53.207986 
z
" style="fill:#1f77b4;opacity:0.4;"/>
   </g>
   <g id="patch_17">
    <path clip-path="url(#p0a2598ac09)" d="M 174.35121 87.353379 
L 180.104264 87.353379 
L 180.104264 43.656828 
L 174.35121 43.656828 
z
" style="fill:#1f77b4;opacity:0.4;"/>
   </g>
   <g id="patch_18">
    <path clip-path="url(#p0a2598ac09)" d="M 180.104264 87.353379 
L 185.857317 87.353379 
L 185.857317 66.818388 
L 180.104264 66.818388 
z
" style="fill:#1f77b4;opacity:0.4;"/>
   </g>
   <g id="patch_19">
    <path clip-path="url(#p0a2598ac09)" d="M 185.857317 87.353379 
L 191.61037 87.353379 
L 191.61037 77.563441 
L 185.857317 77.563441 
z
" style="fill:#1f77b4;opacity:0.4;"/>
   </g>
   <g id="patch_20">
    <path clip-path="url(#p0a2598ac09)" d="M 191.61037 87.353379 
L 197.363423 87.353379 
L 197.363423 83.055358 
L 191.61037 83.055358 
z
" style="fill:#1f77b4;opacity:0.4;"/>
   </g>
   <g id="matplotlib.axis_1">
    <g id="xtick_1">
     <g id="line2d_1">
      <defs>
       <path d="M 0 0 
L 0 3.5 
" id="mff74698ea5" style="stroke:#000000;stroke-width:0.8;"/>
      </defs>
      <g>
       <use style="stroke:#000000;stroke-width:0.8;" x="91.69345" xlink:href="#mff74698ea5" y="87.353379"/>
      </g>
     </g>
    </g>
    <g id="xtick_2">
     <g id="line2d_2">
      <g>
       <use style="stroke:#000000;stroke-width:0.8;" x="133.84164" xlink:href="#mff74698ea5" y="87.353379"/>
      </g>
     </g>
    </g>
    <g id="xtick_3">
     <g id="line2d_3">
      <g>
       <use style="stroke:#000000;stroke-width:0.8;" x="175.989831" xlink:href="#mff74698ea5" y="87.353379"/>
      </g>
     </g>
    </g>
    <g id="xtick_4">
     <g id="line2d_4">
      <g>
       <use style="stroke:#000000;stroke-width:0.8;" x="218.138021" xlink:href="#mff74698ea5" y="87.353379"/>
      </g>
     </g>
    </g>
    <g id="xtick_5">
     <g id="line2d_5">
      <g>
       <use style="stroke:#000000;stroke-width:0.8;" x="260.286211" xlink:href="#mff74698ea5" y="87.353379"/>
      </g>
     </g>
    </g>
    <g id="xtick_6">
     <g id="line2d_6">
      <g>
       <use style="stroke:#000000;stroke-width:0.8;" x="302.434401" xlink:href="#mff74698ea5" y="87.353379"/>
      </g>
     </g>
    </g>
    <g id="xtick_7">
     <g id="line2d_7">
      <g>
       <use style="stroke:#000000;stroke-width:0.8;" x="344.582591" xlink:href="#mff74698ea5" y="87.353379"/>
      </g>
     </g>
    </g>
    <g id="xtick_8">
     <g id="line2d_8">
      <g>
       <use style="stroke:#000000;stroke-width:0.8;" x="386.730781" xlink:href="#mff74698ea5" y="87.353379"/>
      </g>
     </g>
    </g>
   </g>
   <g id="matplotlib.axis_2">
    <g id="ytick_1">
     <g id="line2d_9">
      <defs>
       <path d="M 0 0 
L -3.5 0 
" id="m16afe257d1" style="stroke:#000000;stroke-width:0.8;"/>
      </defs>
      <g>
       <use style="stroke:#000000;stroke-width:0.8;" x="57.6" xlink:href="#m16afe257d1" y="87.353379"/>
      </g>
     </g>
     <g id="text_1">
      <!-- 0 -->
      <defs>
       <path d="M 31.78125 66.40625 
Q 24.171875 66.40625 20.328125 58.90625 
Q 16.5 51.421875 16.5 36.375 
Q 16.5 21.390625 20.328125 13.890625 
Q 24.171875 6.390625 31.78125 6.390625 
Q 39.453125 6.390625 43.28125 13.890625 
Q 47.125 21.390625 47.125 36.375 
Q 47.125 51.421875 43.28125 58.90625 
Q 39.453125 66.40625 31.78125 66.40625 
z
M 31.78125 74.21875 
Q 44.046875 74.21875 50.515625 64.515625 
Q 56.984375 54.828125 56.984375 36.375 
Q 56.984375 17.96875 50.515625 8.265625 
Q 44.046875 -1.421875 31.78125 -1.421875 
Q 19.53125 -1.421875 13.0625 8.265625 
Q 6.59375 17.96875 6.59375 36.375 
Q 6.59375 54.828125 13.0625 64.515625 
Q 19.53125 74.21875 31.78125 74.21875 
z
" id="DejaVuSans-48"/>
      </defs>
      <g transform="translate(44.2375 91.152598)scale(0.1 -0.1)">
       <use xlink:href="#DejaVuSans-48"/>
      </g>
     </g>
    </g>
    <g id="ytick_2">
     <g id="line2d_10">
      <g>
       <use style="stroke:#000000;stroke-width:0.8;" x="57.6" xlink:href="#m16afe257d1" y="43.679644"/>
      </g>
     </g>
     <g id="text_2">
      <!-- 2 -->
      <defs>
       <path d="M 19.1875 8.296875 
L 53.609375 8.296875 
L 53.609375 0 
L 7.328125 0 
L 7.328125 8.296875 
Q 12.9375 14.109375 22.625 23.890625 
Q 32.328125 33.6875 34.8125 36.53125 
Q 39.546875 41.84375 41.421875 45.53125 
Q 43.3125 49.21875 43.3125 52.78125 
Q 43.3125 58.59375 39.234375 62.25 
Q 35.15625 65.921875 28.609375 65.921875 
Q 23.96875 65.921875 18.8125 64.3125 
Q 13.671875 62.703125 7.8125 59.421875 
L 7.8125 69.390625 
Q 13.765625 71.78125 18.9375 73 
Q 24.125 74.21875 28.421875 74.21875 
Q 39.75 74.21875 46.484375 68.546875 
Q 53.21875 62.890625 53.21875 53.421875 
Q 53.21875 48.921875 51.53125 44.890625 
Q 49.859375 40.875 45.40625 35.40625 
Q 44.1875 33.984375 37.640625 27.21875 
Q 31.109375 20.453125 19.1875 8.296875 
z
" id="DejaVuSans-50"/>
      </defs>
      <g transform="translate(44.2375 47.478863)scale(0.1 -0.1)">
       <use xlink:href="#DejaVuSans-50"/>
      </g>
     </g>
    </g>
   </g>
   <g id="line2d_11">
    <path clip-path="url(#p0a2598ac09)" d="M 77.509784 87.350819 
L 78.88506 87.34783 
L 80.260336 87.341988 
L 81.635612 87.331182 
L 83.010888 87.31222 
L 84.386164 87.280567 
L 85.76144 87.230128 
L 87.136716 87.153125 
L 88.511992 87.040044 
L 89.887268 86.879652 
L 91.262544 86.659038 
L 92.63782 86.36372 
L 94.013096 85.977949 
L 95.388372 85.485568 
L 96.763648 84.871896 
L 98.138924 84.127064 
L 99.514199 83.250774 
L 100.889475 82.257641 
L 102.264751 81.181367 
L 103.640027 80.075636 
L 105.015303 79.010176 
L 106.390579 78.061985 
L 107.765855 77.303499 
L 109.141131 76.790704 
L 110.516407 76.554097 
L 111.891683 76.594263 
L 113.266959 76.882221 
L 114.642235 77.36352 
L 116.017511 77.964634 
L 117.392787 78.600434 
L 118.768063 79.182123 
L 120.143339 79.62541 
L 121.518615 79.858847 
L 122.893891 79.831839 
L 124.269167 79.521098 
L 125.644443 78.933533 
L 127.019719 78.103512 
L 128.394995 77.08348 
L 129.770271 75.929167 
L 131.145547 74.683312 
L 132.520823 73.36367 
L 133.896098 71.960885 
L 135.271374 70.449113 
L 136.64665 68.80755 
L 138.021926 67.045834 
L 139.397202 65.222908 
L 140.772478 63.449291 
L 142.147754 61.867936 
L 143.52303 60.617501 
L 144.898306 59.790597 
L 146.273582 59.40374 
L 147.648858 59.392409 
L 149.024134 59.634344 
L 150.39941 59.99163 
L 151.774686 60.353636 
L 153.149962 60.662983 
L 154.525238 60.915415 
L 155.900514 61.136991 
L 157.27579 61.351782 
L 158.651066 61.55557 
L 160.026342 61.705822 
L 161.401618 61.72934 
L 162.776894 61.54177 
L 164.15217 61.070788 
L 165.527446 60.276742 
L 166.902722 59.168031 
L 168.277997 57.810391 
L 169.653273 56.328829 
L 171.028549 54.899523 
L 172.403825 53.729209 
L 173.779101 53.022674 
L 175.154377 52.944192 
L 176.529653 53.58333 
L 177.904929 54.936381 
L 179.280205 56.910329 
L 180.655481 59.348189 
L 182.030757 62.066562 
L 183.406033 64.892398 
L 184.781309 67.68794 
L 186.156585 70.359357 
L 187.531861 72.851662 
L 188.907137 75.136845 
L 190.282413 77.202202 
L 191.657689 79.042857 
L 193.032965 80.658825 
L 194.408241 82.054741 
L 195.783517 83.24004 
L 197.158793 84.228412 
L 198.534069 85.036539 
L 199.909345 85.682759 
L 201.284621 86.186207 
L 202.659897 86.566469 
L 204.035172 86.843436 
L 205.410448 87.036932 
L 206.785724 87.165964 
L 208.161 87.247756 
L 209.536276 87.296874 
L 210.911552 87.324744 
L 212.286828 87.339656 
L 213.662104 87.347168 
" style="fill:none;stroke:#1f77b4;stroke-linecap:square;stroke-width:1.5;"/>
   </g>
   <g id="patch_21">
    <path d="M 57.6 87.353379 
L 57.6 41.472 
" style="fill:none;stroke:#000000;stroke-linecap:square;stroke-linejoin:miter;stroke-width:0.8;"/>
   </g>
   <g id="patch_22">
    <path d="M 414.72 87.353379 
L 414.72 41.472 
" style="fill:none;stroke:#000000;stroke-linecap:square;stroke-linejoin:miter;stroke-width:0.8;"/>
   </g>
   <g id="patch_23">
    <path d="M 57.6 87.353379 
L 414.72 87.353379 
" style="fill:none;stroke:#000000;stroke-linecap:square;stroke-linejoin:miter;stroke-width:0.8;"/>
   </g>
   <g id="patch_24">
    <path d="M 57.6 41.472 
L 414.72 41.472 
" style="fill:none;stroke:#000000;stroke-linecap:square;stroke-linejoin:miter;stroke-width:0.8;"/>
   </g>
  </g>
  <g id="axes_2">
   <g id="patch_25">
    <path d="M 57.6 142.411034 
L 414.72 142.411034 
L 414.72 96.529655 
L 57.6 96.529655 
z
" style="fill:none;"/>
   </g>
   <g id="patch_26">
    <path clip-path="url(#p7f919b59c0)" d="M 185.402083 142.411034 
L 203.088789 142.411034 
L 203.088789 129.741538 
L 185.402083 129.741538 
z
" style="fill:#1f77b4;opacity:0.4;"/>
   </g>
   <g id="patch_27">
    <path clip-path="url(#p7f919b59c0)" d="M 203.088789 142.411034 
L 220.775494 142.411034 
L 220.775494 129.974719 
L 203.088789 129.974719 
z
" style="fill:#1f77b4;opacity:0.4;"/>
   </g>
   <g id="patch_28">
    <path clip-path="url(#p7f919b59c0)" d="M 220.775494 142.411034 
L 238.462199 142.411034 
L 238.462199 126.787913 
L 220.775494 126.787913 
z
" style="fill:#1f77b4;opacity:0.4;"/>
   </g>
   <g id="patch_29">
    <path clip-path="url(#p7f919b59c0)" d="M 238.462199 142.411034 
L 256.148904 142.411034 
L 256.148904 137.281054 
L 238.462199 137.281054 
z
" style="fill:#1f77b4;opacity:0.4;"/>
   </g>
   <g id="patch_30">
    <path clip-path="url(#p7f919b59c0)" d="M 256.148904 142.411034 
L 273.835609 142.411034 
L 273.835609 139.846044 
L 256.148904 139.846044 
z
" style="fill:#1f77b4;opacity:0.4;"/>
   </g>
   <g id="patch_31">
    <path clip-path="url(#p7f919b59c0)" d="M 273.835609 142.411034 
L 291.522315 142.411034 
L 291.522315 139.612863 
L 273.835609 139.612863 
z
" style="fill:#1f77b4;opacity:0.4;"/>
   </g>
   <g id="patch_32">
    <path clip-path="url(#p7f919b59c0)" d="M 291.522315 142.411034 
L 309.20902 142.411034 
L 309.20902 133.316979 
L 291.522315 133.316979 
z
" style="fill:#1f77b4;opacity:0.4;"/>
   </g>
   <g id="patch_33">
    <path clip-path="url(#p7f919b59c0)" d="M 309.20902 142.411034 
L 326.895725 142.411034 
L 326.895725 128.031544 
L 309.20902 128.031544 
z
" style="fill:#1f77b4;opacity:0.4;"/>
   </g>
   <g id="patch_34">
    <path clip-path="url(#p7f919b59c0)" d="M 326.895725 142.411034 
L 344.58243 142.411034 
L 344.58243 113.030239 
L 326.895725 113.030239 
z
" style="fill:#1f77b4;opacity:0.4;"/>
   </g>
   <g id="matplotlib.axis_3">
    <g id="xtick_9">
     <g id="line2d_12">
      <g>
       <use style="stroke:#000000;stroke-width:0.8;" x="91.69345" xlink:href="#mff74698ea5" y="142.411034"/>
      </g>
     </g>
    </g>
    <g id="xtick_10">
     <g id="line2d_13">
      <g>
       <use style="stroke:#000000;stroke-width:0.8;" x="133.84164" xlink:href="#mff74698ea5" y="142.411034"/>
      </g>
     </g>
    </g>
    <g id="xtick_11">
     <g id="line2d_14">
      <g>
       <use style="stroke:#000000;stroke-width:0.8;" x="175.989831" xlink:href="#mff74698ea5" y="142.411034"/>
      </g>
     </g>
    </g>
    <g id="xtick_12">
     <g id="line2d_15">
      <g>
       <use style="stroke:#000000;stroke-width:0.8;" x="218.138021" xlink:href="#mff74698ea5" y="142.411034"/>
      </g>
     </g>
    </g>
    <g id="xtick_13">
     <g id="line2d_16">
      <g>
       <use style="stroke:#000000;stroke-width:0.8;" x="260.286211" xlink:href="#mff74698ea5" y="142.411034"/>
      </g>
     </g>
    </g>
    <g id="xtick_14">
     <g id="line2d_17">
      <g>
       <use style="stroke:#000000;stroke-width:0.8;" x="302.434401" xlink:href="#mff74698ea5" y="142.411034"/>
      </g>
     </g>
    </g>
    <g id="xtick_15">
     <g id="line2d_18">
      <g>
       <use style="stroke:#000000;stroke-width:0.8;" x="344.582591" xlink:href="#mff74698ea5" y="142.411034"/>
      </g>
     </g>
    </g>
    <g id="xtick_16">
     <g id="line2d_19">
      <g>
       <use style="stroke:#000000;stroke-width:0.8;" x="386.730781" xlink:href="#mff74698ea5" y="142.411034"/>
      </g>
     </g>
    </g>
   </g>
   <g id="matplotlib.axis_4">
    <g id="ytick_3">
     <g id="line2d_20">
      <g>
       <use style="stroke:#000000;stroke-width:0.8;" x="57.6" xlink:href="#m16afe257d1" y="142.411034"/>
      </g>
     </g>
     <g id="text_3">
      <!-- 0 -->
      <g transform="translate(44.2375 146.210253)scale(0.1 -0.1)">
       <use xlink:href="#DejaVuSans-48"/>
      </g>
     </g>
    </g>
    <g id="ytick_4">
     <g id="line2d_21">
      <g>
       <use style="stroke:#000000;stroke-width:0.8;" x="57.6" xlink:href="#m16afe257d1" y="98.737299"/>
      </g>
     </g>
     <g id="text_4">
      <!-- 2 -->
      <g transform="translate(44.2375 102.536518)scale(0.1 -0.1)">
       <use xlink:href="#DejaVuSans-50"/>
      </g>
     </g>
    </g>
   </g>
   <g id="line2d_22">
    <path clip-path="url(#p7f919b59c0)" d="M 145.554156 142.394175 
L 147.967047 142.380462 
L 150.379938 142.35731 
L 152.792829 142.319536 
L 155.20572 142.259993 
L 157.618611 142.169336 
L 160.031502 142.036052 
L 162.444393 141.846899 
L 164.857283 141.58787 
L 167.270174 141.245732 
L 169.683065 140.810043 
L 172.095956 140.275404 
L 174.508847 139.643514 
L 176.921738 138.924523 
L 179.334629 138.137164 
L 181.74752 137.307339 
L 184.160411 136.46512 
L 186.573302 135.640554 
L 188.986193 134.85902 
L 191.399084 134.137162 
L 193.811975 133.480405 
L 196.224865 132.882804 
L 198.637756 132.329469 
L 201.050647 131.80116 
L 203.463538 131.280119 
L 205.876429 130.755811 
L 208.28932 130.229247 
L 210.702211 129.714859 
L 213.115102 129.239481 
L 215.527993 128.838628 
L 217.940884 128.550906 
L 220.353775 128.411714 
L 222.766666 128.447515 
L 225.179557 128.671714 
L 227.592447 129.082782 
L 230.005338 129.664729 
L 232.418229 130.389595 
L 234.83112 131.221275 
L 237.244011 132.119881 
L 239.656902 133.045874 
L 242.069793 133.963404 
L 244.482684 134.842534 
L 246.895575 135.660306 
L 249.308466 136.400786 
L 251.721357 137.054356 
L 254.134248 137.616567 
L 256.547139 138.08682 
L 258.960029 138.467065 
L 261.37292 138.760654 
L 263.785811 138.97138 
L 266.198702 139.102746 
L 268.611593 139.157453 
L 271.024484 139.137135 
L 273.437375 139.042372 
L 275.850266 138.872983 
L 278.263157 138.628579 
L 280.676048 138.3093 
L 283.088939 137.916608 
L 285.50183 137.453965 
L 287.914721 136.927225 
L 290.327611 136.344626 
L 292.740502 135.716317 
L 295.153393 135.053486 
L 297.566284 134.367216 
L 299.979175 133.667279 
L 302.392066 132.961099 
L 304.804957 132.253091 
L 307.217848 131.544528 
L 309.630739 130.834052 
L 312.04363 130.118826 
L 314.456521 129.396291 
L 316.869412 128.666398 
L 319.282303 127.934083 
L 321.695193 127.211675 
L 324.108084 126.52078 
L 326.520975 125.893121 
L 328.933866 125.369827 
L 331.346757 124.998789 
L 333.759648 124.830024 
L 336.172539 124.909411 
L 338.58543 125.271653 
L 340.998321 125.933684 
L 343.411212 126.889895 
L 345.824103 128.110321 
L 348.236994 129.542431 
L 350.649884 131.116425 
L 353.062775 132.753139 
L 355.475666 134.373153 
L 357.888557 135.905429 
L 360.301448 137.294049 
L 362.714339 138.502074 
L 365.12723 139.512297 
L 367.540121 140.325245 
L 369.953012 140.95528 
L 372.365903 141.425828 
L 374.778794 141.764676 
L 377.191685 142.000046 
L 379.604576 142.157807 
L 382.017466 142.259871 
L 384.430357 142.323621 
" style="fill:none;stroke:#1f77b4;stroke-linecap:square;stroke-width:1.5;"/>
   </g>
   <g id="patch_35">
    <path d="M 57.6 142.411034 
L 57.6 96.529655 
" style="fill:none;stroke:#000000;stroke-linecap:square;stroke-linejoin:miter;stroke-width:0.8;"/>
   </g>
   <g id="patch_36">
    <path d="M 414.72 142.411034 
L 414.72 96.529655 
" style="fill:none;stroke:#000000;stroke-linecap:square;stroke-linejoin:miter;stroke-width:0.8;"/>
   </g>
   <g id="patch_37">
    <path d="M 57.6 142.411034 
L 414.72 142.411034 
" style="fill:none;stroke:#000000;stroke-linecap:square;stroke-linejoin:miter;stroke-width:0.8;"/>
   </g>
   <g id="patch_38">
    <path d="M 57.6 96.529655 
L 414.72 96.529655 
" style="fill:none;stroke:#000000;stroke-linecap:square;stroke-linejoin:miter;stroke-width:0.8;"/>
   </g>
  </g>
  <g id="axes_3">
   <g id="patch_39">
    <path d="M 57.6 197.46869 
L 414.72 197.46869 
L 414.72 151.58731 
L 57.6 151.58731 
z
" style="fill:none;"/>
   </g>
   <g id="patch_40">
    <path clip-path="url(#p5f5e4f6cff)" d="M 123.008833 197.46869 
L 132.789579 197.46869 
L 132.789579 186.610805 
L 123.008833 186.610805 
z
" style="fill:#1f77b4;opacity:0.4;"/>
   </g>
   <g id="patch_41">
    <path clip-path="url(#p5f5e4f6cff)" d="M 132.789579 197.46869 
L 142.570324 197.46869 
L 142.570324 184.680514 
L 132.789579 184.680514 
z
" style="fill:#1f77b4;opacity:0.4;"/>
   </g>
   <g id="patch_42">
    <path clip-path="url(#p5f5e4f6cff)" d="M 142.570324 197.46869 
L 152.351069 197.46869 
L 152.351069 189.988813 
L 142.570324 189.988813 
z
" style="fill:#1f77b4;opacity:0.4;"/>
   </g>
   <g id="patch_43">
    <path clip-path="url(#p5f5e4f6cff)" d="M 152.351069 197.46869 
L 162.131815 197.46869 
L 162.131815 187.334664 
L 152.351069 187.334664 
z
" style="fill:#1f77b4;opacity:0.4;"/>
   </g>
   <g id="patch_44">
    <path clip-path="url(#p5f5e4f6cff)" d="M 162.131815 197.46869 
L 171.91256 197.46869 
L 171.91256 162.723458 
L 162.131815 162.723458 
z
" style="fill:#1f77b4;opacity:0.4;"/>
   </g>
   <g id="patch_45">
    <path clip-path="url(#p5f5e4f6cff)" d="M 171.91256 197.46869 
L 181.693305 197.46869 
L 181.693305 185.163087 
L 171.91256 185.163087 
z
" style="fill:#1f77b4;opacity:0.4;"/>
   </g>
   <g id="patch_46">
    <path clip-path="url(#p5f5e4f6cff)" d="M 181.693305 197.46869 
L 191.47405 197.46869 
L 191.47405 189.747527 
L 181.693305 189.747527 
z
" style="fill:#1f77b4;opacity:0.4;"/>
   </g>
   <g id="patch_47">
    <path clip-path="url(#p5f5e4f6cff)" d="M 191.47405 197.46869 
L 201.254796 197.46869 
L 201.254796 178.165783 
L 191.47405 178.165783 
z
" style="fill:#1f77b4;opacity:0.4;"/>
   </g>
   <g id="patch_48">
    <path clip-path="url(#p5f5e4f6cff)" d="M 201.254796 197.46869 
L 211.035541 197.46869 
L 211.035541 172.374911 
L 201.254796 172.374911 
z
" style="fill:#1f77b4;opacity:0.4;"/>
   </g>
   <g id="patch_49">
    <path clip-path="url(#p5f5e4f6cff)" d="M 211.035541 197.46869 
L 220.816286 197.46869 
L 220.816286 177.200638 
L 211.035541 177.200638 
z
" style="fill:#1f77b4;opacity:0.4;"/>
   </g>
   <g id="patch_50">
    <path clip-path="url(#p5f5e4f6cff)" d="M 220.816286 197.46869 
L 230.597031 197.46869 
L 230.597031 183.232796 
L 220.816286 183.232796 
z
" style="fill:#1f77b4;opacity:0.4;"/>
   </g>
   <g id="patch_51">
    <path clip-path="url(#p5f5e4f6cff)" d="M 230.597031 197.46869 
L 240.377777 197.46869 
L 240.377777 192.16039 
L 230.597031 192.16039 
z
" style="fill:#1f77b4;opacity:0.4;"/>
   </g>
   <g id="patch_52">
    <path clip-path="url(#p5f5e4f6cff)" d="M 240.377777 197.46869 
L 250.158522 197.46869 
L 250.158522 196.020972 
L 240.377777 196.020972 
z
" style="fill:#1f77b4;opacity:0.4;"/>
   </g>
   <g id="patch_53">
    <path clip-path="url(#p5f5e4f6cff)" d="M 250.158522 197.46869 
L 259.939267 197.46869 
L 259.939267 194.573254 
L 250.158522 194.573254 
z
" style="fill:#1f77b4;opacity:0.4;"/>
   </g>
   <g id="patch_54">
    <path clip-path="url(#p5f5e4f6cff)" d="M 259.939267 197.46869 
L 269.720013 197.46869 
L 269.720013 196.503544 
L 259.939267 196.503544 
z
" style="fill:#1f77b4;opacity:0.4;"/>
   </g>
   <g id="patch_55">
    <path clip-path="url(#p5f5e4f6cff)" d="M 269.720013 197.46869 
L 279.500758 197.46869 
L 279.500758 196.262258 
L 269.720013 196.262258 
z
" style="fill:#1f77b4;opacity:0.4;"/>
   </g>
   <g id="patch_56">
    <path clip-path="url(#p5f5e4f6cff)" d="M 279.500758 197.46869 
L 289.281503 197.46869 
L 289.281503 196.986117 
L 279.500758 196.986117 
z
" style="fill:#1f77b4;opacity:0.4;"/>
   </g>
   <g id="patch_57">
    <path clip-path="url(#p5f5e4f6cff)" d="M 289.281503 197.46869 
L 299.062248 197.46869 
L 299.062248 196.986117 
L 289.281503 196.986117 
z
" style="fill:#1f77b4;opacity:0.4;"/>
   </g>
   <g id="patch_58">
    <path clip-path="url(#p5f5e4f6cff)" d="M 299.062248 197.46869 
L 308.842994 197.46869 
L 308.842994 196.986117 
L 299.062248 196.986117 
z
" style="fill:#1f77b4;opacity:0.4;"/>
   </g>
   <g id="matplotlib.axis_5">
    <g id="xtick_17">
     <g id="line2d_23">
      <g>
       <use style="stroke:#000000;stroke-width:0.8;" x="91.69345" xlink:href="#mff74698ea5" y="197.46869"/>
      </g>
     </g>
    </g>
    <g id="xtick_18">
     <g id="line2d_24">
      <g>
       <use style="stroke:#000000;stroke-width:0.8;" x="133.84164" xlink:href="#mff74698ea5" y="197.46869"/>
      </g>
     </g>
    </g>
    <g id="xtick_19">
     <g id="line2d_25">
      <g>
       <use style="stroke:#000000;stroke-width:0.8;" x="175.989831" xlink:href="#mff74698ea5" y="197.46869"/>
      </g>
     </g>
    </g>
    <g id="xtick_20">
     <g id="line2d_26">
      <g>
       <use style="stroke:#000000;stroke-width:0.8;" x="218.138021" xlink:href="#mff74698ea5" y="197.46869"/>
      </g>
     </g>
    </g>
    <g id="xtick_21">
     <g id="line2d_27">
      <g>
       <use style="stroke:#000000;stroke-width:0.8;" x="260.286211" xlink:href="#mff74698ea5" y="197.46869"/>
      </g>
     </g>
    </g>
    <g id="xtick_22">
     <g id="line2d_28">
      <g>
       <use style="stroke:#000000;stroke-width:0.8;" x="302.434401" xlink:href="#mff74698ea5" y="197.46869"/>
      </g>
     </g>
    </g>
    <g id="xtick_23">
     <g id="line2d_29">
      <g>
       <use style="stroke:#000000;stroke-width:0.8;" x="344.582591" xlink:href="#mff74698ea5" y="197.46869"/>
      </g>
     </g>
    </g>
    <g id="xtick_24">
     <g id="line2d_30">
      <g>
       <use style="stroke:#000000;stroke-width:0.8;" x="386.730781" xlink:href="#mff74698ea5" y="197.46869"/>
      </g>
     </g>
    </g>
   </g>
   <g id="matplotlib.axis_6">
    <g id="ytick_5">
     <g id="line2d_31">
      <g>
       <use style="stroke:#000000;stroke-width:0.8;" x="57.6" xlink:href="#m16afe257d1" y="197.46869"/>
      </g>
     </g>
     <g id="text_5">
      <!-- 0 -->
      <g transform="translate(44.2375 201.267908)scale(0.1 -0.1)">
       <use xlink:href="#DejaVuSans-48"/>
      </g>
     </g>
    </g>
    <g id="ytick_6">
     <g id="line2d_32">
      <g>
       <use style="stroke:#000000;stroke-width:0.8;" x="57.6" xlink:href="#m16afe257d1" y="153.794954"/>
      </g>
     </g>
     <g id="text_6">
      <!-- 2 -->
      <g transform="translate(44.2375 157.594173)scale(0.1 -0.1)">
       <use xlink:href="#DejaVuSans-50"/>
      </g>
     </g>
    </g>
    <g id="text_7">
     <!-- Density -->
     <defs>
      <path d="M 19.671875 64.796875 
L 19.671875 8.109375 
L 31.59375 8.109375 
Q 46.6875 8.109375 53.6875 14.9375 
Q 60.6875 21.78125 60.6875 36.53125 
Q 60.6875 51.171875 53.6875 57.984375 
Q 46.6875 64.796875 31.59375 64.796875 
z
M 9.8125 72.90625 
L 30.078125 72.90625 
Q 51.265625 72.90625 61.171875 64.09375 
Q 71.09375 55.28125 71.09375 36.53125 
Q 71.09375 17.671875 61.125 8.828125 
Q 51.171875 0 30.078125 0 
L 9.8125 0 
z
" id="DejaVuSans-68"/>
      <path d="M 56.203125 29.59375 
L 56.203125 25.203125 
L 14.890625 25.203125 
Q 15.484375 15.921875 20.484375 11.0625 
Q 25.484375 6.203125 34.421875 6.203125 
Q 39.59375 6.203125 44.453125 7.46875 
Q 49.3125 8.734375 54.109375 11.28125 
L 54.109375 2.78125 
Q 49.265625 0.734375 44.1875 -0.34375 
Q 39.109375 -1.421875 33.890625 -1.421875 
Q 20.796875 -1.421875 13.15625 6.1875 
Q 5.515625 13.8125 5.515625 26.8125 
Q 5.515625 40.234375 12.765625 48.109375 
Q 20.015625 56 32.328125 56 
Q 43.359375 56 49.78125 48.890625 
Q 56.203125 41.796875 56.203125 29.59375 
z
M 47.21875 32.234375 
Q 47.125 39.59375 43.09375 43.984375 
Q 39.0625 48.390625 32.421875 48.390625 
Q 24.90625 48.390625 20.390625 44.140625 
Q 15.875 39.890625 15.1875 32.171875 
z
" id="DejaVuSans-101"/>
      <path d="M 54.890625 33.015625 
L 54.890625 0 
L 45.90625 0 
L 45.90625 32.71875 
Q 45.90625 40.484375 42.875 44.328125 
Q 39.84375 48.1875 33.796875 48.1875 
Q 26.515625 48.1875 22.3125 43.546875 
Q 18.109375 38.921875 18.109375 30.90625 
L 18.109375 0 
L 9.078125 0 
L 9.078125 54.6875 
L 18.109375 54.6875 
L 18.109375 46.1875 
Q 21.34375 51.125 25.703125 53.5625 
Q 30.078125 56 35.796875 56 
Q 45.21875 56 50.046875 50.171875 
Q 54.890625 44.34375 54.890625 33.015625 
z
" id="DejaVuSans-110"/>
      <path d="M 44.28125 53.078125 
L 44.28125 44.578125 
Q 40.484375 46.53125 36.375 47.5 
Q 32.28125 48.484375 27.875 48.484375 
Q 21.1875 48.484375 17.84375 46.4375 
Q 14.5 44.390625 14.5 40.28125 
Q 14.5 37.15625 16.890625 35.375 
Q 19.28125 33.59375 26.515625 31.984375 
L 29.59375 31.296875 
Q 39.15625 29.25 43.1875 25.515625 
Q 47.21875 21.78125 47.21875 15.09375 
Q 47.21875 7.46875 41.1875 3.015625 
Q 35.15625 -1.421875 24.609375 -1.421875 
Q 20.21875 -1.421875 15.453125 -0.5625 
Q 10.6875 0.296875 5.421875 2 
L 5.421875 11.28125 
Q 10.40625 8.6875 15.234375 7.390625 
Q 20.0625 6.109375 24.8125 6.109375 
Q 31.15625 6.109375 34.5625 8.28125 
Q 37.984375 10.453125 37.984375 14.40625 
Q 37.984375 18.0625 35.515625 20.015625 
Q 33.0625 21.96875 24.703125 23.78125 
L 21.578125 24.515625 
Q 13.234375 26.265625 9.515625 29.90625 
Q 5.8125 33.546875 5.8125 39.890625 
Q 5.8125 47.609375 11.28125 51.796875 
Q 16.75 56 26.8125 56 
Q 31.78125 56 36.171875 55.265625 
Q 40.578125 54.546875 44.28125 53.078125 
z
" id="DejaVuSans-115"/>
      <path d="M 9.421875 54.6875 
L 18.40625 54.6875 
L 18.40625 0 
L 9.421875 0 
z
M 9.421875 75.984375 
L 18.40625 75.984375 
L 18.40625 64.59375 
L 9.421875 64.59375 
z
" id="DejaVuSans-105"/>
      <path d="M 18.3125 70.21875 
L 18.3125 54.6875 
L 36.8125 54.6875 
L 36.8125 47.703125 
L 18.3125 47.703125 
L 18.3125 18.015625 
Q 18.3125 11.328125 20.140625 9.421875 
Q 21.96875 7.515625 27.59375 7.515625 
L 36.8125 7.515625 
L 36.8125 0 
L 27.59375 0 
Q 17.1875 0 13.234375 3.875 
Q 9.28125 7.765625 9.28125 18.015625 
L 9.28125 47.703125 
L 2.6875 47.703125 
L 2.6875 54.6875 
L 9.28125 54.6875 
L 9.28125 70.21875 
z
" id="DejaVuSans-116"/>
      <path d="M 32.171875 -5.078125 
Q 28.375 -14.84375 24.75 -17.8125 
Q 21.140625 -20.796875 15.09375 -20.796875 
L 7.90625 -20.796875 
L 7.90625 -13.28125 
L 13.1875 -13.28125 
Q 16.890625 -13.28125 18.9375 -11.515625 
Q 21 -9.765625 23.484375 -3.21875 
L 25.09375 0.875 
L 2.984375 54.6875 
L 12.5 54.6875 
L 29.59375 11.921875 
L 46.6875 54.6875 
L 56.203125 54.6875 
z
" id="DejaVuSans-121"/>
     </defs>
     <g transform="translate(38.157812 193.536594)rotate(-90)scale(0.1 -0.1)">
      <use xlink:href="#DejaVuSans-68"/>
      <use x="77.001953" xlink:href="#DejaVuSans-101"/>
      <use x="138.525391" xlink:href="#DejaVuSans-110"/>
      <use x="201.904297" xlink:href="#DejaVuSans-115"/>
      <use x="254.003906" xlink:href="#DejaVuSans-105"/>
      <use x="281.787109" xlink:href="#DejaVuSans-116"/>
      <use x="320.996094" xlink:href="#DejaVuSans-121"/>
     </g>
    </g>
   </g>
   <g id="line2d_33">
    <path clip-path="url(#p5f5e4f6cff)" d="M 96.224697 197.455971 
L 98.642903 197.43836 
L 101.06111 197.401008 
L 103.479316 197.327235 
L 105.897523 197.191544 
L 108.315729 196.959133 
L 110.733935 196.588467 
L 113.152142 196.038137 
L 115.570348 195.277883 
L 117.988554 194.301592 
L 120.406761 193.138108 
L 122.824967 191.855046 
L 125.243174 190.552217 
L 127.66138 189.344633 
L 130.079586 188.33892 
L 132.497793 187.609739 
L 134.915999 187.18307 
L 137.334206 187.030863 
L 139.752412 187.077486 
L 142.170618 187.214395 
L 144.588825 187.317298 
L 147.007031 187.261079 
L 149.425238 186.931519 
L 151.843444 186.237176 
L 154.26165 185.126465 
L 156.679857 183.611498 
L 159.098063 181.792355 
L 161.51627 179.867651 
L 163.934476 178.115848 
L 166.352682 176.840723 
L 168.770889 176.291473 
L 171.189095 176.584136 
L 173.607302 177.65598 
L 176.025508 179.273203 
L 178.443714 181.090057 
L 180.861921 182.736411 
L 183.280127 183.90222 
L 185.698334 184.394168 
L 188.11654 184.155599 
L 190.534746 183.255486 
L 192.952953 181.858748 
L 195.371159 180.188772 
L 197.789366 178.488371 
L 200.207572 176.982569 
L 202.625778 175.847067 
L 205.043985 175.187694 
L 207.462191 175.035501 
L 209.880398 175.358289 
L 212.298604 176.083938 
L 214.71681 177.126901 
L 217.135017 178.408922 
L 219.553223 179.868512 
L 221.97143 181.459124 
L 224.389636 183.14057 
L 226.807842 184.869894 
L 229.226049 186.596381 
L 231.644255 188.262265 
L 234.062462 189.80801 
L 236.480668 191.180028 
L 238.898874 192.338829 
L 241.317081 193.265812 
L 243.735287 193.966804 
L 246.153494 194.470609 
L 248.5717 194.822013 
L 250.989906 195.070897 
L 253.408113 195.261096 
L 255.826319 195.42298 
L 258.244526 195.572067 
L 260.662732 195.713041 
L 263.080938 195.846173 
L 265.499145 195.972536 
L 267.917351 196.095783 
L 270.335558 196.220591 
L 272.753764 196.349684 
L 275.17197 196.481715 
L 277.590177 196.611331 
L 280.008383 196.731154 
L 282.426589 196.834473 
L 284.844796 196.917266 
L 287.263002 196.978914 
L 289.681209 197.021692 
L 292.099415 197.049659 
L 294.517621 197.067573 
L 296.935828 197.080165 
L 299.354034 197.091795 
L 301.772241 197.106286 
L 304.190447 197.126682 
L 306.608653 197.154847 
L 309.02686 197.191011 
L 311.445066 197.233566 
L 313.863273 197.27935 
L 316.281479 197.324427 
L 318.699685 197.365109 
L 321.117892 197.398825 
L 323.536098 197.424527 
L 325.954305 197.442575 
L 328.372511 197.454262 
L 330.790717 197.461251 
L 333.208924 197.465112 
L 335.62713 197.467086 
" style="fill:none;stroke:#1f77b4;stroke-linecap:square;stroke-width:1.5;"/>
   </g>
   <g id="patch_59">
    <path d="M 57.6 197.46869 
L 57.6 151.58731 
" style="fill:none;stroke:#000000;stroke-linecap:square;stroke-linejoin:miter;stroke-width:0.8;"/>
   </g>
   <g id="patch_60">
    <path d="M 414.72 197.46869 
L 414.72 151.58731 
" style="fill:none;stroke:#000000;stroke-linecap:square;stroke-linejoin:miter;stroke-width:0.8;"/>
   </g>
   <g id="patch_61">
    <path d="M 57.6 197.46869 
L 414.72 197.46869 
" style="fill:none;stroke:#000000;stroke-linecap:square;stroke-linejoin:miter;stroke-width:0.8;"/>
   </g>
   <g id="patch_62">
    <path d="M 57.6 151.58731 
L 414.72 151.58731 
" style="fill:none;stroke:#000000;stroke-linecap:square;stroke-linejoin:miter;stroke-width:0.8;"/>
   </g>
  </g>
  <g id="axes_4">
   <g id="patch_63">
    <path d="M 57.6 252.526345 
L 414.72 252.526345 
L 414.72 206.644966 
L 57.6 206.644966 
z
" style="fill:none;"/>
   </g>
   <g id="patch_64">
    <path clip-path="url(#pafd74f7c0a)" d="M 207.92298 252.526345 
L 213.864593 252.526345 
L 213.864593 251.208006 
L 207.92298 251.208006 
z
" style="fill:#1f77b4;opacity:0.4;"/>
   </g>
   <g id="patch_65">
    <path clip-path="url(#pafd74f7c0a)" d="M 213.864593 252.526345 
L 219.806205 252.526345 
L 219.806205 250.417002 
L 213.864593 250.417002 
z
" style="fill:#1f77b4;opacity:0.4;"/>
   </g>
   <g id="patch_66">
    <path clip-path="url(#pafd74f7c0a)" d="M 219.806205 252.526345 
L 225.747817 252.526345 
L 225.747817 250.944338 
L 219.806205 250.944338 
z
" style="fill:#1f77b4;opacity:0.4;"/>
   </g>
   <g id="patch_67">
    <path clip-path="url(#pafd74f7c0a)" d="M 225.747817 252.526345 
L 231.689429 252.526345 
L 231.689429 250.417002 
L 225.747817 250.417002 
z
" style="fill:#1f77b4;opacity:0.4;"/>
   </g>
   <g id="patch_68">
    <path clip-path="url(#pafd74f7c0a)" d="M 231.689429 252.526345 
L 237.631041 252.526345 
L 237.631041 249.098663 
L 231.689429 249.098663 
z
" style="fill:#1f77b4;opacity:0.4;"/>
   </g>
   <g id="patch_69">
    <path clip-path="url(#pafd74f7c0a)" d="M 237.631041 252.526345 
L 243.572653 252.526345 
L 243.572653 251.999009 
L 237.631041 251.999009 
z
" style="fill:#1f77b4;opacity:0.4;"/>
   </g>
   <g id="patch_70">
    <path clip-path="url(#pafd74f7c0a)" d="M 243.572653 252.526345 
L 249.514265 252.526345 
L 249.514265 250.417002 
L 243.572653 250.417002 
z
" style="fill:#1f77b4;opacity:0.4;"/>
   </g>
   <g id="patch_71">
    <path clip-path="url(#pafd74f7c0a)" d="M 249.514265 252.526345 
L 255.455877 252.526345 
L 255.455877 249.362331 
L 249.514265 249.362331 
z
" style="fill:#1f77b4;opacity:0.4;"/>
   </g>
   <g id="patch_72">
    <path clip-path="url(#pafd74f7c0a)" d="M 255.455877 252.526345 
L 261.397489 252.526345 
L 261.397489 244.616311 
L 255.455877 244.616311 
z
" style="fill:#1f77b4;opacity:0.4;"/>
   </g>
   <g id="patch_73">
    <path clip-path="url(#pafd74f7c0a)" d="M 261.397489 252.526345 
L 267.339101 252.526345 
L 267.339101 249.098663 
L 261.397489 249.098663 
z
" style="fill:#1f77b4;opacity:0.4;"/>
   </g>
   <g id="patch_74">
    <path clip-path="url(#pafd74f7c0a)" d="M 267.339101 252.526345 
L 273.280714 252.526345 
L 273.280714 250.153335 
L 267.339101 250.153335 
z
" style="fill:#1f77b4;opacity:0.4;"/>
   </g>
   <g id="patch_75">
    <path clip-path="url(#pafd74f7c0a)" d="M 273.280714 252.526345 
L 279.222326 252.526345 
L 279.222326 245.670982 
L 273.280714 245.670982 
z
" style="fill:#1f77b4;opacity:0.4;"/>
   </g>
   <g id="patch_76">
    <path clip-path="url(#pafd74f7c0a)" d="M 279.222326 252.526345 
L 285.163938 252.526345 
L 285.163938 242.2433 
L 279.222326 242.2433 
z
" style="fill:#1f77b4;opacity:0.4;"/>
   </g>
   <g id="patch_77">
    <path clip-path="url(#pafd74f7c0a)" d="M 285.163938 252.526345 
L 291.10555 252.526345 
L 291.10555 231.169252 
L 285.163938 231.169252 
z
" style="fill:#1f77b4;opacity:0.4;"/>
   </g>
   <g id="patch_78">
    <path clip-path="url(#pafd74f7c0a)" d="M 291.10555 252.526345 
L 297.047162 252.526345 
L 297.047162 229.587246 
L 291.10555 229.587246 
z
" style="fill:#1f77b4;opacity:0.4;"/>
   </g>
   <g id="patch_79">
    <path clip-path="url(#pafd74f7c0a)" d="M 297.047162 252.526345 
L 302.988774 252.526345 
L 302.988774 226.159564 
L 297.047162 226.159564 
z
" style="fill:#1f77b4;opacity:0.4;"/>
   </g>
   <g id="patch_80">
    <path clip-path="url(#pafd74f7c0a)" d="M 302.988774 252.526345 
L 308.930386 252.526345 
L 308.930386 224.577557 
L 302.988774 224.577557 
z
" style="fill:#1f77b4;opacity:0.4;"/>
   </g>
   <g id="patch_81">
    <path clip-path="url(#pafd74f7c0a)" d="M 308.930386 252.526345 
L 314.871998 252.526345 
L 314.871998 217.722194 
L 308.930386 217.722194 
z
" style="fill:#1f77b4;opacity:0.4;"/>
   </g>
   <g id="patch_82">
    <path clip-path="url(#pafd74f7c0a)" d="M 314.871998 252.526345 
L 320.81361 252.526345 
L 320.81361 222.731883 
L 314.871998 222.731883 
z
" style="fill:#1f77b4;opacity:0.4;"/>
   </g>
   <g id="patch_83">
    <path clip-path="url(#pafd74f7c0a)" d="M 320.81361 252.526345 
L 326.755222 252.526345 
L 326.755222 228.268907 
L 320.81361 228.268907 
z
" style="fill:#1f77b4;opacity:0.4;"/>
   </g>
   <g id="patch_84">
    <path clip-path="url(#pafd74f7c0a)" d="M 326.755222 252.526345 
L 332.696834 252.526345 
L 332.696834 231.169252 
L 326.755222 231.169252 
z
" style="fill:#1f77b4;opacity:0.4;"/>
   </g>
   <g id="patch_85">
    <path clip-path="url(#pafd74f7c0a)" d="M 332.696834 252.526345 
L 338.638447 252.526345 
L 338.638447 233.278595 
L 332.696834 233.278595 
z
" style="fill:#1f77b4;opacity:0.4;"/>
   </g>
   <g id="patch_86">
    <path clip-path="url(#pafd74f7c0a)" d="M 338.638447 252.526345 
L 344.580059 252.526345 
L 344.580059 217.985862 
L 338.638447 217.985862 
z
" style="fill:#1f77b4;opacity:0.4;"/>
   </g>
   <g id="matplotlib.axis_7">
    <g id="xtick_25">
     <g id="line2d_34">
      <g>
       <use style="stroke:#000000;stroke-width:0.8;" x="91.69345" xlink:href="#mff74698ea5" y="252.526345"/>
      </g>
     </g>
    </g>
    <g id="xtick_26">
     <g id="line2d_35">
      <g>
       <use style="stroke:#000000;stroke-width:0.8;" x="133.84164" xlink:href="#mff74698ea5" y="252.526345"/>
      </g>
     </g>
    </g>
    <g id="xtick_27">
     <g id="line2d_36">
      <g>
       <use style="stroke:#000000;stroke-width:0.8;" x="175.989831" xlink:href="#mff74698ea5" y="252.526345"/>
      </g>
     </g>
    </g>
    <g id="xtick_28">
     <g id="line2d_37">
      <g>
       <use style="stroke:#000000;stroke-width:0.8;" x="218.138021" xlink:href="#mff74698ea5" y="252.526345"/>
      </g>
     </g>
    </g>
    <g id="xtick_29">
     <g id="line2d_38">
      <g>
       <use style="stroke:#000000;stroke-width:0.8;" x="260.286211" xlink:href="#mff74698ea5" y="252.526345"/>
      </g>
     </g>
    </g>
    <g id="xtick_30">
     <g id="line2d_39">
      <g>
       <use style="stroke:#000000;stroke-width:0.8;" x="302.434401" xlink:href="#mff74698ea5" y="252.526345"/>
      </g>
     </g>
    </g>
    <g id="xtick_31">
     <g id="line2d_40">
      <g>
       <use style="stroke:#000000;stroke-width:0.8;" x="344.582591" xlink:href="#mff74698ea5" y="252.526345"/>
      </g>
     </g>
    </g>
    <g id="xtick_32">
     <g id="line2d_41">
      <g>
       <use style="stroke:#000000;stroke-width:0.8;" x="386.730781" xlink:href="#mff74698ea5" y="252.526345"/>
      </g>
     </g>
    </g>
   </g>
   <g id="matplotlib.axis_8">
    <g id="ytick_7">
     <g id="line2d_42">
      <g>
       <use style="stroke:#000000;stroke-width:0.8;" x="57.6" xlink:href="#m16afe257d1" y="252.526345"/>
      </g>
     </g>
     <g id="text_8">
      <!-- 0 -->
      <g transform="translate(44.2375 256.325564)scale(0.1 -0.1)">
       <use xlink:href="#DejaVuSans-48"/>
      </g>
     </g>
    </g>
    <g id="ytick_8">
     <g id="line2d_43">
      <g>
       <use style="stroke:#000000;stroke-width:0.8;" x="57.6" xlink:href="#m16afe257d1" y="208.852609"/>
      </g>
     </g>
     <g id="text_9">
      <!-- 2 -->
      <g transform="translate(44.2375 212.651828)scale(0.1 -0.1)">
       <use xlink:href="#DejaVuSans-50"/>
      </g>
     </g>
    </g>
   </g>
   <g id="line2d_44">
    <path clip-path="url(#pafd74f7c0a)" d="M 188.179075 252.524454 
L 189.958316 252.521925 
L 191.737558 252.516659 
L 193.516799 252.506421 
L 195.29604 252.487833 
L 197.075282 252.456322 
L 198.854523 252.406423 
L 200.633764 252.332606 
L 202.413006 252.230579 
L 204.192247 252.098804 
L 205.971488 251.939732 
L 207.750729 251.760184 
L 209.529971 251.570526 
L 211.309212 251.382667 
L 213.088453 251.207469 
L 214.867695 251.052389 
L 216.646936 250.920224 
L 218.426177 250.80933 
L 220.205419 250.715201 
L 221.98466 250.632747 
L 223.763901 250.558523 
L 225.543142 250.492269 
L 227.322384 250.437416 
L 229.101625 250.400365 
L 230.880866 250.388437 
L 232.660108 250.406571 
L 234.439349 250.453379 
L 236.21859 250.517839 
L 237.997832 250.578293 
L 239.777073 250.604964 
L 241.556314 250.565869 
L 243.335555 250.434494 
L 245.114797 250.19681 
L 246.894038 249.855616 
L 248.673279 249.431476 
L 250.452521 248.960651 
L 252.231762 248.490734 
L 254.011003 248.074245 
L 255.790245 247.760146 
L 257.569486 247.583769 
L 259.348727 247.557016 
L 261.127968 247.661806 
L 262.90721 247.849653 
L 264.686451 248.048513 
L 266.465692 248.175445 
L 268.244934 248.151528 
L 270.024175 247.914743 
L 271.803416 247.427456 
L 273.582658 246.677293 
L 275.361899 245.672656 
L 277.14114 244.436061 
L 278.920382 242.998917 
L 280.699623 241.39993 
L 282.478864 239.686527 
L 284.258105 237.916139 
L 286.037347 236.1536 
L 287.816588 234.463028 
L 289.595829 232.896143 
L 291.375071 231.481708 
L 293.154312 230.220785 
L 294.933553 229.089858 
L 296.712795 228.050559 
L 298.492036 227.062759 
L 300.271277 226.097758 
L 302.050518 225.149056 
L 303.82976 224.238505 
L 305.609001 223.415506 
L 307.388242 222.747821 
L 309.167484 222.305338 
L 310.946725 222.141707 
L 312.725966 222.280602 
L 314.505208 222.711474 
L 316.284449 223.39496 
L 318.06369 224.273614 
L 319.842931 225.282251 
L 321.622173 226.354394 
L 323.401414 227.424897 
L 325.180655 228.43132 
L 326.959897 229.316893 
L 328.739138 230.036875 
L 330.518379 230.56866 
L 332.297621 230.924491 
L 334.076862 231.163365 
L 335.856103 231.39613 
L 337.635344 231.776494 
L 339.414586 232.473414 
L 341.193827 233.62784 
L 342.973068 235.306284 
L 344.75231 237.469524 
L 346.531551 239.971851 
L 348.310792 242.594458 
L 350.090034 245.101525 
L 351.869275 247.29768 
L 353.648516 249.066377 
L 355.427757 250.379077 
L 357.206999 251.278479 
L 358.98624 251.848096 
L 360.765481 252.181894 
L 362.544723 252.363024 
L 364.323964 252.454092 
" style="fill:none;stroke:#1f77b4;stroke-linecap:square;stroke-width:1.5;"/>
   </g>
   <g id="patch_87">
    <path d="M 57.6 252.526345 
L 57.6 206.644966 
" style="fill:none;stroke:#000000;stroke-linecap:square;stroke-linejoin:miter;stroke-width:0.8;"/>
   </g>
   <g id="patch_88">
    <path d="M 414.72 252.526345 
L 414.72 206.644966 
" style="fill:none;stroke:#000000;stroke-linecap:square;stroke-linejoin:miter;stroke-width:0.8;"/>
   </g>
   <g id="patch_89">
    <path d="M 57.6 252.526345 
L 414.72 252.526345 
" style="fill:none;stroke:#000000;stroke-linecap:square;stroke-linejoin:miter;stroke-width:0.8;"/>
   </g>
   <g id="patch_90">
    <path d="M 57.6 206.644966 
L 414.72 206.644966 
" style="fill:none;stroke:#000000;stroke-linecap:square;stroke-linejoin:miter;stroke-width:0.8;"/>
   </g>
  </g>
  <g id="axes_5">
   <g id="patch_91">
    <path d="M 57.6 307.584 
L 414.72 307.584 
L 414.72 261.702621 
L 57.6 261.702621 
z
" style="fill:none;"/>
   </g>
   <g id="patch_92">
    <path clip-path="url(#p82ed4f4907)" d="M 127.747579 307.584 
L 154.850684 307.584 
L 154.850684 302.313824 
L 127.747579 302.313824 
z
" style="fill:#1f77b4;opacity:0.4;"/>
   </g>
   <g id="patch_93">
    <path clip-path="url(#p82ed4f4907)" d="M 154.850684 307.584 
L 181.953789 307.584 
L 181.953789 302.993847 
L 154.850684 302.993847 
z
" style="fill:#1f77b4;opacity:0.4;"/>
   </g>
   <g id="patch_94">
    <path clip-path="url(#p82ed4f4907)" d="M 181.953789 307.584 
L 209.056895 307.584 
L 209.056895 298.998713 
L 181.953789 298.998713 
z
" style="fill:#1f77b4;opacity:0.4;"/>
   </g>
   <g id="patch_95">
    <path clip-path="url(#p82ed4f4907)" d="M 209.056895 307.584 
L 236.16 307.584 
L 236.16 305.968946 
L 209.056895 305.968946 
z
" style="fill:#1f77b4;opacity:0.4;"/>
   </g>
   <g id="patch_96">
    <path clip-path="url(#p82ed4f4907)" d="M 236.16 307.584 
L 263.263105 307.584 
L 263.263105 307.413994 
L 236.16 307.413994 
z
" style="fill:#1f77b4;opacity:0.4;"/>
   </g>
   <g id="patch_97">
    <path clip-path="url(#p82ed4f4907)" d="M 263.263105 307.584 
L 290.366211 307.584 
L 290.366211 302.143818 
L 263.263105 302.143818 
z
" style="fill:#1f77b4;opacity:0.4;"/>
   </g>
   <g id="patch_98">
    <path clip-path="url(#p82ed4f4907)" d="M 290.366211 307.584 
L 317.469316 307.584 
L 317.469316 290.073415 
L 290.366211 290.073415 
z
" style="fill:#1f77b4;opacity:0.4;"/>
   </g>
   <g id="patch_99">
    <path clip-path="url(#p82ed4f4907)" d="M 317.469316 307.584 
L 344.572421 307.584 
L 344.572421 282.848174 
L 317.469316 282.848174 
z
" style="fill:#1f77b4;opacity:0.4;"/>
   </g>
   <g id="matplotlib.axis_9">
    <g id="xtick_33">
     <g id="line2d_45">
      <g>
       <use style="stroke:#000000;stroke-width:0.8;" x="91.69345" xlink:href="#mff74698ea5" y="307.584"/>
      </g>
     </g>
     <g id="text_10">
      <!-- 4.0 -->
      <defs>
       <path d="M 37.796875 64.3125 
L 12.890625 25.390625 
L 37.796875 25.390625 
z
M 35.203125 72.90625 
L 47.609375 72.90625 
L 47.609375 25.390625 
L 58.015625 25.390625 
L 58.015625 17.1875 
L 47.609375 17.1875 
L 47.609375 0 
L 37.796875 0 
L 37.796875 17.1875 
L 4.890625 17.1875 
L 4.890625 26.703125 
z
" id="DejaVuSans-52"/>
       <path d="M 10.6875 12.40625 
L 21 12.40625 
L 21 0 
L 10.6875 0 
z
" id="DejaVuSans-46"/>
      </defs>
      <g transform="translate(83.741888 322.182437)scale(0.1 -0.1)">
       <use xlink:href="#DejaVuSans-52"/>
       <use x="63.623047" xlink:href="#DejaVuSans-46"/>
       <use x="95.410156" xlink:href="#DejaVuSans-48"/>
      </g>
     </g>
    </g>
    <g id="xtick_34">
     <g id="line2d_46">
      <g>
       <use style="stroke:#000000;stroke-width:0.8;" x="133.84164" xlink:href="#mff74698ea5" y="307.584"/>
      </g>
     </g>
     <g id="text_11">
      <!-- 4.5 -->
      <defs>
       <path d="M 10.796875 72.90625 
L 49.515625 72.90625 
L 49.515625 64.59375 
L 19.828125 64.59375 
L 19.828125 46.734375 
Q 21.96875 47.46875 24.109375 47.828125 
Q 26.265625 48.1875 28.421875 48.1875 
Q 40.625 48.1875 47.75 41.5 
Q 54.890625 34.8125 54.890625 23.390625 
Q 54.890625 11.625 47.5625 5.09375 
Q 40.234375 -1.421875 26.90625 -1.421875 
Q 22.3125 -1.421875 17.546875 -0.640625 
Q 12.796875 0.140625 7.71875 1.703125 
L 7.71875 11.625 
Q 12.109375 9.234375 16.796875 8.0625 
Q 21.484375 6.890625 26.703125 6.890625 
Q 35.15625 6.890625 40.078125 11.328125 
Q 45.015625 15.765625 45.015625 23.390625 
Q 45.015625 31 40.078125 35.4375 
Q 35.15625 39.890625 26.703125 39.890625 
Q 22.75 39.890625 18.8125 39.015625 
Q 14.890625 38.140625 10.796875 36.28125 
z
" id="DejaVuSans-53"/>
      </defs>
      <g transform="translate(125.890078 322.182437)scale(0.1 -0.1)">
       <use xlink:href="#DejaVuSans-52"/>
       <use x="63.623047" xlink:href="#DejaVuSans-46"/>
       <use x="95.410156" xlink:href="#DejaVuSans-53"/>
      </g>
     </g>
    </g>
    <g id="xtick_35">
     <g id="line2d_47">
      <g>
       <use style="stroke:#000000;stroke-width:0.8;" x="175.989831" xlink:href="#mff74698ea5" y="307.584"/>
      </g>
     </g>
     <g id="text_12">
      <!-- 5.0 -->
      <g transform="translate(168.038268 322.182437)scale(0.1 -0.1)">
       <use xlink:href="#DejaVuSans-53"/>
       <use x="63.623047" xlink:href="#DejaVuSans-46"/>
       <use x="95.410156" xlink:href="#DejaVuSans-48"/>
      </g>
     </g>
    </g>
    <g id="xtick_36">
     <g id="line2d_48">
      <g>
       <use style="stroke:#000000;stroke-width:0.8;" x="218.138021" xlink:href="#mff74698ea5" y="307.584"/>
      </g>
     </g>
     <g id="text_13">
      <!-- 5.5 -->
      <g transform="translate(210.186458 322.182437)scale(0.1 -0.1)">
       <use xlink:href="#DejaVuSans-53"/>
       <use x="63.623047" xlink:href="#DejaVuSans-46"/>
       <use x="95.410156" xlink:href="#DejaVuSans-53"/>
      </g>
     </g>
    </g>
    <g id="xtick_37">
     <g id="line2d_49">
      <g>
       <use style="stroke:#000000;stroke-width:0.8;" x="260.286211" xlink:href="#mff74698ea5" y="307.584"/>
      </g>
     </g>
     <g id="text_14">
      <!-- 6.0 -->
      <defs>
       <path d="M 33.015625 40.375 
Q 26.375 40.375 22.484375 35.828125 
Q 18.609375 31.296875 18.609375 23.390625 
Q 18.609375 15.53125 22.484375 10.953125 
Q 26.375 6.390625 33.015625 6.390625 
Q 39.65625 6.390625 43.53125 10.953125 
Q 47.40625 15.53125 47.40625 23.390625 
Q 47.40625 31.296875 43.53125 35.828125 
Q 39.65625 40.375 33.015625 40.375 
z
M 52.59375 71.296875 
L 52.59375 62.3125 
Q 48.875 64.0625 45.09375 64.984375 
Q 41.3125 65.921875 37.59375 65.921875 
Q 27.828125 65.921875 22.671875 59.328125 
Q 17.53125 52.734375 16.796875 39.40625 
Q 19.671875 43.65625 24.015625 45.921875 
Q 28.375 48.1875 33.59375 48.1875 
Q 44.578125 48.1875 50.953125 41.515625 
Q 57.328125 34.859375 57.328125 23.390625 
Q 57.328125 12.15625 50.6875 5.359375 
Q 44.046875 -1.421875 33.015625 -1.421875 
Q 20.359375 -1.421875 13.671875 8.265625 
Q 6.984375 17.96875 6.984375 36.375 
Q 6.984375 53.65625 15.1875 63.9375 
Q 23.390625 74.21875 37.203125 74.21875 
Q 40.921875 74.21875 44.703125 73.484375 
Q 48.484375 72.75 52.59375 71.296875 
z
" id="DejaVuSans-54"/>
      </defs>
      <g transform="translate(252.334648 322.182437)scale(0.1 -0.1)">
       <use xlink:href="#DejaVuSans-54"/>
       <use x="63.623047" xlink:href="#DejaVuSans-46"/>
       <use x="95.410156" xlink:href="#DejaVuSans-48"/>
      </g>
     </g>
    </g>
    <g id="xtick_38">
     <g id="line2d_50">
      <g>
       <use style="stroke:#000000;stroke-width:0.8;" x="302.434401" xlink:href="#mff74698ea5" y="307.584"/>
      </g>
     </g>
     <g id="text_15">
      <!-- 6.5 -->
      <g transform="translate(294.482838 322.182437)scale(0.1 -0.1)">
       <use xlink:href="#DejaVuSans-54"/>
       <use x="63.623047" xlink:href="#DejaVuSans-46"/>
       <use x="95.410156" xlink:href="#DejaVuSans-53"/>
      </g>
     </g>
    </g>
    <g id="xtick_39">
     <g id="line2d_51">
      <g>
       <use style="stroke:#000000;stroke-width:0.8;" x="344.582591" xlink:href="#mff74698ea5" y="307.584"/>
      </g>
     </g>
     <g id="text_16">
      <!-- 7.0 -->
      <defs>
       <path d="M 8.203125 72.90625 
L 55.078125 72.90625 
L 55.078125 68.703125 
L 28.609375 0 
L 18.3125 0 
L 43.21875 64.59375 
L 8.203125 64.59375 
z
" id="DejaVuSans-55"/>
      </defs>
      <g transform="translate(336.631028 322.182437)scale(0.1 -0.1)">
       <use xlink:href="#DejaVuSans-55"/>
       <use x="63.623047" xlink:href="#DejaVuSans-46"/>
       <use x="95.410156" xlink:href="#DejaVuSans-48"/>
      </g>
     </g>
    </g>
    <g id="xtick_40">
     <g id="line2d_52">
      <g>
       <use style="stroke:#000000;stroke-width:0.8;" x="386.730781" xlink:href="#mff74698ea5" y="307.584"/>
      </g>
     </g>
     <g id="text_17">
      <!-- 7.5 -->
      <g transform="translate(378.779219 322.182437)scale(0.1 -0.1)">
       <use xlink:href="#DejaVuSans-55"/>
       <use x="63.623047" xlink:href="#DejaVuSans-46"/>
       <use x="95.410156" xlink:href="#DejaVuSans-53"/>
      </g>
     </g>
    </g>
    <g id="text_18">
     <!-- Velocity (km/s) -->
     <defs>
      <path d="M 28.609375 0 
L 0.78125 72.90625 
L 11.078125 72.90625 
L 34.1875 11.53125 
L 57.328125 72.90625 
L 67.578125 72.90625 
L 39.796875 0 
z
" id="DejaVuSans-86"/>
      <path d="M 9.421875 75.984375 
L 18.40625 75.984375 
L 18.40625 0 
L 9.421875 0 
z
" id="DejaVuSans-108"/>
      <path d="M 30.609375 48.390625 
Q 23.390625 48.390625 19.1875 42.75 
Q 14.984375 37.109375 14.984375 27.296875 
Q 14.984375 17.484375 19.15625 11.84375 
Q 23.34375 6.203125 30.609375 6.203125 
Q 37.796875 6.203125 41.984375 11.859375 
Q 46.1875 17.53125 46.1875 27.296875 
Q 46.1875 37.015625 41.984375 42.703125 
Q 37.796875 48.390625 30.609375 48.390625 
z
M 30.609375 56 
Q 42.328125 56 49.015625 48.375 
Q 55.71875 40.765625 55.71875 27.296875 
Q 55.71875 13.875 49.015625 6.21875 
Q 42.328125 -1.421875 30.609375 -1.421875 
Q 18.84375 -1.421875 12.171875 6.21875 
Q 5.515625 13.875 5.515625 27.296875 
Q 5.515625 40.765625 12.171875 48.375 
Q 18.84375 56 30.609375 56 
z
" id="DejaVuSans-111"/>
      <path d="M 48.78125 52.59375 
L 48.78125 44.1875 
Q 44.96875 46.296875 41.140625 47.34375 
Q 37.3125 48.390625 33.40625 48.390625 
Q 24.65625 48.390625 19.8125 42.84375 
Q 14.984375 37.3125 14.984375 27.296875 
Q 14.984375 17.28125 19.8125 11.734375 
Q 24.65625 6.203125 33.40625 6.203125 
Q 37.3125 6.203125 41.140625 7.25 
Q 44.96875 8.296875 48.78125 10.40625 
L 48.78125 2.09375 
Q 45.015625 0.34375 40.984375 -0.53125 
Q 36.96875 -1.421875 32.421875 -1.421875 
Q 20.0625 -1.421875 12.78125 6.34375 
Q 5.515625 14.109375 5.515625 27.296875 
Q 5.515625 40.671875 12.859375 48.328125 
Q 20.21875 56 33.015625 56 
Q 37.15625 56 41.109375 55.140625 
Q 45.0625 54.296875 48.78125 52.59375 
z
" id="DejaVuSans-99"/>
      <path id="DejaVuSans-32"/>
      <path d="M 31 75.875 
Q 24.46875 64.65625 21.28125 53.65625 
Q 18.109375 42.671875 18.109375 31.390625 
Q 18.109375 20.125 21.3125 9.0625 
Q 24.515625 -2 31 -13.1875 
L 23.1875 -13.1875 
Q 15.875 -1.703125 12.234375 9.375 
Q 8.59375 20.453125 8.59375 31.390625 
Q 8.59375 42.28125 12.203125 53.3125 
Q 15.828125 64.359375 23.1875 75.875 
z
" id="DejaVuSans-40"/>
      <path d="M 9.078125 75.984375 
L 18.109375 75.984375 
L 18.109375 31.109375 
L 44.921875 54.6875 
L 56.390625 54.6875 
L 27.390625 29.109375 
L 57.625 0 
L 45.90625 0 
L 18.109375 26.703125 
L 18.109375 0 
L 9.078125 0 
z
" id="DejaVuSans-107"/>
      <path d="M 52 44.1875 
Q 55.375 50.25 60.0625 53.125 
Q 64.75 56 71.09375 56 
Q 79.640625 56 84.28125 50.015625 
Q 88.921875 44.046875 88.921875 33.015625 
L 88.921875 0 
L 79.890625 0 
L 79.890625 32.71875 
Q 79.890625 40.578125 77.09375 44.375 
Q 74.3125 48.1875 68.609375 48.1875 
Q 61.625 48.1875 57.5625 43.546875 
Q 53.515625 38.921875 53.515625 30.90625 
L 53.515625 0 
L 44.484375 0 
L 44.484375 32.71875 
Q 44.484375 40.625 41.703125 44.40625 
Q 38.921875 48.1875 33.109375 48.1875 
Q 26.21875 48.1875 22.15625 43.53125 
Q 18.109375 38.875 18.109375 30.90625 
L 18.109375 0 
L 9.078125 0 
L 9.078125 54.6875 
L 18.109375 54.6875 
L 18.109375 46.1875 
Q 21.1875 51.21875 25.484375 53.609375 
Q 29.78125 56 35.6875 56 
Q 41.65625 56 45.828125 52.96875 
Q 50 49.953125 52 44.1875 
z
" id="DejaVuSans-109"/>
      <path d="M 25.390625 72.90625 
L 33.6875 72.90625 
L 8.296875 -9.28125 
L 0 -9.28125 
z
" id="DejaVuSans-47"/>
      <path d="M 8.015625 75.875 
L 15.828125 75.875 
Q 23.140625 64.359375 26.78125 53.3125 
Q 30.421875 42.28125 30.421875 31.390625 
Q 30.421875 20.453125 26.78125 9.375 
Q 23.140625 -1.703125 15.828125 -13.1875 
L 8.015625 -13.1875 
Q 14.5 -2 17.703125 9.0625 
Q 20.90625 20.125 20.90625 31.390625 
Q 20.90625 42.671875 17.703125 53.65625 
Q 14.5 64.65625 8.015625 75.875 
z
" id="DejaVuSans-41"/>
     </defs>
     <g transform="translate(198.999062 335.860562)scale(0.1 -0.1)">
      <use xlink:href="#DejaVuSans-86"/>
      <use x="60.658203" xlink:href="#DejaVuSans-101"/>
      <use x="122.181641" xlink:href="#DejaVuSans-108"/>
      <use x="149.964844" xlink:href="#DejaVuSans-111"/>
      <use x="211.146484" xlink:href="#DejaVuSans-99"/>
      <use x="266.126953" xlink:href="#DejaVuSans-105"/>
      <use x="293.910156" xlink:href="#DejaVuSans-116"/>
      <use x="333.119141" xlink:href="#DejaVuSans-121"/>
      <use x="392.298828" xlink:href="#DejaVuSans-32"/>
      <use x="424.085938" xlink:href="#DejaVuSans-40"/>
      <use x="463.099609" xlink:href="#DejaVuSans-107"/>
      <use x="521.009766" xlink:href="#DejaVuSans-109"/>
      <use x="618.421875" xlink:href="#DejaVuSans-47"/>
      <use x="652.113281" xlink:href="#DejaVuSans-115"/>
      <use x="704.212891" xlink:href="#DejaVuSans-41"/>
     </g>
    </g>
   </g>
   <g id="matplotlib.axis_10">
    <g id="ytick_9">
     <g id="line2d_53">
      <g>
       <use style="stroke:#000000;stroke-width:0.8;" x="57.6" xlink:href="#m16afe257d1" y="307.584"/>
      </g>
     </g>
     <g id="text_19">
      <!-- 0 -->
      <g transform="translate(44.2375 311.383219)scale(0.1 -0.1)">
       <use xlink:href="#DejaVuSans-48"/>
      </g>
     </g>
    </g>
    <g id="ytick_10">
     <g id="line2d_54">
      <g>
       <use style="stroke:#000000;stroke-width:0.8;" x="57.6" xlink:href="#m16afe257d1" y="263.910265"/>
      </g>
     </g>
     <g id="text_20">
      <!-- 2 -->
      <g transform="translate(44.2375 267.709483)scale(0.1 -0.1)">
       <use xlink:href="#DejaVuSans-50"/>
      </g>
     </g>
    </g>
   </g>
   <g id="line2d_55">
    <path clip-path="url(#p82ed4f4907)" d="M 73.832727 307.581191 
L 77.112066 307.578825 
L 80.391405 307.57473 
L 83.670744 307.567844 
L 86.950083 307.556591 
L 90.229421 307.538715 
L 93.50876 307.511106 
L 96.788099 307.46963 
L 100.067438 307.409026 
L 103.346777 307.322889 
L 106.626116 307.203827 
L 109.905455 307.04383 
L 113.184793 306.834921 
L 116.464132 306.570097 
L 119.743471 306.244524 
L 123.02281 305.856875 
L 126.302149 305.410618 
L 129.581488 304.914971 
L 132.860826 304.385222 
L 136.140165 303.842126 
L 139.419504 303.310237 
L 142.698843 302.815219 
L 145.978182 302.380444 
L 149.257521 302.023456 
L 152.53686 301.753031 
L 155.816198 301.567558 
L 159.095537 301.455314 
L 162.374876 301.39677 
L 165.654215 301.368647 
L 168.933554 301.348931 
L 172.212893 301.321772 
L 175.492231 301.281133 
L 178.77157 301.232299 
L 182.050909 301.190857 
L 185.330248 301.179369 
L 188.609587 301.222502 
L 191.888926 301.341772 
L 195.168264 301.551083 
L 198.447603 301.853984 
L 201.726942 302.24311 
L 205.006281 302.701692 
L 208.28562 303.206591 
L 211.564959 303.731991 
L 214.844298 304.252934 
L 218.123636 304.748004 
L 221.402975 305.200827 
L 224.682314 305.600338 
L 227.961653 305.940061 
L 231.240992 306.216741 
L 234.520331 306.428723 
L 237.799669 306.574423 
L 241.079008 306.651101 
L 244.358347 306.654118 
L 247.637686 306.576712 
L 250.917025 306.41032 
L 254.196364 306.14537 
L 257.475702 305.77246 
L 260.755041 305.28374 
L 264.03438 304.674338 
L 267.313719 303.94359 
L 270.593058 303.095888 
L 273.872397 302.141026 
L 277.151736 301.093946 
L 280.431074 299.973967 
L 283.710413 298.803591 
L 286.989752 297.607105 
L 290.269091 296.409187 
L 293.54843 295.233736 
L 296.827769 294.103086 
L 300.107107 293.037717 
L 303.386446 292.056494 
L 306.665785 291.177355 
L 309.945124 290.418322 
L 313.224463 289.798536 
L 316.503802 289.338988 
L 319.78314 289.062553 
L 323.062479 288.992973 
L 326.341818 289.152632 
L 329.621157 289.55924 
L 332.900496 290.221863 
L 336.179835 291.137079 
L 339.459174 292.286151 
L 342.738512 293.634065 
L 346.017851 295.130954 
L 349.29719 296.715925 
L 352.576529 298.322762 
L 355.855868 299.886552 
L 359.135207 301.350054 
L 362.414545 302.668731 
L 365.693884 303.813692 
L 368.973223 304.772282 
L 372.252562 305.546538 
L 375.531901 306.150095 
L 378.81124 306.604323 
L 382.090579 306.93444 
L 385.369917 307.166177 
L 388.649256 307.323335 
L 391.928595 307.426317 
L 395.207934 307.491529 
L 398.487273 307.531439 
" style="fill:none;stroke:#1f77b4;stroke-linecap:square;stroke-width:1.5;"/>
   </g>
   <g id="patch_100">
    <path d="M 57.6 307.584 
L 57.6 261.702621 
" style="fill:none;stroke:#000000;stroke-linecap:square;stroke-linejoin:miter;stroke-width:0.8;"/>
   </g>
   <g id="patch_101">
    <path d="M 414.72 307.584 
L 414.72 261.702621 
" style="fill:none;stroke:#000000;stroke-linecap:square;stroke-linejoin:miter;stroke-width:0.8;"/>
   </g>
   <g id="patch_102">
    <path d="M 57.6 307.584 
L 414.72 307.584 
" style="fill:none;stroke:#000000;stroke-linecap:square;stroke-linejoin:miter;stroke-width:0.8;"/>
   </g>
   <g id="patch_103">
    <path d="M 57.6 261.702621 
L 414.72 261.702621 
" style="fill:none;stroke:#000000;stroke-linecap:square;stroke-linejoin:miter;stroke-width:0.8;"/>
   </g>
  </g>
 </g>
 <defs>
  <clipPath id="p0a2598ac09">
   <rect height="45.881379" width="357.12" x="57.6" y="41.472"/>
  </clipPath>
  <clipPath id="p7f919b59c0">
   <rect height="45.881379" width="357.12" x="57.6" y="96.529655"/>
  </clipPath>
  <clipPath id="p5f5e4f6cff">
   <rect height="45.881379" width="357.12" x="57.6" y="151.58731"/>
  </clipPath>
  <clipPath id="pafd74f7c0a">
   <rect height="45.881379" width="357.12" x="57.6" y="206.644966"/>
  </clipPath>
  <clipPath id="p82ed4f4907">
   <rect height="45.881379" width="357.12" x="57.6" y="261.702621"/>
  </clipPath>
 </defs>
</svg>
