<?xml version="1.0" encoding="utf-8"?>
<!-- Generator: Adobe Illustrator 24.3.0, SVG Export Plug-In . SVG Version: 6.00 Build 0)  -->
<svg version="1.1" id="Layer_1" xmlns="http://www.w3.org/2000/svg" xmlns:xlink="http://www.w3.org/1999/xlink" x="0px" y="0px"
	 viewBox="0 0 252 288" style="enable-background:new 0 0 252 288;" xml:space="preserve">
<style type="text/css">
	.st0{fill:none;}
	.st1{opacity:0.4;clip-path:url(#SVGID_2_);fill:#FF0000;enable-background:new    ;}
	.st2{opacity:0.4;clip-path:url(#SVGID_4_);fill:#FF0000;enable-background:new    ;}
	.st3{opacity:0.4;clip-path:url(#SVGID_6_);fill:#FF0000;enable-background:new    ;}
	.st4{opacity:0.4;clip-path:url(#SVGID_8_);fill:#FF0000;enable-background:new    ;}
	.st5{opacity:0.4;clip-path:url(#SVGID_10_);fill:#FF0000;enable-background:new    ;}
	.st6{opacity:0.4;clip-path:url(#SVGID_12_);fill:#FF0000;enable-background:new    ;}
	.st7{opacity:0.4;clip-path:url(#SVGID_14_);fill:#FF0000;enable-background:new    ;}
	.st8{opacity:0.4;clip-path:url(#SVGID_16_);fill:#FF0000;enable-background:new    ;}
	.st9{opacity:0.4;clip-path:url(#SVGID_18_);fill:#FF0000;enable-background:new    ;}
	.st10{opacity:0.4;clip-path:url(#SVGID_20_);fill:#FF0000;enable-background:new    ;}
	.st11{opacity:0.4;clip-path:url(#SVGID_22_);fill:#FF0000;enable-background:new    ;}
	.st12{opacity:0.4;clip-path:url(#SVGID_24_);fill:#FF0000;enable-background:new    ;}
	.st13{opacity:0.4;clip-path:url(#SVGID_26_);fill:#FF0000;enable-background:new    ;}
	.st14{opacity:0.4;clip-path:url(#SVGID_28_);fill:#FF0000;enable-background:new    ;}
	.st15{opacity:0.4;clip-path:url(#SVGID_30_);fill:#FF0000;enable-background:new    ;}
	.st16{opacity:0.4;clip-path:url(#SVGID_32_);fill:#FF0000;enable-background:new    ;}
	.st17{opacity:0.4;clip-path:url(#SVGID_34_);fill:#FF0000;enable-background:new    ;}
	.st18{opacity:0.4;clip-path:url(#SVGID_36_);fill:#FF0000;enable-background:new    ;}
	.st19{opacity:0.4;clip-path:url(#SVGID_38_);fill:#FF0000;enable-background:new    ;}
	.st20{stroke:#000000;stroke-width:0.8;stroke-linejoin:round;}
	.st21{clip-path:url(#SVGID_40_);fill:none;stroke:#FF0000;stroke-width:1.5;stroke-linecap:square;stroke-linejoin:round;}
	.st22{fill:none;stroke:#000000;stroke-width:0.8;stroke-linecap:square;}
	.st23{opacity:0.4;clip-path:url(#SVGID_42_);fill:#0000FF;enable-background:new    ;}
	.st24{opacity:0.4;clip-path:url(#SVGID_44_);fill:#0000FF;enable-background:new    ;}
	.st25{opacity:0.4;clip-path:url(#SVGID_46_);fill:#0000FF;enable-background:new    ;}
	.st26{opacity:0.4;clip-path:url(#SVGID_48_);fill:#0000FF;enable-background:new    ;}
	.st27{opacity:0.4;clip-path:url(#SVGID_50_);fill:#0000FF;enable-background:new    ;}
	.st28{opacity:0.4;clip-path:url(#SVGID_52_);fill:#0000FF;enable-background:new    ;}
	.st29{opacity:0.4;clip-path:url(#SVGID_54_);fill:#0000FF;enable-background:new    ;}
	.st30{opacity:0.4;clip-path:url(#SVGID_56_);fill:#0000FF;enable-background:new    ;}
	.st31{opacity:0.4;clip-path:url(#SVGID_58_);fill:#0000FF;enable-background:new    ;}
	.st32{opacity:0.4;clip-path:url(#SVGID_60_);fill:#0000FF;enable-background:new    ;}
	.st33{opacity:0.4;clip-path:url(#SVGID_62_);fill:#0000FF;enable-background:new    ;}
	.st34{opacity:0.4;clip-path:url(#SVGID_64_);fill:#0000FF;enable-background:new    ;}
	.st35{opacity:0.4;clip-path:url(#SVGID_66_);fill:#0000FF;enable-background:new    ;}
	.st36{opacity:0.4;clip-path:url(#SVGID_68_);fill:#0000FF;enable-background:new    ;}
	.st37{opacity:0.4;clip-path:url(#SVGID_70_);fill:#0000FF;enable-background:new    ;}
	.st38{opacity:0.4;clip-path:url(#SVGID_72_);fill:#0000FF;enable-background:new    ;}
	.st39{opacity:0.4;clip-path:url(#SVGID_74_);fill:#0000FF;enable-background:new    ;}
	.st40{opacity:0.4;clip-path:url(#SVGID_76_);fill:#0000FF;enable-background:new    ;}
	.st41{opacity:0.4;clip-path:url(#SVGID_78_);fill:#0000FF;enable-background:new    ;}
	.st42{opacity:0.4;clip-path:url(#SVGID_80_);fill:#0000FF;enable-background:new    ;}
	.st43{opacity:0.4;clip-path:url(#SVGID_82_);fill:#0000FF;enable-background:new    ;}
	.st44{opacity:0.4;clip-path:url(#SVGID_84_);fill:#0000FF;enable-background:new    ;}
	.st45{opacity:0.4;clip-path:url(#SVGID_86_);fill:#0000FF;enable-background:new    ;}
	.st46{opacity:0.4;clip-path:url(#SVGID_88_);fill:#0000FF;enable-background:new    ;}
	.st47{opacity:0.4;clip-path:url(#SVGID_90_);fill:#0000FF;enable-background:new    ;}
	.st48{opacity:0.4;clip-path:url(#SVGID_92_);fill:#0000FF;enable-background:new    ;}
	.st49{opacity:0.4;clip-path:url(#SVGID_94_);fill:#0000FF;enable-background:new    ;}
	.st50{opacity:0.4;clip-path:url(#SVGID_96_);fill:#0000FF;enable-background:new    ;}
	.st51{opacity:0.4;clip-path:url(#SVGID_98_);fill:#0000FF;enable-background:new    ;}
	.st52{opacity:0.4;clip-path:url(#SVGID_100_);fill:#0000FF;enable-background:new    ;}
	.st53{opacity:0.4;clip-path:url(#SVGID_102_);fill:#0000FF;enable-background:new    ;}
	.st54{opacity:0.4;clip-path:url(#SVGID_104_);fill:#0000FF;enable-background:new    ;}
	.st55{opacity:0.4;clip-path:url(#SVGID_106_);fill:#0000FF;enable-background:new    ;}
	.st56{opacity:0.4;clip-path:url(#SVGID_108_);fill:#0000FF;enable-background:new    ;}
	.st57{opacity:0.4;clip-path:url(#SVGID_110_);fill:#0000FF;enable-background:new    ;}
	.st58{opacity:0.4;clip-path:url(#SVGID_112_);fill:#0000FF;enable-background:new    ;}
	.st59{opacity:0.4;clip-path:url(#SVGID_114_);fill:#0000FF;enable-background:new    ;}
	.st60{opacity:0.4;clip-path:url(#SVGID_116_);fill:#0000FF;enable-background:new    ;}
	.st61{opacity:0.4;clip-path:url(#SVGID_118_);fill:#0000FF;enable-background:new    ;}
	.st62{opacity:0.4;clip-path:url(#SVGID_120_);fill:#0000FF;enable-background:new    ;}
	.st63{opacity:0.4;clip-path:url(#SVGID_122_);fill:#0000FF;enable-background:new    ;}
	.st64{opacity:0.4;clip-path:url(#SVGID_124_);fill:#0000FF;enable-background:new    ;}
	.st65{opacity:0.4;clip-path:url(#SVGID_126_);fill:#0000FF;enable-background:new    ;}
	.st66{opacity:0.4;clip-path:url(#SVGID_128_);fill:#0000FF;enable-background:new    ;}
	.st67{opacity:0.4;clip-path:url(#SVGID_130_);fill:#0000FF;enable-background:new    ;}
	.st68{opacity:0.4;clip-path:url(#SVGID_132_);fill:#0000FF;enable-background:new    ;}
	.st69{opacity:0.4;clip-path:url(#SVGID_134_);fill:#0000FF;enable-background:new    ;}
	.st70{opacity:0.4;clip-path:url(#SVGID_136_);fill:#0000FF;enable-background:new    ;}
	.st71{opacity:0.4;clip-path:url(#SVGID_138_);fill:#0000FF;enable-background:new    ;}
	.st72{opacity:0.4;clip-path:url(#SVGID_140_);fill:#0000FF;enable-background:new    ;}
	.st73{clip-path:url(#SVGID_142_);fill:none;stroke:#0000FF;stroke-width:1.5;stroke-linecap:square;stroke-linejoin:round;}
	.st74{opacity:0.4;clip-path:url(#SVGID_144_);fill:#FFA500;enable-background:new    ;}
	.st75{opacity:0.4;clip-path:url(#SVGID_146_);fill:#FFA500;enable-background:new    ;}
	.st76{opacity:0.4;clip-path:url(#SVGID_148_);fill:#FFA500;enable-background:new    ;}
	.st77{opacity:0.4;clip-path:url(#SVGID_150_);fill:#FFA500;enable-background:new    ;}
	.st78{opacity:0.4;clip-path:url(#SVGID_152_);fill:#FFA500;enable-background:new    ;}
	.st79{opacity:0.4;clip-path:url(#SVGID_154_);fill:#FFA500;enable-background:new    ;}
	.st80{opacity:0.4;clip-path:url(#SVGID_156_);fill:#FFA500;enable-background:new    ;}
	.st81{opacity:0.4;clip-path:url(#SVGID_158_);fill:#FFA500;enable-background:new    ;}
	.st82{opacity:0.4;clip-path:url(#SVGID_160_);fill:#FFA500;enable-background:new    ;}
	.st83{opacity:0.4;clip-path:url(#SVGID_162_);fill:#FFA500;enable-background:new    ;}
	.st84{opacity:0.4;clip-path:url(#SVGID_164_);fill:#FFA500;enable-background:new    ;}
	.st85{opacity:0.4;clip-path:url(#SVGID_166_);fill:#FFA500;enable-background:new    ;}
	.st86{opacity:0.4;clip-path:url(#SVGID_168_);fill:#FFA500;enable-background:new    ;}
	.st87{opacity:0.4;clip-path:url(#SVGID_170_);fill:#FFA500;enable-background:new    ;}
	.st88{opacity:0.4;clip-path:url(#SVGID_172_);fill:#FFA500;enable-background:new    ;}
	.st89{opacity:0.4;clip-path:url(#SVGID_174_);fill:#FFA500;enable-background:new    ;}
	.st90{clip-path:url(#SVGID_176_);fill:none;stroke:#FFA500;stroke-width:1.5;stroke-linecap:square;stroke-linejoin:round;}
	.st91{opacity:0.4;clip-path:url(#SVGID_178_);fill:#800080;enable-background:new    ;}
	.st92{opacity:0.4;clip-path:url(#SVGID_180_);fill:#800080;enable-background:new    ;}
	.st93{opacity:0.4;clip-path:url(#SVGID_182_);fill:#800080;enable-background:new    ;}
	.st94{opacity:0.4;clip-path:url(#SVGID_184_);fill:#800080;enable-background:new    ;}
	.st95{opacity:0.4;clip-path:url(#SVGID_186_);fill:#800080;enable-background:new    ;}
	.st96{opacity:0.4;clip-path:url(#SVGID_188_);fill:#800080;enable-background:new    ;}
	.st97{opacity:0.4;clip-path:url(#SVGID_190_);fill:#800080;enable-background:new    ;}
	.st98{opacity:0.4;clip-path:url(#SVGID_192_);fill:#800080;enable-background:new    ;}
	.st99{opacity:0.4;clip-path:url(#SVGID_194_);fill:#800080;enable-background:new    ;}
	.st100{opacity:0.4;clip-path:url(#SVGID_196_);fill:#800080;enable-background:new    ;}
	.st101{opacity:0.4;clip-path:url(#SVGID_198_);fill:#800080;enable-background:new    ;}
	.st102{opacity:0.4;clip-path:url(#SVGID_200_);fill:#800080;enable-background:new    ;}
	.st103{opacity:0.4;clip-path:url(#SVGID_202_);fill:#800080;enable-background:new    ;}
	.st104{opacity:0.4;clip-path:url(#SVGID_204_);fill:#800080;enable-background:new    ;}
	.st105{opacity:0.4;clip-path:url(#SVGID_206_);fill:#800080;enable-background:new    ;}
	.st106{opacity:0.4;clip-path:url(#SVGID_208_);fill:#800080;enable-background:new    ;}
	.st107{opacity:0.4;clip-path:url(#SVGID_210_);fill:#800080;enable-background:new    ;}
	.st108{opacity:0.4;clip-path:url(#SVGID_212_);fill:#800080;enable-background:new    ;}
	.st109{opacity:0.4;clip-path:url(#SVGID_214_);fill:#800080;enable-background:new    ;}
	.st110{opacity:0.4;clip-path:url(#SVGID_216_);fill:#800080;enable-background:new    ;}
	.st111{clip-path:url(#SVGID_218_);fill:none;stroke:#800080;stroke-width:1.5;stroke-linecap:square;stroke-linejoin:round;}
	.st112{fill:#FF9815;}
	.st113{fill:#F40000;}
	.st114{fill:#0032FF;}
	.st115{fill:#A500FF;}
</style>
<g id="figure_1">
	<g id="patch_1">
		<path class="st0" d="M0,288h252V0H0V288z"/>
	</g>
	<g id="axes_1">
		<g id="patch_2">
			<path class="st0" d="M47.8,120H133V12.3H47.8V120z"/>
		</g>
		<g id="patch_3">
			<g>
				<defs>
					<rect id="SVGID_1_" x="47.8" y="12.3" width="85.2" height="107.7"/>
				</defs>
				<clipPath id="SVGID_2_">
					<use xlink:href="#SVGID_1_"  style="overflow:visible;"/>
				</clipPath>
				<path class="st1" d="M78.9,120h2.3v-4h-2.3V120z"/>
			</g>
		</g>
		<g id="patch_4">
			<g>
				<defs>
					<rect id="SVGID_3_" x="47.8" y="12.3" width="85.2" height="107.7"/>
				</defs>
				<clipPath id="SVGID_4_">
					<use xlink:href="#SVGID_3_"  style="overflow:visible;"/>
				</clipPath>
				<path class="st2" d="M81.1,120h2.3v-3.7h-2.3V120z"/>
			</g>
		</g>
		<g id="patch_5">
			<g>
				<defs>
					<rect id="SVGID_5_" x="47.8" y="12.3" width="85.2" height="107.7"/>
				</defs>
				<clipPath id="SVGID_6_">
					<use xlink:href="#SVGID_5_"  style="overflow:visible;"/>
				</clipPath>
				<path class="st3" d="M83.4,120h2.3v-3.4h-2.3V120z"/>
			</g>
		</g>
		<g id="patch_6">
			<g>
				<defs>
					<rect id="SVGID_7_" x="47.8" y="12.3" width="85.2" height="107.7"/>
				</defs>
				<clipPath id="SVGID_8_">
					<use xlink:href="#SVGID_7_"  style="overflow:visible;"/>
				</clipPath>
				<path class="st4" d="M85.7,120H88v-3.7h-2.3V120z"/>
			</g>
		</g>
		<g id="patch_7">
			<g>
				<defs>
					<rect id="SVGID_9_" x="47.8" y="12.3" width="85.2" height="107.7"/>
				</defs>
				<clipPath id="SVGID_10_">
					<use xlink:href="#SVGID_9_"  style="overflow:visible;"/>
				</clipPath>
				<path class="st5" d="M88,120h2.3v-5H88V120z"/>
			</g>
		</g>
		<g id="patch_8">
			<g>
				<defs>
					<rect id="SVGID_11_" x="47.8" y="12.3" width="85.2" height="107.7"/>
				</defs>
				<clipPath id="SVGID_12_">
					<use xlink:href="#SVGID_11_"  style="overflow:visible;"/>
				</clipPath>
				<path class="st6" d="M90.2,120h2.3v-17.1h-2.3V120z"/>
			</g>
		</g>
		<g id="patch_9">
			<g>
				<defs>
					<rect id="SVGID_13_" x="47.8" y="12.3" width="85.2" height="107.7"/>
				</defs>
				<clipPath id="SVGID_14_">
					<use xlink:href="#SVGID_13_"  style="overflow:visible;"/>
				</clipPath>
				<path class="st7" d="M92.5,120h2.3V80.8h-2.3V120z"/>
			</g>
		</g>
		<g id="patch_10">
			<g>
				<defs>
					<rect id="SVGID_15_" x="47.8" y="12.3" width="85.2" height="107.7"/>
				</defs>
				<clipPath id="SVGID_16_">
					<use xlink:href="#SVGID_15_"  style="overflow:visible;"/>
				</clipPath>
				<path class="st8" d="M94.8,120h2.3V94.5h-2.3V120z"/>
			</g>
		</g>
		<g id="patch_11">
			<g>
				<defs>
					<rect id="SVGID_17_" x="47.8" y="12.3" width="85.2" height="107.7"/>
				</defs>
				<clipPath id="SVGID_18_">
					<use xlink:href="#SVGID_17_"  style="overflow:visible;"/>
				</clipPath>
				<path class="st9" d="M97.1,120h2.3v-14.1h-2.3V120z"/>
			</g>
		</g>
		<g id="patch_12">
			<g>
				<defs>
					<rect id="SVGID_19_" x="47.8" y="12.3" width="85.2" height="107.7"/>
				</defs>
				<clipPath id="SVGID_20_">
					<use xlink:href="#SVGID_19_"  style="overflow:visible;"/>
				</clipPath>
				<path class="st10" d="M99.3,120h2.3v-16.4h-2.3V120z"/>
			</g>
		</g>
		<g id="patch_13">
			<g>
				<defs>
					<rect id="SVGID_21_" x="47.8" y="12.3" width="85.2" height="107.7"/>
				</defs>
				<clipPath id="SVGID_22_">
					<use xlink:href="#SVGID_21_"  style="overflow:visible;"/>
				</clipPath>
				<path class="st11" d="M101.6,120h2.3v-10.3h-2.3V120z"/>
			</g>
		</g>
		<g id="patch_14">
			<g>
				<defs>
					<rect id="SVGID_23_" x="47.8" y="12.3" width="85.2" height="107.7"/>
				</defs>
				<clipPath id="SVGID_24_">
					<use xlink:href="#SVGID_23_"  style="overflow:visible;"/>
				</clipPath>
				<path class="st12" d="M103.9,120h2.3v-11.5h-2.3V120z"/>
			</g>
		</g>
		<g id="patch_15">
			<g>
				<defs>
					<rect id="SVGID_25_" x="47.8" y="12.3" width="85.2" height="107.7"/>
				</defs>
				<clipPath id="SVGID_26_">
					<use xlink:href="#SVGID_25_"  style="overflow:visible;"/>
				</clipPath>
				<path class="st13" d="M106.2,120h2.3v-10h-2.3V120z"/>
			</g>
		</g>
		<g id="patch_16">
			<g>
				<defs>
					<rect id="SVGID_27_" x="47.8" y="12.3" width="85.2" height="107.7"/>
				</defs>
				<clipPath id="SVGID_28_">
					<use xlink:href="#SVGID_27_"  style="overflow:visible;"/>
				</clipPath>
				<path class="st14" d="M108.4,120h2.3v-17.8h-2.3V120z"/>
			</g>
		</g>
		<g id="patch_17">
			<g>
				<defs>
					<rect id="SVGID_29_" x="47.8" y="12.3" width="85.2" height="107.7"/>
				</defs>
				<clipPath id="SVGID_30_">
					<use xlink:href="#SVGID_29_"  style="overflow:visible;"/>
				</clipPath>
				<path class="st15" d="M110.7,120h2.3V93.8h-2.3V120z"/>
			</g>
		</g>
		<g id="patch_18">
			<g>
				<defs>
					<rect id="SVGID_31_" x="47.8" y="12.3" width="85.2" height="107.7"/>
				</defs>
				<clipPath id="SVGID_32_">
					<use xlink:href="#SVGID_31_"  style="overflow:visible;"/>
				</clipPath>
				<path class="st16" d="M113,120h2.3V89.3H113V120z"/>
			</g>
		</g>
		<g id="patch_19">
			<g>
				<defs>
					<rect id="SVGID_33_" x="47.8" y="12.3" width="85.2" height="107.7"/>
				</defs>
				<clipPath id="SVGID_34_">
					<use xlink:href="#SVGID_33_"  style="overflow:visible;"/>
				</clipPath>
				<path class="st17" d="M115.3,120h2.3V87.6h-2.3V120z"/>
			</g>
		</g>
		<g id="patch_20">
			<g>
				<defs>
					<rect id="SVGID_35_" x="47.8" y="12.3" width="85.2" height="107.7"/>
				</defs>
				<clipPath id="SVGID_36_">
					<use xlink:href="#SVGID_35_"  style="overflow:visible;"/>
				</clipPath>
				<path class="st18" d="M117.5,120h2.3V87h-2.3V120z"/>
			</g>
		</g>
		<g id="patch_21">
			<g>
				<defs>
					<rect id="SVGID_37_" x="47.8" y="12.3" width="85.2" height="107.7"/>
				</defs>
				<clipPath id="SVGID_38_">
					<use xlink:href="#SVGID_37_"  style="overflow:visible;"/>
				</clipPath>
				<path class="st19" d="M119.8,120h2.3V80.1h-2.3V120z"/>
			</g>
		</g>
		<g id="matplotlib.axis_1">
			<g id="xtick_1">
				<g id="line2d_1">
					<g>
						<g>
							<path id="m54c0e73894" class="st20" d="M55.1,120v3.5"/>
						</g>
					</g>
				</g>
			</g>
			<g id="xtick_2">
				<g id="line2d_2">
					<g>
						<g>
							<path id="m54c0e73894_1_" class="st20" d="M92.3,120v3.5"/>
						</g>
					</g>
				</g>
			</g>
			<g id="xtick_3">
				<g id="line2d_3">
					<g>
						<g>
							<path id="m54c0e73894_2_" class="st20" d="M129.5,120v3.5"/>
						</g>
					</g>
				</g>
			</g>
		</g>
		<g id="matplotlib.axis_2">
			<g id="ytick_1">
				<g id="line2d_4">
					<g>
						<g>
							<path id="mcc57d46d85" class="st20" d="M47.8,120h-3.5"/>
						</g>
					</g>
				</g>
				<g id="text_1">
					<g transform="translate(24.906875 123.759219)scale(0.1 -0.1)">
						<g>
							<path id="DejaVuSans-48" d="M31.8,66.4c-5.1,0-8.9-2.5-11.5-7.5c-2.6-5-3.8-12.5-3.8-22.5c0-10,1.3-17.5,3.8-22.5
								c2.6-5,6.4-7.5,11.5-7.5c5.1,0,8.9,2.5,11.5,7.5c2.6,5,3.8,12.5,3.8,22.5c0,10-1.3,17.5-3.8,22.5
								C40.7,63.9,36.9,66.4,31.8,66.4z M31.8,74.2c8.2,0,14.4-3.2,18.7-9.7c4.3-6.5,6.5-15.8,6.5-28.1c0-12.3-2.2-21.6-6.5-28.1
								C46.2,1.8,40-1.4,31.8-1.4c-8.2,0-14.4,3.2-18.7,9.7c-4.3,6.5-6.5,15.8-6.5,28.1c0,12.3,2.2,21.7,6.5,28.1
								C17.4,71,23.6,74.2,31.8,74.2z"/>
						</g>
						<g>
							<path id="DejaVuSans-46" d="M74.3,12.4h10.3V0H74.3V12.4z"/>
						</g>
						<g>
							<path id="DejaVuSans-48_1_" d="M127.2,66.4c-5.1,0-8.9-2.5-11.5-7.5c-2.6-5-3.8-12.5-3.8-22.5c0-10,1.3-17.5,3.8-22.5
								c2.6-5,6.4-7.5,11.5-7.5c5.1,0,8.9,2.5,11.5,7.5c2.6,5,3.8,12.5,3.8,22.5c0,10-1.3,17.5-3.8,22.5
								C136.1,63.9,132.3,66.4,127.2,66.4z M127.2,74.2c8.2,0,14.4-3.2,18.7-9.7c4.3-6.5,6.5-15.8,6.5-28.1
								c0-12.3-2.2-21.6-6.5-28.1c-4.3-6.5-10.6-9.7-18.7-9.7c-8.2,0-14.4,3.2-18.7,9.7c-4.3,6.5-6.5,15.8-6.5,28.1
								c0,12.3,2.2,21.7,6.5,28.1C112.8,71,119,74.2,127.2,74.2z"/>
						</g>
					</g>
				</g>
			</g>
			<g id="ytick_2">
				<g id="line2d_5">
					<g>
						<g>
							<path id="mcc57d46d85_1_" class="st20" d="M47.8,93.7h-3.5"/>
						</g>
					</g>
				</g>
				<g id="text_2">
					<g transform="translate(24.906875 97.50131)scale(0.1 -0.1)">
						<g>
							<path id="DejaVuSans-48_2_" d="M31.8,66.4c-5.1,0-8.9-2.5-11.5-7.5c-2.6-5-3.8-12.5-3.8-22.5c0-10,1.3-17.5,3.8-22.5
								c2.6-5,6.4-7.5,11.5-7.5c5.1,0,8.9,2.5,11.5,7.5c2.6,5,3.8,12.5,3.8,22.5c0,10-1.3,17.5-3.8,22.5
								C40.7,63.9,36.9,66.4,31.8,66.4z M31.8,74.2c8.2,0,14.4-3.2,18.7-9.7c4.3-6.5,6.5-15.8,6.5-28.1c0-12.3-2.2-21.6-6.5-28.1
								C46.2,1.8,40-1.4,31.8-1.4c-8.2,0-14.4,3.2-18.7,9.7c-4.3,6.5-6.5,15.8-6.5,28.1c0,12.3,2.2,21.7,6.5,28.1
								C17.4,71,23.6,74.2,31.8,74.2z"/>
						</g>
						<g>
							<path id="DejaVuSans-46_1_" d="M74.3,12.4h10.3V0H74.3V12.4z"/>
						</g>
						<g>
							<path id="DejaVuSans-53" d="M106.2,72.9h38.7v-8.3h-29.7V46.7c1.4,0.5,2.9,0.9,4.3,1.1c1.4,0.2,2.9,0.4,4.3,0.4
								c8.1,0,14.6-2.2,19.3-6.7c4.8-4.5,7.1-10.5,7.1-18.1c0-7.8-2.4-13.9-7.3-18.3c-4.9-4.3-11.8-6.5-20.7-6.5
								c-3.1,0-6.2,0.3-9.4,0.8c-3.2,0.5-6.4,1.3-9.8,2.3v9.9c2.9-1.6,6-2.8,9.1-3.6s6.4-1.2,9.9-1.2c5.6,0,10.1,1.5,13.4,4.4
								c3.3,3,4.9,7,4.9,12.1c0,5.1-1.6,9.1-4.9,12c-3.3,3-7.7,4.5-13.4,4.5c-2.6,0-5.3-0.3-7.9-0.9c-2.6-0.6-5.3-1.5-8-2.7V72.9z"
								/>
						</g>
					</g>
				</g>
			</g>
			<g id="ytick_3">
				<g id="line2d_6">
					<g>
						<g>
							<path id="mcc57d46d85_2_" class="st20" d="M47.8,67.4h-3.5"/>
						</g>
					</g>
				</g>
				<g id="text_3">
					<g transform="translate(24.906875 71.243401)scale(0.1 -0.1)">
						<g>
							<path id="DejaVuSans-49" d="M12.4,8.3h16.1v55.6L11,60.4v9l17.4,3.5h9.9V8.3h16.1V0h-42V8.3z"/>
						</g>
						<g>
							<path id="DejaVuSans-46_2_" d="M74.3,12.4h10.3V0H74.3V12.4z"/>
						</g>
						<g>
							<path id="DejaVuSans-48_3_" d="M127.2,66.4c-5.1,0-8.9-2.5-11.5-7.5c-2.6-5-3.8-12.5-3.8-22.5c0-10,1.3-17.5,3.8-22.5
								c2.6-5,6.4-7.5,11.5-7.5c5.1,0,8.9,2.5,11.5,7.5c2.6,5,3.8,12.5,3.8,22.5c0,10-1.3,17.5-3.8,22.5
								C136.1,63.9,132.3,66.4,127.2,66.4z M127.2,74.2c8.2,0,14.4-3.2,18.7-9.7c4.3-6.5,6.5-15.8,6.5-28.1
								c0-12.3-2.2-21.6-6.5-28.1c-4.3-6.5-10.6-9.7-18.7-9.7c-8.2,0-14.4,3.2-18.7,9.7c-4.3,6.5-6.5,15.8-6.5,28.1
								c0,12.3,2.2,21.7,6.5,28.1C112.8,71,119,74.2,127.2,74.2z"/>
						</g>
					</g>
				</g>
			</g>
			<g id="ytick_4">
				<g id="line2d_7">
					<g>
						<g>
							<path id="mcc57d46d85_3_" class="st20" d="M47.8,41.2h-3.5"/>
						</g>
					</g>
				</g>
				<g id="text_4">
					<g transform="translate(24.906875 44.985492)scale(0.1 -0.1)">
						<g>
							<path id="DejaVuSans-49_1_" d="M12.4,8.3h16.1v55.6L11,60.4v9l17.4,3.5h9.9V8.3h16.1V0h-42V8.3z"/>
						</g>
						<g>
							<path id="DejaVuSans-46_3_" d="M74.3,12.4h10.3V0H74.3V12.4z"/>
						</g>
						<g>
							<path id="DejaVuSans-53_1_" d="M106.2,72.9h38.7v-8.3h-29.7V46.7c1.4,0.5,2.9,0.9,4.3,1.1c1.4,0.2,2.9,0.4,4.3,0.4
								c8.1,0,14.6-2.2,19.3-6.7c4.8-4.5,7.1-10.5,7.1-18.1c0-7.8-2.4-13.9-7.3-18.3c-4.9-4.3-11.8-6.5-20.7-6.5
								c-3.1,0-6.2,0.3-9.4,0.8c-3.2,0.5-6.4,1.3-9.8,2.3v9.9c2.9-1.6,6-2.8,9.1-3.6s6.4-1.2,9.9-1.2c5.6,0,10.1,1.5,13.4,4.4
								c3.3,3,4.9,7,4.9,12.1c0,5.1-1.6,9.1-4.9,12c-3.3,3-7.7,4.5-13.4,4.5c-2.6,0-5.3-0.3-7.9-0.9c-2.6-0.6-5.3-1.5-8-2.7V72.9z"
								/>
						</g>
					</g>
				</g>
			</g>
			<g id="ytick_5">
				<g id="line2d_8">
					<g>
						<g>
							<path id="mcc57d46d85_4_" class="st20" d="M47.8,14.9h-3.5"/>
						</g>
					</g>
				</g>
				<g id="text_5">
					<g transform="translate(24.906875 18.727583)scale(0.1 -0.1)">
						<g>
							<path id="DejaVuSans-50" d="M19.2,8.3h34.4V0H7.3v8.3c3.7,3.9,8.8,9.1,15.3,15.6c6.5,6.5,10.5,10.7,12.2,12.6
								c3.2,3.5,5.4,6.5,6.6,9c1.3,2.5,1.9,4.9,1.9,7.3c0,3.9-1.4,7-4.1,9.5c-2.7,2.4-6.3,3.7-10.6,3.7c-3.1,0-6.4-0.5-9.8-1.6
								c-3.4-1.1-7.1-2.7-11-4.9v10c4,1.6,7.7,2.8,11.1,3.6c3.5,0.8,6.6,1.2,9.5,1.2c7.6,0,13.6-1.9,18.1-5.7
								c4.5-3.8,6.7-8.8,6.7-15.1c0-3-0.6-5.8-1.7-8.5c-1.1-2.7-3.2-5.8-6.1-9.5c-0.8-0.9-3.4-3.7-7.8-8.2
								C33.3,22.7,27.1,16.4,19.2,8.3z"/>
						</g>
						<g>
							<path id="DejaVuSans-46_4_" d="M74.3,12.4h10.3V0H74.3V12.4z"/>
						</g>
						<g>
							<path id="DejaVuSans-48_4_" d="M127.2,66.4c-5.1,0-8.9-2.5-11.5-7.5c-2.6-5-3.8-12.5-3.8-22.5c0-10,1.3-17.5,3.8-22.5
								c2.6-5,6.4-7.5,11.5-7.5c5.1,0,8.9,2.5,11.5,7.5c2.6,5,3.8,12.5,3.8,22.5c0,10-1.3,17.5-3.8,22.5
								C136.1,63.9,132.3,66.4,127.2,66.4z M127.2,74.2c8.2,0,14.4-3.2,18.7-9.7c4.3-6.5,6.5-15.8,6.5-28.1
								c0-12.3-2.2-21.6-6.5-28.1c-4.3-6.5-10.6-9.7-18.7-9.7c-8.2,0-14.4,3.2-18.7,9.7c-4.3,6.5-6.5,15.8-6.5,28.1
								c0,12.3,2.2,21.7,6.5,28.1C112.8,71,119,74.2,127.2,74.2z"/>
						</g>
					</g>
				</g>
			</g>
			<g id="text_6">
				<g transform="translate(18.827187 85.133473)rotate(-90)scale(0.1 -0.1)">
					<g>
						<path id="DejaVuSans-68" d="M19.7,64.8V8.1h11.9c10.1,0,17.4,2.3,22.1,6.8c4.7,4.6,7,11.8,7,21.6c0,9.8-2.3,16.9-7,21.5
							s-12,6.8-22.1,6.8H19.7z M9.8,72.9h20.3c14.1,0,24.5-2.9,31.1-8.8c6.6-5.9,9.9-15.1,9.9-27.6c0-12.6-3.3-21.8-10-27.7
							c-6.6-5.9-17-8.8-31-8.8H9.8V72.9z"/>
					</g>
					<g>
						<path id="DejaVuSans-101" d="M133.2,29.6v-4.4H91.9c0.4-6.2,2.3-10.9,5.6-14.1s8-4.9,13.9-4.9c3.4,0,6.8,0.4,10,1.3
							c3.2,0.8,6.5,2.1,9.7,3.8V2.8c-3.2-1.4-6.5-2.4-9.9-3.1c-3.4-0.7-6.8-1.1-10.3-1.1c-8.7,0-15.6,2.5-20.7,7.6
							c-5.1,5.1-7.6,12-7.6,20.6c0,8.9,2.4,16,7.3,21.3c4.8,5.3,11.4,7.9,19.6,7.9c7.4,0,13.2-2.4,17.5-7.1
							C131.1,44.2,133.2,37.7,133.2,29.6z M124.2,32.2c-0.1,4.9-1.4,8.8-4.1,11.8c-2.7,2.9-6.2,4.4-10.7,4.4c-5,0-9-1.4-12-4.3
							s-4.7-6.8-5.2-12L124.2,32.2z"/>
					</g>
					<g>
						<path id="DejaVuSans-110" d="M193.4,33V0h-9v32.7c0,5.2-1,9-3,11.6c-2,2.6-5,3.9-9.1,3.9c-4.9,0-8.7-1.5-11.5-4.6
							c-2.8-3.1-4.2-7.3-4.2-12.6V0h-9v54.7h9v-8.5c2.2,3.3,4.7,5.8,7.6,7.4c2.9,1.6,6.3,2.4,10.1,2.4c6.3,0,11-1.9,14.3-5.8
							C191.8,46.3,193.4,40.6,193.4,33z"/>
					</g>
					<g>
						<path id="DejaVuSans-115" d="M246.2,53.1v-8.5c-2.5,1.3-5.2,2.3-7.9,2.9c-2.7,0.7-5.6,1-8.5,1c-4.5,0-7.8-0.7-10-2
							s-3.3-3.4-3.3-6.2c0-2.1,0.8-3.7,2.4-4.9s4.8-2.3,9.6-3.4l3.1-0.7c6.4-1.4,10.9-3.3,13.6-5.8s4-6,4-10.4c0-5.1-2-9.1-6-12.1
							c-4-3-9.5-4.4-16.6-4.4c-2.9,0-6,0.3-9.2,0.9s-6.5,1.4-10,2.6v9.3c3.3-1.7,6.6-3,9.8-3.9c3.2-0.9,6.4-1.3,9.6-1.3
							c4.2,0,7.5,0.7,9.8,2.2c2.3,1.4,3.4,3.5,3.4,6.1c0,2.4-0.8,4.3-2.5,5.6c-1.6,1.3-5.2,2.6-10.8,3.8l-3.1,0.7
							c-5.6,1.2-9.6,3-12.1,5.4c-2.5,2.4-3.7,5.8-3.7,10c0,5.1,1.8,9.1,5.5,11.9c3.6,2.8,8.8,4.2,15.5,4.2c3.3,0,6.4-0.2,9.4-0.7
							C241,54.8,243.7,54.1,246.2,53.1z"/>
					</g>
					<g>
						<path id="DejaVuSans-105" d="M263.4,54.7h9V0h-9V54.7z M263.4,76h9V64.6h-9V76z"/>
					</g>
					<g>
						<path id="DejaVuSans-116" d="M300.1,70.2V54.7h18.5v-7h-18.5V18c0-4.5,0.6-7.3,1.8-8.6s3.7-1.9,7.5-1.9h9.2V0h-9.2
							c-6.9,0-11.7,1.3-14.4,3.9c-2.6,2.6-4,7.3-4,14.1v29.7h-6.6v7h6.6v15.5H300.1z"/>
					</g>
					<g>
						<path id="DejaVuSans-121" d="M353.2-5.1c-2.5-6.5-5-10.8-7.4-12.7c-2.4-2-5.6-3-9.7-3h-7.2v7.5h5.3c2.5,0,4.4,0.6,5.8,1.8
							c1.4,1.2,2.9,3.9,4.5,8.3l1.6,4.1L324,54.7h9.5l17.1-42.8l17.1,42.8h9.5L353.2-5.1z"/>
					</g>
				</g>
			</g>
		</g>
		<g id="line2d_9">
			<g>
				<defs>
					<rect id="SVGID_39_" x="47.8" y="12.3" width="85.2" height="107.7"/>
				</defs>
				<clipPath id="SVGID_40_">
					<use xlink:href="#SVGID_39_"  style="overflow:visible;"/>
				</clipPath>
				<path class="st21" d="M72.8,120l0.6,0l0.6,0l0.6,0l0.6-0.1l0.6-0.1l0.6-0.2l0.6-0.2l0.6-0.3l0.6-0.4l0.6-0.4l0.6-0.4l0.6-0.4
					l0.6-0.3l0.6-0.3l0.6-0.2l0.6-0.1l0.6,0l0.6,0l0.6,0l0.6,0l0.6-0.1l0.6-0.1l0.6-0.1l0.6-0.2l0.6-0.3l0.6-0.5l0.6-0.7l0.6-1
					l0.6-1.4l0.6-1.9l0.6-2.4l0.6-2.8l0.6-3.1l0.6-3.3l0.6-3.1l0.6-2.7l0.6-1.9l0.6-1l0.6,0.1l0.6,1.1l0.6,1.9l0.6,2.3l0.6,2.4
					l0.6,2.2l0.6,1.8l0.6,1.4l0.6,1l0.6,0.8l0.6,0.7l0.6,0.6l0.6,0.6l0.6,0.6l0.6,0.5l0.6,0.4l0.6,0.3l0.6,0.2l0.6,0.1l0.6,0
					l0.6-0.1l0.6-0.3l0.6-0.5l0.6-0.8l0.6-1l0.6-1.3l0.6-1.6l0.6-1.7l0.6-1.7l0.6-1.7l0.6-1.6l0.6-1.5l0.6-1.4l0.6-1.3l0.6-1.2
					l0.6-1.1l0.6-0.9l0.6-0.7l0.6-0.4l0.6-0.2l0.6,0l0.6,0.2l0.6,0.4l0.6,0.5l0.6,0.7l0.6,1l0.6,1.5l0.6,2.1l0.6,2.6l0.6,3.2
					l0.6,3.5l0.6,3.6l0.6,3.4l0.6,2.9l0.6,2.3l0.6,1.7l0.6,1.2l0.6,0.7l0.6,0.4l0.6,0.2l0.6,0.1"/>
			</g>
		</g>
		<g id="patch_22">
			<path class="st22" d="M47.8,120V12.3"/>
		</g>
		<g id="patch_23">
			<path class="st22" d="M133,120V12.3"/>
		</g>
		<g id="patch_24">
			<path class="st22" d="M47.8,120H133"/>
		</g>
		<g id="patch_25">
			<path class="st22" d="M47.8,12.3H133"/>
		</g>
	</g>
	<g id="axes_2">
		<g id="patch_26">
			<path class="st0" d="M151.7,120h85.2V12.3h-85.2V120z"/>
		</g>
		<g id="patch_27">
			<g>
				<defs>
					<rect id="SVGID_41_" x="151.7" y="12.3" width="85.2" height="107.7"/>
				</defs>
				<clipPath id="SVGID_42_">
					<use xlink:href="#SVGID_41_"  style="overflow:visible;"/>
				</clipPath>
				<path class="st23" d="M163.6,120h1.1V86.8h-1.1V120z"/>
			</g>
		</g>
		<g id="patch_28">
			<g>
				<defs>
					<rect id="SVGID_43_" x="151.7" y="12.3" width="85.2" height="107.7"/>
				</defs>
				<clipPath id="SVGID_44_">
					<use xlink:href="#SVGID_43_"  style="overflow:visible;"/>
				</clipPath>
				<path class="st24" d="M164.7,120h1.1V52.8h-1.1V120z"/>
			</g>
		</g>
		<g id="patch_29">
			<g>
				<defs>
					<rect id="SVGID_45_" x="151.7" y="12.3" width="85.2" height="107.7"/>
				</defs>
				<clipPath id="SVGID_46_">
					<use xlink:href="#SVGID_45_"  style="overflow:visible;"/>
				</clipPath>
				<path class="st25" d="M165.9,120h1.1v-84h-1.1V120z"/>
			</g>
		</g>
		<g id="patch_30">
			<g>
				<defs>
					<rect id="SVGID_47_" x="151.7" y="12.3" width="85.2" height="107.7"/>
				</defs>
				<clipPath id="SVGID_48_">
					<use xlink:href="#SVGID_47_"  style="overflow:visible;"/>
				</clipPath>
				<path class="st26" d="M167,120h1.1V53H167V120z"/>
			</g>
		</g>
		<g id="patch_31">
			<g>
				<defs>
					<rect id="SVGID_49_" x="151.7" y="12.3" width="85.2" height="107.7"/>
				</defs>
				<clipPath id="SVGID_50_">
					<use xlink:href="#SVGID_49_"  style="overflow:visible;"/>
				</clipPath>
				<path class="st27" d="M168.1,120h1.1V17.4h-1.1V120z"/>
			</g>
		</g>
		<g id="patch_32">
			<g>
				<defs>
					<rect id="SVGID_51_" x="151.7" y="12.3" width="85.2" height="107.7"/>
				</defs>
				<clipPath id="SVGID_52_">
					<use xlink:href="#SVGID_51_"  style="overflow:visible;"/>
				</clipPath>
				<path class="st28" d="M169.3,120h1.1V65.5h-1.1V120z"/>
			</g>
		</g>
		<g id="patch_33">
			<g>
				<defs>
					<rect id="SVGID_53_" x="151.7" y="12.3" width="85.2" height="107.7"/>
				</defs>
				<clipPath id="SVGID_54_">
					<use xlink:href="#SVGID_53_"  style="overflow:visible;"/>
				</clipPath>
				<path class="st29" d="M170.4,120h1.1V59h-1.1V120z"/>
			</g>
		</g>
		<g id="patch_34">
			<g>
				<defs>
					<rect id="SVGID_55_" x="151.7" y="12.3" width="85.2" height="107.7"/>
				</defs>
				<clipPath id="SVGID_56_">
					<use xlink:href="#SVGID_55_"  style="overflow:visible;"/>
				</clipPath>
				<path class="st30" d="M171.5,120h1.1V76.2h-1.1V120z"/>
			</g>
		</g>
		<g id="patch_35">
			<g>
				<defs>
					<rect id="SVGID_57_" x="151.7" y="12.3" width="85.2" height="107.7"/>
				</defs>
				<clipPath id="SVGID_58_">
					<use xlink:href="#SVGID_57_"  style="overflow:visible;"/>
				</clipPath>
				<path class="st31" d="M172.7,120h1.1v-6.5h-1.1V120z"/>
			</g>
		</g>
		<g id="patch_36">
			<g>
				<defs>
					<rect id="SVGID_59_" x="151.7" y="12.3" width="85.2" height="107.7"/>
				</defs>
				<clipPath id="SVGID_60_">
					<use xlink:href="#SVGID_59_"  style="overflow:visible;"/>
				</clipPath>
				<path class="st32" d="M173.8,120h1.1l0,0H173.8z"/>
			</g>
		</g>
		<g id="patch_37">
			<g>
				<defs>
					<rect id="SVGID_61_" x="151.7" y="12.3" width="85.2" height="107.7"/>
				</defs>
				<clipPath id="SVGID_62_">
					<use xlink:href="#SVGID_61_"  style="overflow:visible;"/>
				</clipPath>
				<path class="st33" d="M174.9,120h1.1l0,0H174.9z"/>
			</g>
		</g>
		<g id="patch_38">
			<g>
				<defs>
					<rect id="SVGID_63_" x="151.7" y="12.3" width="85.2" height="107.7"/>
				</defs>
				<clipPath id="SVGID_64_">
					<use xlink:href="#SVGID_63_"  style="overflow:visible;"/>
				</clipPath>
				<path class="st34" d="M176.1,120h1.1l0,0H176.1z"/>
			</g>
		</g>
		<g id="patch_39">
			<g>
				<defs>
					<rect id="SVGID_65_" x="151.7" y="12.3" width="85.2" height="107.7"/>
				</defs>
				<clipPath id="SVGID_66_">
					<use xlink:href="#SVGID_65_"  style="overflow:visible;"/>
				</clipPath>
				<path class="st35" d="M177.2,120h1.1l0,0H177.2z"/>
			</g>
		</g>
		<g id="patch_40">
			<g>
				<defs>
					<rect id="SVGID_67_" x="151.7" y="12.3" width="85.2" height="107.7"/>
				</defs>
				<clipPath id="SVGID_68_">
					<use xlink:href="#SVGID_67_"  style="overflow:visible;"/>
				</clipPath>
				<path class="st36" d="M178.3,120h1.1l0,0H178.3z"/>
			</g>
		</g>
		<g id="patch_41">
			<g>
				<defs>
					<rect id="SVGID_69_" x="151.7" y="12.3" width="85.2" height="107.7"/>
				</defs>
				<clipPath id="SVGID_70_">
					<use xlink:href="#SVGID_69_"  style="overflow:visible;"/>
				</clipPath>
				<path class="st37" d="M179.5,120h1.1l0,0H179.5z"/>
			</g>
		</g>
		<g id="patch_42">
			<g>
				<defs>
					<rect id="SVGID_71_" x="151.7" y="12.3" width="85.2" height="107.7"/>
				</defs>
				<clipPath id="SVGID_72_">
					<use xlink:href="#SVGID_71_"  style="overflow:visible;"/>
				</clipPath>
				<path class="st38" d="M180.6,120h1.1l0,0H180.6z"/>
			</g>
		</g>
		<g id="patch_43">
			<g>
				<defs>
					<rect id="SVGID_73_" x="151.7" y="12.3" width="85.2" height="107.7"/>
				</defs>
				<clipPath id="SVGID_74_">
					<use xlink:href="#SVGID_73_"  style="overflow:visible;"/>
				</clipPath>
				<path class="st39" d="M181.7,120h1.1l0,0H181.7z"/>
			</g>
		</g>
		<g id="patch_44">
			<g>
				<defs>
					<rect id="SVGID_75_" x="151.7" y="12.3" width="85.2" height="107.7"/>
				</defs>
				<clipPath id="SVGID_76_">
					<use xlink:href="#SVGID_75_"  style="overflow:visible;"/>
				</clipPath>
				<path class="st40" d="M182.9,120h1.1v-2.5h-1.1V120z"/>
			</g>
		</g>
		<g id="patch_45">
			<g>
				<defs>
					<rect id="SVGID_77_" x="151.7" y="12.3" width="85.2" height="107.7"/>
				</defs>
				<clipPath id="SVGID_78_">
					<use xlink:href="#SVGID_77_"  style="overflow:visible;"/>
				</clipPath>
				<path class="st41" d="M184,120h1.1v-2.5H184V120z"/>
			</g>
		</g>
		<g id="patch_46">
			<g>
				<defs>
					<rect id="SVGID_79_" x="151.7" y="12.3" width="85.2" height="107.7"/>
				</defs>
				<clipPath id="SVGID_80_">
					<use xlink:href="#SVGID_79_"  style="overflow:visible;"/>
				</clipPath>
				<path class="st42" d="M185.1,120h1.1v-2.4h-1.1V120z"/>
			</g>
		</g>
		<g id="patch_47">
			<g>
				<defs>
					<rect id="SVGID_81_" x="151.7" y="12.3" width="85.2" height="107.7"/>
				</defs>
				<clipPath id="SVGID_82_">
					<use xlink:href="#SVGID_81_"  style="overflow:visible;"/>
				</clipPath>
				<path class="st43" d="M186.3,120h1.1v-1h-1.1V120z"/>
			</g>
		</g>
		<g id="patch_48">
			<g>
				<defs>
					<rect id="SVGID_83_" x="151.7" y="12.3" width="85.2" height="107.7"/>
				</defs>
				<clipPath id="SVGID_84_">
					<use xlink:href="#SVGID_83_"  style="overflow:visible;"/>
				</clipPath>
				<path class="st44" d="M187.4,120h1.1v-3.8h-1.1V120z"/>
			</g>
		</g>
		<g id="patch_49">
			<g>
				<defs>
					<rect id="SVGID_85_" x="151.7" y="12.3" width="85.2" height="107.7"/>
				</defs>
				<clipPath id="SVGID_86_">
					<use xlink:href="#SVGID_85_"  style="overflow:visible;"/>
				</clipPath>
				<path class="st45" d="M188.5,120h1.1v-8.5h-1.1V120z"/>
			</g>
		</g>
		<g id="patch_50">
			<g>
				<defs>
					<rect id="SVGID_87_" x="151.7" y="12.3" width="85.2" height="107.7"/>
				</defs>
				<clipPath id="SVGID_88_">
					<use xlink:href="#SVGID_87_"  style="overflow:visible;"/>
				</clipPath>
				<path class="st46" d="M189.7,120h1.1v-10.7h-1.1V120z"/>
			</g>
		</g>
		<g id="patch_51">
			<g>
				<defs>
					<rect id="SVGID_89_" x="151.7" y="12.3" width="85.2" height="107.7"/>
				</defs>
				<clipPath id="SVGID_90_">
					<use xlink:href="#SVGID_89_"  style="overflow:visible;"/>
				</clipPath>
				<path class="st47" d="M190.8,120h1.1v-5.8h-1.1V120z"/>
			</g>
		</g>
		<g id="patch_52">
			<g>
				<defs>
					<rect id="SVGID_91_" x="151.7" y="12.3" width="85.2" height="107.7"/>
				</defs>
				<clipPath id="SVGID_92_">
					<use xlink:href="#SVGID_91_"  style="overflow:visible;"/>
				</clipPath>
				<path class="st48" d="M191.9,120h1.1V116h-1.1V120z"/>
			</g>
		</g>
		<g id="patch_53">
			<g>
				<defs>
					<rect id="SVGID_93_" x="151.7" y="12.3" width="85.2" height="107.7"/>
				</defs>
				<clipPath id="SVGID_94_">
					<use xlink:href="#SVGID_93_"  style="overflow:visible;"/>
				</clipPath>
				<path class="st49" d="M193.1,120h1.1v-0.6h-1.1V120z"/>
			</g>
		</g>
		<g id="patch_54">
			<g>
				<defs>
					<rect id="SVGID_95_" x="151.7" y="12.3" width="85.2" height="107.7"/>
				</defs>
				<clipPath id="SVGID_96_">
					<use xlink:href="#SVGID_95_"  style="overflow:visible;"/>
				</clipPath>
				<path class="st50" d="M194.2,120h1.1v-3.3h-1.1V120z"/>
			</g>
		</g>
		<g id="patch_55">
			<g>
				<defs>
					<rect id="SVGID_97_" x="151.7" y="12.3" width="85.2" height="107.7"/>
				</defs>
				<clipPath id="SVGID_98_">
					<use xlink:href="#SVGID_97_"  style="overflow:visible;"/>
				</clipPath>
				<path class="st51" d="M195.3,120h1.1v-2h-1.1V120z"/>
			</g>
		</g>
		<g id="patch_56">
			<g>
				<defs>
					<rect id="SVGID_99_" x="151.7" y="12.3" width="85.2" height="107.7"/>
				</defs>
				<clipPath id="SVGID_100_">
					<use xlink:href="#SVGID_99_"  style="overflow:visible;"/>
				</clipPath>
				<path class="st52" d="M196.5,120h1.1v-3.8h-1.1V120z"/>
			</g>
		</g>
		<g id="patch_57">
			<g>
				<defs>
					<rect id="SVGID_101_" x="151.7" y="12.3" width="85.2" height="107.7"/>
				</defs>
				<clipPath id="SVGID_102_">
					<use xlink:href="#SVGID_101_"  style="overflow:visible;"/>
				</clipPath>
				<path class="st53" d="M197.6,120h1.1v-7.5h-1.1V120z"/>
			</g>
		</g>
		<g id="patch_58">
			<g>
				<defs>
					<rect id="SVGID_103_" x="151.7" y="12.3" width="85.2" height="107.7"/>
				</defs>
				<clipPath id="SVGID_104_">
					<use xlink:href="#SVGID_103_"  style="overflow:visible;"/>
				</clipPath>
				<path class="st54" d="M198.7,120h1.1v-4.6h-1.1V120z"/>
			</g>
		</g>
		<g id="patch_59">
			<g>
				<defs>
					<rect id="SVGID_105_" x="151.7" y="12.3" width="85.2" height="107.7"/>
				</defs>
				<clipPath id="SVGID_106_">
					<use xlink:href="#SVGID_105_"  style="overflow:visible;"/>
				</clipPath>
				<path class="st55" d="M199.9,120h1.1v-11.8h-1.1V120z"/>
			</g>
		</g>
		<g id="patch_60">
			<g>
				<defs>
					<rect id="SVGID_107_" x="151.7" y="12.3" width="85.2" height="107.7"/>
				</defs>
				<clipPath id="SVGID_108_">
					<use xlink:href="#SVGID_107_"  style="overflow:visible;"/>
				</clipPath>
				<path class="st56" d="M201,120h1.1v-11.7H201V120z"/>
			</g>
		</g>
		<g id="patch_61">
			<g>
				<defs>
					<rect id="SVGID_109_" x="151.7" y="12.3" width="85.2" height="107.7"/>
				</defs>
				<clipPath id="SVGID_110_">
					<use xlink:href="#SVGID_109_"  style="overflow:visible;"/>
				</clipPath>
				<path class="st57" d="M202.1,120h1.1v-12.6h-1.1V120z"/>
			</g>
		</g>
		<g id="patch_62">
			<g>
				<defs>
					<rect id="SVGID_111_" x="151.7" y="12.3" width="85.2" height="107.7"/>
				</defs>
				<clipPath id="SVGID_112_">
					<use xlink:href="#SVGID_111_"  style="overflow:visible;"/>
				</clipPath>
				<path class="st58" d="M203.3,120h1.1v-12.2h-1.1V120z"/>
			</g>
		</g>
		<g id="patch_63">
			<g>
				<defs>
					<rect id="SVGID_113_" x="151.7" y="12.3" width="85.2" height="107.7"/>
				</defs>
				<clipPath id="SVGID_114_">
					<use xlink:href="#SVGID_113_"  style="overflow:visible;"/>
				</clipPath>
				<path class="st59" d="M204.4,120h1.1v-6.1h-1.1V120z"/>
			</g>
		</g>
		<g id="patch_64">
			<g>
				<defs>
					<rect id="SVGID_115_" x="151.7" y="12.3" width="85.2" height="107.7"/>
				</defs>
				<clipPath id="SVGID_116_">
					<use xlink:href="#SVGID_115_"  style="overflow:visible;"/>
				</clipPath>
				<path class="st60" d="M205.5,120h1.1v-5.7h-1.1V120z"/>
			</g>
		</g>
		<g id="patch_65">
			<g>
				<defs>
					<rect id="SVGID_117_" x="151.7" y="12.3" width="85.2" height="107.7"/>
				</defs>
				<clipPath id="SVGID_118_">
					<use xlink:href="#SVGID_117_"  style="overflow:visible;"/>
				</clipPath>
				<path class="st61" d="M206.7,120h1.1v-4.2h-1.1V120z"/>
			</g>
		</g>
		<g id="patch_66">
			<g>
				<defs>
					<rect id="SVGID_119_" x="151.7" y="12.3" width="85.2" height="107.7"/>
				</defs>
				<clipPath id="SVGID_120_">
					<use xlink:href="#SVGID_119_"  style="overflow:visible;"/>
				</clipPath>
				<path class="st62" d="M207.8,120h1.1v-9.9h-1.1V120z"/>
			</g>
		</g>
		<g id="patch_67">
			<g>
				<defs>
					<rect id="SVGID_121_" x="151.7" y="12.3" width="85.2" height="107.7"/>
				</defs>
				<clipPath id="SVGID_122_">
					<use xlink:href="#SVGID_121_"  style="overflow:visible;"/>
				</clipPath>
				<path class="st63" d="M208.9,120h1.1v-8.8h-1.1V120z"/>
			</g>
		</g>
		<g id="patch_68">
			<g>
				<defs>
					<rect id="SVGID_123_" x="151.7" y="12.3" width="85.2" height="107.7"/>
				</defs>
				<clipPath id="SVGID_124_">
					<use xlink:href="#SVGID_123_"  style="overflow:visible;"/>
				</clipPath>
				<path class="st64" d="M210.1,120h1.1V115h-1.1V120z"/>
			</g>
		</g>
		<g id="patch_69">
			<g>
				<defs>
					<rect id="SVGID_125_" x="151.7" y="12.3" width="85.2" height="107.7"/>
				</defs>
				<clipPath id="SVGID_126_">
					<use xlink:href="#SVGID_125_"  style="overflow:visible;"/>
				</clipPath>
				<path class="st65" d="M211.2,120h1.1v-4.6h-1.1V120z"/>
			</g>
		</g>
		<g id="patch_70">
			<g>
				<defs>
					<rect id="SVGID_127_" x="151.7" y="12.3" width="85.2" height="107.7"/>
				</defs>
				<clipPath id="SVGID_128_">
					<use xlink:href="#SVGID_127_"  style="overflow:visible;"/>
				</clipPath>
				<path class="st66" d="M212.3,120h1.1v-3.4h-1.1V120z"/>
			</g>
		</g>
		<g id="patch_71">
			<g>
				<defs>
					<rect id="SVGID_129_" x="151.7" y="12.3" width="85.2" height="107.7"/>
				</defs>
				<clipPath id="SVGID_130_">
					<use xlink:href="#SVGID_129_"  style="overflow:visible;"/>
				</clipPath>
				<path class="st67" d="M213.5,120h1.1v-1.1h-1.1V120z"/>
			</g>
		</g>
		<g id="patch_72">
			<g>
				<defs>
					<rect id="SVGID_131_" x="151.7" y="12.3" width="85.2" height="107.7"/>
				</defs>
				<clipPath id="SVGID_132_">
					<use xlink:href="#SVGID_131_"  style="overflow:visible;"/>
				</clipPath>
				<path class="st68" d="M214.6,120h1.1v-0.4h-1.1V120z"/>
			</g>
		</g>
		<g id="patch_73">
			<g>
				<defs>
					<rect id="SVGID_133_" x="151.7" y="12.3" width="85.2" height="107.7"/>
				</defs>
				<clipPath id="SVGID_134_">
					<use xlink:href="#SVGID_133_"  style="overflow:visible;"/>
				</clipPath>
				<path class="st69" d="M215.7,120h1.1v-2.4h-1.1V120z"/>
			</g>
		</g>
		<g id="patch_74">
			<g>
				<defs>
					<rect id="SVGID_135_" x="151.7" y="12.3" width="85.2" height="107.7"/>
				</defs>
				<clipPath id="SVGID_136_">
					<use xlink:href="#SVGID_135_"  style="overflow:visible;"/>
				</clipPath>
				<path class="st70" d="M216.9,120h1.1v-3.7h-1.1V120z"/>
			</g>
		</g>
		<g id="patch_75">
			<g>
				<defs>
					<rect id="SVGID_137_" x="151.7" y="12.3" width="85.2" height="107.7"/>
				</defs>
				<clipPath id="SVGID_138_">
					<use xlink:href="#SVGID_137_"  style="overflow:visible;"/>
				</clipPath>
				<path class="st71" d="M218,120h1.1v-2H218V120z"/>
			</g>
		</g>
		<g id="patch_76">
			<g>
				<defs>
					<rect id="SVGID_139_" x="151.7" y="12.3" width="85.2" height="107.7"/>
				</defs>
				<clipPath id="SVGID_140_">
					<use xlink:href="#SVGID_139_"  style="overflow:visible;"/>
				</clipPath>
				<path class="st72" d="M219.1,120h1.1v-1.5h-1.1V120z"/>
			</g>
		</g>
		<g id="matplotlib.axis_3">
			<g id="xtick_4">
				<g id="line2d_10">
					<g>
						<g>
							<path id="m54c0e73894_3_" class="st20" d="M159,120v3.5"/>
						</g>
					</g>
				</g>
			</g>
			<g id="xtick_5">
				<g id="line2d_11">
					<g>
						<g>
							<path id="m54c0e73894_4_" class="st20" d="M196.2,120v3.5"/>
						</g>
					</g>
				</g>
			</g>
			<g id="xtick_6">
				<g id="line2d_12">
					<g>
						<g>
							<path id="m54c0e73894_5_" class="st20" d="M233.4,120v3.5"/>
						</g>
					</g>
				</g>
			</g>
		</g>
		<g id="matplotlib.axis_4">
			<g id="ytick_6">
				<g id="line2d_13">
					<g>
						<g>
							<path id="mcc57d46d85_5_" class="st20" d="M151.7,120h-3.5"/>
						</g>
					</g>
				</g>
			</g>
			<g id="ytick_7">
				<g id="line2d_14">
					<g>
						<g>
							<path id="mcc57d46d85_6_" class="st20" d="M151.7,93.7h-3.5"/>
						</g>
					</g>
				</g>
			</g>
			<g id="ytick_8">
				<g id="line2d_15">
					<g>
						<g>
							<path id="mcc57d46d85_7_" class="st20" d="M151.7,67.4h-3.5"/>
						</g>
					</g>
				</g>
			</g>
			<g id="ytick_9">
				<g id="line2d_16">
					<g>
						<g>
							<path id="mcc57d46d85_8_" class="st20" d="M151.7,41.2h-3.5"/>
						</g>
					</g>
				</g>
			</g>
			<g id="ytick_10">
				<g id="line2d_17">
					<g>
						<g>
							<path id="mcc57d46d85_9_" class="st20" d="M151.7,14.9h-3.5"/>
						</g>
					</g>
				</g>
			</g>
		</g>
		<g id="line2d_18">
			<g>
				<defs>
					<rect id="SVGID_141_" x="151.7" y="12.3" width="85.2" height="107.7"/>
				</defs>
				<clipPath id="SVGID_142_">
					<use xlink:href="#SVGID_141_"  style="overflow:visible;"/>
				</clipPath>
				<path class="st73" d="M155.5,119.9l0.7-0.1l0.7-0.2l0.7-0.3l0.7-0.6l0.7-1.1l0.7-1.8l0.7-2.8l0.7-4l0.7-5.4l0.7-6.7l0.7-7.7
					l0.7-8.1l0.7-8l0.7-7.1l0.7-5.5l0.7-3.5l0.7-1.2l0.7,1.1l0.7,3.3l0.7,5.1l0.7,6.5l0.7,7.4l0.7,7.7l0.7,7.4l0.7,6.7l0.7,5.7
					l0.7,4.5l0.7,3.3l0.7,2.2l0.7,1.4l0.7,0.8l0.7,0.4l0.7,0.1l0.7,0l0.7-0.2l0.7-0.2l0.7-0.3l0.7-0.3l0.7-0.4l0.7-0.4l0.7-0.5
					l0.7-0.5l0.7-0.6l0.7-0.5l0.7-0.5l0.7-0.3l0.7-0.1l0.7,0.1l0.7,0.2l0.7,0.3l0.7,0.4l0.7,0.3l0.7,0.1l0.7-0.1l0.7-0.3l0.7-0.5
					l0.7-0.7l0.7-0.8l0.7-0.8l0.7-0.8l0.7-0.7l0.7-0.6l0.7-0.3l0.7-0.1l0.7,0.2l0.7,0.3l0.7,0.5l0.7,0.5l0.7,0.5l0.7,0.4l0.7,0.3
					l0.7,0.3l0.7,0.4l0.7,0.4l0.7,0.5l0.7,0.5l0.7,0.6l0.7,0.5l0.7,0.5l0.7,0.4l0.7,0.3l0.7,0.2l0.7,0.2l0.7,0.2l0.7,0.2l0.7,0.2
					l0.7,0.2l0.7,0.2l0.7,0.2l0.7,0.2l0.7,0.2l0.7,0.1l0.7,0.1l0.7,0.1l0.7,0l0.7,0l0.7,0l0.7,0l0.7,0"/>
			</g>
		</g>
		<g id="patch_77">
			<path class="st22" d="M151.7,120V12.3"/>
		</g>
		<g id="patch_78">
			<path class="st22" d="M236.9,120V12.3"/>
		</g>
		<g id="patch_79">
			<path class="st22" d="M151.7,120h85.2"/>
		</g>
		<g id="patch_80">
			<path class="st22" d="M151.7,12.3h85.2"/>
		</g>
	</g>
	<g id="axes_3">
		<g id="patch_81">
			<path class="st0" d="M47.8,246H133V138.4H47.8V246z"/>
		</g>
		<g id="patch_82">
			<g>
				<defs>
					<rect id="SVGID_143_" x="47.8" y="138.4" width="85.2" height="107.7"/>
				</defs>
				<clipPath id="SVGID_144_">
					<use xlink:href="#SVGID_143_"  style="overflow:visible;"/>
				</clipPath>
				<path class="st74" d="M77.8,246h2.8v-3.5h-2.8V246z"/>
			</g>
		</g>
		<g id="patch_83">
			<g>
				<defs>
					<rect id="SVGID_145_" x="47.8" y="138.4" width="85.2" height="107.7"/>
				</defs>
				<clipPath id="SVGID_146_">
					<use xlink:href="#SVGID_145_"  style="overflow:visible;"/>
				</clipPath>
				<path class="st75" d="M80.6,246h2.8v-5.7h-2.8V246z"/>
			</g>
		</g>
		<g id="patch_84">
			<g>
				<defs>
					<rect id="SVGID_147_" x="47.8" y="138.4" width="85.2" height="107.7"/>
				</defs>
				<clipPath id="SVGID_148_">
					<use xlink:href="#SVGID_147_"  style="overflow:visible;"/>
				</clipPath>
				<path class="st76" d="M83.4,246h2.8v-12.6h-2.8V246z"/>
			</g>
		</g>
		<g id="patch_85">
			<g>
				<defs>
					<rect id="SVGID_149_" x="47.8" y="138.4" width="85.2" height="107.7"/>
				</defs>
				<clipPath id="SVGID_150_">
					<use xlink:href="#SVGID_149_"  style="overflow:visible;"/>
				</clipPath>
				<path class="st77" d="M86.1,246h2.8V222h-2.8V246z"/>
			</g>
		</g>
		<g id="patch_86">
			<g>
				<defs>
					<rect id="SVGID_151_" x="47.8" y="138.4" width="85.2" height="107.7"/>
				</defs>
				<clipPath id="SVGID_152_">
					<use xlink:href="#SVGID_151_"  style="overflow:visible;"/>
				</clipPath>
				<path class="st78" d="M88.9,246h2.8v-25.5h-2.8V246z"/>
			</g>
		</g>
		<g id="patch_87">
			<g>
				<defs>
					<rect id="SVGID_153_" x="47.8" y="138.4" width="85.2" height="107.7"/>
				</defs>
				<clipPath id="SVGID_154_">
					<use xlink:href="#SVGID_153_"  style="overflow:visible;"/>
				</clipPath>
				<path class="st79" d="M91.7,246h2.8v-22.9h-2.8V246z"/>
			</g>
		</g>
		<g id="patch_88">
			<g>
				<defs>
					<rect id="SVGID_155_" x="47.8" y="138.4" width="85.2" height="107.7"/>
				</defs>
				<clipPath id="SVGID_156_">
					<use xlink:href="#SVGID_155_"  style="overflow:visible;"/>
				</clipPath>
				<path class="st80" d="M94.4,246h2.8v-21.6h-2.8V246z"/>
			</g>
		</g>
		<g id="patch_89">
			<g>
				<defs>
					<rect id="SVGID_157_" x="47.8" y="138.4" width="85.2" height="107.7"/>
				</defs>
				<clipPath id="SVGID_158_">
					<use xlink:href="#SVGID_157_"  style="overflow:visible;"/>
				</clipPath>
				<path class="st81" d="M97.2,246h2.8v-15.6h-2.8V246z"/>
			</g>
		</g>
		<g id="patch_90">
			<g>
				<defs>
					<rect id="SVGID_159_" x="47.8" y="138.4" width="85.2" height="107.7"/>
				</defs>
				<clipPath id="SVGID_160_">
					<use xlink:href="#SVGID_159_"  style="overflow:visible;"/>
				</clipPath>
				<path class="st82" d="M100,246h2.8v-16.5H100V246z"/>
			</g>
		</g>
		<g id="patch_91">
			<g>
				<defs>
					<rect id="SVGID_161_" x="47.8" y="138.4" width="85.2" height="107.7"/>
				</defs>
				<clipPath id="SVGID_162_">
					<use xlink:href="#SVGID_161_"  style="overflow:visible;"/>
				</clipPath>
				<path class="st83" d="M102.7,246h2.8v-5.8h-2.8V246z"/>
			</g>
		</g>
		<g id="patch_92">
			<g>
				<defs>
					<rect id="SVGID_163_" x="47.8" y="138.4" width="85.2" height="107.7"/>
				</defs>
				<clipPath id="SVGID_164_">
					<use xlink:href="#SVGID_163_"  style="overflow:visible;"/>
				</clipPath>
				<path class="st84" d="M105.5,246h2.8v-5h-2.8V246z"/>
			</g>
		</g>
		<g id="patch_93">
			<g>
				<defs>
					<rect id="SVGID_165_" x="47.8" y="138.4" width="85.2" height="107.7"/>
				</defs>
				<clipPath id="SVGID_166_">
					<use xlink:href="#SVGID_165_"  style="overflow:visible;"/>
				</clipPath>
				<path class="st85" d="M108.3,246h2.8v-5.9h-2.8V246z"/>
			</g>
		</g>
		<g id="patch_94">
			<g>
				<defs>
					<rect id="SVGID_167_" x="47.8" y="138.4" width="85.2" height="107.7"/>
				</defs>
				<clipPath id="SVGID_168_">
					<use xlink:href="#SVGID_167_"  style="overflow:visible;"/>
				</clipPath>
				<path class="st86" d="M111,246h2.8v-17.5H111V246z"/>
			</g>
		</g>
		<g id="patch_95">
			<g>
				<defs>
					<rect id="SVGID_169_" x="47.8" y="138.4" width="85.2" height="107.7"/>
				</defs>
				<clipPath id="SVGID_170_">
					<use xlink:href="#SVGID_169_"  style="overflow:visible;"/>
				</clipPath>
				<path class="st87" d="M113.8,246h2.8v-28.7h-2.8V246z"/>
			</g>
		</g>
		<g id="patch_96">
			<g>
				<defs>
					<rect id="SVGID_171_" x="47.8" y="138.4" width="85.2" height="107.7"/>
				</defs>
				<clipPath id="SVGID_172_">
					<use xlink:href="#SVGID_171_"  style="overflow:visible;"/>
				</clipPath>
				<path class="st88" d="M116.6,246h2.8v-28.6h-2.8V246z"/>
			</g>
		</g>
		<g id="patch_97">
			<g>
				<defs>
					<rect id="SVGID_173_" x="47.8" y="138.4" width="85.2" height="107.7"/>
				</defs>
				<clipPath id="SVGID_174_">
					<use xlink:href="#SVGID_173_"  style="overflow:visible;"/>
				</clipPath>
				<path class="st89" d="M119.3,246h2.8v-42.8h-2.8V246z"/>
			</g>
		</g>
		<g id="matplotlib.axis_5">
			<g id="xtick_7">
				<g id="line2d_19">
					<g>
						<g>
							<path id="m54c0e73894_6_" class="st20" d="M55.1,246v3.5"/>
						</g>
					</g>
				</g>
				<g id="text_7">
					<g transform="translate(47.168409 260.638438)scale(0.1 -0.1)">
						<g>
							<path id="DejaVuSans-50_1_" d="M19.2,8.3h34.4V0H7.3v8.3c3.7,3.9,8.8,9.1,15.3,15.6c6.5,6.5,10.5,10.7,12.2,12.6
								c3.2,3.5,5.4,6.5,6.6,9c1.3,2.5,1.9,4.9,1.9,7.3c0,3.9-1.4,7-4.1,9.5c-2.7,2.4-6.3,3.7-10.6,3.7c-3.1,0-6.4-0.5-9.8-1.6
								c-3.4-1.1-7.1-2.7-11-4.9v10c4,1.6,7.7,2.8,11.1,3.6c3.5,0.8,6.6,1.2,9.5,1.2c7.6,0,13.6-1.9,18.1-5.7
								c4.5-3.8,6.7-8.8,6.7-15.1c0-3-0.6-5.8-1.7-8.5c-1.1-2.7-3.2-5.8-6.1-9.5c-0.8-0.9-3.4-3.7-7.8-8.2
								C33.3,22.7,27.1,16.4,19.2,8.3z"/>
						</g>
						<g>
							<path id="DejaVuSans-46_5_" d="M74.3,12.4h10.3V0H74.3V12.4z"/>
						</g>
						<g>
							<path id="DejaVuSans-53_2_" d="M106.2,72.9h38.7v-8.3h-29.7V46.7c1.4,0.5,2.9,0.9,4.3,1.1c1.4,0.2,2.9,0.4,4.3,0.4
								c8.1,0,14.6-2.2,19.3-6.7c4.8-4.5,7.1-10.5,7.1-18.1c0-7.8-2.4-13.9-7.3-18.3c-4.9-4.3-11.8-6.5-20.7-6.5
								c-3.1,0-6.2,0.3-9.4,0.8c-3.2,0.5-6.4,1.3-9.8,2.3v9.9c2.9-1.6,6-2.8,9.1-3.6s6.4-1.2,9.9-1.2c5.6,0,10.1,1.5,13.4,4.4
								c3.3,3,4.9,7,4.9,12.1c0,5.1-1.6,9.1-4.9,12c-3.3,3-7.7,4.5-13.4,4.5c-2.6,0-5.3-0.3-7.9-0.9c-2.6-0.6-5.3-1.5-8-2.7V72.9z"
								/>
						</g>
					</g>
				</g>
			</g>
			<g id="xtick_8">
				<g id="line2d_20">
					<g>
						<g>
							<path id="m54c0e73894_7_" class="st20" d="M92.3,246v3.5"/>
						</g>
					</g>
				</g>
				<g id="text_8">
					<g transform="translate(84.37625 260.638438)scale(0.1 -0.1)">
						<g>
							<path id="DejaVuSans-53_3_" d="M10.8,72.9h38.7v-8.3H19.8V46.7c1.4,0.5,2.9,0.9,4.3,1.1c1.4,0.2,2.9,0.4,4.3,0.4
								c8.1,0,14.6-2.2,19.3-6.7c4.8-4.5,7.1-10.5,7.1-18.1c0-7.8-2.4-13.9-7.3-18.3c-4.9-4.3-11.8-6.5-20.7-6.5
								c-3.1,0-6.2,0.3-9.4,0.8c-3.2,0.5-6.4,1.3-9.8,2.3v9.9c2.9-1.6,6-2.8,9.1-3.6s6.4-1.2,9.9-1.2c5.6,0,10.1,1.5,13.4,4.4
								c3.3,3,4.9,7,4.9,12.1c0,5.1-1.6,9.1-4.9,12c-3.3,3-7.7,4.5-13.4,4.5c-2.6,0-5.3-0.3-7.9-0.9c-2.6-0.6-5.3-1.5-8-2.7V72.9z"
								/>
						</g>
						<g>
							<path id="DejaVuSans-46_6_" d="M74.3,12.4h10.3V0H74.3V12.4z"/>
						</g>
						<g>
							<path id="DejaVuSans-48_5_" d="M127.2,66.4c-5.1,0-8.9-2.5-11.5-7.5c-2.6-5-3.8-12.5-3.8-22.5c0-10,1.3-17.5,3.8-22.5
								c2.6-5,6.4-7.5,11.5-7.5c5.1,0,8.9,2.5,11.5,7.5c2.6,5,3.8,12.5,3.8,22.5c0,10-1.3,17.5-3.8,22.5
								C136.1,63.9,132.3,66.4,127.2,66.4z M127.2,74.2c8.2,0,14.4-3.2,18.7-9.7c4.3-6.5,6.5-15.8,6.5-28.1
								c0-12.3-2.2-21.6-6.5-28.1c-4.3-6.5-10.6-9.7-18.7-9.7c-8.2,0-14.4,3.2-18.7,9.7c-4.3,6.5-6.5,15.8-6.5,28.1
								c0,12.3,2.2,21.7,6.5,28.1C112.8,71,119,74.2,127.2,74.2z"/>
						</g>
					</g>
				</g>
			</g>
			<g id="xtick_9">
				<g id="line2d_21">
					<g>
						<g>
							<path id="m54c0e73894_8_" class="st20" d="M129.5,246v3.5"/>
						</g>
					</g>
				</g>
				<g id="text_9">
					<g transform="translate(121.584091 260.638438)scale(0.1 -0.1)">
						<g>
							<path id="DejaVuSans-55" d="M8.2,72.9h46.9v-4.2L28.6,0H18.3l24.9,64.6h-35V72.9z"/>
						</g>
						<g>
							<path id="DejaVuSans-46_7_" d="M74.3,12.4h10.3V0H74.3V12.4z"/>
						</g>
						<g>
							<path id="DejaVuSans-53_4_" d="M106.2,72.9h38.7v-8.3h-29.7V46.7c1.4,0.5,2.9,0.9,4.3,1.1c1.4,0.2,2.9,0.4,4.3,0.4
								c8.1,0,14.6-2.2,19.3-6.7c4.8-4.5,7.1-10.5,7.1-18.1c0-7.8-2.4-13.9-7.3-18.3c-4.9-4.3-11.8-6.5-20.7-6.5
								c-3.1,0-6.2,0.3-9.4,0.8c-3.2,0.5-6.4,1.3-9.8,2.3v9.9c2.9-1.6,6-2.8,9.1-3.6s6.4-1.2,9.9-1.2c5.6,0,10.1,1.5,13.4,4.4
								c3.3,3,4.9,7,4.9,12.1c0,5.1-1.6,9.1-4.9,12c-3.3,3-7.7,4.5-13.4,4.5c-2.6,0-5.3-0.3-7.9-0.9c-2.6-0.6-5.3-1.5-8-2.7V72.9z"
								/>
						</g>
					</g>
				</g>
			</g>
			<g id="text_10">
				<g transform="translate(53.267933 274.316562)scale(0.1 -0.1)">
					<g>
						<path id="DejaVuSans-86" d="M28.6,0L0.8,72.9h10.3l23.1-61.4l23.1,61.4h10.3L39.8,0H28.6z"/>
					</g>
					<g>
						<path id="DejaVuSans-101_1_" d="M116.9,29.6v-4.4H75.5c0.4-6.2,2.3-10.9,5.6-14.1s8-4.9,13.9-4.9c3.4,0,6.8,0.4,10,1.3
							c3.2,0.8,6.5,2.1,9.7,3.8V2.8c-3.2-1.4-6.5-2.4-9.9-3.1c-3.4-0.7-6.8-1.1-10.3-1.1c-8.7,0-15.6,2.5-20.7,7.6
							c-5.1,5.1-7.6,12-7.6,20.6c0,8.9,2.4,16,7.3,21.3C78.3,53.4,84.8,56,93,56c7.4,0,13.2-2.4,17.5-7.1
							C114.7,44.2,116.9,37.7,116.9,29.6z M107.9,32.2c-0.1,4.9-1.4,8.8-4.1,11.8c-2.7,2.9-6.2,4.4-10.7,4.4c-5,0-9-1.4-12-4.3
							s-4.7-6.8-5.2-12L107.9,32.2z"/>
					</g>
					<g>
						<path id="DejaVuSans-108" d="M131.6,76h9V0h-9V76z"/>
					</g>
					<g>
						<path id="DejaVuSans-111" d="M180.6,48.4c-4.8,0-8.6-1.9-11.4-5.6s-4.2-8.9-4.2-15.5s1.4-11.7,4.2-15.5
							c2.8-3.8,6.6-5.6,11.5-5.6c4.8,0,8.6,1.9,11.4,5.7c2.8,3.8,4.2,8.9,4.2,15.4c0,6.5-1.4,11.6-4.2,15.4
							C189.2,46.5,185.4,48.4,180.6,48.4z M180.6,56c7.8,0,13.9-2.5,18.4-7.6c4.5-5.1,6.7-12.1,6.7-21.1c0-8.9-2.2-16-6.7-21.1
							c-4.5-5.1-10.6-7.6-18.4-7.6c-7.8,0-14,2.5-18.4,7.6c-4.4,5.1-6.7,12.1-6.7,21.1c0,9,2.2,16,6.7,21.1
							C166.6,53.5,172.7,56,180.6,56z"/>
					</g>
					<g>
						<path id="DejaVuSans-99" d="M259.9,52.6v-8.4c-2.5,1.4-5.1,2.5-7.6,3.2s-5.1,1-7.7,1c-5.8,0-10.4-1.8-13.6-5.5
							c-3.2-3.7-4.8-8.9-4.8-15.5s1.6-11.9,4.8-15.6c3.2-3.7,7.8-5.5,13.6-5.5c2.6,0,5.2,0.3,7.7,1s5.1,1.8,7.6,3.2V2.1
							c-2.5-1.2-5.1-2-7.8-2.6c-2.7-0.6-5.5-0.9-8.6-0.9c-8.2,0-14.8,2.6-19.6,7.8c-4.8,5.2-7.3,12.2-7.3,21c0,8.9,2.4,15.9,7.3,21
							c4.9,5.1,11.6,7.7,20.2,7.7c2.8,0,5.5-0.3,8.1-0.9C254.9,54.6,257.4,53.7,259.9,52.6z"/>
					</g>
					<g>
						<path id="DejaVuSans-105_1_" d="M275.5,54.7h9V0h-9V54.7z M275.5,76h9V64.6h-9V76z"/>
					</g>
					<g>
						<path id="DejaVuSans-116_1_" d="M312.2,70.2V54.7h18.5v-7h-18.5V18c0-4.5,0.6-7.3,1.8-8.6s3.7-1.9,7.5-1.9h9.2V0h-9.2
							c-6.9,0-11.7,1.3-14.4,3.9c-2.6,2.6-4,7.3-4,14.1v29.7h-6.6v7h6.6v15.5H312.2z"/>
					</g>
					<g>
						<path id="DejaVuSans-121_1_" d="M365.3-5.1c-2.5-6.5-5-10.8-7.4-12.7c-2.4-2-5.6-3-9.7-3H341v7.5h5.3c2.5,0,4.4,0.6,5.8,1.8
							c1.4,1.2,2.9,3.9,4.5,8.3l1.6,4.1l-22.1,53.8h9.5l17.1-42.8l17.1,42.8h9.5L365.3-5.1z"/>
					</g>
					<g>
						<path id="DejaVuSans-32" d="M392.3,0"/>
					</g>
					<g>
						<path id="DejaVuSans-40" d="M455.1,75.9c-4.4-7.5-7.6-14.9-9.7-22.2c-2.1-7.3-3.2-14.7-3.2-22.3c0-7.5,1.1-15,3.2-22.3
							s5.4-14.8,9.7-22.3h-7.8c-4.9,7.7-8.5,15.2-11,22.6c-2.4,7.4-3.6,14.7-3.6,22c0,7.3,1.2,14.6,3.6,21.9
							c2.4,7.4,6.1,14.9,11,22.6H455.1z"/>
					</g>
					<g>
						<path id="DejaVuSans-107" d="M472.2,76h9V31.1L508,54.7h11.5l-29-25.6L520.7,0H509l-27.8,26.7V0h-9V76z"/>
					</g>
					<g>
						<path id="DejaVuSans-109" d="M573,44.2c2.3,4,4.9,7,8.1,8.9s6.8,2.9,11,2.9c5.7,0,10.1-2,13.2-6c3.1-4,4.6-9.6,4.6-17V0h-9
							v32.7c0,5.2-0.9,9.1-2.8,11.7c-1.9,2.5-4.7,3.8-8.5,3.8c-4.7,0-8.3-1.5-11-4.6c-2.7-3.1-4-7.3-4-12.6V0h-9v32.7
							c0,5.3-0.9,9.2-2.8,11.7s-4.7,3.8-8.6,3.8c-4.6,0-8.2-1.6-11-4.7c-2.7-3.1-4-7.3-4-12.6V0h-9v54.7h9v-8.5
							c2.1,3.4,4.5,5.8,7.4,7.4s6.3,2.4,10.2,2.4c4,0,7.4-1,10.1-3C569.6,51,571.7,48,573,44.2z"/>
					</g>
					<g>
						<path id="DejaVuSans-47" d="M643.8,72.9h8.3L626.7-9.3h-8.3L643.8,72.9z"/>
					</g>
					<g>
						<path id="DejaVuSans-115_1_" d="M696.4,53.1v-8.5c-2.5,1.3-5.2,2.3-7.9,2.9c-2.7,0.7-5.6,1-8.5,1c-4.5,0-7.8-0.7-10-2
							s-3.3-3.4-3.3-6.2c0-2.1,0.8-3.7,2.4-4.9s4.8-2.3,9.6-3.4l3.1-0.7c6.4-1.4,10.9-3.3,13.6-5.8s4-6,4-10.4c0-5.1-2-9.1-6-12.1
							c-4-3-9.5-4.4-16.6-4.4c-2.9,0-6,0.3-9.2,0.9s-6.5,1.4-10,2.6v9.3c3.3-1.7,6.6-3,9.8-3.9c3.2-0.9,6.4-1.3,9.6-1.3
							c4.2,0,7.5,0.7,9.8,2.2c2.3,1.4,3.4,3.5,3.4,6.1c0,2.4-0.8,4.3-2.5,5.6c-1.6,1.3-5.2,2.6-10.8,3.8l-3.1,0.7
							c-5.6,1.2-9.6,3-12.1,5.4c-2.5,2.4-3.7,5.8-3.7,10c0,5.1,1.8,9.1,5.5,11.9c3.6,2.8,8.8,4.2,15.5,4.2c3.3,0,6.4-0.2,9.4-0.7
							C691.2,54.8,693.9,54.1,696.4,53.1z"/>
					</g>
					<g>
						<path id="DejaVuSans-41" d="M712.2,75.9h7.8c4.9-7.7,8.5-15.2,11-22.6c2.4-7.4,3.6-14.7,3.6-21.9c0-7.3-1.2-14.6-3.6-22
							c-2.4-7.4-6.1-14.9-11-22.6h-7.8c4.3,7.5,7.6,14.9,9.7,22.3s3.2,14.8,3.2,22.3c0,7.5-1.1,14.9-3.2,22.3
							C719.8,61,716.6,68.4,712.2,75.9z"/>
					</g>
				</g>
			</g>
		</g>
		<g id="matplotlib.axis_6">
			<g id="ytick_11">
				<g id="line2d_22">
					<g>
						<g>
							<path id="mcc57d46d85_10_" class="st20" d="M47.8,246h-3.5"/>
						</g>
					</g>
				</g>
				<g id="text_11">
					<g transform="translate(24.906875 249.839219)scale(0.1 -0.1)">
						<g>
							<path id="DejaVuSans-48_6_" d="M31.8,66.4c-5.1,0-8.9-2.5-11.5-7.5c-2.6-5-3.8-12.5-3.8-22.5c0-10,1.3-17.5,3.8-22.5
								c2.6-5,6.4-7.5,11.5-7.5c5.1,0,8.9,2.5,11.5,7.5c2.6,5,3.8,12.5,3.8,22.5c0,10-1.3,17.5-3.8,22.5
								C40.7,63.9,36.9,66.4,31.8,66.4z M31.8,74.2c8.2,0,14.4-3.2,18.7-9.7c4.3-6.5,6.5-15.8,6.5-28.1c0-12.3-2.2-21.6-6.5-28.1
								C46.2,1.8,40-1.4,31.8-1.4c-8.2,0-14.4,3.2-18.7,9.7c-4.3,6.5-6.5,15.8-6.5,28.1c0,12.3,2.2,21.7,6.5,28.1
								C17.4,71,23.6,74.2,31.8,74.2z"/>
						</g>
						<g>
							<path id="DejaVuSans-46_8_" d="M74.3,12.4h10.3V0H74.3V12.4z"/>
						</g>
						<g>
							<path id="DejaVuSans-48_7_" d="M127.2,66.4c-5.1,0-8.9-2.5-11.5-7.5c-2.6-5-3.8-12.5-3.8-22.5c0-10,1.3-17.5,3.8-22.5
								c2.6-5,6.4-7.5,11.5-7.5c5.1,0,8.9,2.5,11.5,7.5c2.6,5,3.8,12.5,3.8,22.5c0,10-1.3,17.5-3.8,22.5
								C136.1,63.9,132.3,66.4,127.2,66.4z M127.2,74.2c8.2,0,14.4-3.2,18.7-9.7c4.3-6.5,6.5-15.8,6.5-28.1
								c0-12.3-2.2-21.6-6.5-28.1c-4.3-6.5-10.6-9.7-18.7-9.7c-8.2,0-14.4,3.2-18.7,9.7c-4.3,6.5-6.5,15.8-6.5,28.1
								c0,12.3,2.2,21.7,6.5,28.1C112.8,71,119,74.2,127.2,74.2z"/>
						</g>
					</g>
				</g>
			</g>
			<g id="ytick_12">
				<g id="line2d_23">
					<g>
						<g>
							<path id="mcc57d46d85_11_" class="st20" d="M47.8,219.8h-3.5"/>
						</g>
					</g>
				</g>
				<g id="text_12">
					<g transform="translate(24.906875 223.58131)scale(0.1 -0.1)">
						<g>
							<path id="DejaVuSans-48_8_" d="M31.8,66.4c-5.1,0-8.9-2.5-11.5-7.5c-2.6-5-3.8-12.5-3.8-22.5c0-10,1.3-17.5,3.8-22.5
								c2.6-5,6.4-7.5,11.5-7.5c5.1,0,8.9,2.5,11.5,7.5c2.6,5,3.8,12.5,3.8,22.5c0,10-1.3,17.5-3.8,22.5
								C40.7,63.9,36.9,66.4,31.8,66.4z M31.8,74.2c8.2,0,14.4-3.2,18.7-9.7c4.3-6.5,6.5-15.8,6.5-28.1c0-12.3-2.2-21.6-6.5-28.1
								C46.2,1.8,40-1.4,31.8-1.4c-8.2,0-14.4,3.2-18.7,9.7c-4.3,6.5-6.5,15.8-6.5,28.1c0,12.3,2.2,21.7,6.5,28.1
								C17.4,71,23.6,74.2,31.8,74.2z"/>
						</g>
						<g>
							<path id="DejaVuSans-46_9_" d="M74.3,12.4h10.3V0H74.3V12.4z"/>
						</g>
						<g>
							<path id="DejaVuSans-53_5_" d="M106.2,72.9h38.7v-8.3h-29.7V46.7c1.4,0.5,2.9,0.9,4.3,1.1c1.4,0.2,2.9,0.4,4.3,0.4
								c8.1,0,14.6-2.2,19.3-6.7c4.8-4.5,7.1-10.5,7.1-18.1c0-7.8-2.4-13.9-7.3-18.3c-4.9-4.3-11.8-6.5-20.7-6.5
								c-3.1,0-6.2,0.3-9.4,0.8c-3.2,0.5-6.4,1.3-9.8,2.3v9.9c2.9-1.6,6-2.8,9.1-3.6s6.4-1.2,9.9-1.2c5.6,0,10.1,1.5,13.4,4.4
								c3.3,3,4.9,7,4.9,12.1c0,5.1-1.6,9.1-4.9,12c-3.3,3-7.7,4.5-13.4,4.5c-2.6,0-5.3-0.3-7.9-0.9c-2.6-0.6-5.3-1.5-8-2.7V72.9z"
								/>
						</g>
					</g>
				</g>
			</g>
			<g id="ytick_13">
				<g id="line2d_24">
					<g>
						<g>
							<path id="mcc57d46d85_12_" class="st20" d="M47.8,193.5h-3.5"/>
						</g>
					</g>
				</g>
				<g id="text_13">
					<g transform="translate(24.906875 197.323401)scale(0.1 -0.1)">
						<g>
							<path id="DejaVuSans-49_2_" d="M12.4,8.3h16.1v55.6L11,60.4v9l17.4,3.5h9.9V8.3h16.1V0h-42V8.3z"/>
						</g>
						<g>
							<path id="DejaVuSans-46_10_" d="M74.3,12.4h10.3V0H74.3V12.4z"/>
						</g>
						<g>
							<path id="DejaVuSans-48_9_" d="M127.2,66.4c-5.1,0-8.9-2.5-11.5-7.5c-2.6-5-3.8-12.5-3.8-22.5c0-10,1.3-17.5,3.8-22.5
								c2.6-5,6.4-7.5,11.5-7.5c5.1,0,8.9,2.5,11.5,7.5c2.6,5,3.8,12.5,3.8,22.5c0,10-1.3,17.5-3.8,22.5
								C136.1,63.9,132.3,66.4,127.2,66.4z M127.2,74.2c8.2,0,14.4-3.2,18.7-9.7c4.3-6.5,6.5-15.8,6.5-28.1
								c0-12.3-2.2-21.6-6.5-28.1c-4.3-6.5-10.6-9.7-18.7-9.7c-8.2,0-14.4,3.2-18.7,9.7c-4.3,6.5-6.5,15.8-6.5,28.1
								c0,12.3,2.2,21.7,6.5,28.1C112.8,71,119,74.2,127.2,74.2z"/>
						</g>
					</g>
				</g>
			</g>
			<g id="ytick_14">
				<g id="line2d_25">
					<g>
						<g>
							<path id="mcc57d46d85_13_" class="st20" d="M47.8,167.3h-3.5"/>
						</g>
					</g>
				</g>
				<g id="text_14">
					<g transform="translate(24.906875 171.065492)scale(0.1 -0.1)">
						<g>
							<path id="DejaVuSans-49_3_" d="M12.4,8.3h16.1v55.6L11,60.4v9l17.4,3.5h9.9V8.3h16.1V0h-42V8.3z"/>
						</g>
						<g>
							<path id="DejaVuSans-46_11_" d="M74.3,12.4h10.3V0H74.3V12.4z"/>
						</g>
						<g>
							<path id="DejaVuSans-53_6_" d="M106.2,72.9h38.7v-8.3h-29.7V46.7c1.4,0.5,2.9,0.9,4.3,1.1c1.4,0.2,2.9,0.4,4.3,0.4
								c8.1,0,14.6-2.2,19.3-6.7c4.8-4.5,7.1-10.5,7.1-18.1c0-7.8-2.4-13.9-7.3-18.3c-4.9-4.3-11.8-6.5-20.7-6.5
								c-3.1,0-6.2,0.3-9.4,0.8c-3.2,0.5-6.4,1.3-9.8,2.3v9.9c2.9-1.6,6-2.8,9.1-3.6s6.4-1.2,9.9-1.2c5.6,0,10.1,1.5,13.4,4.4
								c3.3,3,4.9,7,4.9,12.1c0,5.1-1.6,9.1-4.9,12c-3.3,3-7.7,4.5-13.4,4.5c-2.6,0-5.3-0.3-7.9-0.9c-2.6-0.6-5.3-1.5-8-2.7V72.9z"
								/>
						</g>
					</g>
				</g>
			</g>
			<g id="ytick_15">
				<g id="line2d_26">
					<g>
						<g>
							<path id="mcc57d46d85_14_" class="st20" d="M47.8,141h-3.5"/>
						</g>
					</g>
				</g>
				<g id="text_15">
					<g transform="translate(24.906875 144.807583)scale(0.1 -0.1)">
						<g>
							<path id="DejaVuSans-50_2_" d="M19.2,8.3h34.4V0H7.3v8.3c3.7,3.9,8.8,9.1,15.3,15.6c6.5,6.5,10.5,10.7,12.2,12.6
								c3.2,3.5,5.4,6.5,6.6,9c1.3,2.5,1.9,4.9,1.9,7.3c0,3.9-1.4,7-4.1,9.5c-2.7,2.4-6.3,3.7-10.6,3.7c-3.1,0-6.4-0.5-9.8-1.6
								c-3.4-1.1-7.1-2.7-11-4.9v10c4,1.6,7.7,2.8,11.1,3.6c3.5,0.8,6.6,1.2,9.5,1.2c7.6,0,13.6-1.9,18.1-5.7
								c4.5-3.8,6.7-8.8,6.7-15.1c0-3-0.6-5.8-1.7-8.5c-1.1-2.7-3.2-5.8-6.1-9.5c-0.8-0.9-3.4-3.7-7.8-8.2
								C33.3,22.7,27.1,16.4,19.2,8.3z"/>
						</g>
						<g>
							<path id="DejaVuSans-46_12_" d="M74.3,12.4h10.3V0H74.3V12.4z"/>
						</g>
						<g>
							<path id="DejaVuSans-48_10_" d="M127.2,66.4c-5.1,0-8.9-2.5-11.5-7.5c-2.6-5-3.8-12.5-3.8-22.5c0-10,1.3-17.5,3.8-22.5
								c2.6-5,6.4-7.5,11.5-7.5c5.1,0,8.9,2.5,11.5,7.5c2.6,5,3.8,12.5,3.8,22.5c0,10-1.3,17.5-3.8,22.5
								C136.1,63.9,132.3,66.4,127.2,66.4z M127.2,74.2c8.2,0,14.4-3.2,18.7-9.7c4.3-6.5,6.5-15.8,6.5-28.1
								c0-12.3-2.2-21.6-6.5-28.1c-4.3-6.5-10.6-9.7-18.7-9.7c-8.2,0-14.4,3.2-18.7,9.7c-4.3,6.5-6.5,15.8-6.5,28.1
								c0,12.3,2.2,21.7,6.5,28.1C112.8,71,119,74.2,127.2,74.2z"/>
						</g>
					</g>
				</g>
			</g>
			<g id="text_16">
				<g transform="translate(18.827187 211.213473)rotate(-90)scale(0.1 -0.1)">
					<g>
						<path id="DejaVuSans-68_1_" d="M19.7,64.8V8.1h11.9c10.1,0,17.4,2.3,22.1,6.8c4.7,4.6,7,11.8,7,21.6c0,9.8-2.3,16.9-7,21.5
							s-12,6.8-22.1,6.8H19.7z M9.8,72.9h20.3c14.1,0,24.5-2.9,31.1-8.8c6.6-5.9,9.9-15.1,9.9-27.6c0-12.6-3.3-21.8-10-27.7
							c-6.6-5.9-17-8.8-31-8.8H9.8V72.9z"/>
					</g>
					<g>
						<path id="DejaVuSans-101_2_" d="M133.2,29.6v-4.4H91.9c0.4-6.2,2.3-10.9,5.6-14.1c3.3-3.2,8-4.9,13.9-4.9
							c3.4,0,6.8,0.4,10,1.3c3.2,0.8,6.5,2.1,9.7,3.8V2.8c-3.2-1.4-6.5-2.4-9.9-3.1c-3.4-0.7-6.8-1.1-10.3-1.1
							c-8.7,0-15.6,2.5-20.7,7.6c-5.1,5.1-7.6,12-7.6,20.6c0,8.9,2.4,16,7.3,21.3c4.8,5.3,11.4,7.9,19.6,7.9
							c7.4,0,13.2-2.4,17.5-7.1C131.1,44.2,133.2,37.7,133.2,29.6z M124.2,32.2c-0.1,4.9-1.4,8.8-4.1,11.8
							c-2.7,2.9-6.2,4.4-10.7,4.4c-5,0-9-1.4-12-4.3c-3-2.8-4.7-6.8-5.2-12L124.2,32.2z"/>
					</g>
					<g>
						<path id="DejaVuSans-110_1_" d="M193.4,33V0h-9v32.7c0,5.2-1,9-3,11.6c-2,2.6-5,3.9-9.1,3.9c-4.9,0-8.7-1.5-11.5-4.6
							c-2.8-3.1-4.2-7.3-4.2-12.6V0h-9v54.7h9v-8.5c2.2,3.3,4.7,5.8,7.6,7.4c2.9,1.6,6.3,2.4,10.1,2.4c6.3,0,11-1.9,14.3-5.8
							C191.8,46.3,193.4,40.6,193.4,33z"/>
					</g>
					<g>
						<path id="DejaVuSans-115_2_" d="M246.2,53.1v-8.5c-2.5,1.3-5.2,2.3-7.9,2.9c-2.7,0.7-5.6,1-8.5,1c-4.5,0-7.8-0.7-10-2
							s-3.3-3.4-3.3-6.2c0-2.1,0.8-3.7,2.4-4.9s4.8-2.3,9.6-3.4l3.1-0.7c6.4-1.4,10.9-3.3,13.6-5.8s4-6,4-10.4c0-5.1-2-9.1-6-12.1
							c-4-3-9.5-4.4-16.6-4.4c-2.9,0-6,0.3-9.2,0.9s-6.5,1.4-10,2.6v9.3c3.3-1.7,6.6-3,9.8-3.9c3.2-0.9,6.4-1.3,9.6-1.3
							c4.2,0,7.5,0.7,9.8,2.2c2.3,1.4,3.4,3.5,3.4,6.1c0,2.4-0.8,4.3-2.5,5.6c-1.6,1.3-5.2,2.6-10.8,3.8l-3.1,0.7
							c-5.6,1.2-9.6,3-12.1,5.4c-2.5,2.4-3.7,5.8-3.7,10c0,5.1,1.8,9.1,5.5,11.9c3.6,2.8,8.8,4.2,15.5,4.2c3.3,0,6.4-0.2,9.4-0.7
							C241,54.8,243.7,54.1,246.2,53.1z"/>
					</g>
					<g>
						<path id="DejaVuSans-105_2_" d="M263.4,54.7h9V0h-9V54.7z M263.4,76h9V64.6h-9V76z"/>
					</g>
					<g>
						<path id="DejaVuSans-116_2_" d="M300.1,70.2V54.7h18.5v-7h-18.5V18c0-4.5,0.6-7.3,1.8-8.6s3.7-1.9,7.5-1.9h9.2V0h-9.2
							c-6.9,0-11.7,1.3-14.4,3.9c-2.6,2.6-4,7.3-4,14.1v29.7h-6.6v7h6.6v15.5H300.1z"/>
					</g>
					<g>
						<path id="DejaVuSans-121_2_" d="M353.2-5.1c-2.5-6.5-5-10.8-7.4-12.7c-2.4-2-5.6-3-9.7-3h-7.2v7.5h5.3c2.5,0,4.4,0.6,5.8,1.8
							c1.4,1.2,2.9,3.9,4.5,8.3l1.6,4.1L324,54.7h9.5l17.1-42.8l17.1,42.8h9.5L353.2-5.1z"/>
					</g>
				</g>
			</g>
		</g>
		<g id="line2d_27">
			<g>
				<defs>
					<rect id="SVGID_175_" x="47.8" y="138.4" width="85.2" height="107.7"/>
				</defs>
				<clipPath id="SVGID_176_">
					<use xlink:href="#SVGID_175_"  style="overflow:visible;"/>
				</clipPath>
				<path class="st90" d="M70.7,246l0.6,0l0.6,0l0.6,0l0.6,0l0.6,0l0.6-0.1l0.6-0.1l0.6-0.2l0.6-0.2l0.6-0.3l0.6-0.4l0.6-0.5
					l0.6-0.6l0.6-0.7l0.6-0.7l0.6-0.7l0.6-0.8l0.6-0.9l0.6-1l0.6-1.1l0.6-1.2l0.6-1.4l0.6-1.5l0.6-1.6l0.6-1.7l0.6-1.6l0.6-1.5
					l0.6-1.4l0.6-1.2l0.6-1l0.6-0.9l0.6-0.7l0.6-0.5l0.6-0.3l0.6,0l0.6,0.2l0.6,0.4l0.6,0.6l0.6,0.8l0.6,0.9l0.6,0.9l0.6,0.9
					l0.6,0.8l0.6,0.7l0.6,0.6l0.6,0.5l0.6,0.4l0.6,0.4l0.6,0.5l0.6,0.7l0.6,0.8l0.6,1l0.6,1.2l0.6,1.2l0.6,1.2l0.6,1.1l0.6,1
					l0.6,0.8l0.6,0.6l0.6,0.4l0.6,0.2l0.6-0.1l0.6-0.3l0.6-0.6l0.6-0.9l0.6-1.2l0.6-1.5l0.6-1.7l0.6-1.9l0.6-2l0.6-2.1l0.6-2
					l0.6-1.9l0.6-1.7l0.6-1.5l0.6-1.3l0.6-1l0.6-0.8l0.6-0.5l0.6-0.3l0.6-0.1l0.6,0.2l0.6,0.6l0.6,1.1l0.6,1.6l0.6,2.2l0.6,2.8
					l0.6,3.1l0.6,3.3l0.6,3.2l0.6,2.9l0.6,2.5l0.6,1.9l0.6,1.4l0.6,1l0.6,0.6l0.6,0.4l0.6,0.2l0.6,0.1"/>
			</g>
		</g>
		<g id="patch_98">
			<path class="st22" d="M47.8,246V138.4"/>
		</g>
		<g id="patch_99">
			<path class="st22" d="M133,246V138.4"/>
		</g>
		<g id="patch_100">
			<path class="st22" d="M47.8,246H133"/>
		</g>
		<g id="patch_101">
			<path class="st22" d="M47.8,138.4H133"/>
		</g>
	</g>
	<g id="axes_4">
		<g id="patch_102">
			<path class="st0" d="M151.7,246h85.2V138.4h-85.2V246z"/>
		</g>
		<g id="patch_103">
			<g>
				<defs>
					<rect id="SVGID_177_" x="151.7" y="138.4" width="85.2" height="107.7"/>
				</defs>
				<clipPath id="SVGID_178_">
					<use xlink:href="#SVGID_177_"  style="overflow:visible;"/>
				</clipPath>
				<path class="st91" d="M183,246h2.1v-3H183V246z"/>
			</g>
		</g>
		<g id="patch_104">
			<g>
				<defs>
					<rect id="SVGID_179_" x="151.7" y="138.4" width="85.2" height="107.7"/>
				</defs>
				<clipPath id="SVGID_180_">
					<use xlink:href="#SVGID_179_"  style="overflow:visible;"/>
				</clipPath>
				<path class="st92" d="M185.2,246h2.1v-10.4h-2.1V246z"/>
			</g>
		</g>
		<g id="patch_105">
			<g>
				<defs>
					<rect id="SVGID_181_" x="151.7" y="138.4" width="85.2" height="107.7"/>
				</defs>
				<clipPath id="SVGID_182_">
					<use xlink:href="#SVGID_181_"  style="overflow:visible;"/>
				</clipPath>
				<path class="st93" d="M187.3,246h2.1v-8.8h-2.1V246z"/>
			</g>
		</g>
		<g id="patch_106">
			<g>
				<defs>
					<rect id="SVGID_183_" x="151.7" y="138.4" width="85.2" height="107.7"/>
				</defs>
				<clipPath id="SVGID_184_">
					<use xlink:href="#SVGID_183_"  style="overflow:visible;"/>
				</clipPath>
				<path class="st94" d="M189.5,246h2.1v-13.5h-2.1V246z"/>
			</g>
		</g>
		<g id="patch_107">
			<g>
				<defs>
					<rect id="SVGID_185_" x="151.7" y="138.4" width="85.2" height="107.7"/>
				</defs>
				<clipPath id="SVGID_186_">
					<use xlink:href="#SVGID_185_"  style="overflow:visible;"/>
				</clipPath>
				<path class="st95" d="M191.6,246h2.1v-37.3h-2.1V246z"/>
			</g>
		</g>
		<g id="patch_108">
			<g>
				<defs>
					<rect id="SVGID_187_" x="151.7" y="138.4" width="85.2" height="107.7"/>
				</defs>
				<clipPath id="SVGID_188_">
					<use xlink:href="#SVGID_187_"  style="overflow:visible;"/>
				</clipPath>
				<path class="st96" d="M193.7,246h2.1v-39.5h-2.1V246z"/>
			</g>
		</g>
		<g id="patch_109">
			<g>
				<defs>
					<rect id="SVGID_189_" x="151.7" y="138.4" width="85.2" height="107.7"/>
				</defs>
				<clipPath id="SVGID_190_">
					<use xlink:href="#SVGID_189_"  style="overflow:visible;"/>
				</clipPath>
				<path class="st97" d="M195.9,246h2.1v-15.6h-2.1V246z"/>
			</g>
		</g>
		<g id="patch_110">
			<g>
				<defs>
					<rect id="SVGID_191_" x="151.7" y="138.4" width="85.2" height="107.7"/>
				</defs>
				<clipPath id="SVGID_192_">
					<use xlink:href="#SVGID_191_"  style="overflow:visible;"/>
				</clipPath>
				<path class="st98" d="M198,246h2.1v-7.9H198V246z"/>
			</g>
		</g>
		<g id="patch_111">
			<g>
				<defs>
					<rect id="SVGID_193_" x="151.7" y="138.4" width="85.2" height="107.7"/>
				</defs>
				<clipPath id="SVGID_194_">
					<use xlink:href="#SVGID_193_"  style="overflow:visible;"/>
				</clipPath>
				<path class="st99" d="M200.2,246h2.1v-10.9h-2.1V246z"/>
			</g>
		</g>
		<g id="patch_112">
			<g>
				<defs>
					<rect id="SVGID_195_" x="151.7" y="138.4" width="85.2" height="107.7"/>
				</defs>
				<clipPath id="SVGID_196_">
					<use xlink:href="#SVGID_195_"  style="overflow:visible;"/>
				</clipPath>
				<path class="st100" d="M202.3,246h2.1v-16h-2.1V246z"/>
			</g>
		</g>
		<g id="patch_113">
			<g>
				<defs>
					<rect id="SVGID_197_" x="151.7" y="138.4" width="85.2" height="107.7"/>
				</defs>
				<clipPath id="SVGID_198_">
					<use xlink:href="#SVGID_197_"  style="overflow:visible;"/>
				</clipPath>
				<path class="st101" d="M204.5,246h2.1v-13.9h-2.1V246z"/>
			</g>
		</g>
		<g id="patch_114">
			<g>
				<defs>
					<rect id="SVGID_199_" x="151.7" y="138.4" width="85.2" height="107.7"/>
				</defs>
				<clipPath id="SVGID_200_">
					<use xlink:href="#SVGID_199_"  style="overflow:visible;"/>
				</clipPath>
				<path class="st102" d="M206.6,246h2.1v-20.3h-2.1V246z"/>
			</g>
		</g>
		<g id="patch_115">
			<g>
				<defs>
					<rect id="SVGID_201_" x="151.7" y="138.4" width="85.2" height="107.7"/>
				</defs>
				<clipPath id="SVGID_202_">
					<use xlink:href="#SVGID_201_"  style="overflow:visible;"/>
				</clipPath>
				<path class="st103" d="M208.8,246h2.1v-30.7h-2.1V246z"/>
			</g>
		</g>
		<g id="patch_116">
			<g>
				<defs>
					<rect id="SVGID_203_" x="151.7" y="138.4" width="85.2" height="107.7"/>
				</defs>
				<clipPath id="SVGID_204_">
					<use xlink:href="#SVGID_203_"  style="overflow:visible;"/>
				</clipPath>
				<path class="st104" d="M210.9,246h2.1v-33.9h-2.1V246z"/>
			</g>
		</g>
		<g id="patch_117">
			<g>
				<defs>
					<rect id="SVGID_205_" x="151.7" y="138.4" width="85.2" height="107.7"/>
				</defs>
				<clipPath id="SVGID_206_">
					<use xlink:href="#SVGID_205_"  style="overflow:visible;"/>
				</clipPath>
				<path class="st105" d="M213.1,246h2.1v-26.2h-2.1V246z"/>
			</g>
		</g>
		<g id="patch_118">
			<g>
				<defs>
					<rect id="SVGID_207_" x="151.7" y="138.4" width="85.2" height="107.7"/>
				</defs>
				<clipPath id="SVGID_208_">
					<use xlink:href="#SVGID_207_"  style="overflow:visible;"/>
				</clipPath>
				<path class="st106" d="M215.2,246h2.1v-26.5h-2.1V246z"/>
			</g>
		</g>
		<g id="patch_119">
			<g>
				<defs>
					<rect id="SVGID_209_" x="151.7" y="138.4" width="85.2" height="107.7"/>
				</defs>
				<clipPath id="SVGID_210_">
					<use xlink:href="#SVGID_209_"  style="overflow:visible;"/>
				</clipPath>
				<path class="st107" d="M217.4,246h2.1v-14.7h-2.1V246z"/>
			</g>
		</g>
		<g id="patch_120">
			<g>
				<defs>
					<rect id="SVGID_211_" x="151.7" y="138.4" width="85.2" height="107.7"/>
				</defs>
				<clipPath id="SVGID_212_">
					<use xlink:href="#SVGID_211_"  style="overflow:visible;"/>
				</clipPath>
				<path class="st108" d="M219.5,246h2.1v-10.8h-2.1V246z"/>
			</g>
		</g>
		<g id="patch_121">
			<g>
				<defs>
					<rect id="SVGID_213_" x="151.7" y="138.4" width="85.2" height="107.7"/>
				</defs>
				<clipPath id="SVGID_214_">
					<use xlink:href="#SVGID_213_"  style="overflow:visible;"/>
				</clipPath>
				<path class="st109" d="M221.6,246h2.1v-9.7h-2.1V246z"/>
			</g>
		</g>
		<g id="patch_122">
			<g>
				<defs>
					<rect id="SVGID_215_" x="151.7" y="138.4" width="85.2" height="107.7"/>
				</defs>
				<clipPath id="SVGID_216_">
					<use xlink:href="#SVGID_215_"  style="overflow:visible;"/>
				</clipPath>
				<path class="st110" d="M223.8,246h2.1v-14.6h-2.1V246z"/>
			</g>
		</g>
		<g id="matplotlib.axis_7">
			<g id="xtick_10">
				<g id="line2d_28">
					<g>
						<g>
							<path id="m54c0e73894_9_" class="st20" d="M159,246v3.5"/>
						</g>
					</g>
				</g>
				<g id="text_17">
					<g transform="translate(151.013409 260.638438)scale(0.1 -0.1)">
						<g>
							<path id="DejaVuSans-50_3_" d="M19.2,8.3h34.4V0H7.3v8.3c3.7,3.9,8.8,9.1,15.3,15.6c6.5,6.5,10.5,10.7,12.2,12.6
								c3.2,3.5,5.4,6.5,6.6,9c1.3,2.5,1.9,4.9,1.9,7.3c0,3.9-1.4,7-4.1,9.5c-2.7,2.4-6.3,3.7-10.6,3.7c-3.1,0-6.4-0.5-9.8-1.6
								c-3.4-1.1-7.1-2.7-11-4.9v10c4,1.6,7.7,2.8,11.1,3.6c3.5,0.8,6.6,1.2,9.5,1.2c7.6,0,13.6-1.9,18.1-5.7
								c4.5-3.8,6.7-8.8,6.7-15.1c0-3-0.6-5.8-1.7-8.5c-1.1-2.7-3.2-5.8-6.1-9.5c-0.8-0.9-3.4-3.7-7.8-8.2
								C33.3,22.7,27.1,16.4,19.2,8.3z"/>
						</g>
						<g>
							<path id="DejaVuSans-46_13_" d="M74.3,12.4h10.3V0H74.3V12.4z"/>
						</g>
						<g>
							<path id="DejaVuSans-53_7_" d="M106.2,72.9h38.7v-8.3h-29.7V46.7c1.4,0.5,2.9,0.9,4.3,1.1c1.4,0.2,2.9,0.4,4.3,0.4
								c8.1,0,14.6-2.2,19.3-6.7c4.8-4.5,7.1-10.5,7.1-18.1c0-7.8-2.4-13.9-7.3-18.3c-4.9-4.3-11.8-6.5-20.7-6.5
								c-3.1,0-6.2,0.3-9.4,0.8c-3.2,0.5-6.4,1.3-9.8,2.3v9.9c2.9-1.6,6-2.8,9.1-3.6s6.4-1.2,9.9-1.2c5.6,0,10.1,1.5,13.4,4.4
								c3.3,3,4.9,7,4.9,12.1c0,5.1-1.6,9.1-4.9,12c-3.3,3-7.7,4.5-13.4,4.5c-2.6,0-5.3-0.3-7.9-0.9c-2.6-0.6-5.3-1.5-8-2.7V72.9z"
								/>
						</g>
					</g>
				</g>
			</g>
			<g id="xtick_11">
				<g id="line2d_29">
					<g>
						<g>
							<path id="m54c0e73894_10_" class="st20" d="M196.2,246v3.5"/>
						</g>
					</g>
				</g>
				<g id="text_18">
					<g transform="translate(188.22125 260.638438)scale(0.1 -0.1)">
						<g>
							<path id="DejaVuSans-53_8_" d="M10.8,72.9h38.7v-8.3H19.8V46.7c1.4,0.5,2.9,0.9,4.3,1.1c1.4,0.2,2.9,0.4,4.3,0.4
								c8.1,0,14.6-2.2,19.3-6.7c4.8-4.5,7.1-10.5,7.1-18.1c0-7.8-2.4-13.9-7.3-18.3c-4.9-4.3-11.8-6.5-20.7-6.5
								c-3.1,0-6.2,0.3-9.4,0.8c-3.2,0.5-6.4,1.3-9.8,2.3v9.9c2.9-1.6,6-2.8,9.1-3.6s6.4-1.2,9.9-1.2c5.6,0,10.1,1.5,13.4,4.4
								c3.3,3,4.9,7,4.9,12.1c0,5.1-1.6,9.1-4.9,12c-3.3,3-7.7,4.5-13.4,4.5c-2.6,0-5.3-0.3-7.9-0.9c-2.6-0.6-5.3-1.5-8-2.7V72.9z"
								/>
						</g>
						<g>
							<path id="DejaVuSans-46_14_" d="M74.3,12.4h10.3V0H74.3V12.4z"/>
						</g>
						<g>
							<path id="DejaVuSans-48_11_" d="M127.2,66.4c-5.1,0-8.9-2.5-11.5-7.5c-2.6-5-3.8-12.5-3.8-22.5c0-10,1.3-17.5,3.8-22.5
								c2.6-5,6.4-7.5,11.5-7.5c5.1,0,8.9,2.5,11.5,7.5c2.6,5,3.8,12.5,3.8,22.5c0,10-1.3,17.5-3.8,22.5
								C136.1,63.9,132.3,66.4,127.2,66.4z M127.2,74.2c8.2,0,14.4-3.2,18.7-9.7c4.3-6.5,6.5-15.8,6.5-28.1
								c0-12.3-2.2-21.6-6.5-28.1c-4.3-6.5-10.6-9.7-18.7-9.7c-8.2,0-14.4,3.2-18.7,9.7c-4.3,6.5-6.5,15.8-6.5,28.1
								c0,12.3,2.2,21.7,6.5,28.1C112.8,71,119,74.2,127.2,74.2z"/>
						</g>
					</g>
				</g>
			</g>
			<g id="xtick_12">
				<g id="line2d_30">
					<g>
						<g>
							<path id="m54c0e73894_11_" class="st20" d="M233.4,246v3.5"/>
						</g>
					</g>
				</g>
				<g id="text_19">
					<g transform="translate(225.429091 260.638438)scale(0.1 -0.1)">
						<g>
							<path id="DejaVuSans-55_1_" d="M8.2,72.9h46.9v-4.2L28.6,0H18.3l24.9,64.6h-35V72.9z"/>
						</g>
						<g>
							<path id="DejaVuSans-46_15_" d="M74.3,12.4h10.3V0H74.3V12.4z"/>
						</g>
						<g>
							<path id="DejaVuSans-53_9_" d="M106.2,72.9h38.7v-8.3h-29.7V46.7c1.4,0.5,2.9,0.9,4.3,1.1c1.4,0.2,2.9,0.4,4.3,0.4
								c8.1,0,14.6-2.2,19.3-6.7c4.8-4.5,7.1-10.5,7.1-18.1c0-7.8-2.4-13.9-7.3-18.3c-4.9-4.3-11.8-6.5-20.7-6.5
								c-3.1,0-6.2,0.3-9.4,0.8c-3.2,0.5-6.4,1.3-9.8,2.3v9.9c2.9-1.6,6-2.8,9.1-3.6s6.4-1.2,9.9-1.2c5.6,0,10.1,1.5,13.4,4.4
								c3.3,3,4.9,7,4.9,12.1c0,5.1-1.6,9.1-4.9,12c-3.3,3-7.7,4.5-13.4,4.5c-2.6,0-5.3-0.3-7.9-0.9c-2.6-0.6-5.3-1.5-8-2.7V72.9z"
								/>
						</g>
					</g>
				</g>
			</g>
			<g id="text_20">
				<g transform="translate(157.112933 274.316562)scale(0.1 -0.1)">
					<g>
						<path id="DejaVuSans-86_1_" d="M28.6,0L0.8,72.9h10.3l23.1-61.4l23.1,61.4h10.3L39.8,0H28.6z"/>
					</g>
					<g>
						<path id="DejaVuSans-101_3_" d="M116.9,29.6v-4.4H75.5c0.4-6.2,2.3-10.9,5.6-14.1c3.3-3.2,8-4.9,13.9-4.9
							c3.4,0,6.8,0.4,10,1.3c3.2,0.8,6.5,2.1,9.7,3.8V2.8c-3.2-1.4-6.5-2.4-9.9-3.1c-3.4-0.7-6.8-1.1-10.3-1.1
							c-8.7,0-15.6,2.5-20.7,7.6c-5.1,5.1-7.6,12-7.6,20.6c0,8.9,2.4,16,7.3,21.3C78.3,53.4,84.8,56,93,56c7.4,0,13.2-2.4,17.5-7.1
							C114.7,44.2,116.9,37.7,116.9,29.6z M107.9,32.2c-0.1,4.9-1.4,8.8-4.1,11.8c-2.7,2.9-6.2,4.4-10.7,4.4c-5,0-9-1.4-12-4.3
							c-3-2.8-4.7-6.8-5.2-12L107.9,32.2z"/>
					</g>
					<g>
						<path id="DejaVuSans-108_1_" d="M131.6,76h9V0h-9V76z"/>
					</g>
					<g>
						<path id="DejaVuSans-111_1_" d="M180.6,48.4c-4.8,0-8.6-1.9-11.4-5.6c-2.8-3.8-4.2-8.9-4.2-15.5s1.4-11.7,4.2-15.5
							c2.8-3.8,6.6-5.6,11.5-5.6c4.8,0,8.6,1.9,11.4,5.7c2.8,3.8,4.2,8.9,4.2,15.4c0,6.5-1.4,11.6-4.2,15.4
							C189.2,46.5,185.4,48.4,180.6,48.4z M180.6,56c7.8,0,13.9-2.5,18.4-7.6c4.5-5.1,6.7-12.1,6.7-21.1c0-8.9-2.2-16-6.7-21.1
							c-4.5-5.1-10.6-7.6-18.4-7.6c-7.8,0-14,2.5-18.4,7.6c-4.4,5.1-6.7,12.1-6.7,21.1c0,9,2.2,16,6.7,21.1
							C166.6,53.5,172.7,56,180.6,56z"/>
					</g>
					<g>
						<path id="DejaVuSans-99_1_" d="M259.9,52.6v-8.4c-2.5,1.4-5.1,2.5-7.6,3.2c-2.6,0.7-5.1,1-7.7,1c-5.8,0-10.4-1.8-13.6-5.5
							c-3.2-3.7-4.8-8.9-4.8-15.5s1.6-11.9,4.8-15.6c3.2-3.7,7.8-5.5,13.6-5.5c2.6,0,5.2,0.3,7.7,1c2.6,0.7,5.1,1.8,7.6,3.2V2.1
							c-2.5-1.2-5.1-2-7.8-2.6c-2.7-0.6-5.5-0.9-8.6-0.9c-8.2,0-14.8,2.6-19.6,7.8c-4.8,5.2-7.3,12.2-7.3,21c0,8.9,2.4,15.9,7.3,21
							c4.9,5.1,11.6,7.7,20.2,7.7c2.8,0,5.5-0.3,8.1-0.9C254.9,54.6,257.4,53.7,259.9,52.6z"/>
					</g>
					<g>
						<path id="DejaVuSans-105_3_" d="M275.5,54.7h9V0h-9V54.7z M275.5,76h9V64.6h-9V76z"/>
					</g>
					<g>
						<path id="DejaVuSans-116_3_" d="M312.2,70.2V54.7h18.5v-7h-18.5V18c0-4.5,0.6-7.3,1.8-8.6s3.7-1.9,7.5-1.9h9.2V0h-9.2
							c-6.9,0-11.7,1.3-14.4,3.9c-2.6,2.6-4,7.3-4,14.1v29.7h-6.6v7h6.6v15.5H312.2z"/>
					</g>
					<g>
						<path id="DejaVuSans-121_3_" d="M365.3-5.1c-2.5-6.5-5-10.8-7.4-12.7c-2.4-2-5.6-3-9.7-3H341v7.5h5.3c2.5,0,4.4,0.6,5.8,1.8
							c1.4,1.2,2.9,3.9,4.5,8.3l1.6,4.1l-22.1,53.8h9.5l17.1-42.8l17.1,42.8h9.5L365.3-5.1z"/>
					</g>
					<g>
						<path id="DejaVuSans-32_1_" d="M392.3,0"/>
					</g>
					<g>
						<path id="DejaVuSans-40_1_" d="M455.1,75.9c-4.4-7.5-7.6-14.9-9.7-22.2c-2.1-7.3-3.2-14.7-3.2-22.3c0-7.5,1.1-15,3.2-22.3
							c2.1-7.4,5.4-14.8,9.7-22.3h-7.8c-4.9,7.7-8.5,15.2-11,22.6c-2.4,7.4-3.6,14.7-3.6,22c0,7.3,1.2,14.6,3.6,21.9
							c2.4,7.4,6.1,14.9,11,22.6H455.1z"/>
					</g>
					<g>
						<path id="DejaVuSans-107_1_" d="M472.2,76h9V31.1L508,54.7h11.5l-29-25.6L520.7,0H509l-27.8,26.7V0h-9V76z"/>
					</g>
					<g>
						<path id="DejaVuSans-109_1_" d="M573,44.2c2.3,4,4.9,7,8.1,8.9s6.8,2.9,11,2.9c5.7,0,10.1-2,13.2-6c3.1-4,4.6-9.6,4.6-17V0h-9
							v32.7c0,5.2-0.9,9.1-2.8,11.7c-1.9,2.5-4.7,3.8-8.5,3.8c-4.7,0-8.3-1.5-11-4.6c-2.7-3.1-4-7.3-4-12.6V0h-9v32.7
							c0,5.3-0.9,9.2-2.8,11.7s-4.7,3.8-8.6,3.8c-4.6,0-8.2-1.6-11-4.7c-2.7-3.1-4-7.3-4-12.6V0h-9v54.7h9v-8.5
							c2.1,3.4,4.5,5.8,7.4,7.4c2.9,1.6,6.3,2.4,10.2,2.4c4,0,7.4-1,10.1-3C569.6,51,571.7,48,573,44.2z"/>
					</g>
					<g>
						<path id="DejaVuSans-47_1_" d="M643.8,72.9h8.3L626.7-9.3h-8.3L643.8,72.9z"/>
					</g>
					<g>
						<path id="DejaVuSans-115_3_" d="M696.4,53.1v-8.5c-2.5,1.3-5.2,2.3-7.9,2.9c-2.7,0.7-5.6,1-8.5,1c-4.5,0-7.8-0.7-10-2
							c-2.2-1.4-3.3-3.4-3.3-6.2c0-2.1,0.8-3.7,2.4-4.9s4.8-2.3,9.6-3.4l3.1-0.7c6.4-1.4,10.9-3.3,13.6-5.8s4-6,4-10.4
							c0-5.1-2-9.1-6-12.1c-4-3-9.5-4.4-16.6-4.4c-2.9,0-6,0.3-9.2,0.9c-3.2,0.6-6.5,1.4-10,2.6v9.3c3.3-1.7,6.6-3,9.8-3.9
							c3.2-0.9,6.4-1.3,9.6-1.3c4.2,0,7.5,0.7,9.8,2.2c2.3,1.4,3.4,3.5,3.4,6.1c0,2.4-0.8,4.3-2.5,5.6c-1.6,1.3-5.2,2.6-10.8,3.8
							l-3.1,0.7c-5.6,1.2-9.6,3-12.1,5.4c-2.5,2.4-3.7,5.8-3.7,10c0,5.1,1.8,9.1,5.5,11.9c3.6,2.8,8.8,4.2,15.5,4.2
							c3.3,0,6.4-0.2,9.4-0.7C691.2,54.8,693.9,54.1,696.4,53.1z"/>
					</g>
					<g>
						<path id="DejaVuSans-41_1_" d="M712.2,75.9h7.8c4.9-7.7,8.5-15.2,11-22.6c2.4-7.4,3.6-14.7,3.6-21.9c0-7.3-1.2-14.6-3.6-22
							c-2.4-7.4-6.1-14.9-11-22.6h-7.8c4.3,7.5,7.6,14.9,9.7,22.3c2.1,7.4,3.2,14.8,3.2,22.3c0,7.5-1.1,14.9-3.2,22.3
							C719.8,61,716.6,68.4,712.2,75.9z"/>
					</g>
				</g>
			</g>
		</g>
		<g id="matplotlib.axis_8">
			<g id="ytick_16">
				<g id="line2d_31">
					<g>
						<g>
							<path id="mcc57d46d85_15_" class="st20" d="M151.7,246h-3.5"/>
						</g>
					</g>
				</g>
			</g>
			<g id="ytick_17">
				<g id="line2d_32">
					<g>
						<g>
							<path id="mcc57d46d85_16_" class="st20" d="M151.7,219.8h-3.5"/>
						</g>
					</g>
				</g>
			</g>
			<g id="ytick_18">
				<g id="line2d_33">
					<g>
						<g>
							<path id="mcc57d46d85_17_" class="st20" d="M151.7,193.5h-3.5"/>
						</g>
					</g>
				</g>
			</g>
			<g id="ytick_19">
				<g id="line2d_34">
					<g>
						<g>
							<path id="mcc57d46d85_18_" class="st20" d="M151.7,167.3h-3.5"/>
						</g>
					</g>
				</g>
			</g>
			<g id="ytick_20">
				<g id="line2d_35">
					<g>
						<g>
							<path id="mcc57d46d85_19_" class="st20" d="M151.7,141h-3.5"/>
						</g>
					</g>
				</g>
			</g>
		</g>
		<g id="line2d_36">
			<g>
				<defs>
					<rect id="SVGID_217_" x="151.7" y="138.4" width="85.2" height="107.7"/>
				</defs>
				<clipPath id="SVGID_218_">
					<use xlink:href="#SVGID_217_"  style="overflow:visible;"/>
				</clipPath>
				<path class="st111" d="M177.1,246l0.6,0l0.6,0l0.6,0l0.6-0.1l0.6-0.1l0.6-0.1l0.6-0.2l0.6-0.3l0.6-0.4l0.6-0.5l0.6-0.6l0.6-0.7
					l0.6-0.9l0.6-1l0.6-1.1l0.6-1.2l0.6-1.2l0.6-1.1l0.6-1l0.6-1.1l0.6-1.2l0.6-1.5l0.6-2l0.6-2.5l0.6-2.9l0.6-3l0.6-2.9l0.6-2.5
					l0.6-1.7l0.6-0.7l0.6,0.3l0.6,1.3l0.6,2.2l0.6,2.8l0.6,3.1l0.6,3.1l0.6,2.8l0.6,2.4l0.6,1.8l0.6,1.2l0.6,0.6l0.6,0.2l0.6-0.2
					l0.6-0.5l0.6-0.6l0.6-0.7l0.6-0.7l0.6-0.7l0.6-0.7l0.6-0.7l0.6-0.8l0.6-0.9l0.6-1.1l0.6-1.4l0.6-1.6l0.6-1.7l0.6-1.7l0.6-1.7
					l0.6-1.5l0.6-1.2l0.6-0.8l0.6-0.4l0.6,0l0.6,0.3l0.6,0.6l0.6,0.8l0.6,0.9l0.6,1l0.6,1.1l0.6,1.2l0.6,1.4l0.6,1.5l0.6,1.7
					l0.6,1.7l0.6,1.7l0.6,1.5l0.6,1.3l0.6,1.1l0.6,0.8l0.6,0.6l0.6,0.4l0.6,0.3l0.6,0.2l0.6,0.3l0.6,0.4l0.6,0.5l0.6,0.8l0.6,1
					l0.6,1.2l0.6,1.3l0.6,1.2l0.6,1.1l0.6,0.9l0.6,0.7l0.6,0.4l0.6,0.3l0.6,0.2l0.6,0.1l0.6,0"/>
			</g>
		</g>
		<g id="patch_123">
			<path class="st22" d="M151.7,246V138.4"/>
		</g>
		<g id="patch_124">
			<path class="st22" d="M236.9,246V138.4"/>
		</g>
		<g id="patch_125">
			<path class="st22" d="M151.7,246h85.2"/>
		</g>
		<g id="patch_126">
			<path class="st22" d="M151.7,138.4h85.2"/>
		</g>
	</g>
</g>
<g>
	<rect x="112.8" y="143.1" class="st0" width="16.6" height="19.1"/>
	<path class="st112" d="M117.7,147.5l-3.9-0.7c0.3-1.3,1-2.2,1.9-2.9c0.9-0.7,2.3-1,4-1c2,0,3.4,0.4,4.3,1.1s1.3,1.7,1.3,2.8
		c0,0.7-0.2,1.2-0.5,1.8c-0.4,0.5-0.9,1-1.6,1.4c0.6,0.1,1,0.3,1.3,0.5c0.5,0.3,0.9,0.7,1.2,1.2c0.3,0.5,0.4,1.1,0.4,1.8
		c0,0.9-0.2,1.7-0.7,2.5c-0.5,0.8-1.1,1.4-2,1.9c-0.9,0.4-2,0.7-3.4,0.7c-1.4,0-2.4-0.2-3.2-0.5c-0.8-0.3-1.4-0.8-1.9-1.4
		c-0.5-0.6-0.9-1.4-1.2-2.3l4.2-0.6c0.2,0.8,0.4,1.4,0.8,1.7c0.3,0.3,0.8,0.5,1.3,0.5c0.6,0,1-0.2,1.4-0.6c0.4-0.4,0.6-1,0.6-1.6
		c0-0.7-0.2-1.2-0.5-1.6c-0.4-0.4-0.8-0.6-1.5-0.6c-0.3,0-0.8,0.1-1.4,0.2l0.2-3c0.2,0,0.4,0.1,0.5,0.1c0.5,0,1-0.2,1.4-0.5
		c0.4-0.3,0.5-0.8,0.5-1.2c0-0.5-0.1-0.8-0.4-1.1s-0.6-0.4-1.1-0.4c-0.5,0-0.9,0.1-1.2,0.4C118,146.2,117.8,146.7,117.7,147.5z"/>
</g>
<g>
	<rect x="114.1" y="17.1" class="st0" width="14.7" height="17.3"/>
	<path class="st113" d="M124.4,16.8v15.3h-4.2v-10c-0.7,0.5-1.3,0.9-2,1.3c-0.6,0.3-1.4,0.6-2.4,0.9v-3.4c1.4-0.5,2.5-1,3.3-1.7
		c0.8-0.6,1.4-1.4,1.8-2.4H124.4z"/>
</g>
<g>
	<rect x="217.6" y="17.1" class="st0" width="14.7" height="16.3"/>
	<path class="st114" d="M230.7,32.1h-12.5c0.1-1.2,0.6-2.4,1.3-3.5c0.7-1.1,2.1-2.4,4.1-3.9c1.2-0.9,2-1.6,2.3-2.1
		c0.3-0.5,0.5-0.9,0.5-1.3c0-0.5-0.2-0.8-0.5-1.2c-0.3-0.3-0.8-0.5-1.3-0.5c-0.5,0-1,0.2-1.3,0.5c-0.3,0.3-0.6,0.9-0.7,1.8l-4.2-0.3
		c0.2-1.2,0.5-2.1,0.9-2.8c0.4-0.7,1.1-1.2,1.9-1.5c0.8-0.4,1.9-0.5,3.3-0.5c1.5,0,2.6,0.2,3.4,0.5c0.8,0.3,1.5,0.8,1.9,1.5
		c0.5,0.7,0.7,1.5,0.7,2.3c0,0.9-0.3,1.8-0.8,2.6c-0.5,0.8-1.5,1.8-2.9,2.7c-0.8,0.6-1.4,1-1.7,1.2c-0.3,0.2-0.6,0.5-1,0.9h6.5V32.1
		z"/>
</g>
<g>
	<rect x="217.9" y="143" class="st0" width="20.1" height="19.4"/>
	<path class="st115" d="M225.9,155.2h-7.6v-3.4l7.6-9h3.6v9.2h1.9v3.2h-1.9v2.8h-3.6V155.2z M225.9,152v-4.7l-4,4.7H225.9z"/>
</g>
</svg>
