<svg id="Layer_1" data-name="Layer 1" xmlns="http://www.w3.org/2000/svg" xmlns:xlink="http://www.w3.org/1999/xlink" viewBox="0 0 252 288"><defs><style>.cls-1,.cls-12,.cls-15,.cls-5,.cls-6,.cls-9{fill:none;}.cls-2{clip-path:url(#clip-path);}.cls-3{fill:red;}.cls-11,.cls-14,.cls-3,.cls-8{opacity:0.4;isolation:isolate;}.cls-4,.cls-6{stroke:#000;stroke-width:0.8px;}.cls-12,.cls-15,.cls-4,.cls-5,.cls-9{stroke-linejoin:round;}.cls-5{stroke:red;}.cls-12,.cls-15,.cls-5,.cls-6,.cls-9{stroke-linecap:square;}.cls-12,.cls-15,.cls-5,.cls-9{stroke-width:1.5px;}.cls-7{clip-path:url(#clip-path-21);}.cls-8{fill:blue;}.cls-9{stroke:blue;}.cls-10{clip-path:url(#clip-path-64);}.cls-11{fill:orange;}.cls-12{stroke:orange;}.cls-13{clip-path:url(#clip-path-81);}.cls-14{fill:purple;}.cls-15{stroke:purple;}.cls-16,.cls-17,.cls-18,.cls-19{font-size:21px;font-family:Arial-Black, Arial;font-weight:800;}.cls-16{fill:#ff9815;}.cls-17{fill:#f40000;}.cls-18{fill:#0032ff;}.cls-19{fill:#a500ff;}</style><clipPath id="clip-path"><rect class="cls-1" x="47.81" y="12.29" width="85.24" height="107.67"/></clipPath><clipPath id="clip-path-21"><rect class="cls-1" x="151.65" y="12.29" width="85.24" height="107.67"/></clipPath><clipPath id="clip-path-64"><rect class="cls-1" x="47.81" y="138.37" width="85.24" height="107.67"/></clipPath><clipPath id="clip-path-81"><rect class="cls-1" x="151.65" y="138.37" width="85.24" height="107.67"/></clipPath></defs><g id="figure_1" data-name="figure 1"><g id="patch_1" data-name="patch 1"><path class="cls-1" d="M0,288H252V0H0Z"/></g><g id="axes_1" data-name="axes 1"><g id="patch_2" data-name="patch 2"><path class="cls-1" d="M47.81,120h85.24V12.29H47.81Z"/></g><g id="patch_3" data-name="patch 3"><g class="cls-2"><path class="cls-3" d="M78.87,120h2.27v-4H78.87Z"/></g></g><g id="patch_4" data-name="patch 4"><g class="cls-2"><path class="cls-3" d="M81.14,120h2.28v-3.67H81.14Z"/></g></g><g id="patch_5" data-name="patch 5"><g class="cls-2"><path class="cls-3" d="M83.42,120h2.27v-3.41H83.42Z"/></g></g><g id="patch_6" data-name="patch 6"><g class="cls-2"><path class="cls-3" d="M85.69,120H88v-3.67H85.69Z"/></g></g><g id="patch_7" data-name="patch 7"><g class="cls-2"><path class="cls-3" d="M88,120h2.27v-5H88Z"/></g></g><g id="patch_8" data-name="patch 8"><g class="cls-2"><path class="cls-3" d="M90.24,120h2.28V102.82H90.24Z"/></g></g><g id="patch_9" data-name="patch 9"><g class="cls-2"><path class="cls-3" d="M92.52,120h2.27V80.82H92.52Z"/></g></g><g id="patch_10" data-name="patch 10"><g class="cls-2"><path class="cls-3" d="M94.79,120h2.28V94.48H94.79Z"/></g></g><g id="patch_11" data-name="patch 11"><g class="cls-2"><path class="cls-3" d="M97.07,120h2.27v-14.1H97.07Z"/></g></g><g id="patch_12" data-name="patch 12"><g class="cls-2"><path class="cls-3" d="M99.34,120h2.28V103.52H99.34Z"/></g></g><g id="patch_13" data-name="patch 13"><g class="cls-2"><path class="cls-3" d="M101.62,120h2.27V109.65h-2.27Z"/></g></g><g id="patch_14" data-name="patch 14"><g class="cls-2"><path class="cls-3" d="M103.89,120h2.28V108.45h-2.28Z"/></g></g><g id="patch_15" data-name="patch 15"><g class="cls-2"><path class="cls-3" d="M106.17,120h2.27V110h-2.27Z"/></g></g><g id="patch_16" data-name="patch 16"><g class="cls-2"><path class="cls-3" d="M108.44,120h2.28V102.19h-2.28Z"/></g></g><g id="patch_17" data-name="patch 17"><g class="cls-2"><path class="cls-3" d="M110.72,120H113V93.84h-2.27Z"/></g></g><g id="patch_18" data-name="patch 18"><g class="cls-2"><path class="cls-3" d="M113,120h2.28V89.29H113Z"/></g></g><g id="patch_19" data-name="patch 19"><g class="cls-2"><path class="cls-3" d="M115.27,120h2.27V87.65h-2.27Z"/></g></g><g id="patch_20" data-name="patch 20"><g class="cls-2"><path class="cls-3" d="M117.54,120h2.28V87h-2.28Z"/></g></g><g id="patch_21" data-name="patch 21"><g class="cls-2"><path class="cls-3" d="M119.82,120h2.27V80.12h-2.27Z"/></g></g><g id="matplotlib.axis_1" data-name="matplotlib.axis 1"><g id="xtick_1" data-name="xtick 1"><g id="line2d_1" data-name="line2d 1"><path id="m54c0e73894" class="cls-4" d="M55.12,120v3.5"/></g></g><g id="xtick_2" data-name="xtick 2"><g id="line2d_2" data-name="line2d 2"><path id="m54c0e73894-2" data-name="m54c0e73894" class="cls-4" d="M92.33,120v3.5"/></g></g><g id="xtick_3" data-name="xtick 3"><g id="line2d_3" data-name="line2d 3"><path id="m54c0e73894-3" data-name="m54c0e73894" class="cls-4" d="M129.54,120v3.5"/></g></g></g><g id="matplotlib.axis_2" data-name="matplotlib.axis 2"><g id="ytick_1" data-name="ytick 1"><g id="line2d_4" data-name="line2d 4"><path id="mcc57d46d85" class="cls-4" d="M47.81,120h-3.5"/></g><g id="text_1" data-name="text 1"><path id="DejaVuSans-48" d="M28.09,117.12a1.23,1.23,0,0,0-1.15.75,6.85,6.85,0,0,0,0,4.5,1.26,1.26,0,0,0,2.3,0,6.85,6.85,0,0,0,0-4.5A1.23,1.23,0,0,0,28.09,117.12Zm0-.78a2.11,2.11,0,0,1,1.87,1,6.4,6.4,0,0,1,0,5.62,2.3,2.3,0,0,1-3.75,0,6.49,6.49,0,0,1,0-5.62A2.11,2.11,0,0,1,28.09,116.34Z"/><path id="DejaVuSans-46" d="M32.34,122.52h1v1.24h-1Z"/><path id="DejaVuSans-48-2" data-name="DejaVuSans-48" d="M37.63,117.12a1.23,1.23,0,0,0-1.15.75,6.85,6.85,0,0,0,0,4.5,1.26,1.26,0,0,0,2.3,0,6.85,6.85,0,0,0,0-4.5A1.23,1.23,0,0,0,37.63,117.12Zm0-.78a2.11,2.11,0,0,1,1.87,1,6.4,6.4,0,0,1,0,5.62,2.3,2.3,0,0,1-3.75,0,6.49,6.49,0,0,1,0-5.62A2.12,2.12,0,0,1,37.63,116.34Z"/></g></g><g id="ytick_2" data-name="ytick 2"><g id="line2d_5" data-name="line2d 5"><path id="mcc57d46d85-2" data-name="mcc57d46d85" class="cls-4" d="M47.81,93.7h-3.5"/></g><g id="text_2" data-name="text 2"><path id="DejaVuSans-48-3" data-name="DejaVuSans-48" d="M28.09,90.86a1.23,1.23,0,0,0-1.15.75,6.85,6.85,0,0,0,0,4.5,1.26,1.26,0,0,0,2.3,0,6.85,6.85,0,0,0,0-4.5A1.23,1.23,0,0,0,28.09,90.86Zm0-.78a2.11,2.11,0,0,1,1.87,1,6.4,6.4,0,0,1,0,5.62,2.3,2.3,0,0,1-3.75,0,6.49,6.49,0,0,1,0-5.62A2.11,2.11,0,0,1,28.09,90.08Z"/><path id="DejaVuSans-46-2" data-name="DejaVuSans-46" d="M32.34,96.26h1V97.5h-1Z"/><path id="DejaVuSans-53" d="M35.53,90.21H39.4V91h-3v1.79a2.26,2.26,0,0,1,.43-.11,2.09,2.09,0,0,1,.43,0,2.73,2.73,0,0,1,1.93.67,2.36,2.36,0,0,1,.72,1.81A2.31,2.31,0,0,1,39.2,97a2.94,2.94,0,0,1-2.06.65,6,6,0,0,1-.94-.07,8.19,8.19,0,0,1-1-.24v-1a3.92,3.92,0,0,0,.91.36,4.48,4.48,0,0,0,1,.11,2,2,0,0,0,1.34-.44A1.58,1.58,0,0,0,39,95.16a1.54,1.54,0,0,0-.49-1.2,1.92,1.92,0,0,0-1.34-.45,3.48,3.48,0,0,0-.79.09,4.44,4.44,0,0,0-.8.27Z"/></g></g><g id="ytick_3" data-name="ytick 3"><g id="line2d_6" data-name="line2d 6"><path id="mcc57d46d85-3" data-name="mcc57d46d85" class="cls-4" d="M47.81,67.44h-3.5"/></g><g id="text_3" data-name="text 3"><path id="DejaVuSans-49" d="M26.15,70.41h1.61V64.85L26,65.2v-.9L27.75,64h1v6.46h1.61v.83h-4.2Z"/><path id="DejaVuSans-46-3" data-name="DejaVuSans-46" d="M32.34,70h1v1.24h-1Z"/><path id="DejaVuSans-48-4" data-name="DejaVuSans-48" d="M37.63,64.6a1.23,1.23,0,0,0-1.15.75,6.85,6.85,0,0,0,0,4.5,1.26,1.26,0,0,0,2.3,0,6.85,6.85,0,0,0,0-4.5A1.23,1.23,0,0,0,37.63,64.6Zm0-.78a2.11,2.11,0,0,1,1.87,1,6.42,6.42,0,0,1,0,5.63,2.3,2.3,0,0,1-3.75,0,6.51,6.51,0,0,1,0-5.63A2.12,2.12,0,0,1,37.63,63.82Z"/></g></g><g id="ytick_4" data-name="ytick 4"><g id="line2d_7" data-name="line2d 7"><path id="mcc57d46d85-4" data-name="mcc57d46d85" class="cls-4" d="M47.81,41.19h-3.5"/></g><g id="text_4" data-name="text 4"><path id="DejaVuSans-49-2" data-name="DejaVuSans-49" d="M26.15,44.16h1.61V38.59L26,38.94v-.89l1.74-.36h1v6.47h1.61V45h-4.2Z"/><path id="DejaVuSans-46-4" data-name="DejaVuSans-46" d="M32.34,43.74h1V45h-1Z"/><path id="DejaVuSans-53-2" data-name="DejaVuSans-53" d="M35.53,37.69H39.4v.84h-3v1.78a3.39,3.39,0,0,1,.43-.11,3.11,3.11,0,0,1,.43,0,2.68,2.68,0,0,1,1.93.67,2.63,2.63,0,0,1,0,3.64,3,3,0,0,1-2.06.65,6.07,6.07,0,0,1-.94-.08,8.08,8.08,0,0,1-1-.23v-1a3.87,3.87,0,0,0,1.9.48,1.92,1.92,0,0,0,1.34-.45,1.56,1.56,0,0,0,.49-1.2,1.58,1.58,0,0,0-.49-1.21A1.92,1.92,0,0,0,37.12,41a4.15,4.15,0,0,0-.79.08,3.82,3.82,0,0,0-.8.28Z"/></g></g><g id="ytick_5" data-name="ytick 5"><g id="line2d_8" data-name="line2d 8"><path id="mcc57d46d85-5" data-name="mcc57d46d85" class="cls-4" d="M47.81,14.93h-3.5"/></g><g id="text_5" data-name="text 5"><path id="DejaVuSans-50" d="M26.83,17.9h3.44v.83H25.64V17.9q.55-.58,1.53-1.56c.65-.65,1-1.08,1.22-1.27a4.77,4.77,0,0,0,.66-.9,1.49,1.49,0,0,0,.19-.72,1.23,1.23,0,0,0-.41-.95,1.55,1.55,0,0,0-1.06-.36,3.18,3.18,0,0,0-1,.16,5.41,5.41,0,0,0-1.1.49v-1a7.87,7.87,0,0,1,1.11-.36,4.25,4.25,0,0,1,.95-.12,2.72,2.72,0,0,1,1.81.56,1.91,1.91,0,0,1,.67,1.52,2.22,2.22,0,0,1-.17.85,4.32,4.32,0,0,1-.61.95l-.78.82Z"/><path id="DejaVuSans-46-5" data-name="DejaVuSans-46" d="M32.34,17.49h1v1.24h-1Z"/><path id="DejaVuSans-48-5" data-name="DejaVuSans-48" d="M37.63,12.09a1.23,1.23,0,0,0-1.15.75,5.21,5.21,0,0,0-.38,2.25,5.21,5.21,0,0,0,.38,2.25,1.26,1.26,0,0,0,2.3,0,5.21,5.21,0,0,0,.38-2.25,5.21,5.21,0,0,0-.38-2.25A1.23,1.23,0,0,0,37.63,12.09Zm0-.78a2.11,2.11,0,0,1,1.87,1,5.05,5.05,0,0,1,.65,2.81,5.08,5.08,0,0,1-.65,2.81,2.3,2.3,0,0,1-3.75,0,5.08,5.08,0,0,1-.64-2.81,5.06,5.06,0,0,1,.64-2.81A2.12,2.12,0,0,1,37.63,11.31Z"/></g></g><g id="text_6" data-name="text 6"><path id="DejaVuSans-68" d="M12.35,83.17H18V82a3.06,3.06,0,0,0-.69-2.21,2.92,2.92,0,0,0-2.16-.7,2.9,2.9,0,0,0-2.14.7A3.06,3.06,0,0,0,12.35,82Zm-.81,1v-2A4.57,4.57,0,0,1,12.42,79a3.47,3.47,0,0,1,2.75-1,3.53,3.53,0,0,1,2.77,1,4.58,4.58,0,0,1,.89,3.11v2Z"/><path id="DejaVuSans-101" d="M15.87,71.81h.44v4.13a2,2,0,0,0,1.41-.56A1.91,1.91,0,0,0,18.21,74a4.21,4.21,0,0,0-.51-2h.85a5.38,5.38,0,0,1,.31,1A5.15,5.15,0,0,1,19,74a2.62,2.62,0,0,1-2.82,2.84A3,3,0,0,1,14,76.16a2.53,2.53,0,0,1-.79-2,2.2,2.2,0,0,1,.71-1.74A2.75,2.75,0,0,1,15.87,71.81Zm-.27.9a1.75,1.75,0,0,0-1.17.41A1.37,1.37,0,0,0,14,74.19a1.69,1.69,0,0,0,.42,1.2,1.76,1.76,0,0,0,1.2.52Z"/><path id="DejaVuSans-110" d="M15.53,65.79h3.3v.9H15.56a1.9,1.9,0,0,0-1.17.3,1.12,1.12,0,0,0-.38.91,1.46,1.46,0,0,0,.46,1.15,1.82,1.82,0,0,0,1.27.42h3.09v.9H13.36v-.9h.85a2.23,2.23,0,0,1-.74-.76,2.07,2.07,0,0,1-.24-1,1.72,1.72,0,0,1,.58-1.42A2.59,2.59,0,0,1,15.53,65.79Z"/><path id="DejaVuSans-115" d="M13.52,60.51h.85A3.71,3.71,0,0,0,14,62.16a2,2,0,0,0,.2,1,.69.69,0,0,0,.62.33.58.58,0,0,0,.49-.24,2.85,2.85,0,0,0,.34-1L15.7,62a2.89,2.89,0,0,1,.58-1.36,1.36,1.36,0,0,1,1-.4,1.43,1.43,0,0,1,1.21.6A2.82,2.82,0,0,1,19,62.48a5,5,0,0,1-.09.92,7,7,0,0,1-.25,1H17.7a5.26,5.26,0,0,0,.39-1,4,4,0,0,0,.13-1,1.83,1.83,0,0,0-.22-1,.7.7,0,0,0-.61-.35.68.68,0,0,0-.56.25,3.08,3.08,0,0,0-.38,1.08l-.07.32a2.49,2.49,0,0,1-.54,1.2,1.34,1.34,0,0,1-1,.37,1.39,1.39,0,0,1-1.19-.55,2.49,2.49,0,0,1-.42-1.55,5.49,5.49,0,0,1,.07-.93A3.93,3.93,0,0,1,13.52,60.51Z"/><path id="DejaVuSans-105" d="M13.36,58.79v-.9h5.47v.9Zm-2.13,0v-.9h1.14v.9Z"/><path id="DejaVuSans-116" d="M11.81,55.12h1.55V53.27h.7v1.85h3a1.32,1.32,0,0,0,.85-.18,1,1,0,0,0,.2-.74v-.93h.75v.93a2,2,0,0,1-.39,1.43A2,2,0,0,1,17,56h-3v.66h-.7V56H11.81Z"/><path id="DejaVuSans-121" d="M19.33,49.82a3.2,3.2,0,0,1,1.28.74,1.45,1.45,0,0,1,.3,1v.72h-.75v-.52a.86.86,0,0,0-.18-.58,2.11,2.11,0,0,0-.83-.45l-.41-.17-5.38,2.22v-1l4.27-1.71-4.27-1.7v-1Z"/></g></g><g id="line2d_9" data-name="line2d 9"><g class="cls-2"><path class="cls-5" d="M72.8,120h.56l.56,0,.55,0,.56-.06.56-.1.56-.16.56-.23.56-.3.56-.37.56-.41.56-.43.56-.4.56-.34.56-.25.56-.16.56-.08.55,0h1.12l.56,0,.56-.07.56-.11.56-.14.56-.2.56-.29.56-.47.56-.71.56-1,.56-1.45.56-1.9.55-2.39.56-2.81.56-3.13.56-3.26.56-3.13.56-2.68.56-1.93.56-1,.56.1.56,1.09.56,1.85.56,2.29.56,2.38.56,2.17.55,1.79.56,1.38.56,1,.56.8.56.67.56.62.56.61.56.58.56.51.56.41.56.3.56.2.56.1h.56l.56-.12.55-.28.56-.49.56-.75.56-1,.56-1.33.56-1.57.56-1.7.56-1.75.56-1.71.56-1.62.56-1.52.56-1.41.56-1.34.56-1.24.55-1.1.56-.93.56-.69.56-.44.56-.19.56,0,.56.2.56.36.56.51.56.73.56,1.05.56,1.49.56,2,.56,2.65.55,3.18.56,3.53.56,3.59.56,3.38.56,2.93.56,2.33.56,1.71.56,1.16.56.73.56.41.56.23.56.11"/></g></g><g id="patch_22" data-name="patch 22"><path class="cls-6" d="M47.81,120V12.29"/></g><g id="patch_23" data-name="patch 23"><path class="cls-6" d="M133.05,120V12.29"/></g><g id="patch_24" data-name="patch 24"><path class="cls-6" d="M47.81,120h85.24"/></g><g id="patch_25" data-name="patch 25"><path class="cls-6" d="M47.81,12.29h85.24"/></g></g><g id="axes_2" data-name="axes 2"><g id="patch_26" data-name="patch 26"><path class="cls-1" d="M151.65,120h85.24V12.29H151.65Z"/></g><g id="patch_27" data-name="patch 27"><g class="cls-7"><path class="cls-8" d="M163.58,120h1.14V86.84h-1.14Z"/></g></g><g id="patch_28" data-name="patch 28"><g class="cls-7"><path class="cls-8" d="M164.72,120h1.13V52.82h-1.13Z"/></g></g><g id="patch_29" data-name="patch 29"><g class="cls-7"><path class="cls-8" d="M165.85,120H167V36h-1.13Z"/></g></g><g id="patch_30" data-name="patch 30"><g class="cls-7"><path class="cls-8" d="M167,120h1.14V53H167Z"/></g></g><g id="patch_31" data-name="patch 31"><g class="cls-7"><path class="cls-8" d="M168.12,120h1.13V17.42h-1.13Z"/></g></g><g id="patch_32" data-name="patch 32"><g class="cls-7"><path class="cls-8" d="M169.25,120h1.14V65.52h-1.14Z"/></g></g><g id="patch_33" data-name="patch 33"><g class="cls-7"><path class="cls-8" d="M170.39,120h1.13V59h-1.13Z"/></g></g><g id="patch_34" data-name="patch 34"><g class="cls-7"><path class="cls-8" d="M171.52,120h1.13V76.18h-1.13Z"/></g></g><g id="patch_35" data-name="patch 35"><g class="cls-7"><path class="cls-8" d="M172.65,120h1.14v-6.47h-1.14Z"/></g></g><g id="patch_44" data-name="patch 44"><g class="cls-7"><path class="cls-8" d="M182.85,120H184v-2.54h-1.14Z"/></g></g><g id="patch_45" data-name="patch 45"><g class="cls-7"><path class="cls-8" d="M184,120h1.13v-2.54H184Z"/></g></g><g id="patch_46" data-name="patch 46"><g class="cls-7"><path class="cls-8" d="M185.12,120h1.14v-2.41h-1.14Z"/></g></g><g id="patch_47" data-name="patch 47"><g class="cls-7"><path class="cls-8" d="M186.26,120h1.13v-1h-1.13Z"/></g></g><g id="patch_48" data-name="patch 48"><g class="cls-7"><path class="cls-8" d="M187.39,120h1.13v-3.81h-1.13Z"/></g></g><g id="patch_49" data-name="patch 49"><g class="cls-7"><path class="cls-8" d="M188.52,120h1.14v-8.5h-1.14Z"/></g></g><g id="patch_50" data-name="patch 50"><g class="cls-7"><path class="cls-8" d="M189.66,120h1.13V109.3h-1.13Z"/></g></g><g id="patch_51" data-name="patch 51"><g class="cls-7"><path class="cls-8" d="M190.79,120h1.13v-5.84h-1.13Z"/></g></g><g id="patch_52" data-name="patch 52"><g class="cls-7"><path class="cls-8" d="M191.92,120h1.14V116h-1.14Z"/></g></g><g id="patch_53" data-name="patch 53"><g class="cls-7"><path class="cls-8" d="M193.06,120h1.13v-.63h-1.13Z"/></g></g><g id="patch_54" data-name="patch 54"><g class="cls-7"><path class="cls-8" d="M194.19,120h1.13v-3.3h-1.13Z"/></g></g><g id="patch_55" data-name="patch 55"><g class="cls-7"><path class="cls-8" d="M195.32,120h1.14v-2h-1.14Z"/></g></g><g id="patch_56" data-name="patch 56"><g class="cls-7"><path class="cls-8" d="M196.46,120h1.13v-3.81h-1.13Z"/></g></g><g id="patch_57" data-name="patch 57"><g class="cls-7"><path class="cls-8" d="M197.59,120h1.13v-7.49h-1.13Z"/></g></g><g id="patch_58" data-name="patch 58"><g class="cls-7"><path class="cls-8" d="M198.72,120h1.14v-4.57h-1.14Z"/></g></g><g id="patch_59" data-name="patch 59"><g class="cls-7"><path class="cls-8" d="M199.86,120H201v-11.8h-1.13Z"/></g></g><g id="patch_60" data-name="patch 60"><g class="cls-7"><path class="cls-8" d="M201,120h1.14V108.28H201Z"/></g></g><g id="patch_61" data-name="patch 61"><g class="cls-7"><path class="cls-8" d="M202.13,120h1.13V107.4h-1.13Z"/></g></g><g id="patch_62" data-name="patch 62"><g class="cls-7"><path class="cls-8" d="M203.26,120h1.13V107.78h-1.13Z"/></g></g><g id="patch_63" data-name="patch 63"><g class="cls-7"><path class="cls-8" d="M204.39,120h1.14v-6.09h-1.14Z"/></g></g><g id="patch_64" data-name="patch 64"><g class="cls-7"><path class="cls-8" d="M205.53,120h1.13v-5.71h-1.13Z"/></g></g><g id="patch_65" data-name="patch 65"><g class="cls-7"><path class="cls-8" d="M206.66,120h1.13v-4.19h-1.13Z"/></g></g><g id="patch_66" data-name="patch 66"><g class="cls-7"><path class="cls-8" d="M207.79,120h1.14v-9.9h-1.14Z"/></g></g><g id="patch_67" data-name="patch 67"><g class="cls-7"><path class="cls-8" d="M208.93,120h1.13V111.2h-1.13Z"/></g></g><g id="patch_68" data-name="patch 68"><g class="cls-7"><path class="cls-8" d="M210.06,120h1.13V115h-1.13Z"/></g></g><g id="patch_69" data-name="patch 69"><g class="cls-7"><path class="cls-8" d="M211.19,120h1.14v-4.57h-1.14Z"/></g></g><g id="patch_70" data-name="patch 70"><g class="cls-7"><path class="cls-8" d="M212.33,120h1.13v-3.43h-1.13Z"/></g></g><g id="patch_71" data-name="patch 71"><g class="cls-7"><path class="cls-8" d="M213.46,120h1.13v-1.14h-1.13Z"/></g></g><g id="patch_72" data-name="patch 72"><g class="cls-7"><path class="cls-8" d="M214.59,120h1.14v-.38h-1.14Z"/></g></g><g id="patch_73" data-name="patch 73"><g class="cls-7"><path class="cls-8" d="M215.73,120h1.13v-2.41h-1.13Z"/></g></g><g id="patch_74" data-name="patch 74"><g class="cls-7"><path class="cls-8" d="M216.86,120H218v-3.68h-1.14Z"/></g></g><g id="patch_75" data-name="patch 75"><g class="cls-7"><path class="cls-8" d="M218,120h1.13v-2H218Z"/></g></g><g id="patch_76" data-name="patch 76"><g class="cls-7"><path class="cls-8" d="M219.13,120h1.13v-1.52h-1.13Z"/></g></g><g id="matplotlib.axis_3" data-name="matplotlib.axis 3"><g id="xtick_4" data-name="xtick 4"><g id="line2d_10" data-name="line2d 10"><path id="m54c0e73894-4" data-name="m54c0e73894" class="cls-4" d="M159,120v3.5"/></g></g><g id="xtick_5" data-name="xtick 5"><g id="line2d_11" data-name="line2d 11"><path id="m54c0e73894-5" data-name="m54c0e73894" class="cls-4" d="M196.17,120v3.5"/></g></g><g id="xtick_6" data-name="xtick 6"><g id="line2d_12" data-name="line2d 12"><path id="m54c0e73894-6" data-name="m54c0e73894" class="cls-4" d="M233.38,120v3.5"/></g></g></g><g id="matplotlib.axis_4" data-name="matplotlib.axis 4"><g id="ytick_6" data-name="ytick 6"><g id="line2d_13" data-name="line2d 13"><path id="mcc57d46d85-6" data-name="mcc57d46d85" class="cls-4" d="M151.65,120h-3.5"/></g></g><g id="ytick_7" data-name="ytick 7"><g id="line2d_14" data-name="line2d 14"><path id="mcc57d46d85-7" data-name="mcc57d46d85" class="cls-4" d="M151.65,93.7h-3.5"/></g></g><g id="ytick_8" data-name="ytick 8"><g id="line2d_15" data-name="line2d 15"><path id="mcc57d46d85-8" data-name="mcc57d46d85" class="cls-4" d="M151.65,67.44h-3.5"/></g></g><g id="ytick_9" data-name="ytick 9"><g id="line2d_16" data-name="line2d 16"><path id="mcc57d46d85-9" data-name="mcc57d46d85" class="cls-4" d="M151.65,41.19h-3.5"/></g></g><g id="ytick_10" data-name="ytick 10"><g id="line2d_17" data-name="line2d 17"><path id="mcc57d46d85-10" data-name="mcc57d46d85" class="cls-4" d="M151.65,14.93h-3.5"/></g></g></g><g id="line2d_18" data-name="line2d 18"><g class="cls-7"><path class="cls-9" d="M155.53,119.91l.73-.07.74-.15.74-.32.73-.62.74-1.09.73-1.82.74-2.81.73-4,.74-5.37.73-6.67.74-7.66.73-8.14.74-8,.73-7.06.74-5.53.73-3.52.74-1.24.73,1.08.74,3.26.73,5.11.74,6.52.73,7.4.74,7.68.74,7.43.73,6.7.74,5.65.73,4.46.74,3.28.73,2.25.74,1.42.73.83.74.4.73.14.74,0,.73-.15L182,119l.73-.29.74-.34.73-.39.74-.43.73-.49.74-.54.73-.55.74-.54.73-.45.74-.31.74-.13.73.08.74.23.73.34.74.35.73.28.74.13.73-.06.74-.28.73-.48.74-.66.73-.77.74-.84.73-.82.74-.72.73-.56.74-.33.73-.07.74.15.73.35.74.45.74.49.73.46.74.39.73.35.74.32.73.36.74.41.73.49.74.54.73.57.74.55.73.49.74.4.73.31.74.23.73.18.74.17.73.18.74.21.73.23.74.25.74.24.73.22.74.19.73.14.74.11.73.06.74,0,.73,0,.74,0h1.47"/></g></g><g id="patch_77" data-name="patch 77"><path class="cls-6" d="M151.65,120V12.29"/></g><g id="patch_78" data-name="patch 78"><path class="cls-6" d="M236.89,120V12.29"/></g><g id="patch_79" data-name="patch 79"><path class="cls-6" d="M151.65,120h85.24"/></g><g id="patch_80" data-name="patch 80"><path class="cls-6" d="M151.65,12.29h85.24"/></g></g><g id="axes_3" data-name="axes 3"><g id="patch_81" data-name="patch 81"><path class="cls-1" d="M47.81,246h85.24V138.37H47.81Z"/></g><g id="patch_82" data-name="patch 82"><g class="cls-10"><path class="cls-11" d="M77.82,246h2.77v-3.48H77.82Z"/></g></g><g id="patch_83" data-name="patch 83"><g class="cls-10"><path class="cls-11" d="M80.59,246h2.76v-5.72H80.59Z"/></g></g><g id="patch_84" data-name="patch 84"><g class="cls-10"><path class="cls-11" d="M83.35,246h2.77V233.41H83.35Z"/></g></g><g id="patch_85" data-name="patch 85"><g class="cls-10"><path class="cls-11" d="M86.12,246h2.77V222H86.12Z"/></g></g><g id="patch_86" data-name="patch 86"><g class="cls-10"><path class="cls-11" d="M88.89,246h2.76V220.57H88.89Z"/></g></g><g id="patch_87" data-name="patch 87"><g class="cls-10"><path class="cls-11" d="M91.65,246h2.77V223.17H91.65Z"/></g></g><g id="patch_88" data-name="patch 88"><g class="cls-10"><path class="cls-11" d="M94.42,246h2.77V224.41H94.42Z"/></g></g><g id="patch_89" data-name="patch 89"><g class="cls-10"><path class="cls-11" d="M97.19,246H100V230.39H97.19Z"/></g></g><g id="patch_90" data-name="patch 90"><g class="cls-10"><path class="cls-11" d="M100,246h2.76V229.51H100Z"/></g></g><g id="patch_91" data-name="patch 91"><g class="cls-10"><path class="cls-11" d="M102.72,246h2.77v-5.77h-2.77Z"/></g></g><g id="patch_92" data-name="patch 92"><g class="cls-10"><path class="cls-11" d="M105.49,246h2.77v-5h-2.77Z"/></g></g><g id="patch_93" data-name="patch 93"><g class="cls-10"><path class="cls-11" d="M108.26,246H111v-5.93h-2.77Z"/></g></g><g id="patch_94" data-name="patch 94"><g class="cls-10"><path class="cls-11" d="M111,246h2.76V228.52H111Z"/></g></g><g id="patch_95" data-name="patch 95"><g class="cls-10"><path class="cls-11" d="M113.79,246h2.77V217.29h-2.77Z"/></g></g><g id="patch_96" data-name="patch 96"><g class="cls-10"><path class="cls-11" d="M116.56,246h2.77V217.45h-2.77Z"/></g></g><g id="patch_97" data-name="patch 97"><g class="cls-10"><path class="cls-11" d="M119.33,246h2.76V203.2h-2.76Z"/></g></g><g id="matplotlib.axis_5" data-name="matplotlib.axis 5"><g id="xtick_7" data-name="xtick 7"><g id="line2d_19" data-name="line2d 19"><path id="m54c0e73894-7" data-name="m54c0e73894" class="cls-4" d="M55.12,246v3.5"/></g><g id="text_7" data-name="text 7"><path id="DejaVuSans-50-2" data-name="DejaVuSans-50" d="M49.09,259.81h3.44v.83H47.9v-.83l1.53-1.56c.65-.65,1-1.08,1.22-1.26a4.52,4.52,0,0,0,.66-.9,1.56,1.56,0,0,0,.19-.73,1.23,1.23,0,0,0-.41-1,1.53,1.53,0,0,0-1.06-.36,3.18,3.18,0,0,0-1,.16,5.41,5.41,0,0,0-1.1.49v-1a7.87,7.87,0,0,1,1.11-.36,4.25,4.25,0,0,1,.95-.12,2.76,2.76,0,0,1,1.81.56,1.88,1.88,0,0,1,.67,1.52,2.22,2.22,0,0,1-.17.85,4,4,0,0,1-.61,1c-.08.09-.34.37-.78.82Z"/><path id="DejaVuSans-46-6" data-name="DejaVuSans-46" d="M54.6,259.4h1v1.24h-1Z"/><path id="DejaVuSans-53-3" data-name="DejaVuSans-53" d="M57.79,253.35h3.87v.83h-3V256a3.34,3.34,0,0,1,.43-.1,2.09,2.09,0,0,1,.43,0,2.67,2.67,0,0,1,1.93.67,2.65,2.65,0,0,1,0,3.64,3,3,0,0,1-2.07.65,6.07,6.07,0,0,1-.94-.08,8.08,8.08,0,0,1-1-.23v-1a3.89,3.89,0,0,0,.91.35,4,4,0,0,0,1,.12,2,2,0,0,0,1.34-.44,1.74,1.74,0,0,0,0-2.42,2,2,0,0,0-1.34-.44,3.55,3.55,0,0,0-.79.09,4.44,4.44,0,0,0-.8.27Z"/></g></g><g id="xtick_8" data-name="xtick 8"><g id="line2d_20" data-name="line2d 20"><path id="m54c0e73894-8" data-name="m54c0e73894" class="cls-4" d="M92.33,246v3.5"/></g><g id="text_8" data-name="text 8"><path id="DejaVuSans-53-4" data-name="DejaVuSans-53" d="M85.46,253.35h3.87v.83h-3V256a3,3,0,0,1,.43-.1,2,2,0,0,1,.43,0,2.68,2.68,0,0,1,1.93.67,2.63,2.63,0,0,1,0,3.64,3,3,0,0,1-2.06.65,6.07,6.07,0,0,1-.94-.08,7.66,7.66,0,0,1-1-.23v-1a3.72,3.72,0,0,0,.91.35,4,4,0,0,0,1,.12,1.92,1.92,0,0,0,1.33-.44,1.71,1.71,0,0,0,0-2.42,1.92,1.92,0,0,0-1.33-.44,3.48,3.48,0,0,0-.79.09,4.44,4.44,0,0,0-.8.27Z"/><path id="DejaVuSans-46-7" data-name="DejaVuSans-46" d="M91.81,259.4h1v1.24h-1Z"/><path id="DejaVuSans-48-6" data-name="DejaVuSans-48" d="M97.1,254a1.23,1.23,0,0,0-1.15.75,6.85,6.85,0,0,0,0,4.5,1.26,1.26,0,0,0,2.3,0,6.85,6.85,0,0,0,0-4.5A1.23,1.23,0,0,0,97.1,254Zm0-.78a2.11,2.11,0,0,1,1.87,1,6.4,6.4,0,0,1,0,5.62,2.3,2.3,0,0,1-3.75,0,6.49,6.49,0,0,1,0-5.62A2.11,2.11,0,0,1,97.1,253.22Z"/></g></g><g id="xtick_9" data-name="xtick 9"><g id="line2d_21" data-name="line2d 21"><path id="m54c0e73894-9" data-name="m54c0e73894" class="cls-4" d="M129.54,246v3.5"/></g><g id="text_9" data-name="text 9"><path id="DejaVuSans-55" d="M122.4,253.35h4.69v.42l-2.64,6.87h-1l2.49-6.46H122.4Z"/><path id="DejaVuSans-46-8" data-name="DejaVuSans-46" d="M129,259.4h1v1.24h-1Z"/><path id="DejaVuSans-53-5" data-name="DejaVuSans-53" d="M132.2,253.35h3.88v.83h-3V256a3,3,0,0,1,.43-.1,2,2,0,0,1,.43,0,2.68,2.68,0,0,1,1.93.67,2.66,2.66,0,0,1,0,3.64,3,3,0,0,1-2.06.65,6.07,6.07,0,0,1-.94-.08,7.66,7.66,0,0,1-1-.23v-1a3.81,3.81,0,0,0,.9.35,4.09,4.09,0,0,0,1,.12,1.94,1.94,0,0,0,1.33-.44,1.71,1.71,0,0,0,0-2.42,1.94,1.94,0,0,0-1.33-.44,3.48,3.48,0,0,0-.79.09,4.53,4.53,0,0,0-.81.27Z"/></g></g><g id="text_10" data-name="text 10"><path id="DejaVuSans-86" d="M56.13,274.32,53.35,267h1l2.31,6.13L59,267h1l-2.78,7.29Z"/><path id="DejaVuSans-101-2" data-name="DejaVuSans-101" d="M65,271.36v.44H60.82a2.1,2.1,0,0,0,.56,1.41,2,2,0,0,0,1.4.49,4.15,4.15,0,0,0,1-.13,4.26,4.26,0,0,0,1-.38V274a5.68,5.68,0,0,1-1,.31,5.07,5.07,0,0,1-1,.11,2.62,2.62,0,0,1-2.83-2.82,3,3,0,0,1,.72-2.13,2.52,2.52,0,0,1,2-.79,2.21,2.21,0,0,1,1.74.71A2.74,2.74,0,0,1,65,271.36Zm-.89-.27a1.7,1.7,0,0,0-.42-1.17,1.35,1.35,0,0,0-1.06-.44,1.7,1.7,0,0,0-1.21.42,1.83,1.83,0,0,0-.52,1.2Z"/><path id="DejaVuSans-108" d="M66.43,266.72h.9v7.6h-.9Z"/><path id="DejaVuSans-111" d="M71.33,269.48a1.36,1.36,0,0,0-1.15.56,2.55,2.55,0,0,0-.42,1.55,2.51,2.51,0,0,0,.42,1.54,1.42,1.42,0,0,0,2.28,0,3,3,0,0,0,0-3.08A1.34,1.34,0,0,0,71.33,269.48Zm0-.76a2.32,2.32,0,0,1,1.84.76,3.64,3.64,0,0,1,0,4.21,2.6,2.6,0,0,1-3.69,0,3.69,3.69,0,0,1,0-4.21A2.33,2.33,0,0,1,71.33,268.72Z"/><path id="DejaVuSans-99" d="M79.26,269.06v.84a3.52,3.52,0,0,0-.76-.32,3,3,0,0,0-.78-.1,1.72,1.72,0,0,0-1.36.55,2.76,2.76,0,0,0,0,3.11,1.73,1.73,0,0,0,1.36.56,3,3,0,0,0,.78-.11,3.47,3.47,0,0,0,.76-.31v.83a4.2,4.2,0,0,1-.78.26,3.91,3.91,0,0,1-.86.09,2.56,2.56,0,0,1-2-.78,3.37,3.37,0,0,1,0-4.2,2.65,2.65,0,0,1,2-.76,4.28,4.28,0,0,1,.81.08A3.49,3.49,0,0,1,79.26,269.06Z"/><path id="DejaVuSans-105-2" data-name="DejaVuSans-105" d="M80.82,268.85h.9v5.47h-.9Zm0-2.13h.9v1.14h-.9Z"/><path id="DejaVuSans-116-2" data-name="DejaVuSans-116" d="M84.49,267.29v1.56h1.85v.7H84.49v3a1.34,1.34,0,0,0,.18.86,1,1,0,0,0,.75.19h.92v.76h-.92a2.05,2.05,0,0,1-1.44-.39,2,2,0,0,1-.39-1.42v-3h-.66v-.7h.66v-1.56Z"/><path id="DejaVuSans-121-2" data-name="DejaVuSans-121" d="M89.8,274.82a3.19,3.19,0,0,1-.75,1.28,1.45,1.45,0,0,1-1,.3h-.72v-.76h.53a.81.81,0,0,0,.57-.17,2.32,2.32,0,0,0,.46-.83l.16-.41-2.21-5.38h1l1.71,4.27,1.71-4.27h1Z"/><path id="DejaVuSans-40" d="M98.78,266.73a10.19,10.19,0,0,0-1,2.22,8.06,8.06,0,0,0-.31,2.23,7.76,7.76,0,0,0,.32,2.23,9.56,9.56,0,0,0,1,2.23H98a10,10,0,0,1-1.1-2.26,7.08,7.08,0,0,1-.36-2.2A7,7,0,0,1,96.9,269a9.57,9.57,0,0,1,1.1-2.26Z"/><path id="DejaVuSans-107" d="M100.49,266.72h.9v4.49l2.68-2.36h1.15l-2.9,2.56,3,2.91h-1.17l-2.78-2.67v2.67h-.9Z"/><path id="DejaVuSans-109" d="M110.57,269.9a2.31,2.31,0,0,1,.81-.9,2.07,2.07,0,0,1,1.1-.28,1.59,1.59,0,0,1,1.32.59,2.73,2.73,0,0,1,.46,1.7v3.31h-.9V271a2,2,0,0,0-.28-1.16,1,1,0,0,0-.85-.38,1.37,1.37,0,0,0-1.1.46,1.86,1.86,0,0,0-.41,1.27v3.09h-.9V271a2,2,0,0,0-.28-1.16,1,1,0,0,0-.86-.38,1.4,1.4,0,0,0-1.1.46,1.86,1.86,0,0,0-.4,1.27v3.09h-.9v-5.47h.9v.85a1.94,1.94,0,0,1,.74-.74,2,2,0,0,1,1-.24,1.68,1.68,0,0,1,1,.3A1.7,1.7,0,0,1,110.57,269.9Z"/><path id="DejaVuSans-47" d="M117.65,267h.83l-2.54,8.21h-.83Z"/><path id="DejaVuSans-115-2" data-name="DejaVuSans-115" d="M122.91,269v.85a3.43,3.43,0,0,0-.79-.29,3.47,3.47,0,0,0-.85-.1,2.07,2.07,0,0,0-1,.2.68.68,0,0,0-.33.62.58.58,0,0,0,.24.49,2.85,2.85,0,0,0,1,.34l.31.07a2.94,2.94,0,0,1,1.36.57,1.36,1.36,0,0,1,.4,1.05,1.4,1.4,0,0,1-.6,1.2,2.73,2.73,0,0,1-1.66.45,5,5,0,0,1-.92-.09,7.3,7.3,0,0,1-1-.25v-.93a5.26,5.26,0,0,0,1,.39,4,4,0,0,0,1,.13,1.9,1.9,0,0,0,1-.22.71.71,0,0,0,.34-.61.68.68,0,0,0-.25-.57,3,3,0,0,0-1.08-.37l-.31-.08a2.4,2.4,0,0,1-1.21-.53,1.34,1.34,0,0,1-.37-1,1.39,1.39,0,0,1,.55-1.19,2.49,2.49,0,0,1,1.55-.42,5.69,5.69,0,0,1,.94.07A4,4,0,0,1,122.91,269Z"/><path id="DejaVuSans-41" d="M124.49,266.73h.78a10.41,10.41,0,0,1,1.1,2.26,7,7,0,0,1,.36,2.19,7.08,7.08,0,0,1-.36,2.2,10.41,10.41,0,0,1-1.1,2.26h-.78a10,10,0,0,0,1-2.23,7.93,7.93,0,0,0,0-4.46A10.13,10.13,0,0,0,124.49,266.73Z"/></g></g><g id="matplotlib.axis_6" data-name="matplotlib.axis 6"><g id="ytick_11" data-name="ytick 11"><g id="line2d_22" data-name="line2d 22"><path id="mcc57d46d85-11" data-name="mcc57d46d85" class="cls-4" d="M47.81,246h-3.5"/></g><g id="text_11" data-name="text 11"><path id="DejaVuSans-48-7" data-name="DejaVuSans-48" d="M28.09,243.2a1.23,1.23,0,0,0-1.15.75,6.85,6.85,0,0,0,0,4.5,1.26,1.26,0,0,0,2.3,0,6.85,6.85,0,0,0,0-4.5A1.23,1.23,0,0,0,28.09,243.2Zm0-.78a2.11,2.11,0,0,1,1.87,1A6.4,6.4,0,0,1,30,249a2.3,2.3,0,0,1-3.75,0,6.49,6.49,0,0,1,0-5.62A2.11,2.11,0,0,1,28.09,242.42Z"/><path id="DejaVuSans-46-9" data-name="DejaVuSans-46" d="M32.34,248.6h1v1.24h-1Z"/><path id="DejaVuSans-48-8" data-name="DejaVuSans-48" d="M37.63,243.2a1.23,1.23,0,0,0-1.15.75,6.85,6.85,0,0,0,0,4.5,1.26,1.26,0,0,0,2.3,0,6.85,6.85,0,0,0,0-4.5A1.23,1.23,0,0,0,37.63,243.2Zm0-.78a2.11,2.11,0,0,1,1.87,1,6.4,6.4,0,0,1,0,5.62,2.3,2.3,0,0,1-3.75,0,6.49,6.49,0,0,1,0-5.62A2.12,2.12,0,0,1,37.63,242.42Z"/></g></g><g id="ytick_12" data-name="ytick 12"><g id="line2d_23" data-name="line2d 23"><path id="mcc57d46d85-12" data-name="mcc57d46d85" class="cls-4" d="M47.81,219.78h-3.5"/></g><g id="text_12" data-name="text 12"><path id="DejaVuSans-48-9" data-name="DejaVuSans-48" d="M28.09,216.94a1.23,1.23,0,0,0-1.15.75,6.85,6.85,0,0,0,0,4.5,1.26,1.26,0,0,0,2.3,0,6.85,6.85,0,0,0,0-4.5A1.23,1.23,0,0,0,28.09,216.94Zm0-.78a2.11,2.11,0,0,1,1.87,1,6.4,6.4,0,0,1,0,5.62,2.3,2.3,0,0,1-3.75,0,6.49,6.49,0,0,1,0-5.62A2.11,2.11,0,0,1,28.09,216.16Z"/><path id="DejaVuSans-46-10" data-name="DejaVuSans-46" d="M32.34,222.34h1v1.24h-1Z"/><path id="DejaVuSans-53-6" data-name="DejaVuSans-53" d="M35.53,216.29H39.4v.83h-3v1.79a2.26,2.26,0,0,1,.43-.11,2.09,2.09,0,0,1,.43,0,2.73,2.73,0,0,1,1.93.67,2.36,2.36,0,0,1,.72,1.81,2.31,2.31,0,0,1-.74,1.83,2.94,2.94,0,0,1-2.06.65,6,6,0,0,1-.94-.07,8.19,8.19,0,0,1-1-.24v-1a3.92,3.92,0,0,0,.91.36,4.48,4.48,0,0,0,1,.11,2,2,0,0,0,1.34-.44,1.58,1.58,0,0,0,.49-1.21,1.54,1.54,0,0,0-.49-1.2,1.92,1.92,0,0,0-1.34-.45,3.48,3.48,0,0,0-.79.09,4.44,4.44,0,0,0-.8.27Z"/></g></g><g id="ytick_13" data-name="ytick 13"><g id="line2d_24" data-name="line2d 24"><path id="mcc57d46d85-13" data-name="mcc57d46d85" class="cls-4" d="M47.81,193.52h-3.5"/></g><g id="text_13" data-name="text 13"><path id="DejaVuSans-49-3" data-name="DejaVuSans-49" d="M26.15,196.49h1.61v-5.56l-1.75.35v-.9l1.74-.35h1v6.46h1.61v.83h-4.2Z"/><path id="DejaVuSans-46-11" data-name="DejaVuSans-46" d="M32.34,196.08h1v1.24h-1Z"/><path id="DejaVuSans-48-10" data-name="DejaVuSans-48" d="M37.63,190.68a1.23,1.23,0,0,0-1.15.75,6.85,6.85,0,0,0,0,4.5,1.26,1.26,0,0,0,2.3,0,6.85,6.85,0,0,0,0-4.5A1.23,1.23,0,0,0,37.63,190.68Zm0-.78a2.11,2.11,0,0,1,1.87,1,6.42,6.42,0,0,1,0,5.63,2.3,2.3,0,0,1-3.75,0,6.51,6.51,0,0,1,0-5.63A2.12,2.12,0,0,1,37.63,189.9Z"/></g></g><g id="ytick_14" data-name="ytick 14"><g id="line2d_25" data-name="line2d 25"><path id="mcc57d46d85-14" data-name="mcc57d46d85" class="cls-4" d="M47.81,167.27h-3.5"/></g><g id="text_14" data-name="text 14"><path id="DejaVuSans-49-4" data-name="DejaVuSans-49" d="M26.15,170.24h1.61v-5.57L26,165v-.89l1.74-.36h1v6.47h1.61v.83h-4.2Z"/><path id="DejaVuSans-46-12" data-name="DejaVuSans-46" d="M32.34,169.82h1v1.25h-1Z"/><path id="DejaVuSans-53-7" data-name="DejaVuSans-53" d="M35.53,163.77H39.4v.84h-3v1.78a3.39,3.39,0,0,1,.43-.11,3.11,3.11,0,0,1,.43,0,2.68,2.68,0,0,1,1.93.67,2.63,2.63,0,0,1,0,3.64,3,3,0,0,1-2.06.65,6.07,6.07,0,0,1-.94-.08,8.08,8.08,0,0,1-1-.23v-1a3.87,3.87,0,0,0,1.9.48,1.92,1.92,0,0,0,1.34-.45,1.56,1.56,0,0,0,.49-1.2,1.58,1.58,0,0,0-.49-1.21,1.92,1.92,0,0,0-1.34-.44,4.15,4.15,0,0,0-.79.08,3.82,3.82,0,0,0-.8.28Z"/></g></g><g id="ytick_15" data-name="ytick 15"><g id="line2d_26" data-name="line2d 26"><path id="mcc57d46d85-15" data-name="mcc57d46d85" class="cls-4" d="M47.81,141h-3.5"/></g><g id="text_15" data-name="text 15"><path id="DejaVuSans-50-3" data-name="DejaVuSans-50" d="M26.83,144h3.44v.83H25.64V144q.55-.58,1.53-1.56c.65-.65,1-1.08,1.22-1.27a4.77,4.77,0,0,0,.66-.9,1.49,1.49,0,0,0,.19-.72,1.23,1.23,0,0,0-.41-.95,1.55,1.55,0,0,0-1.06-.36,3.18,3.18,0,0,0-1,.16,5.41,5.41,0,0,0-1.1.49v-1a7.87,7.87,0,0,1,1.11-.36,4.25,4.25,0,0,1,.95-.12,2.72,2.72,0,0,1,1.81.56,1.91,1.91,0,0,1,.67,1.52,2.22,2.22,0,0,1-.17.85,4.32,4.32,0,0,1-.61,1l-.78.82Z"/><path id="DejaVuSans-46-13" data-name="DejaVuSans-46" d="M32.34,143.57h1v1.24h-1Z"/><path id="DejaVuSans-48-11" data-name="DejaVuSans-48" d="M37.63,138.17a1.23,1.23,0,0,0-1.15.75,6.85,6.85,0,0,0,0,4.5,1.26,1.26,0,0,0,2.3,0,6.85,6.85,0,0,0,0-4.5A1.23,1.23,0,0,0,37.63,138.17Zm0-.78a2.11,2.11,0,0,1,1.87,1,6.4,6.4,0,0,1,0,5.62,2.3,2.3,0,0,1-3.75,0,6.49,6.49,0,0,1,0-5.62A2.12,2.12,0,0,1,37.63,137.39Z"/></g></g><g id="text_16" data-name="text 16"><path id="DejaVuSans-68-2" data-name="DejaVuSans-68" d="M12.35,209.25H18v-1.2a3.06,3.06,0,0,0-.69-2.21,2.92,2.92,0,0,0-2.16-.7,2.9,2.9,0,0,0-2.14.7,3.06,3.06,0,0,0-.68,2.21Zm-.81,1v-2a4.57,4.57,0,0,1,.88-3.11,3.47,3.47,0,0,1,2.75-1,3.53,3.53,0,0,1,2.77,1,4.58,4.58,0,0,1,.89,3.11v2Z"/><path id="DejaVuSans-101-3" data-name="DejaVuSans-101" d="M15.87,197.89h.44V202a2,2,0,0,0,1.41-.56,1.91,1.91,0,0,0,.49-1.39,4.21,4.21,0,0,0-.51-2h.85a5.38,5.38,0,0,1,.31,1,5.15,5.15,0,0,1,.11,1A2.62,2.62,0,0,1,16.15,203a3,3,0,0,1-2.13-.72,2.53,2.53,0,0,1-.79-2,2.2,2.2,0,0,1,.71-1.74A2.75,2.75,0,0,1,15.87,197.89Zm-.27.9a1.75,1.75,0,0,0-1.17.41,1.37,1.37,0,0,0-.44,1.07,1.69,1.69,0,0,0,.42,1.2,1.76,1.76,0,0,0,1.2.52Z"/><path id="DejaVuSans-110-2" data-name="DejaVuSans-110" d="M15.53,191.87h3.3v.9H15.56a1.9,1.9,0,0,0-1.17.3A1.12,1.12,0,0,0,14,194a1.46,1.46,0,0,0,.46,1.15,1.82,1.82,0,0,0,1.27.42h3.09v.9H13.36v-.9h.85a2.23,2.23,0,0,1-.74-.76,2.07,2.07,0,0,1-.24-1,1.72,1.72,0,0,1,.58-1.42A2.59,2.59,0,0,1,15.53,191.87Z"/><path id="DejaVuSans-115-3" data-name="DejaVuSans-115" d="M13.52,186.59h.85a3.71,3.71,0,0,0-.39,1.65,2,2,0,0,0,.2,1,.69.69,0,0,0,.62.33.58.58,0,0,0,.49-.24,2.85,2.85,0,0,0,.34-1l.07-.31a2.89,2.89,0,0,1,.58-1.36,1.36,1.36,0,0,1,1-.4,1.43,1.43,0,0,1,1.21.6,2.82,2.82,0,0,1,.44,1.66,5,5,0,0,1-.09.92,7,7,0,0,1-.25,1H17.7a5.26,5.26,0,0,0,.39-1,4,4,0,0,0,.13-1,1.83,1.83,0,0,0-.22-1,.7.7,0,0,0-.61-.35.68.68,0,0,0-.56.25,3.08,3.08,0,0,0-.38,1.08l-.07.32a2.49,2.49,0,0,1-.54,1.2,1.34,1.34,0,0,1-1,.37,1.39,1.39,0,0,1-1.19-.55,2.49,2.49,0,0,1-.42-1.55,5.49,5.49,0,0,1,.07-.93A3.93,3.93,0,0,1,13.52,186.59Z"/><path id="DejaVuSans-105-3" data-name="DejaVuSans-105" d="M13.36,184.87V184h5.47v.9Zm-2.13,0V184h1.14v.9Z"/><path id="DejaVuSans-116-3" data-name="DejaVuSans-116" d="M11.81,181.2h1.55v-1.85h.7v1.85h3a1.32,1.32,0,0,0,.85-.18,1,1,0,0,0,.2-.74v-.93h.75v.93a2,2,0,0,1-.39,1.43,2,2,0,0,1-1.41.4h-3v.66h-.7v-.66H11.81Z"/><path id="DejaVuSans-121-3" data-name="DejaVuSans-121" d="M19.33,175.9a3.2,3.2,0,0,1,1.28.74,1.45,1.45,0,0,1,.3,1v.72h-.75v-.52a.86.86,0,0,0-.18-.58,2.11,2.11,0,0,0-.83-.45l-.41-.17-5.38,2.22v-1l4.27-1.71-4.27-1.7v-1Z"/></g></g><g id="line2d_27" data-name="line2d 27"><g class="cls-10"><path class="cls-12" d="M70.74,246h1.77l.59,0,.59,0,.59-.07.59-.11.59-.17.59-.25.59-.33.59-.43.59-.52.59-.6.59-.66.59-.71.59-.75.59-.79.59-.85.59-1,.59-1.08.59-1.25.59-1.41.59-1.54.59-1.63.6-1.66.59-1.61.59-1.51.59-1.36.59-1.21.59-1,.59-.87.59-.69.59-.49.59-.29.59,0,.59.21.59.44.59.64.59.8.59.9.59.94.59.91.59.84.59.73.59.61.59.49.59.42.59.42.59.5.59.65.59.84.59,1,.59,1.17.59,1.23.59,1.23.59,1.14.59,1,.59.8.59.6.59.38.59.15.59-.07.59-.32.59-.6.59-.88.6-1.18.59-1.46.59-1.71.59-1.91.59-2,.59-2.07.59-2,.59-1.91.59-1.75.59-1.52.59-1.26.59-1,.59-.76.59-.53.59-.31.59-.08.59.22.59.59.59,1.08.59,1.64.59,2.23.59,2.76.59,3.14.59,3.3.59,3.21.59,2.91.59,2.46.59,1.93.59,1.42.59,1,.59.63.59.38.59.21.59.11"/></g></g><g id="patch_98" data-name="patch 98"><path class="cls-6" d="M47.81,246V138.37"/></g><g id="patch_99" data-name="patch 99"><path class="cls-6" d="M133.05,246V138.37"/></g><g id="patch_100" data-name="patch 100"><path class="cls-6" d="M47.81,246h85.24"/></g><g id="patch_101" data-name="patch 101"><path class="cls-6" d="M47.81,138.37h85.24"/></g></g><g id="axes_4" data-name="axes 4"><g id="patch_102" data-name="patch 102"><path class="cls-1" d="M151.65,246h85.24V138.37H151.65Z"/></g><g id="patch_103" data-name="patch 103"><g class="cls-13"><path class="cls-14" d="M183,246h2.15v-3H183Z"/></g></g><g id="patch_104" data-name="patch 104"><g class="cls-13"><path class="cls-14" d="M185.16,246h2.14V235.65h-2.14Z"/></g></g><g id="patch_105" data-name="patch 105"><g class="cls-13"><path class="cls-14" d="M187.3,246h2.15v-8.78H187.3Z"/></g></g><g id="patch_106" data-name="patch 106"><g class="cls-13"><path class="cls-14" d="M189.45,246h2.15V232.57h-2.15Z"/></g></g><g id="patch_107" data-name="patch 107"><g class="cls-13"><path class="cls-14" d="M191.6,246h2.14V208.7H191.6Z"/></g></g><g id="patch_108" data-name="patch 108"><g class="cls-13"><path class="cls-14" d="M193.74,246h2.15V206.56h-2.15Z"/></g></g><g id="patch_109" data-name="patch 109"><g class="cls-13"><path class="cls-14" d="M195.89,246H198V230.42h-2.15Z"/></g></g><g id="patch_110" data-name="patch 110"><g class="cls-13"><path class="cls-14" d="M198,246h2.14v-7.91H198Z"/></g></g><g id="patch_111" data-name="patch 111"><g class="cls-13"><path class="cls-14" d="M200.18,246h2.15V235.18h-2.15Z"/></g></g><g id="patch_112" data-name="patch 112"><g class="cls-13"><path class="cls-14" d="M202.33,246h2.14V230.09h-2.14Z"/></g></g><g id="patch_113" data-name="patch 113"><g class="cls-13"><path class="cls-14" d="M204.47,246h2.15V232.16h-2.15Z"/></g></g><g id="patch_114" data-name="patch 114"><g class="cls-13"><path class="cls-14" d="M206.62,246h2.15V225.73h-2.15Z"/></g></g><g id="patch_115" data-name="patch 115"><g class="cls-13"><path class="cls-14" d="M208.77,246h2.14v-30.7h-2.14Z"/></g></g><g id="patch_116" data-name="patch 116"><g class="cls-13"><path class="cls-14" d="M210.91,246h2.15V212.12h-2.15Z"/></g></g><g id="patch_117" data-name="patch 117"><g class="cls-13"><path class="cls-14" d="M213.06,246h2.15V219.83h-2.15Z"/></g></g><g id="patch_118" data-name="patch 118"><g class="cls-13"><path class="cls-14" d="M215.21,246h2.14V219.5h-2.14Z"/></g></g><g id="patch_119" data-name="patch 119"><g class="cls-13"><path class="cls-14" d="M217.35,246h2.15V231.36h-2.15Z"/></g></g><g id="patch_120" data-name="patch 120"><g class="cls-13"><path class="cls-14" d="M219.5,246h2.14V235.25H219.5Z"/></g></g><g id="patch_121" data-name="patch 121"><g class="cls-13"><path class="cls-14" d="M221.64,246h2.15v-9.72h-2.15Z"/></g></g><g id="patch_122" data-name="patch 122"><g class="cls-13"><path class="cls-14" d="M223.79,246h2.15V231.43h-2.15Z"/></g></g><g id="matplotlib.axis_7" data-name="matplotlib.axis 7"><g id="xtick_10" data-name="xtick 10"><g id="line2d_28" data-name="line2d 28"><path id="m54c0e73894-10" data-name="m54c0e73894" class="cls-4" d="M159,246v3.5"/></g><g id="text_17" data-name="text 17"><path id="DejaVuSans-50-4" data-name="DejaVuSans-50" d="M152.93,259.81h3.44v.83h-4.62v-.83q.56-.58,1.53-1.56c.64-.65,1.05-1.08,1.21-1.26a5.11,5.11,0,0,0,.67-.9,1.67,1.67,0,0,0,.18-.73,1.22,1.22,0,0,0-.4-1,1.57,1.57,0,0,0-1.07-.36,3.23,3.23,0,0,0-1,.16,5.67,5.67,0,0,0-1.1.49v-1a7.58,7.58,0,0,1,1.12-.36,4.19,4.19,0,0,1,1-.12,2.75,2.75,0,0,1,1.8.56,1.88,1.88,0,0,1,.68,1.52,2.22,2.22,0,0,1-.17.85,4.06,4.06,0,0,1-.62,1l-.77.82Z"/><path id="DejaVuSans-46-14" data-name="DejaVuSans-46" d="M158.44,259.4h1v1.24h-1Z"/><path id="DejaVuSans-53-8" data-name="DejaVuSans-53" d="M161.63,253.35h3.88v.83h-3V256a3,3,0,0,1,.43-.1,2,2,0,0,1,.43,0,2.7,2.7,0,0,1,1.93.67,2.66,2.66,0,0,1,0,3.64,3,3,0,0,1-2.06.65,6.07,6.07,0,0,1-.94-.08,7.29,7.29,0,0,1-1-.23v-1a3.81,3.81,0,0,0,.9.35,4.07,4.07,0,0,0,1,.12,2,2,0,0,0,1.34-.44,1.71,1.71,0,0,0,0-2.42,2,2,0,0,0-1.34-.44,3.46,3.46,0,0,0-.78.09,4.53,4.53,0,0,0-.81.27Z"/></g></g><g id="xtick_11" data-name="xtick 11"><g id="line2d_29" data-name="line2d 29"><path id="m54c0e73894-11" data-name="m54c0e73894" class="cls-4" d="M196.17,246v3.5"/></g><g id="text_18" data-name="text 18"><path id="DejaVuSans-53-9" data-name="DejaVuSans-53" d="M189.3,253.35h3.87v.83h-3V256a3.77,3.77,0,0,1,.43-.1,2.15,2.15,0,0,1,.43,0,2.71,2.71,0,0,1,1.94.67,2.37,2.37,0,0,1,.71,1.81,2.33,2.33,0,0,1-.73,1.83,3,3,0,0,1-2.07.65,5.94,5.94,0,0,1-.93-.08,7.8,7.8,0,0,1-1-.23v-1a4.06,4.06,0,0,0,.91.35,4,4,0,0,0,1,.12,2,2,0,0,0,1.34-.44,1.74,1.74,0,0,0,0-2.42,2,2,0,0,0-1.34-.44,3.61,3.61,0,0,0-.79.09,4.44,4.44,0,0,0-.8.27Z"/><path id="DejaVuSans-46-15" data-name="DejaVuSans-46" d="M195.65,259.4h1v1.24h-1Z"/><path id="DejaVuSans-48-12" data-name="DejaVuSans-48" d="M200.94,254a1.21,1.21,0,0,0-1.14.75,6.69,6.69,0,0,0,0,4.5,1.21,1.21,0,0,0,1.14.75,1.22,1.22,0,0,0,1.15-.75,6.85,6.85,0,0,0,0-4.5A1.22,1.22,0,0,0,200.94,254Zm0-.78a2.1,2.1,0,0,1,1.87,1,6.4,6.4,0,0,1,0,5.62,2.29,2.29,0,0,1-3.74,0,6.4,6.4,0,0,1,0-5.62A2.1,2.1,0,0,1,200.94,253.22Z"/></g></g><g id="xtick_12" data-name="xtick 12"><g id="line2d_30" data-name="line2d 30"><path id="m54c0e73894-12" data-name="m54c0e73894" class="cls-4" d="M233.38,246v3.5"/></g><g id="text_19" data-name="text 19"><path id="DejaVuSans-55-2" data-name="DejaVuSans-55" d="M226.25,253.35h4.69v.42l-2.65,6.87h-1l2.49-6.46h-3.5Z"/><path id="DejaVuSans-46-16" data-name="DejaVuSans-46" d="M232.86,259.4h1v1.24h-1Z"/><path id="DejaVuSans-53-10" data-name="DejaVuSans-53" d="M236.05,253.35h3.87v.83h-3V256a3.77,3.77,0,0,1,.43-.1,2.09,2.09,0,0,1,.43,0,2.71,2.71,0,0,1,1.94.67,2.66,2.66,0,0,1,0,3.64,3,3,0,0,1-2.07.65,6.07,6.07,0,0,1-.94-.08,8.08,8.08,0,0,1-1-.23v-1a3.89,3.89,0,0,0,.91.35,4,4,0,0,0,1,.12,2,2,0,0,0,1.34-.44,1.74,1.74,0,0,0,0-2.42,2,2,0,0,0-1.34-.44,3.55,3.55,0,0,0-.79.09,4.44,4.44,0,0,0-.8.27Z"/></g></g><g id="text_20" data-name="text 20"><path id="DejaVuSans-86-2" data-name="DejaVuSans-86" d="M160,274.32,157.19,267h1l2.31,6.13,2.32-6.13h1l-2.78,7.29Z"/><path id="DejaVuSans-101-4" data-name="DejaVuSans-101" d="M168.8,271.36v.44h-4.13a2,2,0,0,0,.56,1.41,1.93,1.93,0,0,0,1.39.49,4.09,4.09,0,0,0,1-.13,4.15,4.15,0,0,0,1-.38V274a5.68,5.68,0,0,1-1,.31,5.07,5.07,0,0,1-1,.11,2.62,2.62,0,0,1-2.84-2.82,3,3,0,0,1,.73-2.13,2.5,2.5,0,0,1,1.95-.79,2.22,2.22,0,0,1,1.75.71A2.74,2.74,0,0,1,168.8,271.36Zm-.9-.27a1.7,1.7,0,0,0-.41-1.17,1.37,1.37,0,0,0-1.07-.44,1.69,1.69,0,0,0-1.2.42,1.78,1.78,0,0,0-.52,1.2Z"/><path id="DejaVuSans-108-2" data-name="DejaVuSans-108" d="M170.27,266.72h.9v7.6h-.9Z"/><path id="DejaVuSans-111-2" data-name="DejaVuSans-111" d="M175.17,269.48A1.36,1.36,0,0,0,174,270a2.55,2.55,0,0,0-.42,1.55,2.51,2.51,0,0,0,.42,1.54,1.42,1.42,0,0,0,2.28,0,3,3,0,0,0,0-3.08A1.34,1.34,0,0,0,175.17,269.48Zm0-.76a2.31,2.31,0,0,1,1.84.76,3.64,3.64,0,0,1,0,4.21,2.58,2.58,0,0,1-3.68,0,3.64,3.64,0,0,1,0-4.21A2.31,2.31,0,0,1,175.17,268.72Z"/><path id="DejaVuSans-99-2" data-name="DejaVuSans-99" d="M183.11,269.06v.84a3.6,3.6,0,0,0-.77-.32,2.86,2.86,0,0,0-.77-.1,1.69,1.69,0,0,0-1.36.55,2.76,2.76,0,0,0,0,3.11,1.7,1.7,0,0,0,1.36.56,2.87,2.87,0,0,0,.77-.11,3.55,3.55,0,0,0,.77-.31v.83a4.76,4.76,0,0,1-.78.26,4,4,0,0,1-.86.09,2.55,2.55,0,0,1-2-.78,3.39,3.39,0,0,1,0-4.2,2.68,2.68,0,0,1,2-.76,4.36,4.36,0,0,1,.81.08A3.68,3.68,0,0,1,183.11,269.06Z"/><path id="DejaVuSans-105-4" data-name="DejaVuSans-105" d="M184.67,268.85h.9v5.47h-.9Zm0-2.13h.9v1.14h-.9Z"/><path id="DejaVuSans-116-4" data-name="DejaVuSans-116" d="M188.34,267.29v1.56h1.85v.7h-1.85v3a1.34,1.34,0,0,0,.18.86,1,1,0,0,0,.74.19h.93v.76h-.93a2,2,0,0,1-1.43-.39,1.94,1.94,0,0,1-.4-1.42v-3h-.66v-.7h.66v-1.56Z"/><path id="DejaVuSans-121-4" data-name="DejaVuSans-121" d="M193.64,274.82a3.2,3.2,0,0,1-.74,1.28,1.46,1.46,0,0,1-1,.3h-.71v-.76h.52a.85.85,0,0,0,.58-.17,2.19,2.19,0,0,0,.45-.83l.16-.41-2.21-5.38h.95l1.71,4.27,1.71-4.27h1Z"/><path id="DejaVuSans-40-2" data-name="DejaVuSans-40" d="M202.62,266.73a10.13,10.13,0,0,0-1,2.22,7.93,7.93,0,0,0,0,4.46,10.48,10.48,0,0,0,1,2.23h-.78a10.41,10.41,0,0,1-1.1-2.26,7.08,7.08,0,0,1-.36-2.2,7,7,0,0,1,.36-2.19,10,10,0,0,1,1.1-2.26Z"/><path id="DejaVuSans-107-2" data-name="DejaVuSans-107" d="M204.33,266.72h.9v4.49l2.69-2.36h1.14l-2.9,2.56,3,2.91H208l-2.78-2.67v2.67h-.9Z"/><path id="DejaVuSans-109-2" data-name="DejaVuSans-109" d="M214.41,269.9a2.47,2.47,0,0,1,.81-.9,2.07,2.07,0,0,1,1.1-.28,1.59,1.59,0,0,1,1.32.59,2.73,2.73,0,0,1,.47,1.7v3.31h-.91V271a1.93,1.93,0,0,0-.28-1.16,1,1,0,0,0-.85-.38,1.38,1.38,0,0,0-1.1.46,1.86,1.86,0,0,0-.4,1.27v3.09h-.91V271a1.93,1.93,0,0,0-.28-1.16,1,1,0,0,0-.86-.38,1.38,1.38,0,0,0-1.09.46,1.86,1.86,0,0,0-.41,1.27v3.09h-.9v-5.47h.9v.85a2,2,0,0,1,.74-.74,2.08,2.08,0,0,1,1-.24,1.71,1.71,0,0,1,1,.3A1.75,1.75,0,0,1,214.41,269.9Z"/><path id="DejaVuSans-47-2" data-name="DejaVuSans-47" d="M221.49,267h.83l-2.54,8.21H219Z"/><path id="DejaVuSans-115-4" data-name="DejaVuSans-115" d="M226.75,269v.85a3.12,3.12,0,0,0-.79-.29,3.36,3.36,0,0,0-.85-.1,2,2,0,0,0-1,.2.69.69,0,0,0-.34.62.58.58,0,0,0,.24.49,2.84,2.84,0,0,0,1,.34l.3.07a2.94,2.94,0,0,1,1.36.57,1.36,1.36,0,0,1,.41,1.05,1.39,1.39,0,0,1-.61,1.2,2.69,2.69,0,0,1-1.65.45,4.94,4.94,0,0,1-.92-.09,7,7,0,0,1-1-.25v-.93a5.26,5.26,0,0,0,1,.39,4,4,0,0,0,1,.13,1.86,1.86,0,0,0,1-.22.69.69,0,0,0,.34-.61.7.7,0,0,0-.24-.57,3.12,3.12,0,0,0-1.09-.37l-.31-.08a2.36,2.36,0,0,1-1.2-.53,1.34,1.34,0,0,1-.37-1,1.41,1.41,0,0,1,.54-1.19,2.52,2.52,0,0,1,1.56-.42,5.49,5.49,0,0,1,.93.07A3.68,3.68,0,0,1,226.75,269Z"/><path id="DejaVuSans-41-2" data-name="DejaVuSans-41" d="M228.34,266.73h.78a10.35,10.35,0,0,1,1.09,2.26,6.72,6.72,0,0,1,.37,2.19,6.82,6.82,0,0,1-.37,2.2,10.35,10.35,0,0,1-1.09,2.26h-.78a10,10,0,0,0,1-2.23,7.93,7.93,0,0,0,0-4.46A10.08,10.08,0,0,0,228.34,266.73Z"/></g></g><g id="matplotlib.axis_8" data-name="matplotlib.axis 8"><g id="ytick_16" data-name="ytick 16"><g id="line2d_31" data-name="line2d 31"><path id="mcc57d46d85-16" data-name="mcc57d46d85" class="cls-4" d="M151.65,246h-3.5"/></g></g><g id="ytick_17" data-name="ytick 17"><g id="line2d_32" data-name="line2d 32"><path id="mcc57d46d85-17" data-name="mcc57d46d85" class="cls-4" d="M151.65,219.78h-3.5"/></g></g><g id="ytick_18" data-name="ytick 18"><g id="line2d_33" data-name="line2d 33"><path id="mcc57d46d85-18" data-name="mcc57d46d85" class="cls-4" d="M151.65,193.52h-3.5"/></g></g><g id="ytick_19" data-name="ytick 19"><g id="line2d_34" data-name="line2d 34"><path id="mcc57d46d85-19" data-name="mcc57d46d85" class="cls-4" d="M151.65,167.27h-3.5"/></g></g><g id="ytick_20" data-name="ytick 20"><g id="line2d_35" data-name="line2d 35"><path id="mcc57d46d85-20" data-name="mcc57d46d85" class="cls-4" d="M151.65,141h-3.5"/></g></g></g><g id="line2d_36" data-name="line2d 36"><g class="cls-13"><path class="cls-15" d="M177.13,246h.55l.56,0,.55,0,.55,0,.55-.09.56-.15.55-.2.55-.29.55-.37.55-.47.56-.59.55-.72.55-.87.55-1,.56-1.12.55-1.18.55-1.15.55-1.08.56-1,.55-1,.55-1.23.55-1.55.56-2,.55-2.49.55-2.87.55-3,.56-2.92.55-2.47.55-1.71.55-.73.55.32.56,1.35.55,2.19.55,2.8.55,3.09.56,3.08.55,2.82.55,2.35.55,1.78.56,1.19.55.63.55.16.55-.22.56-.48L202,234l.55-.72.55-.74.56-.72.55-.7.55-.71.55-.78.56-.93.55-1.13.55-1.35.55-1.56.55-1.7.56-1.73.55-1.66.55-1.47.55-1.18.56-.81.55-.41.55,0,.55.33.56.6.55.8.55.91.55,1,.56,1.09.55,1.22.55,1.38.55,1.54.56,1.66.55,1.7.55,1.65.55,1.51.55,1.3.56,1.07.55.82.55.6.55.42.56.31.55.24.55.27.55.37.56.55.55.77.55,1,.55,1.18.56,1.26.55,1.22.55,1.08.55.88.56.65.55.44.55.28.55.16.56.09.55,0"/></g></g><g id="patch_123" data-name="patch 123"><path class="cls-6" d="M151.65,246V138.37"/></g><g id="patch_124" data-name="patch 124"><path class="cls-6" d="M236.89,246V138.37"/></g><g id="patch_125" data-name="patch 125"><path class="cls-6" d="M151.65,246h85.24"/></g><g id="patch_126" data-name="patch 126"><path class="cls-6" d="M151.65,138.37h85.24"/></g></g></g><text class="cls-16" transform="translate(112.8 158.18)">3</text><text class="cls-17" transform="translate(114.08 32.12)">1</text><text class="cls-18" transform="translate(217.62 32.12)">2</text><text class="cls-19" transform="translate(217.88 158.02)">4</text></svg>