<?xml version="1.0" encoding="utf-8"?>
<!-- Generator: Adobe Illustrator 24.3.0, SVG Export Plug-In . SVG Version: 6.00 Build 0)  -->
<svg version="1.1" id="Layer_2_1_" xmlns="http://www.w3.org/2000/svg" xmlns:xlink="http://www.w3.org/1999/xlink" x="0px" y="0px"
	 viewBox="0 0 413.6 260" style="enable-background:new 0 0 413.6 260;" xml:space="preserve">
<style type="text/css">
	.st0{fill:none;}
	.st1{stroke:#000000;stroke-width:0.8;stroke-linejoin:round;}
	.st2{fill:none;stroke:#000000;stroke-width:0.8;stroke-linecap:square;}
	.st3{clip-path:url(#SVGID_2_);}
	.st4{fill:#FFFFFF;stroke:#FFFFFF;stroke-width:1.000000e-02;}
	.st5{fill:none;stroke:#000000;stroke-width:0.8;}
	.st6{fill:none;stroke:#EF3B39;stroke-miterlimit:10;}
	.st7{fill:#007F07;}
	.st8{enable-background:new    ;}
	.st9{fill:#F40000;}
	.st10{fill:#F5F5F5;}
</style>
<g id="patch_1">
	<path class="st0" d="M-33,260h504V-28H-33V260z"/>
</g>
<g id="axes_1">
	<g id="patch_2">
		<path class="st0" d="M30,71.8h312.5V6.6H30V71.8z"/>
	</g>
	
		<image style="overflow:visible;enable-background:new    ;" width="434" height="91" id="image9db633c253" xlink:href="84E7BD98.png"  transform="matrix(0.72 0 0 -0.72 30.32 72.12)">
	</image>
	<g id="matplotlib.axis_1">
		<g id="xtick_1">
			<g id="line2d_1">
				<path id="m531fe61eba" class="st1" d="M30,71.8v3.5"/>
			</g>
		</g>
		<g id="xtick_2">
			<g id="line2d_2">
				<path id="m531fe61eba-2" class="st1" d="M97.7,71.8v3.5"/>
			</g>
		</g>
		<g id="xtick_3">
			<g id="line2d_3">
				<path id="m531fe61eba-3" class="st1" d="M165.5,71.8v3.5"/>
			</g>
		</g>
		<g id="xtick_4">
			<g id="line2d_4">
				<path id="m531fe61eba-4" class="st1" d="M233.3,71.8v3.5"/>
			</g>
		</g>
		<g id="xtick_5">
			<g id="line2d_5">
				<path id="m531fe61eba-5" class="st1" d="M301.1,71.8v3.5"/>
			</g>
		</g>
	</g>
	<g id="matplotlib.axis_2">
		<g id="ytick_1">
			<g id="line2d_6">
				<path id="m26af831aea" class="st1" d="M30,6.6h-3.5"/>
			</g>
			<g id="text_1">
				<path id="DejaVuSans-48" d="M19.8,3.8c-0.5,0-1,0.3-1.1,0.8c-0.3,0.7-0.4,1.5-0.4,2.3c0,0.8,0.1,1.5,0.4,2.2
					c0.3,0.6,1,0.9,1.7,0.6c0.3-0.1,0.5-0.4,0.6-0.6c0.3-0.7,0.4-1.5,0.4-2.3c0-0.8-0.1-1.5-0.4-2.3C20.7,4,20.3,3.7,19.8,3.8z
					 M19.8,3c0.8,0,1.5,0.4,1.9,1c0.5,0.9,0.7,1.8,0.6,2.8c0.1,1-0.2,2-0.6,2.8c-0.7,1-2.2,1.3-3.2,0.5c-0.2-0.2-0.4-0.3-0.5-0.5
					c-0.5-0.9-0.7-1.8-0.6-2.8c-0.1-1,0.2-1.9,0.6-2.8C18.3,3.4,19,3,19.8,3L19.8,3z"/>
			</g>
		</g>
		<g id="ytick_2">
			<g id="line2d_7">
				<path id="m26af831aea-2" class="st1" d="M30,49.8h-3.5"/>
			</g>
			<g id="text_2">
				<path id="DejaVuSans-50" d="M18.5,52.8H22v0.8h-4.7v-0.8c0.4-0.4,0.9-0.9,1.5-1.6c0.6-0.7,1-1.1,1.2-1.3
					c0.3-0.3,0.5-0.6,0.7-0.9c0.1-0.2,0.2-0.5,0.2-0.7c0-0.4-0.1-0.7-0.4-1c-0.3-0.2-0.7-0.3-1.1-0.3c-0.3,0-0.7,0.1-1,0.2
					c-0.4,0.1-0.8,0.3-1.1,0.5v-1c0.4-0.1,0.7-0.3,1.1-0.4c0.3-0.1,0.7-0.1,1-0.1c0.7,0,1.3,0.2,1.8,0.6c0.4,0.4,0.7,0.9,0.7,1.5
					c0,0.3-0.1,0.6-0.2,0.8c-0.2,0.3-0.4,0.7-0.6,1c-0.1,0.1-0.3,0.4-0.8,0.8S19.3,52,18.5,52.8z"/>
			</g>
		</g>
		<g id="text_3">
			<path id="DejaVuSans-90" d="M3.2,55.3v-5.7H4l5.7,4.6v-4.7h0.8v6H9.8l-5.7-4.6v4.5H3.2z"/>
			<path id="DejaVuSans-40" d="M2.9,42.8c0.7,0.4,1.4,0.8,2.2,1c1.5,0.4,3,0.4,4.5,0c0.8-0.2,1.5-0.6,2.2-1v0.8
				c-0.7,0.5-1.5,0.8-2.3,1.1C8.9,44.9,8.1,45,7.4,45c-0.7,0-1.5-0.1-2.2-0.4c-0.8-0.3-1.6-0.6-2.3-1.1V42.8z"/>
			<path id="DejaVuSans-107" d="M2.9,41.1v-0.9h4.5l-2.4-2.7v-1.1l2.6,2.9l2.9-3v1.2l-2.7,2.8h2.7v0.9L2.9,41.1L2.9,41.1z"/>
			<path id="DejaVuSans-109" d="M6.1,31c-0.4-0.2-0.7-0.5-0.9-0.8c-0.2-0.3-0.3-0.7-0.3-1.1c0-0.5,0.2-1,0.6-1.3
				c0.5-0.3,1.1-0.5,1.7-0.5h3.3v0.9H7.3c-0.4,0-0.8,0.1-1.2,0.3c-0.3,0.2-0.4,0.5-0.4,0.9c0,0.4,0.1,0.8,0.5,1.1
				c0.4,0.3,0.8,0.4,1.3,0.4h3.1v0.9H7.2c-0.4,0-0.8,0.1-1.2,0.3c-0.3,0.2-0.4,0.5-0.4,0.9c0,0.4,0.1,0.9,0.5,1.1
				c0.4,0.3,0.8,0.4,1.3,0.4h3.1v0.9H5v-0.9h0.8c-0.3-0.2-0.6-0.4-0.7-0.7c-0.2-0.3-0.2-0.7-0.2-1c0-0.4,0.1-0.7,0.3-1
				C5.4,31.3,5.7,31.1,6.1,31z"/>
			<path id="DejaVuSans-41" d="M2.9,25.6v-0.8c0.7-0.5,1.5-0.8,2.3-1.1c1.4-0.5,3-0.5,4.4,0c0.8,0.3,1.6,0.6,2.3,1.1v0.8
				c-0.7-0.4-1.4-0.8-2.2-1c-1.5-0.4-3-0.4-4.5,0C4.4,24.9,3.6,25.2,2.9,25.6z"/>
		</g>
	</g>
	<g id="patch_3">
		<path class="st2" d="M30,71.8V6.6"/>
	</g>
	<g id="patch_4">
		<path class="st2" d="M342.4,71.8V6.6"/>
	</g>
	<g id="patch_5">
		<path class="st2" d="M30,71.8h312.5"/>
	</g>
	<g id="patch_6">
		<path class="st2" d="M30,6.6h312.5"/>
	</g>
</g>
<g id="axes_2">
	<g id="patch_7">
		<path class="st0" d="M30,150.1h312.5V84.9H30V150.1z"/>
	</g>
	
		<image style="overflow:visible;enable-background:new    ;" width="434" height="90" id="image272512b071" xlink:href="84E7BD9F.png"  transform="matrix(0.72 0 0 -0.72 30.32 149.88)">
	</image>
	<g id="matplotlib.axis_3">
		<g id="xtick_6">
			<g id="line2d_8">
				<path id="m531fe61eba-6" class="st1" d="M30,150.1v3.5"/>
			</g>
		</g>
		<g id="xtick_7">
			<g id="line2d_9">
				<path id="m531fe61eba-7" class="st1" d="M97.7,150.1v3.5"/>
			</g>
		</g>
		<g id="xtick_8">
			<g id="line2d_10">
				<path id="m531fe61eba-8" class="st1" d="M165.5,150.1v3.5"/>
			</g>
		</g>
		<g id="xtick_9">
			<g id="line2d_11">
				<path id="m531fe61eba-9" class="st1" d="M233.3,150.1v3.5"/>
			</g>
		</g>
		<g id="xtick_10">
			<g id="line2d_12">
				<path id="m531fe61eba-10" class="st1" d="M301.1,150.1v3.5"/>
			</g>
		</g>
	</g>
	<g id="matplotlib.axis_4">
		<g id="ytick_3">
			<g id="line2d_13">
				<path id="m26af831aea-3" class="st1" d="M30,84.9h-3.5"/>
			</g>
			<g id="text_4">
				<path id="DejaVuSans-48-2" d="M19.8,82c-0.5,0-1,0.3-1.1,0.8c-0.3,0.7-0.4,1.5-0.4,2.3c0,0.8,0.1,1.5,0.4,2.3
					c0.3,0.6,1,0.9,1.7,0.6c0.3-0.1,0.5-0.4,0.6-0.6c0.3-0.7,0.4-1.5,0.4-2.3c0-0.8-0.1-1.5-0.4-2.3C20.7,82.3,20.3,82,19.8,82z
					 M19.8,81.2c0.8,0,1.5,0.4,1.9,1c0.9,1.8,0.9,3.8,0,5.6c-0.7,1-2.2,1.3-3.2,0.5c-0.2-0.2-0.4-0.3-0.5-0.5
					c-0.9-1.8-0.9-3.8,0-5.6C18.3,81.6,19,81.2,19.8,81.2L19.8,81.2z"/>
			</g>
		</g>
		<g id="ytick_4">
			<g id="line2d_14">
				<path id="m26af831aea-4" class="st1" d="M30,128.1h-3.5"/>
			</g>
			<g id="text_5">
				<path id="DejaVuSans-50-2" d="M18.5,131H22v0.8h-4.7V131c0.4-0.4,0.9-0.9,1.5-1.6c0.6-0.6,1-1.1,1.2-1.3
					c0.3-0.3,0.5-0.6,0.7-0.9c0.1-0.2,0.2-0.5,0.2-0.7c0-0.4-0.1-0.7-0.4-1c-0.3-0.3-0.7-0.4-1.1-0.4c-0.3,0-0.7,0.1-1,0.2
					c-0.4,0.1-0.8,0.3-1.1,0.5v-1c0.4-0.1,0.7-0.3,1.1-0.4c0.3-0.1,0.7-0.1,1-0.1c0.7,0,1.3,0.2,1.8,0.6c0.4,0.4,0.7,0.9,0.7,1.5
					c0,0.3-0.1,0.6-0.2,0.8c-0.2,0.4-0.4,0.7-0.6,1c-0.1,0.1-0.3,0.4-0.8,0.8S19.3,130.2,18.5,131z"/>
			</g>
		</g>
		<g id="text_6">
			<path id="DejaVuSans-90-2" d="M3.2,133.6v-5.7H4l5.7,4.6v-4.7h0.8v6H9.8l-5.7-4.7v4.5H3.2z"/>
			<path id="DejaVuSans-40-2" d="M2.9,121c0.7,0.4,1.4,0.8,2.2,1c1.5,0.4,3,0.4,4.5,0c0.8-0.2,1.5-0.6,2.2-1v0.8
				c-0.7,0.5-1.5,0.8-2.3,1.1c-0.7,0.2-1.5,0.4-2.2,0.4c-0.7,0-1.5-0.1-2.2-0.4c-0.8-0.3-1.6-0.6-2.3-1.1V121z"/>
			<path id="DejaVuSans-107-2" d="M2.9,119.3v-0.9h4.5l-2.4-2.7v-1.2l2.6,2.9l2.9-3v1.2l-2.7,2.8h2.7v0.9L2.9,119.3L2.9,119.3z"/>
			<path id="DejaVuSans-109-2" d="M6.1,109.2c-0.4-0.2-0.7-0.5-0.9-0.8c-0.2-0.3-0.3-0.7-0.3-1.1c0-0.5,0.2-1,0.6-1.3
				c0.5-0.3,1.1-0.5,1.7-0.5h3.3v0.9H7.3c-0.4,0-0.8,0.1-1.2,0.3c-0.3,0.2-0.4,0.5-0.4,0.8c0,0.4,0.1,0.8,0.5,1.1
				c0.4,0.3,0.8,0.4,1.3,0.4h3.1v0.9H7.2c-0.4,0-0.8,0.1-1.2,0.3c-0.3,0.2-0.4,0.5-0.4,0.9c0,0.4,0.2,0.8,0.5,1.1
				c0.4,0.3,0.8,0.4,1.3,0.4h3.1v0.9H5v-0.9h0.8c-0.3-0.2-0.6-0.4-0.7-0.7c-0.2-0.3-0.2-0.7-0.2-1c0-0.4,0.1-0.7,0.3-1
				C5.4,109.6,5.7,109.4,6.1,109.2z"/>
			<path id="DejaVuSans-41-2" d="M2.9,103.9v-0.8c0.7-0.5,1.5-0.8,2.3-1.1c1.4-0.5,3-0.5,4.4,0c0.8,0.3,1.6,0.6,2.3,1.1v0.8
				c-0.7-0.4-1.4-0.8-2.2-1c-1.5-0.4-3-0.4-4.5,0C4.4,103.1,3.6,103.5,2.9,103.9z"/>
		</g>
	</g>
	<g id="patch_8">
		<path class="st2" d="M30,150.1V84.9"/>
	</g>
	<g id="patch_9">
		<path class="st2" d="M342.4,150.1V84.9"/>
	</g>
	<g id="patch_10">
		<path class="st2" d="M30,150.1h312.5"/>
	</g>
	<g id="patch_11">
		<path class="st2" d="M30,84.9h312.5"/>
	</g>
</g>
<g id="axes_3">
	<g id="patch_12">
		<path class="st0" d="M30,228.4h312.5v-65.2H30V228.4z"/>
	</g>
	
		<image style="overflow:visible;enable-background:new    ;" width="434" height="91" id="image98603777b1" xlink:href="84E7BD95.png"  transform="matrix(0.72 0 0 -0.72 30.32 228.36)">
	</image>
	<g id="matplotlib.axis_5">
		<g id="xtick_11">
			<g id="line2d_15">
				<path id="m531fe61eba-11" class="st1" d="M30,228.4v3.5"/>
			</g>
			<g id="text_7">
				<path id="DejaVuSans-48-3" d="M30,236.3c-0.5,0-1,0.3-1.1,0.8c-0.3,0.7-0.4,1.5-0.4,2.3c0,0.8,0.1,1.5,0.4,2.3
					c0.3,0.6,1,0.9,1.7,0.6c0.3-0.1,0.5-0.4,0.6-0.6c0.3-0.7,0.4-1.5,0.4-2.3c0-0.8-0.1-1.5-0.4-2.3C31,236.6,30.5,236.3,30,236.3z
					 M30,235.5c0.8,0,1.5,0.4,1.9,1c0.9,1.8,0.9,3.8,0,5.6c-0.7,1-2.2,1.3-3.2,0.5c-0.2-0.2-0.4-0.3-0.5-0.5c-0.9-1.8-0.9-3.8,0-5.6
					C28.5,235.9,29.2,235.5,30,235.5L30,235.5z"/>
			</g>
		</g>
		<g id="xtick_12">
			<g id="line2d_16">
				<path id="m531fe61eba-12" class="st1" d="M97.7,228.4v3.5"/>
			</g>
			<g id="text_8">
				<path id="DejaVuSans-50-3" d="M96.5,242.1h3.4v0.9h-4.6v-0.8c0.4-0.4,0.9-0.9,1.5-1.6c0.7-0.6,1.1-1.1,1.2-1.3
					c0.3-0.3,0.5-0.6,0.7-0.9c0.1-0.2,0.2-0.5,0.2-0.7c0-0.4-0.1-0.7-0.4-1c-0.3-0.3-0.7-0.4-1.1-0.4c-0.3,0-0.7,0.1-1,0.2
					c-0.4,0.1-0.8,0.3-1.1,0.5v-1c0.4-0.1,0.7-0.3,1.1-0.4c0.3-0.1,0.7-0.1,1-0.1c0.7,0,1.3,0.2,1.8,0.6c0.4,0.4,0.7,0.9,0.7,1.5
					c0,0.3-0.1,0.6-0.2,0.9c-0.2,0.3-0.4,0.7-0.6,0.9c-0.1,0.1-0.3,0.4-0.8,0.8S97.3,241.3,96.5,242.1z"/>
			</g>
		</g>
		<g id="xtick_13">
			<g id="line2d_17">
				<path id="m531fe61eba-13" class="st1" d="M165.5,228.4v3.5"/>
			</g>
			<g id="text_9">
				<path id="DejaVuSans-52" d="M166.1,236.5l-2.5,3.9h2.5V236.5z M165.9,235.7h1.2v4.8h1v0.8h-1v1.8h-1v-1.7h-3.3v-1L165.9,235.7z"
					/>
			</g>
		</g>
		<g id="xtick_14">
			<g id="line2d_18">
				<path id="m531fe61eba-14" class="st1" d="M233.3,228.4v3.5"/>
			</g>
			<g id="text_10">
				<path id="DejaVuSans-54" d="M233.4,238.9c-0.4,0-0.8,0.1-1.1,0.4c-0.5,0.7-0.5,1.7,0,2.5c0.3,0.3,0.6,0.5,1.1,0.5
					c0.4,0,0.8-0.2,1-0.5c0.3-0.4,0.4-0.8,0.4-1.2c0-0.4-0.1-0.9-0.4-1.2C234.2,239.1,233.8,238.9,233.4,238.9z M235.4,235.8v0.9
					c-0.2-0.1-0.5-0.2-0.8-0.3c-0.2-0.1-0.5-0.1-0.8-0.1c-0.6,0-1.1,0.2-1.5,0.7c-0.4,0.6-0.6,1.3-0.6,2c0.2-0.3,0.4-0.5,0.7-0.6
					c0.3-0.2,0.7-0.2,1-0.2c0.6,0,1.3,0.2,1.7,0.7c0.9,1,0.9,2.6,0,3.6c-0.5,0.5-1.1,0.7-1.8,0.7c-0.8,0-1.5-0.3-1.9-1
					c-0.5-0.8-0.7-1.8-0.7-2.8c-0.1-1,0.2-2,0.8-2.8c0.5-0.7,1.3-1,2.2-1c0.3,0,0.5,0,0.8,0.1C234.9,235.7,235.1,235.7,235.4,235.8
					L235.4,235.8z"/>
			</g>
		</g>
		<g id="xtick_15">
			<g id="line2d_19">
				<path id="m531fe61eba-15" class="st1" d="M301.1,228.4v3.5"/>
			</g>
			<g id="text_11">
				<path id="DejaVuSans-56" d="M301.1,239.5c-0.4,0-0.8,0.1-1.1,0.4c-0.3,0.3-0.4,0.6-0.4,1c0,0.4,0.1,0.7,0.4,1
					c0.7,0.5,1.6,0.5,2.2,0c0.3-0.3,0.4-0.6,0.4-1c0-0.4-0.1-0.7-0.4-1C301.9,239.6,301.5,239.5,301.1,239.5z M300.1,239.1
					c-0.4-0.1-0.7-0.3-1-0.6c-0.2-0.3-0.4-0.7-0.4-1.1c0-0.5,0.2-1,0.6-1.4c1-0.7,2.4-0.7,3.4,0c0.4,0.3,0.6,0.8,0.6,1.4
					c0,0.4-0.1,0.8-0.4,1.1c-0.3,0.3-0.6,0.5-1,0.6c0.4,0.1,0.8,0.3,1.1,0.6c0.3,0.3,0.4,0.8,0.4,1.2c0,0.6-0.2,1.2-0.6,1.6
					c-1.1,0.8-2.6,0.8-3.7,0c-0.4-0.4-0.7-1-0.6-1.6c0-0.4,0.1-0.8,0.4-1.2C299.2,239.4,299.7,239.2,300.1,239.1L300.1,239.1z
					 M299.7,237.5c0,0.3,0.1,0.7,0.4,0.9c0.3,0.2,0.6,0.3,1,0.3c0.4,0,0.7-0.1,1-0.3c0.2-0.2,0.4-0.5,0.4-0.9c0-0.3-0.1-0.7-0.4-0.9
					c-0.3-0.2-0.6-0.3-1-0.3c-0.4,0-0.7,0.1-1,0.3C299.8,236.9,299.7,237.2,299.7,237.5L299.7,237.5z"/>
			</g>
		</g>
		<g id="text_12">
			<path id="DejaVuSans-88" d="M170.1,249.4h1.1l1.8,2.7l1.8-2.7h1.1l-2.3,3.5l2.5,3.8H175l-2.1-3.1l-2.1,3.1h-1.1l2.6-3.9
				L170.1,249.4z"/>
			<path id="DejaVuSans-40-3" d="M182.6,249.1c-0.4,0.7-0.8,1.4-1,2.2c-0.4,1.5-0.4,3,0,4.5c0.2,0.8,0.6,1.5,1,2.2h-0.8
				c-0.5-0.7-0.8-1.5-1.1-2.3c-0.2-0.7-0.4-1.5-0.4-2.2c0-0.7,0.1-1.5,0.4-2.2c0.3-0.8,0.6-1.6,1.1-2.3L182.6,249.1z"/>
			<path id="DejaVuSans-107-3" d="M184.4,249.1h0.9v4.5l2.7-2.4h1.1l-2.9,2.6l3,2.9H188l-2.8-2.6v2.7h-0.9V249.1z"/>
			<path id="DejaVuSans-109-3" d="M194.4,252.2c0.2-0.4,0.5-0.7,0.8-0.9c0.3-0.2,0.7-0.3,1.1-0.3c0.5,0,1,0.2,1.3,0.6
				c0.3,0.5,0.5,1.1,0.5,1.7v3.3h-0.9v-3.3c0-0.4-0.1-0.8-0.3-1.2c-0.2-0.3-0.5-0.4-0.9-0.4c-0.4,0-0.8,0.1-1.1,0.5
				c-0.3,0.4-0.4,0.8-0.4,1.3v3.1h-0.9v-3.3c0-0.4-0.1-0.8-0.3-1.2c-0.2-0.3-0.5-0.4-0.9-0.4c-0.4,0-0.8,0.2-1.1,0.5
				c-0.3,0.4-0.4,0.8-0.4,1.3v3.1h-0.9v-5.5h0.9v0.8c0.2-0.3,0.4-0.6,0.7-0.7c0.3-0.2,0.7-0.2,1-0.2c0.4,0,0.7,0.1,1,0.3
				C194.1,251.6,194.3,251.9,194.4,252.2z"/>
			<path id="DejaVuSans-41-3" d="M199.8,249.1h0.8c0.5,0.7,0.8,1.5,1.1,2.3c0.5,1.4,0.5,3,0,4.4c-0.3,0.8-0.6,1.6-1.1,2.3h-0.8
				c0.4-0.7,0.8-1.4,1-2.2c0.4-1.5,0.4-3,0-4.5C200.5,250.5,200.2,249.8,199.8,249.1z"/>
		</g>
	</g>
	<g id="matplotlib.axis_6">
		<g id="ytick_5">
			<g id="line2d_20">
				<path id="m26af831aea-5" class="st1" d="M30,163.1h-3.5"/>
			</g>
			<g id="text_13">
				<path id="DejaVuSans-48-4" d="M19.8,160.3c-0.5,0-1,0.3-1.1,0.8c-0.3,0.7-0.4,1.5-0.4,2.3c0,0.8,0.1,1.5,0.4,2.3
					c0.3,0.6,1,0.9,1.7,0.6c0.3-0.1,0.5-0.4,0.6-0.6c0.3-0.7,0.4-1.5,0.4-2.3c0-0.8-0.1-1.5-0.4-2.3
					C20.7,160.6,20.3,160.3,19.8,160.3z M19.8,159.5c0.8,0,1.5,0.4,1.9,1c0.9,1.8,0.9,3.8,0,5.6c-0.7,1-2.2,1.3-3.2,0.5
					c-0.2-0.2-0.4-0.3-0.5-0.5c-0.9-1.8-0.9-3.8,0-5.6C18.3,159.9,19,159.5,19.8,159.5z"/>
			</g>
		</g>
		<g id="ytick_6">
			<g id="line2d_21">
				<path id="m26af831aea-6" class="st1" d="M30,206.3h-3.5"/>
			</g>
			<g id="text_14">
				<path id="DejaVuSans-50-4" d="M18.5,209.3H22v0.8h-4.7v-0.8c0.4-0.4,0.9-0.9,1.5-1.6c0.6-0.6,1-1.1,1.2-1.3
					c0.3-0.3,0.5-0.6,0.7-0.9c0.1-0.2,0.2-0.5,0.2-0.7c0-0.4-0.1-0.7-0.4-0.9c-0.3-0.3-0.7-0.4-1.1-0.4c-0.3,0-0.7,0.1-1,0.2
					c-0.4,0.1-0.8,0.3-1.1,0.5v-1c0.4-0.1,0.7-0.3,1.1-0.4c0.3-0.1,0.7-0.1,1-0.1c0.7,0,1.3,0.2,1.8,0.6c0.4,0.4,0.7,0.9,0.7,1.5
					c0,0.3-0.1,0.6-0.2,0.9c-0.2,0.4-0.4,0.7-0.6,1c-0.1,0.1-0.3,0.4-0.8,0.8S19.3,208.5,18.5,209.3z"/>
			</g>
		</g>
		<g id="text_15">
			<path id="DejaVuSans-90-3" d="M3.2,211.9v-5.7H4l5.7,4.6V206h0.8v6H9.8l-5.7-4.6v4.5L3.2,211.9z"/>
			<path id="DejaVuSans-40-4" d="M2.9,199.3c0.7,0.4,1.4,0.8,2.2,1c1.5,0.4,3,0.4,4.5,0c0.8-0.2,1.5-0.6,2.2-1v0.8
				c-0.7,0.5-1.5,0.8-2.3,1.1c-0.7,0.2-1.5,0.4-2.2,0.4c-0.7,0-1.5-0.1-2.2-0.4c-0.8-0.3-1.6-0.6-2.3-1.1V199.3z"/>
			<path id="DejaVuSans-107-4" d="M2.9,197.6v-0.9h4.5L5.1,194v-1.1l2.6,2.9l2.9-3v1.2l-2.7,2.8h2.7v0.9L2.9,197.6L2.9,197.6z"/>
			<path id="DejaVuSans-109-4" d="M6.1,187.5c-0.4-0.2-0.7-0.5-0.9-0.8c-0.2-0.3-0.3-0.7-0.3-1.1c0-0.5,0.2-1,0.6-1.3
				c0.5-0.3,1.1-0.5,1.7-0.5h3.3v0.9H7.3c-0.4,0-0.8,0.1-1.2,0.3c-0.3,0.2-0.4,0.5-0.4,0.9c0,0.4,0.1,0.8,0.5,1.1
				c0.4,0.3,0.8,0.4,1.3,0.4h3.1v0.9H7.2c-0.4,0-0.8,0.1-1.2,0.3c-0.3,0.2-0.4,0.5-0.4,0.9c0,0.4,0.2,0.8,0.5,1.1
				c0.4,0.3,0.8,0.4,1.3,0.4h3.1v0.9H5v-0.9h0.8c-0.3-0.2-0.6-0.4-0.7-0.7c-0.2-0.3-0.2-0.7-0.2-1c0-0.4,0.1-0.7,0.3-1
				C5.4,187.8,5.7,187.6,6.1,187.5z"/>
			<path id="DejaVuSans-41-4" d="M2.9,182.2v-0.8c0.7-0.5,1.5-0.8,2.3-1.1c1.4-0.5,3-0.5,4.4,0c0.8,0.3,1.6,0.6,2.3,1.1v0.8
				c-0.7-0.4-1.4-0.8-2.2-1c-1.5-0.4-3-0.4-4.5,0C4.4,181.4,3.6,181.7,2.9,182.2z"/>
		</g>
	</g>
	<g id="patch_13">
		<path class="st2" d="M30,228.4v-65.2"/>
	</g>
	<g id="patch_14">
		<path class="st2" d="M342.4,228.4v-65.2"/>
	</g>
	<g id="patch_15">
		<path class="st2" d="M30,228.4h312.5"/>
	</g>
	<g id="patch_16">
		<path class="st2" d="M30,163.1h312.5"/>
	</g>
</g>
<g id="axes_4">
	<g id="patch_17">
		<g>
			<defs>
				<rect id="SVGID_1_" x="362" y="6.6" width="11.1" height="221.8"/>
			</defs>
			<clipPath id="SVGID_2_">
				<use xlink:href="#SVGID_1_"  style="overflow:visible;"/>
			</clipPath>
			<g class="st3">
				<path class="st4" d="M362,228.4V6.6h11.1v221.8H362z"/>
			</g>
		</g>
	</g>
	
		<image style="overflow:visible;enable-background:new    ;" width="15" height="308" id="image96b8bb82ad" xlink:href="84E7BD96.png"  transform="matrix(0.72 0 0 -0.72 362.24 228.36)">
	</image>
	<g id="matplotlib.axis_8">
		<g id="ytick_7">
			<g id="line2d_22">
				<path id="m68176479d0" class="st1" d="M373.1,228.4h3.5"/>
			</g>
			<g id="text_16">
				<path id="DejaVuSans-49" d="M381.3,231.3h1.6v-5.6l-1.8,0.4v-0.9l1.7-0.4h1v6.5h1.6v0.8h-4.2L381.3,231.3z"/>
				<path id="DejaVuSans-46" d="M387.5,230.9h1v1.2h-1V230.9z"/>
				<path id="DejaVuSans-53" d="M390.7,224.9h3.9v0.8h-3v1.8c0.1-0.1,0.3-0.1,0.4-0.1c0.1,0,0.3,0,0.4,0c0.7,0,1.4,0.2,1.9,0.7
					c1,1,1,2.6,0,3.6c-0.6,0.5-1.3,0.7-2.1,0.6c-0.3,0-0.6,0-0.9-0.1c-0.3-0.1-0.7-0.1-1-0.2v-1c0.6,0.3,1.2,0.5,1.9,0.5
					c0.5,0,1-0.1,1.3-0.4c0.3-0.3,0.5-0.8,0.5-1.2c0-0.5-0.2-0.9-0.5-1.2c-0.4-0.3-0.9-0.5-1.3-0.4c-0.3,0-0.5,0-0.8,0.1
					c-0.3,0.1-0.5,0.2-0.8,0.3L390.7,224.9L390.7,224.9z"/>
			</g>
		</g>
		<g id="ytick_8">
			<g id="line2d_23">
				<path id="m68176479d0-2" class="st1" d="M373.1,200.6h3.5"/>
			</g>
			<g id="text_17">
				<path id="DejaVuSans-50-5" d="M382,203.6h3.4v0.8h-4.6v-0.8c0.4-0.4,0.9-0.9,1.5-1.6c0.6-0.6,1-1.1,1.2-1.3
					c0.3-0.3,0.5-0.6,0.7-0.9c0.1-0.2,0.2-0.5,0.2-0.7c0-0.4-0.1-0.7-0.4-0.9c-0.3-0.3-0.7-0.4-1.1-0.4c-0.3,0-0.7,0.1-1,0.2
					c-0.4,0.1-0.8,0.3-1.1,0.5v-1c0.4-0.1,0.7-0.3,1.1-0.4c0.3-0.1,0.6-0.1,1-0.1c0.7,0,1.3,0.2,1.8,0.6c0.4,0.4,0.7,0.9,0.7,1.5
					c0,0.3-0.1,0.6-0.2,0.9c-0.2,0.3-0.4,0.7-0.6,0.9c-0.1,0.1-0.3,0.4-0.8,0.8S382.8,202.8,382,203.6z"/>
				<path id="DejaVuSans-46-2" d="M387.5,203.2h1v1.2h-1V203.2z"/>
				<path id="DejaVuSans-48-5" d="M392.8,197.8c-0.5,0-1,0.3-1.1,0.8c-0.3,0.7-0.4,1.5-0.4,2.3c0,0.8,0.1,1.5,0.4,2.3
					c0.3,0.6,1,0.9,1.7,0.6c0.3-0.1,0.5-0.4,0.6-0.6c0.3-0.7,0.4-1.5,0.4-2.3c0-0.8-0.1-1.5-0.4-2.3
					C393.7,198.1,393.3,197.8,392.8,197.8z M392.8,197c0.8,0,1.5,0.4,1.9,1c0.9,1.8,0.9,3.8,0,5.6c-0.7,1-2.2,1.3-3.2,0.5
					c-0.2-0.2-0.4-0.3-0.5-0.5c-0.9-1.8-0.9-3.8,0-5.6C391.3,197.4,392,197,392.8,197L392.8,197z"/>
			</g>
		</g>
		<g id="ytick_9">
			<g id="line2d_24">
				<path id="m68176479d0-3" class="st1" d="M373.1,172.9h3.5"/>
			</g>
			<g id="text_18">
				<path id="DejaVuSans-50-6" d="M382,175.9h3.4v0.8h-4.6v-0.8c0.4-0.4,0.9-0.9,1.5-1.6c0.6-0.6,1-1.1,1.2-1.3
					c0.3-0.3,0.5-0.6,0.7-0.9c0.1-0.2,0.2-0.5,0.2-0.7c0-0.4-0.1-0.7-0.4-0.9c-0.3-0.3-0.7-0.4-1.1-0.4c-0.3,0-0.7,0.1-1,0.2
					c-0.4,0.1-0.8,0.3-1.1,0.5v-1c0.4-0.1,0.7-0.3,1.1-0.4c0.3-0.1,0.6-0.1,1-0.1c0.7,0,1.3,0.2,1.8,0.6c0.4,0.4,0.7,0.9,0.7,1.5
					c0,0.3-0.1,0.6-0.2,0.9c-0.2,0.3-0.4,0.7-0.6,0.9c-0.1,0.1-0.3,0.4-0.8,0.8S382.8,175.1,382,175.9z"/>
				<path id="DejaVuSans-46-3" d="M387.5,175.5h1v1.2h-1V175.5z"/>
				<path id="DejaVuSans-53-2" d="M390.7,169.4h3.9v0.8h-3v1.8c0.1-0.1,0.3-0.1,0.4-0.1c0.1,0,0.3,0,0.4,0c0.7,0,1.4,0.2,1.9,0.7
					c1,1,1,2.6,0,3.6c-0.6,0.5-1.3,0.7-2.1,0.6c-0.3,0-0.6,0-0.9-0.1c-0.3-0.1-0.7-0.1-1-0.2v-1c0.6,0.3,1.2,0.5,1.9,0.5
					c0.5,0,1-0.1,1.3-0.4c0.3-0.3,0.5-0.8,0.5-1.2c0-0.5-0.2-0.9-0.5-1.2c-0.4-0.3-0.9-0.5-1.3-0.4c-0.3,0-0.5,0-0.8,0.1
					c-0.3,0.1-0.5,0.2-0.8,0.3L390.7,169.4L390.7,169.4z"/>
			</g>
		</g>
		<g id="ytick_10">
			<g id="line2d_25">
				<path id="m68176479d0-4" class="st1" d="M373.1,145.2h3.5"/>
			</g>
			<g id="text_19">
				<path id="DejaVuSans-51" d="M384.1,145.1c0.4,0.1,0.8,0.3,1.1,0.6c0.3,0.3,0.4,0.8,0.4,1.2c0,0.6-0.2,1.3-0.7,1.7
					c-0.6,0.4-1.4,0.6-2.1,0.6c-0.3,0-0.6,0-0.9-0.1c-0.3-0.1-0.7-0.2-1-0.3v-0.9c0.3,0.2,0.6,0.3,0.9,0.4c0.3,0.1,0.7,0.1,1,0.1
					c0.5,0,1-0.1,1.4-0.4c0.3-0.3,0.5-0.6,0.5-1.1c0-0.4-0.2-0.8-0.5-1c-0.4-0.3-0.8-0.4-1.3-0.4h-0.9v-0.8h0.9
					c0.4,0,0.8-0.1,1.1-0.3c0.5-0.4,0.5-1.1,0.1-1.6c0,0-0.1-0.1-0.1-0.1c-0.3-0.2-0.7-0.3-1.1-0.3c-0.3,0-0.6,0-0.9,0.1
					c-0.3,0.1-0.7,0.2-1,0.3v-0.9c0.3-0.1,0.7-0.2,1-0.2c0.3-0.1,0.6-0.1,0.9-0.1c0.6,0,1.3,0.1,1.8,0.5c0.4,0.3,0.7,0.8,0.6,1.4
					c0,0.4-0.1,0.7-0.4,1C384.8,144.8,384.5,145,384.1,145.1z"/>
				<path id="DejaVuSans-46-4" d="M387.5,147.8h1v1.2h-1V147.8z"/>
				<path id="DejaVuSans-48-6" d="M392.8,142.4c-0.5,0-1,0.3-1.1,0.8c-0.3,0.7-0.4,1.5-0.4,2.3c0,0.8,0.1,1.5,0.4,2.3
					c0.3,0.6,1,0.9,1.7,0.6c0.3-0.1,0.5-0.4,0.6-0.6c0.3-0.7,0.4-1.5,0.4-2.3c0-0.8-0.1-1.5-0.4-2.3
					C393.7,142.6,393.3,142.4,392.8,142.4z M392.8,141.6c0.8,0,1.5,0.4,1.9,1c0.9,1.8,0.9,3.8,0,5.6c-0.7,1-2.2,1.3-3.2,0.5
					c-0.2-0.2-0.4-0.3-0.5-0.5c-0.9-1.8-0.9-3.8,0-5.6C391.3,141.9,392,141.6,392.8,141.6z"/>
			</g>
		</g>
		<g id="ytick_11">
			<g id="line2d_26">
				<path id="m68176479d0-5" class="st1" d="M373.1,117.5h3.5"/>
			</g>
			<g id="text_20">
				<path id="DejaVuSans-51-2" d="M384.1,117.3c0.4,0.1,0.8,0.3,1.1,0.6c0.3,0.3,0.4,0.8,0.4,1.2c0,0.6-0.2,1.3-0.7,1.7
					c-0.6,0.4-1.4,0.6-2.1,0.6c-0.3,0-0.6,0-0.9-0.1c-0.3-0.1-0.7-0.2-1-0.3v-1c0.3,0.2,0.6,0.3,0.9,0.4c0.3,0.1,0.7,0.1,1,0.1
					c0.5,0,1-0.1,1.4-0.4c0.3-0.3,0.5-0.6,0.5-1.1c0-0.4-0.2-0.8-0.5-1c-0.4-0.3-0.8-0.4-1.3-0.4h-0.9V117h0.9
					c0.4,0,0.8-0.1,1.1-0.3c0.5-0.4,0.5-1.1,0.1-1.6c0,0-0.1-0.1-0.1-0.1c-0.3-0.2-0.7-0.3-1.1-0.3c-0.3,0-0.6,0-0.9,0.1
					c-0.3,0.1-0.7,0.2-1,0.3v-0.9c0.3-0.1,0.7-0.2,1-0.2c0.3-0.1,0.6-0.1,0.9-0.1c0.6,0,1.3,0.1,1.8,0.5c0.4,0.3,0.7,0.8,0.6,1.4
					c0,0.4-0.1,0.7-0.4,1C384.8,117.1,384.5,117.3,384.1,117.3z"/>
				<path id="DejaVuSans-46-5" d="M387.5,120h1v1.2h-1V120z"/>
				<path id="DejaVuSans-53-3" d="M390.7,114h3.9v0.8h-3v1.8c0.1-0.1,0.3-0.1,0.4-0.1c0.1,0,0.3,0,0.4,0c0.7,0,1.4,0.2,1.9,0.7
					c1,1,1,2.6,0,3.6c-0.6,0.5-1.3,0.7-2.1,0.7c-0.3,0-0.6,0-0.9-0.1c-0.3-0.1-0.7-0.1-1-0.2v-1c0.6,0.3,1.2,0.5,1.9,0.5
					c0.5,0,1-0.1,1.3-0.4c0.3-0.3,0.5-0.8,0.5-1.2c0-0.5-0.2-0.9-0.5-1.2c-0.4-0.3-0.9-0.5-1.3-0.4c-0.3,0-0.5,0-0.8,0.1
					c-0.3,0.1-0.5,0.2-0.8,0.3L390.7,114L390.7,114z"/>
			</g>
		</g>
		<g id="ytick_12">
			<g id="line2d_27">
				<path id="m68176479d0-6" class="st1" d="M373.1,89.8h3.5"/>
			</g>
			<g id="text_21">
				<path id="DejaVuSans-52-2" d="M383.8,87.1l-2.5,3.9h2.5V87.1z M383.6,86.3h1.2V91h1v0.8h-1v1.7h-1v-1.7h-3.3v-1L383.6,86.3z"/>
				<path id="DejaVuSans-46-6" d="M387.5,92.3h1v1.2h-1V92.3z"/>
				<path id="DejaVuSans-48-7" d="M392.8,86.9c-0.5,0-1,0.3-1.1,0.8c-0.3,0.7-0.4,1.5-0.4,2.3c0,0.8,0.1,1.5,0.4,2.3
					c0.3,0.6,1,0.9,1.7,0.6c0.3-0.1,0.5-0.4,0.6-0.6c0.3-0.7,0.4-1.5,0.4-2.3c0-0.8-0.1-1.5-0.4-2.3
					C393.7,87.2,393.3,86.9,392.8,86.9z M392.8,86.1c0.8,0,1.5,0.4,1.9,1c0.9,1.8,0.9,3.8,0,5.6c-0.7,1-2.2,1.3-3.2,0.5
					c-0.2-0.2-0.4-0.3-0.5-0.5c-0.9-1.8-0.9-3.8,0-5.6C391.3,86.5,392,86.1,392.8,86.1z"/>
			</g>
		</g>
		<g id="ytick_13">
			<g id="line2d_28">
				<path id="m68176479d0-7" class="st1" d="M373.1,62h3.5"/>
			</g>
			<g id="text_22">
				<path id="DejaVuSans-52-3" d="M383.8,59.4l-2.5,3.9h2.5V59.4z M383.6,58.5h1.2v4.8h1v0.8h-1v1.7h-1v-1.7h-3.3v-1L383.6,58.5z"/>
				<path id="DejaVuSans-46-7" d="M387.5,64.6h1v1.2h-1V64.6z"/>
				<path id="DejaVuSans-53-4" d="M390.7,58.5h3.9v0.8h-3v1.8c0.1-0.1,0.3-0.1,0.4-0.1c0.1,0,0.3,0,0.4,0c0.7,0,1.4,0.2,1.9,0.7
					c1,1,1,2.6,0,3.6c-0.6,0.5-1.3,0.7-2.1,0.7c-0.3,0-0.6,0-0.9-0.1c-0.3-0.1-0.7-0.1-1-0.2v-1c0.6,0.3,1.2,0.5,1.9,0.5
					c0.5,0,1-0.1,1.3-0.4c0.3-0.3,0.5-0.8,0.5-1.2c0-0.5-0.2-0.9-0.5-1.2c-0.4-0.3-0.9-0.5-1.3-0.5c-0.3,0-0.5,0-0.8,0.1
					c-0.3,0.1-0.5,0.2-0.8,0.3L390.7,58.5L390.7,58.5z"/>
			</g>
		</g>
		<g id="ytick_14">
			<g id="line2d_29">
				<path id="m68176479d0-8" class="st1" d="M373.1,34.3h3.5"/>
			</g>
			<g id="text_23">
				<path id="DejaVuSans-53-5" d="M381.1,30.8h3.9v0.8h-3v1.8c0.1-0.1,0.3-0.1,0.4-0.1c0.1,0,0.3,0,0.4,0c0.7,0,1.4,0.2,1.9,0.7
					c1,1,1,2.6,0,3.6c-0.6,0.5-1.3,0.7-2.1,0.7c-0.3,0-0.6,0-0.9-0.1c-0.3-0.1-0.7-0.1-1-0.2v-1c0.6,0.3,1.2,0.5,1.9,0.5
					c0.5,0,1-0.1,1.3-0.4c0.3-0.3,0.5-0.8,0.5-1.2c0-0.5-0.2-0.9-0.5-1.2c-0.4-0.3-0.9-0.5-1.3-0.5c-0.3,0-0.5,0-0.8,0.1
					c-0.3,0.1-0.5,0.2-0.8,0.3L381.1,30.8L381.1,30.8z"/>
				<path id="DejaVuSans-46-8" d="M387.5,36.9h1v1.2h-1V36.9z"/>
				<path id="DejaVuSans-48-8" d="M392.8,31.5c-0.5,0-1,0.3-1.1,0.8c-0.3,0.7-0.4,1.5-0.4,2.3c0,0.8,0.1,1.5,0.4,2.3
					c0.3,0.6,1,0.9,1.7,0.6c0.3-0.1,0.5-0.4,0.6-0.6c0.3-0.7,0.4-1.5,0.4-2.3c0-0.8-0.1-1.5-0.4-2.3
					C393.7,31.8,393.3,31.5,392.8,31.5z M392.8,30.7c0.8,0,1.5,0.4,1.9,1c0.5,0.9,0.7,1.8,0.6,2.8c0.1,1-0.2,2-0.6,2.8
					c-0.7,1-2.2,1.3-3.2,0.5c-0.2-0.2-0.4-0.3-0.5-0.5c-0.5-0.9-0.7-1.8-0.6-2.8c-0.1-1,0.2-2,0.6-2.8
					C391.3,31.1,392,30.7,392.8,30.7z"/>
			</g>
		</g>
		<g id="ytick_15">
			<g id="line2d_30">
				<path id="m68176479d0-9" class="st1" d="M373.1,6.6h3.5"/>
			</g>
			<g id="text_24">
				<path id="DejaVuSans-53-6" d="M381.1,3.1h3.9v0.8h-3v1.8c0.1-0.1,0.3-0.1,0.4-0.1c0.1,0,0.3,0,0.4,0c0.7,0,1.4,0.2,1.9,0.7
					c0.5,0.5,0.7,1.1,0.7,1.8c0,0.7-0.2,1.4-0.7,1.8c-0.6,0.5-1.3,0.7-2.1,0.6c-0.3,0-0.6,0-0.9-0.1c-0.3-0.1-0.7-0.1-1-0.2v-1
					c0.6,0.3,1.2,0.5,1.9,0.5c0.5,0,1-0.1,1.3-0.4c0.3-0.3,0.5-0.8,0.5-1.2c0-0.5-0.2-0.9-0.5-1.2c-0.4-0.3-0.9-0.5-1.3-0.4
					c-0.3,0-0.5,0-0.8,0.1c-0.3,0.1-0.5,0.2-0.8,0.3L381.1,3.1L381.1,3.1z"/>
				<path id="DejaVuSans-46-9" d="M387.5,9.2h1v1.2h-1V9.2z"/>
				<path id="DejaVuSans-53-7" d="M390.7,3.1h3.9v0.8h-3v1.8c0.1-0.1,0.3-0.1,0.4-0.1c0.1,0,0.3,0,0.4,0c0.7,0,1.4,0.2,1.9,0.7
					c0.5,0.5,0.7,1.1,0.7,1.8c0,0.7-0.2,1.4-0.7,1.8c-0.6,0.5-1.3,0.7-2.1,0.6c-0.3,0-0.6,0-0.9-0.1c-0.3-0.1-0.7-0.1-1-0.2v-1
					c0.6,0.3,1.2,0.5,1.9,0.5c0.5,0,1-0.1,1.3-0.4c0.3-0.3,0.5-0.8,0.5-1.2c0-0.5-0.2-0.9-0.5-1.2c-0.4-0.3-0.9-0.5-1.3-0.4
					c-0.3,0-0.5,0-0.8,0.1c-0.3,0.1-0.5,0.2-0.8,0.3L390.7,3.1L390.7,3.1z"/>
			</g>
		</g>
		<g id="text_25">
			<path id="DejaVuSans-86" d="M407.6,151.8l-7.3,2.8v-1l6.1-2.3l-6.1-2.3v-1l7.3,2.8V151.8z"/>
			<path id="DejaVuSans-101" d="M404.6,143h0.4v4.1c0.5,0,1-0.2,1.4-0.6c0.3-0.4,0.5-0.9,0.5-1.4c0-0.3,0-0.7-0.1-1
				c-0.1-0.3-0.2-0.7-0.4-1h0.9c0.1,0.3,0.2,0.7,0.3,1c0.1,0.3,0.1,0.7,0.1,1c0.1,1.4-1,2.7-2.4,2.8c-0.1,0-0.3,0-0.4,0
				c-0.8,0-1.5-0.2-2.1-0.7c-0.5-0.5-0.8-1.2-0.8-2c0-0.7,0.2-1.3,0.7-1.8C403.2,143.1,403.9,142.9,404.6,143z M404.3,143.9
				c-0.4,0-0.9,0.1-1.2,0.4c-0.3,0.3-0.5,0.7-0.4,1.1c0,0.4,0.1,0.9,0.4,1.2c0.3,0.3,0.7,0.5,1.2,0.5L404.3,143.9z"/>
			<path id="DejaVuSans-108" d="M400,141.5v-0.9h7.6v0.9H400z"/>
			<path id="DejaVuSans-111" d="M402.7,136.6c0,0.4,0.2,0.9,0.6,1.1c1,0.6,2.1,0.6,3.1,0c0.6-0.5,0.8-1.4,0.3-2
				c-0.1-0.1-0.2-0.2-0.3-0.3c-0.9-0.6-2.1-0.6-3.1,0C402.9,135.7,402.7,136.1,402.7,136.6z M402,136.6c0-0.7,0.2-1.4,0.8-1.8
				c1.3-0.9,3-0.9,4.2,0c1,1,1,2.7,0,3.7c-0.6,0.5-1.3,0.7-2.1,0.7c-0.8,0-1.5-0.2-2.1-0.7C402.2,138,402,137.3,402,136.6L402,136.6
				z"/>
			<path id="DejaVuSans-99" d="M402.3,128.6h0.8c-0.1,0.2-0.2,0.5-0.3,0.8c-0.1,0.3-0.1,0.5-0.1,0.8c0,0.5,0.2,1,0.5,1.4
				c0.9,0.6,2.2,0.6,3.1,0c0.4-0.3,0.6-0.8,0.5-1.4c0-0.3,0-0.5-0.1-0.8c-0.1-0.3-0.2-0.5-0.3-0.8h0.8c0.1,0.2,0.2,0.5,0.3,0.8
				c0.1,0.3,0.1,0.6,0.1,0.9c0,0.7-0.2,1.5-0.8,2c-0.6,0.5-1.3,0.8-2.1,0.7c-0.8,0-1.5-0.2-2.1-0.7c-0.5-0.5-0.8-1.3-0.8-2
				c0-0.3,0-0.5,0.1-0.8C402.1,129.2,402.2,128.9,402.3,128.6z"/>
			<path id="DejaVuSans-105" d="M402.1,127.1v-0.9h5.5v0.9H402.1z M400,127.1v-0.9h1.1v0.9H400z"/>
			<path id="DejaVuSans-116" d="M400.5,123.4h1.5v-1.8h0.7v1.8h3c0.3,0,0.6,0,0.9-0.2c0.2-0.2,0.2-0.5,0.2-0.8v-0.9h0.8v0.9
				c0.1,0.5-0.1,1-0.4,1.4c-0.4,0.3-0.9,0.4-1.4,0.4h-3v0.7h-0.7v-0.7h-1.5L400.5,123.4z"/>
			<path id="DejaVuSans-121" d="M408.1,118.1c0.5,0.1,0.9,0.4,1.3,0.7c0.2,0.3,0.3,0.6,0.3,1v0.7h-0.8V120c0-0.2-0.1-0.4-0.2-0.6
				c-0.2-0.2-0.5-0.4-0.8-0.4l-0.4-0.2l-5.4,2.2v-1l4.3-1.7l-4.3-1.7v-1L408.1,118.1z"/>
			<path id="DejaVuSans-40-5" d="M400,109.1c0.7,0.4,1.4,0.8,2.2,1c1.5,0.4,3,0.4,4.5,0c0.8-0.2,1.5-0.6,2.2-1v0.8
				c-0.7,0.5-1.5,0.8-2.3,1.1c-0.7,0.2-1.5,0.4-2.2,0.4c-0.7,0-1.5-0.1-2.2-0.4c-0.8-0.3-1.6-0.6-2.3-1.1L400,109.1z"/>
			<path id="DejaVuSans-107-5" d="M400,107.4v-0.9h4.5l-2.4-2.7v-1.2l2.6,2.9l2.9-3v1.2l-2.7,2.8h2.7v0.9L400,107.4z"/>
			<path id="DejaVuSans-109-5" d="M403.1,97.3c-0.4-0.2-0.7-0.5-0.9-0.8c-0.2-0.3-0.3-0.7-0.3-1.1c0-0.5,0.2-1,0.6-1.3
				c0.5-0.3,1.1-0.5,1.7-0.5h3.3v0.9h-3.3c-0.4,0-0.8,0.1-1.2,0.3c-0.3,0.2-0.4,0.5-0.4,0.8c0,0.4,0.1,0.8,0.5,1.1
				c0.4,0.3,0.8,0.4,1.3,0.4h3.1v0.9h-3.3c-0.4,0-0.8,0.1-1.2,0.3c-0.3,0.2-0.4,0.5-0.4,0.9c0,0.4,0.2,0.8,0.5,1.1
				c0.4,0.3,0.8,0.4,1.3,0.4h3.1v0.9h-5.5v-0.9h0.9c-0.3-0.2-0.6-0.4-0.7-0.7c-0.2-0.3-0.2-0.7-0.2-1c0-0.4,0.1-0.7,0.3-1
				C402.5,97.7,402.8,97.5,403.1,97.3z"/>
			<path id="DejaVuSans-47" d="M400.3,90.3v-0.8l8.2,2.6v0.8L400.3,90.3z"/>
			<path id="DejaVuSans-115" d="M402.3,85h0.9c-0.1,0.2-0.2,0.5-0.3,0.8c-0.1,0.3-0.1,0.6-0.1,0.8c0,0.3,0,0.7,0.2,1
				c0.1,0.2,0.4,0.3,0.6,0.3c0.2,0,0.4-0.1,0.5-0.2c0.2-0.3,0.3-0.6,0.3-1l0.1-0.3c0.1-0.5,0.3-0.9,0.6-1.3c0.3-0.3,0.6-0.4,1-0.4
				c0.5,0,0.9,0.2,1.2,0.6c0.3,0.5,0.5,1.1,0.5,1.7c0,0.3,0,0.6-0.1,0.9c-0.1,0.3-0.1,0.7-0.3,1h-0.9c0.2-0.3,0.3-0.7,0.4-1
				c0.1-0.3,0.1-0.7,0.1-1c0-0.3-0.1-0.7-0.2-1c-0.1-0.2-0.4-0.3-0.6-0.3c-0.2,0-0.4,0.1-0.6,0.3c-0.2,0.3-0.3,0.7-0.4,1.1l-0.1,0.3
				c-0.1,0.4-0.3,0.9-0.5,1.2c-0.3,0.3-0.6,0.4-1,0.4c-0.5,0-0.9-0.2-1.2-0.6c-0.3-0.5-0.5-1-0.4-1.6c0-0.3,0-0.6,0.1-0.9
				C402.1,85.5,402.2,85.2,402.3,85z"/>
			<path id="DejaVuSans-41-5" d="M400,83.4v-0.8c0.7-0.5,1.5-0.8,2.3-1.1c1.4-0.5,3-0.5,4.4,0c0.8,0.3,1.6,0.6,2.3,1.1v0.8
				c-0.7-0.4-1.4-0.8-2.2-1c-1.5-0.4-3-0.4-4.5,0C401.4,82.7,400.7,83,400,83.4z"/>
		</g>
	</g>
	<g id="patch_18">
		<path class="st5" d="M362,228.4V6.6h11.1v221.8H362z"/>
	</g>
</g>
<line class="st6" x1="200.2" y1="7.3" x2="200.2" y2="71.3"/>
<polygon class="st7" points="29.6,9.9 27.9,6.8 26.1,3.8 29.6,3.8 33.2,3.8 31.4,6.8 "/>
<polygon class="st7" points="50.9,9.9 49.1,6.8 47.4,3.8 50.9,3.8 54.5,3.8 52.7,6.8 "/>
<polygon class="st7" points="178.5,9.9 176.7,6.8 174.9,3.8 178.5,3.8 182,3.8 180.3,6.8 "/>
<polygon class="st7" points="157.2,9.9 155.4,6.8 153.7,3.8 157.2,3.8 160.8,3.8 159,6.8 "/>
<polygon class="st7" points="136,9.9 134.2,6.8 132.4,3.8 136,3.8 139.5,3.8 137.7,6.8 "/>
<polygon class="st7" points="114.7,9.9 112.9,6.8 111.2,3.8 114.7,3.8 118.2,3.8 116.5,6.8 "/>
<polygon class="st7" points="93.4,9.9 91.7,6.8 89.9,3.8 93.4,3.8 97,3.8 95.2,6.8 "/>
<polygon class="st7" points="72.2,9.9 70.4,6.8 68.6,3.8 72.2,3.8 75.7,3.8 73.9,6.8 "/>
<g class="st8">
	<path class="st9" d="M36.2,10.2L38.5,7l-2.2-3h2l1.1,1.7L40.6,4h1.9l-2.1,2.9l2.3,3.3h-2l-1.3-1.9l-1.3,1.9H36.2z"/>
</g>
<g class="st8">
	<path class="st9" d="M142.9,10.2l2.2-3.2L143,4h2l1.1,1.7l1.2-1.7h1.9l-2.1,2.9l2.3,3.3h-2l-1.3-1.9l-1.3,1.9H142.9z"/>
</g>
<g class="st8">
	<path class="st9" d="M121.6,10.2l2.2-3.2l-2.2-3h2l1.1,1.7l1.2-1.7h1.9l-2.1,2.9l2.3,3.3h-2l-1.3-1.9l-1.3,1.9H121.6z"/>
</g>
<g class="st8">
	<path class="st9" d="M100.2,10.2l2.2-3.2l-2.2-3h2l1.1,1.7l1.2-1.7h1.9l-2.1,2.9l2.3,3.3h-2l-1.3-1.9l-1.3,1.9H100.2z"/>
</g>
<g class="st8">
	<path class="st9" d="M78.9,10.2L81.2,7L79,4h2l1.1,1.7L83.3,4h1.9l-2.1,2.9l2.3,3.3h-2l-1.3-1.9l-1.3,1.9H78.9z"/>
</g>
<g class="st8">
	<path class="st9" d="M57.6,10.2L59.8,7l-2.2-3h2l1.1,1.7L61.9,4h1.9l-2.1,2.9l2.3,3.3h-2l-1.3-1.9l-1.3,1.9H57.6z"/>
</g>
<g class="st8">
	<path class="st9" d="M164.2,10.2l2.2-3.2l-2.2-3h2l1.1,1.7l1.2-1.7h1.9l-2.1,2.9l2.3,3.3h-2l-1.3-1.9l-1.3,1.9H164.2z"/>
</g>
<polygon class="st7" points="178.6,9.9 176.9,6.8 175.1,3.8 178.6,3.8 182.2,3.8 180.4,6.8 "/>
<polygon class="st7" points="199.9,9.9 198.1,6.8 196.4,3.8 199.9,3.8 203.4,3.8 201.7,6.8 "/>
<polygon class="st7" points="327.5,9.9 325.7,6.8 323.9,3.8 327.5,3.8 331,3.8 329.3,6.8 "/>
<polygon class="st7" points="306.2,9.9 304.5,6.8 302.7,3.8 306.2,3.8 309.8,3.8 308,6.8 "/>
<polygon class="st7" points="285,9.9 283.2,6.8 281.4,3.8 285,3.8 288.5,3.8 286.7,6.8 "/>
<polygon class="st7" points="263.7,9.9 261.9,6.8 260.1,3.8 263.7,3.8 267.2,3.8 265.5,6.8 "/>
<polygon class="st7" points="242.4,9.9 240.7,6.8 238.9,3.8 242.4,3.8 246,3.8 244.2,6.8 "/>
<polygon class="st7" points="221.2,9.9 219.4,6.8 217.6,3.8 221.2,3.8 224.7,3.8 222.9,6.8 "/>
<g class="st8">
	<path class="st9" d="M185.2,10.2l2.2-3.2l-2.2-3h2l1.1,1.7l1.2-1.7h1.9l-2.1,2.9l2.3,3.3h-2l-1.3-1.9l-1.3,1.9H185.2z"/>
</g>
<g class="st8">
	<path class="st9" d="M291.9,10.2l2.2-3.2L292,4h2l1.1,1.7l1.2-1.7h1.9l-2.1,2.9l2.3,3.3h-2l-1.3-1.9l-1.3,1.9H291.9z"/>
</g>
<g class="st8">
	<path class="st9" d="M270.6,10.2l2.2-3.2l-2.2-3h2l1.1,1.7l1.2-1.7h1.9l-2.1,2.9l2.3,3.3h-2l-1.3-1.9l-1.3,1.9H270.6z"/>
</g>
<g class="st8">
	<path class="st9" d="M249.2,10.2l2.2-3.2l-2.2-3h2l1.1,1.7l1.2-1.7h1.9l-2.1,2.9l2.3,3.3h-2l-1.3-1.9l-1.3,1.9H249.2z"/>
</g>
<g class="st8">
	<path class="st9" d="M227.9,10.2l2.2-3.2L228,4h2l1.1,1.7l1.2-1.7h1.9l-2.1,2.9l2.3,3.3h-2l-1.3-1.9l-1.3,1.9H227.9z"/>
</g>
<g class="st8">
	<path class="st9" d="M206.6,10.2l2.2-3.2l-2.2-3h2l1.1,1.7l1.2-1.7h1.9l-2.1,2.9l2.3,3.3h-2l-1.3-1.9l-1.3,1.9H206.6z"/>
</g>
<g class="st8">
	<path class="st9" d="M313.2,10.2l2.2-3.2l-2.2-3h2l1.1,1.7l1.2-1.7h1.9l-2.1,2.9l2.3,3.3h-2l-1.3-1.9l-1.3,1.9H313.2z"/>
</g>
<g class="st8">
	<path class="st9" d="M331.2,10.2l2.2-3.2l-2.2-3h2l1.1,1.7l1.2-1.7h1.9l-2.1,2.9l2.3,3.3h-2l-1.3-1.9l-1.3,1.9H331.2z"/>
</g>
<polygon class="st7" points="30.1,21.3 28.3,18.2 26.5,15.1 30.1,15.1 33.6,15.1 31.9,18.2 "/>
<polygon class="st7" points="30.1,32 28.3,28.9 26.5,25.8 30.1,25.8 33.6,25.8 31.9,28.9 "/>
<polygon class="st7" points="30.1,42.7 28.3,39.6 26.5,36.5 30.1,36.5 33.6,36.5 31.9,39.6 "/>
<polygon class="st7" points="30.1,53.4 28.3,50.3 26.5,47.3 30.1,47.3 33.6,47.3 31.9,50.3 "/>
<polygon class="st7" points="30.1,64.1 28.3,61.1 26.5,58 30.1,58 33.6,58 31.9,61.1 "/>
<polygon class="st7" points="30.1,74.8 28.3,71.8 26.5,68.7 30.1,68.7 33.6,68.7 31.9,71.8 "/>
<polygon class="st7" points="343.1,21.3 341.3,18.2 339.5,15.1 343.1,15.1 346.6,15.1 344.9,18.2 "/>
<polygon class="st7" points="343.1,32 341.3,28.9 339.5,25.8 343.1,25.8 346.6,25.8 344.9,28.9 "/>
<polygon class="st7" points="343.1,42.7 341.3,39.6 339.5,36.5 343.1,36.5 346.6,36.5 344.9,39.6 "/>
<polygon class="st7" points="343.1,53.4 341.3,50.3 339.5,47.3 343.1,47.3 346.6,47.3 344.9,50.3 "/>
<polygon class="st7" points="343.1,64.1 341.3,61.1 339.5,58 343.1,58 346.6,58 344.9,61.1 "/>
<polygon class="st7" points="343.1,74.8 341.3,71.8 339.5,68.7 343.1,68.7 346.6,68.7 344.9,71.8 "/>
<polygon class="st7" points="343.1,9.9 341.3,6.8 339.5,3.8 343.1,3.8 346.6,3.8 344.9,6.8 "/>
<line class="st6" x1="59.2" y1="7.3" x2="59.2" y2="71.3"/>
<line class="st6" x1="320.2" y1="7.3" x2="320.2" y2="71.3"/>
<g>
	<path class="st10" d="M40.6,23.4l-1.5-3.3h-1.3v3.3h-1.7v-8.3h3c1.9,0,3.1,0.9,3.1,2.5c0,1.1-0.5,1.8-1.4,2.2l1.7,3.5H40.6z
		 M38.9,18.7c1,0,1.6-0.2,1.6-1.1c0-0.9-0.6-1.1-1.6-1.1h-1.1v2.2H38.9z"/>
	<path class="st10" d="M47.7,22.5c-0.4,0.7-1.1,1-2.2,1c-1.8,0-2.7-1.2-2.7-2.7V20c0-1.8,0.9-2.7,2.5-2.7c1.7,0,2.5,1,2.5,2.8v0.7
		h-3.4c0,0.8,0.3,1.4,1.1,1.4c0.6,0,0.8-0.2,1.1-0.5L47.7,22.5z M44.4,19.7h1.9c0-0.8-0.3-1.1-0.9-1.1C44.8,18.6,44.5,19,44.4,19.7z
		"/>
	<path class="st10" d="M49.3,17.4v-0.3c0-1.5,0.6-2,2.1-2h0.4v1.3h-0.3c-0.6,0-0.7,0.3-0.7,0.9v0.1h1v1.3h-1v4.7h-1.5v-4.7h-0.8
		v-1.3H49.3z"/>
	<path class="st10" d="M57.2,22.5c-0.4,0.7-1.1,1-2.2,1c-1.8,0-2.7-1.2-2.7-2.7V20c0-1.8,0.9-2.7,2.5-2.7c1.7,0,2.5,1,2.5,2.8v0.7
		h-3.4c0,0.8,0.3,1.4,1.1,1.4c0.6,0,0.8-0.2,1.1-0.5L57.2,22.5z M53.8,19.7h1.9c0-0.8-0.3-1.1-0.9-1.1C54.2,18.6,53.9,19,53.8,19.7z
		"/>
	<path class="st10" d="M61.6,19.1c-0.2-0.2-0.4-0.5-0.8-0.5c-0.6,0-1,0.4-1,1.3v3.5h-1.5v-6h1.5v0.5c0.2-0.3,0.6-0.6,1.3-0.6
		c0.7,0,1.3,0.3,1.6,0.9L61.6,19.1z"/>
	<path class="st10" d="M67.8,22.5c-0.4,0.7-1.1,1-2.2,1c-1.8,0-2.7-1.2-2.7-2.7V20c0-1.8,0.9-2.7,2.5-2.7c1.7,0,2.5,1,2.5,2.8v0.7
		h-3.4c0,0.8,0.3,1.4,1.1,1.4c0.6,0,0.8-0.2,1.1-0.5L67.8,22.5z M64.5,19.7h1.9c0-0.8-0.3-1.1-0.9-1.1C64.9,18.6,64.6,19,64.5,19.7z
		"/>
	<path class="st10" d="M69,17.4h1.5v0.5c0.2-0.3,0.7-0.6,1.4-0.6c1.2,0,2.2,0.6,2.2,2.4v3.8h-1.5v-3.5c0-0.9-0.3-1.3-1-1.3
		c-0.7,0-1.1,0.5-1.1,1.3v3.5H69V17.4z"/>
	<path class="st10" d="M80,22.5c-0.4,0.7-1.1,1-2.2,1c-1.7,0-2.7-1.1-2.7-2.7V20c0-1.8,1-2.7,2.8-2.7c0.9,0,1.7,0.3,2.1,1l-1.2,0.8
		c-0.2-0.3-0.5-0.5-1-0.5c-0.9,0-1.2,0.5-1.2,1.5v0.6c0,0.9,0.2,1.5,1.2,1.5c0.5,0,0.8-0.2,1-0.5L80,22.5z"/>
	<path class="st10" d="M85.3,22.5c-0.4,0.7-1.1,1-2.2,1c-1.8,0-2.7-1.2-2.7-2.7V20c0-1.8,0.9-2.7,2.5-2.7c1.7,0,2.5,1,2.5,2.8v0.7
		h-3.4c0,0.8,0.3,1.4,1.1,1.4c0.6,0,0.8-0.2,1.1-0.5L85.3,22.5z M81.9,19.7h1.9c0-0.8-0.3-1.1-0.9-1.1C82.3,18.6,82,19,81.9,19.7z"
		/>
</g>
<g>
	<path class="st10" d="M37.9,98.4h-1.7v-8.3h1.7V98.4z"/>
	<path class="st10" d="M39.4,92.4h1.5v0.5c0.2-0.3,0.7-0.6,1.4-0.6c1.2,0,2.2,0.6,2.2,2.4v3.8h-1.5v-3.5c0-0.9-0.3-1.3-1-1.3
		c-0.7,0-1.1,0.5-1.1,1.3v3.5h-1.5V92.4z"/>
	<path class="st10" d="M45.8,90.1h1.7v1.5h-1.7V90.1z M45.9,92.4h1.5v6h-1.5V92.4z"/>
	<path class="st10" d="M48.4,92.4h0.8v-1.3h1.5v1.3h1.2v1.3h-1.2v2.5c0,0.6,0.1,0.9,0.7,0.9h0.5v1.3h-0.6c-1.5,0-2.1-0.4-2.1-2v-2.7
		h-0.8V92.4z"/>
	<path class="st10" d="M52.9,90.1h1.7v1.5h-1.7V90.1z M53,92.4h1.5v6H53V92.4z"/>
	<path class="st10" d="M57.8,94.8H59v-0.3c0-0.7-0.2-0.9-1.1-0.9c-0.6,0-0.9,0.1-1.1,0.5l-1.1-0.8c0.4-0.7,1.1-1,2.4-1
		c1.5,0,2.4,0.5,2.4,2.2v3.9H59v-0.5c-0.2,0.4-0.6,0.6-1.3,0.6c-1.2,0-2.1-0.7-2.1-1.9C55.6,95.3,56.6,94.8,57.8,94.8z M59,95.9h-1
		c-0.6,0-0.9,0.2-0.9,0.7c0,0.5,0.3,0.7,0.9,0.7c0.7,0,1-0.3,1-1.1V95.9z"/>
	<path class="st10" d="M61.8,90.1h1.5v6c0,0.6,0.2,0.9,0.8,0.9v1.3c-1.6,0-2.4-0.4-2.4-1.9V90.1z"/>
</g>
<g>
	<path class="st10" d="M39.9,172.6l2.3-4.5h1.6v8.3h-1.6v-5.1l-1.8,3.6h-1l-1.8-3.6v5.1h-1.6v-8.3h1.6L39.9,172.6z"/>
	<path class="st10" d="M49.9,175.5c-0.4,0.7-1.1,1-2.2,1c-1.8,0-2.7-1.2-2.7-2.7V173c0-1.8,0.9-2.7,2.5-2.7c1.7,0,2.5,1,2.5,2.8v0.7
		h-3.4c0,0.8,0.3,1.4,1.1,1.4c0.6,0,0.8-0.2,1.1-0.5L49.9,175.5z M46.6,172.7h1.9c0-0.8-0.3-1.1-0.9-1.1
		C46.9,171.6,46.6,172,46.6,172.7z"/>
	<path class="st10" d="M54.6,168.1h1.5v8.3h-1.5V176c-0.3,0.3-0.7,0.5-1.3,0.5c-1.6,0-2.4-1.1-2.4-2.7V173c0-1.8,0.9-2.7,2.4-2.7
		c0.5,0,0.9,0.1,1.3,0.4V168.1z M54.6,173.7v-0.8c0-0.9-0.3-1.4-1.1-1.4c-0.8,0-1.1,0.5-1.1,1.5v0.6c0,0.9,0.2,1.5,1.1,1.5
		C54.3,175.2,54.6,174.6,54.6,173.7z"/>
	<path class="st10" d="M57.4,168.1h1.7v1.5h-1.7V168.1z M57.5,170.4H59v6h-1.5V170.4z"/>
	<path class="st10" d="M62.4,172.8h1.2v-0.3c0-0.7-0.2-0.9-1.1-0.9c-0.6,0-0.9,0.1-1.1,0.5l-1.1-0.8c0.4-0.7,1.1-1,2.4-1
		c1.5,0,2.4,0.5,2.4,2.2v3.9h-1.5v-0.5c-0.2,0.4-0.6,0.6-1.3,0.6c-1.2,0-2.1-0.7-2.1-1.9C60.1,173.3,61.1,172.8,62.4,172.8z
		 M63.5,173.9h-1c-0.6,0-0.9,0.2-0.9,0.7c0,0.5,0.3,0.7,0.9,0.7c0.7,0,1-0.3,1-1.1V173.9z"/>
	<path class="st10" d="M66.3,170.4h1.5v0.5c0.2-0.3,0.7-0.6,1.4-0.6c1.2,0,2.2,0.6,2.2,2.4v3.8h-1.5v-3.5c0-0.9-0.3-1.3-1-1.3
		c-0.7,0-1.1,0.5-1.1,1.3v3.5h-1.5V170.4z"/>
</g>
</svg>
