<svg id="Layer_2" data-name="Layer 2" xmlns="http://www.w3.org/2000/svg" xmlns:xlink="http://www.w3.org/1999/xlink" viewBox="0 0 413.6 260"><defs><style>.cls-1,.cls-4,.cls-7,.cls-8{fill:none;}.cls-2{isolation:isolate;}.cls-3,.cls-4,.cls-7{stroke:#000;stroke-width:0.8px;}.cls-3{stroke-linejoin:round;}.cls-4{stroke-linecap:square;}.cls-5{clip-path:url(#clip-path);}.cls-6{fill:#fff;stroke:#fff;stroke-width:0.01px;}.cls-8{stroke:#ef3b39;stroke-miterlimit:10;}.cls-9{fill:#007f07;}.cls-10{font-size:12px;fill:#f40000;font-family:Arial-Black, Arial;font-weight:800;}</style><clipPath id="clip-path"><rect class="cls-1" x="362" y="6.6" width="11.1" height="221.8"/></clipPath></defs><g id="patch_1" data-name="patch 1"><path class="cls-1" d="M-33,260H471V-28H-33Z"/></g><g id="axes_1" data-name="axes 1"><g id="patch_2" data-name="patch 2"><path class="cls-1" d="M30,71.8H342.5V6.6H30Z"/></g><image id="image9db633c253" class="cls-2" width="434" height="91" transform="matrix(0.72, 0, 0, -0.72, 30.32, 72.12)" xlink:href="84E7BD98.png"/><g id="matplotlib.axis_1" data-name="matplotlib.axis 1"><g id="xtick_1" data-name="xtick 1"><g id="line2d_1" data-name="line2d 1"><path id="m531fe61eba" class="cls-3" d="M30,71.8v3.5"/></g></g><g id="xtick_2" data-name="xtick 2"><g id="line2d_2" data-name="line2d 2"><path id="m531fe61eba-2" data-name="m531fe61eba" class="cls-3" d="M97.7,71.8v3.5"/></g></g><g id="xtick_3" data-name="xtick 3"><g id="line2d_3" data-name="line2d 3"><path id="m531fe61eba-3" data-name="m531fe61eba" class="cls-3" d="M165.5,71.8v3.5"/></g></g><g id="xtick_4" data-name="xtick 4"><g id="line2d_4" data-name="line2d 4"><path id="m531fe61eba-4" data-name="m531fe61eba" class="cls-3" d="M233.3,71.8v3.5"/></g></g><g id="xtick_5" data-name="xtick 5"><g id="line2d_5" data-name="line2d 5"><path id="m531fe61eba-5" data-name="m531fe61eba" class="cls-3" d="M301.1,71.8v3.5"/></g></g></g><g id="matplotlib.axis_2" data-name="matplotlib.axis 2"><g id="ytick_1" data-name="ytick 1"><g id="line2d_6" data-name="line2d 6"><path id="m26af831aea" class="cls-3" d="M30,6.6H26.5"/></g><g id="text_1" data-name="text 1"><path id="DejaVuSans-48" d="M19.77,3.76a1.23,1.23,0,0,0-1.15.75,5.07,5.07,0,0,0-.38,2.25A5.21,5.21,0,0,0,18.62,9a1.26,1.26,0,0,0,2.3,0,5.07,5.07,0,0,0,.38-2.25,5.21,5.21,0,0,0-.38-2.25A1.22,1.22,0,0,0,19.77,3.76Zm0-.78a2.1,2.1,0,0,1,1.87,1,5.08,5.08,0,0,1,.65,2.81,5.08,5.08,0,0,1-.65,2.81,2.29,2.29,0,0,1-3.74,0,5.08,5.08,0,0,1-.65-2.81A5.05,5.05,0,0,1,17.9,4,2.13,2.13,0,0,1,19.77,3Z"/></g></g><g id="ytick_2" data-name="ytick 2"><g id="line2d_7" data-name="line2d 7"><path id="m26af831aea-2" data-name="m26af831aea" class="cls-3" d="M30,49.8H26.5"/></g><g id="text_2" data-name="text 2"><path id="DejaVuSans-50" d="M18.52,52.76H22v.83H17.33v-.83q.55-.59,1.53-1.56c.65-.65,1.05-1.07,1.22-1.26a4,4,0,0,0,.66-.9,1.56,1.56,0,0,0,.19-.73,1.23,1.23,0,0,0-.41-1A1.55,1.55,0,0,0,19.46,47a3.18,3.18,0,0,0-1,.16,6,6,0,0,0-1.1.49v-1a7.87,7.87,0,0,1,1.11-.36,4.25,4.25,0,0,1,1-.12,2.71,2.71,0,0,1,1.81.57,1.87,1.87,0,0,1,.67,1.51,2.22,2.22,0,0,1-.17.85,4.32,4.32,0,0,1-.61.95c-.08.09-.34.37-.78.82S19.31,52,18.52,52.76Z"/></g></g><g id="text_3" data-name="text 3"><path id="DejaVuSans-90" d="M3.23,55.33V49.6H4l5.71,4.61V49.49h.83v5.95H9.77L4.06,50.83v4.5Z"/><path id="DejaVuSans-40" d="M2.93,42.76a9.68,9.68,0,0,0,2.22,1,7.93,7.93,0,0,0,4.46,0,10.2,10.2,0,0,0,2.23-1v.79a10.41,10.41,0,0,1-2.26,1.1,6.8,6.8,0,0,1-2.2.36,7,7,0,0,1-2.19-.36,10,10,0,0,1-2.26-1.1Z"/><path id="DejaVuSans-107" d="M2.92,41.06v-.9H7.41L5.05,37.48V36.33l2.56,2.9,2.91-3v1.17L7.85,40.15h2.67v.9H2.92Z"/><path id="DejaVuSans-109" d="M6.1,31a2.35,2.35,0,0,1-.89-.81,2.1,2.1,0,0,1-.29-1.1,1.57,1.57,0,0,1,.6-1.32,2.71,2.71,0,0,1,1.7-.46h3.3v.9H7.25a2,2,0,0,0-1.17.28,1,1,0,0,0-.38.85,1.37,1.37,0,0,0,.46,1.1,1.85,1.85,0,0,0,1.26.4h3.09v.9H7.24A1.94,1.94,0,0,0,6.07,32a1,1,0,0,0-.38.86A1.41,1.41,0,0,0,6.16,34a1.85,1.85,0,0,0,1.26.4h3.09v.9H5v-.9h.85a2,2,0,0,1-.74-.74,2.08,2.08,0,0,1-.24-1,1.66,1.66,0,0,1,.3-1A1.89,1.89,0,0,1,6.1,31Z"/><path id="DejaVuSans-41" d="M2.93,25.63v-.78a10.41,10.41,0,0,1,2.26-1.1,6.87,6.87,0,0,1,4.39,0,10,10,0,0,1,2.26,1.1v.78a10,10,0,0,0-2.23-1,7.93,7.93,0,0,0-4.46,0A10.13,10.13,0,0,0,2.93,25.63Z"/></g></g><g id="patch_3" data-name="patch 3"><path class="cls-4" d="M30,71.8V6.6"/></g><g id="patch_4" data-name="patch 4"><path class="cls-4" d="M342.4,71.8V6.6"/></g><g id="patch_5" data-name="patch 5"><path class="cls-4" d="M30,71.8H342.5"/></g><g id="patch_6" data-name="patch 6"><path class="cls-4" d="M30,6.6H342.5"/></g></g><g id="axes_2" data-name="axes 2"><g id="patch_7" data-name="patch 7"><path class="cls-1" d="M30,150.1H342.5V84.9H30Z"/></g><image id="image272512b071" class="cls-2" width="434" height="90" transform="matrix(0.72, 0, 0, -0.72, 30.32, 149.88)" xlink:href="84E7BD9F.png"/><g id="matplotlib.axis_3" data-name="matplotlib.axis 3"><g id="xtick_6" data-name="xtick 6"><g id="line2d_8" data-name="line2d 8"><path id="m531fe61eba-6" data-name="m531fe61eba" class="cls-3" d="M30,150.1v3.5"/></g></g><g id="xtick_7" data-name="xtick 7"><g id="line2d_9" data-name="line2d 9"><path id="m531fe61eba-7" data-name="m531fe61eba" class="cls-3" d="M97.7,150.1v3.5"/></g></g><g id="xtick_8" data-name="xtick 8"><g id="line2d_10" data-name="line2d 10"><path id="m531fe61eba-8" data-name="m531fe61eba" class="cls-3" d="M165.5,150.1v3.5"/></g></g><g id="xtick_9" data-name="xtick 9"><g id="line2d_11" data-name="line2d 11"><path id="m531fe61eba-9" data-name="m531fe61eba" class="cls-3" d="M233.3,150.1v3.5"/></g></g><g id="xtick_10" data-name="xtick 10"><g id="line2d_12" data-name="line2d 12"><path id="m531fe61eba-10" data-name="m531fe61eba" class="cls-3" d="M301.1,150.1v3.5"/></g></g></g><g id="matplotlib.axis_4" data-name="matplotlib.axis 4"><g id="ytick_3" data-name="ytick 3"><g id="line2d_13" data-name="line2d 13"><path id="m26af831aea-3" data-name="m26af831aea" class="cls-3" d="M30,84.9H26.5"/></g><g id="text_4" data-name="text 4"><path id="DejaVuSans-48-2" data-name="DejaVuSans-48" d="M19.77,82a1.23,1.23,0,0,0-1.15.75A5.07,5.07,0,0,0,18.24,85a5.21,5.21,0,0,0,.38,2.25,1.26,1.26,0,0,0,2.3,0A5.07,5.07,0,0,0,21.3,85a5.21,5.21,0,0,0-.38-2.25A1.22,1.22,0,0,0,19.77,82Zm0-.78a2.1,2.1,0,0,1,1.87,1,6.4,6.4,0,0,1,0,5.62,2.29,2.29,0,0,1-3.74,0,6.4,6.4,0,0,1,0-5.62A2.13,2.13,0,0,1,19.77,81.25Z"/></g></g><g id="ytick_4" data-name="ytick 4"><g id="line2d_14" data-name="line2d 14"><path id="m26af831aea-4" data-name="m26af831aea" class="cls-3" d="M30,128.1H26.5"/></g><g id="text_5" data-name="text 5"><path id="DejaVuSans-50-2" data-name="DejaVuSans-50" d="M18.52,131H22v.83H17.33V131q.55-.59,1.53-1.56c.65-.65,1.05-1.07,1.22-1.26a4,4,0,0,0,.66-.9,1.56,1.56,0,0,0,.19-.73,1.23,1.23,0,0,0-.41-1,1.55,1.55,0,0,0-1.06-.37,3.18,3.18,0,0,0-1,.16,6,6,0,0,0-1.1.49v-1a7.87,7.87,0,0,1,1.11-.36,4.25,4.25,0,0,1,1-.12,2.71,2.71,0,0,1,1.81.57,1.87,1.87,0,0,1,.67,1.51,2.22,2.22,0,0,1-.17.85,4.32,4.32,0,0,1-.61,1c-.08.09-.34.37-.78.82S19.31,130.22,18.52,131Z"/></g></g><g id="text_6" data-name="text 6"><path id="DejaVuSans-90-2" data-name="DejaVuSans-90" d="M3.23,133.6v-5.73H4l5.71,4.61v-4.72h.83v6H9.77L4.06,129.1v4.5Z"/><path id="DejaVuSans-40-2" data-name="DejaVuSans-40" d="M2.93,121a9.68,9.68,0,0,0,2.22,1,7.93,7.93,0,0,0,4.46,0,10.2,10.2,0,0,0,2.23-1v.79a10.41,10.41,0,0,1-2.26,1.1,6.8,6.8,0,0,1-2.2.36,7,7,0,0,1-2.19-.36,10,10,0,0,1-2.26-1.1Z"/><path id="DejaVuSans-107-2" data-name="DejaVuSans-107" d="M2.92,119.33v-.9H7.41l-2.36-2.68V114.6l2.56,2.9,2.91-3v1.17l-2.67,2.77h2.67v.9H2.92Z"/><path id="DejaVuSans-109-2" data-name="DejaVuSans-109" d="M6.1,109.24a2.35,2.35,0,0,1-.89-.81,2.1,2.1,0,0,1-.29-1.1,1.57,1.57,0,0,1,.6-1.32,2.71,2.71,0,0,1,1.7-.46h3.3v.9H7.25a2,2,0,0,0-1.17.28,1,1,0,0,0-.38.85,1.37,1.37,0,0,0,.46,1.1,1.85,1.85,0,0,0,1.26.4h3.09v.9H7.24a1.94,1.94,0,0,0-1.17.28,1,1,0,0,0-.38.86,1.41,1.41,0,0,0,.47,1.1,1.85,1.85,0,0,0,1.26.4h3.09v.9H5v-.9h.85a2,2,0,0,1-.74-.74,2.08,2.08,0,0,1-.24-1,1.66,1.66,0,0,1,.3-1A1.89,1.89,0,0,1,6.1,109.24Z"/><path id="DejaVuSans-41-2" data-name="DejaVuSans-41" d="M2.93,103.9v-.78A10.41,10.41,0,0,1,5.19,102a6.87,6.87,0,0,1,4.39,0,10,10,0,0,1,2.26,1.1v.78a10,10,0,0,0-2.23-1,7.93,7.93,0,0,0-4.46,0A10.13,10.13,0,0,0,2.93,103.9Z"/></g></g><g id="patch_8" data-name="patch 8"><path class="cls-4" d="M30,150.1V84.9"/></g><g id="patch_9" data-name="patch 9"><path class="cls-4" d="M342.4,150.1V84.9"/></g><g id="patch_10" data-name="patch 10"><path class="cls-4" d="M30,150.1H342.5"/></g><g id="patch_11" data-name="patch 11"><path class="cls-4" d="M30,84.9H342.5"/></g></g><g id="axes_3" data-name="axes 3"><g id="patch_12" data-name="patch 12"><path class="cls-1" d="M30,228.4H342.5V163.2H30Z"/></g><image id="image98603777b1" class="cls-2" width="434" height="91" transform="matrix(0.72, 0, 0, -0.72, 30.32, 228.36)" xlink:href="84E7BD95.png"/><g id="matplotlib.axis_5" data-name="matplotlib.axis 5"><g id="xtick_11" data-name="xtick 11"><g id="line2d_15" data-name="line2d 15"><path id="m531fe61eba-11" data-name="m531fe61eba" class="cls-3" d="M30,228.4v3.5"/></g><g id="text_7" data-name="text 7"><path id="DejaVuSans-48-3" data-name="DejaVuSans-48" d="M30,236.32a1.23,1.23,0,0,0-1.15.75,5.07,5.07,0,0,0-.38,2.25,5.21,5.21,0,0,0,.38,2.25,1.26,1.26,0,0,0,2.3,0,5.07,5.07,0,0,0,.38-2.25,5.21,5.21,0,0,0-.38-2.25A1.22,1.22,0,0,0,30,236.32Zm0-.78a2.1,2.1,0,0,1,1.87,1,6.4,6.4,0,0,1,0,5.62,2.29,2.29,0,0,1-3.74,0,6.4,6.4,0,0,1,0-5.62A2.13,2.13,0,0,1,30,235.54Z"/></g></g><g id="xtick_12" data-name="xtick 12"><g id="line2d_16" data-name="line2d 16"><path id="m531fe61eba-12" data-name="m531fe61eba" class="cls-3" d="M97.7,228.4v3.5"/></g><g id="text_8" data-name="text 8"><path id="DejaVuSans-50-3" data-name="DejaVuSans-50" d="M96.48,242.13h3.44V243H95.29v-.83q.55-.58,1.53-1.56c.65-.65,1.05-1.07,1.22-1.26a4,4,0,0,0,.66-.9,1.56,1.56,0,0,0,.19-.73,1.23,1.23,0,0,0-.41-1,1.55,1.55,0,0,0-1.06-.37,3.18,3.18,0,0,0-1,.16,6,6,0,0,0-1.1.49v-1a7.87,7.87,0,0,1,1.11-.36,4.25,4.25,0,0,1,1-.12,2.71,2.71,0,0,1,1.81.57,1.87,1.87,0,0,1,.67,1.51,2.22,2.22,0,0,1-.17.85,4.32,4.32,0,0,1-.61.95c-.08.09-.34.37-.78.82S97.27,241.32,96.48,242.13Z"/></g></g><g id="xtick_13" data-name="xtick 13"><g id="line2d_17" data-name="line2d 17"><path id="m531fe61eba-13" data-name="m531fe61eba" class="cls-3" d="M165.5,228.4v3.5"/></g><g id="text_9" data-name="text 9"><path id="DejaVuSans-52" d="M166.12,236.53l-2.49,3.89h2.49Zm-.26-.86h1.24v4.75h1v.82h-1V243h-1v-1.72h-3.29v-1Z"/></g></g><g id="xtick_14" data-name="xtick 14"><g id="line2d_18" data-name="line2d 18"><path id="m531fe61eba-14" data-name="m531fe61eba" class="cls-3" d="M233.3,228.4v3.5"/></g><g id="text_10" data-name="text 10"><path id="DejaVuSans-54" d="M233.43,238.93a1.32,1.32,0,0,0-1.05.45,2.17,2.17,0,0,0,0,2.48,1.33,1.33,0,0,0,1.05.46,1.3,1.3,0,0,0,1-.46,1.86,1.86,0,0,0,.39-1.24,1.82,1.82,0,0,0-.39-1.24A1.32,1.32,0,0,0,233.43,238.93Zm2-3.1v.9a3.76,3.76,0,0,0-.75-.27,3.2,3.2,0,0,0-.75-.09,1.77,1.77,0,0,0-1.49.66,3.56,3.56,0,0,0-.59,2,2,2,0,0,1,.72-.65,2.06,2.06,0,0,1,1-.23,2.29,2.29,0,0,1,1.74.67,2.83,2.83,0,0,1,0,3.61,2.37,2.37,0,0,1-1.77.68,2.19,2.19,0,0,1-1.93-1,4.9,4.9,0,0,1-.67-2.81,4.3,4.3,0,0,1,.82-2.76,2.66,2.66,0,0,1,2.2-1,3.81,3.81,0,0,1,.75.07C234.85,235.66,235.11,235.74,235.39,235.83Z"/></g></g><g id="xtick_15" data-name="xtick 15"><g id="line2d_19" data-name="line2d 19"><path id="m531fe61eba-15" data-name="m531fe61eba" class="cls-3" d="M301.1,228.4v3.5"/></g><g id="text_11" data-name="text 11"><path id="DejaVuSans-56" d="M301.08,239.5a1.57,1.57,0,0,0-1.11.38,1.34,1.34,0,0,0-.4,1,1.36,1.36,0,0,0,.4,1,1.81,1.81,0,0,0,2.22,0,1.35,1.35,0,0,0,.41-1,1.33,1.33,0,0,0-.4-1A1.54,1.54,0,0,0,301.08,239.5Zm-1-.42a1.78,1.78,0,0,1-1-.59,1.59,1.59,0,0,1-.35-1.06,1.7,1.7,0,0,1,.62-1.38,3.12,3.12,0,0,1,3.42,0,1.7,1.7,0,0,1,.62,1.38,1.65,1.65,0,0,1-.35,1.06,1.75,1.75,0,0,1-1,.59,2,2,0,0,1,1.11.65,1.78,1.78,0,0,1,.4,1.18,2.06,2.06,0,0,1-.65,1.63,3.29,3.29,0,0,1-3.7,0,2.06,2.06,0,0,1-.65-1.63,1.78,1.78,0,0,1,.4-1.18A1.88,1.88,0,0,1,300.1,239.08Zm-.36-1.56a1.13,1.13,0,0,0,.35.88,1.45,1.45,0,0,0,1,.32,1.44,1.44,0,0,0,1-.32,1.12,1.12,0,0,0,.36-.88,1.1,1.1,0,0,0-.36-.88,1.45,1.45,0,0,0-1-.32,1.42,1.42,0,0,0-1,.32A1.14,1.14,0,0,0,299.74,237.52Z"/></g></g><g id="text_12" data-name="text 12"><path id="DejaVuSans-88" d="M170.15,249.35h1.06l1.81,2.71,1.82-2.71h1.06l-2.34,3.5,2.5,3.79H175l-2.05-3.1-2.07,3.1h-1.06l2.6-3.89Z"/><path id="DejaVuSans-40-3" data-name="DejaVuSans-40" d="M182.65,249.06a9.68,9.68,0,0,0-1,2.22,7.93,7.93,0,0,0,0,4.46,10,10,0,0,0,1,2.23h-.78a10.41,10.41,0,0,1-1.1-2.26,7.08,7.08,0,0,1-.36-2.2,7,7,0,0,1,.36-2.19,10,10,0,0,1,1.1-2.26Z"/><path id="DejaVuSans-107-3" data-name="DejaVuSans-107" d="M184.35,249.05h.9v4.49l2.68-2.36h1.15l-2.9,2.56,3,2.91H188L185.25,254v2.67h-.9Z"/><path id="DejaVuSans-109-3" data-name="DejaVuSans-109" d="M194.44,252.22a2.35,2.35,0,0,1,.81-.89,2.07,2.07,0,0,1,1.1-.29,1.57,1.57,0,0,1,1.32.6,2.71,2.71,0,0,1,.46,1.7v3.3h-.9v-3.27a2,2,0,0,0-.28-1.17,1,1,0,0,0-.85-.38,1.37,1.37,0,0,0-1.1.46,1.85,1.85,0,0,0-.4,1.26v3.09h-.9v-3.27a1.94,1.94,0,0,0-.28-1.17,1,1,0,0,0-.86-.38,1.41,1.41,0,0,0-1.1.47,1.85,1.85,0,0,0-.4,1.26v3.09h-.9v-5.47h.9V252a2,2,0,0,1,.74-.74,2.08,2.08,0,0,1,1-.24,1.66,1.66,0,0,1,1,.3A2,2,0,0,1,194.44,252.22Z"/><path id="DejaVuSans-41-3" data-name="DejaVuSans-41" d="M199.78,249.06h.78a10.41,10.41,0,0,1,1.1,2.26,6.87,6.87,0,0,1,0,4.39,10,10,0,0,1-1.1,2.26h-.78a10,10,0,0,0,1-2.23,7.93,7.93,0,0,0,0-4.46A9.74,9.74,0,0,0,199.78,249.06Z"/></g></g><g id="matplotlib.axis_6" data-name="matplotlib.axis 6"><g id="ytick_5" data-name="ytick 5"><g id="line2d_20" data-name="line2d 20"><path id="m26af831aea-5" data-name="m26af831aea" class="cls-3" d="M30,163.1H26.5"/></g><g id="text_13" data-name="text 13"><path id="DejaVuSans-48-4" data-name="DejaVuSans-48" d="M19.77,160.3a1.23,1.23,0,0,0-1.15.75,5.07,5.07,0,0,0-.38,2.25,5.21,5.21,0,0,0,.38,2.25,1.26,1.26,0,0,0,2.3,0,5.07,5.07,0,0,0,.38-2.25,5.21,5.21,0,0,0-.38-2.25A1.22,1.22,0,0,0,19.77,160.3Zm0-.78a2.1,2.1,0,0,1,1.87,1,6.4,6.4,0,0,1,0,5.62,2.29,2.29,0,0,1-3.74,0,6.4,6.4,0,0,1,0-5.62A2.13,2.13,0,0,1,19.77,159.52Z"/></g></g><g id="ytick_6" data-name="ytick 6"><g id="line2d_21" data-name="line2d 21"><path id="m26af831aea-6" data-name="m26af831aea" class="cls-3" d="M30,206.3H26.5"/></g><g id="text_14" data-name="text 14"><path id="DejaVuSans-50-4" data-name="DejaVuSans-50" d="M18.52,209.3H22v.83H17.33v-.83q.55-.59,1.53-1.56c.65-.65,1.05-1.07,1.22-1.26a4,4,0,0,0,.66-.9,1.56,1.56,0,0,0,.19-.73,1.23,1.23,0,0,0-.41-.95,1.55,1.55,0,0,0-1.06-.37,3.18,3.18,0,0,0-1,.16,6,6,0,0,0-1.1.49v-1a7.87,7.87,0,0,1,1.11-.36,4.25,4.25,0,0,1,1-.12,2.71,2.71,0,0,1,1.81.57,1.87,1.87,0,0,1,.67,1.51,2.22,2.22,0,0,1-.17.85,4.32,4.32,0,0,1-.61,1c-.08.09-.34.37-.78.82S19.31,208.49,18.52,209.3Z"/></g></g><g id="text_15" data-name="text 15"><path id="DejaVuSans-90-3" data-name="DejaVuSans-90" d="M3.23,211.87v-5.73H4l5.71,4.61V206h.83V212H9.77l-5.71-4.61v4.5Z"/><path id="DejaVuSans-40-4" data-name="DejaVuSans-40" d="M2.93,199.3a9.68,9.68,0,0,0,2.22,1,7.93,7.93,0,0,0,4.46,0,10,10,0,0,0,2.23-1v.79a10.41,10.41,0,0,1-2.26,1.1,7.08,7.08,0,0,1-2.2.36,7,7,0,0,1-2.19-.36,10,10,0,0,1-2.26-1.1Z"/><path id="DejaVuSans-107-4" data-name="DejaVuSans-107" d="M2.92,197.6v-.9H7.41L5.05,194v-1.15l2.56,2.9,2.91-3v1.17l-2.67,2.77h2.67v.9H2.92Z"/><path id="DejaVuSans-109-4" data-name="DejaVuSans-109" d="M6.1,187.51a2.35,2.35,0,0,1-.89-.81,2.1,2.1,0,0,1-.29-1.1,1.57,1.57,0,0,1,.6-1.32,2.71,2.71,0,0,1,1.7-.46h3.3v.9H7.25a2,2,0,0,0-1.17.28,1,1,0,0,0-.38.85,1.37,1.37,0,0,0,.46,1.1,1.85,1.85,0,0,0,1.26.4h3.09v.9H7.24a1.94,1.94,0,0,0-1.17.28,1,1,0,0,0-.38.86,1.41,1.41,0,0,0,.47,1.1,1.85,1.85,0,0,0,1.26.4h3.09v.9H5v-.9h.85a2,2,0,0,1-.74-.74,2.08,2.08,0,0,1-.24-1,1.66,1.66,0,0,1,.3-1A1.89,1.89,0,0,1,6.1,187.51Z"/><path id="DejaVuSans-41-4" data-name="DejaVuSans-41" d="M2.93,182.17v-.78a10.41,10.41,0,0,1,2.26-1.1,6.87,6.87,0,0,1,4.39,0,10,10,0,0,1,2.26,1.1v.78a10,10,0,0,0-2.23-1,7.93,7.93,0,0,0-4.46,0A10.13,10.13,0,0,0,2.93,182.17Z"/></g></g><g id="patch_13" data-name="patch 13"><path class="cls-4" d="M30,228.4V163.2"/></g><g id="patch_14" data-name="patch 14"><path class="cls-4" d="M342.4,228.4V163.2"/></g><g id="patch_15" data-name="patch 15"><path class="cls-4" d="M30,228.4H342.5"/></g><g id="patch_16" data-name="patch 16"><path class="cls-4" d="M30,163.1H342.5"/></g></g><g id="axes_4" data-name="axes 4"><g id="patch_17" data-name="patch 17"><g class="cls-5"><path class="cls-6" d="M362,228.4V6.6h11.1V228.4Z"/></g></g><image id="image96b8bb82ad" class="cls-2" width="15" height="308" transform="matrix(0.72, 0, 0, -0.72, 362.24, 228.36)" xlink:href="84E7BD96.png"/><g id="matplotlib.axis_8" data-name="matplotlib.axis 8"><g id="ytick_7" data-name="ytick 7"><g id="line2d_22" data-name="line2d 22"><path id="m68176479d0" class="cls-3" d="M373.1,228.4h3.5"/></g><g id="text_16" data-name="text 16"><path id="DejaVuSans-49" d="M381.3,231.33h1.61v-5.56l-1.75.35v-.9l1.74-.35h1v6.46h1.61v.83h-4.2Z"/><path id="DejaVuSans-46" d="M387.49,230.92h1v1.24h-1Z"/><path id="DejaVuSans-53" d="M390.68,224.87h3.87v.83h-3v1.79a2.26,2.26,0,0,1,.43-.11,3.13,3.13,0,0,1,.43,0,2.68,2.68,0,0,1,1.93.67,2.66,2.66,0,0,1,0,3.64,3,3,0,0,1-2.07.65,6.07,6.07,0,0,1-.94-.08,7.66,7.66,0,0,1-1-.23v-1a3.87,3.87,0,0,0,1.9.48,2,2,0,0,0,1.34-.44,1.55,1.55,0,0,0,.49-1.21,1.51,1.51,0,0,0-.49-1.2,1.91,1.91,0,0,0-1.34-.45,3.55,3.55,0,0,0-.79.09,4.44,4.44,0,0,0-.8.27v-3.67Z"/></g></g><g id="ytick_8" data-name="ytick 8"><g id="line2d_23" data-name="line2d 23"><path id="m68176479d0-2" data-name="m68176479d0" class="cls-3" d="M373.1,200.6h3.5"/></g><g id="text_17" data-name="text 17"><path id="DejaVuSans-50-5" data-name="DejaVuSans-50" d="M382,203.61h3.44v.83h-4.63v-.83q.56-.59,1.53-1.56c.65-.65,1.05-1.07,1.22-1.26a4,4,0,0,0,.66-.9,1.56,1.56,0,0,0,.19-.73,1.23,1.23,0,0,0-.41-.95,1.55,1.55,0,0,0-1.06-.37,3.18,3.18,0,0,0-1,.16,6,6,0,0,0-1.1.49v-1a7.87,7.87,0,0,1,1.11-.36,4.25,4.25,0,0,1,.95-.12,2.71,2.71,0,0,1,1.81.57,1.87,1.87,0,0,1,.67,1.51,2.22,2.22,0,0,1-.17.85,4.32,4.32,0,0,1-.61.95c-.08.09-.34.37-.78.82S382.77,202.8,382,203.61Z"/><path id="DejaVuSans-46-2" data-name="DejaVuSans-46" d="M387.49,203.2h1v1.24h-1Z"/><path id="DejaVuSans-48-5" data-name="DejaVuSans-48" d="M392.78,197.8a1.23,1.23,0,0,0-1.15.75,5.07,5.07,0,0,0-.38,2.25,5.21,5.21,0,0,0,.38,2.25,1.26,1.26,0,0,0,2.3,0,5.07,5.07,0,0,0,.38-2.25,5.21,5.21,0,0,0-.38-2.25A1.23,1.23,0,0,0,392.78,197.8Zm0-.78a2.1,2.1,0,0,1,1.87,1,6.4,6.4,0,0,1,0,5.62,2.29,2.29,0,0,1-3.74,0,6.4,6.4,0,0,1,0-5.62A2.12,2.12,0,0,1,392.78,197Z"/></g></g><g id="ytick_9" data-name="ytick 9"><g id="line2d_24" data-name="line2d 24"><path id="m68176479d0-3" data-name="m68176479d0" class="cls-3" d="M373.1,172.9h3.5"/></g><g id="text_18" data-name="text 18"><path id="DejaVuSans-50-6" data-name="DejaVuSans-50" d="M382,175.89h3.44v.83h-4.63v-.83q.56-.58,1.53-1.56c.65-.65,1.05-1.07,1.22-1.26a4,4,0,0,0,.66-.9,1.56,1.56,0,0,0,.19-.73,1.23,1.23,0,0,0-.41-.95,1.55,1.55,0,0,0-1.06-.37,3.18,3.18,0,0,0-1,.16,6,6,0,0,0-1.1.49v-1a7.87,7.87,0,0,1,1.11-.36,4.25,4.25,0,0,1,.95-.12,2.71,2.71,0,0,1,1.81.57,1.87,1.87,0,0,1,.67,1.51,2.22,2.22,0,0,1-.17.85,4.32,4.32,0,0,1-.61.95c-.08.09-.34.37-.78.82S382.77,175.08,382,175.89Z"/><path id="DejaVuSans-46-3" data-name="DejaVuSans-46" d="M387.49,175.48h1v1.24h-1Z"/><path id="DejaVuSans-53-2" data-name="DejaVuSans-53" d="M390.68,169.43h3.87v.83h-3v1.79a2.26,2.26,0,0,1,.43-.11,3.13,3.13,0,0,1,.43,0,2.68,2.68,0,0,1,1.93.67,2.66,2.66,0,0,1,0,3.64,3,3,0,0,1-2.07.65,6.07,6.07,0,0,1-.94-.08,7.66,7.66,0,0,1-1-.23v-1a3.87,3.87,0,0,0,1.9.48,2,2,0,0,0,1.34-.44,1.55,1.55,0,0,0,.49-1.21,1.51,1.51,0,0,0-.49-1.2,1.91,1.91,0,0,0-1.34-.45,3.55,3.55,0,0,0-.79.09,4.44,4.44,0,0,0-.8.27v-3.67Z"/></g></g><g id="ytick_10" data-name="ytick 10"><g id="line2d_25" data-name="line2d 25"><path id="m68176479d0-4" data-name="m68176479d0" class="cls-3" d="M373.1,145.2h3.5"/></g><g id="text_19" data-name="text 19"><path id="DejaVuSans-51" d="M384.11,145.07a1.87,1.87,0,0,1,1.1.63,1.76,1.76,0,0,1,.4,1.18,2,2,0,0,1-.74,1.67,3.33,3.33,0,0,1-2.11.59,5.07,5.07,0,0,1-.94-.09,6.79,6.79,0,0,1-1-.27v-.95a3.26,3.26,0,0,0,.9.36,4.31,4.31,0,0,0,1,.12,2.26,2.26,0,0,0,1.41-.37,1.27,1.27,0,0,0,.49-1.06,1.22,1.22,0,0,0-.45-1,2,2,0,0,0-1.26-.36h-.85v-.81H383a1.84,1.84,0,0,0,1.11-.29,1.11,1.11,0,0,0,0-1.7,1.84,1.84,0,0,0-1.14-.3,4.59,4.59,0,0,0-.87.09,8.69,8.69,0,0,0-1,.27v-.88a10.68,10.68,0,0,1,1-.23,6.15,6.15,0,0,1,.93-.08,2.83,2.83,0,0,1,1.78.51,1.64,1.64,0,0,1,.65,1.38,1.54,1.54,0,0,1-.35,1A1.87,1.87,0,0,1,384.11,145.07Z"/><path id="DejaVuSans-46-4" data-name="DejaVuSans-46" d="M387.49,147.76h1V149h-1Z"/><path id="DejaVuSans-48-6" data-name="DejaVuSans-48" d="M392.78,142.36a1.23,1.23,0,0,0-1.15.75,5.07,5.07,0,0,0-.38,2.25,5.21,5.21,0,0,0,.38,2.25,1.26,1.26,0,0,0,2.3,0,5.07,5.07,0,0,0,.38-2.25,5.21,5.21,0,0,0-.38-2.25A1.23,1.23,0,0,0,392.78,142.36Zm0-.78a2.1,2.1,0,0,1,1.87,1,6.4,6.4,0,0,1,0,5.62,2.29,2.29,0,0,1-3.74,0,6.4,6.4,0,0,1,0-5.62A2.12,2.12,0,0,1,392.78,141.58Z"/></g></g><g id="ytick_11" data-name="ytick 11"><g id="line2d_26" data-name="line2d 26"><path id="m68176479d0-5" data-name="m68176479d0" class="cls-3" d="M373.1,117.5h3.5"/></g><g id="text_20" data-name="text 20"><path id="DejaVuSans-51-2" data-name="DejaVuSans-51" d="M384.11,117.35a1.87,1.87,0,0,1,1.1.63,1.76,1.76,0,0,1,.4,1.18,2,2,0,0,1-.74,1.67,3.33,3.33,0,0,1-2.11.59,5.07,5.07,0,0,1-.94-.09,6.79,6.79,0,0,1-1-.27v-1a3.26,3.26,0,0,0,.9.36,4.31,4.31,0,0,0,1,.12,2.26,2.26,0,0,0,1.41-.37,1.27,1.27,0,0,0,.49-1.06,1.22,1.22,0,0,0-.45-1,2,2,0,0,0-1.26-.36h-.85V117H383a1.84,1.84,0,0,0,1.11-.29,1.11,1.11,0,0,0,0-1.7,1.84,1.84,0,0,0-1.14-.3,4.59,4.59,0,0,0-.87.09,8.69,8.69,0,0,0-1,.27v-.88a10.68,10.68,0,0,1,1-.23,6.15,6.15,0,0,1,.93-.08,2.83,2.83,0,0,1,1.78.51,1.64,1.64,0,0,1,.65,1.38,1.54,1.54,0,0,1-.35,1A1.87,1.87,0,0,1,384.11,117.35Z"/><path id="DejaVuSans-46-5" data-name="DejaVuSans-46" d="M387.49,120h1v1.24h-1Z"/><path id="DejaVuSans-53-3" data-name="DejaVuSans-53" d="M390.68,114h3.87v.83h-3v1.79a2.26,2.26,0,0,1,.43-.11,3.13,3.13,0,0,1,.43,0,2.68,2.68,0,0,1,1.93.67,2.66,2.66,0,0,1,0,3.64,3,3,0,0,1-2.07.65,6.07,6.07,0,0,1-.94-.08,7.66,7.66,0,0,1-1-.23v-1a3.87,3.87,0,0,0,1.9.48,2,2,0,0,0,1.34-.44,1.55,1.55,0,0,0,.49-1.21,1.51,1.51,0,0,0-.49-1.2,1.91,1.91,0,0,0-1.34-.45,3.55,3.55,0,0,0-.79.09,4.44,4.44,0,0,0-.8.27V114Z"/></g></g><g id="ytick_12" data-name="ytick 12"><g id="line2d_27" data-name="line2d 27"><path id="m68176479d0-6" data-name="m68176479d0" class="cls-3" d="M373.1,89.8h3.5"/></g><g id="text_21" data-name="text 21"><path id="DejaVuSans-52-2" data-name="DejaVuSans-52" d="M383.84,87.13,381.35,91h2.49Zm-.26-.86h1.24V91h1v.82h-1v1.72h-1V91.84h-3.29v-1Z"/><path id="DejaVuSans-46-6" data-name="DejaVuSans-46" d="M387.49,92.32h1v1.24h-1Z"/><path id="DejaVuSans-48-7" data-name="DejaVuSans-48" d="M392.78,86.92a1.23,1.23,0,0,0-1.15.75,5.07,5.07,0,0,0-.38,2.25,5.21,5.21,0,0,0,.38,2.25,1.26,1.26,0,0,0,2.3,0,5.07,5.07,0,0,0,.38-2.25,5.21,5.21,0,0,0-.38-2.25A1.23,1.23,0,0,0,392.78,86.92Zm0-.78a2.1,2.1,0,0,1,1.87,1,6.4,6.4,0,0,1,0,5.62,2.29,2.29,0,0,1-3.74,0,6.4,6.4,0,0,1,0-5.62A2.12,2.12,0,0,1,392.78,86.14Z"/></g></g><g id="ytick_13" data-name="ytick 13"><g id="line2d_28" data-name="line2d 28"><path id="m68176479d0-7" data-name="m68176479d0" class="cls-3" d="M373.1,62h3.5"/></g><g id="text_22" data-name="text 22"><path id="DejaVuSans-52-3" data-name="DejaVuSans-52" d="M383.84,59.41l-2.49,3.89h2.49Zm-.26-.86h1.24V63.3h1v.82h-1v1.72h-1V64.12h-3.29v-1Z"/><path id="DejaVuSans-46-7" data-name="DejaVuSans-46" d="M387.49,64.6h1v1.24h-1Z"/><path id="DejaVuSans-53-4" data-name="DejaVuSans-53" d="M390.68,58.55h3.87v.83h-3v1.79a2.26,2.26,0,0,1,.43-.11,3.13,3.13,0,0,1,.43,0,2.68,2.68,0,0,1,1.93.67,2.66,2.66,0,0,1,0,3.64,3,3,0,0,1-2.07.65,6.07,6.07,0,0,1-.94-.08,7.66,7.66,0,0,1-1-.23v-1a3.87,3.87,0,0,0,1.9.48,2,2,0,0,0,1.34-.44,1.55,1.55,0,0,0,.49-1.21,1.51,1.51,0,0,0-.49-1.2,1.91,1.91,0,0,0-1.34-.45,3.55,3.55,0,0,0-.79.09,4.44,4.44,0,0,0-.8.27V58.55Z"/></g></g><g id="ytick_14" data-name="ytick 14"><g id="line2d_29" data-name="line2d 29"><path id="m68176479d0-8" data-name="m68176479d0" class="cls-3" d="M373.1,34.3h3.5"/></g><g id="text_23" data-name="text 23"><path id="DejaVuSans-53-5" data-name="DejaVuSans-53" d="M381.14,30.83H385v.83h-3v1.79a2.26,2.26,0,0,1,.43-.11,3.13,3.13,0,0,1,.43,0,2.68,2.68,0,0,1,1.93.67,2.66,2.66,0,0,1,0,3.64,3,3,0,0,1-2.07.65,6.07,6.07,0,0,1-.94-.08,7.66,7.66,0,0,1-1-.23V37a3.87,3.87,0,0,0,1.9.48,2,2,0,0,0,1.34-.44,1.55,1.55,0,0,0,.49-1.21,1.51,1.51,0,0,0-.49-1.2,1.91,1.91,0,0,0-1.34-.45,3.55,3.55,0,0,0-.79.09,4.44,4.44,0,0,0-.8.27V30.83Z"/><path id="DejaVuSans-46-8" data-name="DejaVuSans-46" d="M387.49,36.88h1v1.24h-1Z"/><path id="DejaVuSans-48-8" data-name="DejaVuSans-48" d="M392.78,31.48a1.23,1.23,0,0,0-1.15.75,5.07,5.07,0,0,0-.38,2.25,5.21,5.21,0,0,0,.38,2.25,1.26,1.26,0,0,0,2.3,0,5.07,5.07,0,0,0,.38-2.25,5.21,5.21,0,0,0-.38-2.25A1.23,1.23,0,0,0,392.78,31.48Zm0-.78a2.1,2.1,0,0,1,1.87,1,5.08,5.08,0,0,1,.65,2.81,5.08,5.08,0,0,1-.65,2.81,2.29,2.29,0,0,1-3.74,0,5.08,5.08,0,0,1-.65-2.81,5.05,5.05,0,0,1,.65-2.81A2.12,2.12,0,0,1,392.78,30.7Z"/></g></g><g id="ytick_15" data-name="ytick 15"><g id="line2d_30" data-name="line2d 30"><path id="m68176479d0-9" data-name="m68176479d0" class="cls-3" d="M373.1,6.6h3.5"/></g><g id="text_24" data-name="text 24"><path id="DejaVuSans-53-6" data-name="DejaVuSans-53" d="M381.14,3.11H385v.83h-3V5.73a2.26,2.26,0,0,1,.43-.11,3.13,3.13,0,0,1,.43,0,2.68,2.68,0,0,1,1.93.67,2.35,2.35,0,0,1,.71,1.81,2.33,2.33,0,0,1-.73,1.83,3,3,0,0,1-2.07.65,6.07,6.07,0,0,1-.94-.08,7.66,7.66,0,0,1-1-.23v-1a3.87,3.87,0,0,0,1.9.48,2,2,0,0,0,1.34-.44,1.55,1.55,0,0,0,.49-1.21,1.51,1.51,0,0,0-.49-1.2,1.91,1.91,0,0,0-1.34-.45,3.55,3.55,0,0,0-.79.09,4.44,4.44,0,0,0-.8.27V3.11Z"/><path id="DejaVuSans-46-9" data-name="DejaVuSans-46" d="M387.49,9.16h1V10.4h-1Z"/><path id="DejaVuSans-53-7" data-name="DejaVuSans-53" d="M390.68,3.11h3.87v.83h-3V5.73a2.26,2.26,0,0,1,.43-.11,3.13,3.13,0,0,1,.43,0,2.68,2.68,0,0,1,1.93.67,2.35,2.35,0,0,1,.71,1.81,2.33,2.33,0,0,1-.73,1.83,3,3,0,0,1-2.07.65,6.07,6.07,0,0,1-.94-.08,7.66,7.66,0,0,1-1-.23v-1a3.87,3.87,0,0,0,1.9.48,2,2,0,0,0,1.34-.44,1.55,1.55,0,0,0,.49-1.21,1.51,1.51,0,0,0-.49-1.2,1.91,1.91,0,0,0-1.34-.45,3.55,3.55,0,0,0-.79.09,4.44,4.44,0,0,0-.8.27V3.11Z"/></g></g><g id="text_25" data-name="text 25"><path id="DejaVuSans-86" d="M407.56,151.78l-7.29,2.78v-1l6.14-2.31-6.14-2.31v-1l7.29,2.78Z"/><path id="DejaVuSans-101" d="M404.6,143H405v4.13a2.08,2.08,0,0,0,1.41-.56,1.93,1.93,0,0,0,.49-1.39,3.71,3.71,0,0,0-.13-1,4.33,4.33,0,0,0-.38-1h.85a4.94,4.94,0,0,1,.31,1,5.07,5.07,0,0,1,.11,1,2.62,2.62,0,0,1-2.82,2.83,3,3,0,0,1-2.13-.73,2.52,2.52,0,0,1-.79-2,2.25,2.25,0,0,1,.71-1.75A2.83,2.83,0,0,1,404.6,143Zm-.27.9a1.74,1.74,0,0,0-1.18.41,1.39,1.39,0,0,0-.44,1.07,1.65,1.65,0,0,0,.43,1.2,1.81,1.81,0,0,0,1.2.52Z"/><path id="DejaVuSans-108" d="M400,141.48v-.9h7.6v.9Z"/><path id="DejaVuSans-111" d="M402.72,136.59a1.36,1.36,0,0,0,.56,1.14,3.07,3.07,0,0,0,3.1,0,1.44,1.44,0,0,0,0-2.29,3,3,0,0,0-3.08,0A1.37,1.37,0,0,0,402.72,136.59Zm-.76,0a2.32,2.32,0,0,1,.76-1.84,3.66,3.66,0,0,1,4.22,0,2.61,2.61,0,0,1,0,3.68,3.12,3.12,0,0,1-2.11.67,3.07,3.07,0,0,1-2.11-.67A2.31,2.31,0,0,1,402,136.59Z"/><path id="DejaVuSans-99" d="M402.3,128.65h.84a3.52,3.52,0,0,0-.32.76,2.91,2.91,0,0,0-.1.77,1.71,1.71,0,0,0,.55,1.36,2.76,2.76,0,0,0,3.11,0,1.71,1.71,0,0,0,.55-1.36,2.86,2.86,0,0,0-.1-.77,3.33,3.33,0,0,0-.32-.76h.83a3.57,3.57,0,0,1,.26.78,3.91,3.91,0,0,1,.09.86,2.55,2.55,0,0,1-.78,2,3,3,0,0,1-2.1.73,2.9,2.9,0,0,1-2.1-.73,2.67,2.67,0,0,1-.77-2,3.59,3.59,0,0,1,.09-.81A4.14,4.14,0,0,1,402.3,128.65Z"/><path id="DejaVuSans-105" d="M402.09,127.09v-.9h5.47v.9Zm-2.13,0v-.9h1.14v.9Z"/><path id="DejaVuSans-116" d="M400.53,123.42h1.55v-1.85h.7v1.85h3a1.36,1.36,0,0,0,.86-.18,1,1,0,0,0,.19-.75v-.92h.75v.92a2.07,2.07,0,0,1-.39,1.44,2,2,0,0,1-1.41.4h-3V125h-.7v-.66h-1.55Z"/><path id="DejaVuSans-121" d="M408.06,118.11a3.14,3.14,0,0,1,1.27.74,1.46,1.46,0,0,1,.3,1v.72h-.75V120a.86.86,0,0,0-.18-.58,2.11,2.11,0,0,0-.83-.45l-.41-.16L402.08,121v-1l4.28-1.71-4.28-1.71v-1Z"/><path id="DejaVuSans-40-5" data-name="DejaVuSans-40" d="M400,109.13a9.68,9.68,0,0,0,2.22,1,7.93,7.93,0,0,0,4.46,0,10,10,0,0,0,2.23-1v.78a10.41,10.41,0,0,1-2.26,1.1,7.08,7.08,0,0,1-2.2.36,7,7,0,0,1-2.19-.36,10,10,0,0,1-2.26-1.1Z"/><path id="DejaVuSans-107-5" data-name="DejaVuSans-107" d="M400,107.43v-.9h4.49l-2.36-2.68V102.7l2.56,2.9,2.91-3v1.17l-2.67,2.78h2.67v.9Z"/><path id="DejaVuSans-109-5" data-name="DejaVuSans-109" d="M403.14,97.34a2.35,2.35,0,0,1-.89-.81,2.07,2.07,0,0,1-.29-1.1,1.57,1.57,0,0,1,.6-1.32,2.71,2.71,0,0,1,1.7-.46h3.3v.9h-3.27a2,2,0,0,0-1.17.28,1,1,0,0,0-.38.85,1.37,1.37,0,0,0,.46,1.1,1.85,1.85,0,0,0,1.26.4h3.09v.9h-3.27a1.94,1.94,0,0,0-1.17.28,1,1,0,0,0-.38.86,1.41,1.41,0,0,0,.47,1.1,1.85,1.85,0,0,0,1.26.4h3.09v.9h-5.47v-.9h.85a2,2,0,0,1-.74-.74,2.08,2.08,0,0,1-.24-1,1.66,1.66,0,0,1,.3-1A1.89,1.89,0,0,1,403.14,97.34Z"/><path id="DejaVuSans-47" d="M400.27,90.26v-.83L408.49,92v.83Z"/><path id="DejaVuSans-115" d="M402.25,85h.85a3.26,3.26,0,0,0-.29.79,3.41,3.41,0,0,0-.1.85,2,2,0,0,0,.2,1,.68.68,0,0,0,.62.33.58.58,0,0,0,.49-.24,2.85,2.85,0,0,0,.34-1l.07-.31A2.94,2.94,0,0,1,405,85.1a1.35,1.35,0,0,1,1-.4,1.43,1.43,0,0,1,1.21.6A2.71,2.71,0,0,1,407.7,87a5,5,0,0,1-.09.92,7,7,0,0,1-.26,1h-.93a5.26,5.26,0,0,0,.39-1,3.52,3.52,0,0,0,.13-1,1.8,1.8,0,0,0-.22-1,.68.68,0,0,0-.61-.34.66.66,0,0,0-.56.25,2.92,2.92,0,0,0-.38,1.08l-.07.31a2.48,2.48,0,0,1-.54,1.21,1.33,1.33,0,0,1-1,.37,1.4,1.4,0,0,1-1.19-.55,2.49,2.49,0,0,1-.42-1.55,5.69,5.69,0,0,1,.07-.94A5,5,0,0,1,402.25,85Z"/><path id="DejaVuSans-41-5" data-name="DejaVuSans-41" d="M400,83.42v-.78a10.41,10.41,0,0,1,2.26-1.1,6.87,6.87,0,0,1,4.39,0,10,10,0,0,1,2.26,1.1v.78a10,10,0,0,0-2.23-1,7.93,7.93,0,0,0-4.46,0A10.63,10.63,0,0,0,400,83.42Z"/></g></g><g id="patch_18" data-name="patch 18"><path class="cls-7" d="M362,228.4V6.6h11.1V228.4Z"/></g></g><line class="cls-8" x1="200.24" y1="7.33" x2="200.24" y2="71.31"/><polygon class="cls-9" points="29.64 9.92 27.87 6.85 26.1 3.78 29.64 3.78 33.19 3.78 31.41 6.85 29.64 9.92"/><polygon class="cls-9" points="50.91 9.92 49.13 6.85 47.36 3.78 50.91 3.78 54.45 3.78 52.68 6.85 50.91 9.92"/><polygon class="cls-9" points="178.48 9.92 176.71 6.85 174.94 3.78 178.48 3.78 182.03 3.78 180.26 6.85 178.48 9.92"/><polygon class="cls-9" points="157.22 9.92 155.45 6.85 153.68 3.78 157.22 3.78 160.76 3.78 158.99 6.85 157.22 9.92"/><polygon class="cls-9" points="135.96 9.92 134.19 6.85 132.41 3.78 135.96 3.78 139.5 3.78 137.73 6.85 135.96 9.92"/><polygon class="cls-9" points="114.69 9.92 112.92 6.85 111.15 3.78 114.69 3.78 118.24 3.78 116.47 6.85 114.69 9.92"/><polygon class="cls-9" points="93.43 9.92 91.66 6.85 89.89 3.78 93.43 3.78 96.97 3.78 95.2 6.85 93.43 9.92"/><polygon class="cls-9" points="72.17 9.92 70.4 6.85 68.63 3.78 72.17 3.78 75.71 3.78 73.94 6.85 72.17 9.92"/><text class="cls-10" transform="translate(36.17 10.2)">x</text><text class="cls-10" transform="translate(142.84 10.2)">x</text><text class="cls-10" transform="translate(121.51 10.2)">x</text><text class="cls-10" transform="translate(100.17 10.2)">x</text><text class="cls-10" transform="translate(78.84 10.2)">x</text><text class="cls-10" transform="translate(57.51 10.2)">x</text><text class="cls-10" transform="translate(164.17 10.2)">x</text><polygon class="cls-9" points="178.64 9.92 176.87 6.85 175.1 3.78 178.64 3.78 182.19 3.78 180.41 6.85 178.64 9.92"/><polygon class="cls-9" points="199.91 9.92 198.13 6.85 196.36 3.78 199.91 3.78 203.45 3.78 201.68 6.85 199.91 9.92"/><polygon class="cls-9" points="327.48 9.92 325.71 6.85 323.94 3.78 327.48 3.78 331.03 3.78 329.26 6.85 327.48 9.92"/><polygon class="cls-9" points="306.22 9.92 304.45 6.85 302.68 3.78 306.22 3.78 309.76 3.78 307.99 6.85 306.22 9.92"/><polygon class="cls-9" points="284.96 9.92 283.19 6.85 281.41 3.78 284.96 3.78 288.5 3.78 286.73 6.85 284.96 9.92"/><polygon class="cls-9" points="263.69 9.92 261.92 6.85 260.15 3.78 263.69 3.78 267.24 3.78 265.47 6.85 263.69 9.92"/><polygon class="cls-9" points="242.43 9.92 240.66 6.85 238.89 3.78 242.43 3.78 245.97 3.78 244.2 6.85 242.43 9.92"/><polygon class="cls-9" points="221.17 9.92 219.4 6.85 217.63 3.78 221.17 3.78 224.71 3.78 222.94 6.85 221.17 9.92"/><text class="cls-10" transform="translate(185.17 10.2)">x</text><text class="cls-10" transform="translate(291.84 10.2)">x</text><text class="cls-10" transform="translate(270.51 10.2)">x</text><text class="cls-10" transform="translate(249.17 10.2)">x</text><text class="cls-10" transform="translate(227.84 10.2)">x</text><text class="cls-10" transform="translate(206.51 10.2)">x</text><text class="cls-10" transform="translate(313.17 10.2)">x</text><text class="cls-10" transform="translate(331.17 10.2)">x</text><polygon class="cls-9" points="30.08 21.25 28.31 18.18 26.53 15.11 30.08 15.11 33.62 15.11 31.85 18.18 30.08 21.25"/><polygon class="cls-9" points="30.08 31.97 28.31 28.9 26.53 25.83 30.08 25.83 33.62 25.83 31.85 28.9 30.08 31.97"/><polygon class="cls-9" points="30.08 42.69 28.31 39.62 26.53 36.55 30.08 36.55 33.62 36.55 31.85 39.62 30.08 42.69"/><polygon class="cls-9" points="30.08 53.41 28.31 50.34 26.53 47.27 30.08 47.27 33.62 47.27 31.85 50.34 30.08 53.41"/><polygon class="cls-9" points="30.08 64.13 28.31 61.06 26.53 57.99 30.08 57.99 33.62 57.99 31.85 61.06 30.08 64.13"/><polygon class="cls-9" points="30.08 74.85 28.31 71.78 26.53 68.71 30.08 68.71 33.62 68.71 31.85 71.78 30.08 74.85"/><polygon class="cls-9" points="343.08 21.25 341.31 18.18 339.53 15.11 343.08 15.11 346.62 15.11 344.85 18.18 343.08 21.25"/><polygon class="cls-9" points="343.08 31.97 341.31 28.9 339.53 25.83 343.08 25.83 346.62 25.83 344.85 28.9 343.08 31.97"/><polygon class="cls-9" points="343.08 42.69 341.31 39.62 339.53 36.55 343.08 36.55 346.62 36.55 344.85 39.62 343.08 42.69"/><polygon class="cls-9" points="343.08 53.41 341.31 50.34 339.53 47.27 343.08 47.27 346.62 47.27 344.85 50.34 343.08 53.41"/><polygon class="cls-9" points="343.08 64.13 341.31 61.06 339.53 57.99 343.08 57.99 346.62 57.99 344.85 61.06 343.08 64.13"/><polygon class="cls-9" points="343.08 74.85 341.31 71.78 339.53 68.71 343.08 68.71 346.62 68.71 344.85 71.78 343.08 74.85"/><polygon class="cls-9" points="343.08 9.92 341.31 6.85 339.53 3.78 343.08 3.78 346.62 3.78 344.85 6.85 343.08 9.92"/><line class="cls-8" x1="59.24" y1="7.33" x2="59.24" y2="71.31"/><line class="cls-8" x1="320.24" y1="7.33" x2="320.24" y2="71.31"/></svg>