<?xml version="1.0" encoding="utf-8" standalone="no"?>
<!DOCTYPE svg PUBLIC "-//W3C//DTD SVG 1.1//EN"
  "http://www.w3.org/Graphics/SVG/1.1/DTD/svg11.dtd">
<!-- Created with matplotlib (https://matplotlib.org/) -->
<svg height="345.6pt" version="1.1" viewBox="0 0 460.8 345.6" width="460.8pt" xmlns="http://www.w3.org/2000/svg" xmlns:xlink="http://www.w3.org/1999/xlink">
 <defs>
  <style type="text/css">
*{stroke-linecap:butt;stroke-linejoin:round;}
  </style>
 </defs>
 <g id="figure_1">
  <g id="patch_1">
   <path d="M 0 345.6 
L 460.8 345.6 
L 460.8 0 
L 0 0 
z
" style="fill:none;"/>
  </g>
  <g id="axes_1">
   <g id="patch_2">
    <path d="M 57.6 307.584 
L 414.72 307.584 
L 414.72 41.472 
L 57.6 41.472 
z
" style="fill:none;"/>
   </g>
   <g id="matplotlib.axis_1">
    <g id="xtick_1">
     <g id="line2d_1">
      <defs>
       <path d="M 0 0 
L 0 3.5 
" id="m51c66334e8" style="stroke:#000000;stroke-width:0.8;"/>
      </defs>
      <g>
       <use style="stroke:#000000;stroke-width:0.8;" x="73.832727" xlink:href="#m51c66334e8" y="307.584"/>
      </g>
     </g>
     <g id="text_1">
      <!-- 0 -->
      <defs>
       <path d="M 31.78125 66.40625 
Q 24.171875 66.40625 20.328125 58.90625 
Q 16.5 51.421875 16.5 36.375 
Q 16.5 21.390625 20.328125 13.890625 
Q 24.171875 6.390625 31.78125 6.390625 
Q 39.453125 6.390625 43.28125 13.890625 
Q 47.125 21.390625 47.125 36.375 
Q 47.125 51.421875 43.28125 58.90625 
Q 39.453125 66.40625 31.78125 66.40625 
z
M 31.78125 74.21875 
Q 44.046875 74.21875 50.515625 64.515625 
Q 56.984375 54.828125 56.984375 36.375 
Q 56.984375 17.96875 50.515625 8.265625 
Q 44.046875 -1.421875 31.78125 -1.421875 
Q 19.53125 -1.421875 13.0625 8.265625 
Q 6.59375 17.96875 6.59375 36.375 
Q 6.59375 54.828125 13.0625 64.515625 
Q 19.53125 74.21875 31.78125 74.21875 
z
" id="DejaVuSans-48"/>
      </defs>
      <g transform="translate(70.651477 322.182437)scale(0.1 -0.1)">
       <use xlink:href="#DejaVuSans-48"/>
      </g>
     </g>
    </g>
    <g id="xtick_2">
     <g id="line2d_2">
      <g>
       <use style="stroke:#000000;stroke-width:0.8;" x="116.023052" xlink:href="#m51c66334e8" y="307.584"/>
      </g>
     </g>
     <g id="text_2">
      <!-- 200 -->
      <defs>
       <path d="M 19.1875 8.296875 
L 53.609375 8.296875 
L 53.609375 0 
L 7.328125 0 
L 7.328125 8.296875 
Q 12.9375 14.109375 22.625 23.890625 
Q 32.328125 33.6875 34.8125 36.53125 
Q 39.546875 41.84375 41.421875 45.53125 
Q 43.3125 49.21875 43.3125 52.78125 
Q 43.3125 58.59375 39.234375 62.25 
Q 35.15625 65.921875 28.609375 65.921875 
Q 23.96875 65.921875 18.8125 64.3125 
Q 13.671875 62.703125 7.8125 59.421875 
L 7.8125 69.390625 
Q 13.765625 71.78125 18.9375 73 
Q 24.125 74.21875 28.421875 74.21875 
Q 39.75 74.21875 46.484375 68.546875 
Q 53.21875 62.890625 53.21875 53.421875 
Q 53.21875 48.921875 51.53125 44.890625 
Q 49.859375 40.875 45.40625 35.40625 
Q 44.1875 33.984375 37.640625 27.21875 
Q 31.109375 20.453125 19.1875 8.296875 
z
" id="DejaVuSans-50"/>
      </defs>
      <g transform="translate(106.479302 322.182437)scale(0.1 -0.1)">
       <use xlink:href="#DejaVuSans-50"/>
       <use x="63.623047" xlink:href="#DejaVuSans-48"/>
       <use x="127.246094" xlink:href="#DejaVuSans-48"/>
      </g>
     </g>
    </g>
    <g id="xtick_3">
     <g id="line2d_3">
      <g>
       <use style="stroke:#000000;stroke-width:0.8;" x="158.213376" xlink:href="#m51c66334e8" y="307.584"/>
      </g>
     </g>
     <g id="text_3">
      <!-- 400 -->
      <defs>
       <path d="M 37.796875 64.3125 
L 12.890625 25.390625 
L 37.796875 25.390625 
z
M 35.203125 72.90625 
L 47.609375 72.90625 
L 47.609375 25.390625 
L 58.015625 25.390625 
L 58.015625 17.1875 
L 47.609375 17.1875 
L 47.609375 0 
L 37.796875 0 
L 37.796875 17.1875 
L 4.890625 17.1875 
L 4.890625 26.703125 
z
" id="DejaVuSans-52"/>
      </defs>
      <g transform="translate(148.669626 322.182437)scale(0.1 -0.1)">
       <use xlink:href="#DejaVuSans-52"/>
       <use x="63.623047" xlink:href="#DejaVuSans-48"/>
       <use x="127.246094" xlink:href="#DejaVuSans-48"/>
      </g>
     </g>
    </g>
    <g id="xtick_4">
     <g id="line2d_4">
      <g>
       <use style="stroke:#000000;stroke-width:0.8;" x="200.4037" xlink:href="#m51c66334e8" y="307.584"/>
      </g>
     </g>
     <g id="text_4">
      <!-- 600 -->
      <defs>
       <path d="M 33.015625 40.375 
Q 26.375 40.375 22.484375 35.828125 
Q 18.609375 31.296875 18.609375 23.390625 
Q 18.609375 15.53125 22.484375 10.953125 
Q 26.375 6.390625 33.015625 6.390625 
Q 39.65625 6.390625 43.53125 10.953125 
Q 47.40625 15.53125 47.40625 23.390625 
Q 47.40625 31.296875 43.53125 35.828125 
Q 39.65625 40.375 33.015625 40.375 
z
M 52.59375 71.296875 
L 52.59375 62.3125 
Q 48.875 64.0625 45.09375 64.984375 
Q 41.3125 65.921875 37.59375 65.921875 
Q 27.828125 65.921875 22.671875 59.328125 
Q 17.53125 52.734375 16.796875 39.40625 
Q 19.671875 43.65625 24.015625 45.921875 
Q 28.375 48.1875 33.59375 48.1875 
Q 44.578125 48.1875 50.953125 41.515625 
Q 57.328125 34.859375 57.328125 23.390625 
Q 57.328125 12.15625 50.6875 5.359375 
Q 44.046875 -1.421875 33.015625 -1.421875 
Q 20.359375 -1.421875 13.671875 8.265625 
Q 6.984375 17.96875 6.984375 36.375 
Q 6.984375 53.65625 15.1875 63.9375 
Q 23.390625 74.21875 37.203125 74.21875 
Q 40.921875 74.21875 44.703125 73.484375 
Q 48.484375 72.75 52.59375 71.296875 
z
" id="DejaVuSans-54"/>
      </defs>
      <g transform="translate(190.85995 322.182437)scale(0.1 -0.1)">
       <use xlink:href="#DejaVuSans-54"/>
       <use x="63.623047" xlink:href="#DejaVuSans-48"/>
       <use x="127.246094" xlink:href="#DejaVuSans-48"/>
      </g>
     </g>
    </g>
    <g id="xtick_5">
     <g id="line2d_5">
      <g>
       <use style="stroke:#000000;stroke-width:0.8;" x="242.594024" xlink:href="#m51c66334e8" y="307.584"/>
      </g>
     </g>
     <g id="text_5">
      <!-- 800 -->
      <defs>
       <path d="M 31.78125 34.625 
Q 24.75 34.625 20.71875 30.859375 
Q 16.703125 27.09375 16.703125 20.515625 
Q 16.703125 13.921875 20.71875 10.15625 
Q 24.75 6.390625 31.78125 6.390625 
Q 38.8125 6.390625 42.859375 10.171875 
Q 46.921875 13.96875 46.921875 20.515625 
Q 46.921875 27.09375 42.890625 30.859375 
Q 38.875 34.625 31.78125 34.625 
z
M 21.921875 38.8125 
Q 15.578125 40.375 12.03125 44.71875 
Q 8.5 49.078125 8.5 55.328125 
Q 8.5 64.0625 14.71875 69.140625 
Q 20.953125 74.21875 31.78125 74.21875 
Q 42.671875 74.21875 48.875 69.140625 
Q 55.078125 64.0625 55.078125 55.328125 
Q 55.078125 49.078125 51.53125 44.71875 
Q 48 40.375 41.703125 38.8125 
Q 48.828125 37.15625 52.796875 32.3125 
Q 56.78125 27.484375 56.78125 20.515625 
Q 56.78125 9.90625 50.3125 4.234375 
Q 43.84375 -1.421875 31.78125 -1.421875 
Q 19.734375 -1.421875 13.25 4.234375 
Q 6.78125 9.90625 6.78125 20.515625 
Q 6.78125 27.484375 10.78125 32.3125 
Q 14.796875 37.15625 21.921875 38.8125 
z
M 18.3125 54.390625 
Q 18.3125 48.734375 21.84375 45.5625 
Q 25.390625 42.390625 31.78125 42.390625 
Q 38.140625 42.390625 41.71875 45.5625 
Q 45.3125 48.734375 45.3125 54.390625 
Q 45.3125 60.0625 41.71875 63.234375 
Q 38.140625 66.40625 31.78125 66.40625 
Q 25.390625 66.40625 21.84375 63.234375 
Q 18.3125 60.0625 18.3125 54.390625 
z
" id="DejaVuSans-56"/>
      </defs>
      <g transform="translate(233.050274 322.182437)scale(0.1 -0.1)">
       <use xlink:href="#DejaVuSans-56"/>
       <use x="63.623047" xlink:href="#DejaVuSans-48"/>
       <use x="127.246094" xlink:href="#DejaVuSans-48"/>
      </g>
     </g>
    </g>
    <g id="xtick_6">
     <g id="line2d_6">
      <g>
       <use style="stroke:#000000;stroke-width:0.8;" x="284.784349" xlink:href="#m51c66334e8" y="307.584"/>
      </g>
     </g>
     <g id="text_6">
      <!-- 1000 -->
      <defs>
       <path d="M 12.40625 8.296875 
L 28.515625 8.296875 
L 28.515625 63.921875 
L 10.984375 60.40625 
L 10.984375 69.390625 
L 28.421875 72.90625 
L 38.28125 72.90625 
L 38.28125 8.296875 
L 54.390625 8.296875 
L 54.390625 0 
L 12.40625 0 
z
" id="DejaVuSans-49"/>
      </defs>
      <g transform="translate(272.059349 322.182437)scale(0.1 -0.1)">
       <use xlink:href="#DejaVuSans-49"/>
       <use x="63.623047" xlink:href="#DejaVuSans-48"/>
       <use x="127.246094" xlink:href="#DejaVuSans-48"/>
       <use x="190.869141" xlink:href="#DejaVuSans-48"/>
      </g>
     </g>
    </g>
    <g id="xtick_7">
     <g id="line2d_7">
      <g>
       <use style="stroke:#000000;stroke-width:0.8;" x="326.974673" xlink:href="#m51c66334e8" y="307.584"/>
      </g>
     </g>
     <g id="text_7">
      <!-- 1200 -->
      <g transform="translate(314.249673 322.182437)scale(0.1 -0.1)">
       <use xlink:href="#DejaVuSans-49"/>
       <use x="63.623047" xlink:href="#DejaVuSans-50"/>
       <use x="127.246094" xlink:href="#DejaVuSans-48"/>
       <use x="190.869141" xlink:href="#DejaVuSans-48"/>
      </g>
     </g>
    </g>
    <g id="xtick_8">
     <g id="line2d_8">
      <g>
       <use style="stroke:#000000;stroke-width:0.8;" x="369.164997" xlink:href="#m51c66334e8" y="307.584"/>
      </g>
     </g>
     <g id="text_8">
      <!-- 1400 -->
      <g transform="translate(356.439997 322.182437)scale(0.1 -0.1)">
       <use xlink:href="#DejaVuSans-49"/>
       <use x="63.623047" xlink:href="#DejaVuSans-52"/>
       <use x="127.246094" xlink:href="#DejaVuSans-48"/>
       <use x="190.869141" xlink:href="#DejaVuSans-48"/>
      </g>
     </g>
    </g>
    <g id="xtick_9">
     <g id="line2d_9">
      <g>
       <use style="stroke:#000000;stroke-width:0.8;" x="411.355322" xlink:href="#m51c66334e8" y="307.584"/>
      </g>
     </g>
     <g id="text_9">
      <!-- 1600 -->
      <g transform="translate(398.630322 322.182437)scale(0.1 -0.1)">
       <use xlink:href="#DejaVuSans-49"/>
       <use x="63.623047" xlink:href="#DejaVuSans-54"/>
       <use x="127.246094" xlink:href="#DejaVuSans-48"/>
       <use x="190.869141" xlink:href="#DejaVuSans-48"/>
      </g>
     </g>
    </g>
    <g id="text_10">
     <!-- Num Accepted -->
     <defs>
      <path d="M 9.8125 72.90625 
L 23.09375 72.90625 
L 55.421875 11.921875 
L 55.421875 72.90625 
L 64.984375 72.90625 
L 64.984375 0 
L 51.703125 0 
L 19.390625 60.984375 
L 19.390625 0 
L 9.8125 0 
z
" id="DejaVuSans-78"/>
      <path d="M 8.5 21.578125 
L 8.5 54.6875 
L 17.484375 54.6875 
L 17.484375 21.921875 
Q 17.484375 14.15625 20.5 10.265625 
Q 23.53125 6.390625 29.59375 6.390625 
Q 36.859375 6.390625 41.078125 11.03125 
Q 45.3125 15.671875 45.3125 23.6875 
L 45.3125 54.6875 
L 54.296875 54.6875 
L 54.296875 0 
L 45.3125 0 
L 45.3125 8.40625 
Q 42.046875 3.421875 37.71875 1 
Q 33.40625 -1.421875 27.6875 -1.421875 
Q 18.265625 -1.421875 13.375 4.4375 
Q 8.5 10.296875 8.5 21.578125 
z
M 31.109375 56 
z
" id="DejaVuSans-117"/>
      <path d="M 52 44.1875 
Q 55.375 50.25 60.0625 53.125 
Q 64.75 56 71.09375 56 
Q 79.640625 56 84.28125 50.015625 
Q 88.921875 44.046875 88.921875 33.015625 
L 88.921875 0 
L 79.890625 0 
L 79.890625 32.71875 
Q 79.890625 40.578125 77.09375 44.375 
Q 74.3125 48.1875 68.609375 48.1875 
Q 61.625 48.1875 57.5625 43.546875 
Q 53.515625 38.921875 53.515625 30.90625 
L 53.515625 0 
L 44.484375 0 
L 44.484375 32.71875 
Q 44.484375 40.625 41.703125 44.40625 
Q 38.921875 48.1875 33.109375 48.1875 
Q 26.21875 48.1875 22.15625 43.53125 
Q 18.109375 38.875 18.109375 30.90625 
L 18.109375 0 
L 9.078125 0 
L 9.078125 54.6875 
L 18.109375 54.6875 
L 18.109375 46.1875 
Q 21.1875 51.21875 25.484375 53.609375 
Q 29.78125 56 35.6875 56 
Q 41.65625 56 45.828125 52.96875 
Q 50 49.953125 52 44.1875 
z
" id="DejaVuSans-109"/>
      <path id="DejaVuSans-32"/>
      <path d="M 34.1875 63.1875 
L 20.796875 26.90625 
L 47.609375 26.90625 
z
M 28.609375 72.90625 
L 39.796875 72.90625 
L 67.578125 0 
L 57.328125 0 
L 50.6875 18.703125 
L 17.828125 18.703125 
L 11.1875 0 
L 0.78125 0 
z
" id="DejaVuSans-65"/>
      <path d="M 48.78125 52.59375 
L 48.78125 44.1875 
Q 44.96875 46.296875 41.140625 47.34375 
Q 37.3125 48.390625 33.40625 48.390625 
Q 24.65625 48.390625 19.8125 42.84375 
Q 14.984375 37.3125 14.984375 27.296875 
Q 14.984375 17.28125 19.8125 11.734375 
Q 24.65625 6.203125 33.40625 6.203125 
Q 37.3125 6.203125 41.140625 7.25 
Q 44.96875 8.296875 48.78125 10.40625 
L 48.78125 2.09375 
Q 45.015625 0.34375 40.984375 -0.53125 
Q 36.96875 -1.421875 32.421875 -1.421875 
Q 20.0625 -1.421875 12.78125 6.34375 
Q 5.515625 14.109375 5.515625 27.296875 
Q 5.515625 40.671875 12.859375 48.328125 
Q 20.21875 56 33.015625 56 
Q 37.15625 56 41.109375 55.140625 
Q 45.0625 54.296875 48.78125 52.59375 
z
" id="DejaVuSans-99"/>
      <path d="M 56.203125 29.59375 
L 56.203125 25.203125 
L 14.890625 25.203125 
Q 15.484375 15.921875 20.484375 11.0625 
Q 25.484375 6.203125 34.421875 6.203125 
Q 39.59375 6.203125 44.453125 7.46875 
Q 49.3125 8.734375 54.109375 11.28125 
L 54.109375 2.78125 
Q 49.265625 0.734375 44.1875 -0.34375 
Q 39.109375 -1.421875 33.890625 -1.421875 
Q 20.796875 -1.421875 13.15625 6.1875 
Q 5.515625 13.8125 5.515625 26.8125 
Q 5.515625 40.234375 12.765625 48.109375 
Q 20.015625 56 32.328125 56 
Q 43.359375 56 49.78125 48.890625 
Q 56.203125 41.796875 56.203125 29.59375 
z
M 47.21875 32.234375 
Q 47.125 39.59375 43.09375 43.984375 
Q 39.0625 48.390625 32.421875 48.390625 
Q 24.90625 48.390625 20.390625 44.140625 
Q 15.875 39.890625 15.1875 32.171875 
z
" id="DejaVuSans-101"/>
      <path d="M 18.109375 8.203125 
L 18.109375 -20.796875 
L 9.078125 -20.796875 
L 9.078125 54.6875 
L 18.109375 54.6875 
L 18.109375 46.390625 
Q 20.953125 51.265625 25.265625 53.625 
Q 29.59375 56 35.59375 56 
Q 45.5625 56 51.78125 48.09375 
Q 58.015625 40.1875 58.015625 27.296875 
Q 58.015625 14.40625 51.78125 6.484375 
Q 45.5625 -1.421875 35.59375 -1.421875 
Q 29.59375 -1.421875 25.265625 0.953125 
Q 20.953125 3.328125 18.109375 8.203125 
z
M 48.6875 27.296875 
Q 48.6875 37.203125 44.609375 42.84375 
Q 40.53125 48.484375 33.40625 48.484375 
Q 26.265625 48.484375 22.1875 42.84375 
Q 18.109375 37.203125 18.109375 27.296875 
Q 18.109375 17.390625 22.1875 11.75 
Q 26.265625 6.109375 33.40625 6.109375 
Q 40.53125 6.109375 44.609375 11.75 
Q 48.6875 17.390625 48.6875 27.296875 
z
" id="DejaVuSans-112"/>
      <path d="M 18.3125 70.21875 
L 18.3125 54.6875 
L 36.8125 54.6875 
L 36.8125 47.703125 
L 18.3125 47.703125 
L 18.3125 18.015625 
Q 18.3125 11.328125 20.140625 9.421875 
Q 21.96875 7.515625 27.59375 7.515625 
L 36.8125 7.515625 
L 36.8125 0 
L 27.59375 0 
Q 17.1875 0 13.234375 3.875 
Q 9.28125 7.765625 9.28125 18.015625 
L 9.28125 47.703125 
L 2.6875 47.703125 
L 2.6875 54.6875 
L 9.28125 54.6875 
L 9.28125 70.21875 
z
" id="DejaVuSans-116"/>
      <path d="M 45.40625 46.390625 
L 45.40625 75.984375 
L 54.390625 75.984375 
L 54.390625 0 
L 45.40625 0 
L 45.40625 8.203125 
Q 42.578125 3.328125 38.25 0.953125 
Q 33.9375 -1.421875 27.875 -1.421875 
Q 17.96875 -1.421875 11.734375 6.484375 
Q 5.515625 14.40625 5.515625 27.296875 
Q 5.515625 40.1875 11.734375 48.09375 
Q 17.96875 56 27.875 56 
Q 33.9375 56 38.25 53.625 
Q 42.578125 51.265625 45.40625 46.390625 
z
M 14.796875 27.296875 
Q 14.796875 17.390625 18.875 11.75 
Q 22.953125 6.109375 30.078125 6.109375 
Q 37.203125 6.109375 41.296875 11.75 
Q 45.40625 17.390625 45.40625 27.296875 
Q 45.40625 37.203125 41.296875 42.84375 
Q 37.203125 48.484375 30.078125 48.484375 
Q 22.953125 48.484375 18.875 42.84375 
Q 14.796875 37.203125 14.796875 27.296875 
z
" id="DejaVuSans-100"/>
     </defs>
     <g transform="translate(199.498281 335.860562)scale(0.1 -0.1)">
      <use xlink:href="#DejaVuSans-78"/>
      <use x="74.804688" xlink:href="#DejaVuSans-117"/>
      <use x="138.183594" xlink:href="#DejaVuSans-109"/>
      <use x="235.595703" xlink:href="#DejaVuSans-32"/>
      <use x="267.382812" xlink:href="#DejaVuSans-65"/>
      <use x="334.041016" xlink:href="#DejaVuSans-99"/>
      <use x="389.021484" xlink:href="#DejaVuSans-99"/>
      <use x="444.001953" xlink:href="#DejaVuSans-101"/>
      <use x="505.525391" xlink:href="#DejaVuSans-112"/>
      <use x="569.001953" xlink:href="#DejaVuSans-116"/>
      <use x="608.210938" xlink:href="#DejaVuSans-101"/>
      <use x="669.734375" xlink:href="#DejaVuSans-100"/>
     </g>
    </g>
   </g>
   <g id="matplotlib.axis_2">
    <g id="ytick_1">
     <g id="line2d_10">
      <defs>
       <path d="M 0 0 
L -3.5 0 
" id="ma241e018ff" style="stroke:#000000;stroke-width:0.8;"/>
      </defs>
      <g>
       <use style="stroke:#000000;stroke-width:0.8;" x="57.6" xlink:href="#ma241e018ff" y="306.314401"/>
      </g>
     </g>
     <g id="text_11">
      <!-- 0.25 -->
      <defs>
       <path d="M 10.6875 12.40625 
L 21 12.40625 
L 21 0 
L 10.6875 0 
z
" id="DejaVuSans-46"/>
       <path d="M 10.796875 72.90625 
L 49.515625 72.90625 
L 49.515625 64.59375 
L 19.828125 64.59375 
L 19.828125 46.734375 
Q 21.96875 47.46875 24.109375 47.828125 
Q 26.265625 48.1875 28.421875 48.1875 
Q 40.625 48.1875 47.75 41.5 
Q 54.890625 34.8125 54.890625 23.390625 
Q 54.890625 11.625 47.5625 5.09375 
Q 40.234375 -1.421875 26.90625 -1.421875 
Q 22.3125 -1.421875 17.546875 -0.640625 
Q 12.796875 0.140625 7.71875 1.703125 
L 7.71875 11.625 
Q 12.109375 9.234375 16.796875 8.0625 
Q 21.484375 6.890625 26.703125 6.890625 
Q 35.15625 6.890625 40.078125 11.328125 
Q 45.015625 15.765625 45.015625 23.390625 
Q 45.015625 31 40.078125 35.4375 
Q 35.15625 39.890625 26.703125 39.890625 
Q 22.75 39.890625 18.8125 39.015625 
Q 14.890625 38.140625 10.796875 36.28125 
z
" id="DejaVuSans-53"/>
      </defs>
      <g transform="translate(28.334375 310.11362)scale(0.1 -0.1)">
       <use xlink:href="#DejaVuSans-48"/>
       <use x="63.623047" xlink:href="#DejaVuSans-46"/>
       <use x="95.410156" xlink:href="#DejaVuSans-50"/>
       <use x="159.033203" xlink:href="#DejaVuSans-53"/>
      </g>
     </g>
    </g>
    <g id="ytick_2">
     <g id="line2d_11">
      <g>
       <use style="stroke:#000000;stroke-width:0.8;" x="57.6" xlink:href="#ma241e018ff" y="256.017869"/>
      </g>
     </g>
     <g id="text_12">
      <!-- 0.30 -->
      <defs>
       <path d="M 40.578125 39.3125 
Q 47.65625 37.796875 51.625 33 
Q 55.609375 28.21875 55.609375 21.1875 
Q 55.609375 10.40625 48.1875 4.484375 
Q 40.765625 -1.421875 27.09375 -1.421875 
Q 22.515625 -1.421875 17.65625 -0.515625 
Q 12.796875 0.390625 7.625 2.203125 
L 7.625 11.71875 
Q 11.71875 9.328125 16.59375 8.109375 
Q 21.484375 6.890625 26.8125 6.890625 
Q 36.078125 6.890625 40.9375 10.546875 
Q 45.796875 14.203125 45.796875 21.1875 
Q 45.796875 27.640625 41.28125 31.265625 
Q 36.765625 34.90625 28.71875 34.90625 
L 20.21875 34.90625 
L 20.21875 43.015625 
L 29.109375 43.015625 
Q 36.375 43.015625 40.234375 45.921875 
Q 44.09375 48.828125 44.09375 54.296875 
Q 44.09375 59.90625 40.109375 62.90625 
Q 36.140625 65.921875 28.71875 65.921875 
Q 24.65625 65.921875 20.015625 65.03125 
Q 15.375 64.15625 9.8125 62.3125 
L 9.8125 71.09375 
Q 15.4375 72.65625 20.34375 73.4375 
Q 25.25 74.21875 29.59375 74.21875 
Q 40.828125 74.21875 47.359375 69.109375 
Q 53.90625 64.015625 53.90625 55.328125 
Q 53.90625 49.265625 50.4375 45.09375 
Q 46.96875 40.921875 40.578125 39.3125 
z
" id="DejaVuSans-51"/>
      </defs>
      <g transform="translate(28.334375 259.817087)scale(0.1 -0.1)">
       <use xlink:href="#DejaVuSans-48"/>
       <use x="63.623047" xlink:href="#DejaVuSans-46"/>
       <use x="95.410156" xlink:href="#DejaVuSans-51"/>
       <use x="159.033203" xlink:href="#DejaVuSans-48"/>
      </g>
     </g>
    </g>
    <g id="ytick_3">
     <g id="line2d_12">
      <g>
       <use style="stroke:#000000;stroke-width:0.8;" x="57.6" xlink:href="#ma241e018ff" y="205.721336"/>
      </g>
     </g>
     <g id="text_13">
      <!-- 0.35 -->
      <g transform="translate(28.334375 209.520555)scale(0.1 -0.1)">
       <use xlink:href="#DejaVuSans-48"/>
       <use x="63.623047" xlink:href="#DejaVuSans-46"/>
       <use x="95.410156" xlink:href="#DejaVuSans-51"/>
       <use x="159.033203" xlink:href="#DejaVuSans-53"/>
      </g>
     </g>
    </g>
    <g id="ytick_4">
     <g id="line2d_13">
      <g>
       <use style="stroke:#000000;stroke-width:0.8;" x="57.6" xlink:href="#ma241e018ff" y="155.424803"/>
      </g>
     </g>
     <g id="text_14">
      <!-- 0.40 -->
      <g transform="translate(28.334375 159.224022)scale(0.1 -0.1)">
       <use xlink:href="#DejaVuSans-48"/>
       <use x="63.623047" xlink:href="#DejaVuSans-46"/>
       <use x="95.410156" xlink:href="#DejaVuSans-52"/>
       <use x="159.033203" xlink:href="#DejaVuSans-48"/>
      </g>
     </g>
    </g>
    <g id="ytick_5">
     <g id="line2d_14">
      <g>
       <use style="stroke:#000000;stroke-width:0.8;" x="57.6" xlink:href="#ma241e018ff" y="105.12827"/>
      </g>
     </g>
     <g id="text_15">
      <!-- 0.45 -->
      <g transform="translate(28.334375 108.927489)scale(0.1 -0.1)">
       <use xlink:href="#DejaVuSans-48"/>
       <use x="63.623047" xlink:href="#DejaVuSans-46"/>
       <use x="95.410156" xlink:href="#DejaVuSans-52"/>
       <use x="159.033203" xlink:href="#DejaVuSans-53"/>
      </g>
     </g>
    </g>
    <g id="ytick_6">
     <g id="line2d_15">
      <g>
       <use style="stroke:#000000;stroke-width:0.8;" x="57.6" xlink:href="#ma241e018ff" y="54.831738"/>
      </g>
     </g>
     <g id="text_16">
      <!-- 0.50 -->
      <g transform="translate(28.334375 58.630956)scale(0.1 -0.1)">
       <use xlink:href="#DejaVuSans-48"/>
       <use x="63.623047" xlink:href="#DejaVuSans-46"/>
       <use x="95.410156" xlink:href="#DejaVuSans-53"/>
       <use x="159.033203" xlink:href="#DejaVuSans-48"/>
      </g>
     </g>
    </g>
    <g id="text_17">
     <!-- Relative Residuals -->
     <defs>
      <path d="M 44.390625 34.1875 
Q 47.5625 33.109375 50.5625 29.59375 
Q 53.5625 26.078125 56.59375 19.921875 
L 66.609375 0 
L 56 0 
L 46.6875 18.703125 
Q 43.0625 26.03125 39.671875 28.421875 
Q 36.28125 30.8125 30.421875 30.8125 
L 19.671875 30.8125 
L 19.671875 0 
L 9.8125 0 
L 9.8125 72.90625 
L 32.078125 72.90625 
Q 44.578125 72.90625 50.734375 67.671875 
Q 56.890625 62.453125 56.890625 51.90625 
Q 56.890625 45.015625 53.6875 40.46875 
Q 50.484375 35.9375 44.390625 34.1875 
z
M 19.671875 64.796875 
L 19.671875 38.921875 
L 32.078125 38.921875 
Q 39.203125 38.921875 42.84375 42.21875 
Q 46.484375 45.515625 46.484375 51.90625 
Q 46.484375 58.296875 42.84375 61.546875 
Q 39.203125 64.796875 32.078125 64.796875 
z
" id="DejaVuSans-82"/>
      <path d="M 9.421875 75.984375 
L 18.40625 75.984375 
L 18.40625 0 
L 9.421875 0 
z
" id="DejaVuSans-108"/>
      <path d="M 34.28125 27.484375 
Q 23.390625 27.484375 19.1875 25 
Q 14.984375 22.515625 14.984375 16.5 
Q 14.984375 11.71875 18.140625 8.90625 
Q 21.296875 6.109375 26.703125 6.109375 
Q 34.1875 6.109375 38.703125 11.40625 
Q 43.21875 16.703125 43.21875 25.484375 
L 43.21875 27.484375 
z
M 52.203125 31.203125 
L 52.203125 0 
L 43.21875 0 
L 43.21875 8.296875 
Q 40.140625 3.328125 35.546875 0.953125 
Q 30.953125 -1.421875 24.3125 -1.421875 
Q 15.921875 -1.421875 10.953125 3.296875 
Q 6 8.015625 6 15.921875 
Q 6 25.140625 12.171875 29.828125 
Q 18.359375 34.515625 30.609375 34.515625 
L 43.21875 34.515625 
L 43.21875 35.40625 
Q 43.21875 41.609375 39.140625 45 
Q 35.0625 48.390625 27.6875 48.390625 
Q 23 48.390625 18.546875 47.265625 
Q 14.109375 46.140625 10.015625 43.890625 
L 10.015625 52.203125 
Q 14.9375 54.109375 19.578125 55.046875 
Q 24.21875 56 28.609375 56 
Q 40.484375 56 46.34375 49.84375 
Q 52.203125 43.703125 52.203125 31.203125 
z
" id="DejaVuSans-97"/>
      <path d="M 9.421875 54.6875 
L 18.40625 54.6875 
L 18.40625 0 
L 9.421875 0 
z
M 9.421875 75.984375 
L 18.40625 75.984375 
L 18.40625 64.59375 
L 9.421875 64.59375 
z
" id="DejaVuSans-105"/>
      <path d="M 2.984375 54.6875 
L 12.5 54.6875 
L 29.59375 8.796875 
L 46.6875 54.6875 
L 56.203125 54.6875 
L 35.6875 0 
L 23.484375 0 
z
" id="DejaVuSans-118"/>
      <path d="M 44.28125 53.078125 
L 44.28125 44.578125 
Q 40.484375 46.53125 36.375 47.5 
Q 32.28125 48.484375 27.875 48.484375 
Q 21.1875 48.484375 17.84375 46.4375 
Q 14.5 44.390625 14.5 40.28125 
Q 14.5 37.15625 16.890625 35.375 
Q 19.28125 33.59375 26.515625 31.984375 
L 29.59375 31.296875 
Q 39.15625 29.25 43.1875 25.515625 
Q 47.21875 21.78125 47.21875 15.09375 
Q 47.21875 7.46875 41.1875 3.015625 
Q 35.15625 -1.421875 24.609375 -1.421875 
Q 20.21875 -1.421875 15.453125 -0.5625 
Q 10.6875 0.296875 5.421875 2 
L 5.421875 11.28125 
Q 10.40625 8.6875 15.234375 7.390625 
Q 20.0625 6.109375 24.8125 6.109375 
Q 31.15625 6.109375 34.5625 8.28125 
Q 37.984375 10.453125 37.984375 14.40625 
Q 37.984375 18.0625 35.515625 20.015625 
Q 33.0625 21.96875 24.703125 23.78125 
L 21.578125 24.515625 
Q 13.234375 26.265625 9.515625 29.90625 
Q 5.8125 33.546875 5.8125 39.890625 
Q 5.8125 47.609375 11.28125 51.796875 
Q 16.75 56 26.8125 56 
Q 31.78125 56 36.171875 55.265625 
Q 40.578125 54.546875 44.28125 53.078125 
z
" id="DejaVuSans-115"/>
     </defs>
     <g transform="translate(22.254687 220.001438)rotate(-90)scale(0.1 -0.1)">
      <use xlink:href="#DejaVuSans-82"/>
      <use x="64.982422" xlink:href="#DejaVuSans-101"/>
      <use x="126.505859" xlink:href="#DejaVuSans-108"/>
      <use x="154.289062" xlink:href="#DejaVuSans-97"/>
      <use x="215.568359" xlink:href="#DejaVuSans-116"/>
      <use x="254.777344" xlink:href="#DejaVuSans-105"/>
      <use x="282.560547" xlink:href="#DejaVuSans-118"/>
      <use x="341.740234" xlink:href="#DejaVuSans-101"/>
      <use x="403.263672" xlink:href="#DejaVuSans-32"/>
      <use x="435.050781" xlink:href="#DejaVuSans-82"/>
      <use x="500.033203" xlink:href="#DejaVuSans-101"/>
      <use x="561.556641" xlink:href="#DejaVuSans-115"/>
      <use x="613.65625" xlink:href="#DejaVuSans-105"/>
      <use x="641.439453" xlink:href="#DejaVuSans-100"/>
      <use x="704.916016" xlink:href="#DejaVuSans-117"/>
      <use x="768.294922" xlink:href="#DejaVuSans-97"/>
      <use x="829.574219" xlink:href="#DejaVuSans-108"/>
      <use x="857.357422" xlink:href="#DejaVuSans-115"/>
     </g>
    </g>
   </g>
   <g id="line2d_16">
    <path clip-path="url(#pda8658ead0)" d="M 73.832727 53.622382 
L 74.043679 89.871484 
L 74.465582 109.164514 
L 74.676534 115.84562 
L 74.887485 126.881725 
L 75.098437 130.133824 
L 75.309389 130.447705 
L 75.731292 143.347519 
L 76.364147 161.528866 
L 76.997002 174.138932 
L 77.207953 186.41671 
L 77.629856 188.639388 
L 78.05176 196.72849 
L 78.473663 201.954082 
L 78.684615 204.700165 
L 78.895566 204.859354 
L 79.106518 206.56918 
L 79.739373 213.42929 
L 80.372228 215.627116 
L 80.583179 219.873441 
L 80.794131 220.821559 
L 81.005082 223.029758 
L 81.216034 223.130817 
L 82.059841 229.618108 
L 82.270792 229.781224 
L 82.481744 232.59392 
L 82.692695 233.212209 
L 82.903647 234.395573 
L 83.114599 234.39965 
L 83.32555 234.973119 
L 83.536502 236.440835 
L 83.747453 236.667237 
L 84.380308 239.301497 
L 84.59126 239.406244 
L 85.013163 241.140653 
L 85.224115 241.166256 
L 85.435066 241.868096 
L 85.85697 244.03951 
L 86.067921 244.11053 
L 86.700776 246.166614 
L 87.122679 246.952816 
L 87.755534 250.171848 
L 88.177438 251.35767 
L 88.599341 253.795898 
L 88.810292 253.86443 
L 89.021244 254.865791 
L 89.654099 255.137311 
L 89.865051 255.548984 
L 90.076002 256.884881 
L 90.497905 256.919747 
L 90.708857 257.536267 
L 90.919809 257.582734 
L 91.13076 258.244912 
L 91.341712 258.46229 
L 91.763615 258.484475 
L 92.607422 260.337871 
L 93.029325 260.365122 
L 93.240276 260.615926 
L 94.505986 260.942848 
L 94.716938 261.224082 
L 94.927889 261.213589 
L 95.138841 261.518177 
L 95.349793 261.518177 
L 95.560744 261.708694 
L 95.771696 262.160898 
L 96.404551 262.216089 
L 96.615502 262.209404 
L 97.459309 262.578506 
L 98.092164 262.60129 
L 98.303115 263.057752 
L 99.146922 263.259541 
L 99.357873 263.470234 
L 99.990728 263.56197 
L 100.20168 263.665128 
L 100.412632 264.124527 
L 100.834535 264.154176 
L 101.045486 264.491141 
L 101.256438 264.514944 
L 101.46739 264.832662 
L 102.944051 265.068658 
L 104.209761 265.218793 
L 104.420712 265.38062 
L 104.842616 265.413417 
L 105.053567 265.741538 
L 105.686422 265.783898 
L 106.108325 265.93964 
L 106.952132 265.962753 
L 107.163083 266.172757 
L 107.374035 266.170868 
L 107.584987 266.574327 
L 107.795938 266.572798 
L 108.00689 266.861826 
L 108.850696 266.925681 
L 109.061648 266.931167 
L 109.2726 267.152413 
L 109.905455 267.196662 
L 110.116406 267.662567 
L 110.749261 267.779515 
L 110.960213 267.941042 
L 111.171164 268.780306 
L 112.436874 268.872072 
L 114.968293 269.310786 
L 115.179245 269.659892 
L 115.8121 269.722399 
L 117.07781 270.062481 
L 118.132568 270.065629 
L 118.343519 270.271945 
L 118.554471 270.285825 
L 118.976374 270.428616 
L 119.398278 270.438808 
L 119.609229 270.660234 
L 120.453036 270.732723 
L 121.718745 270.885167 
L 121.929697 271.030685 
L 122.140649 271.387826 
L 123.195407 271.630776 
L 124.039213 271.714628 
L 124.461116 271.910631 
L 124.88302 272.000508 
L 125.937778 272.408373 
L 126.781584 272.490426 
L 127.203488 272.584021 
L 127.625391 272.58504 
L 127.836342 272.72771 
L 129.102052 272.8005 
L 129.313004 272.825262 
L 129.523955 273.045698 
L 131.000617 273.131079 
L 131.633472 273.225903 
L 132.477278 273.308915 
L 132.899181 273.406586 
L 133.321085 273.460519 
L 133.742988 273.545599 
L 134.797746 273.634937 
L 136.063456 273.703649 
L 136.274407 273.749427 
L 136.485359 274.134268 
L 140.282488 274.337227 
L 141.759149 274.420688 
L 144.50152 274.564048 
L 144.923424 274.675451 
L 145.76723 274.786763 
L 146.400085 274.932461 
L 147.454843 275.115333 
L 149.564359 275.261931 
L 152.095779 275.612416 
L 152.939585 276.035511 
L 154.627198 276.20843 
L 154.83815 276.376463 
L 156.314811 276.498748 
L 156.947666 276.89621 
L 159.268134 277.141349 
L 159.690037 277.28294 
L 159.900989 277.28294 
L 160.322892 277.439731 
L 163.90907 277.840821 
L 164.330973 277.916937 
L 164.541925 277.936214 
L 164.752876 278.080443 
L 164.963828 278.072019 
L 165.174779 278.244429 
L 167.073344 278.347707 
L 167.284296 278.481084 
L 169.393812 278.547098 
L 170.026667 278.67286 
L 171.292376 278.704008 
L 171.71428 278.800301 
L 172.769038 278.88775 
L 173.612844 278.921536 
L 173.823796 278.924954 
L 174.245699 279.058421 
L 175.300457 279.137236 
L 175.72236 279.211494 
L 176.566167 279.272291 
L 177.831877 279.407527 
L 178.042828 279.802201 
L 178.886635 279.892228 
L 179.097586 279.917111 
L 179.308538 280.226135 
L 180.363296 280.257314 
L 181.418054 280.306749 
L 181.839957 280.398815 
L 183.52757 280.480867 
L 184.160425 280.73563 
L 185.004232 280.778859 
L 185.215183 281.013476 
L 186.480893 281.162412 
L 186.691845 281.404223 
L 187.113748 281.484986 
L 187.746603 281.534872 
L 188.801361 281.595459 
L 189.856119 281.696159 
L 190.699926 281.736451 
L 191.33278 281.86641 
L 192.176587 281.891383 
L 192.387539 282.110859 
L 194.286103 282.188685 
L 199.559894 282.613788 
L 203.146071 282.692633 
L 204.411781 282.729028 
L 204.622733 283.07004 
L 206.310346 283.219755 
L 206.732249 283.292514 
L 210.107475 283.416778 
L 210.529378 283.596502 
L 211.795088 283.747687 
L 214.115556 283.846258 
L 216.01412 283.977656 
L 216.436023 284.1149 
L 221.709814 284.414931 
L 222.342669 284.479536 
L 223.608379 284.506037 
L 224.030282 284.632219 
L 226.35075 284.750127 
L 226.772653 284.81758 
L 228.882169 284.865097 
L 235.421669 285.449269 
L 236.265476 285.543373 
L 236.898331 285.610196 
L 239.007847 285.735389 
L 239.42975 285.764469 
L 239.851653 285.879768 
L 242.172121 285.960232 
L 242.804976 286.072054 
L 244.492589 286.102603 
L 245.125444 286.267877 
L 246.180202 286.311916 
L 246.813057 286.42125 
L 250.399234 286.562062 
L 251.243041 286.647922 
L 252.930654 286.731953 
L 253.352557 286.788943 
L 254.407315 286.860653 
L 257.149686 287.188804 
L 259.892057 287.292082 
L 260.735864 287.444526 
L 263.478235 287.484608 
L 263.900138 287.56729 
L 265.165848 287.659176 
L 265.798703 287.731665 
L 269.595832 287.871458 
L 270.861542 287.938221 
L 275.291526 288.115937 
L 277.611994 288.252671 
L 279.510558 288.317906 
L 285.839107 288.642579 
L 286.26101 288.748046 
L 290.901946 289.032427 
L 292.589559 289.051254 
L 293.011462 289.194314 
L 294.488123 289.213231 
L 294.910027 289.347627 
L 297.652398 289.415769 
L 298.285253 289.469822 
L 298.496204 289.466314 
L 298.707156 289.604578 
L 300.183817 289.624214 
L 301.449527 289.999972 
L 305.246656 290.105558 
L 306.723317 290.154094 
L 308.621882 290.232789 
L 309.043785 290.311934 
L 312.419011 290.48953 
L 313.473769 290.600123 
L 320.224221 290.914453 
L 321.068028 291.001572 
L 322.122786 291.072113 
L 324.232302 291.238677 
L 324.865157 291.399215 
L 325.919915 291.508308 
L 329.506093 291.597077 
L 330.560851 291.652868 
L 331.193705 291.665938 
L 334.35798 291.746642 
L 335.412738 291.805461 
L 340.264625 291.930714 
L 340.686528 292.117153 
L 341.108432 292.25032 
L 364.735013 293.198049 
L 367.899288 293.35361 
L 368.743094 293.358317 
L 369.164997 293.495381 
L 371.696417 293.646026 
L 375.071643 293.944707 
L 375.493546 294.023732 
L 376.759256 294.067742 
L 378.868772 294.130098 
L 390.260159 294.594324 
L 390.682063 294.704617 
L 398.487273 294.849536 
L 398.487273 294.849536 
" style="fill:none;stroke:#1f77b4;stroke-dasharray:1.5,2.475;stroke-dashoffset:0;stroke-width:1.5;"/>
   </g>
   <g id="line2d_17">
    <path clip-path="url(#pda8658ead0)" d="M 73.832727 53.568 
L 74.043679 98.155241 
L 74.254631 109.672 
L 74.676534 119.009941 
L 74.887485 130.257008 
L 75.098437 130.635584 
L 75.309389 132.954285 
L 75.942243 161.155536 
L 76.153195 162.878253 
L 76.364147 163.222023 
L 76.575098 168.743149 
L 76.78605 169.991447 
L 76.997002 174.362336 
L 77.418905 189.058076 
L 77.840808 197.075888 
L 78.05176 197.271291 
L 78.262711 200.315786 
L 78.473663 206.237911 
L 78.684615 208.968795 
L 78.895566 209.870445 
L 79.106518 215.62187 
L 79.317469 217.614788 
L 79.950324 220.03272 
L 80.161276 220.237717 
L 80.794131 223.873908 
L 81.005082 224.061068 
L 81.216034 225.783215 
L 81.426986 225.814544 
L 81.637937 226.07785 
L 82.059841 229.450195 
L 82.270792 231.478309 
L 82.481744 232.075402 
L 83.114599 236.552776 
L 83.32555 236.784035 
L 83.536502 237.633882 
L 83.958405 241.438016 
L 84.169357 242.707899 
L 84.380308 244.89766 
L 84.59126 244.923682 
L 85.435066 246.275618 
L 85.646018 248.096517 
L 86.278873 248.255106 
L 86.489825 248.399336 
L 86.700776 249.677343 
L 87.755534 249.803945 
L 87.966486 250.288557 
L 88.388389 250.590386 
L 88.810292 251.118287 
L 89.232196 251.736036 
L 89.654099 252.11731 
L 89.865051 252.146869 
L 90.076002 252.482365 
L 90.286954 252.570234 
L 90.497905 253.100923 
L 90.919809 253.207948 
L 91.552663 253.331312 
L 91.763615 254.748093 
L 92.185518 255.149663 
L 93.451228 255.401247 
L 94.084083 255.499009 
L 94.295035 255.885499 
L 94.716938 255.89809 
L 95.138841 256.681833 
L 95.560744 256.885541 
L 95.982648 257.035256 
L 96.615502 257.195824 
L 97.037406 257.275898 
L 97.459309 257.461319 
L 98.092164 257.460959 
L 98.514067 258.468706 
L 99.146922 258.57651 
L 99.357873 259.12102 
L 99.568825 259.125787 
L 99.779777 259.597567 
L 101.045486 259.655847 
L 101.889293 260.215886 
L 102.311196 260.210909 
L 102.733099 260.674086 
L 102.944051 260.673696 
L 103.155003 260.821553 
L 103.365954 260.831266 
L 103.576906 261.365733 
L 103.787858 261.388337 
L 103.998809 261.761067 
L 104.420712 261.764874 
L 104.842616 261.998531 
L 105.264519 262.103848 
L 106.108325 262.247058 
L 106.74118 262.298292 
L 107.163083 262.302399 
L 107.374035 262.647938 
L 108.639745 262.722016 
L 109.061648 263.351487 
L 109.905455 263.473921 
L 110.327358 263.63362 
L 110.960213 263.684764 
L 111.382116 263.713934 
L 111.593068 263.869795 
L 112.858777 263.968276 
L 113.491632 264.101743 
L 114.335439 264.118711 
L 114.757342 264.495668 
L 117.07781 264.59334 
L 118.976374 264.982318 
L 119.187326 265.212317 
L 119.609229 265.260284 
L 119.820181 265.460904 
L 120.242084 265.467439 
L 120.663987 265.842417 
L 120.874939 265.92516 
L 121.08589 266.333864 
L 122.562552 266.648375 
L 124.250165 267.173578 
L 125.304923 267.253562 
L 125.726826 267.363466 
L 126.148729 267.372879 
L 126.359681 267.623504 
L 127.414439 267.651235 
L 128.258246 267.646618 
L 130.367762 267.922815 
L 130.578713 268.137525 
L 131.42252 268.262058 
L 131.633472 268.447479 
L 135.641552 268.857682 
L 136.274407 268.980896 
L 137.118214 269.065827 
L 137.540117 269.109686 
L 137.751069 269.121588 
L 137.96202 269.529813 
L 141.759149 270.032292 
L 141.970101 270.329984 
L 143.446762 270.650131 
L 143.657714 270.841637 
L 144.290569 270.826977 
L 144.712472 270.982869 
L 146.400085 271.272436 
L 147.876746 271.35323 
L 148.720553 271.544916 
L 149.564359 271.635483 
L 151.462924 271.914318 
L 152.095779 272.000178 
L 152.939585 272.376925 
L 154.205295 272.483321 
L 155.260053 272.653302 
L 157.791473 272.906805 
L 158.002424 273.039343 
L 158.213376 273.024893 
L 158.424327 273.397083 
L 159.057182 273.469333 
L 160.11194 273.466125 
L 160.955747 273.563977 
L 162.854312 273.63038 
L 163.487166 273.683893 
L 164.752876 273.812083 
L 164.963828 273.992467 
L 166.229537 274.087321 
L 167.284296 274.182235 
L 168.550005 274.291509 
L 169.18286 274.428633 
L 169.393812 274.438436 
L 170.026667 274.827385 
L 170.659522 274.851458 
L 171.081425 274.950898 
L 174.667602 275.347971 
L 175.72236 275.401154 
L 175.933312 275.590292 
L 176.777119 275.66389 
L 180.152344 275.932863 
L 183.105667 276.132673 
L 183.52757 276.222431 
L 185.215183 276.504683 
L 185.426135 276.706443 
L 192.176587 277.231556 
L 192.809442 277.399619 
L 194.075152 277.434244 
L 194.286103 277.62683 
L 196.606571 277.760597 
L 196.817523 278.021415 
L 200.614652 278.21403 
L 201.247507 278.287179 
L 203.989878 278.389588 
L 204.411781 278.535825 
L 204.622733 278.533967 
L 204.833684 278.679635 
L 205.677491 278.80132 
L 206.099394 278.902619 
L 207.154152 279.009345 
L 207.997959 279.104798 
L 208.419862 279.242852 
L 209.052717 279.34571 
L 209.685572 279.396884 
L 212.216991 279.562339 
L 213.271749 279.613033 
L 214.326507 279.650507 
L 214.537459 279.782925 
L 216.01412 279.787512 
L 216.436023 279.911655 
L 219.600298 280.059721 
L 220.655056 280.157933 
L 221.498862 280.426006 
L 228.249314 280.714884 
L 228.460266 280.925037 
L 229.725976 280.953787 
L 231.413589 281.111267 
L 232.046443 281.227826 
L 235.843573 281.627297 
L 236.687379 281.702604 
L 238.796895 281.858166 
L 239.007847 281.988845 
L 240.69546 282.022001 
L 241.117363 282.105553 
L 241.539266 282.107232 
L 241.96117 282.237851 
L 242.594024 282.388376 
L 243.226879 282.444497 
L 244.281637 282.512279 
L 245.125444 282.544836 
L 251.243041 282.566062 
L 251.875896 282.566062 
L 252.297799 282.752891 
L 253.77446 282.836353 
L 255.251122 282.882731 
L 258.626348 283.105685 
L 259.048251 283.200749 
L 271.072493 283.755511 
L 272.760106 284.040672 
L 274.447719 284.065615 
L 274.869623 284.141672 
L 275.924381 284.205287 
L 279.510558 284.424164 
L 279.932461 284.485202 
L 280.776268 284.513892 
L 281.198171 284.601521 
L 282.885784 284.711004 
L 283.729591 284.763467 
L 289.425284 285.070303 
L 290.058139 285.155983 
L 291.112897 285.266816 
L 293.011462 285.39018 
L 293.222414 285.542294 
L 294.699075 285.693748 
L 295.120978 285.771334 
L 297.230494 285.908248 
L 299.550962 286.031882 
L 300.60572 286.1068 
L 301.87143 286.215054 
L 303.13714 286.311047 
L 306.090463 286.395018 
L 306.723317 286.539218 
L 307.145221 286.65044 
L 309.465688 286.676822 
L 309.887592 286.77998 
L 311.364253 286.79419 
L 320.01327 287.357586 
L 324.443254 287.542287 
L 339.63177 288.401697 
L 345.538416 288.566942 
L 346.171271 288.61323 
L 347.858884 288.607923 
L 348.280787 288.714499 
L 349.757448 288.746846 
L 349.9684 288.989047 
L 352.710771 289.068852 
L 353.343626 289.126681 
L 356.5079 289.231338 
L 356.929803 289.350865 
L 357.77361 289.389448 
L 357.984561 289.536195 
L 359.672174 289.590457 
L 360.094078 289.652244 
L 364.945965 289.827412 
L 365.57882 289.882334 
L 367.688336 289.972241 
L 379.92353 290.587591 
L 382.876853 290.683494 
L 385.619224 290.831621 
L 394.901095 291.215593 
L 397.643466 291.273033 
L 398.276321 291.332151 
L 398.276321 291.332151 
" style="fill:none;stroke:#ff7f0e;stroke-dasharray:1.5,2.475;stroke-dashoffset:0;stroke-width:1.5;"/>
   </g>
   <g id="line2d_18">
    <path clip-path="url(#pda8658ead0)" d="M 73.832727 79.202263 
L 74.043679 115.0572 
L 74.254631 119.036053 
L 74.676534 146.75587 
L 75.309389 171.989073 
L 75.52034 175.838655 
L 75.731292 176.483775 
L 75.942243 182.799465 
L 76.153195 183.189073 
L 76.364147 190.214998 
L 76.78605 192.53265 
L 77.207953 197.642103 
L 77.418905 198.838597 
L 77.629856 201.595203 
L 77.840808 201.811622 
L 78.262711 207.421815 
L 79.106518 212.57099 
L 79.317469 212.836125 
L 79.528421 214.855275 
L 79.739373 215.097386 
L 79.950324 218.211402 
L 80.161276 218.336474 
L 80.372228 218.805347 
L 80.794131 220.552048 
L 81.005082 221.17873 
L 81.216034 222.891434 
L 81.426986 223.572409 
L 81.637937 223.823364 
L 81.848889 225.60517 
L 82.059841 226.355186 
L 82.270792 228.31135 
L 82.481744 228.699609 
L 82.692695 229.77214 
L 82.903647 230.037935 
L 83.114599 231.151687 
L 83.32555 231.484875 
L 83.536502 232.191901 
L 83.747453 232.285586 
L 83.958405 235.019917 
L 84.380308 235.807137 
L 85.013163 236.239345 
L 85.435066 238.419183 
L 86.067921 243.481809 
L 86.278873 243.864672 
L 86.489825 243.85307 
L 86.911728 245.374867 
L 87.755534 245.584451 
L 87.966486 246.30191 
L 88.388389 246.322626 
L 88.810292 247.574641 
L 89.021244 248.267488 
L 89.443147 248.299625 
L 89.865051 248.9371 
L 90.497905 248.954488 
L 90.708857 249.03795 
L 90.919809 249.327338 
L 91.13076 249.327668 
L 91.974567 250.0832 
L 92.39647 250.146336 
L 93.029325 251.049186 
L 93.240276 251.639324 
L 93.66218 252.115811 
L 94.084083 252.134998 
L 94.295035 252.585613 
L 94.716938 252.754155 
L 95.138841 253.011586 
L 95.560744 253.021359 
L 95.771696 253.756655 
L 96.826454 253.960033 
L 97.037406 254.673565 
L 97.248357 254.818394 
L 97.459309 254.818514 
L 97.67026 255.825091 
L 97.881212 255.861516 
L 98.092164 256.596782 
L 98.303115 256.67257 
L 98.514067 256.93018 
L 98.725019 257.665266 
L 98.93597 257.665117 
L 99.146922 259.062981 
L 99.568825 259.083966 
L 99.779777 259.199266 
L 99.990728 261.010961 
L 100.20168 261.010571 
L 100.412632 261.651943 
L 101.045486 262.022215 
L 101.46739 262.058969 
L 101.889293 262.309474 
L 102.100245 262.320506 
L 102.311196 262.609924 
L 102.522148 262.609325 
L 102.733099 262.914662 
L 103.155003 263.084103 
L 103.365954 263.268115 
L 103.787858 263.288501 
L 104.209761 263.61884 
L 104.420712 263.63278 
L 104.631664 263.961321 
L 105.47547 264.156574 
L 105.897374 266.128388 
L 106.530229 266.203006 
L 106.74118 266.400958 
L 106.952132 266.437982 
L 107.163083 267.11347 
L 108.00689 267.119166 
L 108.428793 267.338343 
L 109.483551 267.424743 
L 110.116406 267.540792 
L 110.749261 267.645029 
L 111.804019 267.765155 
L 112.014971 268.000401 
L 113.491632 268.122026 
L 114.124487 268.224614 
L 116.234003 268.349087 
L 116.444955 268.454854 
L 116.655906 268.778867 
L 117.07781 268.955984 
L 117.288761 268.979068 
L 117.499713 269.430193 
L 117.921616 269.442604 
L 118.132568 269.621429 
L 118.554471 270.318263 
L 118.976374 270.404452 
L 119.820181 270.514296 
L 120.031132 270.516244 
L 120.242084 271.1533 
L 121.507794 271.575885 
L 121.929697 271.632335 
L 122.140649 271.813918 
L 126.359681 272.115958 
L 126.781584 272.372908 
L 127.836342 272.458289 
L 129.313004 272.777656 
L 131.000617 273.087309 
L 131.633472 273.177996 
L 132.266326 273.239063 
L 132.477278 273.797274 
L 133.321085 273.851836 
L 134.586794 274.235088 
L 135.008698 274.264468 
L 135.219649 274.416881 
L 136.063456 274.555954 
L 139.016778 274.994308 
L 139.438682 275.080858 
L 140.49344 275.226616 
L 140.915343 275.353967 
L 141.759149 275.495798 
L 142.813907 275.603273 
L 143.235811 275.823079 
L 144.712472 276.063302 
L 144.923424 276.095649 
L 145.134375 276.454439 
L 145.76723 276.605833 
L 145.978182 276.645255 
L 146.189133 276.846145 
L 148.931505 276.942768 
L 151.041021 277.143657 
L 152.517682 277.246456 
L 153.150537 277.444707 
L 153.57244 277.506674 
L 153.994343 277.531706 
L 154.83815 277.881142 
L 156.525763 278.047646 
L 159.900989 278.495054 
L 161.588602 278.606276 
L 162.221457 278.727542 
L 162.64336 278.831239 
L 163.698118 278.996604 
L 165.596683 279.310664 
L 166.651441 279.406478 
L 167.284296 279.494346 
L 171.081425 279.726294 
L 171.292376 279.893907 
L 171.503328 279.896935 
L 171.71428 280.216542 
L 181.629006 280.936669 
L 182.683764 280.959363 
L 182.894716 281.085425 
L 184.582329 281.128865 
L 190.278022 281.8516 
L 190.699926 281.915426 
L 191.543732 282.016845 
L 192.59849 282.12483 
L 193.442297 282.264202 
L 195.551813 282.707173 
L 197.239426 282.7254 
L 213.482701 282.7254 
L 213.904604 282.895022 
L 216.646975 283.02714 
L 217.27983 283.214449 
L 218.54554 283.265863 
L 218.756491 283.265653 
L 218.967443 283.464444 
L 219.600298 283.681763 
L 220.444104 283.834326 
L 220.655056 283.839513 
L 220.866007 283.994894 
L 224.452185 284.077097 
L 226.561701 284.360099 
L 227.405508 284.364416 
L 228.460266 284.498872 
L 230.780734 284.599722 
L 231.62454 284.668524 
L 231.835492 284.820937 
L 234.577863 284.958631 
L 239.218799 285.31919 
L 241.96117 285.411465 
L 242.804976 285.493878 
L 244.070686 285.61874 
L 245.125444 285.759972 
L 247.024009 285.915353 
L 250.610186 286.181208 
L 250.821138 286.346962 
L 253.77446 286.433631 
L 258.415396 286.798207 
L 258.626348 286.954997 
L 261.368719 286.999247 
L 264.322041 287.069128 
L 264.743945 287.13799 
L 265.165848 287.226638 
L 267.275364 287.604974 
L 267.486316 287.591303 
L 267.697267 287.838631 
L 268.119171 287.884738 
L 268.330122 288.030587 
L 269.173929 288.087667 
L 271.705348 288.18384 
L 275.713429 288.454431 
L 276.346284 288.509472 
L 277.19009 288.516847 
L 277.611994 288.752692 
L 278.666752 288.831987 
L 279.088655 288.94252 
L 280.354365 289.011891 
L 280.354365 289.011891 
" style="fill:none;stroke:#2ca02c;stroke-dasharray:1.5,2.475;stroke-dashoffset:0;stroke-width:1.5;"/>
   </g>
   <g id="line2d_19">
    <path clip-path="url(#pda8658ead0)" d="M 73.832727 71.475907 
L 74.043679 91.486786 
L 74.254631 95.476251 
L 74.465582 105.723157 
L 74.676534 131.211032 
L 75.731292 155.996588 
L 75.942243 156.849283 
L 76.997002 180.631529 
L 77.418905 183.644395 
L 77.629856 187.41918 
L 77.840808 187.990341 
L 78.262711 189.48096 
L 78.684615 196.506106 
L 78.895566 197.045129 
L 79.528421 205.589344 
L 79.739373 207.312931 
L 79.950324 210.786096 
L 81.216034 220.642794 
L 81.426986 224.501101 
L 81.848889 226.83659 
L 82.059841 230.899084 
L 82.903647 234.358668 
L 83.114599 234.416258 
L 83.536502 237.153797 
L 83.747453 237.788574 
L 83.958405 238.863983 
L 84.380308 240.091206 
L 84.59126 241.762599 
L 84.802212 242.427205 
L 85.013163 244.795132 
L 85.224115 245.385929 
L 85.646018 247.563639 
L 86.067921 248.573184 
L 86.278873 249.188115 
L 86.489825 249.344846 
L 86.911728 250.667162 
L 87.544583 253.401313 
L 87.755534 253.586704 
L 87.966486 253.595668 
L 88.177438 254.591812 
L 88.388389 254.759785 
L 88.599341 255.367011 
L 88.810292 255.374956 
L 89.865051 256.225911 
L 90.076002 256.54342 
L 90.708857 256.776627 
L 90.919809 258.115552 
L 91.341712 258.256004 
L 91.974567 258.299833 
L 92.185518 260.159735 
L 92.39647 260.3245 
L 92.607422 260.666321 
L 93.240276 260.745226 
L 94.295035 260.812139 
L 94.505986 261.158907 
L 95.138841 261.344238 
L 95.349793 261.681532 
L 95.771696 261.757709 
L 95.982648 261.752373 
L 96.404551 261.908174 
L 96.615502 262.283902 
L 97.67026 262.57383 
L 98.303115 262.642122 
L 98.514067 263.338536 
L 98.93597 263.40335 
L 99.146922 264.030602 
L 99.990728 264.301733 
L 100.20168 264.323738 
L 100.623583 264.59271 
L 101.045486 265.401725 
L 101.256438 265.453379 
L 101.46739 265.632534 
L 101.678341 266.002416 
L 102.311196 266.112589 
L 102.733099 266.218145 
L 102.944051 266.632876 
L 103.365954 266.725181 
L 104.631664 268.0591 
L 104.842616 268.582474 
L 105.053567 268.582474 
L 105.47547 268.794367 
L 105.686422 268.836697 
L 106.108325 269.259852 
L 106.74118 269.273882 
L 106.952132 269.510237 
L 109.061648 269.911267 
L 109.2726 269.99188 
L 109.694503 270.527397 
L 111.382116 270.803954 
L 111.804019 270.980081 
L 112.014971 270.979061 
L 112.436874 271.321063 
L 112.647826 271.458966 
L 114.124487 271.546385 
L 115.601148 271.764213 
L 116.444955 271.900288 
L 116.866858 271.950803 
L 117.288761 272.142369 
L 118.343519 272.320715 
L 118.765423 272.48455 
L 120.453036 272.620985 
L 120.663987 272.868102 
L 120.874939 272.869272 
L 121.08589 273.071271 
L 121.507794 273.162227 
L 121.718745 273.347678 
L 122.3516 273.432788 
L 122.773503 273.627112 
L 124.250165 273.737975 
L 125.093971 273.798023 
L 125.937778 273.796075 
L 126.570633 274.06007 
L 127.625391 274.344002 
L 128.8911 274.794707 
L 130.15681 274.968826 
L 130.789665 275.04821 
L 132.266326 275.239447 
L 132.477278 275.466628 
L 134.375843 275.754577 
L 134.797746 276.121611 
L 135.430601 276.140288 
L 135.852504 276.496229 
L 136.485359 276.493201 
L 136.907262 276.692263 
L 137.329165 276.755458 
L 137.751069 277.107173 
L 138.172972 277.274996 
L 140.071536 277.494802 
L 140.49344 277.677345 
L 142.813907 277.876975 
L 143.235811 277.994164 
L 144.079617 278.115309 
L 144.50152 278.576507 
L 146.400085 279.114691 
L 147.243892 279.199412 
L 147.876746 279.264587 
L 149.142456 279.354104 
L 149.775311 279.420508 
L 150.197214 279.502231 
L 151.462924 279.667925 
L 152.30673 279.742573 
L 152.728634 279.856493 
L 153.57244 279.926105 
L 153.783392 280.045092 
L 153.994343 280.410626 
L 154.205295 280.410626 
L 154.416247 280.621379 
L 155.049102 280.628035 
L 155.471005 280.793699 
L 156.736715 280.829554 
L 158.002424 280.914635 
L 158.213376 280.930673 
L 158.424327 281.15069 
L 160.533844 281.175632 
L 161.166699 281.35023 
L 162.221457 281.438099 
L 162.64336 281.547403 
L 164.330973 281.659375 
L 167.284296 281.671816 
L 167.706199 282.168959 
L 170.237618 282.248733 
L 170.659522 282.333514 
L 173.190941 282.43952 
L 177.831877 282.784489 
L 178.886635 282.904945 
L 181.418054 283.002107 
L 182.050909 283.121604 
L 183.738522 283.228419 
L 184.371377 283.279893 
L 185.848038 283.318626 
L 187.535651 283.447596 
L 190.067071 283.573029 
L 190.910877 283.630439 
L 191.33278 283.744209 
L 196.184668 283.962936 
L 196.606571 284.048916 
L 198.083232 284.130459 
L 199.348942 284.31612 
L 201.458458 284.441432 
L 201.66941 284.441492 
L 202.091313 284.571751 
L 203.989878 284.641453 
L 210.318426 285.149718 
L 210.74033 285.41869 
L 211.162233 285.470044 
L 212.849846 285.525236 
L 213.271749 285.620599 
L 214.326507 285.69039 
L 216.225072 285.856384 
L 216.646975 285.957474 
L 216.857927 285.957654 
L 217.068878 286.17776 
L 219.600298 286.319621 
L 220.655056 286.388513 
L 225.928846 286.716334 
L 226.772653 286.814605 
L 226.983604 286.812957 
L 227.405508 286.930325 
L 227.827411 287.032493 
L 228.460266 287.088734 
L 229.093121 287.131184 
L 229.515024 287.20868 
L 230.569782 287.377283 
L 231.413589 287.48092 
L 232.257395 287.566241 
L 232.89025 287.645535 
L 237.742137 287.946555 
L 238.16404 288.070369 
L 238.796895 288.089855 
L 239.218799 288.19739 
L 246.391154 288.575156 
L 248.50067 288.679034 
L 249.555428 288.817417 
L 249.76638 289.086299 
L 253.141606 289.27238 
L 259.470154 289.765325 
L 261.790622 289.873999 
L 262.84538 289.999462 
L 266.220606 290.18845 
L 266.642509 290.293826 
L 268.119171 290.381905 
L 269.173929 290.415991 
L 273.392961 290.610435 
L 274.025816 290.678278 
L 276.557236 290.758502 
L 278.666752 290.817081 
L 279.932461 291.012635 
L 286.893865 291.282806 
L 287.315768 291.304181 
L 287.52672 291.568117 
L 289.003381 291.657994 
L 289.425284 291.722689 
L 290.690994 291.798626 
L 291.534801 291.920281 
L 294.06622 292.047932 
L 296.808591 292.147732 
L 297.019543 292.300266 
L 298.707156 292.412177 
L 299.129059 292.474234 
L 301.660478 292.546304 
L 303.980946 292.659655 
L 306.301414 292.792222 
L 307.989027 292.928597 
L 309.465688 292.927338 
L 313.473769 293.194002 
L 317.903753 293.293532 
L 318.325657 293.402386 
L 318.958511 293.471968 
L 319.802318 293.55468 
L 334.568931 294.209183 
L 336.889399 294.432737 
L 338.577012 294.541861 
L 338.998915 294.646817 
L 341.319383 294.781273 
L 351.023158 295.027941 
L 351.656013 295.085231 
L 353.132674 295.097103 
L 353.765529 295.111433 
L 354.398384 295.160958 
L 356.929803 295.27308 
L 359.672174 295.283153 
L 361.992642 295.352225 
L 363.0474 295.426423 
L 363.680255 295.488 
L 363.680255 295.488 
" style="fill:none;stroke:#d62728;stroke-dasharray:1.5,2.475;stroke-dashoffset:0;stroke-width:1.5;"/>
   </g>
   <g id="line2d_20">
    <path clip-path="url(#pda8658ead0)" d="M 73.832727 58.336531 
L 74.043679 73.151767 
L 74.254631 100.382476 
L 74.465582 103.382601 
L 74.676534 121.399093 
L 74.887485 125.375217 
L 75.942243 184.203775 
L 76.153195 188.527596 
L 76.364147 189.434523 
L 76.78605 197.70305 
L 76.997002 198.574452 
L 77.207953 202.046807 
L 77.418905 202.75926 
L 78.05176 214.577129 
L 78.262711 215.274862 
L 78.473663 216.646225 
L 78.684615 220.604391 
L 79.106518 223.009132 
L 79.317469 223.104406 
L 79.528421 224.080554 
L 79.739373 224.369732 
L 80.161276 226.415324 
L 80.372228 226.880959 
L 80.583179 228.174586 
L 80.794131 231.060161 
L 82.481744 239.689307 
L 82.692695 240.176137 
L 82.903647 240.312362 
L 83.114599 240.829261 
L 83.32555 240.927382 
L 83.747453 241.795426 
L 83.958405 241.865038 
L 84.169357 242.260012 
L 84.380308 243.653349 
L 84.59126 243.899177 
L 85.224115 246.214281 
L 85.435066 246.811134 
L 86.067921 247.179577 
L 86.278873 248.804623 
L 86.700776 249.530506 
L 86.911728 249.544986 
L 87.122679 249.903476 
L 87.333631 252.186172 
L 87.755534 253.425177 
L 87.966486 253.471794 
L 88.599341 254.148812 
L 88.810292 254.845435 
L 89.021244 254.865131 
L 89.232196 256.865215 
L 90.076002 257.999683 
L 90.497905 258.005889 
L 90.708857 258.581847 
L 91.13076 258.604001 
L 91.552663 258.926876 
L 91.974567 258.925317 
L 92.185518 260.392283 
L 92.607422 260.48237 
L 93.029325 260.579802 
L 93.451228 260.684668 
L 93.66218 261.262185 
L 93.873131 261.388397 
L 94.084083 261.722244 
L 94.295035 261.744519 
L 94.505986 261.931528 
L 94.927889 262.001259 
L 95.138841 262.27236 
L 95.771696 262.279615 
L 96.404551 262.814202 
L 96.826454 262.908036 
L 97.248357 263.001901 
L 97.459309 263.122986 
L 97.67026 263.780607 
L 98.092164 263.851747 
L 98.303115 264.035429 
L 99.146922 264.040735 
L 99.357873 264.383876 
L 99.568825 264.39194 
L 100.20168 265.046263 
L 101.045486 265.277462 
L 101.46739 265.277762 
L 102.100245 265.828177 
L 102.944051 265.936642 
L 103.155003 266.834275 
L 103.787858 266.894623 
L 104.209761 267.01349 
L 104.842616 267.036424 
L 105.47547 267.606086 
L 106.74118 267.610673 
L 106.952132 268.000761 
L 107.795938 268.209865 
L 108.639745 268.221467 
L 108.850696 268.365876 
L 109.694503 268.424875 
L 109.905455 268.587121 
L 110.327358 268.672532 
L 110.538309 268.911465 
L 111.382116 269.050028 
L 111.593068 269.275351 
L 113.28068 269.614114 
L 114.124487 269.783976 
L 115.179245 269.932492 
L 115.8121 270.133981 
L 116.444955 270.216783 
L 116.655906 270.468338 
L 117.921616 270.727957 
L 118.343519 271.270188 
L 118.554471 271.45402 
L 119.398278 271.485258 
L 119.820181 271.952542 
L 124.672068 272.52739 
L 124.88302 272.74216 
L 125.726826 273.013891 
L 126.148729 273.088419 
L 128.047294 273.188819 
L 128.258246 273.503119 
L 128.680149 273.537805 
L 128.8911 273.78765 
L 129.523955 273.899982 
L 129.734907 274.185862 
L 130.578713 274.273911 
L 130.789665 274.492968 
L 131.211568 274.482355 
L 131.844423 274.836648 
L 132.266326 274.900354 
L 132.68823 275.056934 
L 133.110133 275.235909 
L 133.532036 275.325847 
L 134.586794 275.743605 
L 135.219649 275.745164 
L 135.430601 275.925158 
L 135.852504 275.931933 
L 136.274407 276.071846 
L 136.485359 276.072265 
L 136.907262 276.521622 
L 137.540117 276.620253 
L 137.751069 276.751651 
L 139.438682 276.79566 
L 139.649633 277.007492 
L 144.923424 277.523942 
L 145.345327 277.656719 
L 145.978182 277.759997 
L 146.189133 277.752982 
L 146.611037 277.862436 
L 147.243892 278.040421 
L 147.876746 278.143429 
L 148.931505 278.341321 
L 151.884827 278.430059 
L 153.994343 278.656551 
L 155.049102 278.642881 
L 155.471005 278.759559 
L 156.314811 278.760189 
L 156.525763 278.957451 
L 156.736715 278.95895 
L 157.158618 279.098892 
L 157.580521 279.108725 
L 158.002424 279.232839 
L 159.057182 279.31711 
L 160.744795 279.570373 
L 161.588602 279.652426 
L 161.799553 279.813833 
L 166.018586 279.964478 
L 166.440489 280.040025 
L 173.612844 280.694288 
L 174.245699 280.904981 
L 176.144264 281.163131 
L 176.98807 281.224258 
L 177.409973 281.299926 
L 180.574248 281.430844 
L 181.207103 281.721941 
L 186.269942 281.978622 
L 187.746603 282.031625 
L 188.590409 282.239799 
L 189.434216 282.369369 
L 191.121829 282.744437 
L 191.754684 282.780832 
L 193.020393 282.871249 
L 193.653248 283.015898 
L 198.927039 283.38455 
L 200.4037 283.503057 
L 200.614652 283.538852 
L 201.036555 283.776107 
L 202.724168 283.861547 
L 203.146071 284.00065 
L 204.200829 284.109984 
L 205.888442 284.205167 
L 210.951281 284.420717 
L 211.795088 284.561139 
L 213.060797 284.635757 
L 213.482701 284.689239 
L 214.74841 284.783344 
L 215.381265 284.84648 
L 215.803169 285.001651 
L 216.857927 285.011874 
L 217.068878 285.185843 
L 219.811249 285.312954 
L 220.233153 285.396835 
L 221.498862 285.470284 
L 222.131717 285.54718 
L 224.874088 285.632291 
L 225.506943 285.687123 
L 227.405508 285.828714 
L 230.991685 285.972823 
L 233.945008 286.182707 
L 236.476427 286.360902 
L 236.898331 286.440647 
L 237.742137 286.524948 
L 242.594024 286.83637 
L 243.226879 286.909549 
L 243.859734 286.916894 
L 244.070686 287.129266 
L 246.180202 287.190903 
L 247.024009 287.332704 
L 251.453993 287.407771 
L 252.086847 287.494231 
L 252.930654 287.603115 
L 255.673025 287.835543 
L 256.30588 287.851581 
L 256.727783 287.944247 
L 260.946816 288.063803 
L 261.57967 288.196221 
L 264.532993 288.322822 
L 265.798703 288.413719 
L 266.009654 288.638592 
L 268.119171 288.735574 
L 268.752026 288.810282 
L 270.017735 288.811331 
L 270.228687 289.002178 
L 271.072493 289.066064 
L 274.658671 289.19962 
L 275.080574 289.41454 
L 277.611994 289.467453 
L 278.033897 289.533107 
L 281.831026 289.712142 
L 284.362446 289.883893 
L 284.362446 289.883893 
" style="fill:none;stroke:#9467bd;stroke-dasharray:1.5,2.475;stroke-dashoffset:0;stroke-width:1.5;"/>
   </g>
   <g id="patch_3">
    <path d="M 57.6 307.584 
L 57.6 41.472 
" style="fill:none;stroke:#000000;stroke-linecap:square;stroke-linejoin:miter;stroke-width:0.8;"/>
   </g>
   <g id="patch_4">
    <path d="M 414.72 307.584 
L 414.72 41.472 
" style="fill:none;stroke:#000000;stroke-linecap:square;stroke-linejoin:miter;stroke-width:0.8;"/>
   </g>
   <g id="patch_5">
    <path d="M 57.6 307.584 
L 414.72 307.584 
" style="fill:none;stroke:#000000;stroke-linecap:square;stroke-linejoin:miter;stroke-width:0.8;"/>
   </g>
   <g id="patch_6">
    <path d="M 57.6 41.472 
L 414.72 41.472 
" style="fill:none;stroke:#000000;stroke-linecap:square;stroke-linejoin:miter;stroke-width:0.8;"/>
   </g>
   <g id="legend_1">
    <g id="patch_7">
     <path d="M 337.615313 122.862625 
L 407.72 122.862625 
Q 409.72 122.862625 409.72 120.862625 
L 409.72 48.472 
Q 409.72 46.472 407.72 46.472 
L 337.615313 46.472 
Q 335.615313 46.472 335.615313 48.472 
L 335.615313 120.862625 
Q 335.615313 122.862625 337.615313 122.862625 
z
" style="fill:#ffffff;opacity:0.8;stroke:#cccccc;stroke-linejoin:miter;"/>
    </g>
    <g id="line2d_21">
     <path d="M 339.615313 54.570438 
L 359.615313 54.570438 
" style="fill:none;stroke:#1f77b4;stroke-dasharray:1.5,2.475;stroke-dashoffset:0;stroke-width:1.5;"/>
    </g>
    <g id="line2d_22"/>
    <g id="text_18">
     <!-- Chain 0 -->
     <defs>
      <path d="M 64.40625 67.28125 
L 64.40625 56.890625 
Q 59.421875 61.53125 53.78125 63.8125 
Q 48.140625 66.109375 41.796875 66.109375 
Q 29.296875 66.109375 22.65625 58.46875 
Q 16.015625 50.828125 16.015625 36.375 
Q 16.015625 21.96875 22.65625 14.328125 
Q 29.296875 6.6875 41.796875 6.6875 
Q 48.140625 6.6875 53.78125 8.984375 
Q 59.421875 11.28125 64.40625 15.921875 
L 64.40625 5.609375 
Q 59.234375 2.09375 53.4375 0.328125 
Q 47.65625 -1.421875 41.21875 -1.421875 
Q 24.65625 -1.421875 15.125 8.703125 
Q 5.609375 18.84375 5.609375 36.375 
Q 5.609375 53.953125 15.125 64.078125 
Q 24.65625 74.21875 41.21875 74.21875 
Q 47.75 74.21875 53.53125 72.484375 
Q 59.328125 70.75 64.40625 67.28125 
z
" id="DejaVuSans-67"/>
      <path d="M 54.890625 33.015625 
L 54.890625 0 
L 45.90625 0 
L 45.90625 32.71875 
Q 45.90625 40.484375 42.875 44.328125 
Q 39.84375 48.1875 33.796875 48.1875 
Q 26.515625 48.1875 22.3125 43.546875 
Q 18.109375 38.921875 18.109375 30.90625 
L 18.109375 0 
L 9.078125 0 
L 9.078125 75.984375 
L 18.109375 75.984375 
L 18.109375 46.1875 
Q 21.34375 51.125 25.703125 53.5625 
Q 30.078125 56 35.796875 56 
Q 45.21875 56 50.046875 50.171875 
Q 54.890625 44.34375 54.890625 33.015625 
z
" id="DejaVuSans-104"/>
      <path d="M 54.890625 33.015625 
L 54.890625 0 
L 45.90625 0 
L 45.90625 32.71875 
Q 45.90625 40.484375 42.875 44.328125 
Q 39.84375 48.1875 33.796875 48.1875 
Q 26.515625 48.1875 22.3125 43.546875 
Q 18.109375 38.921875 18.109375 30.90625 
L 18.109375 0 
L 9.078125 0 
L 9.078125 54.6875 
L 18.109375 54.6875 
L 18.109375 46.1875 
Q 21.34375 51.125 25.703125 53.5625 
Q 30.078125 56 35.796875 56 
Q 45.21875 56 50.046875 50.171875 
Q 54.890625 44.34375 54.890625 33.015625 
z
" id="DejaVuSans-110"/>
     </defs>
     <g transform="translate(367.615313 58.070438)scale(0.1 -0.1)">
      <use xlink:href="#DejaVuSans-67"/>
      <use x="69.824219" xlink:href="#DejaVuSans-104"/>
      <use x="133.203125" xlink:href="#DejaVuSans-97"/>
      <use x="194.482422" xlink:href="#DejaVuSans-105"/>
      <use x="222.265625" xlink:href="#DejaVuSans-110"/>
      <use x="285.644531" xlink:href="#DejaVuSans-32"/>
      <use x="317.431641" xlink:href="#DejaVuSans-48"/>
     </g>
    </g>
    <g id="line2d_23">
     <path d="M 339.615313 69.248563 
L 359.615313 69.248563 
" style="fill:none;stroke:#ff7f0e;stroke-dasharray:1.5,2.475;stroke-dashoffset:0;stroke-width:1.5;"/>
    </g>
    <g id="line2d_24"/>
    <g id="text_19">
     <!-- Chain 1 -->
     <g transform="translate(367.615313 72.748563)scale(0.1 -0.1)">
      <use xlink:href="#DejaVuSans-67"/>
      <use x="69.824219" xlink:href="#DejaVuSans-104"/>
      <use x="133.203125" xlink:href="#DejaVuSans-97"/>
      <use x="194.482422" xlink:href="#DejaVuSans-105"/>
      <use x="222.265625" xlink:href="#DejaVuSans-110"/>
      <use x="285.644531" xlink:href="#DejaVuSans-32"/>
      <use x="317.431641" xlink:href="#DejaVuSans-49"/>
     </g>
    </g>
    <g id="line2d_25">
     <path d="M 339.615313 83.926688 
L 359.615313 83.926688 
" style="fill:none;stroke:#2ca02c;stroke-dasharray:1.5,2.475;stroke-dashoffset:0;stroke-width:1.5;"/>
    </g>
    <g id="line2d_26"/>
    <g id="text_20">
     <!-- Chain 2 -->
     <g transform="translate(367.615313 87.426688)scale(0.1 -0.1)">
      <use xlink:href="#DejaVuSans-67"/>
      <use x="69.824219" xlink:href="#DejaVuSans-104"/>
      <use x="133.203125" xlink:href="#DejaVuSans-97"/>
      <use x="194.482422" xlink:href="#DejaVuSans-105"/>
      <use x="222.265625" xlink:href="#DejaVuSans-110"/>
      <use x="285.644531" xlink:href="#DejaVuSans-32"/>
      <use x="317.431641" xlink:href="#DejaVuSans-50"/>
     </g>
    </g>
    <g id="line2d_27">
     <path d="M 339.615313 98.604813 
L 359.615313 98.604813 
" style="fill:none;stroke:#d62728;stroke-dasharray:1.5,2.475;stroke-dashoffset:0;stroke-width:1.5;"/>
    </g>
    <g id="line2d_28"/>
    <g id="text_21">
     <!-- Chain 3 -->
     <g transform="translate(367.615313 102.104813)scale(0.1 -0.1)">
      <use xlink:href="#DejaVuSans-67"/>
      <use x="69.824219" xlink:href="#DejaVuSans-104"/>
      <use x="133.203125" xlink:href="#DejaVuSans-97"/>
      <use x="194.482422" xlink:href="#DejaVuSans-105"/>
      <use x="222.265625" xlink:href="#DejaVuSans-110"/>
      <use x="285.644531" xlink:href="#DejaVuSans-32"/>
      <use x="317.431641" xlink:href="#DejaVuSans-51"/>
     </g>
    </g>
    <g id="line2d_29">
     <path d="M 339.615313 113.282938 
L 359.615313 113.282938 
" style="fill:none;stroke:#9467bd;stroke-dasharray:1.5,2.475;stroke-dashoffset:0;stroke-width:1.5;"/>
    </g>
    <g id="line2d_30"/>
    <g id="text_22">
     <!-- Chain 4 -->
     <g transform="translate(367.615313 116.782938)scale(0.1 -0.1)">
      <use xlink:href="#DejaVuSans-67"/>
      <use x="69.824219" xlink:href="#DejaVuSans-104"/>
      <use x="133.203125" xlink:href="#DejaVuSans-97"/>
      <use x="194.482422" xlink:href="#DejaVuSans-105"/>
      <use x="222.265625" xlink:href="#DejaVuSans-110"/>
      <use x="285.644531" xlink:href="#DejaVuSans-32"/>
      <use x="317.431641" xlink:href="#DejaVuSans-52"/>
     </g>
    </g>
   </g>
  </g>
 </g>
 <defs>
  <clipPath id="pda8658ead0">
   <rect height="266.112" width="357.12" x="57.6" y="41.472"/>
  </clipPath>
 </defs>
</svg>
