<?xml version="1.0" encoding="utf-8"?>
<!-- Generator: Adobe Illustrator 24.3.0, SVG Export Plug-In . SVG Version: 6.00 Build 0)  -->
<svg version="1.1" id="Layer_1" xmlns="http://www.w3.org/2000/svg" xmlns:xlink="http://www.w3.org/1999/xlink" x="0px" y="0px"
	 viewBox="0 0 504 288" style="enable-background:new 0 0 504 288;" xml:space="preserve">
<style type="text/css">
	.st0{fill:none;}
	.st1{clip-path:url(#SVGID_2_);fill:#1F77B4;fill-opacity:0.3;}
	.st2{stroke:#000000;stroke-width:0.8;stroke-linejoin:round;}
	.st3{clip-path:url(#SVGID_4_);fill:none;stroke:#1F77B4;stroke-width:0.5;stroke-linecap:square;stroke-linejoin:round;}
	.st4{clip-path:url(#SVGID_6_);fill:none;stroke:#000000;stroke-width:0.5;stroke-linecap:square;stroke-linejoin:round;}
	.st5{clip-path:url(#SVGID_8_);fill:none;stroke:#FF7F0E;stroke-width:0.5;stroke-linecap:square;stroke-linejoin:round;}
	.st6{fill:none;stroke:#000000;stroke-width:0.8;stroke-linecap:square;}
	.st7{clip-path:url(#SVGID_10_);fill:#1F77B4;fill-opacity:0.3;}
	.st8{clip-path:url(#SVGID_12_);fill:none;stroke:#1F77B4;stroke-width:0.5;stroke-linecap:square;stroke-linejoin:round;}
	.st9{clip-path:url(#SVGID_14_);fill:none;stroke:#000000;stroke-width:0.5;stroke-linecap:square;stroke-linejoin:round;}
	.st10{clip-path:url(#SVGID_16_);fill:none;stroke:#FF7F0E;stroke-width:0.5;stroke-linecap:square;stroke-linejoin:round;}
	.st11{opacity:0.8;fill:#FFFFFF;stroke:#CCCCCC;enable-background:new    ;}
	.st12{fill:none;stroke:#1F77B4;stroke-width:0.5;stroke-linecap:square;stroke-linejoin:round;}
	.st13{fill:none;stroke:#000000;stroke-width:0.5;stroke-linecap:square;stroke-linejoin:round;}
	.st14{fill:none;stroke:#FF7F0E;stroke-width:0.5;stroke-linecap:square;stroke-linejoin:round;}
	.st15{opacity:0.3;fill:#1F77B4;enable-background:new    ;}
	.st16{clip-path:url(#SVGID_18_);fill:#1F77B4;fill-opacity:0.3;}
	.st17{clip-path:url(#SVGID_20_);fill:none;stroke:#1F77B4;stroke-width:0.5;stroke-linecap:square;stroke-linejoin:round;}
	.st18{clip-path:url(#SVGID_22_);fill:none;stroke:#000000;stroke-width:0.5;stroke-linecap:square;stroke-linejoin:round;}
	.st19{clip-path:url(#SVGID_24_);fill:none;stroke:#FF7F0E;stroke-width:0.5;stroke-linecap:square;stroke-linejoin:round;}
</style>
<g id="figure_1">
	<g id="patch_1">
		<path class="st0" d="M0,288h504V0H0V288z"/>
	</g>
	<g id="axes_1">
		<g id="patch_2">
			<path class="st0" d="M47.8,246h138.9V10.8H47.8V246z"/>
		</g>
		<g id="PolyCollection_1">
			<g>
				<defs>
					<rect id="SVGID_1_" x="47.8" y="10.8" width="138.9" height="235.2"/>
				</defs>
				<clipPath id="SVGID_2_">
					<use xlink:href="#SVGID_1_"  style="overflow:visible;"/>
				</clipPath>
				<path class="st1" d="M58.3,21.5h-2.9l0.2,1.4l1,1.4l1.9,1.4l1,1.4l-0.9,1.4L56.9,30l-0.8,1.4l0.5,1.4l1.2,1.4l0.7,1.4L58,37.2
					l-0.8,1.4L56.8,40l0.3,1.4l0.6,1.4l0.3,1.4l-0.3,1.4L57,47.2l-0.3,1.4l0.4,1.4l0.8,1.4l0.5,1.4l0.1,1.4l0,1.4l-0.1,1.4l-0.4,1.4
					L57.5,60l-0.3,1.4l0.5,1.4l1.1,1.4l0.7,1.4l0.4,1.4l0.4,1.4l0.3,1.4l0,1.4l-0.1,1.4l-0.1,1.4L60,75.7l-0.7,1.4l-0.2,1.4l0.8,1.4
					l1.7,1.4l1,1.4l-0.4,1.4l-1,1.4l-0.4,1.4l0.8,1.4l1.8,1.4l1.1,1.4l0.1,1.4l-0.3,1.4l-0.1,1.4l0.6,1.4l1,1.4l0.4,1.4l-1,1.4
					l-1.7,1.4l-0.7,1.4l0.8,1.4l1.9,1.4l1.5,1.4l1.3,1.4l1.7,1.4l1,1.4l-0.5,1.4l-1.2,1.4l-0.5,1.4l1,1.4l2.1,1.4l1.1,1.4l-1.1,1.4
					l-0.9,1.4l1.6,1.4l1.8,1.4l0.5,1.4l0.4,1.4l1.2,1.4l2.2,1.4l1.5,1.4l0,1.4l-1.4,1.4l0,1.4l4.9,1.4l6.6,1.4l7.7,1.4l8.2,1.4
					l-11.7,1.4L78.9,147l-5.4,1.4l-0.4,1.4l1.5,1.4l2.7,1.4l2,1.4l1.3,1.4l3,1.4l4.7,1.4l-0.3,1.4l-4.7,1.4l-1.7,1.4l0.7,1.4
					l-0.5,1.4l-0.9,1.4l-0.4,1.4l1.2,1.4l3.7,1.4l2.7,1.4l-0.7,1.4l-0.5,1.4l2.8,1.4l3.2,1.4l2.5,1.4l2.9,1.4l0,1.4l-5.5,1.4
					l-6.9,1.4l-3.3,1.4l-0.9,1.4l-0.6,1.4l-0.9,1.4l0.8,1.4l4.5,1.4l6,1.4l8.6,1.4l14.9,1.4l7.4,1.4l-6.6,1.4l-4.4,1.4l-0.6,1.4
					l-0.2,1.4l-3.7,1.4l-11.1,1.4l-10.7,1.4l-3.2,1.4l1.7,1.4l2.3,1.4l0.7,1.4l-1.1,1.4l-0.4,1.4l2.8,1.4l5.8,1.4l2,1.4l-3.1,1.4
					l-2.8,1.4l-1.6,1.4l-0.5,1.4l0.3,1.4l0.2,1.4l-0.6,1.4l-2.8,1.4l-3.6,1.4h65.5l0,0l-11.3-1.4l-10-1.4l-5.2-1.4l5.6-1.4l18.7-1.4
					l5-1.4l-13.6-1.4l-0.3-1.4l16-1.4l11.9-1.4l-4.5-1.4l-6.2-1.4l-5.5-1.4l-0.8-1.4l8.1-1.4l0.6-1.4l-9.6-1.4l-2-1.4l7.4-1.4
					l10.7-1.4l10.9-1.4l6.5-1.4l1.5-1.4l0-1.4l-1.3-1.4l-5.7-1.4l-10.4-1.4l-16.4-1.4l-24.3-1.4l-15.2-1.4l-0.4-1.4l6.6-1.4l7.7-1.4
					l6.5-1.4l9.4-1.4l17.7-1.4l10.5-1.4l-16.5-1.4l-21.2-1.4l-10.4-1.4l-6.2-1.4l-5.5-1.4l-2.7-1.4l-0.9-1.4l-1.7-1.4l-2.8-1.4
					l-2-1.4l0-1.4l3.5-1.4l6.5-1.4l3.2-1.4l1.8-1.4l2.4-1.4l-5.7-1.4l-9.8-1.4l-4-1.4l0.4-1.4l0.5-1.4l-0.2-1.4l0.4-1.4l3.2-1.4
					L109,147l24.3-1.4l9.4-1.4l-16.8-1.4l-11.7-1.4l-10-1.4l-8.6-1.4l-2.8-1.4l0.6-1.4l1.3-1.4l1.2-1.4l0.6-1.4l-2.4-1.4l-4.3-1.4
					L88,127l1.2-1.4l-0.2-1.4l-4.2-1.4l-2.8-1.4l-0.1-1.4l0.9-1.4l0.2-1.4l-1.8-1.4l-2.9-1.4l-1.6-1.4l-0.5-1.4l-0.3-1.4l-0.4-1.4
					l-1-1.4l-1.4-1.4l-0.6-1.4l0.8-1.4l1.7-1.4l0.7-1.4l-1.5-1.4l-2.6-1.4l-1.5-1.4l-0.8-1.4l-0.8-1.4l-0.5-1.4l-0.5-1.4l-0.6-1.4
					l-0.1-1.4l1-1.4l1.9-1.4l0.6-1.4l-2.4-1.4l-3.6-1.4l-1.7-1.4l0.3-1.4l1.1-1.4l0.7-1.4l-0.1-1.4l-0.4-1.4L64.1,70l0.2-1.4
					l0.4-1.4l0-1.4l-1.1-1.4l-1.7-1.4l-0.8-1.4l0.5-1.4l1.2-1.4l0.7-1.4l-0.4-1.4l-0.9-1.4l-0.6-1.4L61,51.4L60.3,50L60,48.6
					l0.4-1.4l0.9-1.4l0.5-1.4l-0.3-1.4l-0.7-1.4L60.4,40l0.2-1.4l0.5-1.4l0.3-1.4l0-1.4l-0.2-1.4l0-1.4l0.7-1.4l1.3-1.4l0.4-1.4
					l-1.5-1.4l-2.3-1.4l-1.2-1.4L58.3,21.5z"/>
			</g>
		</g>
		<g id="matplotlib.axis_1">
			<g id="xtick_1">
				<g id="line2d_1">
					<g>
						<g>
							<path id="m038d477d95" class="st2" d="M66.3,246v3.5"/>
						</g>
					</g>
				</g>
				<g id="text_1">
					<g transform="translate(63.112665 260.638438)scale(0.1 -0.1)">
						<g>
							<path id="DejaVuSans-50" d="M19.2,8.3h34.4V0H7.3v8.3c3.7,3.9,8.8,9.1,15.3,15.6c6.5,6.5,10.5,10.7,12.2,12.6
								c3.2,3.5,5.4,6.5,6.6,9c1.3,2.5,1.9,4.9,1.9,7.3c0,3.9-1.4,7-4.1,9.5c-2.7,2.4-6.3,3.7-10.6,3.7c-3.1,0-6.4-0.5-9.8-1.6
								c-3.4-1.1-7.1-2.7-11-4.9v10c4,1.6,7.7,2.8,11.1,3.6c3.5,0.8,6.6,1.2,9.5,1.2c7.6,0,13.6-1.9,18.1-5.7
								c4.5-3.8,6.7-8.8,6.7-15.1c0-3-0.6-5.8-1.7-8.5c-1.1-2.7-3.2-5.8-6.1-9.5c-0.8-0.9-3.4-3.7-7.8-8.2
								C33.3,22.7,27.1,16.4,19.2,8.3z"/>
						</g>
					</g>
				</g>
			</g>
			<g id="xtick_2">
				<g id="line2d_2">
					<g>
						<g>
							<path id="m038d477d95_1_" class="st2" d="M112,246v3.5"/>
						</g>
					</g>
				</g>
				<g id="text_2">
					<g transform="translate(108.810634 260.638438)scale(0.1 -0.1)">
						<g>
							<path id="DejaVuSans-52" d="M37.8,64.3L12.9,25.4h24.9V64.3z M35.2,72.9h12.4V25.4H58v-8.2H47.6V0h-9.8v17.2H4.9v9.5
								L35.2,72.9z"/>
						</g>
					</g>
				</g>
			</g>
			<g id="xtick_3">
				<g id="line2d_3">
					<g>
						<g>
							<path id="m038d477d95_2_" class="st2" d="M157.7,246v3.5"/>
						</g>
					</g>
				</g>
				<g id="text_3">
					<g transform="translate(154.508604 260.638438)scale(0.1 -0.1)">
						<g>
							<path id="DejaVuSans-54" d="M33,40.4c-4.4,0-7.9-1.5-10.5-4.5c-2.6-3-3.9-7.2-3.9-12.4c0-5.2,1.3-9.4,3.9-12.4
								c2.6-3,6.1-4.6,10.5-4.6s7.9,1.5,10.5,4.6c2.6,3.1,3.9,7.2,3.9,12.4c0,5.3-1.3,9.4-3.9,12.4C40.9,38.9,37.4,40.4,33,40.4z
								 M52.6,71.3v-9c-2.5,1.2-5,2.1-7.5,2.7c-2.5,0.6-5,0.9-7.5,0.9c-6.5,0-11.5-2.2-14.9-6.6c-3.4-4.4-5.4-11-5.9-19.9
								c1.9,2.8,4.3,5,7.2,6.5c2.9,1.5,6.1,2.3,9.6,2.3c7.3,0,13.1-2.2,17.4-6.7c4.3-4.4,6.4-10.5,6.4-18.1c0-7.5-2.2-13.5-6.6-18
								C46.3,0.8,40.4-1.4,33-1.4c-8.4,0-14.9,3.2-19.3,9.7C9.2,14.7,7,24.1,7,36.4c0,11.5,2.7,20.7,8.2,27.6
								c5.5,6.9,12.8,10.3,22,10.3c2.5,0,5-0.2,7.5-0.7S49.9,72.3,52.6,71.3z"/>
						</g>
					</g>
				</g>
			</g>
			<g id="text_4">
				<g transform="translate(80.114063 274.316562)scale(0.1 -0.1)">
					<g>
						<path id="DejaVuSans-86" d="M28.6,0L0.8,72.9h10.3l23.1-61.4l23.1,61.4h10.3L39.8,0H28.6z"/>
					</g>
					<g>
						<path id="DejaVuSans-101" d="M116.9,29.6v-4.4H75.5c0.4-6.2,2.3-10.9,5.6-14.1s8-4.9,13.9-4.9c3.4,0,6.8,0.4,10,1.3
							c3.2,0.8,6.5,2.1,9.7,3.8V2.8c-3.2-1.4-6.5-2.4-9.9-3.1c-3.4-0.7-6.8-1.1-10.3-1.1c-8.7,0-15.6,2.5-20.7,7.6
							c-5.1,5.1-7.6,12-7.6,20.6c0,8.9,2.4,16,7.3,21.3C78.3,53.4,84.8,56,93,56c7.4,0,13.2-2.4,17.5-7.1
							C114.7,44.2,116.9,37.7,116.9,29.6z M107.9,32.2c-0.1,4.9-1.4,8.8-4.1,11.8c-2.7,2.9-6.2,4.4-10.7,4.4c-5,0-9-1.4-12-4.3
							c-3-2.8-4.7-6.8-5.2-12L107.9,32.2z"/>
					</g>
					<g>
						<path id="DejaVuSans-108" d="M131.6,76h9V0h-9V76z"/>
					</g>
					<g>
						<path id="DejaVuSans-111" d="M180.6,48.4c-4.8,0-8.6-1.9-11.4-5.6c-2.8-3.8-4.2-8.9-4.2-15.5s1.4-11.7,4.2-15.5
							c2.8-3.8,6.6-5.6,11.5-5.6c4.8,0,8.6,1.9,11.4,5.7c2.8,3.8,4.2,8.9,4.2,15.4c0,6.5-1.4,11.6-4.2,15.4
							C189.2,46.5,185.4,48.4,180.6,48.4z M180.6,56c7.8,0,13.9-2.5,18.4-7.6c4.5-5.1,6.7-12.1,6.7-21.1c0-8.9-2.2-16-6.7-21.1
							c-4.5-5.1-10.6-7.6-18.4-7.6c-7.8,0-14,2.5-18.4,7.6c-4.4,5.1-6.7,12.1-6.7,21.1c0,9,2.2,16,6.7,21.1
							C166.6,53.5,172.7,56,180.6,56z"/>
					</g>
					<g>
						<path id="DejaVuSans-99" d="M259.9,52.6v-8.4c-2.5,1.4-5.1,2.5-7.6,3.2c-2.6,0.7-5.1,1-7.7,1c-5.8,0-10.4-1.8-13.6-5.5
							c-3.2-3.7-4.8-8.9-4.8-15.5s1.6-11.9,4.8-15.6c3.2-3.7,7.8-5.5,13.6-5.5c2.6,0,5.2,0.3,7.7,1c2.6,0.7,5.1,1.8,7.6,3.2V2.1
							c-2.5-1.2-5.1-2-7.8-2.6c-2.7-0.6-5.5-0.9-8.6-0.9c-8.2,0-14.8,2.6-19.6,7.8c-4.8,5.2-7.3,12.2-7.3,21c0,8.9,2.4,15.9,7.3,21
							c4.9,5.1,11.6,7.7,20.2,7.7c2.8,0,5.5-0.3,8.1-0.9C254.9,54.6,257.4,53.7,259.9,52.6z"/>
					</g>
					<g>
						<path id="DejaVuSans-105" d="M275.5,54.7h9V0h-9V54.7z M275.5,76h9V64.6h-9V76z"/>
					</g>
					<g>
						<path id="DejaVuSans-116" d="M312.2,70.2V54.7h18.5v-7h-18.5V18c0-4.5,0.6-7.3,1.8-8.6s3.7-1.9,7.5-1.9h9.2V0h-9.2
							c-6.9,0-11.7,1.3-14.4,3.9c-2.6,2.6-4,7.3-4,14.1v29.7h-6.6v7h6.6v15.5H312.2z"/>
					</g>
					<g>
						<path id="DejaVuSans-121" d="M365.3-5.1c-2.5-6.5-5-10.8-7.4-12.7c-2.4-2-5.6-3-9.7-3H341v7.5h5.3c2.5,0,4.4,0.6,5.8,1.8
							c1.4,1.2,2.9,3.9,4.5,8.3l1.6,4.1l-22.1,53.8h9.5l17.1-42.8l17.1,42.8h9.5L365.3-5.1z"/>
					</g>
					<g>
						<path id="DejaVuSans-32" d="M392.3,0"/>
					</g>
					<g>
						<path id="DejaVuSans-40" d="M455.1,75.9c-4.4-7.5-7.6-14.9-9.7-22.2c-2.1-7.3-3.2-14.7-3.2-22.3c0-7.5,1.1-15,3.2-22.3
							c2.1-7.4,5.4-14.8,9.7-22.3h-7.8c-4.9,7.7-8.5,15.2-11,22.6c-2.4,7.4-3.6,14.7-3.6,22c0,7.3,1.2,14.6,3.6,21.9
							c2.4,7.4,6.1,14.9,11,22.6H455.1z"/>
					</g>
					<g>
						<path id="DejaVuSans-107" d="M472.2,76h9V31.1L508,54.7h11.5l-29-25.6L520.7,0H509l-27.8,26.7V0h-9V76z"/>
					</g>
					<g>
						<path id="DejaVuSans-109" d="M573,44.2c2.3,4,4.9,7,8.1,8.9s6.8,2.9,11,2.9c5.7,0,10.1-2,13.2-6c3.1-4,4.6-9.6,4.6-17V0h-9
							v32.7c0,5.2-0.9,9.1-2.8,11.7c-1.9,2.5-4.7,3.8-8.5,3.8c-4.7,0-8.3-1.5-11-4.6c-2.7-3.1-4-7.3-4-12.6V0h-9v32.7
							c0,5.3-0.9,9.2-2.8,11.7c-1.9,2.5-4.7,3.8-8.6,3.8c-4.6,0-8.2-1.6-11-4.7c-2.7-3.1-4-7.3-4-12.6V0h-9v54.7h9v-8.5
							c2.1,3.4,4.5,5.8,7.4,7.4c2.9,1.6,6.3,2.4,10.2,2.4c4,0,7.4-1,10.1-3C569.6,51,571.7,48,573,44.2z"/>
					</g>
					<g>
						<path id="DejaVuSans-47" d="M643.8,72.9h8.3L626.7-9.3h-8.3L643.8,72.9z"/>
					</g>
					<g>
						<path id="DejaVuSans-115" d="M696.4,53.1v-8.5c-2.5,1.3-5.2,2.3-7.9,2.9c-2.7,0.7-5.6,1-8.5,1c-4.5,0-7.8-0.7-10-2
							c-2.2-1.4-3.3-3.4-3.3-6.2c0-2.1,0.8-3.7,2.4-4.9s4.8-2.3,9.6-3.4l3.1-0.7c6.4-1.4,10.9-3.3,13.6-5.8s4-6,4-10.4
							c0-5.1-2-9.1-6-12.1c-4-3-9.5-4.4-16.6-4.4c-2.9,0-6,0.3-9.2,0.9c-3.2,0.6-6.5,1.4-10,2.6v9.3c3.3-1.7,6.6-3,9.8-3.9
							c3.2-0.9,6.4-1.3,9.6-1.3c4.2,0,7.5,0.7,9.8,2.2c2.3,1.4,3.4,3.5,3.4,6.1c0,2.4-0.8,4.3-2.5,5.6c-1.6,1.3-5.2,2.6-10.8,3.8
							l-3.1,0.7c-5.6,1.2-9.6,3-12.1,5.4c-2.5,2.4-3.7,5.8-3.7,10c0,5.1,1.8,9.1,5.5,11.9c3.6,2.8,8.8,4.2,15.5,4.2
							c3.3,0,6.4-0.2,9.4-0.7C691.2,54.8,693.9,54.1,696.4,53.1z"/>
					</g>
					<g>
						<path id="DejaVuSans-41" d="M712.2,75.9h7.8c4.9-7.7,8.5-15.2,11-22.6c2.4-7.4,3.6-14.7,3.6-21.9c0-7.3-1.2-14.6-3.6-22
							c-2.4-7.4-6.1-14.9-11-22.6h-7.8c4.3,7.5,7.6,14.9,9.7,22.3c2.1,7.4,3.2,14.8,3.2,22.3c0,7.5-1.1,14.9-3.2,22.3
							C719.8,61,716.6,68.4,712.2,75.9z"/>
					</g>
				</g>
			</g>
		</g>
		<g id="matplotlib.axis_2">
			<g id="ytick_1">
				<g id="line2d_4">
					<g>
						<g>
							<path id="m49af40d7f4" class="st2" d="M47.8,21.5h-3.5"/>
						</g>
					</g>
				</g>
				<g id="text_5">
					<g transform="translate(24.906875 25.291946)scale(0.1 -0.1)">
						<g>
							<path id="DejaVuSans-48" d="M31.8,66.4c-5.1,0-8.9-2.5-11.5-7.5c-2.6-5-3.8-12.5-3.8-22.5c0-10,1.3-17.5,3.8-22.5
								c2.6-5,6.4-7.5,11.5-7.5c5.1,0,8.9,2.5,11.5,7.5c2.6,5,3.8,12.5,3.8,22.5c0,10-1.3,17.5-3.8,22.5
								C40.7,63.9,36.9,66.4,31.8,66.4z M31.8,74.2c8.2,0,14.4-3.2,18.7-9.7c4.3-6.5,6.5-15.8,6.5-28.1c0-12.3-2.2-21.6-6.5-28.1
								C46.2,1.8,40-1.4,31.8-1.4c-8.2,0-14.4,3.2-18.7,9.7c-4.3,6.5-6.5,15.8-6.5,28.1c0,12.3,2.2,21.7,6.5,28.1
								C17.4,71,23.6,74.2,31.8,74.2z"/>
						</g>
						<g>
							<path id="DejaVuSans-46" d="M74.3,12.4h10.3V0H74.3V12.4z"/>
						</g>
						<g>
							<path id="DejaVuSans-48_1_" d="M127.2,66.4c-5.1,0-8.9-2.5-11.5-7.5c-2.6-5-3.8-12.5-3.8-22.5c0-10,1.3-17.5,3.8-22.5
								c2.6-5,6.4-7.5,11.5-7.5c5.1,0,8.9,2.5,11.5,7.5c2.6,5,3.8,12.5,3.8,22.5c0,10-1.3,17.5-3.8,22.5
								C136.1,63.9,132.3,66.4,127.2,66.4z M127.2,74.2c8.2,0,14.4-3.2,18.7-9.7c4.3-6.5,6.5-15.8,6.5-28.1
								c0-12.3-2.2-21.6-6.5-28.1c-4.3-6.5-10.6-9.7-18.7-9.7c-8.2,0-14.4,3.2-18.7,9.7c-4.3,6.5-6.5,15.8-6.5,28.1
								c0,12.3,2.2,21.7,6.5,28.1C112.8,71,119,74.2,127.2,74.2z"/>
						</g>
					</g>
				</g>
			</g>
			<g id="ytick_2">
				<g id="line2d_5">
					<g>
						<g>
							<path id="m49af40d7f4_1_" class="st2" d="M47.8,56.9h-3.5"/>
						</g>
					</g>
				</g>
				<g id="text_6">
					<g transform="translate(24.906875 60.698328)scale(0.1 -0.1)">
						<g>
							<path id="DejaVuSans-48_2_" d="M31.8,66.4c-5.1,0-8.9-2.5-11.5-7.5c-2.6-5-3.8-12.5-3.8-22.5c0-10,1.3-17.5,3.8-22.5
								c2.6-5,6.4-7.5,11.5-7.5c5.1,0,8.9,2.5,11.5,7.5c2.6,5,3.8,12.5,3.8,22.5c0,10-1.3,17.5-3.8,22.5
								C40.7,63.9,36.9,66.4,31.8,66.4z M31.8,74.2c8.2,0,14.4-3.2,18.7-9.7c4.3-6.5,6.5-15.8,6.5-28.1c0-12.3-2.2-21.6-6.5-28.1
								C46.2,1.8,40-1.4,31.8-1.4c-8.2,0-14.4,3.2-18.7,9.7c-4.3,6.5-6.5,15.8-6.5,28.1c0,12.3,2.2,21.7,6.5,28.1
								C17.4,71,23.6,74.2,31.8,74.2z"/>
						</g>
						<g>
							<path id="DejaVuSans-46_1_" d="M74.3,12.4h10.3V0H74.3V12.4z"/>
						</g>
						<g>
							<path id="DejaVuSans-53" d="M106.2,72.9h38.7v-8.3h-29.7V46.7c1.4,0.5,2.9,0.9,4.3,1.1c1.4,0.2,2.9,0.4,4.3,0.4
								c8.1,0,14.6-2.2,19.3-6.7c4.8-4.5,7.1-10.5,7.1-18.1c0-7.8-2.4-13.9-7.3-18.3c-4.9-4.3-11.8-6.5-20.7-6.5
								c-3.1,0-6.2,0.3-9.4,0.8c-3.2,0.5-6.4,1.3-9.8,2.3v9.9c2.9-1.6,6-2.8,9.1-3.6s6.4-1.2,9.9-1.2c5.6,0,10.1,1.5,13.4,4.4
								c3.3,3,4.9,7,4.9,12.1c0,5.1-1.6,9.1-4.9,12c-3.3,3-7.7,4.5-13.4,4.5c-2.6,0-5.3-0.3-7.9-0.9c-2.6-0.6-5.3-1.5-8-2.7V72.9z"
								/>
						</g>
					</g>
				</g>
			</g>
			<g id="ytick_3">
				<g id="line2d_6">
					<g>
						<g>
							<path id="m49af40d7f4_2_" class="st2" d="M47.8,92.3h-3.5"/>
						</g>
					</g>
				</g>
				<g id="text_7">
					<g transform="translate(24.906875 96.104709)scale(0.1 -0.1)">
						<g>
							<path id="DejaVuSans-49" d="M12.4,8.3h16.1v55.6L11,60.4v9l17.4,3.5h9.9V8.3h16.1V0h-42V8.3z"/>
						</g>
						<g>
							<path id="DejaVuSans-46_2_" d="M74.3,12.4h10.3V0H74.3V12.4z"/>
						</g>
						<g>
							<path id="DejaVuSans-48_3_" d="M127.2,66.4c-5.1,0-8.9-2.5-11.5-7.5c-2.6-5-3.8-12.5-3.8-22.5c0-10,1.3-17.5,3.8-22.5
								c2.6-5,6.4-7.5,11.5-7.5c5.1,0,8.9,2.5,11.5,7.5c2.6,5,3.8,12.5,3.8,22.5c0,10-1.3,17.5-3.8,22.5
								C136.1,63.9,132.3,66.4,127.2,66.4z M127.2,74.2c8.2,0,14.4-3.2,18.7-9.7c4.3-6.5,6.5-15.8,6.5-28.1
								c0-12.3-2.2-21.6-6.5-28.1c-4.3-6.5-10.6-9.7-18.7-9.7c-8.2,0-14.4,3.2-18.7,9.7c-4.3,6.5-6.5,15.8-6.5,28.1
								c0,12.3,2.2,21.7,6.5,28.1C112.8,71,119,74.2,127.2,74.2z"/>
						</g>
					</g>
				</g>
			</g>
			<g id="ytick_4">
				<g id="line2d_7">
					<g>
						<g>
							<path id="m49af40d7f4_3_" class="st2" d="M47.8,127.7h-3.5"/>
						</g>
					</g>
				</g>
				<g id="text_8">
					<g transform="translate(24.906875 131.511091)scale(0.1 -0.1)">
						<g>
							<path id="DejaVuSans-49_1_" d="M12.4,8.3h16.1v55.6L11,60.4v9l17.4,3.5h9.9V8.3h16.1V0h-42V8.3z"/>
						</g>
						<g>
							<path id="DejaVuSans-46_3_" d="M74.3,12.4h10.3V0H74.3V12.4z"/>
						</g>
						<g>
							<path id="DejaVuSans-53_1_" d="M106.2,72.9h38.7v-8.3h-29.7V46.7c1.4,0.5,2.9,0.9,4.3,1.1c1.4,0.2,2.9,0.4,4.3,0.4
								c8.1,0,14.6-2.2,19.3-6.7c4.8-4.5,7.1-10.5,7.1-18.1c0-7.8-2.4-13.9-7.3-18.3c-4.9-4.3-11.8-6.5-20.7-6.5
								c-3.1,0-6.2,0.3-9.4,0.8c-3.2,0.5-6.4,1.3-9.8,2.3v9.9c2.9-1.6,6-2.8,9.1-3.6s6.4-1.2,9.9-1.2c5.6,0,10.1,1.5,13.4,4.4
								c3.3,3,4.9,7,4.9,12.1c0,5.1-1.6,9.1-4.9,12c-3.3,3-7.7,4.5-13.4,4.5c-2.6,0-5.3-0.3-7.9-0.9c-2.6-0.6-5.3-1.5-8-2.7V72.9z"
								/>
						</g>
					</g>
				</g>
			</g>
			<g id="ytick_5">
				<g id="line2d_8">
					<g>
						<g>
							<path id="m49af40d7f4_4_" class="st2" d="M47.8,163.1h-3.5"/>
						</g>
					</g>
				</g>
				<g id="text_9">
					<g transform="translate(24.906875 166.917473)scale(0.1 -0.1)">
						<g>
							<path id="DejaVuSans-50_1_" d="M19.2,8.3h34.4V0H7.3v8.3c3.7,3.9,8.8,9.1,15.3,15.6c6.5,6.5,10.5,10.7,12.2,12.6
								c3.2,3.5,5.4,6.5,6.6,9c1.3,2.5,1.9,4.9,1.9,7.3c0,3.9-1.4,7-4.1,9.5c-2.7,2.4-6.3,3.7-10.6,3.7c-3.1,0-6.4-0.5-9.8-1.6
								c-3.4-1.1-7.1-2.7-11-4.9v10c4,1.6,7.7,2.8,11.1,3.6c3.5,0.8,6.6,1.2,9.5,1.2c7.6,0,13.6-1.9,18.1-5.7
								c4.5-3.8,6.7-8.8,6.7-15.1c0-3-0.6-5.8-1.7-8.5c-1.1-2.7-3.2-5.8-6.1-9.5c-0.8-0.9-3.4-3.7-7.8-8.2
								C33.3,22.7,27.1,16.4,19.2,8.3z"/>
						</g>
						<g>
							<path id="DejaVuSans-46_4_" d="M74.3,12.4h10.3V0H74.3V12.4z"/>
						</g>
						<g>
							<path id="DejaVuSans-48_4_" d="M127.2,66.4c-5.1,0-8.9-2.5-11.5-7.5c-2.6-5-3.8-12.5-3.8-22.5c0-10,1.3-17.5,3.8-22.5
								c2.6-5,6.4-7.5,11.5-7.5c5.1,0,8.9,2.5,11.5,7.5c2.6,5,3.8,12.5,3.8,22.5c0,10-1.3,17.5-3.8,22.5
								C136.1,63.9,132.3,66.4,127.2,66.4z M127.2,74.2c8.2,0,14.4-3.2,18.7-9.7c4.3-6.5,6.5-15.8,6.5-28.1
								c0-12.3-2.2-21.6-6.5-28.1c-4.3-6.5-10.6-9.7-18.7-9.7c-8.2,0-14.4,3.2-18.7,9.7c-4.3,6.5-6.5,15.8-6.5,28.1
								c0,12.3,2.2,21.7,6.5,28.1C112.8,71,119,74.2,127.2,74.2z"/>
						</g>
					</g>
				</g>
			</g>
			<g id="ytick_6">
				<g id="line2d_9">
					<g>
						<g>
							<path id="m49af40d7f4_5_" class="st2" d="M47.8,198.5h-3.5"/>
						</g>
					</g>
				</g>
				<g id="text_10">
					<g transform="translate(24.906875 202.323855)scale(0.1 -0.1)">
						<g>
							<path id="DejaVuSans-50_2_" d="M19.2,8.3h34.4V0H7.3v8.3c3.7,3.9,8.8,9.1,15.3,15.6c6.5,6.5,10.5,10.7,12.2,12.6
								c3.2,3.5,5.4,6.5,6.6,9c1.3,2.5,1.9,4.9,1.9,7.3c0,3.9-1.4,7-4.1,9.5c-2.7,2.4-6.3,3.7-10.6,3.7c-3.1,0-6.4-0.5-9.8-1.6
								c-3.4-1.1-7.1-2.7-11-4.9v10c4,1.6,7.7,2.8,11.1,3.6c3.5,0.8,6.6,1.2,9.5,1.2c7.6,0,13.6-1.9,18.1-5.7
								c4.5-3.8,6.7-8.8,6.7-15.1c0-3-0.6-5.8-1.7-8.5c-1.1-2.7-3.2-5.8-6.1-9.5c-0.8-0.9-3.4-3.7-7.8-8.2
								C33.3,22.7,27.1,16.4,19.2,8.3z"/>
						</g>
						<g>
							<path id="DejaVuSans-46_5_" d="M74.3,12.4h10.3V0H74.3V12.4z"/>
						</g>
						<g>
							<path id="DejaVuSans-53_2_" d="M106.2,72.9h38.7v-8.3h-29.7V46.7c1.4,0.5,2.9,0.9,4.3,1.1c1.4,0.2,2.9,0.4,4.3,0.4
								c8.1,0,14.6-2.2,19.3-6.7c4.8-4.5,7.1-10.5,7.1-18.1c0-7.8-2.4-13.9-7.3-18.3c-4.9-4.3-11.8-6.5-20.7-6.5
								c-3.1,0-6.2,0.3-9.4,0.8c-3.2,0.5-6.4,1.3-9.8,2.3v9.9c2.9-1.6,6-2.8,9.1-3.6s6.4-1.2,9.9-1.2c5.6,0,10.1,1.5,13.4,4.4
								c3.3,3,4.9,7,4.9,12.1c0,5.1-1.6,9.1-4.9,12c-3.3,3-7.7,4.5-13.4,4.5c-2.6,0-5.3-0.3-7.9-0.9c-2.6-0.6-5.3-1.5-8-2.7V72.9z"
								/>
						</g>
					</g>
				</g>
			</g>
			<g id="ytick_7">
				<g id="line2d_10">
					<g>
						<g>
							<path id="m49af40d7f4_6_" class="st2" d="M47.8,233.9h-3.5"/>
						</g>
					</g>
				</g>
				<g id="text_11">
					<g transform="translate(24.906875 237.730236)scale(0.1 -0.1)">
						<g>
							<path id="DejaVuSans-51" d="M40.6,39.3c4.7-1,8.4-3.1,11-6.3c2.7-3.2,4-7.1,4-11.8c0-7.2-2.5-12.8-7.4-16.7
								c-4.9-3.9-12-5.9-21.1-5.9c-3.1,0-6.2,0.3-9.4,0.9S11.1,1,7.6,2.2v9.5c2.7-1.6,5.7-2.8,9-3.6c3.3-0.8,6.7-1.2,10.2-1.2
								c6.2,0,10.9,1.2,14.1,3.7s4.9,6,4.9,10.6c0,4.3-1.5,7.7-4.5,10.1c-3,2.4-7.2,3.6-12.6,3.6h-8.5V43h8.9c4.8,0,8.6,1,11.1,2.9
								s3.9,4.7,3.9,8.4c0,3.7-1.3,6.6-4,8.6c-2.6,2-6.4,3-11.4,3c-2.7,0-5.6-0.3-8.7-0.9c-3.1-0.6-6.5-1.5-10.2-2.7v8.8
								c3.8,1,7.3,1.8,10.5,2.3s6.4,0.8,9.3,0.8c7.5,0,13.4-1.7,17.8-5.1c4.4-3.4,6.5-8,6.5-13.8c0-4-1.2-7.5-3.5-10.2
								S44.8,40.4,40.6,39.3z"/>
						</g>
						<g>
							<path id="DejaVuSans-46_6_" d="M74.3,12.4h10.3V0H74.3V12.4z"/>
						</g>
						<g>
							<path id="DejaVuSans-48_5_" d="M127.2,66.4c-5.1,0-8.9-2.5-11.5-7.5c-2.6-5-3.8-12.5-3.8-22.5c0-10,1.3-17.5,3.8-22.5
								c2.6-5,6.4-7.5,11.5-7.5c5.1,0,8.9,2.5,11.5,7.5c2.6,5,3.8,12.5,3.8,22.5c0,10-1.3,17.5-3.8,22.5
								C136.1,63.9,132.3,66.4,127.2,66.4z M127.2,74.2c8.2,0,14.4-3.2,18.7-9.7c4.3-6.5,6.5-15.8,6.5-28.1
								c0-12.3-2.2-21.6-6.5-28.1c-4.3-6.5-10.6-9.7-18.7-9.7c-8.2,0-14.4,3.2-18.7,9.7c-4.3,6.5-6.5,15.8-6.5,28.1
								c0,12.3,2.2,21.7,6.5,28.1C112.8,71,119,74.2,127.2,74.2z"/>
						</g>
					</g>
				</g>
			</g>
			<g id="text_12">
				<g transform="translate(18.827188 156.905938)rotate(-90)scale(0.1 -0.1)">
					<g>
						<path id="DejaVuSans-68" d="M19.7,64.8V8.1h11.9c10.1,0,17.4,2.3,22.1,6.8c4.7,4.6,7,11.8,7,21.6c0,9.8-2.3,16.9-7,21.5
							s-12,6.8-22.1,6.8H19.7z M9.8,72.9h20.3c14.1,0,24.5-2.9,31.1-8.8c6.6-5.9,9.9-15.1,9.9-27.6c0-12.6-3.3-21.8-10-27.7
							c-6.6-5.9-17-8.8-31-8.8H9.8V72.9z"/>
					</g>
					<g>
						<path id="DejaVuSans-101_1_" d="M133.2,29.6v-4.4H91.9c0.4-6.2,2.3-10.9,5.6-14.1c3.3-3.2,8-4.9,13.9-4.9
							c3.4,0,6.8,0.4,10,1.3c3.2,0.8,6.5,2.1,9.7,3.8V2.8c-3.2-1.4-6.5-2.4-9.9-3.1c-3.4-0.7-6.8-1.1-10.3-1.1
							c-8.7,0-15.6,2.5-20.7,7.6c-5.1,5.1-7.6,12-7.6,20.6c0,8.9,2.4,16,7.3,21.3c4.8,5.3,11.4,7.9,19.6,7.9
							c7.4,0,13.2-2.4,17.5-7.1C131.1,44.2,133.2,37.7,133.2,29.6z M124.2,32.2c-0.1,4.9-1.4,8.8-4.1,11.8
							c-2.7,2.9-6.2,4.4-10.7,4.4c-5,0-9-1.4-12-4.3c-3-2.8-4.7-6.8-5.2-12L124.2,32.2z"/>
					</g>
					<g>
						<path id="DejaVuSans-112" d="M156.6,8.2v-29h-9v75.5h9v-8.3c1.9,3.3,4.3,5.7,7.2,7.2c2.9,1.6,6.3,2.4,10.3,2.4
							c6.6,0,12-2.6,16.2-7.9c4.2-5.3,6.2-12.2,6.2-20.8s-2.1-15.5-6.2-20.8c-4.1-5.3-9.5-7.9-16.2-7.9c-4,0-7.4,0.8-10.3,2.4
							C160.9,2.5,158.5,5,156.6,8.2z M187.2,27.3c0,6.6-1.4,11.8-4.1,15.5s-6.5,5.6-11.2,5.6c-4.8,0-8.5-1.9-11.2-5.6
							s-4.1-8.9-4.1-15.5s1.4-11.8,4.1-15.5s6.5-5.6,11.2-5.6c4.8,0,8.5,1.9,11.2,5.6S187.2,20.7,187.2,27.3z"/>
					</g>
					<g>
						<path id="DejaVuSans-116_1_" d="M220.3,70.2V54.7h18.5v-7h-18.5V18c0-4.5,0.6-7.3,1.8-8.6s3.7-1.9,7.5-1.9h9.2V0h-9.2
							c-6.9,0-11.7,1.3-14.4,3.9c-2.6,2.6-4,7.3-4,14.1v29.7h-6.6v7h6.6v15.5H220.3z"/>
					</g>
					<g>
						<path id="DejaVuSans-104" d="M296.1,33V0h-9v32.7c0,5.2-1,9-3,11.6c-2,2.6-5,3.9-9.1,3.9c-4.9,0-8.7-1.5-11.5-4.6
							c-2.8-3.1-4.2-7.3-4.2-12.6V0h-9v76h9V46.2c2.2,3.3,4.7,5.8,7.6,7.4c2.9,1.6,6.3,2.4,10.1,2.4c6.3,0,11-1.9,14.3-5.8
							C294.5,46.3,296.1,40.6,296.1,33z"/>
					</g>
					<g>
						<path id="DejaVuSans-32_1_" d="M304.6,0"/>
					</g>
					<g>
						<path id="DejaVuSans-40_1_" d="M367.4,75.9c-4.4-7.5-7.6-14.9-9.7-22.2c-2.1-7.3-3.2-14.7-3.2-22.3c0-7.5,1.1-15,3.2-22.3
							c2.1-7.4,5.4-14.8,9.7-22.3h-7.8c-4.9,7.7-8.5,15.2-11,22.6c-2.4,7.4-3.6,14.7-3.6,22c0,7.3,1.2,14.6,3.6,21.9
							c2.4,7.4,6.1,14.9,11,22.6H367.4z"/>
					</g>
					<g>
						<path id="DejaVuSans-107_1_" d="M384.5,76h9V31.1l26.8,23.6h11.5l-29-25.6L433,0h-11.7l-27.8,26.7V0h-9V76z"/>
					</g>
					<g>
						<path id="DejaVuSans-109_1_" d="M485.3,44.2c2.3,4,4.9,7,8.1,8.9s6.8,2.9,11,2.9c5.7,0,10.1-2,13.2-6c3.1-4,4.6-9.6,4.6-17V0
							h-9v32.7c0,5.2-0.9,9.1-2.8,11.7c-1.9,2.5-4.7,3.8-8.5,3.8c-4.7,0-8.3-1.5-11-4.6c-2.7-3.1-4-7.3-4-12.6V0h-9v32.7
							c0,5.3-0.9,9.2-2.8,11.7c-1.9,2.5-4.7,3.8-8.6,3.8c-4.6,0-8.2-1.6-11-4.7c-2.7-3.1-4-7.3-4-12.6V0h-9v54.7h9v-8.5
							c2.1,3.4,4.5,5.8,7.4,7.4c2.9,1.6,6.3,2.4,10.2,2.4c4,0,7.4-1,10.1-3C481.9,51,484,48,485.3,44.2z"/>
					</g>
					<g>
						<path id="DejaVuSans-41_1_" d="M538.7,75.9h7.8c4.9-7.7,8.5-15.2,11-22.6c2.4-7.4,3.6-14.7,3.6-21.9c0-7.3-1.2-14.6-3.6-22
							c-2.4-7.4-6.1-14.9-11-22.6h-7.8c4.3,7.5,7.6,14.9,9.7,22.3s3.2,14.8,3.2,22.3c0,7.5-1.1,14.9-3.2,22.3
							C546.3,61,543.1,68.4,538.7,75.9z"/>
					</g>
				</g>
			</g>
		</g>
		<g id="line2d_11">
			<g>
				<defs>
					<rect id="SVGID_3_" x="47.8" y="10.8" width="138.9" height="235.2"/>
				</defs>
				<clipPath id="SVGID_4_">
					<use xlink:href="#SVGID_3_"  style="overflow:visible;"/>
				</clipPath>
				<path class="st3" d="M57.3,21.5l0.2,1.4l0.9,1.4l1.6,1.4l0.9,1.4l-0.4,1.4l-1,1.4l-0.5,1.4l0.1,1.4l0.4,1.4l0.2,1.4l-0.2,1.4
					l-0.4,1.4L58.7,40l0.3,1.4l0.6,1.4l0.2,1.4l-0.6,1.4l-1.1,1.4l-0.5,1.4L58,50l0.8,1.4l1.7,4.3l0.3,1.4l-0.3,1.4L60.1,60
					l-0.3,1.4l0.2,1.4l0.5,1.4l0.6,2.9l0.5,2.9l0.6,4.3l-0.5,1.4l-0.8,1.4l-0.3,1.4l1,1.4l1.9,1.4l1.1,1.4l-0.5,1.4l-1.2,1.4
					l-0.5,1.4l0.8,1.4l1.8,1.4l1.2,1.4l0.2,1.4l-0.1,1.4l0.1,1.4l0.9,1.4l1.5,1.4l0.9,1.4l-0.3,1.4l-0.8,1.4l-0.3,1.4l0.9,1.4
					l1.9,1.4l1.3,1.4l1.5,4.3l1.4,1.4l2.5,1.4l1.5,1.4l-0.3,1.4l-1.1,1.4l-0.5,1.4l0.6,1.4l1.2,1.4l0.5,1.4l0.3,1.4l1.7,1.4l3.2,1.4
					l2.4,1.4l0.8,1.4l-0.4,1.4l-2.5,2.9l1.1,1.4l5.6,1.4l7.1,1.4l9.3,1.4l13.4,1.4l-7.3,1.4L95.1,147l-9.2,1.4l-2.3,1.4l0.6,1.4
					l1.5,1.4l0.6,1.4l0.4,1.4l3.2,1.4l6.6,1.4l2.7,1.4l-2.9,1.4l-1.6,1.4l-0.9,1.4l-2.6,1.4l-2,1.4l-1.4,1.4l0.2,1.4l3.5,1.4l3,1.4
					L94,174l0.2,1.4l4.4,1.4l5,1.4l6.2,2.9l2.4,1.4l-1.5,1.4l-5.7,1.4l-4.2,1.4l-3.4,1.4l-4.1,1.4l-2.5,1.4l2.5,1.4l11.2,1.4l15,1.4
					l13.1,1.4l15.4,1.4l10.7,1.4l1.4,1.4l-2,1.4l-4.3,1.4l-9.5,1.4l-14.9,1.4l-17,1.4l-12.4,1.4l-2.5,1.4l4.5,1.4l3.5,1.4l-1.8,1.4
					l-4.3,1.4l-1.5,1.4l4.5,1.4l9.7,1.4l0.4,1.4l-8.9,1.4l-3.7,1.4l1.1,1.4l0.6,1.4l-0.8,1.4l0.7,1.4l3,1.4l4.8,1.4l5.8,1.4l0,0"/>
			</g>
		</g>
		<g id="line2d_12">
			<g>
				<defs>
					<rect id="SVGID_5_" x="47.8" y="10.8" width="138.9" height="235.2"/>
				</defs>
				<clipPath id="SVGID_6_">
					<use xlink:href="#SVGID_5_"  style="overflow:visible;"/>
				</clipPath>
				<path class="st4" d="M54.9,21.5v1.4l5.9,1.4l0.2,2.9l-2.2,1.4l0.3,4.3l1.4,2.9l0.1,1.4l-3.1,1.4l0.1,1.4l1,1.4l0.2,2.9l1.4,2.9
					l0.1,1.4L57.6,50l2.1,2.9l1.9,1.4l0.3,4.3L59.4,60l0.5,1.4l0.8,1.4l-0.8,1.4l-0.3,1.4l0.3,1.4l3.3,1.4l0.1,1.4l-0.9,2.9l0.1,1.4
					l1.7,1.4l-2.7,2.9l0.7,1.4l1.4,1.4l-1.4,2.9l-1.5,1.4l0.3,4.3l1.8,2.9l0.2,2.9l2.9,1.4l0.1,1.4l-2.9,1.4l-1,1.4l0.8,1.4
					l13.3,1.4l0.3,2.9l1,2.9l0.5,4.3l-1,1.4l0.3,2.9l2.7,1.4l-1.9,1.4l-0.7,1.4l0.2,1.4l3.1,2.9l0.9,7.1l-1.2,1.4l0.3,2.9l32,1.4
					l3.9,1.4l0.7,1.4l-3.4,1.4l3,1.4L84.6,147l-1.7,2.9l4.3,1.4l-1.9,1.4l-0.1,2.9l0.3,1.4l1,1.4l0.9,4.3l0.7,1.4l0.6,2.9l-2.5,1.4
					l6.5,1.4l-3.1,1.4l-1.3,1.4l1.1,1.4l5.7,1.4l0.6,2.9l16.6,1.4v1.4l-34.3,1.4v1.4l3.4,1.4l-4.8,1.4l1.4,2.9l68.5,1.4v10l-56,2.9
					v2.9l11.4,1.4v4.3l-6.9,2.9v2.9l12.6,1.4l-2.3,1.4v1.4l-2.3,1.4v2.9l-5.7,1.4v2.9l-3.4,1.4v2.9l0,0"/>
			</g>
		</g>
		<g id="line2d_13">
			<g>
				<defs>
					<rect id="SVGID_7_" x="47.8" y="10.8" width="138.9" height="235.2"/>
				</defs>
				<clipPath id="SVGID_8_">
					<use xlink:href="#SVGID_7_"  style="overflow:visible;"/>
				</clipPath>
				<path class="st5" d="M54.9,21.5v1.4l2.3,1.4l2.6,22.8l0.5,7.1l2.3,28.5l0.8,2.9l2,5.7l2.1,5.7l3,7.1l5.3,11.4l0.8,1.4l1.1,1.4
					l5.5,5.7l0.8,1.4l0.6,1.4l2.6,8.6l1.5,5.7l0.9,4.3l1.5,11.4l1.2,2.9l-0.3,1.4l-0.7,1.4l-2.6,4.3l-0.6,1.4l1.1,1.4l3.1,2.9
					l3.3,2.9l3.7,2.9l1.9,1.4l1.5,1.4l2.3,4.3l2,4.3l0.6,1.4l1.8,5.7l0.4,2.9l0.1,1.4l-0.7,2.9l0.7,2.9l0.8,5.7l-1.1,1.4l-2.6,2.9
					l-2.3,2.9l-2,2.9l-0.9,1.4l-0.3,1.4l1.6,7.1l0.5,2.9l0,0"/>
			</g>
		</g>
		<g id="patch_3">
			<path class="st6" d="M47.8,246V10.8"/>
		</g>
		<g id="patch_4">
			<path class="st6" d="M186.7,246V10.8"/>
		</g>
		<g id="patch_5">
			<path class="st6" d="M47.8,246h138.9"/>
		</g>
		<g id="patch_6">
			<path class="st6" d="M47.8,10.8h138.9"/>
		</g>
	</g>
	<g id="axes_2">
		<g id="patch_9">
			<path class="st0" d="M201,246H340V10.8H201V246z"/>
		</g>
		<g id="PolyCollection_2">
			<g>
				<defs>
					<rect id="SVGID_9_" x="201" y="10.8" width="138.9" height="235.2"/>
				</defs>
				<clipPath id="SVGID_10_">
					<use xlink:href="#SVGID_9_"  style="overflow:visible;"/>
				</clipPath>
				<path class="st7" d="M209.5,21.5h-1.9l0.2,1.4l0.7,1.4l1.3,1.4l0.9,1.4l0.4,1.4l0.3,1.4l0,1.4l-0.7,1.4l-1.1,1.4l-0.6,1.4
					l-0.2,1.4l-0.1,1.4L209,40l1.1,1.4l2.1,1.4l1.7,1.4l1.7,1.4l2.6,1.4l1.7,1.4l-0.1,1.4l-0.8,1.4l-0.5,1.4l-0.2,1.4l-0.2,1.4
					l-0.1,1.4l0.1,1.4l0.2,1.4l0.1,1.4l-0.3,1.4l-0.5,1.4l-0.2,1.4l0.4,1.4l0.8,1.4l0.6,1.4l0.4,1.4l0.4,1.4l0.4,1.4l0.6,1.4
					l0.9,1.4l0.6,1.4l0.2,1.4l0.1,1.4l-0.1,1.4l-0.6,1.4l-0.9,1.4l-0.3,1.4l0.9,1.4l1.8,1.4l1.3,1.4l0.8,1.4l0.9,1.4l0.9,1.4
					l1.8,1.4l3.1,1.4l2.2,1.4l0.6,1.4l0.2,1.4l0,1.4l-0.5,1.4l-0.8,1.4l-0.8,1.4l-1.8,1.4l-2.4,1.4l-1.2,1.4l0.5,1.4l1.3,1.4
					l0.7,1.4l-0.8,1.4l-1.5,1.4l-0.7,1.4l0.9,1.4l2.1,1.4l1.6,1.4l0.5,1.4l0.3,1.4l-0.4,1.4l-1.4,1.4l-1.2,1.4l0.1,1.4l0.4,1.4
					l-0.5,1.4l0.1,1.4l1.4,1.4l1.1,1.4l0.9,1.4l1.3,1.4l-0.4,1.4l-2.5,1.4l-3.1,1.4l-2.8,1.4l-1,1.4l1,1.4l1.6,1.4l1.1,1.4l1.4,1.4
					l2,1.4l0.2,1.4l-0.2,1.4l2.5,1.4l2.7,1.4l0.6,1.4l-0.8,1.4l-1.8,1.4l-0.5,1.4l3.1,1.4l2.9,1.4l0,1.4l-0.2,1.4l2,1.4l2.3,1.4
					l-1.1,1.4l-4.1,1.4l-3.7,1.4L234,184l0,1.4l0.9,1.4l1.6,1.4l2.5,1.4l3.6,1.4l4.5,1.4l0.5,1.4l-3.7,1.4l-2.3,1.4l-0.1,1.4
					l1.7,1.4l2.8,1.4l0.5,1.4l-2.2,1.4l-2.1,1.4l-0.9,1.4l-0.6,1.4l0.3,1.4l2.1,1.4l1.7,1.4l0.1,1.4l-0.5,1.4l-0.4,1.4l-1.8,1.4
					l-3.3,1.4l-1.2,1.4l3,1.4l6.4,1.4l2.5,1.4l-2.8,1.4l-2.5,1.4l-0.9,1.4l-0.4,1.4l-1.9,1.4l-2.3,1.4l-0.4,1.4h47.2l0,0l0.6-1.4
					l2.9-1.4l6.5-1.4l12.4-1.4l14.3-1.4l7.4-1.4l-2.8-1.4l-17.3-1.4l-19.5-1.4l-8.3-1.4l0.1-1.4l-0.7-1.4l-7.1-1.4l-2.9-1.4l2.9-1.4
					l3-1.4l2.3-1.4l3.4-1.4l2.9-1.4l1.5-1.4l1.7-1.4l0.1-1.4l-3.4-1.4l-0.4-1.4l4.3-1.4l4-1.4l4.3-1.4l8.9-1.4l10.2-1.4l5.2-1.4
					l-0.1-1.4l-7.8-1.4l-13.4-1.4l-11.1-1.4l-9.5-1.4l-6.9-1.4l0.6-1.4l4.9-1.4l2.2-1.4l-3.4-1.4l-8.1-1.4l-8.2-1.4l-4.6-1.4
					l0.2-1.4l7.4-1.4l14.2-1.4l2.7-1.4l-9-1.4l-8.3-1.4l-3-1.4l2.8-1.4l8.2-1.4l7.2-1.4l-5.3-1.4l-11.4-1.4l-6.7-1.4l-4.6-1.4
					l-4.4-1.4l-1.4-1.4l4.7-1.4l11.3-1.4l7-1.4l-3.1-1.4l-4.9-1.4l-3.9-1.4l-2.2-1.4l-1.8-1.4l-1.7-1.4l0.9-1.4l4-1.4l3.4-1.4
					l0.3-1.4l-2.1-1.4l-2.9-1.4l-2.6-1.4l-2.3-1.4l-1.5-1.4l-2.7-1.4l-5.3-1.4l-2.8-1.4l0.8-1.4l2.7-1.4l2-1.4l1.5-1.4l1.8-1.4
					l1.2-1.4l0.6-1.4l0.6-1.4l0.5-1.4l0.8-1.4l1.3-1.4l1.3-1.4l2.2-1.4l3.6-1.4l0.4-1.4l-7.6-1.4l-9.4-1.4l-3.8-1.4l1.3-1.4l4-1.4
					l2-1.4l-3.1-1.4l-5.1-1.4l-2.5-1.4l0.1-1.4l1.1-1.4l0.6-1.4l-0.3-1.4l-0.8-1.4l-0.8-1.4l-1.7-1.4l-2.3-1.4l-1.4-1.4l-0.8-1.4
					l-0.9-1.4L227,70l-0.6-1.4l-0.7-1.4l-0.5-1.4l-0.3-1.4l-0.3-1.4l-0.1-1.4l0.3-1.4l0.6-1.4l0.5-1.4l0.4-1.4l0.6-1.4l0.6-1.4
					l1.5-1.4l2.5-1.4l0.6-1.4l-4.2-1.4l-5.7-1.4l-3.2-1.4l-2.6-1.4l-2.9-1.4l-1.3-1.4l0.6-1.4l1.5-1.4l1-1.4l-0.2-1.4l-0.7-1.4
					l-0.3-1.4l0.3-1.4l0.6-1.4l0-1.4l-1.6-1.4l-2.4-1.4l-1.2-1.4L209.5,21.5z"/>
			</g>
		</g>
		<g id="matplotlib.axis_3">
			<g id="xtick_4">
				<g id="line2d_20">
					<g>
						<g>
							<path id="m038d477d95_3_" class="st2" d="M219.5,246v3.5"/>
						</g>
					</g>
				</g>
				<g id="text_17">
					<g transform="translate(216.342665 260.638438)scale(0.1 -0.1)">
						<g>
							<path id="DejaVuSans-50_3_" d="M19.2,8.3h34.4V0H7.3v8.3c3.7,3.9,8.8,9.1,15.3,15.6c6.5,6.5,10.5,10.7,12.2,12.6
								c3.2,3.5,5.4,6.5,6.6,9c1.3,2.5,1.9,4.9,1.9,7.3c0,3.9-1.4,7-4.1,9.5c-2.7,2.4-6.3,3.7-10.6,3.7c-3.1,0-6.4-0.5-9.8-1.6
								c-3.4-1.1-7.1-2.7-11-4.9v10c4,1.6,7.7,2.8,11.1,3.6c3.5,0.8,6.6,1.2,9.5,1.2c7.6,0,13.6-1.9,18.1-5.7
								c4.5-3.8,6.7-8.8,6.7-15.1c0-3-0.6-5.8-1.7-8.5c-1.1-2.7-3.2-5.8-6.1-9.5c-0.8-0.9-3.4-3.7-7.8-8.2
								C33.3,22.7,27.1,16.4,19.2,8.3z"/>
						</g>
					</g>
				</g>
			</g>
			<g id="xtick_5">
				<g id="line2d_21">
					<g>
						<g>
							<path id="m038d477d95_4_" class="st2" d="M265.2,246v3.5"/>
						</g>
					</g>
				</g>
				<g id="text_18">
					<g transform="translate(262.040634 260.638438)scale(0.1 -0.1)">
						<g>
							<path id="DejaVuSans-52_1_" d="M37.8,64.3L12.9,25.4h24.9V64.3z M35.2,72.9h12.4V25.4H58v-8.2H47.6V0h-9.8v17.2H4.9v9.5
								L35.2,72.9z"/>
						</g>
					</g>
				</g>
			</g>
			<g id="xtick_6">
				<g id="line2d_22">
					<g>
						<g>
							<path id="m038d477d95_5_" class="st2" d="M310.9,246v3.5"/>
						</g>
					</g>
				</g>
				<g id="text_19">
					<g transform="translate(307.738604 260.638438)scale(0.1 -0.1)">
						<g>
							<path id="DejaVuSans-54_1_" d="M33,40.4c-4.4,0-7.9-1.5-10.5-4.5c-2.6-3-3.9-7.2-3.9-12.4c0-5.2,1.3-9.4,3.9-12.4
								c2.6-3,6.1-4.6,10.5-4.6s7.9,1.5,10.5,4.6c2.6,3.1,3.9,7.2,3.9,12.4c0,5.3-1.3,9.4-3.9,12.4C40.9,38.9,37.4,40.4,33,40.4z
								 M52.6,71.3v-9c-2.5,1.2-5,2.1-7.5,2.7c-2.5,0.6-5,0.9-7.5,0.9c-6.5,0-11.5-2.2-14.9-6.6c-3.4-4.4-5.4-11-5.9-19.9
								c1.9,2.8,4.3,5,7.2,6.5c2.9,1.5,6.1,2.3,9.6,2.3c7.3,0,13.1-2.2,17.4-6.7c4.3-4.4,6.4-10.5,6.4-18.1c0-7.5-2.2-13.5-6.6-18
								C46.3,0.8,40.4-1.4,33-1.4c-8.4,0-14.9,3.2-19.3,9.7C9.2,14.7,7,24.1,7,36.4c0,11.5,2.7,20.7,8.2,27.6
								c5.5,6.9,12.8,10.3,22,10.3c2.5,0,5-0.2,7.5-0.7S49.9,72.3,52.6,71.3z"/>
						</g>
					</g>
				</g>
			</g>
			<g id="text_20">
				<g transform="translate(233.344063 274.316562)scale(0.1 -0.1)">
					<g>
						<path id="DejaVuSans-86_1_" d="M28.6,0L0.8,72.9h10.3l23.1-61.4l23.1,61.4h10.3L39.8,0H28.6z"/>
					</g>
					<g>
						<path id="DejaVuSans-101_8_" d="M116.9,29.6v-4.4H75.5c0.4-6.2,2.3-10.9,5.6-14.1c3.3-3.2,8-4.9,13.9-4.9
							c3.4,0,6.8,0.4,10,1.3c3.2,0.8,6.5,2.1,9.7,3.8V2.8c-3.2-1.4-6.5-2.4-9.9-3.1c-3.4-0.7-6.8-1.1-10.3-1.1
							c-8.7,0-15.6,2.5-20.7,7.6c-5.1,5.1-7.6,12-7.6,20.6c0,8.9,2.4,16,7.3,21.3C78.3,53.4,84.8,56,93,56c7.4,0,13.2-2.4,17.5-7.1
							C114.7,44.2,116.9,37.7,116.9,29.6z M107.9,32.2c-0.1,4.9-1.4,8.8-4.1,11.8c-2.7,2.9-6.2,4.4-10.7,4.4c-5,0-9-1.4-12-4.3
							c-3-2.8-4.7-6.8-5.2-12L107.9,32.2z"/>
					</g>
					<g>
						<path id="DejaVuSans-108_3_" d="M131.6,76h9V0h-9V76z"/>
					</g>
					<g>
						<path id="DejaVuSans-111_1_" d="M180.6,48.4c-4.8,0-8.6-1.9-11.4-5.6c-2.8-3.8-4.2-8.9-4.2-15.5s1.4-11.7,4.2-15.5
							c2.8-3.8,6.6-5.6,11.5-5.6c4.8,0,8.6,1.9,11.4,5.7c2.8,3.8,4.2,8.9,4.2,15.4c0,6.5-1.4,11.6-4.2,15.4
							C189.2,46.5,185.4,48.4,180.6,48.4z M180.6,56c7.8,0,13.9-2.5,18.4-7.6c4.5-5.1,6.7-12.1,6.7-21.1c0-8.9-2.2-16-6.7-21.1
							c-4.5-5.1-10.6-7.6-18.4-7.6c-7.8,0-14,2.5-18.4,7.6c-4.4,5.1-6.7,12.1-6.7,21.1c0,9,2.2,16,6.7,21.1
							C166.6,53.5,172.7,56,180.6,56z"/>
					</g>
					<g>
						<path id="DejaVuSans-99_2_" d="M259.9,52.6v-8.4c-2.5,1.4-5.1,2.5-7.6,3.2c-2.6,0.7-5.1,1-7.7,1c-5.8,0-10.4-1.8-13.6-5.5
							c-3.2-3.7-4.8-8.9-4.8-15.5s1.6-11.9,4.8-15.6c3.2-3.7,7.8-5.5,13.6-5.5c2.6,0,5.2,0.3,7.7,1c2.6,0.7,5.1,1.8,7.6,3.2V2.1
							c-2.5-1.2-5.1-2-7.8-2.6c-2.7-0.6-5.5-0.9-8.6-0.9c-8.2,0-14.8,2.6-19.6,7.8c-4.8,5.2-7.3,12.2-7.3,21c0,8.9,2.4,15.9,7.3,21
							c4.9,5.1,11.6,7.7,20.2,7.7c2.8,0,5.5-0.3,8.1-0.9C254.9,54.6,257.4,53.7,259.9,52.6z"/>
					</g>
					<g>
						<path id="DejaVuSans-105_4_" d="M275.5,54.7h9V0h-9V54.7z M275.5,76h9V64.6h-9V76z"/>
					</g>
					<g>
						<path id="DejaVuSans-116_4_" d="M312.2,70.2V54.7h18.5v-7h-18.5V18c0-4.5,0.6-7.3,1.8-8.6s3.7-1.9,7.5-1.9h9.2V0h-9.2
							c-6.9,0-11.7,1.3-14.4,3.9c-2.6,2.6-4,7.3-4,14.1v29.7h-6.6v7h6.6v15.5H312.2z"/>
					</g>
					<g>
						<path id="DejaVuSans-121_1_" d="M365.3-5.1c-2.5-6.5-5-10.8-7.4-12.7c-2.4-2-5.6-3-9.7-3H341v7.5h5.3c2.5,0,4.4,0.6,5.8,1.8
							c1.4,1.2,2.9,3.9,4.5,8.3l1.6,4.1l-22.1,53.8h9.5l17.1-42.8l17.1,42.8h9.5L365.3-5.1z"/>
					</g>
					<g>
						<path id="DejaVuSans-32_4_" d="M392.3,0"/>
					</g>
					<g>
						<path id="DejaVuSans-40_2_" d="M455.1,75.9c-4.4-7.5-7.6-14.9-9.7-22.2c-2.1-7.3-3.2-14.7-3.2-22.3c0-7.5,1.1-15,3.2-22.3
							c2.1-7.4,5.4-14.8,9.7-22.3h-7.8c-4.9,7.7-8.5,15.2-11,22.6c-2.4,7.4-3.6,14.7-3.6,22c0,7.3,1.2,14.6,3.6,21.9
							c2.4,7.4,6.1,14.9,11,22.6H455.1z"/>
					</g>
					<g>
						<path id="DejaVuSans-107_2_" d="M472.2,76h9V31.1L508,54.7h11.5l-29-25.6L520.7,0H509l-27.8,26.7V0h-9V76z"/>
					</g>
					<g>
						<path id="DejaVuSans-109_2_" d="M573,44.2c2.3,4,4.9,7,8.1,8.9s6.8,2.9,11,2.9c5.7,0,10.1-2,13.2-6c3.1-4,4.6-9.6,4.6-17V0h-9
							v32.7c0,5.2-0.9,9.1-2.8,11.7c-1.9,2.5-4.7,3.8-8.5,3.8c-4.7,0-8.3-1.5-11-4.6c-2.7-3.1-4-7.3-4-12.6V0h-9v32.7
							c0,5.3-0.9,9.2-2.8,11.7c-1.9,2.5-4.7,3.8-8.6,3.8c-4.6,0-8.2-1.6-11-4.7c-2.7-3.1-4-7.3-4-12.6V0h-9v54.7h9v-8.5
							c2.1,3.4,4.5,5.8,7.4,7.4c2.9,1.6,6.3,2.4,10.2,2.4c4,0,7.4-1,10.1-3C569.6,51,571.7,48,573,44.2z"/>
					</g>
					<g>
						<path id="DejaVuSans-47_1_" d="M643.8,72.9h8.3L626.7-9.3h-8.3L643.8,72.9z"/>
					</g>
					<g>
						<path id="DejaVuSans-115_1_" d="M696.4,53.1v-8.5c-2.5,1.3-5.2,2.3-7.9,2.9c-2.7,0.7-5.6,1-8.5,1c-4.5,0-7.8-0.7-10-2
							c-2.2-1.4-3.3-3.4-3.3-6.2c0-2.1,0.8-3.7,2.4-4.9s4.8-2.3,9.6-3.4l3.1-0.7c6.4-1.4,10.9-3.3,13.6-5.8s4-6,4-10.4
							c0-5.1-2-9.1-6-12.1c-4-3-9.5-4.4-16.6-4.4c-2.9,0-6,0.3-9.2,0.9c-3.2,0.6-6.5,1.4-10,2.6v9.3c3.3-1.7,6.6-3,9.8-3.9
							c3.2-0.9,6.4-1.3,9.6-1.3c4.2,0,7.5,0.7,9.8,2.2c2.3,1.4,3.4,3.5,3.4,6.1c0,2.4-0.8,4.3-2.5,5.6c-1.6,1.3-5.2,2.6-10.8,3.8
							l-3.1,0.7c-5.6,1.2-9.6,3-12.1,5.4c-2.5,2.4-3.7,5.8-3.7,10c0,5.1,1.8,9.1,5.5,11.9c3.6,2.8,8.8,4.2,15.5,4.2
							c3.3,0,6.4-0.2,9.4-0.7C691.2,54.8,693.9,54.1,696.4,53.1z"/>
					</g>
					<g>
						<path id="DejaVuSans-41_2_" d="M712.2,75.9h7.8c4.9-7.7,8.5-15.2,11-22.6c2.4-7.4,3.6-14.7,3.6-21.9c0-7.3-1.2-14.6-3.6-22
							c-2.4-7.4-6.1-14.9-11-22.6h-7.8c4.3,7.5,7.6,14.9,9.7,22.3c2.1,7.4,3.2,14.8,3.2,22.3c0,7.5-1.1,14.9-3.2,22.3
							C719.8,61,716.6,68.4,712.2,75.9z"/>
					</g>
				</g>
			</g>
		</g>
		<g id="matplotlib.axis_4">
			<g id="ytick_8">
				<g id="line2d_23">
					<g>
						<g>
							<path id="m49af40d7f4_7_" class="st2" d="M201,21.5h-3.5"/>
						</g>
					</g>
				</g>
			</g>
			<g id="ytick_9">
				<g id="line2d_24">
					<g>
						<g>
							<path id="m49af40d7f4_8_" class="st2" d="M201,56.9h-3.5"/>
						</g>
					</g>
				</g>
			</g>
			<g id="ytick_10">
				<g id="line2d_25">
					<g>
						<g>
							<path id="m49af40d7f4_9_" class="st2" d="M201,92.3h-3.5"/>
						</g>
					</g>
				</g>
			</g>
			<g id="ytick_11">
				<g id="line2d_26">
					<g>
						<g>
							<path id="m49af40d7f4_10_" class="st2" d="M201,127.7h-3.5"/>
						</g>
					</g>
				</g>
			</g>
			<g id="ytick_12">
				<g id="line2d_27">
					<g>
						<g>
							<path id="m49af40d7f4_11_" class="st2" d="M201,163.1h-3.5"/>
						</g>
					</g>
				</g>
			</g>
			<g id="ytick_13">
				<g id="line2d_28">
					<g>
						<g>
							<path id="m49af40d7f4_12_" class="st2" d="M201,198.5h-3.5"/>
						</g>
					</g>
				</g>
			</g>
			<g id="ytick_14">
				<g id="line2d_29">
					<g>
						<g>
							<path id="m49af40d7f4_13_" class="st2" d="M201,233.9h-3.5"/>
						</g>
					</g>
				</g>
			</g>
		</g>
		<g id="line2d_30">
			<g>
				<defs>
					<rect id="SVGID_11_" x="201" y="10.8" width="138.9" height="235.2"/>
				</defs>
				<clipPath id="SVGID_12_">
					<use xlink:href="#SVGID_11_"  style="overflow:visible;"/>
				</clipPath>
				<path class="st8" d="M208.8,21.5l0.2,1.4l1,1.4l1.9,1.4l1.3,1.4l0.1,1.4l-0.3,1.4l-0.2,1.4l0.2,4.3l-0.7,1.4l-1.1,1.4l-0.4,1.4
					l1.1,1.4l2.4,1.4l2.1,1.4l2.5,1.4l4.1,1.4l2.7,1.4l-1.1,1.4l-2.6,1.4l-1.4,1.4l-0.2,1.4l0.4,2.9l0.1,4.3l0.3,1.4l1,2.9l0.7,1.4
					l1.1,1.4l0.8,1.4l0.9,2.9l0.2,1.4l-0.1,1.4l-0.3,1.4l0,1.4l0.6,1.4l1.1,1.4l0.7,1.4l-0.1,1.4l-0.3,1.4l-0.1,1.4l0.3,1.4l0.6,1.4
					l1,2.9l0.7,1.4l0.9,1.4l2.3,1.4l4.3,1.4l3.2,1.4l1.3,1.4l1,1.4l0.2,1.4l-1.6,1.4l-2.5,1.4l-1.4,1.4l-0.5,1.4l-0.6,2.9l-0.3,1.4
					l-0.9,2.9l-1.2,1.4l-1.8,1.4l-0.5,1.4l2.2,1.4l4.1,1.4l2,1.4l1,1.4l1.7,1.4l0.2,1.4l-1.6,1.4l-0.8,1.4l1.2,1.4l0.9,1.4l-2.4,1.4
					l-2.1,1.4l-0.1,1.4l0.4,1.4l1.1,1.4l2.2,1.4l1.2,1.4l-0.7,1.4l-2.6,1.4l-3.9,1.4l-2.8,1.4l-0.8,1.4l1.5,1.4l3,1.4l5.8,1.4
					l10.2,1.4l4.2,1.4l-5,1.4l-3,1.4l-0.3,1.4l-0.1,1.4l0.3,1.4l7.1,2.9l-9,2.9l-0.8,1.4l2.2,1.4l5.3,1.4l4.6,1.4l-1.2,1.4l-4.1,1.4
					l-2.3,1.4l-1.8,1.4l-0.7,1.4l1.4,1.4l3.3,1.4l4.2,1.4l5.4,1.4l7.2,1.4l3.8,1.4l-1.1,1.4l-0.6,1.4l-0.1,1.4l-3,1.4l-4.4,1.4
					l-8.7,4.3l-1.6,1.4l-0.2,1.4l1.4,1.4l3.6,1.4l2,1.4l-2.3,1.4l-3.6,1.4l0.6,1.4l5.2,1.4l4.6,1.4l2.5,1.4l3.1,1.4l4.2,1.4l2.4,1.4
					l-0.4,1.4l-4,1.4l-6.4,1.4l-4,1.4l-2.8,1.4l-2.5,1.4l-0.9,1.4l0,0"/>
			</g>
		</g>
		<g id="line2d_31">
			<g>
				<defs>
					<rect id="SVGID_13_" x="201" y="10.8" width="138.9" height="235.2"/>
				</defs>
				<clipPath id="SVGID_14_">
					<use xlink:href="#SVGID_13_"  style="overflow:visible;"/>
				</clipPath>
				<path class="st9" d="M208.1,21.5v1.4l3.7,1.4l0.2,2.9l1.8,2.9l0.1,1.4l-2.9,1.4l0.1,1.4l1.9,1.4l0.1,1.4l-1.5,1.4l0.1,1.4
					l-1.5,1.4l0.2,2.9l11.8,1.4l0.3,2.9l0.9,1.4l0.9,7.1l-1,1.4l0.3,2.9l2.9,2.9l0.3,2.9l-1.9,1.4l0.2,1.4l-0.7,1.4l0.9,7.1l2.9,1.4
					l0.9,7.1l-1.2,1.4l0.2,1.4l6.5,1.4l-7.7,1.4l0.3,1.4l26.6,1.4v2.9l3.4,1.4v2.9l-6.9,1.4v2.9l3.4,1.4v1.4l-23.1,1.4l0.9,4.3
					l-2.5,1.4l0.6,2.9l6.5,1.4l0.6,2.9l-3.1,1.4l0.3,1.4l-1,2.9l2.2,2.9l4.9,1.4l0.3,1.4l4.9,1.4l-4.3,1.4l24.6,1.4l-34.3,1.4v1.4
					l3.4,1.4l-4.8,1.4v1.4l1.4,1.4v2.9l16,1.4v8.6l13.7,1.4v2.9l-5.7,1.4v1.4l-5.7,1.4v8.6l6.9,1.4v2.9l1.1,1.4v2.9l-3.4,1.4v2.9
					l26.7,1.4v1.4l-24.9,1.4v4.3l-2.5,1.4v2.9l-3.9,1.4l5.3,1.4v2.9l16,1.4v4.3l-5.3,1.4v4.3l-4.6,1.4v2.9l9.1,1.4l-9.1,2.9v2.9
					l13.7,1.4l4.6,1.4l0,0"/>
			</g>
		</g>
		<g id="line2d_32">
			<g>
				<defs>
					<rect id="SVGID_15_" x="201" y="10.8" width="138.9" height="235.2"/>
				</defs>
				<clipPath id="SVGID_16_">
					<use xlink:href="#SVGID_15_"  style="overflow:visible;"/>
				</clipPath>
				<path class="st10" d="M208.1,21.5v1.4l2,1.4l0.8,4.3l1.1,4.3l1.4,4.3l2.7,7.1l1.1,2.9l3.7,10l6.1,15.7l4,11.4l3.6,10l1.3,4.3
					l0.7,2.9l0.7,4.3l1.5,14.3l0,1.4l-0.3,2.9l-0.7,4.3l-0.1,1.4l0.1,2.9l0.5,4.3l0.6,2.9l1.1,2.9l3.2,7.1l1.6,4.3l3.1,8.6l1.2,2.9
					l2.1,4.3l1.9,2.9l0.8,1.4l0.6,1.4l0.8,2.9l0.9,4.3l0.5,4.3l0.4,2.9l0.7,2.9l1.3,4.3l0.9,2.9l0.7,2.9l1.5,7.1l1.3,4.3l0.9,5.7
					l0.8,2.9l2.2,7.1l1,4.3l0.3,1.4l0,0"/>
			</g>
		</g>
		<g id="patch_10">
			<path class="st6" d="M201,246V10.8"/>
		</g>
		<g id="patch_11">
			<path class="st6" d="M340,246V10.8"/>
		</g>
		<g id="patch_12">
			<path class="st6" d="M201,246H340"/>
		</g>
		<g id="patch_13">
			<path class="st6" d="M201,10.8H340"/>
		</g>
		<g id="legend_2">
			<g id="patch_14">
				<path class="st11" d="M236.5,64.6h98.9c1.1,0,1.6-0.5,1.6-1.6V15.4c0-1.1-0.5-1.6-1.6-1.6h-98.9c-1.1,0-1.6,0.5-1.6,1.6v47.5
					C234.8,64,235.4,64.6,236.5,64.6z"/>
			</g>
			<g id="line2d_33">
				<path class="st12" d="M238.1,20.5h16.5"/>
			</g>
			<g id="line2d_34">
			</g>
			<g id="text_21">
				<g transform="translate(281.692187 20.759063)scale(0.06 -0.06)">
					<g>
						<path id="DejaVuSans-77_1_" d="M-328.8,56.9h20.2l25.5-68l25.7,68h20.2v-100h-13.2v87.8l-25.8-68.6h-13.6l-25.8,68.6v-87.8
							h-13.1V56.9z"/>
					</g>
					<g>
						<path id="DejaVuSans-101_9_" d="M-146.8-2.5v-6h-56.7c0.5-8.5,3.1-15,7.7-19.4c4.6-4.4,10.9-6.7,19.1-6.7
							c4.7,0,9.3,0.6,13.8,1.7c4.4,1.2,8.9,2.9,13.2,5.2v-11.7c-4.4-1.9-9-3.3-13.6-4.3c-4.6-1-9.4-1.5-14.1-1.5
							c-12,0-21.5,3.5-28.4,10.4c-7,7-10.5,16.4-10.5,28.3c0,12.3,3.3,22,9.9,29.2c6.6,7.2,15.6,10.8,26.8,10.8
							c10.1,0,18.1-3.3,23.9-9.8C-149.8,17.5-146.8,8.7-146.8-2.5z M-159.1,1.1c-0.1,6.7-2,12.1-5.7,16.1c-3.7,4-8.6,6-14.6,6
							c-6.9,0-12.4-1.9-16.5-5.8c-4.1-3.9-6.5-9.4-7.1-16.4L-159.1,1.1z"/>
					</g>
					<g>
						<path id="DejaVuSans-100_1_" d="M-77.3,20.5v40.6h12.3V-43.1h-12.3v11.3c-2.6-4.5-5.9-7.8-9.8-9.9c-3.9-2.2-8.7-3.3-14.2-3.3
							c-9.1,0-16.4,3.6-22.1,10.8c-5.7,7.2-8.5,16.8-8.5,28.5s2.8,21.3,8.5,28.5c5.7,7.2,13.1,10.8,22.1,10.8
							c5.5,0,10.3-1.1,14.2-3.3C-83.1,28.3-79.8,25-77.3,20.5z M-119.2-5.6c0-9.1,1.9-16.2,5.6-21.3c3.7-5.2,8.9-7.7,15.4-7.7
							c6.5,0,11.6,2.6,15.4,7.7c3.8,5.2,5.6,12.3,5.6,21.3s-1.9,16.2-5.6,21.3c-3.7,5.2-8.9,7.7-15.4,7.7c-6.5,0-11.6-2.6-15.4-7.7
							C-117.4,10.5-119.2,3.4-119.2-5.6z"/>
					</g>
					<g>
						<path id="DejaVuSans-105_5_" d="M-39.5,31.9h12.3v-75h-12.3V31.9z M-39.5,61.1h12.3V45.5h-12.3V61.1z"/>
					</g>
					<g>
						<path id="DejaVuSans-97_3_" d="M32.7-5.4c-10,0-16.9-1.1-20.7-3.4S6.2-15,6.2-20.5c0-4.4,1.4-7.8,4.3-10.4
							c2.9-2.6,6.8-3.8,11.7-3.8c6.8,0,12.3,2.4,16.5,7.3s6.2,11.3,6.2,19.3v2.7H32.7z M57.2-0.3v-42.8H44.9v11.4
							c-2.8-4.5-6.3-7.9-10.5-10.1S25-45,19-45c-7.7,0-13.8,2.2-18.3,6.5c-4.5,4.3-6.8,10.1-6.8,17.3c0,8.4,2.8,14.8,8.5,19.1
							C8,2.1,16.4,4.3,27.6,4.3h17.3v1.2c0,5.7-1.9,10.1-5.6,13.2c-3.7,3.1-9,4.7-15.7,4.7c-4.3,0-8.5-0.5-12.5-1.5
							c-4.1-1-8-2.6-11.7-4.6v11.4c4.5,1.7,8.9,3,13.1,3.9c4.2,0.9,8.4,1.3,12.4,1.3c10.9,0,19-2.8,24.3-8.4
							C54.6,19.7,57.2,11.1,57.2-0.3z"/>
					</g>
					<g>
						<path id="DejaVuSans-110_4_" d="M145,2.2v-45.3h-12.3V1.8c0,7.1-1.4,12.4-4.2,15.9c-2.8,3.5-6.9,5.3-12.5,5.3
							c-6.7,0-11.9-2.1-15.8-6.4c-3.8-4.2-5.8-10-5.8-17.3v-42.4H82.1v75h12.4V20.3c3,4.5,6.4,7.9,10.4,10.1c4,2.2,8.6,3.3,13.8,3.3
							c8.6,0,15.1-2.7,19.5-8C142.7,20.4,145,12.6,145,2.2z"/>
					</g>
				</g>
			</g>
			<g id="line2d_35">
				<path class="st13" d="M238.1,32.5h16.5"/>
			</g>
			<g id="line2d_36">
			</g>
			<g id="text_22">
				<g transform="translate(281.692187 29.565938)scale(0.06 -0.06)">
					<g>
						<path id="DejaVuSans-82_1_" d="M-281.4-50.7c2.9-1,5.7-3.1,8.5-6.3c2.7-3.2,5.5-7.6,8.3-13.3l13.7-27.3h-14.6L-278.2-72
							c-3.3,6.7-6.5,11.1-9.6,13.3c-3.1,2.2-7.3,3.3-12.7,3.3h-14.7v-42.3h-13.5v100h30.5c11.4,0,20-2.4,25.6-7.2
							c5.6-4.8,8.4-12,8.4-21.6c0-6.3-1.5-11.5-4.4-15.7C-271.5-46.3-275.8-49.1-281.4-50.7z M-315.3-8.7v-35.5h17
							c6.5,0,11.4,1.5,14.8,4.5c3.3,3,5,7.4,5,13.3s-1.7,10.3-5,13.2c-3.3,3-8.3,4.5-14.8,4.5H-315.3z"/>
					</g>
					<g>
						<path id="DejaVuSans-101_10_" d="M-176-57v-6h-56.7c0.5-8.5,3.1-15,7.7-19.4c4.6-4.4,10.9-6.7,19.1-6.7
							c4.7,0,9.3,0.6,13.8,1.7c4.4,1.2,8.9,2.9,13.2,5.2v-11.7c-4.4-1.9-9-3.3-13.6-4.3c-4.6-1-9.4-1.5-14.1-1.5
							c-12,0-21.5,3.5-28.4,10.4c-7,7-10.5,16.4-10.5,28.3c0,12.3,3.3,22,9.9,29.2c6.6,7.2,15.6,10.8,26.8,10.8
							c10.1,0,18.1-3.3,23.9-9.8C-179-37-176-45.9-176-57z M-188.4-53.4c-0.1,6.7-2,12.1-5.7,16.1c-3.7,4-8.6,6-14.6,6
							c-6.9,0-12.4-1.9-16.5-5.8c-4.1-3.9-6.5-9.4-7.1-16.4L-188.4-53.4z"/>
					</g>
					<g>
						<path id="DejaVuSans-102_1_" d="M-117.8,6.6V-3.7h-11.8c-4.4,0-7.5-0.9-9.2-2.7c-1.7-1.8-2.6-5-2.6-9.6v-6.6h20.3v-9.6h-20.3
							v-65.4h-12.4v65.4h-11.8v9.6h11.8v5.2c0,8.3,1.9,14.4,5.8,18.2c3.9,3.8,10,5.7,18.5,5.7H-117.8z"/>
					</g>
					<g>
						<path id="DejaVuSans-101_11_" d="M-43.4-57v-6H-100c0.5-8.5,3.1-15,7.7-19.4c4.6-4.4,10.9-6.7,19.1-6.7
							c4.7,0,9.3,0.6,13.8,1.7c4.4,1.2,8.9,2.9,13.2,5.2v-11.7c-4.4-1.9-9-3.3-13.6-4.3c-4.6-1-9.4-1.5-14.1-1.5
							c-12,0-21.5,3.5-28.4,10.4c-7,7-10.5,16.4-10.5,28.3c0,12.3,3.3,22,9.9,29.2c6.6,7.2,15.6,10.8,26.8,10.8
							c10.1,0,18.1-3.3,23.9-9.8C-46.3-37-43.4-45.9-43.4-57z M-55.7-53.4c-0.1,6.7-2,12.1-5.7,16.1c-3.7,4-8.6,6-14.6,6
							c-6.9,0-12.4-1.9-16.5-5.8c-4.1-3.9-6.5-9.4-7.1-16.4L-55.7-53.4z"/>
					</g>
					<g>
						<path id="DejaVuSans-114_2_" d="M20.3-34.1c-1.4,0.8-2.9,1.4-4.5,1.8c-1.6,0.4-3.4,0.6-5.4,0.6c-7,0-12.3-2.3-16.1-6.8
							s-5.6-11-5.6-19.5v-39.5h-12.4v75h12.4v-11.7c2.6,4.6,6,7.9,10.1,10.1C3-21.9,8.1-20.8,14-20.8c0.8,0,1.8-0.1,2.8-0.2
							c1-0.1,2.2-0.3,3.4-0.5L20.3-34.1z"/>
					</g>
					<g>
						<path id="DejaVuSans-101_12_" d="M94.3-57v-6H37.6c0.5-8.5,3.1-15,7.7-19.4c4.6-4.4,10.9-6.7,19.1-6.7c4.7,0,9.3,0.6,13.8,1.7
							c4.4,1.2,8.9,2.9,13.2,5.2v-11.7c-4.4-1.9-9-3.3-13.6-4.3c-4.6-1-9.4-1.5-14.1-1.5c-12,0-21.5,3.5-28.4,10.4
							c-7,7-10.5,16.4-10.5,28.3c0,12.3,3.3,22,9.9,29.2c6.6,7.2,15.6,10.8,26.8,10.8c10.1,0,18.1-3.3,23.9-9.8
							C91.4-37,94.3-45.9,94.3-57z M82-53.4c-0.1,6.7-2,12.1-5.7,16.1c-3.7,4-8.6,6-14.6,6c-6.9,0-12.4-1.9-16.5-5.8
							s-6.5-9.4-7.1-16.4L82-53.4z"/>
					</g>
					<g>
						<path id="DejaVuSans-110_5_" d="M176.9-52.3v-45.3h-12.3v44.9c0,7.1-1.4,12.4-4.2,15.9c-2.8,3.5-6.9,5.3-12.5,5.3
							c-6.7,0-11.9-2.1-15.8-6.4c-3.8-4.2-5.8-10-5.8-17.3v-42.4h-12.4v75h12.4v-11.7c3,4.5,6.4,7.9,10.4,10.1
							c4,2.2,8.6,3.3,13.8,3.3c8.6,0,15.1-2.7,19.5-8C174.7-34.1,176.9-42,176.9-52.3z"/>
					</g>
					<g>
						<path id="DejaVuSans-99_3_" d="M255.4-25.5V-37c-3.5,1.9-7,3.4-10.5,4.3c-3.5,1-7,1.4-10.6,1.4c-8,0-14.2-2.5-18.6-7.6
							c-4.4-5.1-6.6-12.2-6.6-21.3s2.2-16.3,6.6-21.3c4.4-5.1,10.6-7.6,18.6-7.6c3.6,0,7.1,0.5,10.6,1.4c3.5,1,7,2.4,10.5,4.3v-11.4
							c-3.4-1.6-7-2.8-10.7-3.6c-3.7-0.8-7.6-1.2-11.7-1.2c-11.3,0-20.3,3.6-26.9,10.7c-6.6,7.1-10,16.7-10,28.7
							c0,12.2,3.4,21.8,10.1,28.8c6.7,7,15.9,10.5,27.6,10.5c3.8,0,7.5-0.4,11.1-1.2C248.5-22.8,252-23.9,255.4-25.5z"/>
					</g>
					<g>
						<path id="DejaVuSans-101_13_" d="M341-57v-6h-56.7c0.5-8.5,3.1-15,7.7-19.4c4.6-4.4,10.9-6.7,19.1-6.7c4.7,0,9.3,0.6,13.8,1.7
							c4.4,1.2,8.9,2.9,13.2,5.2v-11.7c-4.4-1.9-9-3.3-13.6-4.3c-4.6-1-9.4-1.5-14.1-1.5c-12,0-21.5,3.5-28.4,10.4
							c-7,7-10.5,16.4-10.5,28.3c0,12.3,3.3,22,9.9,29.2c6.6,7.2,15.6,10.8,26.8,10.8c10.1,0,18.1-3.3,23.9-9.8
							C338.1-37,341-45.9,341-57z M328.7-53.4c-0.1,6.7-2,12.1-5.7,16.1c-3.7,4-8.6,6-14.6,6c-6.9,0-12.4-1.9-16.5-5.8
							s-6.5-9.4-7.1-16.4L328.7-53.4z"/>
					</g>
				</g>
			</g>
			<g id="line2d_37">
				<path class="st14" d="M238.1,44.6h16.5"/>
			</g>
			<g id="line2d_38">
			</g>
			<g id="text_23">
				<g transform="translate(281.692187 38.372813)scale(0.06 -0.06)">
					<g>
						<path id="DejaVuSans-73_2_" d="M-328.8-52.1h13.5v-100h-13.5V-52.1z"/>
					</g>
					<g>
						<path id="DejaVuSans-110_6_" d="M-226.5-106.9v-45.3h-12.3v44.9c0,7.1-1.4,12.4-4.2,15.9c-2.8,3.5-6.9,5.3-12.5,5.3
							c-6.7,0-11.9-2.1-15.8-6.4c-3.8-4.2-5.8-10-5.8-17.3v-42.4h-12.4v75h12.4v-11.7c3,4.5,6.4,7.9,10.4,10.1
							c4,2.2,8.6,3.3,13.8,3.3c8.6,0,15.1-2.7,19.5-8C-228.7-88.7-226.5-96.5-226.5-106.9z"/>
					</g>
					<g>
						<path id="DejaVuSans-105_6_" d="M-201.9-77.1h12.3v-75h-12.3V-77.1z M-201.9-47.9h12.3v-15.6h-12.3V-47.9z"/>
					</g>
					<g>
						<path id="DejaVuSans-116_5_" d="M-151.6-55.8v-21.3h25.4v-9.6h-25.4v-40.7c0-6.1,0.8-10,2.5-11.8c1.7-1.7,5.1-2.6,10.2-2.6
							h12.6v-10.3h-12.6c-9.5,0-16.1,1.8-19.7,5.3c-3.6,3.6-5.4,10-5.4,19.4v40.7h-9v9.6h9v21.3H-151.6z"/>
					</g>
					<g>
						<path id="DejaVuSans-105_7_" d="M-110.1-77.1h12.3v-75h-12.3V-77.1z M-110.1-47.9h12.3v-15.6h-12.3V-47.9z"/>
					</g>
					<g>
						<path id="DejaVuSans-97_4_" d="M-37.9-114.4c-10,0-16.9-1.1-20.7-3.4s-5.8-6.2-5.8-11.7c0-4.4,1.4-7.8,4.3-10.4
							c2.9-2.6,6.8-3.8,11.7-3.8c6.8,0,12.3,2.4,16.5,7.3c4.1,4.8,6.2,11.3,6.2,19.3v2.7H-37.9z M-13.3-109.3v-42.8h-12.3v11.4
							c-2.8-4.5-6.3-7.9-10.5-10.1c-4.2-2.2-9.3-3.3-15.4-3.3c-7.7,0-13.8,2.2-18.3,6.5c-4.5,4.3-6.8,10.1-6.8,17.3
							c0,8.4,2.8,14.8,8.5,19.1c5.7,4.3,14.1,6.4,25.3,6.4h17.3v1.2c0,5.7-1.9,10.1-5.6,13.2c-3.7,3.1-9,4.7-15.7,4.7
							c-4.3,0-8.5-0.5-12.5-1.5c-4.1-1-8-2.6-11.7-4.6v11.4c4.5,1.7,8.9,3,13.1,3.9c4.2,0.9,8.4,1.3,12.4,1.3
							c10.9,0,19-2.8,24.3-8.4C-16-89.4-13.3-97.9-13.3-109.3z"/>
					</g>
					<g>
						<path id="DejaVuSans-108_4_" d="M12.1-47.9h12.3v-104.2H12.1V-47.9z"/>
					</g>
				</g>
			</g>
			<g id="patch_15">
				<path class="st15" d="M238.1,59.6h16.5v-5.8h-16.5V59.6z"/>
			</g>
			<g id="text_24">
				<g transform="translate(281.692187 47.179688)scale(0.06 -0.06)">
					<g>
						<path id="DejaVuSans-57_1_" d="M-327.2-204.6v12.3c3.4-1.6,6.8-2.8,10.3-3.7c3.5-0.8,6.9-1.3,10.3-1.3c8.9,0,15.7,3,20.4,9
							c4.7,6,7.4,15.1,8.1,27.4c-2.6-3.8-5.9-6.8-9.9-8.9c-4-2.1-8.4-3.1-13.2-3.1c-10,0-17.9,3-23.7,9.1
							c-5.8,6.1-8.7,14.3-8.7,24.8c0,10.3,3,18.5,9.1,24.7c6.1,6.2,14.2,9.3,24.2,9.3c11.6,0,20.4-4.4,26.5-13.3
							c6.1-8.9,9.2-21.7,9.2-38.6c0-15.8-3.7-28.3-11.2-37.7c-7.5-9.4-17.5-14.1-30.2-14.1c-3.4,0-6.8,0.3-10.3,1
							C-319.8-206.9-323.4-205.9-327.2-204.6z M-300.3-162.2c6.1,0,10.9,2.1,14.4,6.2c3.6,4.2,5.3,9.9,5.3,17.1
							c0,7.2-1.8,12.9-5.3,17c-3.5,4.2-8.4,6.3-14.4,6.3c-6.1,0-10.9-2.1-14.4-6.3c-3.5-4.2-5.3-9.9-5.3-17c0-7.2,1.8-12.9,5.3-17.1
							C-311.1-160.1-306.3-162.2-300.3-162.2z"/>
					</g>
					<g>
						<path id="DejaVuSans-53_4_" d="M-240.2-106.7h53.1v-11.4h-40.7v-24.5c2,0.7,3.9,1.2,5.9,1.5c2,0.3,3.9,0.5,5.9,0.5
							c11.2,0,20-3.1,26.5-9.2c6.5-6.1,9.8-14.4,9.8-24.8c0-10.8-3.4-19.1-10.1-25.1c-6.7-6-16.1-8.9-28.3-8.9
							c-4.2,0-8.5,0.4-12.8,1.1c-4.3,0.7-8.8,1.8-13.5,3.2v13.6c4-2.2,8.2-3.8,12.5-4.9c4.3-1.1,8.8-1.6,13.6-1.6
							c7.7,0,13.8,2,18.3,6.1c4.5,4.1,6.8,9.6,6.8,16.5c0,7-2.3,12.5-6.8,16.5c-4.5,4.1-10.6,6.1-18.3,6.1c-3.6,0-7.2-0.4-10.8-1.2
							c-3.6-0.8-7.3-2.1-11-3.8V-106.7z"/>
					</g>
					<g>
						<path id="DejaVuSans-37_1_" d="M-68-162.7c-3.9,0-6.9-1.7-9.2-5c-2.2-3.3-3.3-7.9-3.3-13.8c0-5.8,1.1-10.4,3.3-13.7
							c2.2-3.3,5.3-5,9.2-5c3.8,0,6.8,1.7,9,5c2.2,3.3,3.3,7.9,3.3,13.7c0,5.9-1.1,10.4-3.3,13.8C-61.2-164.3-64.2-162.7-68-162.7z
							 M-68-154.2c7.1,0,12.7-2.5,16.8-7.4c4.2-4.9,6.2-11.5,6.2-19.9c0-8.3-2.1-15-6.3-19.9c-4.2-4.9-9.8-7.3-16.8-7.3
							c-7.1,0-12.8,2.4-17,7.3c-4.1,4.9-6.2,11.5-6.2,19.9c0,8.4,2.1,15,6.3,19.9C-80.7-156.6-75.1-154.2-68-154.2z M-137.1-113.4
							c-3.8,0-6.9-1.7-9.1-5c-2.2-3.3-3.3-7.9-3.3-13.7c0-5.9,1.1-10.5,3.3-13.8c2.2-3.3,5.2-5,9.1-5c3.9,0,6.9,1.7,9.1,5
							c2.2,3.3,3.3,7.9,3.3,13.8c0,5.8-1.1,10.3-3.3,13.7C-130.2-115.1-133.3-113.4-137.1-113.4z M-76.6-104.9h10.7l-62.6-103.7
							h-10.7L-76.6-104.9z M-137.1-104.9c7.1,0,12.7-2.4,16.9-7.3c4.2-4.9,6.3-11.5,6.3-19.9c0-8.4-2.1-15.1-6.3-20
							s-9.8-7.3-16.9-7.3s-12.7,2.4-16.8,7.3c-4.1,4.9-6.2,11.5-6.2,19.9c0,8.3,2.1,14.9,6.2,19.8
							C-149.8-107.3-144.2-104.9-137.1-104.9z"/>
					</g>
					<g>
						<path id="DejaVuSans-32_5_" d="M-37.4-206.7"/>
					</g>
					<g>
						<path id="DejaVuSans-72_1_" d="M19.7-106.7h13.5v-41h49.2v41h13.5v-100H82.3v47.6H33.2v-47.6H19.7V-106.7z"/>
					</g>
					<g>
						<path id="DejaVuSans-80_1_" d="M136.3-117.8v-37.6h17c6.3,0,11.2,1.6,14.6,4.9c3.4,3.3,5.2,7.9,5.2,13.9
							c0,6-1.7,10.6-5.2,13.9c-3.4,3.3-8.3,4.9-14.6,4.9H136.3z M122.8-106.7h30.5c11.2,0,19.7-2.5,25.4-7.6
							c5.7-5.1,8.6-12.5,8.6-22.3c0-9.9-2.9-17.3-8.6-22.4c-5.7-5-14.2-7.6-25.4-7.6h-17v-40.2h-13.5V-106.7z"/>
					</g>
					<g>
						<path id="DejaVuSans-68_2_" d="M219-117.8v-77.7h16.4c13.8,0,23.9,3.1,30.3,9.4c6.4,6.3,9.6,16.1,9.6,29.6
							c0,13.4-3.2,23.2-9.6,29.4c-6.4,6.2-16.5,9.3-30.3,9.3H219z M205.5-106.7h27.8c19.4,0,33.6-4,42.6-12.1
							c9.1-8.1,13.6-20.7,13.6-37.8c0-17.2-4.6-29.9-13.7-38c-9.1-8.1-23.3-12.1-42.6-12.1h-27.8V-106.7z"/>
					</g>
					<g>
						<path id="DejaVuSans-32_6_" d="M297.6-206.7"/>
					</g>
					<g>
						<path id="DejaVuSans-73_3_" d="M354.7-106.7h13.5v-100h-13.5V-106.7z"/>
					</g>
					<g>
						<path id="DejaVuSans-110_7_" d="M457-161.4v-45.3h-12.3v44.9c0,7.1-1.4,12.4-4.2,15.9c-2.8,3.5-6.9,5.3-12.5,5.3
							c-6.7,0-11.9-2.1-15.8-6.4c-3.8-4.2-5.8-10-5.8-17.3v-42.4h-12.4v75h12.4v-11.7c3,4.5,6.4,7.9,10.4,10.1
							c4,2.2,8.6,3.3,13.8,3.3c8.6,0,15.1-2.7,19.5-8C454.7-143.2,457-151,457-161.4z"/>
					</g>
					<g>
						<path id="DejaVuSans-116_6_" d="M493.7-110.4v-21.3h25.4v-9.6h-25.4V-182c0-6.1,0.8-10,2.5-11.8s5.1-2.6,10.2-2.6h12.6v-10.3
							h-12.6c-9.5,0-16.1,1.8-19.7,5.3c-3.6,3.6-5.4,10-5.4,19.4v40.7h-9v9.6h9v21.3H493.7z"/>
					</g>
					<g>
						<path id="DejaVuSans-101_14_" d="M599.4-166.1v-6h-56.7c0.5-8.5,3.1-15,7.7-19.4c4.6-4.4,10.9-6.7,19.1-6.7
							c4.7,0,9.3,0.6,13.8,1.7c4.4,1.2,8.9,2.9,13.2,5.2v-11.7c-4.4-1.9-9-3.3-13.6-4.3c-4.6-1-9.4-1.5-14.1-1.5
							c-12,0-21.5,3.5-28.4,10.4c-7,7-10.5,16.4-10.5,28.3c0,12.3,3.3,22,9.9,29.2c6.6,7.2,15.6,10.8,26.8,10.8
							c10.1,0,18.1-3.3,23.9-9.8C596.5-146.1,599.4-154.9,599.4-166.1z M587.1-162.4c-0.1,6.7-2,12.1-5.7,16.1c-3.7,4-8.6,6-14.6,6
							c-6.9,0-12.4-1.9-16.5-5.8c-4.1-3.9-6.5-9.4-7.1-16.4L587.1-162.4z"/>
					</g>
					<g>
						<path id="DejaVuSans-114_3_" d="M663.1-143.2c-1.4,0.8-2.9,1.4-4.5,1.8c-1.6,0.4-3.4,0.6-5.4,0.6c-7,0-12.3-2.3-16.1-6.8
							s-5.6-11-5.6-19.5v-39.5h-12.4v75h12.4v-11.7c2.6,4.6,6,7.9,10.1,10.1c4.2,2.2,9.2,3.3,15.2,3.3c0.8,0,1.8-0.1,2.8-0.2
							c1-0.1,2.2-0.3,3.4-0.5L663.1-143.2z"/>
					</g>
					<g>
						<path id="DejaVuSans-118_1_" d="M667.2-131.7h13.1l23.4-62.9l23.4,62.9h13.1l-28.1-75h-16.7L667.2-131.7z"/>
					</g>
					<g>
						<path id="DejaVuSans-97_5_" d="M791.3-169c-10,0-16.9-1.1-20.7-3.4c-3.8-2.3-5.8-6.2-5.8-11.7c0-4.4,1.4-7.8,4.3-10.4
							c2.9-2.6,6.8-3.8,11.7-3.8c6.8,0,12.3,2.4,16.5,7.3c4.1,4.8,6.2,11.3,6.2,19.3v2.7H791.3z M815.9-163.9v-42.8h-12.3v11.4
							c-2.8-4.5-6.3-7.9-10.5-10.1c-4.2-2.2-9.3-3.3-15.4-3.3c-7.7,0-13.8,2.2-18.3,6.5c-4.5,4.3-6.8,10.1-6.8,17.3
							c0,8.4,2.8,14.8,8.5,19.1c5.7,4.3,14.1,6.4,25.3,6.4h17.3v1.2c0,5.7-1.9,10.1-5.6,13.2c-3.7,3.1-9,4.7-15.7,4.7
							c-4.3,0-8.5-0.5-12.5-1.5c-4.1-1-8-2.6-11.7-4.6v11.4c4.5,1.7,8.9,3,13.1,3.9c4.2,0.9,8.4,1.3,12.4,1.3
							c10.9,0,19-2.8,24.3-8.4C813.2-143.9,815.9-152.4,815.9-163.9z"/>
					</g>
					<g>
						<path id="DejaVuSans-108_5_" d="M841.3-102.4h12.3v-104.2h-12.3V-102.4z"/>
					</g>
				</g>
			</g>
		</g>
	</g>
	<g id="axes_3">
		<g id="patch_16">
			<path class="st0" d="M354.3,246h138.9V10.8H354.3V246z"/>
		</g>
		<g id="PolyCollection_3">
			<g>
				<defs>
					<rect id="SVGID_17_" x="354.3" y="10.8" width="138.9" height="235.2"/>
				</defs>
				<clipPath id="SVGID_18_">
					<use xlink:href="#SVGID_17_"  style="overflow:visible;"/>
				</clipPath>
				<path class="st16" d="M364.2,21.5h-3.6l0.1,1.4l0.6,1.4l1.1,1.4l0.6,1.4l-0.2,1.4l-0.6,1.4l-0.2,1.4l0.7,1.4l1.4,1.4l1,1.4
					l0.5,1.4l0.5,1.4l0.4,1.4l0.7,1.4l1.1,1.4l0.6,1.4l-0.6,1.4l-1.1,1.4l-0.4,1.4l1.3,1.4l2.7,1.4l1.7,1.4l-0.4,1.4l-1.3,1.4
					l-0.6,1.4l0.7,1.4l1.6,1.4l1.2,1.4l0.9,1.4l1.2,1.4l0.6,1.4l-0.5,1.4l-1.1,1.4l-0.7,1.4l-0.4,1.4l-0.4,1.4l-0.1,1.4l0.3,1.4
					l0.7,1.4l0.5,1.4l0.3,1.4l0.4,1.4l0.3,1.4l0.5,1.4l0.7,1.4l0.2,1.4l-1.2,1.4l-1.9,1.4l-0.9,1.4l0.2,1.4l0.8,1.4l0.7,1.4l0.9,1.4
					l1.3,1.4l1.1,1.4l1.1,1.4l1.7,1.4l0.9,1.4l-0.6,1.4l-1.4,1.4l-0.9,1.4l-0.5,1.4l-0.5,1.4l0.1,1.4l2.2,1.4l4.5,1.4l3.7,1.4
					l2.4,1.4l2.8,1.4l1.6,1.4l-1.2,1.4l-3.8,1.4l-4.2,1.4l-2.6,1.4l-1.6,1.4l-0.3,1.4l1.3,1.4l1.8,1.4l1.6,1.4l1.3,1.4l0.2,1.4
					l-0.5,1.4l0.4,1.4l1.3,1.4l0.6,1.4l-0.8,1.4l-0.1,1.4l1.1,1.4l0.9,1.4l0.9,1.4l3.1,1.4l6.1,1.4l4.2,1.4l-0.1,1.4l-2.4,1.4
					l-2.7,1.4l0.3,1.4l2.5,1.4l0.4,1.4l-1.4,1.4l-2.9,1.4l-3.7,1.4l-2.1,1.4l-1.6,1.4l-2.1,1.4l-1.3,1.4l-0.5,1.4l0.3,1.4l2.4,1.4
					l5.4,1.4l9.2,1.4l16.2,1.4l14.4,1.4l-5,1.4l-15.9,1.4l-14.3,1.4l-9.5,1.4l-3.3,1.4l1.4,1.4l3.8,1.4l1.3,1.4l-1.4,1.4l0.1,1.4
					l1.5,1.4l2.1,1.4l3.4,1.4l2.6,1.4l0.3,1.4l-1.3,1.4l-1.4,1.4l-2.8,1.4l-3.2,1.4l1.1,1.4l6.2,1.4l5.2,1.4l-1,1.4l-4.2,1.4
					l-0.6,1.4l3.6,1.4l3.7,1.4l4.4,1.4l6.1,1.4l1.7,1.4l-0.9,1.4l3.1,1.4l1.1,1.4l-7.5,1.4l-7.6,1.4l-0.6,1.4l1.7,1.4h55.6l0,0
					l3.8-1.4l7.7-1.4l6.4-1.4l2.8-1.4l1-1.4l0.2-1.4l-1.1-1.4l-4.8-1.4l-7.3-1.4l-3.7-1.4l1.8-1.4l5.1-1.4l4.7-1.4l3.3-1.4l1.6-1.4
					l-0.3-1.4l-6-1.4l-20-1.4l-20.6-1.4l-7.8-1.4l3.3-1.4l10.4-1.4l6.6-1.4l-0.7-1.4l-1.7-1.4l1.8-1.4l6.7-1.4l8.6-1.4l-3.4-1.4
					l-25.4-1.4l-22.2-1.4l-6.9-1.4l6-1.4l19.6-1.4l25.4-1.4l17.2-1.4l6.7-1.4l-4.6-1.4l-14.5-1.4l-23.4-1.4l-19.5-1.4l-7.2-1.4
					l0.4-1.4l3.3-1.4l6.4-1.4l10.6-1.4l5.8-1.4l5.5-1.4l14-1.4l12.4-1.4l4.8-1.4l2.7-1.4l1.3-1.4l0.5-1.4l0-1.4l-0.6-1.4l-7.2-1.4
					l-23.8-1.4l-22.4-1.4l-8.6-1.4l-1.4-1.4l-2.5-1.4l-5.3-1.4l-2.7-1.4l1.2-1.4l5.5-1.4l9.9-1.4l3.1-1.4l-8-1.4l-4.5-1.4l-0.9-1.4
					l-3.7-1.4l-6.7-1.4l-3.8-1.4l2.8-1.4l8.3-1.4l5-1.4l3.7-1.4l14.1-1.4l13.6-1.4l-7-1.4l-14-1.4l-9.3-1.4l-11.6-1.4l-11.3-1.4
					l-4.6-1.4l0.4-1.4l2.4-1.4l1.8-1.4l1.2-1.4l1.4-1.4l0.5-1.4l-1.5-1.4l-2.5-1.4l-1.6-1.4l-1.3-1.4l-1.6-1.4l-1.4-1.4l-2.1-1.4
					l-2.8-1.4l-1.2-1.4l0.9-1.4l2.2-1.4l1.5-1.4l0.2-1.4l-0.2-1.4l-0.1-1.4l-0.1-1.4l-0.2-1.4l-0.1-1.4l0.2-1.4l0.3-1.4l0-1.4
					l-0.8-1.4l-1.4-1.4l-0.7-1.4l0.2-1.4l0.7-1.4l0.2-1.4l-0.9-1.4l-1.5-1.4l-1-1.4l-0.9-1.4l-1-1.4l-0.4-1.4l0.9-1.4l1.9-1.4
					l0.7-1.4l-2.1-1.4l-3.3-1.4l-1.7-1.4l-0.2-1.4l0.2-1.4l-0.1-1.4l-0.9-1.4l-1.5-1.4l-1-1.4l-0.8-1.4l-0.9-1.4l-0.6-1.4l-0.3-1.4
					l-0.3-1.4l-0.2-1.4l0-1.4l0.1-1.4l-0.2-1.4l-1.1-1.4l-1.6-1.4l-0.9-1.4L364.2,21.5z"/>
			</g>
		</g>
		<g id="matplotlib.axis_5">
			<g id="xtick_7">
				<g id="line2d_39">
					<g>
						<g>
							<path id="m038d477d95_6_" class="st2" d="M372.8,246v3.5"/>
						</g>
					</g>
				</g>
				<g id="text_25">
					<g transform="translate(369.572665 260.638438)scale(0.1 -0.1)">
						<g>
							<path id="DejaVuSans-50_4_" d="M19.2,8.3h34.4V0H7.3v8.3c3.7,3.9,8.8,9.1,15.3,15.6c6.5,6.5,10.5,10.7,12.2,12.6
								c3.2,3.5,5.4,6.5,6.6,9c1.3,2.5,1.9,4.9,1.9,7.3c0,3.9-1.4,7-4.1,9.5c-2.7,2.4-6.3,3.7-10.6,3.7c-3.1,0-6.4-0.5-9.8-1.6
								c-3.4-1.1-7.1-2.7-11-4.9v10c4,1.6,7.7,2.8,11.1,3.6c3.5,0.8,6.6,1.2,9.5,1.2c7.6,0,13.6-1.9,18.1-5.7
								c4.5-3.8,6.7-8.8,6.7-15.1c0-3-0.6-5.8-1.7-8.5c-1.1-2.7-3.2-5.8-6.1-9.5c-0.8-0.9-3.4-3.7-7.8-8.2
								C33.3,22.7,27.1,16.4,19.2,8.3z"/>
						</g>
					</g>
				</g>
			</g>
			<g id="xtick_8">
				<g id="line2d_40">
					<g>
						<g>
							<path id="m038d477d95_7_" class="st2" d="M418.5,246v3.5"/>
						</g>
					</g>
				</g>
				<g id="text_26">
					<g transform="translate(415.270634 260.638438)scale(0.1 -0.1)">
						<g>
							<path id="DejaVuSans-52_2_" d="M37.8,64.3L12.9,25.4h24.9V64.3z M35.2,72.9h12.4V25.4H58v-8.2H47.6V0h-9.8v17.2H4.9v9.5
								L35.2,72.9z"/>
						</g>
					</g>
				</g>
			</g>
			<g id="xtick_9">
				<g id="line2d_41">
					<g>
						<g>
							<path id="m038d477d95_8_" class="st2" d="M464.1,246v3.5"/>
						</g>
					</g>
				</g>
				<g id="text_27">
					<g transform="translate(460.968604 260.638438)scale(0.1 -0.1)">
						<g>
							<path id="DejaVuSans-54_2_" d="M33,40.4c-4.4,0-7.9-1.5-10.5-4.5c-2.6-3-3.9-7.2-3.9-12.4c0-5.2,1.3-9.4,3.9-12.4
								c2.6-3,6.1-4.6,10.5-4.6s7.9,1.5,10.5,4.6c2.6,3.1,3.9,7.2,3.9,12.4c0,5.3-1.3,9.4-3.9,12.4C40.9,38.9,37.4,40.4,33,40.4z
								 M52.6,71.3v-9c-2.5,1.2-5,2.1-7.5,2.7c-2.5,0.6-5,0.9-7.5,0.9c-6.5,0-11.5-2.2-14.9-6.6c-3.4-4.4-5.4-11-5.9-19.9
								c1.9,2.8,4.3,5,7.2,6.5c2.9,1.5,6.1,2.3,9.6,2.3c7.3,0,13.1-2.2,17.4-6.7c4.3-4.4,6.4-10.5,6.4-18.1c0-7.5-2.2-13.5-6.6-18
								C46.3,0.8,40.4-1.4,33-1.4c-8.4,0-14.9,3.2-19.3,9.7C9.2,14.7,7,24.1,7,36.4c0,11.5,2.7,20.7,8.2,27.6
								c5.5,6.9,12.8,10.3,22,10.3c2.5,0,5-0.2,7.5-0.7S49.9,72.3,52.6,71.3z"/>
						</g>
					</g>
				</g>
			</g>
			<g id="text_28">
				<g transform="translate(386.574063 274.316562)scale(0.1 -0.1)">
					<g>
						<path id="DejaVuSans-86_2_" d="M28.6,0L0.8,72.9h10.3l23.1-61.4l23.1,61.4h10.2L39.8,0H28.6z"/>
					</g>
					<g>
						<path id="DejaVuSans-101_15_" d="M116.9,29.6v-4.4H75.5c0.4-6.2,2.3-10.9,5.6-14.1c3.3-3.2,8-4.9,13.9-4.9
							c3.4,0,6.8,0.4,10,1.3c3.2,0.8,6.5,2.1,9.7,3.8V2.8c-3.2-1.4-6.5-2.4-9.9-3.1c-3.4-0.7-6.8-1.1-10.3-1.1
							c-8.7,0-15.6,2.5-20.7,7.6c-5.1,5.1-7.6,12-7.6,20.6c0,8.9,2.4,16,7.3,21.3C78.3,53.4,84.8,56,93,56c7.4,0,13.2-2.4,17.5-7.1
							C114.7,44.2,116.9,37.7,116.9,29.6z M107.9,32.2c-0.1,4.9-1.4,8.8-4.1,11.8c-2.7,2.9-6.2,4.4-10.7,4.4c-5,0-9-1.4-12-4.3
							c-3-2.8-4.7-6.8-5.2-12L107.9,32.2z"/>
					</g>
					<g>
						<path id="DejaVuSans-108_6_" d="M131.6,76h9V0h-9V76z"/>
					</g>
					<g>
						<path id="DejaVuSans-111_2_" d="M180.6,48.4c-4.8,0-8.6-1.9-11.4-5.6c-2.8-3.8-4.2-8.9-4.2-15.5s1.4-11.7,4.2-15.5
							c2.8-3.8,6.6-5.6,11.5-5.6c4.8,0,8.6,1.9,11.4,5.7c2.8,3.8,4.2,8.9,4.2,15.4c0,6.5-1.4,11.6-4.2,15.4
							C189.2,46.5,185.4,48.4,180.6,48.4z M180.6,56c7.8,0,13.9-2.5,18.4-7.6c4.5-5.1,6.7-12.1,6.7-21.1c0-8.9-2.2-16-6.7-21.1
							c-4.5-5.1-10.6-7.6-18.4-7.6c-7.8,0-14,2.5-18.4,7.6c-4.4,5.1-6.7,12.1-6.7,21.1c0,9,2.2,16,6.7,21.1
							C166.6,53.5,172.7,56,180.6,56z"/>
					</g>
					<g>
						<path id="DejaVuSans-99_4_" d="M259.9,52.6v-8.4c-2.5,1.4-5.1,2.5-7.6,3.2c-2.6,0.7-5.1,1-7.7,1c-5.8,0-10.4-1.8-13.6-5.5
							c-3.2-3.7-4.8-8.9-4.8-15.5s1.6-11.9,4.8-15.6c3.2-3.7,7.8-5.5,13.6-5.5c2.6,0,5.2,0.3,7.7,1c2.6,0.7,5.1,1.8,7.6,3.2V2.1
							c-2.5-1.2-5.1-2-7.8-2.6c-2.7-0.6-5.5-0.9-8.6-0.9c-8.2,0-14.8,2.6-19.6,7.8c-4.8,5.2-7.3,12.2-7.3,21c0,8.9,2.4,15.9,7.3,21
							c4.9,5.1,11.6,7.7,20.2,7.7c2.8,0,5.5-0.3,8.1-0.9C254.9,54.6,257.4,53.7,259.9,52.6z"/>
					</g>
					<g>
						<path id="DejaVuSans-105_8_" d="M275.5,54.7h9V0h-9V54.7z M275.5,76h9V64.6h-9V76z"/>
					</g>
					<g>
						<path id="DejaVuSans-116_7_" d="M312.2,70.2V54.7h18.5v-7h-18.5V18c0-4.5,0.6-7.3,1.8-8.6s3.7-1.9,7.5-1.9h9.2V0h-9.2
							c-6.9,0-11.7,1.3-14.4,3.9c-2.6,2.6-4,7.3-4,14.1v29.7h-6.6v7h6.6v15.5H312.2z"/>
					</g>
					<g>
						<path id="DejaVuSans-121_2_" d="M365.3-5.1c-2.5-6.5-5-10.8-7.4-12.7c-2.4-2-5.6-3-9.7-3H341v7.5h5.3c2.5,0,4.4,0.6,5.8,1.8
							c1.4,1.2,2.9,3.9,4.5,8.3l1.6,4.1l-22.1,53.8h9.5l17.1-42.8l17.1,42.8h9.5L365.3-5.1z"/>
					</g>
					<g>
						<path id="DejaVuSans-32_7_" d="M392.3,0"/>
					</g>
					<g>
						<path id="DejaVuSans-40_3_" d="M455.1,75.9c-4.4-7.5-7.6-14.9-9.7-22.2c-2.1-7.3-3.2-14.7-3.2-22.3c0-7.5,1.1-15,3.2-22.3
							c2.1-7.4,5.4-14.8,9.7-22.3h-7.8c-4.9,7.7-8.5,15.2-11,22.6c-2.4,7.4-3.6,14.7-3.6,22c0,7.3,1.2,14.6,3.6,21.9
							c2.4,7.4,6.1,14.9,11,22.6H455.1z"/>
					</g>
					<g>
						<path id="DejaVuSans-107_3_" d="M472.2,76h9V31.1L508,54.7h11.5l-29-25.6L520.7,0H509l-27.8,26.7V0h-9V76z"/>
					</g>
					<g>
						<path id="DejaVuSans-109_3_" d="M573,44.2c2.3,4,4.9,7,8.1,8.9s6.8,2.9,11,2.9c5.7,0,10.1-2,13.2-6c3.1-4,4.6-9.6,4.6-17V0h-9
							v32.7c0,5.2-0.9,9.1-2.8,11.7c-1.9,2.5-4.7,3.8-8.5,3.8c-4.7,0-8.3-1.5-11-4.6c-2.7-3.1-4-7.3-4-12.6V0h-9v32.7
							c0,5.3-0.9,9.2-2.8,11.7s-4.7,3.8-8.6,3.8c-4.6,0-8.2-1.6-11-4.7c-2.7-3.1-4-7.3-4-12.6V0h-9v54.7h9v-8.5
							c2.1,3.4,4.5,5.8,7.4,7.4c2.9,1.6,6.3,2.4,10.2,2.4c4,0,7.4-1,10.1-3C569.6,51,571.7,48,573,44.2z"/>
					</g>
					<g>
						<path id="DejaVuSans-47_2_" d="M643.8,72.9h8.3L626.7-9.3h-8.3L643.8,72.9z"/>
					</g>
					<g>
						<path id="DejaVuSans-115_2_" d="M696.4,53.1v-8.5c-2.5,1.3-5.2,2.3-7.9,2.9c-2.7,0.7-5.6,1-8.5,1c-4.5,0-7.8-0.7-10-2
							c-2.2-1.4-3.3-3.4-3.3-6.2c0-2.1,0.8-3.7,2.4-4.9s4.8-2.3,9.6-3.4l3.1-0.7c6.4-1.4,10.9-3.3,13.6-5.8s4-6,4-10.4
							c0-5.1-2-9.1-6-12.1c-4-3-9.5-4.4-16.6-4.4c-2.9,0-6,0.3-9.2,0.9c-3.2,0.6-6.5,1.4-10,2.6v9.3c3.3-1.7,6.6-3,9.8-3.9
							c3.2-0.9,6.4-1.3,9.6-1.3c4.2,0,7.5,0.7,9.8,2.2c2.3,1.4,3.4,3.5,3.4,6.1c0,2.4-0.8,4.3-2.5,5.6c-1.6,1.3-5.2,2.6-10.8,3.8
							l-3.1,0.7c-5.6,1.2-9.6,3-12.1,5.4c-2.5,2.4-3.7,5.8-3.7,10c0,5.1,1.8,9.1,5.5,11.9c3.6,2.8,8.8,4.2,15.5,4.2
							c3.3,0,6.4-0.2,9.4-0.7C691.2,54.8,693.9,54.1,696.4,53.1z"/>
					</g>
					<g>
						<path id="DejaVuSans-41_3_" d="M712.2,75.9h7.8c4.9-7.7,8.5-15.2,11-22.6c2.4-7.4,3.6-14.7,3.6-21.9c0-7.3-1.2-14.6-3.6-22
							c-2.4-7.4-6.1-14.9-11-22.6h-7.8c4.3,7.5,7.6,14.9,9.7,22.3c2.1,7.4,3.2,14.8,3.2,22.3c0,7.5-1.1,14.9-3.2,22.3
							C719.8,61,716.6,68.4,712.2,75.9z"/>
					</g>
				</g>
			</g>
		</g>
		<g id="matplotlib.axis_6">
			<g id="ytick_15">
				<g id="line2d_42">
					<g>
						<g>
							<path id="m49af40d7f4_14_" class="st2" d="M354.3,21.5h-3.5"/>
						</g>
					</g>
				</g>
			</g>
			<g id="ytick_16">
				<g id="line2d_43">
					<g>
						<g>
							<path id="m49af40d7f4_15_" class="st2" d="M354.3,56.9h-3.5"/>
						</g>
					</g>
				</g>
			</g>
			<g id="ytick_17">
				<g id="line2d_44">
					<g>
						<g>
							<path id="m49af40d7f4_16_" class="st2" d="M354.3,92.3h-3.5"/>
						</g>
					</g>
				</g>
			</g>
			<g id="ytick_18">
				<g id="line2d_45">
					<g>
						<g>
							<path id="m49af40d7f4_17_" class="st2" d="M354.3,127.7h-3.5"/>
						</g>
					</g>
				</g>
			</g>
			<g id="ytick_19">
				<g id="line2d_46">
					<g>
						<g>
							<path id="m49af40d7f4_18_" class="st2" d="M354.3,163.1h-3.5"/>
						</g>
					</g>
				</g>
			</g>
			<g id="ytick_20">
				<g id="line2d_47">
					<g>
						<g>
							<path id="m49af40d7f4_19_" class="st2" d="M354.3,198.5h-3.5"/>
						</g>
					</g>
				</g>
			</g>
			<g id="ytick_21">
				<g id="line2d_48">
					<g>
						<g>
							<path id="m49af40d7f4_20_" class="st2" d="M354.3,233.9h-3.5"/>
						</g>
					</g>
				</g>
			</g>
		</g>
		<g id="line2d_49">
			<g>
				<defs>
					<rect id="SVGID_19_" x="354.3" y="10.8" width="138.9" height="235.2"/>
				</defs>
				<clipPath id="SVGID_20_">
					<use xlink:href="#SVGID_19_"  style="overflow:visible;"/>
				</clipPath>
				<path class="st17" d="M361.7,21.5l0.2,1.4l0.8,1.4l1.4,1.4l0.9,1.4l-0.2,1.4l-0.7,1.4l-0.3,1.4l0.6,1.4l1.3,1.4l0.9,1.4l0.6,1.4
					l1.4,2.9l1.1,1.4l1.8,1.4l1,1.4l-0.6,1.4l-1.3,1.4l-0.4,1.4l1.3,1.4l2.8,1.4l1.8,1.4l-0.4,1.4l-1.4,1.4l-0.6,1.4l0.8,1.4
					l1.8,1.4l1.3,1.4l0.9,1.4l1.2,1.4l0.7,1.4l-0.1,1.4l-0.8,2.9l-0.4,1.4l-0.6,1.4l-0.3,1.4l0.1,1.4l0.5,2.9l0.5,1.4l0.8,1.4l1,2.9
					l0.5,1.4l0,1.4l-1.3,1.4l-2,1.4l-0.9,1.4l0.6,1.4l1.5,1.4l1.1,1.4l0.9,1.4l1.2,1.4l0.9,1.4l0.7,1.4l0.9,1.4l0.5,1.4l-0.2,1.4
					L385,107l-0.9,4.3l0.3,1.4l2.6,1.4l5.4,1.4l4.7,1.4l4.2,1.4l6.4,1.4l3.5,1.4l-4.4,1.4l-7.6,1.4l-4.5,1.4l-2.2,1.4l-2,1.4
					l-0.7,1.4l1.5,1.4l4.6,2.9l2.7,1.4l1.8,1.4l0.1,1.4l-2.9,2.9l-0.8,1.4l-0.6,1.4l1,1.4l2.3,1.4l1.3,2.9l5.3,1.4l25.9,2.9l5.2,1.4
					l-6.4,1.4l-9.7,1.4l-0.4,1.4l7,1.4l2.9,1.4l-2.9,1.4l-8.1,1.4l-9.6,1.4l-4.8,1.4l-1.3,1.4l-0.6,1.4l-1.7,1.4L399,174l-0.8,1.4
					l3.2,1.4l8.4,1.4l13.1,1.4l19.9,1.4l15.2,1.4l-8.5,1.4l-38.9,2.9l-13.3,1.4l-4.6,1.4l2.2,1.4l6.8,1.4l7.8,1.4l5.5,1.4l0.1,1.4
					l-1.3,1.4l2.3,1.4l5.9,1.4l3.2,1.4l-4.8,1.4l-7.6,1.4l-3.2,1.4l0.5,1.4l2.4,1.4l6.1,1.4l11.2,1.4l8.3,1.4l0.3,1.4l-2.6,1.4
					l-7.1,2.9l-0.7,1.4l4.4,1.4l8.7,1.4l5.7,1.4l3,1.4l5.8,1.4l1.4,1.4l-10.5,1.4l-14.1,1.4l-7.4,1.4l-2.2,1.4l0,0"/>
			</g>
		</g>
		<g id="line2d_50">
			<g>
				<defs>
					<rect id="SVGID_21_" x="354.3" y="10.8" width="138.9" height="235.2"/>
				</defs>
				<clipPath id="SVGID_22_">
					<use xlink:href="#SVGID_21_"  style="overflow:visible;"/>
				</clipPath>
				<path class="st18" d="M361.3,21.5v1.4l2.3,1.4l0.1,1.4l1.9,1.4l0.1,1.4l-1.5,1.4l0.1,1.4l-1.5,1.4l0.2,2.9l1.7,1.4l0.2,2.9
					l2.9,1.4l-1.4,1.4l-2.5,1.4l1.6,2.9l10.3,1.4l0.9,1.4l0.2,1.4l-1,1.4l2.7,1.4l-1.9,1.4l-0.7,1.4l2.9,1.4l0.2,1.4l-1.2,1.4
					l0.7,1.4l1.2,1.4l3.9,1.4l-3.4,1.4l1.9,1.4l-6.8,1.4l1.1,5.7l-2,1.4l0.9,4.3l8.3,1.4l1.1,5.7l-5.9,1.4l-0.1,2.9l0.3,1.4l1,1.4
					l1.4,7.1l6.5,1.4l-5.6,2.9l0.9,4.3l0.7,1.4l0.3,1.4l22.6,1.4l3.4,2.9l-6.9,1.4l3.4,1.4v2.9l-20,2.9l0.3,1.4l-2.5,1.4l0.3,1.4
					l6.5,1.4l0.3,1.4l-3.1,1.4l0.3,1.4l4.9,1.4l-4.3,1.4l-1.3,1.4l0.3,1.4l1.9,1.4l4.9,1.4l0.3,1.4l22.8,2.9l10.3,1.4l-10.3,1.4v1.4
					l-5.3,1.4v1.4l5.3,1.4v2.9l-34.3,1.4v4.3l3.4,2.9v1.4l65.1,1.4v7.1l-46.4,1.4v1.4l-3.9,1.4v2.9l5.3,1.4v2.9l16,1.4v4.3l-5.3,1.4
					v5.7l-4.6,2.9l9.1,1.4v4.3l-9.1,1.4v1.4l13.7,1.4l4.6,1.4v1.4l2.3,1.4v2.9l-20.6,1.4v2.9l-2.3,1.4v2.9l-3.4,1.4v1.4l0,0"/>
			</g>
		</g>
		<g id="line2d_51">
			<g>
				<defs>
					<rect id="SVGID_23_" x="354.3" y="10.8" width="138.9" height="235.2"/>
				</defs>
				<clipPath id="SVGID_24_">
					<use xlink:href="#SVGID_23_"  style="overflow:visible;"/>
				</clipPath>
				<path class="st19" d="M361.3,21.5v1.4l1.8,1.4l0.2,1.4l0.8,2.9l1.9,5.7l1.6,4.3l1.8,4.3l2,4.3l1,2.9l2.7,8.6l0.9,2.9l2,5.7
					l0.6,2.9l0.4,4.3l0.6,7.1l0.5,2.9l0.3,2.9l0.2,2.9l0.2,1.4l0.4,1.4l0.7,1.4l2.6,4.3l2.7,4.3l0.7,1.4l0.8,2.9l0.9,4.3l1.4,4.3
					l0.8,2.9l1.2,5.7l0.9,2.9l1.5,2.9l2.6,4.3l0.8,1.4l0.5,1.4l0.3,1.4l0.1,2.9l-0.2,2.9l-0.4,2.9l-0.1,1.4l0.5,1.4l1.2,1.4l5.1,4.3
					l3.5,2.9l1.2,1.4l2,4.3l1.2,2.9l0.9,2.9l0.6,2.9l0.5,2.9l0.7,4.3l0.7,2.9l1,2.9l3.1,7.1l0.2,1.4l-0.4,1.4l-1.2,2.9l-1.3,4.3
					l0.1,1.4l0.9,2.9l0.6,2.9l0.3,2.9l0,1.4l-0.4,2.9l-1.5,8.6l-0.7,4.3l-1.2,5.7l0,0"/>
			</g>
		</g>
		<g id="patch_17">
			<path class="st6" d="M354.3,246V10.8"/>
		</g>
		<g id="patch_18">
			<path class="st6" d="M493.2,246V10.8"/>
		</g>
		<g id="patch_19">
			<path class="st6" d="M354.3,246h138.9"/>
		</g>
		<g id="patch_20">
			<path class="st6" d="M354.3,10.8h138.9"/>
		</g>
	</g>
</g>
</svg>
