<?xml version="1.0" encoding="utf-8" standalone="no"?>
<!DOCTYPE svg PUBLIC "-//W3C//DTD SVG 1.1//EN"
  "http://www.w3.org/Graphics/SVG/1.1/DTD/svg11.dtd">
<!-- Created with matplotlib (https://matplotlib.org/) -->
<svg height="288pt" version="1.1" viewBox="0 0 504 288" width="504pt" xmlns="http://www.w3.org/2000/svg" xmlns:xlink="http://www.w3.org/1999/xlink">
 <defs>
  <style type="text/css">
*{stroke-linecap:butt;stroke-linejoin:round;}
  </style>
 </defs>
 <g id="figure_1">
  <g id="patch_1">
   <path d="M 0 288 
L 504 288 
L 504 0 
L 0 0 
z
" style="fill:none;"/>
  </g>
  <g id="axes_1">
   <g id="patch_2">
    <path d="M 47.81 246.04 
L 186.74 246.04 
L 186.74 10.8 
L 47.81 10.8 
z
" style="fill:none;"/>
   </g>
   <g id="PolyCollection_1">
    <path clip-path="url(#pf9a7c34e79)" d="M 58.302873 21.492727 
L 55.414287 21.492727 
L 55.63051 22.918424 
L 56.653673 24.344121 
L 58.535925 25.769818 
L 59.567413 27.195515 
L 58.665834 28.621212 
L 56.931147 30.046909 
L 56.11653 31.472606 
L 56.577366 32.898303 
L 57.737559 34.324 
L 58.394794 35.749697 
L 58.035128 37.175394 
L 57.214671 38.601091 
L 56.81083 40.026788 
L 57.064501 41.452485 
L 57.665635 42.878182 
L 57.965683 44.303879 
L 57.658227 45.729576 
L 57.047393 47.155273 
L 56.782894 48.58097 
L 57.159226 50.006667 
L 57.945166 51.432364 
L 58.457038 52.858061 
L 58.59826 54.283758 
L 58.641919 55.709455 
L 58.567843 57.135152 
L 58.134657 58.560848 
L 57.454077 59.986545 
L 57.1833 61.412242 
L 57.695729 62.837939 
L 58.751204 64.263636 
L 59.494447 65.689333 
L 59.906905 67.11503 
L 60.34836 68.540727 
L 60.608418 69.966424 
L 60.635818 71.392121 
L 60.578552 72.817818 
L 60.44193 74.243515 
L 59.977535 75.669212 
L 59.272161 77.094909 
L 59.050813 78.520606 
L 59.876903 79.946303 
L 61.528257 81.372 
L 62.5019 82.797697 
L 62.103376 84.223394 
L 61.117208 85.649091 
L 60.741133 87.074788 
L 61.584668 88.500485 
L 63.340266 89.926182 
L 64.487036 91.351879 
L 64.562654 92.777576 
L 64.266139 94.203273 
L 64.203083 95.62897 
L 64.769068 97.054667 
L 65.80928 98.480364 
L 66.228561 99.906061 
L 65.24127 101.331758 
L 63.561462 102.757455 
L 62.836951 104.183152 
L 63.660844 105.608848 
L 65.532256 107.034545 
L 66.999164 108.460242 
L 68.261325 109.885939 
L 70.000607 111.311636 
L 70.962946 112.737333 
L 70.426685 114.16303 
L 69.22774 115.588727 
L 68.77537 117.014424 
L 69.812166 118.440121 
L 71.943771 119.865818 
L 73.008272 121.291515 
L 71.905988 122.717212 
L 70.995667 124.142909 
L 72.557297 125.568606 
L 74.355686 126.994303 
L 74.902357 128.42 
L 75.258591 129.845697 
L 76.470041 131.271394 
L 78.662238 132.697091 
L 80.175386 134.122788 
L 80.176361 135.548485 
L 78.733398 136.974182 
L 78.765302 138.399879 
L 83.652309 139.825576 
L 90.297976 141.251273 
L 98.001125 142.67697 
L 106.158946 144.102667 
L 94.482384 145.528364 
L 78.851922 146.954061 
L 73.406126 148.379758 
L 72.986644 149.805455 
L 74.525122 151.231152 
L 77.242081 152.656848 
L 79.252822 154.082545 
L 80.575621 155.508242 
L 83.558385 156.933939 
L 88.287459 158.359636 
L 88.008801 159.785333 
L 83.260943 161.21103 
L 81.578121 162.636727 
L 82.275443 164.062424 
L 81.801791 165.488121 
L 80.939206 166.913818 
L 80.558794 168.339515 
L 81.743825 169.765212 
L 85.466133 171.190909 
L 88.132304 172.616606 
L 87.431793 174.042303 
L 86.927353 175.468 
L 89.690088 176.893697 
L 92.890621 178.319394 
L 95.429494 179.745091 
L 98.345637 181.170788 
L 98.355651 182.596485 
L 92.831297 184.022182 
L 85.950504 185.447879 
L 82.620595 186.873576 
L 81.720124 188.299273 
L 81.087825 189.72497 
L 80.214383 191.150667 
L 80.986051 192.576364 
L 85.512665 194.002061 
L 91.549859 195.427758 
L 100.107549 196.853455 
L 114.992611 198.279152 
L 122.361024 199.704848 
L 115.775386 201.130545 
L 111.382181 202.556242 
L 110.823637 203.981939 
L 110.589615 205.407636 
L 106.891616 206.833333 
L 95.820155 208.25903 
L 85.148926 209.684727 
L 81.922465 211.110424 
L 83.651503 212.536121 
L 85.923791 213.961818 
L 86.614171 215.387515 
L 85.507426 216.813212 
L 85.1077 218.238909 
L 87.940537 219.664606 
L 93.701529 221.090303 
L 95.705265 222.516 
L 92.563944 223.941697 
L 89.73724 225.367394 
L 88.148563 226.793091 
L 87.65503 228.218788 
L 87.906165 229.644485 
L 88.104197 231.070182 
L 87.530023 232.495879 
L 84.714312 233.921576 
L 81.081148 235.347273 
L 146.550261 235.347273 
L 146.550261 235.347273 
L 135.274283 233.921576 
L 125.297759 232.495879 
L 120.055657 231.070182 
L 125.694656 229.644485 
L 144.42484 228.218788 
L 149.384941 226.793091 
L 135.793757 225.367394 
L 135.499313 223.941697 
L 151.508475 222.516 
L 163.452097 221.090303 
L 158.95828 219.664606 
L 152.708396 218.238909 
L 147.234364 216.813212 
L 146.479095 215.387515 
L 154.539964 213.961818 
L 155.121584 212.536121 
L 145.4735 211.110424 
L 143.425173 209.684727 
L 150.799704 208.25903 
L 161.479886 206.833333 
L 172.365536 205.407636 
L 178.89666 203.981939 
L 180.406538 202.556242 
L 180.425 201.130545 
L 179.134432 199.704848 
L 173.452079 198.279152 
L 163.080791 196.853455 
L 146.721733 195.427758 
L 122.412132 194.002061 
L 107.234679 192.576364 
L 106.806553 191.150667 
L 113.40639 189.72497 
L 121.152597 188.299273 
L 127.631872 186.873576 
L 137.042339 185.447879 
L 154.708416 184.022182 
L 165.200211 182.596485 
L 148.667073 181.170788 
L 127.443405 179.745091 
L 117.086337 178.319394 
L 110.856105 176.893697 
L 105.356775 175.468 
L 102.699747 174.042303 
L 101.817489 172.616606 
L 100.135693 171.190909 
L 97.288805 169.765212 
L 95.253443 168.339515 
L 95.205448 166.913818 
L 98.665995 165.488121 
L 105.134915 164.062424 
L 108.332721 162.636727 
L 110.162671 161.21103 
L 112.59878 159.785333 
L 106.907722 158.359636 
L 97.095087 156.933939 
L 93.129336 155.508242 
L 93.498588 154.082545 
L 94.040995 152.656848 
L 93.874509 151.231152 
L 94.250525 149.805455 
L 97.482998 148.379758 
L 108.994769 146.954061 
L 133.284976 145.528364 
L 142.643652 144.102667 
L 125.888287 142.67697 
L 114.197116 141.251273 
L 104.170469 139.825576 
L 95.597541 138.399879 
L 92.805401 136.974182 
L 93.390569 135.548485 
L 94.650156 134.122788 
L 95.86703 132.697091 
L 96.442687 131.271394 
L 94.08163 129.845697 
L 89.783805 128.42 
L 87.984743 126.994303 
L 89.170984 125.568606 
L 89.009799 124.142909 
L 84.843529 122.717212 
L 82.092598 121.291515 
L 82.029084 119.865818 
L 82.93991 118.440121 
L 83.106536 117.014424 
L 81.274714 115.588727 
L 78.39961 114.16303 
L 76.801748 112.737333 
L 76.303004 111.311636 
L 75.985612 109.885939 
L 75.606744 108.460242 
L 74.641008 107.034545 
L 73.220207 105.608848 
L 72.611204 104.183152 
L 73.389156 102.757455 
L 75.042602 101.331758 
L 75.739316 99.906061 
L 74.209703 98.480364 
L 71.620131 97.054667 
L 70.102176 95.62897 
L 69.304919 94.203273 
L 68.481221 92.777576 
L 67.936736 91.351879 
L 67.479738 89.926182 
L 66.920228 88.500485 
L 66.813843 87.074788 
L 67.808594 85.649091 
L 69.692053 84.223394 
L 70.333482 82.797697 
L 67.931516 81.372 
L 64.335398 79.946303 
L 62.651148 78.520606 
L 62.942589 77.094909 
L 64.089698 75.669212 
L 64.795189 74.243515 
L 64.694254 72.817818 
L 64.266517 71.392121 
L 64.058137 69.966424 
L 64.250164 68.540727 
L 64.647482 67.11503 
L 64.645084 65.689333 
L 63.567601 64.263636 
L 61.889268 62.837939 
L 61.105159 61.412242 
L 61.596709 59.986545 
L 62.795612 58.560848 
L 63.465748 57.135152 
L 63.079888 55.709455 
L 62.194469 54.283758 
L 61.57558 52.858061 
L 61.004102 51.432364 
L 60.2788 50.006667 
L 59.970614 48.58097 
L 60.397643 47.155273 
L 61.286133 45.729576 
L 61.762055 44.303879 
L 61.436832 42.878182 
L 60.730905 41.452485 
L 60.378281 40.026788 
L 60.588249 38.601091 
L 61.092227 37.175394 
L 61.388033 35.749697 
L 61.347579 34.324 
L 61.181286 32.898303 
L 61.227068 31.472606 
L 61.925557 30.046909 
L 63.176094 28.621212 
L 63.62194 27.195515 
L 62.156744 25.769818 
L 59.812959 24.344121 
L 58.56488 22.918424 
L 58.302873 21.492727 
z
" style="fill:#1f77b4;fill-opacity:0.3;"/>
   </g>
   <g id="matplotlib.axis_1">
    <g id="xtick_1">
     <g id="line2d_1">
      <defs>
       <path d="M 0 0 
L 0 3.5 
" id="m038d477d95" style="stroke:#000000;stroke-width:0.8;"/>
      </defs>
      <g>
       <use style="stroke:#000000;stroke-width:0.8;" x="66.293915" xlink:href="#m038d477d95" y="246.04"/>
      </g>
     </g>
     <g id="text_1">
      <!-- 2 -->
      <defs>
       <path d="M 19.1875 8.296875 
L 53.609375 8.296875 
L 53.609375 0 
L 7.328125 0 
L 7.328125 8.296875 
Q 12.9375 14.109375 22.625 23.890625 
Q 32.328125 33.6875 34.8125 36.53125 
Q 39.546875 41.84375 41.421875 45.53125 
Q 43.3125 49.21875 43.3125 52.78125 
Q 43.3125 58.59375 39.234375 62.25 
Q 35.15625 65.921875 28.609375 65.921875 
Q 23.96875 65.921875 18.8125 64.3125 
Q 13.671875 62.703125 7.8125 59.421875 
L 7.8125 69.390625 
Q 13.765625 71.78125 18.9375 73 
Q 24.125 74.21875 28.421875 74.21875 
Q 39.75 74.21875 46.484375 68.546875 
Q 53.21875 62.890625 53.21875 53.421875 
Q 53.21875 48.921875 51.53125 44.890625 
Q 49.859375 40.875 45.40625 35.40625 
Q 44.1875 33.984375 37.640625 27.21875 
Q 31.109375 20.453125 19.1875 8.296875 
z
" id="DejaVuSans-50"/>
      </defs>
      <g transform="translate(63.112665 260.638438)scale(0.1 -0.1)">
       <use xlink:href="#DejaVuSans-50"/>
      </g>
     </g>
    </g>
    <g id="xtick_2">
     <g id="line2d_2">
      <g>
       <use style="stroke:#000000;stroke-width:0.8;" x="111.991884" xlink:href="#m038d477d95" y="246.04"/>
      </g>
     </g>
     <g id="text_2">
      <!-- 4 -->
      <defs>
       <path d="M 37.796875 64.3125 
L 12.890625 25.390625 
L 37.796875 25.390625 
z
M 35.203125 72.90625 
L 47.609375 72.90625 
L 47.609375 25.390625 
L 58.015625 25.390625 
L 58.015625 17.1875 
L 47.609375 17.1875 
L 47.609375 0 
L 37.796875 0 
L 37.796875 17.1875 
L 4.890625 17.1875 
L 4.890625 26.703125 
z
" id="DejaVuSans-52"/>
      </defs>
      <g transform="translate(108.810634 260.638438)scale(0.1 -0.1)">
       <use xlink:href="#DejaVuSans-52"/>
      </g>
     </g>
    </g>
    <g id="xtick_3">
     <g id="line2d_3">
      <g>
       <use style="stroke:#000000;stroke-width:0.8;" x="157.689854" xlink:href="#m038d477d95" y="246.04"/>
      </g>
     </g>
     <g id="text_3">
      <!-- 6 -->
      <defs>
       <path d="M 33.015625 40.375 
Q 26.375 40.375 22.484375 35.828125 
Q 18.609375 31.296875 18.609375 23.390625 
Q 18.609375 15.53125 22.484375 10.953125 
Q 26.375 6.390625 33.015625 6.390625 
Q 39.65625 6.390625 43.53125 10.953125 
Q 47.40625 15.53125 47.40625 23.390625 
Q 47.40625 31.296875 43.53125 35.828125 
Q 39.65625 40.375 33.015625 40.375 
z
M 52.59375 71.296875 
L 52.59375 62.3125 
Q 48.875 64.0625 45.09375 64.984375 
Q 41.3125 65.921875 37.59375 65.921875 
Q 27.828125 65.921875 22.671875 59.328125 
Q 17.53125 52.734375 16.796875 39.40625 
Q 19.671875 43.65625 24.015625 45.921875 
Q 28.375 48.1875 33.59375 48.1875 
Q 44.578125 48.1875 50.953125 41.515625 
Q 57.328125 34.859375 57.328125 23.390625 
Q 57.328125 12.15625 50.6875 5.359375 
Q 44.046875 -1.421875 33.015625 -1.421875 
Q 20.359375 -1.421875 13.671875 8.265625 
Q 6.984375 17.96875 6.984375 36.375 
Q 6.984375 53.65625 15.1875 63.9375 
Q 23.390625 74.21875 37.203125 74.21875 
Q 40.921875 74.21875 44.703125 73.484375 
Q 48.484375 72.75 52.59375 71.296875 
z
" id="DejaVuSans-54"/>
      </defs>
      <g transform="translate(154.508604 260.638438)scale(0.1 -0.1)">
       <use xlink:href="#DejaVuSans-54"/>
      </g>
     </g>
    </g>
    <g id="text_4">
     <!-- Velocity (km/s) -->
     <defs>
      <path d="M 28.609375 0 
L 0.78125 72.90625 
L 11.078125 72.90625 
L 34.1875 11.53125 
L 57.328125 72.90625 
L 67.578125 72.90625 
L 39.796875 0 
z
" id="DejaVuSans-86"/>
      <path d="M 56.203125 29.59375 
L 56.203125 25.203125 
L 14.890625 25.203125 
Q 15.484375 15.921875 20.484375 11.0625 
Q 25.484375 6.203125 34.421875 6.203125 
Q 39.59375 6.203125 44.453125 7.46875 
Q 49.3125 8.734375 54.109375 11.28125 
L 54.109375 2.78125 
Q 49.265625 0.734375 44.1875 -0.34375 
Q 39.109375 -1.421875 33.890625 -1.421875 
Q 20.796875 -1.421875 13.15625 6.1875 
Q 5.515625 13.8125 5.515625 26.8125 
Q 5.515625 40.234375 12.765625 48.109375 
Q 20.015625 56 32.328125 56 
Q 43.359375 56 49.78125 48.890625 
Q 56.203125 41.796875 56.203125 29.59375 
z
M 47.21875 32.234375 
Q 47.125 39.59375 43.09375 43.984375 
Q 39.0625 48.390625 32.421875 48.390625 
Q 24.90625 48.390625 20.390625 44.140625 
Q 15.875 39.890625 15.1875 32.171875 
z
" id="DejaVuSans-101"/>
      <path d="M 9.421875 75.984375 
L 18.40625 75.984375 
L 18.40625 0 
L 9.421875 0 
z
" id="DejaVuSans-108"/>
      <path d="M 30.609375 48.390625 
Q 23.390625 48.390625 19.1875 42.75 
Q 14.984375 37.109375 14.984375 27.296875 
Q 14.984375 17.484375 19.15625 11.84375 
Q 23.34375 6.203125 30.609375 6.203125 
Q 37.796875 6.203125 41.984375 11.859375 
Q 46.1875 17.53125 46.1875 27.296875 
Q 46.1875 37.015625 41.984375 42.703125 
Q 37.796875 48.390625 30.609375 48.390625 
z
M 30.609375 56 
Q 42.328125 56 49.015625 48.375 
Q 55.71875 40.765625 55.71875 27.296875 
Q 55.71875 13.875 49.015625 6.21875 
Q 42.328125 -1.421875 30.609375 -1.421875 
Q 18.84375 -1.421875 12.171875 6.21875 
Q 5.515625 13.875 5.515625 27.296875 
Q 5.515625 40.765625 12.171875 48.375 
Q 18.84375 56 30.609375 56 
z
" id="DejaVuSans-111"/>
      <path d="M 48.78125 52.59375 
L 48.78125 44.1875 
Q 44.96875 46.296875 41.140625 47.34375 
Q 37.3125 48.390625 33.40625 48.390625 
Q 24.65625 48.390625 19.8125 42.84375 
Q 14.984375 37.3125 14.984375 27.296875 
Q 14.984375 17.28125 19.8125 11.734375 
Q 24.65625 6.203125 33.40625 6.203125 
Q 37.3125 6.203125 41.140625 7.25 
Q 44.96875 8.296875 48.78125 10.40625 
L 48.78125 2.09375 
Q 45.015625 0.34375 40.984375 -0.53125 
Q 36.96875 -1.421875 32.421875 -1.421875 
Q 20.0625 -1.421875 12.78125 6.34375 
Q 5.515625 14.109375 5.515625 27.296875 
Q 5.515625 40.671875 12.859375 48.328125 
Q 20.21875 56 33.015625 56 
Q 37.15625 56 41.109375 55.140625 
Q 45.0625 54.296875 48.78125 52.59375 
z
" id="DejaVuSans-99"/>
      <path d="M 9.421875 54.6875 
L 18.40625 54.6875 
L 18.40625 0 
L 9.421875 0 
z
M 9.421875 75.984375 
L 18.40625 75.984375 
L 18.40625 64.59375 
L 9.421875 64.59375 
z
" id="DejaVuSans-105"/>
      <path d="M 18.3125 70.21875 
L 18.3125 54.6875 
L 36.8125 54.6875 
L 36.8125 47.703125 
L 18.3125 47.703125 
L 18.3125 18.015625 
Q 18.3125 11.328125 20.140625 9.421875 
Q 21.96875 7.515625 27.59375 7.515625 
L 36.8125 7.515625 
L 36.8125 0 
L 27.59375 0 
Q 17.1875 0 13.234375 3.875 
Q 9.28125 7.765625 9.28125 18.015625 
L 9.28125 47.703125 
L 2.6875 47.703125 
L 2.6875 54.6875 
L 9.28125 54.6875 
L 9.28125 70.21875 
z
" id="DejaVuSans-116"/>
      <path d="M 32.171875 -5.078125 
Q 28.375 -14.84375 24.75 -17.8125 
Q 21.140625 -20.796875 15.09375 -20.796875 
L 7.90625 -20.796875 
L 7.90625 -13.28125 
L 13.1875 -13.28125 
Q 16.890625 -13.28125 18.9375 -11.515625 
Q 21 -9.765625 23.484375 -3.21875 
L 25.09375 0.875 
L 2.984375 54.6875 
L 12.5 54.6875 
L 29.59375 11.921875 
L 46.6875 54.6875 
L 56.203125 54.6875 
z
" id="DejaVuSans-121"/>
      <path id="DejaVuSans-32"/>
      <path d="M 31 75.875 
Q 24.46875 64.65625 21.28125 53.65625 
Q 18.109375 42.671875 18.109375 31.390625 
Q 18.109375 20.125 21.3125 9.0625 
Q 24.515625 -2 31 -13.1875 
L 23.1875 -13.1875 
Q 15.875 -1.703125 12.234375 9.375 
Q 8.59375 20.453125 8.59375 31.390625 
Q 8.59375 42.28125 12.203125 53.3125 
Q 15.828125 64.359375 23.1875 75.875 
z
" id="DejaVuSans-40"/>
      <path d="M 9.078125 75.984375 
L 18.109375 75.984375 
L 18.109375 31.109375 
L 44.921875 54.6875 
L 56.390625 54.6875 
L 27.390625 29.109375 
L 57.625 0 
L 45.90625 0 
L 18.109375 26.703125 
L 18.109375 0 
L 9.078125 0 
z
" id="DejaVuSans-107"/>
      <path d="M 52 44.1875 
Q 55.375 50.25 60.0625 53.125 
Q 64.75 56 71.09375 56 
Q 79.640625 56 84.28125 50.015625 
Q 88.921875 44.046875 88.921875 33.015625 
L 88.921875 0 
L 79.890625 0 
L 79.890625 32.71875 
Q 79.890625 40.578125 77.09375 44.375 
Q 74.3125 48.1875 68.609375 48.1875 
Q 61.625 48.1875 57.5625 43.546875 
Q 53.515625 38.921875 53.515625 30.90625 
L 53.515625 0 
L 44.484375 0 
L 44.484375 32.71875 
Q 44.484375 40.625 41.703125 44.40625 
Q 38.921875 48.1875 33.109375 48.1875 
Q 26.21875 48.1875 22.15625 43.53125 
Q 18.109375 38.875 18.109375 30.90625 
L 18.109375 0 
L 9.078125 0 
L 9.078125 54.6875 
L 18.109375 54.6875 
L 18.109375 46.1875 
Q 21.1875 51.21875 25.484375 53.609375 
Q 29.78125 56 35.6875 56 
Q 41.65625 56 45.828125 52.96875 
Q 50 49.953125 52 44.1875 
z
" id="DejaVuSans-109"/>
      <path d="M 25.390625 72.90625 
L 33.6875 72.90625 
L 8.296875 -9.28125 
L 0 -9.28125 
z
" id="DejaVuSans-47"/>
      <path d="M 44.28125 53.078125 
L 44.28125 44.578125 
Q 40.484375 46.53125 36.375 47.5 
Q 32.28125 48.484375 27.875 48.484375 
Q 21.1875 48.484375 17.84375 46.4375 
Q 14.5 44.390625 14.5 40.28125 
Q 14.5 37.15625 16.890625 35.375 
Q 19.28125 33.59375 26.515625 31.984375 
L 29.59375 31.296875 
Q 39.15625 29.25 43.1875 25.515625 
Q 47.21875 21.78125 47.21875 15.09375 
Q 47.21875 7.46875 41.1875 3.015625 
Q 35.15625 -1.421875 24.609375 -1.421875 
Q 20.21875 -1.421875 15.453125 -0.5625 
Q 10.6875 0.296875 5.421875 2 
L 5.421875 11.28125 
Q 10.40625 8.6875 15.234375 7.390625 
Q 20.0625 6.109375 24.8125 6.109375 
Q 31.15625 6.109375 34.5625 8.28125 
Q 37.984375 10.453125 37.984375 14.40625 
Q 37.984375 18.0625 35.515625 20.015625 
Q 33.0625 21.96875 24.703125 23.78125 
L 21.578125 24.515625 
Q 13.234375 26.265625 9.515625 29.90625 
Q 5.8125 33.546875 5.8125 39.890625 
Q 5.8125 47.609375 11.28125 51.796875 
Q 16.75 56 26.8125 56 
Q 31.78125 56 36.171875 55.265625 
Q 40.578125 54.546875 44.28125 53.078125 
z
" id="DejaVuSans-115"/>
      <path d="M 8.015625 75.875 
L 15.828125 75.875 
Q 23.140625 64.359375 26.78125 53.3125 
Q 30.421875 42.28125 30.421875 31.390625 
Q 30.421875 20.453125 26.78125 9.375 
Q 23.140625 -1.703125 15.828125 -13.1875 
L 8.015625 -13.1875 
Q 14.5 -2 17.703125 9.0625 
Q 20.90625 20.125 20.90625 31.390625 
Q 20.90625 42.671875 17.703125 53.65625 
Q 14.5 64.65625 8.015625 75.875 
z
" id="DejaVuSans-41"/>
     </defs>
     <g transform="translate(80.114063 274.316562)scale(0.1 -0.1)">
      <use xlink:href="#DejaVuSans-86"/>
      <use x="60.658203" xlink:href="#DejaVuSans-101"/>
      <use x="122.181641" xlink:href="#DejaVuSans-108"/>
      <use x="149.964844" xlink:href="#DejaVuSans-111"/>
      <use x="211.146484" xlink:href="#DejaVuSans-99"/>
      <use x="266.126953" xlink:href="#DejaVuSans-105"/>
      <use x="293.910156" xlink:href="#DejaVuSans-116"/>
      <use x="333.119141" xlink:href="#DejaVuSans-121"/>
      <use x="392.298828" xlink:href="#DejaVuSans-32"/>
      <use x="424.085938" xlink:href="#DejaVuSans-40"/>
      <use x="463.099609" xlink:href="#DejaVuSans-107"/>
      <use x="521.009766" xlink:href="#DejaVuSans-109"/>
      <use x="618.421875" xlink:href="#DejaVuSans-47"/>
      <use x="652.113281" xlink:href="#DejaVuSans-115"/>
      <use x="704.212891" xlink:href="#DejaVuSans-41"/>
     </g>
    </g>
   </g>
   <g id="matplotlib.axis_2">
    <g id="ytick_1">
     <g id="line2d_4">
      <defs>
       <path d="M 0 0 
L -3.5 0 
" id="m49af40d7f4" style="stroke:#000000;stroke-width:0.8;"/>
      </defs>
      <g>
       <use style="stroke:#000000;stroke-width:0.8;" x="47.81" xlink:href="#m49af40d7f4" y="21.492727"/>
      </g>
     </g>
     <g id="text_5">
      <!-- 0.0 -->
      <defs>
       <path d="M 31.78125 66.40625 
Q 24.171875 66.40625 20.328125 58.90625 
Q 16.5 51.421875 16.5 36.375 
Q 16.5 21.390625 20.328125 13.890625 
Q 24.171875 6.390625 31.78125 6.390625 
Q 39.453125 6.390625 43.28125 13.890625 
Q 47.125 21.390625 47.125 36.375 
Q 47.125 51.421875 43.28125 58.90625 
Q 39.453125 66.40625 31.78125 66.40625 
z
M 31.78125 74.21875 
Q 44.046875 74.21875 50.515625 64.515625 
Q 56.984375 54.828125 56.984375 36.375 
Q 56.984375 17.96875 50.515625 8.265625 
Q 44.046875 -1.421875 31.78125 -1.421875 
Q 19.53125 -1.421875 13.0625 8.265625 
Q 6.59375 17.96875 6.59375 36.375 
Q 6.59375 54.828125 13.0625 64.515625 
Q 19.53125 74.21875 31.78125 74.21875 
z
" id="DejaVuSans-48"/>
       <path d="M 10.6875 12.40625 
L 21 12.40625 
L 21 0 
L 10.6875 0 
z
" id="DejaVuSans-46"/>
      </defs>
      <g transform="translate(24.906875 25.291946)scale(0.1 -0.1)">
       <use xlink:href="#DejaVuSans-48"/>
       <use x="63.623047" xlink:href="#DejaVuSans-46"/>
       <use x="95.410156" xlink:href="#DejaVuSans-48"/>
      </g>
     </g>
    </g>
    <g id="ytick_2">
     <g id="line2d_5">
      <g>
       <use style="stroke:#000000;stroke-width:0.8;" x="47.81" xlink:href="#m49af40d7f4" y="56.899109"/>
      </g>
     </g>
     <g id="text_6">
      <!-- 0.5 -->
      <defs>
       <path d="M 10.796875 72.90625 
L 49.515625 72.90625 
L 49.515625 64.59375 
L 19.828125 64.59375 
L 19.828125 46.734375 
Q 21.96875 47.46875 24.109375 47.828125 
Q 26.265625 48.1875 28.421875 48.1875 
Q 40.625 48.1875 47.75 41.5 
Q 54.890625 34.8125 54.890625 23.390625 
Q 54.890625 11.625 47.5625 5.09375 
Q 40.234375 -1.421875 26.90625 -1.421875 
Q 22.3125 -1.421875 17.546875 -0.640625 
Q 12.796875 0.140625 7.71875 1.703125 
L 7.71875 11.625 
Q 12.109375 9.234375 16.796875 8.0625 
Q 21.484375 6.890625 26.703125 6.890625 
Q 35.15625 6.890625 40.078125 11.328125 
Q 45.015625 15.765625 45.015625 23.390625 
Q 45.015625 31 40.078125 35.4375 
Q 35.15625 39.890625 26.703125 39.890625 
Q 22.75 39.890625 18.8125 39.015625 
Q 14.890625 38.140625 10.796875 36.28125 
z
" id="DejaVuSans-53"/>
      </defs>
      <g transform="translate(24.906875 60.698328)scale(0.1 -0.1)">
       <use xlink:href="#DejaVuSans-48"/>
       <use x="63.623047" xlink:href="#DejaVuSans-46"/>
       <use x="95.410156" xlink:href="#DejaVuSans-53"/>
      </g>
     </g>
    </g>
    <g id="ytick_3">
     <g id="line2d_6">
      <g>
       <use style="stroke:#000000;stroke-width:0.8;" x="47.81" xlink:href="#m49af40d7f4" y="92.305491"/>
      </g>
     </g>
     <g id="text_7">
      <!-- 1.0 -->
      <defs>
       <path d="M 12.40625 8.296875 
L 28.515625 8.296875 
L 28.515625 63.921875 
L 10.984375 60.40625 
L 10.984375 69.390625 
L 28.421875 72.90625 
L 38.28125 72.90625 
L 38.28125 8.296875 
L 54.390625 8.296875 
L 54.390625 0 
L 12.40625 0 
z
" id="DejaVuSans-49"/>
      </defs>
      <g transform="translate(24.906875 96.104709)scale(0.1 -0.1)">
       <use xlink:href="#DejaVuSans-49"/>
       <use x="63.623047" xlink:href="#DejaVuSans-46"/>
       <use x="95.410156" xlink:href="#DejaVuSans-48"/>
      </g>
     </g>
    </g>
    <g id="ytick_4">
     <g id="line2d_7">
      <g>
       <use style="stroke:#000000;stroke-width:0.8;" x="47.81" xlink:href="#m49af40d7f4" y="127.711872"/>
      </g>
     </g>
     <g id="text_8">
      <!-- 1.5 -->
      <g transform="translate(24.906875 131.511091)scale(0.1 -0.1)">
       <use xlink:href="#DejaVuSans-49"/>
       <use x="63.623047" xlink:href="#DejaVuSans-46"/>
       <use x="95.410156" xlink:href="#DejaVuSans-53"/>
      </g>
     </g>
    </g>
    <g id="ytick_5">
     <g id="line2d_8">
      <g>
       <use style="stroke:#000000;stroke-width:0.8;" x="47.81" xlink:href="#m49af40d7f4" y="163.118254"/>
      </g>
     </g>
     <g id="text_9">
      <!-- 2.0 -->
      <g transform="translate(24.906875 166.917473)scale(0.1 -0.1)">
       <use xlink:href="#DejaVuSans-50"/>
       <use x="63.623047" xlink:href="#DejaVuSans-46"/>
       <use x="95.410156" xlink:href="#DejaVuSans-48"/>
      </g>
     </g>
    </g>
    <g id="ytick_6">
     <g id="line2d_9">
      <g>
       <use style="stroke:#000000;stroke-width:0.8;" x="47.81" xlink:href="#m49af40d7f4" y="198.524636"/>
      </g>
     </g>
     <g id="text_10">
      <!-- 2.5 -->
      <g transform="translate(24.906875 202.323855)scale(0.1 -0.1)">
       <use xlink:href="#DejaVuSans-50"/>
       <use x="63.623047" xlink:href="#DejaVuSans-46"/>
       <use x="95.410156" xlink:href="#DejaVuSans-53"/>
      </g>
     </g>
    </g>
    <g id="ytick_7">
     <g id="line2d_10">
      <g>
       <use style="stroke:#000000;stroke-width:0.8;" x="47.81" xlink:href="#m49af40d7f4" y="233.931017"/>
      </g>
     </g>
     <g id="text_11">
      <!-- 3.0 -->
      <defs>
       <path d="M 40.578125 39.3125 
Q 47.65625 37.796875 51.625 33 
Q 55.609375 28.21875 55.609375 21.1875 
Q 55.609375 10.40625 48.1875 4.484375 
Q 40.765625 -1.421875 27.09375 -1.421875 
Q 22.515625 -1.421875 17.65625 -0.515625 
Q 12.796875 0.390625 7.625 2.203125 
L 7.625 11.71875 
Q 11.71875 9.328125 16.59375 8.109375 
Q 21.484375 6.890625 26.8125 6.890625 
Q 36.078125 6.890625 40.9375 10.546875 
Q 45.796875 14.203125 45.796875 21.1875 
Q 45.796875 27.640625 41.28125 31.265625 
Q 36.765625 34.90625 28.71875 34.90625 
L 20.21875 34.90625 
L 20.21875 43.015625 
L 29.109375 43.015625 
Q 36.375 43.015625 40.234375 45.921875 
Q 44.09375 48.828125 44.09375 54.296875 
Q 44.09375 59.90625 40.109375 62.90625 
Q 36.140625 65.921875 28.71875 65.921875 
Q 24.65625 65.921875 20.015625 65.03125 
Q 15.375 64.15625 9.8125 62.3125 
L 9.8125 71.09375 
Q 15.4375 72.65625 20.34375 73.4375 
Q 25.25 74.21875 29.59375 74.21875 
Q 40.828125 74.21875 47.359375 69.109375 
Q 53.90625 64.015625 53.90625 55.328125 
Q 53.90625 49.265625 50.4375 45.09375 
Q 46.96875 40.921875 40.578125 39.3125 
z
" id="DejaVuSans-51"/>
      </defs>
      <g transform="translate(24.906875 237.730236)scale(0.1 -0.1)">
       <use xlink:href="#DejaVuSans-51"/>
       <use x="63.623047" xlink:href="#DejaVuSans-46"/>
       <use x="95.410156" xlink:href="#DejaVuSans-48"/>
      </g>
     </g>
    </g>
    <g id="text_12">
     <!-- Depth (km) -->
     <defs>
      <path d="M 19.671875 64.796875 
L 19.671875 8.109375 
L 31.59375 8.109375 
Q 46.6875 8.109375 53.6875 14.9375 
Q 60.6875 21.78125 60.6875 36.53125 
Q 60.6875 51.171875 53.6875 57.984375 
Q 46.6875 64.796875 31.59375 64.796875 
z
M 9.8125 72.90625 
L 30.078125 72.90625 
Q 51.265625 72.90625 61.171875 64.09375 
Q 71.09375 55.28125 71.09375 36.53125 
Q 71.09375 17.671875 61.125 8.828125 
Q 51.171875 0 30.078125 0 
L 9.8125 0 
z
" id="DejaVuSans-68"/>
      <path d="M 18.109375 8.203125 
L 18.109375 -20.796875 
L 9.078125 -20.796875 
L 9.078125 54.6875 
L 18.109375 54.6875 
L 18.109375 46.390625 
Q 20.953125 51.265625 25.265625 53.625 
Q 29.59375 56 35.59375 56 
Q 45.5625 56 51.78125 48.09375 
Q 58.015625 40.1875 58.015625 27.296875 
Q 58.015625 14.40625 51.78125 6.484375 
Q 45.5625 -1.421875 35.59375 -1.421875 
Q 29.59375 -1.421875 25.265625 0.953125 
Q 20.953125 3.328125 18.109375 8.203125 
z
M 48.6875 27.296875 
Q 48.6875 37.203125 44.609375 42.84375 
Q 40.53125 48.484375 33.40625 48.484375 
Q 26.265625 48.484375 22.1875 42.84375 
Q 18.109375 37.203125 18.109375 27.296875 
Q 18.109375 17.390625 22.1875 11.75 
Q 26.265625 6.109375 33.40625 6.109375 
Q 40.53125 6.109375 44.609375 11.75 
Q 48.6875 17.390625 48.6875 27.296875 
z
" id="DejaVuSans-112"/>
      <path d="M 54.890625 33.015625 
L 54.890625 0 
L 45.90625 0 
L 45.90625 32.71875 
Q 45.90625 40.484375 42.875 44.328125 
Q 39.84375 48.1875 33.796875 48.1875 
Q 26.515625 48.1875 22.3125 43.546875 
Q 18.109375 38.921875 18.109375 30.90625 
L 18.109375 0 
L 9.078125 0 
L 9.078125 75.984375 
L 18.109375 75.984375 
L 18.109375 46.1875 
Q 21.34375 51.125 25.703125 53.5625 
Q 30.078125 56 35.796875 56 
Q 45.21875 56 50.046875 50.171875 
Q 54.890625 44.34375 54.890625 33.015625 
z
" id="DejaVuSans-104"/>
     </defs>
     <g transform="translate(18.827188 156.905938)rotate(-90)scale(0.1 -0.1)">
      <use xlink:href="#DejaVuSans-68"/>
      <use x="77.001953" xlink:href="#DejaVuSans-101"/>
      <use x="138.525391" xlink:href="#DejaVuSans-112"/>
      <use x="202.001953" xlink:href="#DejaVuSans-116"/>
      <use x="241.210938" xlink:href="#DejaVuSans-104"/>
      <use x="304.589844" xlink:href="#DejaVuSans-32"/>
      <use x="336.376953" xlink:href="#DejaVuSans-40"/>
      <use x="375.390625" xlink:href="#DejaVuSans-107"/>
      <use x="433.300781" xlink:href="#DejaVuSans-109"/>
      <use x="530.712891" xlink:href="#DejaVuSans-41"/>
     </g>
    </g>
   </g>
   <g id="line2d_11">
    <path clip-path="url(#pf9a7c34e79)" d="M 57.318695 21.492727 
L 57.506018 22.918424 
L 58.384164 24.344121 
L 59.968756 25.769818 
L 60.889023 27.195515 
L 60.467592 28.621212 
L 59.454234 30.046909 
L 58.912498 31.472606 
L 59.002869 32.898303 
L 59.35667 34.324 
L 59.52236 35.749697 
L 59.292859 37.175394 
L 58.853098 38.601091 
L 58.669377 40.026788 
L 58.983107 41.452485 
L 59.604782 42.878182 
L 59.846831 44.303879 
L 59.233932 45.729576 
L 58.167108 47.155273 
L 57.656598 48.58097 
L 57.993361 50.006667 
L 58.804532 51.432364 
L 60.523091 55.709455 
L 60.841769 57.135152 
L 60.590162 58.560848 
L 60.05833 59.986545 
L 59.800452 61.412242 
L 60.007525 62.837939 
L 60.475354 64.263636 
L 61.052502 67.11503 
L 61.584337 69.966424 
L 62.178797 74.243515 
L 61.684313 75.669212 
L 60.864096 77.094909 
L 60.604134 78.520606 
L 61.555012 79.946303 
L 63.477575 81.372 
L 64.617691 82.797697 
L 64.117811 84.223394 
L 62.91596 85.649091 
L 62.423006 87.074788 
L 63.247906 88.500485 
L 65.009702 89.926182 
L 66.184041 91.351879 
L 66.384879 92.777576 
L 66.294318 94.203273 
L 66.405385 95.62897 
L 67.259449 97.054667 
L 68.801032 98.480364 
L 69.696158 99.906061 
L 69.374722 101.331758 
L 68.533242 102.757455 
L 68.249314 104.183152 
L 69.186617 105.608848 
L 71.075059 107.034545 
L 72.390241 108.460242 
L 73.919609 112.737333 
L 75.336388 114.16303 
L 77.818046 115.588727 
L 79.337932 117.014424 
L 78.994298 118.440121 
L 77.881554 119.865818 
L 77.392081 121.291515 
L 78.037723 122.717212 
L 79.255542 124.142909 
L 79.804915 125.568606 
L 80.12678 126.994303 
L 81.825136 128.42 
L 85.055288 129.845697 
L 87.41848 131.271394 
L 88.196096 132.697091 
L 87.842522 134.122788 
L 85.349851 136.974182 
L 86.45395 138.399879 
L 92.073275 139.825576 
L 99.126293 141.251273 
L 108.405979 142.67697 
L 121.767169 144.102667 
L 114.431743 145.528364 
L 95.138111 146.954061 
L 85.912543 148.379758 
L 83.583652 149.805455 
L 84.20026 151.231152 
L 85.672217 152.656848 
L 86.321538 154.082545 
L 86.704431 155.508242 
L 89.887599 156.933939 
L 96.525071 158.359636 
L 99.213752 159.785333 
L 96.348944 161.21103 
L 94.77553 162.636727 
L 93.887228 164.062424 
L 91.307611 165.488121 
L 89.269416 166.913818 
L 87.877876 168.339515 
L 88.032896 169.765212 
L 91.523668 171.190909 
L 94.474347 172.616606 
L 94.045736 174.042303 
L 94.22354 175.468 
L 98.61185 176.893697 
L 103.564284 178.319394 
L 109.71721 181.170788 
L 112.140883 182.596485 
L 110.636761 184.022182 
L 104.907974 185.447879 
L 100.725789 186.873576 
L 97.363468 188.299273 
L 93.297266 189.72497 
L 90.814329 191.150667 
L 93.33055 192.576364 
L 104.491366 194.002061 
L 119.508827 195.427758 
L 132.653803 196.853455 
L 148.063197 198.279152 
L 158.781311 199.704848 
L 160.164457 201.130545 
L 158.166474 202.556242 
L 153.912956 203.981939 
L 144.461162 205.407636 
L 129.520925 206.833333 
L 112.533263 208.25903 
L 100.109011 209.684727 
L 97.640028 211.110424 
L 102.119231 212.536121 
L 105.654885 213.961818 
L 103.871018 215.387515 
L 99.551648 216.813212 
L 98.026374 218.238909 
L 102.548009 219.664606 
L 112.253231 221.090303 
L 112.649678 222.516 
L 103.709104 223.941697 
L 100.039656 225.367394 
L 101.144551 226.793091 
L 101.7176 228.218788 
L 100.95903 229.644485 
L 101.66471 231.070182 
L 104.675902 232.495879 
L 109.501092 233.921576 
L 115.293362 235.347273 
L 115.293362 235.347273 
" style="fill:none;stroke:#1f77b4;stroke-linecap:square;stroke-width:0.5;"/>
   </g>
   <g id="line2d_12">
    <path clip-path="url(#pf9a7c34e79)" d="M 54.869422 21.492727 
L 54.869422 22.918424 
L 60.810158 24.344121 
L 61.038648 27.195515 
L 58.867994 28.621212 
L 59.210731 32.898303 
L 60.581669 35.749697 
L 60.695913 37.175394 
L 57.611301 38.601091 
L 57.725545 40.026788 
L 58.753749 41.452485 
L 58.982238 44.303879 
L 60.353179 47.155273 
L 60.467424 48.58097 
L 57.611301 50.006667 
L 59.66771 52.858061 
L 61.609872 54.283758 
L 61.952606 58.560848 
L 59.43922 59.986545 
L 59.8962 61.412242 
L 60.695913 62.837939 
L 59.8962 64.263636 
L 59.553465 65.689333 
L 59.8962 67.11503 
L 63.209302 68.540727 
L 63.323547 69.966424 
L 62.409588 72.817818 
L 62.523833 74.243515 
L 64.237505 75.669212 
L 61.495627 78.520606 
L 62.181099 79.946303 
L 63.552036 81.372 
L 62.181099 84.223394 
L 60.695913 85.649091 
L 61.038648 89.926182 
L 62.866568 92.777576 
L 63.095057 95.62897 
L 65.95118 97.054667 
L 66.065425 98.480364 
L 63.209302 99.906061 
L 62.181099 101.331758 
L 62.980812 102.757455 
L 76.233222 104.183152 
L 76.575959 107.034545 
L 77.60416 109.885939 
L 78.118263 114.16303 
L 77.14718 115.588727 
L 77.489917 118.440121 
L 80.174675 119.865818 
L 78.289634 121.291515 
L 77.547041 122.717212 
L 77.718407 124.142909 
L 80.80302 126.994303 
L 81.659855 134.122788 
L 80.460283 135.548485 
L 80.80302 138.399879 
L 112.848719 139.825576 
L 116.790172 141.251273 
L 117.532759 142.67697 
L 114.162533 144.102667 
L 117.190027 145.528364 
L 84.573101 146.954061 
L 82.859426 149.805455 
L 87.143611 151.231152 
L 85.25857 152.656848 
L 85.144328 155.508242 
L 85.429942 156.933939 
L 86.401024 158.359636 
L 87.257859 162.636727 
L 88.000451 164.062424 
L 88.571673 166.913818 
L 86.11541 168.339515 
L 92.570249 169.765212 
L 89.428513 171.190909 
L 88.114693 172.616606 
L 89.200023 174.042303 
L 94.855146 175.468 
L 95.426372 178.319394 
L 111.991884 179.745091 
L 111.991884 181.170788 
L 77.718407 182.596485 
L 77.718407 184.022182 
L 81.145757 185.447879 
L 76.347469 186.873576 
L 77.718407 189.72497 
L 146.265361 191.150667 
L 146.265361 201.130545 
L 90.285348 203.981939 
L 90.285348 206.833333 
L 101.70984 208.25903 
L 101.70984 212.536121 
L 94.855146 215.387515 
L 94.855146 218.238909 
L 107.422086 219.664606 
L 105.13719 221.090303 
L 105.13719 222.516 
L 102.852288 223.941697 
L 102.852288 226.793091 
L 97.140042 228.218788 
L 97.140042 231.070182 
L 93.712697 232.495879 
L 93.712697 235.347273 
L 93.712697 235.347273 
" style="fill:none;stroke:#000000;stroke-linecap:square;stroke-width:0.5;"/>
   </g>
   <g id="line2d_13">
    <path clip-path="url(#pf9a7c34e79)" d="M 54.869422 21.492727 
L 54.869422 22.918424 
L 57.211006 24.344121 
L 59.770976 47.155273 
L 60.251299 54.283758 
L 62.589448 82.797697 
L 63.423346 85.649091 
L 65.378185 91.351879 
L 67.445294 97.054667 
L 70.400267 104.183152 
L 75.699792 115.588727 
L 76.467716 117.014424 
L 77.57591 118.440121 
L 83.051043 124.142909 
L 83.871759 125.568606 
L 84.476614 126.994303 
L 87.108236 135.548485 
L 88.565225 141.251273 
L 89.437582 145.528364 
L 90.979795 156.933939 
L 92.215581 159.785333 
L 91.910773 161.21103 
L 91.250169 162.636727 
L 88.670549 166.913818 
L 88.075106 168.339515 
L 89.173591 169.765212 
L 92.32106 172.616606 
L 95.642627 175.468 
L 99.305996 178.319394 
L 101.228601 179.745091 
L 102.690541 181.170788 
L 105.014888 185.447879 
L 106.995362 189.72497 
L 107.627795 191.150667 
L 109.382382 196.853455 
L 109.764378 199.704848 
L 109.838198 201.130545 
L 109.148612 203.981939 
L 109.800552 206.833333 
L 110.59284 212.536121 
L 109.47179 213.961818 
L 106.905974 216.813212 
L 104.629729 219.664606 
L 102.658352 222.516 
L 101.788257 223.941697 
L 101.463505 225.367394 
L 103.054561 232.495879 
L 103.571515 235.347273 
L 103.571515 235.347273 
" style="fill:none;stroke:#ff7f0e;stroke-linecap:square;stroke-width:0.5;"/>
   </g>
   <g id="patch_3">
    <path d="M 47.81 246.04 
L 47.81 10.8 
" style="fill:none;stroke:#000000;stroke-linecap:square;stroke-linejoin:miter;stroke-width:0.8;"/>
   </g>
   <g id="patch_4">
    <path d="M 186.74 246.04 
L 186.74 10.8 
" style="fill:none;stroke:#000000;stroke-linecap:square;stroke-linejoin:miter;stroke-width:0.8;"/>
   </g>
   <g id="patch_5">
    <path d="M 47.81 246.04 
L 186.74 246.04 
" style="fill:none;stroke:#000000;stroke-linecap:square;stroke-linejoin:miter;stroke-width:0.8;"/>
   </g>
   <g id="patch_6">
    <path d="M 47.81 10.8 
L 186.74 10.8 
" style="fill:none;stroke:#000000;stroke-linecap:square;stroke-linejoin:miter;stroke-width:0.8;"/>
   </g>
   <g id="legend_1">
    <g id="patch_7">
     <path d="M 110.462188 50.8275 
L 182.54 50.8275 
Q 183.74 50.8275 183.74 49.6275 
L 183.74 15 
Q 183.74 13.8 182.54 13.8 
L 110.462188 13.8 
Q 109.262188 13.8 109.262188 15 
L 109.262188 49.6275 
Q 109.262188 50.8275 110.462188 50.8275 
z
" style="fill:#ffffff;opacity:0.8;stroke:#cccccc;stroke-linejoin:miter;"/>
    </g>
    <g id="line2d_14">
     <path d="M 111.662188 18.659063 
L 123.662188 18.659063 
" style="fill:none;stroke:#1f77b4;stroke-linecap:square;stroke-width:0.5;"/>
    </g>
    <g id="line2d_15"/>
    <g id="text_13">
     <!-- Median -->
     <defs>
      <path d="M 9.8125 72.90625 
L 24.515625 72.90625 
L 43.109375 23.296875 
L 61.8125 72.90625 
L 76.515625 72.90625 
L 76.515625 0 
L 66.890625 0 
L 66.890625 64.015625 
L 48.09375 14.015625 
L 38.1875 14.015625 
L 19.390625 64.015625 
L 19.390625 0 
L 9.8125 0 
z
" id="DejaVuSans-77"/>
      <path d="M 45.40625 46.390625 
L 45.40625 75.984375 
L 54.390625 75.984375 
L 54.390625 0 
L 45.40625 0 
L 45.40625 8.203125 
Q 42.578125 3.328125 38.25 0.953125 
Q 33.9375 -1.421875 27.875 -1.421875 
Q 17.96875 -1.421875 11.734375 6.484375 
Q 5.515625 14.40625 5.515625 27.296875 
Q 5.515625 40.1875 11.734375 48.09375 
Q 17.96875 56 27.875 56 
Q 33.9375 56 38.25 53.625 
Q 42.578125 51.265625 45.40625 46.390625 
z
M 14.796875 27.296875 
Q 14.796875 17.390625 18.875 11.75 
Q 22.953125 6.109375 30.078125 6.109375 
Q 37.203125 6.109375 41.296875 11.75 
Q 45.40625 17.390625 45.40625 27.296875 
Q 45.40625 37.203125 41.296875 42.84375 
Q 37.203125 48.484375 30.078125 48.484375 
Q 22.953125 48.484375 18.875 42.84375 
Q 14.796875 37.203125 14.796875 27.296875 
z
" id="DejaVuSans-100"/>
      <path d="M 34.28125 27.484375 
Q 23.390625 27.484375 19.1875 25 
Q 14.984375 22.515625 14.984375 16.5 
Q 14.984375 11.71875 18.140625 8.90625 
Q 21.296875 6.109375 26.703125 6.109375 
Q 34.1875 6.109375 38.703125 11.40625 
Q 43.21875 16.703125 43.21875 25.484375 
L 43.21875 27.484375 
z
M 52.203125 31.203125 
L 52.203125 0 
L 43.21875 0 
L 43.21875 8.296875 
Q 40.140625 3.328125 35.546875 0.953125 
Q 30.953125 -1.421875 24.3125 -1.421875 
Q 15.921875 -1.421875 10.953125 3.296875 
Q 6 8.015625 6 15.921875 
Q 6 25.140625 12.171875 29.828125 
Q 18.359375 34.515625 30.609375 34.515625 
L 43.21875 34.515625 
L 43.21875 35.40625 
Q 43.21875 41.609375 39.140625 45 
Q 35.0625 48.390625 27.6875 48.390625 
Q 23 48.390625 18.546875 47.265625 
Q 14.109375 46.140625 10.015625 43.890625 
L 10.015625 52.203125 
Q 14.9375 54.109375 19.578125 55.046875 
Q 24.21875 56 28.609375 56 
Q 40.484375 56 46.34375 49.84375 
Q 52.203125 43.703125 52.203125 31.203125 
z
" id="DejaVuSans-97"/>
      <path d="M 54.890625 33.015625 
L 54.890625 0 
L 45.90625 0 
L 45.90625 32.71875 
Q 45.90625 40.484375 42.875 44.328125 
Q 39.84375 48.1875 33.796875 48.1875 
Q 26.515625 48.1875 22.3125 43.546875 
Q 18.109375 38.921875 18.109375 30.90625 
L 18.109375 0 
L 9.078125 0 
L 9.078125 54.6875 
L 18.109375 54.6875 
L 18.109375 46.1875 
Q 21.34375 51.125 25.703125 53.5625 
Q 30.078125 56 35.796875 56 
Q 45.21875 56 50.046875 50.171875 
Q 54.890625 44.34375 54.890625 33.015625 
z
" id="DejaVuSans-110"/>
     </defs>
     <g transform="translate(128.462188 20.759063)scale(0.06 -0.06)">
      <use xlink:href="#DejaVuSans-77"/>
      <use x="86.279297" xlink:href="#DejaVuSans-101"/>
      <use x="147.802734" xlink:href="#DejaVuSans-100"/>
      <use x="211.279297" xlink:href="#DejaVuSans-105"/>
      <use x="239.0625" xlink:href="#DejaVuSans-97"/>
      <use x="300.341797" xlink:href="#DejaVuSans-110"/>
     </g>
    </g>
    <g id="line2d_16">
     <path d="M 111.662188 27.465938 
L 123.662188 27.465938 
" style="fill:none;stroke:#000000;stroke-linecap:square;stroke-width:0.5;"/>
    </g>
    <g id="line2d_17"/>
    <g id="text_14">
     <!-- Reference -->
     <defs>
      <path d="M 44.390625 34.1875 
Q 47.5625 33.109375 50.5625 29.59375 
Q 53.5625 26.078125 56.59375 19.921875 
L 66.609375 0 
L 56 0 
L 46.6875 18.703125 
Q 43.0625 26.03125 39.671875 28.421875 
Q 36.28125 30.8125 30.421875 30.8125 
L 19.671875 30.8125 
L 19.671875 0 
L 9.8125 0 
L 9.8125 72.90625 
L 32.078125 72.90625 
Q 44.578125 72.90625 50.734375 67.671875 
Q 56.890625 62.453125 56.890625 51.90625 
Q 56.890625 45.015625 53.6875 40.46875 
Q 50.484375 35.9375 44.390625 34.1875 
z
M 19.671875 64.796875 
L 19.671875 38.921875 
L 32.078125 38.921875 
Q 39.203125 38.921875 42.84375 42.21875 
Q 46.484375 45.515625 46.484375 51.90625 
Q 46.484375 58.296875 42.84375 61.546875 
Q 39.203125 64.796875 32.078125 64.796875 
z
" id="DejaVuSans-82"/>
      <path d="M 37.109375 75.984375 
L 37.109375 68.5 
L 28.515625 68.5 
Q 23.6875 68.5 21.796875 66.546875 
Q 19.921875 64.59375 19.921875 59.515625 
L 19.921875 54.6875 
L 34.71875 54.6875 
L 34.71875 47.703125 
L 19.921875 47.703125 
L 19.921875 0 
L 10.890625 0 
L 10.890625 47.703125 
L 2.296875 47.703125 
L 2.296875 54.6875 
L 10.890625 54.6875 
L 10.890625 58.5 
Q 10.890625 67.625 15.140625 71.796875 
Q 19.390625 75.984375 28.609375 75.984375 
z
" id="DejaVuSans-102"/>
      <path d="M 41.109375 46.296875 
Q 39.59375 47.171875 37.8125 47.578125 
Q 36.03125 48 33.890625 48 
Q 26.265625 48 22.1875 43.046875 
Q 18.109375 38.09375 18.109375 28.8125 
L 18.109375 0 
L 9.078125 0 
L 9.078125 54.6875 
L 18.109375 54.6875 
L 18.109375 46.1875 
Q 20.953125 51.171875 25.484375 53.578125 
Q 30.03125 56 36.53125 56 
Q 37.453125 56 38.578125 55.875 
Q 39.703125 55.765625 41.0625 55.515625 
z
" id="DejaVuSans-114"/>
     </defs>
     <g transform="translate(128.462188 29.565938)scale(0.06 -0.06)">
      <use xlink:href="#DejaVuSans-82"/>
      <use x="64.982422" xlink:href="#DejaVuSans-101"/>
      <use x="126.505859" xlink:href="#DejaVuSans-102"/>
      <use x="161.710938" xlink:href="#DejaVuSans-101"/>
      <use x="223.234375" xlink:href="#DejaVuSans-114"/>
      <use x="262.097656" xlink:href="#DejaVuSans-101"/>
      <use x="323.621094" xlink:href="#DejaVuSans-110"/>
      <use x="387" xlink:href="#DejaVuSans-99"/>
      <use x="441.980469" xlink:href="#DejaVuSans-101"/>
     </g>
    </g>
    <g id="line2d_18">
     <path d="M 111.662188 36.272813 
L 123.662188 36.272813 
" style="fill:none;stroke:#ff7f0e;stroke-linecap:square;stroke-width:0.5;"/>
    </g>
    <g id="line2d_19"/>
    <g id="text_15">
     <!-- Initial -->
     <defs>
      <path d="M 9.8125 72.90625 
L 19.671875 72.90625 
L 19.671875 0 
L 9.8125 0 
z
" id="DejaVuSans-73"/>
     </defs>
     <g transform="translate(128.462188 38.372813)scale(0.06 -0.06)">
      <use xlink:href="#DejaVuSans-73"/>
      <use x="29.492188" xlink:href="#DejaVuSans-110"/>
      <use x="92.871094" xlink:href="#DejaVuSans-105"/>
      <use x="120.654297" xlink:href="#DejaVuSans-116"/>
      <use x="159.863281" xlink:href="#DejaVuSans-105"/>
      <use x="187.646484" xlink:href="#DejaVuSans-97"/>
      <use x="248.925781" xlink:href="#DejaVuSans-108"/>
     </g>
    </g>
    <g id="patch_8">
     <path d="M 111.662188 47.179688 
L 123.662188 47.179688 
L 123.662188 42.979688 
L 111.662188 42.979688 
z
" style="fill:#1f77b4;opacity:0.3;"/>
    </g>
    <g id="text_16">
     <!-- 95% HPD Interval -->
     <defs>
      <path d="M 10.984375 1.515625 
L 10.984375 10.5 
Q 14.703125 8.734375 18.5 7.8125 
Q 22.3125 6.890625 25.984375 6.890625 
Q 35.75 6.890625 40.890625 13.453125 
Q 46.046875 20.015625 46.78125 33.40625 
Q 43.953125 29.203125 39.59375 26.953125 
Q 35.25 24.703125 29.984375 24.703125 
Q 19.046875 24.703125 12.671875 31.3125 
Q 6.296875 37.9375 6.296875 49.421875 
Q 6.296875 60.640625 12.9375 67.421875 
Q 19.578125 74.21875 30.609375 74.21875 
Q 43.265625 74.21875 49.921875 64.515625 
Q 56.59375 54.828125 56.59375 36.375 
Q 56.59375 19.140625 48.40625 8.859375 
Q 40.234375 -1.421875 26.421875 -1.421875 
Q 22.703125 -1.421875 18.890625 -0.6875 
Q 15.09375 0.046875 10.984375 1.515625 
z
M 30.609375 32.421875 
Q 37.25 32.421875 41.125 36.953125 
Q 45.015625 41.5 45.015625 49.421875 
Q 45.015625 57.28125 41.125 61.84375 
Q 37.25 66.40625 30.609375 66.40625 
Q 23.96875 66.40625 20.09375 61.84375 
Q 16.21875 57.28125 16.21875 49.421875 
Q 16.21875 41.5 20.09375 36.953125 
Q 23.96875 32.421875 30.609375 32.421875 
z
" id="DejaVuSans-57"/>
      <path d="M 72.703125 32.078125 
Q 68.453125 32.078125 66.03125 28.46875 
Q 63.625 24.859375 63.625 18.40625 
Q 63.625 12.0625 66.03125 8.421875 
Q 68.453125 4.78125 72.703125 4.78125 
Q 76.859375 4.78125 79.265625 8.421875 
Q 81.6875 12.0625 81.6875 18.40625 
Q 81.6875 24.8125 79.265625 28.4375 
Q 76.859375 32.078125 72.703125 32.078125 
z
M 72.703125 38.28125 
Q 80.421875 38.28125 84.953125 32.90625 
Q 89.5 27.546875 89.5 18.40625 
Q 89.5 9.28125 84.9375 3.921875 
Q 80.375 -1.421875 72.703125 -1.421875 
Q 64.890625 -1.421875 60.34375 3.921875 
Q 55.8125 9.28125 55.8125 18.40625 
Q 55.8125 27.59375 60.375 32.9375 
Q 64.9375 38.28125 72.703125 38.28125 
z
M 22.3125 68.015625 
Q 18.109375 68.015625 15.6875 64.375 
Q 13.28125 60.75 13.28125 54.390625 
Q 13.28125 47.953125 15.671875 44.328125 
Q 18.0625 40.71875 22.3125 40.71875 
Q 26.5625 40.71875 28.96875 44.328125 
Q 31.390625 47.953125 31.390625 54.390625 
Q 31.390625 60.6875 28.953125 64.34375 
Q 26.515625 68.015625 22.3125 68.015625 
z
M 66.40625 74.21875 
L 74.21875 74.21875 
L 28.609375 -1.421875 
L 20.796875 -1.421875 
z
M 22.3125 74.21875 
Q 30.03125 74.21875 34.609375 68.875 
Q 39.203125 63.53125 39.203125 54.390625 
Q 39.203125 45.171875 34.640625 39.84375 
Q 30.078125 34.515625 22.3125 34.515625 
Q 14.546875 34.515625 10.03125 39.859375 
Q 5.515625 45.21875 5.515625 54.390625 
Q 5.515625 63.484375 10.046875 68.84375 
Q 14.59375 74.21875 22.3125 74.21875 
z
" id="DejaVuSans-37"/>
      <path d="M 9.8125 72.90625 
L 19.671875 72.90625 
L 19.671875 43.015625 
L 55.515625 43.015625 
L 55.515625 72.90625 
L 65.375 72.90625 
L 65.375 0 
L 55.515625 0 
L 55.515625 34.71875 
L 19.671875 34.71875 
L 19.671875 0 
L 9.8125 0 
z
" id="DejaVuSans-72"/>
      <path d="M 19.671875 64.796875 
L 19.671875 37.40625 
L 32.078125 37.40625 
Q 38.96875 37.40625 42.71875 40.96875 
Q 46.484375 44.53125 46.484375 51.125 
Q 46.484375 57.671875 42.71875 61.234375 
Q 38.96875 64.796875 32.078125 64.796875 
z
M 9.8125 72.90625 
L 32.078125 72.90625 
Q 44.34375 72.90625 50.609375 67.359375 
Q 56.890625 61.8125 56.890625 51.125 
Q 56.890625 40.328125 50.609375 34.8125 
Q 44.34375 29.296875 32.078125 29.296875 
L 19.671875 29.296875 
L 19.671875 0 
L 9.8125 0 
z
" id="DejaVuSans-80"/>
      <path d="M 2.984375 54.6875 
L 12.5 54.6875 
L 29.59375 8.796875 
L 46.6875 54.6875 
L 56.203125 54.6875 
L 35.6875 0 
L 23.484375 0 
z
" id="DejaVuSans-118"/>
     </defs>
     <g transform="translate(128.462188 47.179688)scale(0.06 -0.06)">
      <use xlink:href="#DejaVuSans-57"/>
      <use x="63.623047" xlink:href="#DejaVuSans-53"/>
      <use x="127.246094" xlink:href="#DejaVuSans-37"/>
      <use x="222.265625" xlink:href="#DejaVuSans-32"/>
      <use x="254.052734" xlink:href="#DejaVuSans-72"/>
      <use x="329.248047" xlink:href="#DejaVuSans-80"/>
      <use x="389.550781" xlink:href="#DejaVuSans-68"/>
      <use x="466.552734" xlink:href="#DejaVuSans-32"/>
      <use x="498.339844" xlink:href="#DejaVuSans-73"/>
      <use x="527.832031" xlink:href="#DejaVuSans-110"/>
      <use x="591.210938" xlink:href="#DejaVuSans-116"/>
      <use x="630.419922" xlink:href="#DejaVuSans-101"/>
      <use x="691.943359" xlink:href="#DejaVuSans-114"/>
      <use x="733.056641" xlink:href="#DejaVuSans-118"/>
      <use x="792.236328" xlink:href="#DejaVuSans-97"/>
      <use x="853.515625" xlink:href="#DejaVuSans-108"/>
     </g>
    </g>
   </g>
  </g>
  <g id="axes_2">
   <g id="patch_9">
    <path d="M 201.04 246.04 
L 339.97 246.04 
L 339.97 10.8 
L 201.04 10.8 
z
" style="fill:none;"/>
   </g>
   <g id="PolyCollection_2">
    <path clip-path="url(#p0cae286add)" d="M 209.549808 21.492727 
L 207.649968 21.492727 
L 207.804443 22.918424 
L 208.52564 24.344121 
L 209.824839 25.769818 
L 210.724807 27.195515 
L 211.105126 28.621212 
L 211.410566 30.046909 
L 211.432815 31.472606 
L 210.758829 32.898303 
L 209.665684 34.324 
L 209.038889 35.749697 
L 208.870216 37.175394 
L 208.81978 38.601091 
L 209.014946 40.026788 
L 210.100293 41.452485 
L 212.167603 42.878182 
L 213.872662 44.303879 
L 215.57713 45.729576 
L 218.177081 47.155273 
L 219.882324 48.58097 
L 219.815448 50.006667 
L 219.05629 51.432364 
L 218.569555 52.858061 
L 218.349402 54.283758 
L 218.148718 55.709455 
L 218.059772 57.135152 
L 218.160669 58.560848 
L 218.365076 59.986545 
L 218.429567 61.412242 
L 218.168659 62.837939 
L 217.713278 64.263636 
L 217.541871 65.689333 
L 217.956489 67.11503 
L 218.774669 68.540727 
L 219.345058 69.966424 
L 219.695099 71.392121 
L 220.102866 72.817818 
L 220.457177 74.243515 
L 221.031494 75.669212 
L 221.933722 77.094909 
L 222.519853 78.520606 
L 222.725582 79.946303 
L 222.852103 81.372 
L 222.800064 82.797697 
L 222.249323 84.223394 
L 221.372974 85.649091 
L 221.064911 87.074788 
L 221.929326 88.500485 
L 223.683714 89.926182 
L 224.954005 91.351879 
L 225.719875 92.777576 
L 226.615212 94.203273 
L 227.498674 95.62897 
L 229.287372 97.054667 
L 232.420426 98.480364 
L 234.611672 99.906061 
L 235.224332 101.331758 
L 235.415712 102.757455 
L 235.405504 104.183152 
L 234.951668 105.608848 
L 234.161875 107.034545 
L 233.325041 108.460242 
L 231.573589 109.885939 
L 229.131053 111.311636 
L 227.961212 112.737333 
L 228.459164 114.16303 
L 229.79223 115.588727 
L 230.442819 117.014424 
L 229.615955 118.440121 
L 228.069826 119.865818 
L 227.406574 121.291515 
L 228.318995 122.717212 
L 230.442195 124.142909 
L 232.043039 125.568606 
L 232.534877 126.994303 
L 232.819566 128.42 
L 232.431706 129.845697 
L 230.992642 131.271394 
L 229.820823 132.697091 
L 229.916744 134.122788 
L 230.359383 135.548485 
L 229.843799 136.974182 
L 229.896214 138.399879 
L 231.271133 139.825576 
L 232.360291 141.251273 
L 233.261526 142.67697 
L 234.530707 144.102667 
L 234.119918 145.528364 
L 231.666183 146.954061 
L 228.610847 148.379758 
L 225.783952 149.805455 
L 224.813188 151.231152 
L 225.771371 152.656848 
L 227.32854 154.082545 
L 228.403884 155.508242 
L 229.82789 156.933939 
L 231.855813 158.359636 
L 232.103568 159.785333 
L 231.912945 161.21103 
L 234.410331 162.636727 
L 237.089316 164.062424 
L 237.713718 165.488121 
L 236.935486 166.913818 
L 235.134929 168.339515 
L 234.628434 169.765212 
L 237.702347 171.190909 
L 240.585885 172.616606 
L 240.590165 174.042303 
L 240.34376 175.468 
L 242.329982 176.893697 
L 244.635112 178.319394 
L 243.571118 179.745091 
L 239.497138 181.170788 
L 235.794891 182.596485 
L 234.009211 184.022182 
L 233.981691 185.447879 
L 234.85689 186.873576 
L 236.472396 188.299273 
L 238.990126 189.72497 
L 242.623019 191.150667 
L 247.143697 192.576364 
L 247.648425 194.002061 
L 243.953874 195.427758 
L 241.66781 196.853455 
L 241.5792 198.279152 
L 243.310404 199.704848 
L 246.076631 201.130545 
L 246.610166 202.556242 
L 244.385106 203.981939 
L 242.323693 205.407636 
L 241.466015 206.833333 
L 240.909818 208.25903 
L 241.204913 209.684727 
L 243.322313 211.110424 
L 245.037389 212.536121 
L 245.12962 213.961818 
L 244.650177 215.387515 
L 244.267627 216.813212 
L 242.473138 218.238909 
L 239.145773 219.664606 
L 237.948019 221.090303 
L 240.994998 222.516 
L 247.346272 223.941697 
L 249.894776 225.367394 
L 247.060995 226.793091 
L 244.599576 228.218788 
L 243.677772 229.644485 
L 243.289376 231.070182 
L 241.386394 232.495879 
L 239.120862 233.921576 
L 238.694181 235.347273 
L 285.884764 235.347273 
L 285.884764 235.347273 
L 286.526081 233.921576 
L 289.384135 232.495879 
L 295.899534 231.070182 
L 308.343101 229.644485 
L 322.636766 228.218788 
L 329.990403 226.793091 
L 327.173062 225.367394 
L 309.846156 223.941697 
L 290.333761 222.516 
L 282.008757 221.090303 
L 282.157173 219.664606 
L 281.412633 218.238909 
L 274.329187 216.813212 
L 271.383248 215.387515 
L 274.248019 213.961818 
L 277.221001 212.536121 
L 279.550167 211.110424 
L 282.971458 209.684727 
L 285.915973 208.25903 
L 287.45948 206.833333 
L 289.181612 205.407636 
L 289.299919 203.981939 
L 285.864641 202.556242 
L 285.487771 201.130545 
L 289.780336 199.704848 
L 293.785393 198.279152 
L 298.110129 196.853455 
L 307.000504 195.427758 
L 317.167481 194.002061 
L 322.321877 192.576364 
L 322.223719 191.150667 
L 314.391881 189.72497 
L 300.949362 188.299273 
L 289.838563 186.873576 
L 280.302681 185.447879 
L 273.440469 184.022182 
L 274.010573 182.596485 
L 278.878391 181.170788 
L 281.037834 179.745091 
L 277.645488 178.319394 
L 269.542548 176.893697 
L 261.311155 175.468 
L 256.753411 174.042303 
L 256.965409 172.616606 
L 264.392425 171.190909 
L 278.616549 169.765212 
L 281.33713 168.339515 
L 272.303923 166.913818 
L 264.026777 165.488121 
L 261.04175 164.062424 
L 263.881112 162.636727 
L 272.064051 161.21103 
L 279.291289 159.785333 
L 273.953589 158.359636 
L 262.539489 156.933939 
L 255.852566 155.508242 
L 251.215113 154.082545 
L 246.769495 152.656848 
L 245.377842 151.231152 
L 250.114785 149.805455 
L 261.444129 148.379758 
L 268.475218 146.954061 
L 265.392499 145.528364 
L 260.500934 144.102667 
L 256.567578 142.67697 
L 254.407883 141.251273 
L 252.585713 139.825576 
L 250.87694 138.399879 
L 251.730315 136.974182 
L 255.726559 135.548485 
L 259.129689 134.122788 
L 259.415943 132.697091 
L 257.364323 131.271394 
L 254.504107 129.845697 
L 251.899926 128.42 
L 249.602751 126.994303 
L 248.131618 125.568606 
L 245.463171 124.142909 
L 240.182148 122.717212 
L 237.361808 121.291515 
L 238.170642 119.865818 
L 240.850173 118.440121 
L 242.898655 117.014424 
L 244.354441 115.588727 
L 246.188603 114.16303 
L 247.424133 112.737333 
L 248.053205 111.311636 
L 248.698832 109.885939 
L 249.242476 108.460242 
L 250.086314 107.034545 
L 251.427858 105.608848 
L 252.682424 104.183152 
L 254.908231 102.757455 
L 258.497369 101.331758 
L 258.878034 99.906061 
L 251.320839 98.480364 
L 241.925679 97.054667 
L 238.103226 95.62897 
L 239.420305 94.203273 
L 243.427587 92.777576 
L 245.44258 91.351879 
L 242.319206 89.926182 
L 237.22986 88.500485 
L 234.77027 87.074788 
L 234.900935 85.649091 
L 236.008251 84.223394 
L 236.635959 82.797697 
L 236.320873 81.372 
L 235.532768 79.946303 
L 234.713691 78.520606 
L 233.05759 77.094909 
L 230.714031 75.669212 
L 229.305115 74.243515 
L 228.485855 72.817818 
L 227.590243 71.392121 
L 226.980943 69.966424 
L 226.41594 68.540727 
L 225.678653 67.11503 
L 225.206541 65.689333 
L 224.906442 64.263636 
L 224.569568 62.837939 
L 224.448511 61.412242 
L 224.765422 59.986545 
L 225.380442 58.560848 
L 225.834979 57.135152 
L 226.249567 55.709455 
L 226.833728 54.283758 
L 227.478085 52.858061 
L 228.968868 51.432364 
L 231.482857 50.006667 
L 232.072542 48.58097 
L 227.875155 47.155273 
L 222.178784 45.729576 
L 218.989964 44.303879 
L 216.410337 42.878182 
L 213.546647 41.452485 
L 212.265197 40.026788 
L 212.827051 38.601091 
L 214.369932 37.175394 
L 215.323312 35.749697 
L 215.11893 34.324 
L 214.434069 32.898303 
L 214.104347 31.472606 
L 214.392737 30.046909 
L 215.003964 28.621212 
L 215.011388 27.195515 
L 213.422396 25.769818 
L 211.056968 24.344121 
L 209.810614 22.918424 
L 209.549808 21.492727 
z
" style="fill:#1f77b4;fill-opacity:0.3;"/>
   </g>
   <g id="matplotlib.axis_3">
    <g id="xtick_4">
     <g id="line2d_20">
      <g>
       <use style="stroke:#000000;stroke-width:0.8;" x="219.523915" xlink:href="#m038d477d95" y="246.04"/>
      </g>
     </g>
     <g id="text_17">
      <!-- 2 -->
      <g transform="translate(216.342665 260.638438)scale(0.1 -0.1)">
       <use xlink:href="#DejaVuSans-50"/>
      </g>
     </g>
    </g>
    <g id="xtick_5">
     <g id="line2d_21">
      <g>
       <use style="stroke:#000000;stroke-width:0.8;" x="265.221884" xlink:href="#m038d477d95" y="246.04"/>
      </g>
     </g>
     <g id="text_18">
      <!-- 4 -->
      <g transform="translate(262.040634 260.638438)scale(0.1 -0.1)">
       <use xlink:href="#DejaVuSans-52"/>
      </g>
     </g>
    </g>
    <g id="xtick_6">
     <g id="line2d_22">
      <g>
       <use style="stroke:#000000;stroke-width:0.8;" x="310.919854" xlink:href="#m038d477d95" y="246.04"/>
      </g>
     </g>
     <g id="text_19">
      <!-- 6 -->
      <g transform="translate(307.738604 260.638438)scale(0.1 -0.1)">
       <use xlink:href="#DejaVuSans-54"/>
      </g>
     </g>
    </g>
    <g id="text_20">
     <!-- Velocity (km/s) -->
     <g transform="translate(233.344063 274.316562)scale(0.1 -0.1)">
      <use xlink:href="#DejaVuSans-86"/>
      <use x="60.658203" xlink:href="#DejaVuSans-101"/>
      <use x="122.181641" xlink:href="#DejaVuSans-108"/>
      <use x="149.964844" xlink:href="#DejaVuSans-111"/>
      <use x="211.146484" xlink:href="#DejaVuSans-99"/>
      <use x="266.126953" xlink:href="#DejaVuSans-105"/>
      <use x="293.910156" xlink:href="#DejaVuSans-116"/>
      <use x="333.119141" xlink:href="#DejaVuSans-121"/>
      <use x="392.298828" xlink:href="#DejaVuSans-32"/>
      <use x="424.085938" xlink:href="#DejaVuSans-40"/>
      <use x="463.099609" xlink:href="#DejaVuSans-107"/>
      <use x="521.009766" xlink:href="#DejaVuSans-109"/>
      <use x="618.421875" xlink:href="#DejaVuSans-47"/>
      <use x="652.113281" xlink:href="#DejaVuSans-115"/>
      <use x="704.212891" xlink:href="#DejaVuSans-41"/>
     </g>
    </g>
   </g>
   <g id="matplotlib.axis_4">
    <g id="ytick_8">
     <g id="line2d_23">
      <g>
       <use style="stroke:#000000;stroke-width:0.8;" x="201.04" xlink:href="#m49af40d7f4" y="21.492727"/>
      </g>
     </g>
    </g>
    <g id="ytick_9">
     <g id="line2d_24">
      <g>
       <use style="stroke:#000000;stroke-width:0.8;" x="201.04" xlink:href="#m49af40d7f4" y="56.899109"/>
      </g>
     </g>
    </g>
    <g id="ytick_10">
     <g id="line2d_25">
      <g>
       <use style="stroke:#000000;stroke-width:0.8;" x="201.04" xlink:href="#m49af40d7f4" y="92.305491"/>
      </g>
     </g>
    </g>
    <g id="ytick_11">
     <g id="line2d_26">
      <g>
       <use style="stroke:#000000;stroke-width:0.8;" x="201.04" xlink:href="#m49af40d7f4" y="127.711872"/>
      </g>
     </g>
    </g>
    <g id="ytick_12">
     <g id="line2d_27">
      <g>
       <use style="stroke:#000000;stroke-width:0.8;" x="201.04" xlink:href="#m49af40d7f4" y="163.118254"/>
      </g>
     </g>
    </g>
    <g id="ytick_13">
     <g id="line2d_28">
      <g>
       <use style="stroke:#000000;stroke-width:0.8;" x="201.04" xlink:href="#m49af40d7f4" y="198.524636"/>
      </g>
     </g>
    </g>
    <g id="ytick_14">
     <g id="line2d_29">
      <g>
       <use style="stroke:#000000;stroke-width:0.8;" x="201.04" xlink:href="#m49af40d7f4" y="233.931017"/>
      </g>
     </g>
    </g>
   </g>
   <g id="line2d_30">
    <path clip-path="url(#p0cae286add)" d="M 208.760957 21.492727 
L 208.976282 22.918424 
L 209.995235 24.344121 
L 211.884512 25.769818 
L 213.1417 27.195515 
L 213.240459 28.621212 
L 212.928652 30.046909 
L 212.755071 31.472606 
L 212.971502 35.749697 
L 212.247945 37.175394 
L 211.122116 38.601091 
L 210.74048 40.026788 
L 211.86563 41.452485 
L 214.290886 42.878182 
L 216.406575 44.303879 
L 218.874541 45.729576 
L 223.0161 47.155273 
L 225.720584 48.58097 
L 224.612277 50.006667 
L 221.969742 51.432364 
L 220.560989 52.858061 
L 220.404364 54.283758 
L 220.780353 57.135152 
L 220.905901 61.412242 
L 221.202073 62.837939 
L 222.160985 65.689333 
L 222.873439 67.11503 
L 224.000608 68.540727 
L 224.775872 69.966424 
L 225.679585 72.817818 
L 225.925521 74.243515 
L 225.820499 75.669212 
L 225.56184 77.094909 
L 225.535961 78.520606 
L 226.13439 79.946303 
L 227.227953 81.372 
L 227.880112 82.797697 
L 227.81603 84.223394 
L 227.471603 85.649091 
L 227.335303 87.074788 
L 227.652424 88.500485 
L 228.274248 89.926182 
L 229.238458 92.777576 
L 229.964219 94.203273 
L 230.85065 95.62897 
L 233.166594 97.054667 
L 237.481978 98.480364 
L 240.716271 99.906061 
L 242.052683 101.331758 
L 243.068831 102.757455 
L 243.294479 104.183152 
L 241.740721 105.608848 
L 239.208813 107.034545 
L 237.759222 108.460242 
L 237.271746 109.885939 
L 236.705161 112.737333 
L 236.430368 114.16303 
L 235.518724 117.014424 
L 234.270665 118.440121 
L 232.479536 119.865818 
L 231.979346 121.291515 
L 234.185504 122.717212 
L 238.257732 124.142909 
L 240.301248 125.568606 
L 241.349387 126.994303 
L 243.019749 128.42 
L 243.188586 129.845697 
L 241.591713 131.271394 
L 240.761895 132.697091 
L 241.974213 134.122788 
L 242.875884 135.548485 
L 240.448708 136.974182 
L 238.362665 138.399879 
L 238.231188 139.825576 
L 238.655216 141.251273 
L 239.764339 142.67697 
L 241.944125 144.102667 
L 243.190559 145.528364 
L 242.528741 146.954061 
L 239.897975 148.379758 
L 236.02626 149.805455 
L 233.240095 151.231152 
L 232.487441 152.656848 
L 233.967523 154.082545 
L 237.015927 155.508242 
L 242.862652 156.933939 
L 253.061825 158.359636 
L 257.266412 159.785333 
L 252.29221 161.21103 
L 249.292346 162.636727 
L 249.025137 164.062424 
L 248.964236 165.488121 
L 249.247235 166.913818 
L 256.363503 169.765212 
L 247.399243 172.616606 
L 246.565751 174.042303 
L 248.731618 175.468 
L 254.035247 176.893697 
L 258.62441 178.319394 
L 257.384973 179.745091 
L 253.307805 181.170788 
L 250.996306 182.596485 
L 249.239568 184.022182 
L 248.537682 185.447879 
L 249.949973 186.873576 
L 253.213943 188.299273 
L 257.428988 189.72497 
L 262.796996 191.150667 
L 269.996311 192.576364 
L 273.771333 194.002061 
L 272.698904 195.427758 
L 272.078397 196.853455 
L 271.939701 198.279152 
L 268.984435 199.704848 
L 264.548821 201.130545 
L 255.863401 205.407636 
L 254.305782 206.833333 
L 254.063213 208.25903 
L 255.496987 209.684727 
L 259.062107 211.110424 
L 261.07215 212.536121 
L 258.786452 213.961818 
L 255.17568 215.387515 
L 255.821878 216.813212 
L 261.046793 218.238909 
L 265.609286 219.664606 
L 268.085324 221.090303 
L 271.135803 222.516 
L 275.37917 223.941697 
L 277.829066 225.367394 
L 277.451475 226.793091 
L 273.422623 228.218788 
L 267.034256 229.644485 
L 263.049463 231.070182 
L 260.202075 232.495879 
L 257.683667 233.921576 
L 256.740719 235.347273 
L 256.740719 235.347273 
" style="fill:none;stroke:#1f77b4;stroke-linecap:square;stroke-width:0.5;"/>
   </g>
   <g id="line2d_31">
    <path clip-path="url(#p0cae286add)" d="M 208.099422 21.492727 
L 208.099422 22.918424 
L 211.755259 24.344121 
L 211.983749 27.195515 
L 213.811669 30.046909 
L 213.925913 31.472606 
L 211.06979 32.898303 
L 211.184035 34.324 
L 213.1262 35.749697 
L 213.240444 37.175394 
L 211.755259 38.601091 
L 211.869504 40.026788 
L 210.384321 41.452485 
L 210.612811 44.303879 
L 222.437162 45.729576 
L 222.779893 48.58097 
L 223.636733 50.006667 
L 224.493568 57.135152 
L 223.522486 58.560848 
L 223.865223 61.412242 
L 226.721346 64.263636 
L 227.064078 67.11503 
L 225.179037 68.540727 
L 225.350408 69.966424 
L 224.607816 71.392121 
L 225.464651 78.520606 
L 228.377897 79.946303 
L 229.234732 87.074788 
L 228.03516 88.500485 
L 228.206532 89.926182 
L 234.661365 91.351879 
L 226.949836 92.777576 
L 227.235449 94.203273 
L 253.797392 95.62897 
L 253.797392 98.480364 
L 257.224742 99.906061 
L 257.224742 102.757455 
L 250.370042 104.183152 
L 250.370042 107.034545 
L 253.797392 108.460242 
L 253.797392 109.885939 
L 230.662794 111.311636 
L 231.519634 115.588727 
L 229.063366 117.014424 
L 229.634593 119.865818 
L 236.089426 121.291515 
L 236.660653 124.142909 
L 233.518917 125.568606 
L 233.80453 126.994303 
L 232.776324 129.845697 
L 234.946978 132.697091 
L 239.80239 134.122788 
L 240.088003 135.548485 
L 244.943409 136.974182 
L 240.659224 138.399879 
L 265.221884 139.825576 
L 230.948407 141.251273 
L 230.948407 142.67697 
L 234.375757 144.102667 
L 229.577469 145.528364 
L 229.577469 146.954061 
L 230.948407 148.379758 
L 230.948407 151.231152 
L 246.942697 152.656848 
L 246.942697 161.21103 
L 260.652086 162.636727 
L 260.652086 165.488121 
L 254.93984 166.913818 
L 254.93984 168.339515 
L 249.227594 169.765212 
L 249.227594 178.319394 
L 256.082288 179.745091 
L 256.082288 182.596485 
L 257.224742 184.022182 
L 257.224742 186.873576 
L 253.797392 188.299273 
L 253.797392 191.150667 
L 280.530706 192.576364 
L 280.530706 194.002061 
L 255.625309 195.427758 
L 255.625309 199.704848 
L 253.111923 201.130545 
L 253.111923 203.981939 
L 249.227594 205.407636 
L 254.482861 206.833333 
L 254.482861 209.684727 
L 270.477151 211.110424 
L 270.477151 215.387515 
L 265.221884 216.813212 
L 265.221884 221.090303 
L 260.652086 222.516 
L 260.652086 225.367394 
L 269.791677 226.793091 
L 260.652086 229.644485 
L 260.652086 232.495879 
L 274.36148 233.921576 
L 278.931273 235.347273 
L 278.931273 235.347273 
" style="fill:none;stroke:#000000;stroke-linecap:square;stroke-width:0.5;"/>
   </g>
   <g id="line2d_32">
    <path clip-path="url(#p0cae286add)" d="M 208.099422 21.492727 
L 208.099422 22.918424 
L 210.05354 24.344121 
L 210.806093 28.621212 
L 211.872857 32.898303 
L 213.272813 37.175394 
L 215.938478 44.303879 
L 217.010066 47.155273 
L 220.694126 57.135152 
L 226.775134 72.817818 
L 230.752545 84.223394 
L 234.354191 94.203273 
L 235.645724 98.480364 
L 236.298564 101.331758 
L 236.957723 105.608848 
L 238.499044 119.865818 
L 238.48413 121.291515 
L 238.136483 124.142909 
L 237.476187 128.42 
L 237.364263 129.845697 
L 237.503973 132.697091 
L 238.002594 136.974182 
L 238.632621 139.825576 
L 239.698506 142.67697 
L 242.854785 149.805455 
L 244.432367 154.082545 
L 247.491403 162.636727 
L 248.717427 165.488121 
L 250.807851 169.765212 
L 252.659015 172.616606 
L 253.433862 174.042303 
L 254.034152 175.468 
L 254.872544 178.319394 
L 255.783802 182.596485 
L 256.321848 186.873576 
L 256.709822 189.72497 
L 257.389455 192.576364 
L 258.718728 196.853455 
L 259.630934 199.704848 
L 260.328474 202.556242 
L 261.866265 209.684727 
L 263.171174 213.961818 
L 264.065697 219.664606 
L 264.844133 222.516 
L 267.041985 229.644485 
L 268.007374 233.921576 
L 268.273995 235.347273 
L 268.273995 235.347273 
" style="fill:none;stroke:#ff7f0e;stroke-linecap:square;stroke-width:0.5;"/>
   </g>
   <g id="patch_10">
    <path d="M 201.04 246.04 
L 201.04 10.8 
" style="fill:none;stroke:#000000;stroke-linecap:square;stroke-linejoin:miter;stroke-width:0.8;"/>
   </g>
   <g id="patch_11">
    <path d="M 339.97 246.04 
L 339.97 10.8 
" style="fill:none;stroke:#000000;stroke-linecap:square;stroke-linejoin:miter;stroke-width:0.8;"/>
   </g>
   <g id="patch_12">
    <path d="M 201.04 246.04 
L 339.97 246.04 
" style="fill:none;stroke:#000000;stroke-linecap:square;stroke-linejoin:miter;stroke-width:0.8;"/>
   </g>
   <g id="patch_13">
    <path d="M 201.04 10.8 
L 339.97 10.8 
" style="fill:none;stroke:#000000;stroke-linecap:square;stroke-linejoin:miter;stroke-width:0.8;"/>
   </g>
   <g id="legend_2">
    <g id="patch_14">
     <path d="M 263.692187 50.8275 
L 335.77 50.8275 
Q 336.97 50.8275 336.97 49.6275 
L 336.97 15 
Q 336.97 13.8 335.77 13.8 
L 263.692187 13.8 
Q 262.492188 13.8 262.492188 15 
L 262.492188 49.6275 
Q 262.492188 50.8275 263.692187 50.8275 
z
" style="fill:#ffffff;opacity:0.8;stroke:#cccccc;stroke-linejoin:miter;"/>
    </g>
    <g id="line2d_33">
     <path d="M 264.892187 18.659063 
L 276.892187 18.659063 
" style="fill:none;stroke:#1f77b4;stroke-linecap:square;stroke-width:0.5;"/>
    </g>
    <g id="line2d_34"/>
    <g id="text_21">
     <!-- Median -->
     <g transform="translate(281.692187 20.759063)scale(0.06 -0.06)">
      <use xlink:href="#DejaVuSans-77"/>
      <use x="86.279297" xlink:href="#DejaVuSans-101"/>
      <use x="147.802734" xlink:href="#DejaVuSans-100"/>
      <use x="211.279297" xlink:href="#DejaVuSans-105"/>
      <use x="239.0625" xlink:href="#DejaVuSans-97"/>
      <use x="300.341797" xlink:href="#DejaVuSans-110"/>
     </g>
    </g>
    <g id="line2d_35">
     <path d="M 264.892187 27.465938 
L 276.892187 27.465938 
" style="fill:none;stroke:#000000;stroke-linecap:square;stroke-width:0.5;"/>
    </g>
    <g id="line2d_36"/>
    <g id="text_22">
     <!-- Reference -->
     <g transform="translate(281.692187 29.565938)scale(0.06 -0.06)">
      <use xlink:href="#DejaVuSans-82"/>
      <use x="64.982422" xlink:href="#DejaVuSans-101"/>
      <use x="126.505859" xlink:href="#DejaVuSans-102"/>
      <use x="161.710938" xlink:href="#DejaVuSans-101"/>
      <use x="223.234375" xlink:href="#DejaVuSans-114"/>
      <use x="262.097656" xlink:href="#DejaVuSans-101"/>
      <use x="323.621094" xlink:href="#DejaVuSans-110"/>
      <use x="387" xlink:href="#DejaVuSans-99"/>
      <use x="441.980469" xlink:href="#DejaVuSans-101"/>
     </g>
    </g>
    <g id="line2d_37">
     <path d="M 264.892187 36.272813 
L 276.892187 36.272813 
" style="fill:none;stroke:#ff7f0e;stroke-linecap:square;stroke-width:0.5;"/>
    </g>
    <g id="line2d_38"/>
    <g id="text_23">
     <!-- Initial -->
     <g transform="translate(281.692187 38.372813)scale(0.06 -0.06)">
      <use xlink:href="#DejaVuSans-73"/>
      <use x="29.492188" xlink:href="#DejaVuSans-110"/>
      <use x="92.871094" xlink:href="#DejaVuSans-105"/>
      <use x="120.654297" xlink:href="#DejaVuSans-116"/>
      <use x="159.863281" xlink:href="#DejaVuSans-105"/>
      <use x="187.646484" xlink:href="#DejaVuSans-97"/>
      <use x="248.925781" xlink:href="#DejaVuSans-108"/>
     </g>
    </g>
    <g id="patch_15">
     <path d="M 264.892187 47.179688 
L 276.892187 47.179688 
L 276.892187 42.979688 
L 264.892187 42.979688 
z
" style="fill:#1f77b4;opacity:0.3;"/>
    </g>
    <g id="text_24">
     <!-- 95% HPD Interval -->
     <g transform="translate(281.692187 47.179688)scale(0.06 -0.06)">
      <use xlink:href="#DejaVuSans-57"/>
      <use x="63.623047" xlink:href="#DejaVuSans-53"/>
      <use x="127.246094" xlink:href="#DejaVuSans-37"/>
      <use x="222.265625" xlink:href="#DejaVuSans-32"/>
      <use x="254.052734" xlink:href="#DejaVuSans-72"/>
      <use x="329.248047" xlink:href="#DejaVuSans-80"/>
      <use x="389.550781" xlink:href="#DejaVuSans-68"/>
      <use x="466.552734" xlink:href="#DejaVuSans-32"/>
      <use x="498.339844" xlink:href="#DejaVuSans-73"/>
      <use x="527.832031" xlink:href="#DejaVuSans-110"/>
      <use x="591.210938" xlink:href="#DejaVuSans-116"/>
      <use x="630.419922" xlink:href="#DejaVuSans-101"/>
      <use x="691.943359" xlink:href="#DejaVuSans-114"/>
      <use x="733.056641" xlink:href="#DejaVuSans-118"/>
      <use x="792.236328" xlink:href="#DejaVuSans-97"/>
      <use x="853.515625" xlink:href="#DejaVuSans-108"/>
     </g>
    </g>
   </g>
  </g>
  <g id="axes_3">
   <g id="patch_16">
    <path d="M 354.27 246.04 
L 493.2 246.04 
L 493.2 10.8 
L 354.27 10.8 
z
" style="fill:none;"/>
   </g>
   <g id="PolyCollection_3">
    <path clip-path="url(#pa280d15c1f)" d="M 364.195068 21.492727 
L 360.585 21.492727 
L 360.71898 22.918424 
L 361.341213 24.344121 
L 362.440907 25.769818 
L 363.083106 27.195515 
L 362.881021 28.621212 
L 362.322513 30.046909 
L 362.144662 31.472606 
L 362.826619 32.898303 
L 364.188411 34.324 
L 365.156017 35.749697 
L 365.646948 37.175394 
L 366.148364 38.601091 
L 366.584195 40.026788 
L 367.300969 41.452485 
L 368.438551 42.878182 
L 369.011918 44.303879 
L 368.435325 45.729576 
L 367.324087 47.155273 
L 366.971138 48.58097 
L 368.245697 50.006667 
L 370.929648 51.432364 
L 372.663495 52.858061 
L 372.257244 54.283758 
L 370.978895 55.709455 
L 370.423976 57.135152 
L 371.168191 58.560848 
L 372.796137 59.986545 
L 374.024872 61.412242 
L 374.963304 62.837939 
L 376.169913 64.263636 
L 376.777449 65.689333 
L 376.228725 67.11503 
L 375.109679 68.540727 
L 374.411601 69.966424 
L 374.047428 71.392121 
L 373.681352 72.817818 
L 373.552798 74.243515 
L 373.901609 75.669212 
L 374.578114 77.094909 
L 375.052096 78.520606 
L 375.372049 79.946303 
L 375.762639 81.372 
L 376.090746 82.797697 
L 376.58192 84.223394 
L 377.313921 85.649091 
L 377.493888 87.074788 
L 376.342168 88.500485 
L 374.475523 89.926182 
L 373.533725 91.351879 
L 373.76299 92.777576 
L 374.534295 94.203273 
L 375.186797 95.62897 
L 376.051582 97.054667 
L 377.397378 98.480364 
L 378.454819 99.906061 
L 379.597759 101.331758 
L 381.277392 102.757455 
L 382.172397 104.183152 
L 381.523185 105.608848 
L 380.141169 107.034545 
L 379.265685 108.460242 
L 378.741209 109.885939 
L 378.198562 111.311636 
L 378.330737 112.737333 
L 380.516265 114.16303 
L 385.014913 115.588727 
L 388.669135 117.014424 
L 391.025052 118.440121 
L 393.85 119.865818 
L 395.428289 121.291515 
L 394.231188 122.717212 
L 390.408154 124.142909 
L 386.25736 125.568606 
L 383.608657 126.994303 
L 382.019109 128.42 
L 381.763004 129.845697 
L 383.036211 131.271394 
L 384.802699 132.697091 
L 386.365506 134.122788 
L 387.702952 135.548485 
L 387.908405 136.974182 
L 387.399829 138.399879 
L 387.775357 139.825576 
L 389.090248 141.251273 
L 389.715867 142.67697 
L 388.952976 144.102667 
L 388.832617 145.528364 
L 389.916871 146.954061 
L 390.866313 148.379758 
L 391.769929 149.805455 
L 394.887269 151.231152 
L 401.011136 152.656848 
L 405.203333 154.082545 
L 405.073473 155.508242 
L 402.624693 156.933939 
L 399.887394 158.359636 
L 400.166973 159.785333 
L 402.627524 161.21103 
L 403.028324 162.636727 
L 401.67384 164.062424 
L 398.822215 165.488121 
L 395.075998 166.913818 
L 392.972373 168.339515 
L 391.378431 169.765212 
L 389.236141 171.190909 
L 387.976877 172.616606 
L 387.49478 174.042303 
L 387.842242 175.468 
L 390.212983 176.893697 
L 395.573911 178.319394 
L 404.811975 179.745091 
L 421.037689 181.170788 
L 435.413626 182.596485 
L 430.373614 184.022182 
L 414.456867 185.447879 
L 400.144837 186.873576 
L 390.646583 188.299273 
L 387.31188 189.72497 
L 388.758647 191.150667 
L 392.583519 192.576364 
L 393.909853 194.002061 
L 392.552882 195.427758 
L 392.656047 196.853455 
L 394.154223 198.279152 
L 396.290684 199.704848 
L 399.668375 201.130545 
L 402.266328 202.556242 
L 402.530346 203.981939 
L 401.254617 205.407636 
L 399.841778 206.833333 
L 397.076054 208.25903 
L 393.843434 209.684727 
L 394.940099 211.110424 
L 401.121607 212.536121 
L 406.276734 213.961818 
L 405.247907 215.387515 
L 401.022433 216.813212 
L 400.449821 218.238909 
L 404.012939 219.664606 
L 407.702683 221.090303 
L 412.117017 222.516 
L 418.262243 223.941697 
L 419.979461 225.367394 
L 419.066642 226.793091 
L 422.215203 228.218788 
L 423.289521 229.644485 
L 415.839092 231.070182 
L 408.245823 232.495879 
L 407.6266 233.921576 
L 409.301735 235.347273 
L 464.89481 235.347273 
L 464.89481 235.347273 
L 468.680177 233.921576 
L 476.428581 232.495879 
L 482.859801 231.070182 
L 485.658592 229.644485 
L 486.67191 228.218788 
L 486.856958 226.793091 
L 485.783014 225.367394 
L 480.984609 223.941697 
L 473.697513 222.516 
L 470.01786 221.090303 
L 471.850674 219.664606 
L 476.979303 218.238909 
L 481.638504 216.813212 
L 484.91756 215.387515 
L 486.504244 213.961818 
L 486.200149 212.536121 
L 480.191435 211.110424 
L 460.186603 209.684727 
L 439.543635 208.25903 
L 431.695784 206.833333 
L 434.995943 205.407636 
L 445.373389 203.981939 
L 451.924599 202.556242 
L 451.175289 201.130545 
L 449.439116 199.704848 
L 451.195934 198.279152 
L 457.898647 196.853455 
L 466.515274 195.427758 
L 463.13944 194.002061 
L 437.712853 192.576364 
L 415.48299 191.150667 
L 408.598917 189.72497 
L 414.58771 188.299273 
L 434.236444 186.873576 
L 459.609576 185.447879 
L 476.847669 184.022182 
L 483.591611 182.596485 
L 478.970975 181.170788 
L 464.51693 179.745091 
L 441.152092 178.319394 
L 421.697565 176.893697 
L 414.522709 175.468 
L 414.923773 174.042303 
L 418.184779 172.616606 
L 424.606617 171.190909 
L 435.163245 169.765212 
L 440.92103 168.339515 
L 446.466722 166.913818 
L 460.440363 165.488121 
L 472.819666 164.062424 
L 477.637662 162.636727 
L 480.368442 161.21103 
L 481.693661 159.785333 
L 482.186267 158.359636 
L 482.172074 156.933939 
L 481.528108 155.508242 
L 474.349787 154.082545 
L 450.544077 152.656848 
L 428.148958 151.231152 
L 419.537751 149.805455 
L 418.169554 148.379758 
L 415.694079 146.954061 
L 410.386025 145.528364 
L 407.696154 144.102667 
L 408.928261 142.67697 
L 414.437168 141.251273 
L 424.308632 139.825576 
L 427.436081 138.399879 
L 419.424018 136.974182 
L 414.901548 135.548485 
L 414.007999 134.122788 
L 410.319415 132.697091 
L 403.63555 131.271394 
L 399.787256 129.845697 
L 402.543849 128.42 
L 410.892007 126.994303 
L 415.925683 125.568606 
L 419.671295 124.142909 
L 433.787103 122.717212 
L 447.417157 121.291515 
L 440.37776 119.865818 
L 426.415218 118.440121 
L 417.083132 117.014424 
L 405.505386 115.588727 
L 394.194884 114.16303 
L 389.639257 112.737333 
L 390.035858 111.311636 
L 392.404736 109.885939 
L 394.196814 108.460242 
L 395.367809 107.034545 
L 396.7362 105.608848 
L 397.221129 104.183152 
L 395.751981 102.757455 
L 393.242054 101.331758 
L 391.614049 99.906061 
L 390.295718 98.480364 
L 388.651215 97.054667 
L 387.287573 95.62897 
L 385.168762 94.203273 
L 382.370418 92.777576 
L 381.120749 91.351879 
L 382.029896 89.926182 
L 384.234521 88.500485 
L 385.703955 87.074788 
L 385.937408 85.649091 
L 385.773657 84.223394 
L 385.632151 82.797697 
L 385.482557 81.372 
L 385.28072 79.946303 
L 385.199632 78.520606 
L 385.357345 77.094909 
L 385.648034 75.669212 
L 385.634329 74.243515 
L 384.787444 72.817818 
L 383.416661 71.392121 
L 382.718791 69.966424 
L 382.967581 68.540727 
L 383.65203 67.11503 
L 383.871548 65.689333 
L 382.975502 64.263636 
L 381.435829 62.837939 
L 380.41195 61.412242 
L 379.56048 59.986545 
L 378.521966 58.560848 
L 378.147811 57.135152 
L 379.075715 55.709455 
L 380.925916 54.283758 
L 381.619156 52.858061 
L 379.528031 51.432364 
L 376.226448 50.006667 
L 374.528709 48.58097 
L 374.320649 47.155273 
L 374.532174 45.729576 
L 374.466701 44.303879 
L 373.533339 42.878182 
L 372.049684 41.452485 
L 371.088614 40.026788 
L 370.337291 38.601091 
L 369.421482 37.175394 
L 368.8619 35.749697 
L 368.568706 34.324 
L 368.268468 32.898303 
L 368.108297 31.472606 
L 368.133751 30.046909 
L 368.216549 28.621212 
L 368.022663 27.195515 
L 366.931398 25.769818 
L 365.28993 24.344121 
L 364.387402 22.918424 
L 364.195068 21.492727 
z
" style="fill:#1f77b4;fill-opacity:0.3;"/>
   </g>
   <g id="matplotlib.axis_5">
    <g id="xtick_7">
     <g id="line2d_39">
      <g>
       <use style="stroke:#000000;stroke-width:0.8;" x="372.753915" xlink:href="#m038d477d95" y="246.04"/>
      </g>
     </g>
     <g id="text_25">
      <!-- 2 -->
      <g transform="translate(369.572665 260.638438)scale(0.1 -0.1)">
       <use xlink:href="#DejaVuSans-50"/>
      </g>
     </g>
    </g>
    <g id="xtick_8">
     <g id="line2d_40">
      <g>
       <use style="stroke:#000000;stroke-width:0.8;" x="418.451884" xlink:href="#m038d477d95" y="246.04"/>
      </g>
     </g>
     <g id="text_26">
      <!-- 4 -->
      <g transform="translate(415.270634 260.638438)scale(0.1 -0.1)">
       <use xlink:href="#DejaVuSans-52"/>
      </g>
     </g>
    </g>
    <g id="xtick_9">
     <g id="line2d_41">
      <g>
       <use style="stroke:#000000;stroke-width:0.8;" x="464.149854" xlink:href="#m038d477d95" y="246.04"/>
      </g>
     </g>
     <g id="text_27">
      <!-- 6 -->
      <g transform="translate(460.968604 260.638438)scale(0.1 -0.1)">
       <use xlink:href="#DejaVuSans-54"/>
      </g>
     </g>
    </g>
    <g id="text_28">
     <!-- Velocity (km/s) -->
     <g transform="translate(386.574063 274.316562)scale(0.1 -0.1)">
      <use xlink:href="#DejaVuSans-86"/>
      <use x="60.658203" xlink:href="#DejaVuSans-101"/>
      <use x="122.181641" xlink:href="#DejaVuSans-108"/>
      <use x="149.964844" xlink:href="#DejaVuSans-111"/>
      <use x="211.146484" xlink:href="#DejaVuSans-99"/>
      <use x="266.126953" xlink:href="#DejaVuSans-105"/>
      <use x="293.910156" xlink:href="#DejaVuSans-116"/>
      <use x="333.119141" xlink:href="#DejaVuSans-121"/>
      <use x="392.298828" xlink:href="#DejaVuSans-32"/>
      <use x="424.085938" xlink:href="#DejaVuSans-40"/>
      <use x="463.099609" xlink:href="#DejaVuSans-107"/>
      <use x="521.009766" xlink:href="#DejaVuSans-109"/>
      <use x="618.421875" xlink:href="#DejaVuSans-47"/>
      <use x="652.113281" xlink:href="#DejaVuSans-115"/>
      <use x="704.212891" xlink:href="#DejaVuSans-41"/>
     </g>
    </g>
   </g>
   <g id="matplotlib.axis_6">
    <g id="ytick_15">
     <g id="line2d_42">
      <g>
       <use style="stroke:#000000;stroke-width:0.8;" x="354.27" xlink:href="#m49af40d7f4" y="21.492727"/>
      </g>
     </g>
    </g>
    <g id="ytick_16">
     <g id="line2d_43">
      <g>
       <use style="stroke:#000000;stroke-width:0.8;" x="354.27" xlink:href="#m49af40d7f4" y="56.899109"/>
      </g>
     </g>
    </g>
    <g id="ytick_17">
     <g id="line2d_44">
      <g>
       <use style="stroke:#000000;stroke-width:0.8;" x="354.27" xlink:href="#m49af40d7f4" y="92.305491"/>
      </g>
     </g>
    </g>
    <g id="ytick_18">
     <g id="line2d_45">
      <g>
       <use style="stroke:#000000;stroke-width:0.8;" x="354.27" xlink:href="#m49af40d7f4" y="127.711872"/>
      </g>
     </g>
    </g>
    <g id="ytick_19">
     <g id="line2d_46">
      <g>
       <use style="stroke:#000000;stroke-width:0.8;" x="354.27" xlink:href="#m49af40d7f4" y="163.118254"/>
      </g>
     </g>
    </g>
    <g id="ytick_20">
     <g id="line2d_47">
      <g>
       <use style="stroke:#000000;stroke-width:0.8;" x="354.27" xlink:href="#m49af40d7f4" y="198.524636"/>
      </g>
     </g>
    </g>
    <g id="ytick_21">
     <g id="line2d_48">
      <g>
       <use style="stroke:#000000;stroke-width:0.8;" x="354.27" xlink:href="#m49af40d7f4" y="233.931017"/>
      </g>
     </g>
    </g>
   </g>
   <g id="line2d_49">
    <path clip-path="url(#pa280d15c1f)" d="M 361.738966 21.492727 
L 361.907525 22.918424 
L 362.696149 24.344121 
L 364.114778 25.769818 
L 364.967088 27.195515 
L 364.740682 28.621212 
L 364.065228 30.046909 
L 363.809592 31.472606 
L 364.427155 32.898303 
L 365.688178 34.324 
L 366.609336 35.749697 
L 367.222672 37.175394 
L 368.644769 40.026788 
L 369.740489 41.452485 
L 371.535333 42.878182 
L 372.549162 44.303879 
L 371.970644 45.729576 
L 370.701343 47.155273 
L 370.275025 48.58097 
L 371.618093 50.006667 
L 374.46028 51.432364 
L 376.28646 52.858061 
L 375.837045 54.283758 
L 374.457477 55.709455 
L 373.859118 57.135152 
L 374.66252 58.560848 
L 376.41855 59.986545 
L 377.729128 61.412242 
L 378.66711 62.837939 
L 379.840064 64.263636 
L 380.514227 65.689333 
L 380.38901 67.11503 
L 379.559852 69.966424 
L 379.140046 71.392121 
L 378.563103 72.817818 
L 378.252914 74.243515 
L 378.309496 75.669212 
L 378.76074 78.520606 
L 379.234023 79.946303 
L 379.998119 81.372 
L 380.977584 84.223394 
L 381.511368 85.649091 
L 381.538221 87.074788 
L 380.260926 88.500485 
L 378.254724 89.926182 
L 377.315107 91.351879 
L 377.909102 92.777576 
L 379.374667 94.203273 
L 380.480542 95.62897 
L 381.382979 97.054667 
L 382.590047 98.480364 
L 383.459218 99.906061 
L 384.159918 101.331758 
L 385.07284 102.757455 
L 385.578833 104.183152 
L 385.423488 105.608848 
L 384.970401 107.034545 
L 384.098869 111.311636 
L 384.448354 112.737333 
L 387.062134 114.16303 
L 392.424711 115.588727 
L 397.079313 117.014424 
L 401.318464 118.440121 
L 407.749408 119.865818 
L 411.229593 121.291515 
L 406.782141 122.717212 
L 399.167594 124.142909 
L 394.628158 125.568606 
L 392.390513 126.994303 
L 390.431368 128.42 
L 389.712108 129.845697 
L 391.174335 131.271394 
L 395.771752 134.122788 
L 398.509944 135.548485 
L 400.310062 136.974182 
L 400.376095 138.399879 
L 397.525056 141.251273 
L 396.712754 142.67697 
L 396.119426 144.102667 
L 397.169009 145.528364 
L 399.496237 146.954061 
L 400.82476 149.805455 
L 406.106451 151.231152 
L 432.01342 154.082545 
L 437.2103 155.508242 
L 430.825697 156.933939 
L 421.085865 158.359636 
L 420.660701 159.785333 
L 427.613673 161.21103 
L 430.550227 162.636727 
L 427.646121 164.062424 
L 419.526254 165.488121 
L 409.8779 166.913818 
L 405.120849 168.339515 
L 403.849225 169.765212 
L 403.225401 171.190909 
L 401.529891 172.616606 
L 399.030745 174.042303 
L 398.221373 175.468 
L 401.467748 176.893697 
L 409.914065 178.319394 
L 422.987609 179.745091 
L 442.869876 181.170788 
L 458.114211 182.596485 
L 449.569891 184.022182 
L 410.712115 186.873576 
L 397.439203 188.299273 
L 392.861279 189.72497 
L 395.015232 191.150667 
L 401.810755 192.576364 
L 409.596727 194.002061 
L 415.112923 195.427758 
L 415.20381 196.853455 
L 413.875914 198.279152 
L 416.150313 199.704848 
L 422.091606 201.130545 
L 425.310258 202.556242 
L 420.517277 203.981939 
L 412.961011 205.407636 
L 409.790767 206.833333 
L 410.251128 208.25903 
L 412.684212 209.684727 
L 418.74627 211.110424 
L 429.923793 212.536121 
L 438.184034 213.961818 
L 438.471394 215.387515 
L 435.862618 216.813212 
L 428.776261 219.664606 
L 428.060519 221.090303 
L 432.50613 222.516 
L 441.222935 223.941697 
L 446.882197 225.367394 
L 449.870455 226.793091 
L 455.626249 228.218788 
L 457.005025 229.644485 
L 446.491083 231.070182 
L 432.381217 232.495879 
L 424.968637 233.921576 
L 422.760061 235.347273 
L 422.760061 235.347273 
" style="fill:none;stroke:#1f77b4;stroke-linecap:square;stroke-width:0.5;"/>
   </g>
   <g id="line2d_50">
    <path clip-path="url(#pa280d15c1f)" d="M 361.329422 21.492727 
L 361.329422 22.918424 
L 363.614321 24.344121 
L 363.728566 25.769818 
L 365.670731 27.195515 
L 365.784976 28.621212 
L 364.29979 30.046909 
L 364.414035 31.472606 
L 362.928852 32.898303 
L 363.157342 35.749697 
L 364.871014 37.175394 
L 365.099504 40.026788 
L 367.955627 41.452485 
L 366.584689 42.878182 
L 364.071301 44.303879 
L 365.670731 47.155273 
L 376.009893 48.58097 
L 376.866733 50.006667 
L 377.038099 51.432364 
L 376.067017 52.858061 
L 378.751774 54.283758 
L 376.866733 55.709455 
L 376.124141 57.135152 
L 379.037388 58.560848 
L 379.208754 59.986545 
L 378.009182 61.412242 
L 378.751774 62.837939 
L 379.951346 64.263636 
L 383.892794 65.689333 
L 380.522568 67.11503 
L 382.407608 68.540727 
L 375.610038 69.966424 
L 376.752486 75.669212 
L 374.753203 77.094909 
L 375.610038 81.372 
L 383.892794 82.797697 
L 385.035242 88.500485 
L 379.15163 89.926182 
L 379.037388 92.777576 
L 379.322996 94.203273 
L 380.294078 95.62897 
L 381.722139 102.757455 
L 388.176978 104.183152 
L 382.57898 107.034545 
L 383.435814 111.311636 
L 384.178407 112.737333 
L 384.46402 114.16303 
L 407.027392 115.588727 
L 410.454742 118.440121 
L 403.600042 119.865818 
L 407.027392 121.291515 
L 407.027392 124.142909 
L 387.03453 126.994303 
L 387.320144 128.42 
L 384.863876 129.845697 
L 385.149489 131.271394 
L 391.604328 132.697091 
L 391.889942 134.122788 
L 388.748205 135.548485 
L 389.033819 136.974182 
L 393.889224 138.399879 
L 389.60504 139.825576 
L 388.291226 141.251273 
L 388.576839 142.67697 
L 390.46188 144.102667 
L 395.317286 145.528364 
L 395.602899 146.954061 
L 418.451884 149.805455 
L 428.733923 151.231152 
L 418.451884 152.656848 
L 418.451884 154.082545 
L 413.196617 155.508242 
L 413.196617 156.933939 
L 418.451884 158.359636 
L 418.451884 161.21103 
L 384.178407 162.636727 
L 384.178407 166.913818 
L 387.605757 169.765212 
L 387.605757 171.190909 
L 452.725361 172.616606 
L 452.725361 179.745091 
L 406.341923 181.170788 
L 406.341923 182.596485 
L 402.457594 184.022182 
L 402.457594 186.873576 
L 407.712861 188.299273 
L 407.712861 191.150667 
L 423.707151 192.576364 
L 423.707151 196.853455 
L 418.451884 198.279152 
L 418.451884 203.981939 
L 413.882086 206.833333 
L 423.021677 208.25903 
L 423.021677 212.536121 
L 413.882086 213.961818 
L 413.882086 215.387515 
L 427.59148 216.813212 
L 432.161273 218.238909 
L 432.161273 219.664606 
L 434.446169 221.090303 
L 434.446169 223.941697 
L 413.882086 225.367394 
L 413.882086 228.218788 
L 411.59719 229.644485 
L 411.59719 232.495879 
L 408.16984 233.921576 
L 408.16984 235.347273 
L 408.16984 235.347273 
" style="fill:none;stroke:#000000;stroke-linecap:square;stroke-width:0.5;"/>
   </g>
   <g id="line2d_51">
    <path clip-path="url(#pa280d15c1f)" d="M 361.329422 21.492727 
L 361.329422 22.918424 
L 363.085548 24.344121 
L 363.31683 25.769818 
L 364.094639 28.621212 
L 365.994848 34.324 
L 367.633781 38.601091 
L 369.449387 42.878182 
L 371.445672 47.155273 
L 372.476056 50.006667 
L 375.184152 58.560848 
L 376.128347 61.412242 
L 378.168974 67.11503 
L 378.79603 69.966424 
L 379.162259 74.243515 
L 379.782867 81.372 
L 380.23513 84.223394 
L 380.498914 87.074788 
L 380.679817 89.926182 
L 380.886466 91.351879 
L 381.275192 92.777576 
L 381.939338 94.203273 
L 384.50269 98.480364 
L 387.23058 102.757455 
L 387.932023 104.183152 
L 388.682484 107.034545 
L 389.600798 111.311636 
L 391.000136 115.588727 
L 391.789626 118.440121 
L 392.966669 124.142909 
L 393.904103 126.994303 
L 395.382259 129.845697 
L 398.020117 134.122788 
L 398.827479 135.548485 
L 399.3493 136.974182 
L 399.666031 138.399879 
L 399.731336 141.251273 
L 399.557443 144.102667 
L 399.159509 146.954061 
L 399.09656 148.379758 
L 399.58971 149.805455 
L 400.757709 151.231152 
L 405.81176 155.508242 
L 409.268425 158.359636 
L 410.444757 159.785333 
L 412.43789 164.062424 
L 413.599654 166.913818 
L 414.533512 169.765212 
L 415.181155 172.616606 
L 415.688169 175.468 
L 416.400612 179.745091 
L 417.136016 182.596485 
L 418.172675 185.447879 
L 421.317511 192.576364 
L 421.488307 194.002061 
L 421.127354 195.427758 
L 419.912539 198.279152 
L 418.575732 202.556242 
L 418.704094 203.981939 
L 419.637491 206.833333 
L 420.191749 209.684727 
L 420.447212 212.536121 
L 420.410308 213.961818 
L 420.03561 216.813212 
L 418.530082 225.367394 
L 417.794893 229.644485 
L 416.619859 235.347273 
L 416.619859 235.347273 
" style="fill:none;stroke:#ff7f0e;stroke-linecap:square;stroke-width:0.5;"/>
   </g>
   <g id="patch_17">
    <path d="M 354.27 246.04 
L 354.27 10.8 
" style="fill:none;stroke:#000000;stroke-linecap:square;stroke-linejoin:miter;stroke-width:0.8;"/>
   </g>
   <g id="patch_18">
    <path d="M 493.2 246.04 
L 493.2 10.8 
" style="fill:none;stroke:#000000;stroke-linecap:square;stroke-linejoin:miter;stroke-width:0.8;"/>
   </g>
   <g id="patch_19">
    <path d="M 354.27 246.04 
L 493.2 246.04 
" style="fill:none;stroke:#000000;stroke-linecap:square;stroke-linejoin:miter;stroke-width:0.8;"/>
   </g>
   <g id="patch_20">
    <path d="M 354.27 10.8 
L 493.2 10.8 
" style="fill:none;stroke:#000000;stroke-linecap:square;stroke-linejoin:miter;stroke-width:0.8;"/>
   </g>
   <g id="legend_3">
    <g id="patch_21">
     <path d="M 416.922188 50.8275 
L 489 50.8275 
Q 490.2 50.8275 490.2 49.6275 
L 490.2 15 
Q 490.2 13.8 489 13.8 
L 416.922188 13.8 
Q 415.722188 13.8 415.722188 15 
L 415.722188 49.6275 
Q 415.722188 50.8275 416.922188 50.8275 
z
" style="fill:#ffffff;opacity:0.8;stroke:#cccccc;stroke-linejoin:miter;"/>
    </g>
    <g id="line2d_52">
     <path d="M 418.122187 18.659063 
L 430.122187 18.659063 
" style="fill:none;stroke:#1f77b4;stroke-linecap:square;stroke-width:0.5;"/>
    </g>
    <g id="line2d_53"/>
    <g id="text_29">
     <!-- Median -->
     <g transform="translate(434.922188 20.759063)scale(0.06 -0.06)">
      <use xlink:href="#DejaVuSans-77"/>
      <use x="86.279297" xlink:href="#DejaVuSans-101"/>
      <use x="147.802734" xlink:href="#DejaVuSans-100"/>
      <use x="211.279297" xlink:href="#DejaVuSans-105"/>
      <use x="239.0625" xlink:href="#DejaVuSans-97"/>
      <use x="300.341797" xlink:href="#DejaVuSans-110"/>
     </g>
    </g>
    <g id="line2d_54">
     <path d="M 418.122187 27.465938 
L 430.122187 27.465938 
" style="fill:none;stroke:#000000;stroke-linecap:square;stroke-width:0.5;"/>
    </g>
    <g id="line2d_55"/>
    <g id="text_30">
     <!-- Reference -->
     <g transform="translate(434.922188 29.565938)scale(0.06 -0.06)">
      <use xlink:href="#DejaVuSans-82"/>
      <use x="64.982422" xlink:href="#DejaVuSans-101"/>
      <use x="126.505859" xlink:href="#DejaVuSans-102"/>
      <use x="161.710938" xlink:href="#DejaVuSans-101"/>
      <use x="223.234375" xlink:href="#DejaVuSans-114"/>
      <use x="262.097656" xlink:href="#DejaVuSans-101"/>
      <use x="323.621094" xlink:href="#DejaVuSans-110"/>
      <use x="387" xlink:href="#DejaVuSans-99"/>
      <use x="441.980469" xlink:href="#DejaVuSans-101"/>
     </g>
    </g>
    <g id="line2d_56">
     <path d="M 418.122187 36.272813 
L 430.122187 36.272813 
" style="fill:none;stroke:#ff7f0e;stroke-linecap:square;stroke-width:0.5;"/>
    </g>
    <g id="line2d_57"/>
    <g id="text_31">
     <!-- Initial -->
     <g transform="translate(434.922188 38.372813)scale(0.06 -0.06)">
      <use xlink:href="#DejaVuSans-73"/>
      <use x="29.492188" xlink:href="#DejaVuSans-110"/>
      <use x="92.871094" xlink:href="#DejaVuSans-105"/>
      <use x="120.654297" xlink:href="#DejaVuSans-116"/>
      <use x="159.863281" xlink:href="#DejaVuSans-105"/>
      <use x="187.646484" xlink:href="#DejaVuSans-97"/>
      <use x="248.925781" xlink:href="#DejaVuSans-108"/>
     </g>
    </g>
    <g id="patch_22">
     <path d="M 418.122187 47.179688 
L 430.122187 47.179688 
L 430.122187 42.979688 
L 418.122187 42.979688 
z
" style="fill:#1f77b4;opacity:0.3;"/>
    </g>
    <g id="text_32">
     <!-- 95% HPD Interval -->
     <g transform="translate(434.922188 47.179688)scale(0.06 -0.06)">
      <use xlink:href="#DejaVuSans-57"/>
      <use x="63.623047" xlink:href="#DejaVuSans-53"/>
      <use x="127.246094" xlink:href="#DejaVuSans-37"/>
      <use x="222.265625" xlink:href="#DejaVuSans-32"/>
      <use x="254.052734" xlink:href="#DejaVuSans-72"/>
      <use x="329.248047" xlink:href="#DejaVuSans-80"/>
      <use x="389.550781" xlink:href="#DejaVuSans-68"/>
      <use x="466.552734" xlink:href="#DejaVuSans-32"/>
      <use x="498.339844" xlink:href="#DejaVuSans-73"/>
      <use x="527.832031" xlink:href="#DejaVuSans-110"/>
      <use x="591.210938" xlink:href="#DejaVuSans-116"/>
      <use x="630.419922" xlink:href="#DejaVuSans-101"/>
      <use x="691.943359" xlink:href="#DejaVuSans-114"/>
      <use x="733.056641" xlink:href="#DejaVuSans-118"/>
      <use x="792.236328" xlink:href="#DejaVuSans-97"/>
      <use x="853.515625" xlink:href="#DejaVuSans-108"/>
     </g>
    </g>
   </g>
  </g>
 </g>
 <defs>
  <clipPath id="pf9a7c34e79">
   <rect height="235.24" width="138.93" x="47.81" y="10.8"/>
  </clipPath>
  <clipPath id="p0cae286add">
   <rect height="235.24" width="138.93" x="201.04" y="10.8"/>
  </clipPath>
  <clipPath id="pa280d15c1f">
   <rect height="235.24" width="138.93" x="354.27" y="10.8"/>
  </clipPath>
 </defs>
</svg>
