<?xml version="1.0" encoding="utf-8"?>
<!-- Generator: Adobe Illustrator 24.3.0, SVG Export Plug-In . SVG Version: 6.00 Build 0)  -->
<svg version="1.1" id="Data_highlighted" xmlns="http://www.w3.org/2000/svg" xmlns:xlink="http://www.w3.org/1999/xlink" x="0px"
	 y="0px" viewBox="0 0 1920 1080" style="enable-background:new 0 0 1920 1080;" xml:space="preserve">
<style type="text/css">
	.st0{clip-path:url(#SVGID_2_);}
	.st1{fill:#F6891F;}
	.st2{enable-background:new    ;}
	.st3{fill:none;stroke:#000000;stroke-width:7;stroke-linecap:round;stroke-miterlimit:10;}
</style>
<g>
	<defs>
		<rect id="SVGID_1_" x="76" y="276" width="1806" height="429.2"/>
	</defs>
	<clipPath id="SVGID_2_">
		<use xlink:href="#SVGID_1_"  style="overflow:visible;"/>
	</clipPath>
	<g class="st0">
		<path d="M119.5,472.6h20.1c-5.9,26.3-7.5,33.9-7.5,45.8c-0.1,4.5,0.4,9.1,1.4,13.5c1.8,7.8,3.7,8.9,6.4,8.9c3.5,0,7.3-3.2,7.3-6.8
			c0-1.1,0-1.4-1.1-3.9c-3.6-9.3-5.4-19.3-5.1-29.3c0.1-9.5,1.2-18.9,3.2-28.2h20.3c2.3,0,8.7,0,8.7-6.1c0-4.3-3.8-4.3-7.1-4.3
			h-59.5c-3.9,0-10.7,0-18.5,8.4c-6.2,6.9-10.8,15.1-10.8,16c0,0.2,0,1.8,2.1,1.8c1.4,0,1.8-0.7,2.8-2.1c8.7-13.7,19-13.7,22.5-13.7
			h10.1c-5.7,21.5-15.3,43-22.7,59.2c-1.4,2.7-1.4,3-1.4,4.2c0,3.4,2.8,4.8,5.1,4.8c5.3,0,6.8-5,8.9-11.5c2.5-8.2,2.5-8.5,4.8-17.4
			L119.5,472.6"/>
		<path d="M238.5,581.5c0-0.5,0-0.9-3-3.9c-22.2-22.4-27.9-56-27.9-83.1c0-30.9,6.8-61.8,28.6-84c2.3-2.1,2.3-2.5,2.3-3
			c0.1-0.9-0.5-1.7-1.4-1.8c-0.1,0-0.3,0-0.4,0c-1.8,0-17.8,12.1-28.3,34.6c-9.1,19.5-11.2,39.3-11.2,54.2c0,13.8,2,35.3,11.7,55.4
			c10.6,21.8,25.9,33.4,27.7,33.4c0.9,0.1,1.7-0.5,1.8-1.4C238.5,581.8,238.5,581.7,238.5,581.5"/>
		<path d="M309.5,480.1c-1.9,8.2-5.7,23.2-12.4,36c-6.2,12.1-13,20.8-20.6,20.8c-5.9,0-9.6-5.1-9.6-21.7c0-7.5,1.1-17.8,5.7-35.1
			L309.5,480.1 M274,474.4c3-11.4,6.6-25.6,13.7-38.2c4.8-8.7,11.4-18.6,19.4-18.6c8.7,0,9.8,11.4,9.8,21.5c0,8.7-1.4,17.8-5.7,35.3
			L274,474.4z M328.5,450c0-11.7-3.2-36.4-21.3-36.4c-24.7,0-52.1,50.1-52.1,90.8c0,16.7,5.1,36.4,21.3,36.4
			C301.5,540.8,328.5,489.8,328.5,450z"/>
		<path d="M363.5,412c0-3.2,0-6.4-3.5-6.4s-3.5,3.2-3.5,6.4v164.9c0,3.2,0,6.4,3.5,6.4s3.5-3.2,3.5-6.4V412"/>
		<path class="st1" d="M452,429.8c1.6-6.2,2-6.7,9.6-6.7h19c17.4,0,32.1,9.4,32.1,32.9c0,8.7-3.5,37.8-18.6,57.4
			c-5.2,6.6-19.2,20.1-41,20.1h-20c-1.3,0.1-2.6,0-3.9-0.2c-1.8-0.2-2.3-0.4-2.3-1.8c0-0.5,0-0.9,0.9-4.1L452,429.8 M413.6,525
			c-1.8,6.9-2.1,8.3-16.2,8.3c-3,0-5,0-5,3.4c0,2.1,1.6,2.1,5,2.1h58.8c36.9,0,71.9-37.5,71.9-76.4c0-25-15.1-44.9-41.7-44.9h-59.7
			c-3.4,0-5.3,0-5.3,3.4c0,2.1,1.6,2.1,5.1,2.1c2.3,0,5.5,0.2,7.6,0.4c2.9,0.3,3.9,0.9,3.9,2.8c-0.1,1.2-0.3,2.3-0.7,3.4L413.6,525z
			"/>
		<path d="M588.7,494.5c0-13.9-2-35.4-11.7-55.4c-10.7-21.9-25.9-33.4-27.7-33.4c-0.9-0.1-1.7,0.6-1.8,1.6c0,0.1,0,0.1,0,0.2
			c0,0.5,0,0.9,3.4,4.1c17.4,17.6,27.5,45.8,27.5,83c0,30.4-6.6,61.6-28.6,84c-2.3,2.1-2.3,2.5-2.3,3c0,0.9,0.7,1.7,1.6,1.8
			c0.1,0,0.1,0,0.2,0c1.8,0,17.8-12.1,28.2-34.6C586.5,529,588.7,509.4,588.7,494.5"/>
		<path d="M781.1,515.2c2.5,0,5.9,0,5.9-3.5s-3.4-3.5-6-3.5H674.9c-2.7,0-6,0-6,3.5s3.4,3.5,5.9,3.5H781.1 M781,480.8
			c2.7,0,6,0,6-3.5s-3.4-3.5-5.9-3.5H674.7c-2.5,0-5.9,0-5.9,3.5s3.4,3.5,6,3.5H781z"/>
		<path d="M915.2,351h20.1c-5.9,26.3-7.5,33.9-7.5,45.8c-0.1,4.5,0.4,9.1,1.4,13.5c1.8,7.8,3.7,8.9,6.4,8.9c3.5,0,7.3-3.2,7.3-6.8
			c0-1.1,0-1.4-1.1-3.9c-3.6-9.3-5.4-19.3-5.1-29.3c0.1-9.5,1.2-18.9,3.2-28.2h20.3c2.3,0,8.7,0,8.7-6.1c0-4.2-3.8-4.2-7.1-4.2
			h-59.5c-3.9,0-10.7,0-18.5,8.4c-6.2,6.9-10.8,15.1-10.8,16c0,0.2,0,1.8,2.1,1.8c1.4,0,1.8-0.7,2.8-2.1c8.7-13.7,19-13.7,22.5-13.7
			h10.1c-5.7,21.5-15.3,43-22.7,59.1c-1.4,2.7-1.4,3-1.4,4.3c0,3.4,2.8,4.8,5.1,4.8c5.3,0,6.8-5,8.9-11.5c2.5-8.2,2.5-8.5,4.8-17.4
			L915.2,351"/>
		<path d="M1034.2,459.9c0-0.5,0-0.9-3-3.9c-22.2-22.4-27.9-56-27.9-83.1c0-30.9,6.8-61.8,28.6-84c2.3-2.1,2.3-2.5,2.3-3
			c0.1-0.9-0.5-1.7-1.4-1.8c-0.1,0-0.3,0-0.4,0c-1.8,0-17.8,12.1-28.3,34.6c-9.1,19.5-11.2,39.3-11.2,54.2c0,13.8,2,35.3,11.7,55.4
			c10.7,21.9,25.9,33.4,27.7,33.4c0.9,0.1,1.7-0.5,1.8-1.4C1034.2,460.2,1034.2,460,1034.2,459.9"/>
		<path class="st1" d="M1110,308.2c1.6-6.2,2-6.7,9.6-6.7h19c17.4,0,32.1,9.4,32.1,32.9c0,8.7-3.6,37.8-18.6,57.4
			c-5.2,6.6-19.2,20.1-41,20.1H1091c-1.3,0.1-2.6,0-3.9-0.2c-1.8-0.2-2.3-0.4-2.3-1.8c0-0.5,0-0.9,0.9-4.1L1110,308.2 M1071.6,403.4
			c-1.8,6.9-2.1,8.4-16.2,8.4c-3,0-5,0-5,3.4c0,2.1,1.6,2.1,5,2.1h58.8c36.9,0,71.9-37.5,71.9-76.4c0-25-15.1-44.9-41.7-44.9h-59.7
			c-3.3,0-5.3,0-5.3,3.4c0,2.1,1.6,2.1,5.1,2.1c2.3,0,5.5,0.2,7.6,0.4c2.8,0.3,3.9,0.9,3.9,2.8c-0.1,1.1-0.3,2.3-0.7,3.4
			L1071.6,403.4z"/>
		<path d="M1223.6,290.4c0-3.2,0-6.4-3.6-6.4s-3.6,3.2-3.6,6.4v164.9c0,3.2,0,6.4,3.6,6.4s3.6-3.2,3.6-6.4V290.4"/>
		<path d="M1307.2,358.5c-1.9,8.1-5.7,23.2-12.4,36c-6.2,12.1-13,20.8-20.6,20.8c-5.9,0-9.6-5.1-9.6-21.7c0-7.5,1.1-17.7,5.7-35.1
			L1307.2,358.5 M1271.7,352.7c3-11.4,6.6-25.6,13.7-38.2c4.8-8.7,11.4-18.6,19.4-18.6c8.7,0,9.8,11.4,9.8,21.5
			c0,8.7-1.4,17.8-5.7,35.4H1271.7z M1326.3,328.4c0-11.7-3.2-36.4-21.3-36.4c-24.7,0-52,50.1-52,90.8c0,16.7,5.1,36.4,21.3,36.4
			C1299.2,419.2,1326.3,368.2,1326.3,328.4L1326.3,328.4z"/>
		<path d="M1384.4,372.9c0-13.9-1.9-35.4-11.7-55.4c-10.7-21.8-25.9-33.4-27.7-33.4c-0.9-0.1-1.7,0.6-1.8,1.6c0,0.1,0,0.1,0,0.2
			c0,0.5,0,0.9,3.4,4.1c17.4,17.6,27.6,45.8,27.6,83c0,30.4-6.6,61.6-28.6,84c-2.3,2.1-2.3,2.5-2.3,3c0,0.9,0.7,1.7,1.6,1.8
			c0.1,0,0.1,0,0.2,0c1.8,0,17.8-12.1,28.3-34.6C1382.2,407.5,1384.4,387.8,1384.4,372.9"/>
		<path d="M1479.8,372.9c0-5.2-4.2-9.4-9.4-9.4s-9.4,4.2-9.4,9.4s4.2,9.4,9.4,9.4c0,0,0,0,0,0
			C1475.6,382.2,1479.8,378.1,1479.8,372.9"/>
		<path d="M1580.4,351h20.1c-5.9,26.3-7.5,33.9-7.5,45.8c-0.1,4.5,0.4,9.1,1.4,13.5c1.8,7.8,3.7,8.9,6.4,8.9c3.6,0,7.3-3.2,7.3-6.8
			c0-1.1,0-1.4-1.1-3.9c-3.6-9.3-5.4-19.3-5.1-29.3c0.1-9.5,1.2-18.9,3.2-28.2h20.3c2.3,0,8.7,0,8.7-6.1c0-4.2-3.8-4.2-7.1-4.2
			h-59.5c-3.9,0-10.7,0-18.5,8.4c-6.2,6.9-10.8,15.1-10.8,16c0,0.2,0,1.8,2.1,1.8c1.4,0,1.8-0.7,2.8-2.1c8.7-13.7,19-13.7,22.5-13.7
			h10.1c-5.7,21.5-15.3,43-22.7,59.1c-1.4,2.7-1.4,3-1.4,4.3c0,3.4,2.8,4.8,5.1,4.8c5.3,0,6.8-5,8.9-11.5c2.5-8.2,2.5-8.5,4.8-17.4
			L1580.4,351"/>
		<path d="M1699.4,459.9c0-0.5,0-0.9-3-3.9c-22.2-22.4-27.9-56-27.9-83.1c0-30.9,6.8-61.8,28.6-84c2.3-2.1,2.3-2.5,2.3-3
			c0.1-0.9-0.5-1.7-1.4-1.8c-0.1,0-0.3,0-0.4,0c-1.8,0-17.8,12.1-28.3,34.6c-9.1,19.5-11.2,39.3-11.2,54.2c0,13.8,2,35.3,11.7,55.4
			c10.7,21.9,25.9,33.4,27.7,33.4c0.9,0.1,1.7-0.5,1.8-1.4C1699.4,460.2,1699.4,460,1699.4,459.9"/>
		<path d="M1770.4,358.5c-1.9,8.1-5.7,23.2-12.4,36c-6.2,12.1-13,20.8-20.6,20.8c-5.9,0-9.6-5.1-9.6-21.7c0-7.5,1.1-17.7,5.7-35.1
			L1770.4,358.5 M1734.8,352.7c3-11.4,6.6-25.6,13.7-38.2c4.8-8.7,11.4-18.6,19.4-18.6c8.7,0,9.8,11.4,9.8,21.5
			c0,8.7-1.4,17.8-5.7,35.4H1734.8z M1789.4,328.4c0-11.7-3.2-36.4-21.3-36.4c-24.7,0-52,50.1-52,90.8c0,16.7,5.1,36.4,21.3,36.4
			C1762.4,419.2,1789.4,368.2,1789.4,328.4L1789.4,328.4z"/>
		<path d="M1847.5,372.9c0-13.9-2-35.4-11.7-55.4c-10.7-21.8-25.9-33.4-27.7-33.4c-0.9-0.1-1.7,0.6-1.8,1.6c0,0.1,0,0.1,0,0.2
			c0,0.5,0,0.9,3.4,4.1c17.4,17.6,27.5,45.8,27.5,83c0,30.4-6.6,61.6-28.6,84c-2.3,2.1-2.3,2.5-2.3,3c0,0.9,0.7,1.7,1.6,1.8
			c0.1,0,0.1,0,0.2,0c1.8,0,17.8-12.1,28.3-34.6C1845.3,407.5,1847.5,387.8,1847.5,372.9"/>
		<path d="M1215.6,594.2h20.1c-5.9,26.3-7.5,33.9-7.5,45.8c-0.1,4.5,0.4,9.1,1.4,13.5c1.8,7.8,3.8,8.9,6.4,8.9
			c3.6,0,7.3-3.2,7.3-6.8c0-1.1,0-1.4-1.1-3.9c-3.6-9.3-5.4-19.3-5.1-29.3c0.1-9.5,1.2-18.9,3.2-28.2h20.3c2.3,0,8.7,0,8.7-6.1
			c0-4.3-3.7-4.3-7.1-4.3h-59.5c-3.9,0-10.7,0-18.5,8.4c-6.2,6.9-10.8,15.1-10.8,16c0,0.2,0,1.8,2.1,1.8c1.4,0,1.8-0.7,2.8-2.1
			c8.7-13.7,19-13.7,22.6-13.7h10.1c-5.7,21.5-15.3,43-22.7,59.2c-1.4,2.7-1.4,3-1.4,4.3c0,3.4,2.8,4.8,5.1,4.8
			c5.3,0,6.8-5,8.9-11.5c2.5-8.2,2.5-8.5,4.8-17.4L1215.6,594.2"/>
		<path d="M1334.6,703.1c0-0.5,0-0.9-3-3.9c-22.2-22.4-27.9-56-27.9-83.1c0-30.9,6.8-61.8,28.6-84c2.3-2.1,2.3-2.5,2.3-3
			c0.1-0.9-0.5-1.7-1.4-1.8c-0.1,0-0.3,0-0.4,0c-1.8,0-17.8,12.1-28.2,34.7c-9.1,19.5-11.2,39.3-11.2,54.2c0,13.8,2,35.3,11.7,55.4
			c10.6,21.8,25.9,33.4,27.7,33.4c0.9,0.1,1.7-0.5,1.8-1.4C1334.6,703.4,1334.6,703.3,1334.6,703.1"/>
		<path class="st1" d="M1410.4,551.4c1.6-6.2,2-6.7,9.6-6.7h19c17.4,0,32.1,9.4,32.1,32.8c0,8.7-3.6,37.8-18.6,57.4
			c-5.2,6.6-19.2,20.1-41,20.1h-20.1c-1.3,0.1-2.6,0-3.9-0.2c-1.8-0.2-2.3-0.4-2.3-1.8c0-0.5,0-0.9,0.9-4.1L1410.4,551.4
			 M1372,646.6c-1.8,6.9-2.1,8.3-16.2,8.3c-3,0-5,0-5,3.4c0,2.1,1.6,2.1,5,2.1h58.8c36.9,0,71.9-37.5,71.9-76.4
			c0-25-15.1-44.9-41.7-44.9h-59.7c-3.4,0-5.3,0-5.3,3.4c0,2.1,1.6,2.1,5.1,2.1c2.3,0,5.5,0.2,7.6,0.4c2.8,0.3,3.9,0.9,3.9,2.8
			c-0.1,1.1-0.3,2.3-0.7,3.4L1372,646.6z"/>
		<path d="M1547.1,616c0-13.9-2-35.4-11.7-55.4c-10.7-21.8-25.9-33.4-27.7-33.4c-0.9-0.1-1.7,0.6-1.8,1.6c0,0.1,0,0.1,0,0.2
			c0,0.5,0,0.9,3.4,4.1c17.4,17.6,27.6,45.8,27.6,83c0,30.4-6.6,61.6-28.6,84c-2.3,2.1-2.3,2.5-2.3,3c0,0.9,0.7,1.7,1.6,1.8
			c0.1,0,0.1,0,0.2,0c1.8,0,17.8-12.1,28.2-34.6C1545,650.6,1547.1,630.9,1547.1,616"/>
	</g>
</g>
<g class="st2">
	<path class="st1" d="M491.3,842.1c-7.4-9.6-15.4-16.6-32.8-16.6c-16,0-26.8,7.2-26.8,21.6c0,16.4,12.4,22,32.6,25.6
		c26.6,4.6,42.8,14.2,42.8,39.8c0,18-12,38.6-46.4,38.6c-22.4,0-38.8-7.6-49.2-22.6l14.2-9.8c9,10.6,17,16.8,35,16.8
		c22.6,0,29.2-10.4,29.2-22.2c0-13-6.6-21.8-32.6-25.8s-42.8-16.4-42.8-40.4c0-19.8,13-37.2,44.6-37.2c22,0,35.8,7.4,45.6,22.6
		L491.3,842.1z"/>
	<path class="st1" d="M602.5,934.3c-7,12.2-17.6,16.8-35,16.8c-26.8,0-42.8-17.4-42.8-45.2v-13.2c0-28.4,13.4-44.8,39.6-44.8
		c26.4,0,39.6,16.2,39.6,44.8v10.4h-63.2v2.8c0,17.2,8.2,30.8,25.6,30.8c13,0,19.6-3.8,23.8-11.2L602.5,934.3z M540.7,889.1h47
		c-0.8-16.8-8.2-26.8-23.4-26.8C548.9,862.3,541.7,872.5,540.7,889.1z"/>
	<path class="st1" d="M629.3,811.5h18v18h-18V811.5z M630.3,849.5h16v100h-16V849.5z"/>
	<path class="st1" d="M731.5,872.9c-5.4-7-11-10.2-24.8-10.2c-11.8,0-19.4,4.6-19.4,13.4c0,11.4,10,14.8,23.2,15.8
		c18.8,1.4,36,6.8,36,29.8c0,17.4-11.8,29.4-37.6,29.4c-20.4,0-31-6.2-38.6-16.6l11.8-8.4c5.4,7.2,12.6,10.2,27,10.2
		c13.4,0,21.4-5.2,21.4-14.2c0-10.8-6.4-14.6-25.8-16c-16.8-1.2-33.4-8-33.4-29.8c0-16.6,12-28.4,35.8-28.4
		c16.2,0,28.6,4.2,36.4,16.6L731.5,872.9z"/>
	<path class="st1" d="M768.5,849.5h16v9.8c4.4-6.8,12-11.4,24.8-11.4c13.4,0,23.6,5.4,29.2,15.8c6.8-10.6,17.8-15.8,30-15.8
		c21.4,0,34.4,13.2,34.4,39.2v62.4h-16v-62.2c0-18.2-9-24.6-20.8-24.6c-12.8,0-22.4,10.2-22.4,24.4v62.4h-16v-62.2
		c0-18.2-9-24.6-20.8-24.6c-13,0-22.4,10.6-22.4,24.4v62.4h-16V849.5z"/>
	<path class="st1" d="M930.9,811.5h18v18h-18V811.5z M931.9,849.5h16v100h-16V849.5z"/>
	<path class="st1" d="M1049.7,934.3c-6.2,11.6-18.4,16.8-34.6,16.8c-27.4,0-43.2-17.6-43.2-45.2v-13.2c0-28.4,16.2-44.8,43.2-44.8
		c15,0,27.4,5.4,34.6,15.6l-12.6,8.8c-4.4-6.4-12.8-10-22-10c-17.2,0-27.2,11.6-27.2,30.4v13.2c0,17.2,8,30.8,27.2,30.8
		c9.4,0,18-3.2,22.2-11.2L1049.7,934.3z"/>
	<path class="st1" d="M1119.7,949.5v-138h44c30.6,0,50,17.2,50,61.8v14.4c0,44.6-19.4,61.8-50,61.8H1119.7z M1196.5,887.7v-14.4
		c0-34.2-11.6-46.2-32.8-46.2h-26.8v106.8h26.8C1184.9,933.9,1196.5,921.9,1196.5,887.7z"/>
	<path class="st1" d="M1269.1,891.7h23.8v-11.6c0-14.2-6.6-17.4-22.2-17.4c-12,0-18.4,1-24,10.2l-12-8.4c7-11.6,17.2-16.6,36.2-16.6
		c25.4,0,38,8.2,38,32.2v69.4h-16v-9.8c-5.6,9.2-12.4,11.4-25.4,11.4c-23.2,0-35.8-11.4-35.8-30.8
		C1231.7,898.7,1247.1,891.7,1269.1,891.7z M1292.9,905.3h-23.8c-15.8,0-21.4,5.4-21.4,15.4c0,11.2,8,15.6,19.8,15.6
		c14.8,0,25.4-2.8,25.4-25.2V905.3z"/>
	<path class="st1" d="M1326.1,849.5h12.8v-22h16v22h23v14.4h-23v50.8c0,13.8,1.6,19.6,15,19.6h8v15.2h-8.6
		c-23.6,0-30.4-10-30.4-30.8v-54.8h-12.8V849.5z"/>
	<path class="st1" d="M1430.3,891.7h23.8v-11.6c0-14.2-6.6-17.4-22.2-17.4c-12,0-18.4,1-24,10.2l-12-8.4c7-11.6,17.2-16.6,36.2-16.6
		c25.4,0,38,8.2,38,32.2v69.4h-16v-9.8c-5.6,9.2-12.4,11.4-25.4,11.4c-23.2,0-35.8-11.4-35.8-30.8
		C1392.9,898.7,1408.3,891.7,1430.3,891.7z M1454.1,905.3h-23.8c-15.8,0-21.4,5.4-21.4,15.4c0,11.2,8,15.6,19.8,15.6
		c14.8,0,25.4-2.8,25.4-25.2V905.3z"/>
</g>
<line class="st3" x1="868" y1="495" x2="1869.5" y2="495"/>
</svg>
