<?xml version="1.0" encoding="utf-8"?>
<!-- Generator: Adobe Illustrator 24.3.0, SVG Export Plug-In . SVG Version: 6.00 Build 0)  -->
<svg version="1.1" id="Posterior" xmlns="http://www.w3.org/2000/svg" xmlns:xlink="http://www.w3.org/1999/xlink" x="0px" y="0px"
	 viewBox="0 0 1920 1080" style="enable-background:new 0 0 1920 1080;" xml:space="preserve">
<style type="text/css">
	.st0{clip-path:url(#SVGID_2_);}
	.st1{fill:#F6891F;}
	.st2{fill:#231F20;}
	.st3{enable-background:new    ;}
	.st4{fill:none;stroke:#000000;stroke-width:7;stroke-linecap:round;stroke-miterlimit:10;}
</style>
<g>
	<defs>
		<rect id="SVGID_1_" x="76" y="276" width="1806" height="429.2"/>
	</defs>
	<clipPath id="SVGID_2_">
		<use xlink:href="#SVGID_1_"  style="overflow:visible;"/>
	</clipPath>
	<g class="st0">
		<path class="st1" d="M119.5,472.6h20.1c-5.9,26.3-7.5,33.9-7.5,45.8c-0.1,4.5,0.4,9.1,1.4,13.5c1.8,7.8,3.7,8.9,6.4,8.9
			c3.5,0,7.3-3.2,7.3-6.8c0-1.1,0-1.4-1.1-3.9c-3.6-9.3-5.4-19.3-5.1-29.3c0.1-9.5,1.2-18.9,3.2-28.2h20.3c2.3,0,8.7,0,8.7-6.1
			c0-4.3-3.8-4.3-7.1-4.3h-59.5c-3.9,0-10.7,0-18.5,8.4c-6.2,6.9-10.8,15.1-10.8,16c0,0.2,0,1.8,2.1,1.8c1.4,0,1.8-0.7,2.8-2.1
			c8.7-13.7,19-13.7,22.5-13.7h10.1c-5.7,21.5-15.3,43-22.7,59.2c-1.4,2.7-1.4,3-1.4,4.2c0,3.4,2.8,4.8,5.1,4.8
			c5.3,0,6.8-5,8.9-11.5c2.5-8.2,2.5-8.5,4.8-17.4L119.5,472.6"/>
		<path class="st1" d="M238.5,581.5c0-0.5,0-0.9-3-3.9c-22.2-22.4-27.9-56-27.9-83.1c0-30.9,6.8-61.8,28.6-84c2.3-2.1,2.3-2.5,2.3-3
			c0.1-0.9-0.5-1.7-1.4-1.8c-0.1,0-0.3,0-0.4,0c-1.8,0-17.8,12.1-28.3,34.6c-9.1,19.5-11.2,39.3-11.2,54.2c0,13.8,2,35.3,11.7,55.4
			c10.6,21.8,25.9,33.4,27.7,33.4c0.9,0.1,1.7-0.5,1.8-1.4C238.5,581.8,238.5,581.7,238.5,581.5"/>
		<path class="st1" d="M309.5,480.1c-1.9,8.2-5.7,23.2-12.4,36c-6.2,12.1-13,20.8-20.6,20.8c-5.9,0-9.6-5.1-9.6-21.7
			c0-7.5,1.1-17.8,5.7-35.1L309.5,480.1 M274,474.4c3-11.4,6.6-25.6,13.7-38.2c4.8-8.7,11.4-18.6,19.4-18.6c8.7,0,9.8,11.4,9.8,21.5
			c0,8.7-1.4,17.8-5.7,35.3L274,474.4z M328.5,450c0-11.7-3.2-36.4-21.3-36.4c-24.7,0-52.1,50.1-52.1,90.8
			c0,16.7,5.1,36.4,21.3,36.4C301.5,540.8,328.5,489.8,328.5,450z"/>
		<path class="st1" d="M363.5,412c0-3.2,0-6.4-3.5-6.4s-3.5,3.2-3.5,6.4v164.9c0,3.2,0,6.4,3.5,6.4s3.5-3.2,3.5-6.4V412"/>
		<path class="st1" d="M452,429.8c1.6-6.2,2-6.7,9.6-6.7h19c17.4,0,32.1,9.4,32.1,32.9c0,8.7-3.5,37.8-18.6,57.4
			c-5.2,6.6-19.2,20.1-41,20.1h-20c-1.3,0.1-2.6,0-3.9-0.2c-1.8-0.2-2.3-0.4-2.3-1.8c0-0.5,0-0.9,0.9-4.1L452,429.8 M413.6,525
			c-1.8,6.9-2.1,8.3-16.2,8.3c-3,0-5,0-5,3.4c0,2.1,1.6,2.1,5,2.1h58.8c36.9,0,71.9-37.5,71.9-76.4c0-25-15.1-44.9-41.7-44.9h-59.7
			c-3.4,0-5.3,0-5.3,3.4c0,2.1,1.6,2.1,5.1,2.1c2.3,0,5.5,0.2,7.6,0.4c2.9,0.3,3.9,0.9,3.9,2.8c-0.1,1.2-0.3,2.3-0.7,3.4L413.6,525z
			"/>
		<path class="st1" d="M588.7,494.5c0-13.9-2-35.4-11.7-55.4c-10.7-21.9-25.9-33.4-27.7-33.4c-0.9-0.1-1.7,0.6-1.8,1.6
			c0,0.1,0,0.1,0,0.2c0,0.5,0,0.9,3.4,4.1c17.4,17.6,27.5,45.8,27.5,83c0,30.4-6.6,61.6-28.6,84c-2.3,2.1-2.3,2.5-2.3,3
			c0,0.9,0.7,1.7,1.6,1.8c0.1,0,0.1,0,0.2,0c1.8,0,17.8-12.1,28.2-34.6C586.5,529,588.7,509.4,588.7,494.5"/>
		<path d="M781.1,515.2c2.5,0,5.9,0,5.9-3.5s-3.4-3.5-6-3.5H674.9c-2.7,0-6,0-6,3.5s3.4,3.5,5.9,3.5H781.1 M781,480.8
			c2.7,0,6,0,6-3.5s-3.4-3.5-5.9-3.5H674.7c-2.5,0-5.9,0-5.9,3.5s3.4,3.5,6,3.5H781z"/>
		<path class="st2" d="M915.2,351h20.1c-5.9,26.3-7.5,33.9-7.5,45.8c-0.1,4.5,0.4,9.1,1.4,13.5c1.8,7.8,3.7,8.9,6.4,8.9
			c3.5,0,7.3-3.2,7.3-6.8c0-1.1,0-1.4-1.1-3.9c-3.6-9.3-5.4-19.3-5.1-29.3c0.1-9.5,1.2-18.9,3.2-28.2h20.3c2.3,0,8.7,0,8.7-6.1
			c0-4.2-3.8-4.2-7.1-4.2h-59.5c-3.9,0-10.7,0-18.5,8.4c-6.2,6.9-10.8,15.1-10.8,16c0,0.2,0,1.8,2.1,1.8c1.4,0,1.8-0.7,2.8-2.1
			c8.7-13.7,19-13.7,22.5-13.7h10.1c-5.7,21.5-15.3,43-22.7,59.1c-1.4,2.7-1.4,3-1.4,4.3c0,3.4,2.8,4.8,5.1,4.8
			c5.3,0,6.8-5,8.9-11.5c2.5-8.2,2.5-8.5,4.8-17.4L915.2,351"/>
		<path class="st2" d="M1034.2,459.9c0-0.5,0-0.9-3-3.9c-22.2-22.4-27.9-56-27.9-83.1c0-30.9,6.8-61.8,28.6-84
			c2.3-2.1,2.3-2.5,2.3-3c0.1-0.9-0.5-1.7-1.4-1.8c-0.1,0-0.3,0-0.4,0c-1.8,0-17.8,12.1-28.3,34.6c-9.1,19.5-11.2,39.3-11.2,54.2
			c0,13.8,2,35.3,11.7,55.4c10.7,21.9,25.9,33.4,27.7,33.4c0.9,0.1,1.7-0.5,1.8-1.4C1034.2,460.2,1034.2,460,1034.2,459.9"/>
		<path class="st2" d="M1110,308.2c1.6-6.2,2-6.7,9.6-6.7h19c17.4,0,32.1,9.4,32.1,32.9c0,8.7-3.6,37.8-18.6,57.4
			c-5.2,6.6-19.2,20.1-41,20.1H1091c-1.3,0.1-2.6,0-3.9-0.2c-1.8-0.2-2.3-0.4-2.3-1.8c0-0.5,0-0.9,0.9-4.1L1110,308.2 M1071.6,403.4
			c-1.8,6.9-2.1,8.4-16.2,8.4c-3,0-5,0-5,3.4c0,2.1,1.6,2.1,5,2.1h58.8c36.9,0,71.9-37.5,71.9-76.4c0-25-15.1-44.9-41.7-44.9h-59.7
			c-3.3,0-5.3,0-5.3,3.4c0,2.1,1.6,2.1,5.1,2.1c2.3,0,5.5,0.2,7.6,0.4c2.8,0.3,3.9,0.9,3.9,2.8c-0.1,1.1-0.3,2.3-0.7,3.4
			L1071.6,403.4z"/>
		<path class="st2" d="M1223.6,290.4c0-3.2,0-6.4-3.6-6.4s-3.6,3.2-3.6,6.4v164.9c0,3.2,0,6.4,3.6,6.4s3.6-3.2,3.6-6.4V290.4"/>
		<path class="st2" d="M1307.2,358.5c-1.9,8.1-5.7,23.2-12.4,36c-6.2,12.1-13,20.8-20.6,20.8c-5.9,0-9.6-5.1-9.6-21.7
			c0-7.5,1.1-17.7,5.7-35.1L1307.2,358.5 M1271.7,352.7c3-11.4,6.6-25.6,13.7-38.2c4.8-8.7,11.4-18.6,19.4-18.6
			c8.7,0,9.8,11.4,9.8,21.5c0,8.7-1.4,17.8-5.7,35.4H1271.7z M1326.3,328.4c0-11.7-3.2-36.4-21.3-36.4c-24.7,0-52,50.1-52,90.8
			c0,16.7,5.1,36.4,21.3,36.4C1299.2,419.2,1326.3,368.2,1326.3,328.4L1326.3,328.4z"/>
		<path class="st2" d="M1384.4,372.9c0-13.9-1.9-35.4-11.7-55.4c-10.7-21.8-25.9-33.4-27.7-33.4c-0.9-0.1-1.7,0.6-1.8,1.6
			c0,0.1,0,0.1,0,0.2c0,0.5,0,0.9,3.4,4.1c17.4,17.6,27.6,45.8,27.6,83c0,30.4-6.6,61.6-28.6,84c-2.3,2.1-2.3,2.5-2.3,3
			c0,0.9,0.7,1.7,1.6,1.8c0.1,0,0.1,0,0.2,0c1.8,0,17.8-12.1,28.3-34.6C1382.2,407.5,1384.4,387.8,1384.4,372.9"/>
		<path d="M1479.8,372.9c0-5.2-4.2-9.4-9.4-9.4s-9.4,4.2-9.4,9.4s4.2,9.4,9.4,9.4c0,0,0,0,0,0
			C1475.6,382.2,1479.8,378.1,1479.8,372.9"/>
		<path class="st2" d="M1580.4,351h20.1c-5.9,26.3-7.5,33.9-7.5,45.8c-0.1,4.5,0.4,9.1,1.4,13.5c1.8,7.8,3.7,8.9,6.4,8.9
			c3.6,0,7.3-3.2,7.3-6.8c0-1.1,0-1.4-1.1-3.9c-3.6-9.3-5.4-19.3-5.1-29.3c0.1-9.5,1.2-18.9,3.2-28.2h20.3c2.3,0,8.7,0,8.7-6.1
			c0-4.2-3.8-4.2-7.1-4.2h-59.5c-3.9,0-10.7,0-18.5,8.4c-6.2,6.9-10.8,15.1-10.8,16c0,0.2,0,1.8,2.1,1.8c1.4,0,1.8-0.7,2.8-2.1
			c8.7-13.7,19-13.7,22.5-13.7h10.1c-5.7,21.5-15.3,43-22.7,59.1c-1.4,2.7-1.4,3-1.4,4.3c0,3.4,2.8,4.8,5.1,4.8
			c5.3,0,6.8-5,8.9-11.5c2.5-8.2,2.5-8.5,4.8-17.4L1580.4,351"/>
		<path class="st2" d="M1699.4,459.9c0-0.5,0-0.9-3-3.9c-22.2-22.4-27.9-56-27.9-83.1c0-30.9,6.8-61.8,28.6-84
			c2.3-2.1,2.3-2.5,2.3-3c0.1-0.9-0.5-1.7-1.4-1.8c-0.1,0-0.3,0-0.4,0c-1.8,0-17.8,12.1-28.3,34.6c-9.1,19.5-11.2,39.3-11.2,54.2
			c0,13.8,2,35.3,11.7,55.4c10.7,21.9,25.9,33.4,27.7,33.4c0.9,0.1,1.7-0.5,1.8-1.4C1699.4,460.2,1699.4,460,1699.4,459.9"/>
		<path class="st2" d="M1770.4,358.5c-1.9,8.1-5.7,23.2-12.4,36c-6.2,12.1-13,20.8-20.6,20.8c-5.9,0-9.6-5.1-9.6-21.7
			c0-7.5,1.1-17.7,5.7-35.1L1770.4,358.5 M1734.8,352.7c3-11.4,6.6-25.6,13.7-38.2c4.8-8.7,11.4-18.6,19.4-18.6
			c8.7,0,9.8,11.4,9.8,21.5c0,8.7-1.4,17.8-5.7,35.4H1734.8z M1789.4,328.4c0-11.7-3.2-36.4-21.3-36.4c-24.7,0-52,50.1-52,90.8
			c0,16.7,5.1,36.4,21.3,36.4C1762.4,419.2,1789.4,368.2,1789.4,328.4L1789.4,328.4z"/>
		<path class="st2" d="M1847.5,372.9c0-13.9-2-35.4-11.7-55.4c-10.7-21.8-25.9-33.4-27.7-33.4c-0.9-0.1-1.7,0.6-1.8,1.6
			c0,0.1,0,0.1,0,0.2c0,0.5,0,0.9,3.4,4.1c17.4,17.6,27.5,45.8,27.5,83c0,30.4-6.6,61.6-28.6,84c-2.3,2.1-2.3,2.5-2.3,3
			c0,0.9,0.7,1.7,1.6,1.8c0.1,0,0.1,0,0.2,0c1.8,0,17.8-12.1,28.3-34.6C1845.3,407.5,1847.5,387.8,1847.5,372.9"/>
		<path class="st2" d="M1215.6,594.2h20.1c-5.9,26.3-7.5,33.9-7.5,45.8c-0.1,4.5,0.4,9.1,1.4,13.5c1.8,7.8,3.8,8.9,6.4,8.9
			c3.6,0,7.3-3.2,7.3-6.8c0-1.1,0-1.4-1.1-3.9c-3.6-9.3-5.4-19.3-5.1-29.3c0.1-9.5,1.2-18.9,3.2-28.2h20.3c2.3,0,8.7,0,8.7-6.1
			c0-4.3-3.7-4.3-7.1-4.3h-59.5c-3.9,0-10.7,0-18.5,8.4c-6.2,6.9-10.8,15.1-10.8,16c0,0.2,0,1.8,2.1,1.8c1.4,0,1.8-0.7,2.8-2.1
			c8.7-13.7,19-13.7,22.6-13.7h10.1c-5.7,21.5-15.3,43-22.7,59.2c-1.4,2.7-1.4,3-1.4,4.3c0,3.4,2.8,4.8,5.1,4.8
			c5.3,0,6.8-5,8.9-11.5c2.5-8.2,2.5-8.5,4.8-17.4L1215.6,594.2"/>
		<path class="st2" d="M1334.6,703.1c0-0.5,0-0.9-3-3.9c-22.2-22.4-27.9-56-27.9-83.1c0-30.9,6.8-61.8,28.6-84
			c2.3-2.1,2.3-2.5,2.3-3c0.1-0.9-0.5-1.7-1.4-1.8c-0.1,0-0.3,0-0.4,0c-1.8,0-17.8,12.1-28.2,34.7c-9.1,19.5-11.2,39.3-11.2,54.2
			c0,13.8,2,35.3,11.7,55.4c10.6,21.8,25.9,33.4,27.7,33.4c0.9,0.1,1.7-0.5,1.8-1.4C1334.6,703.4,1334.6,703.3,1334.6,703.1"/>
		<path class="st2" d="M1410.4,551.4c1.6-6.2,2-6.7,9.6-6.7h19c17.4,0,32.1,9.4,32.1,32.8c0,8.7-3.6,37.8-18.6,57.4
			c-5.2,6.6-19.2,20.1-41,20.1h-20.1c-1.3,0.1-2.6,0-3.9-0.2c-1.8-0.2-2.3-0.4-2.3-1.8c0-0.5,0-0.9,0.9-4.1L1410.4,551.4
			 M1372,646.6c-1.8,6.9-2.1,8.3-16.2,8.3c-3,0-5,0-5,3.4c0,2.1,1.6,2.1,5,2.1h58.8c36.9,0,71.9-37.5,71.9-76.4
			c0-25-15.1-44.9-41.7-44.9h-59.7c-3.4,0-5.3,0-5.3,3.4c0,2.1,1.6,2.1,5.1,2.1c2.3,0,5.5,0.2,7.6,0.4c2.8,0.3,3.9,0.9,3.9,2.8
			c-0.1,1.1-0.3,2.3-0.7,3.4L1372,646.6z"/>
		<path class="st2" d="M1547.1,616c0-13.9-2-35.4-11.7-55.4c-10.7-21.8-25.9-33.4-27.7-33.4c-0.9-0.1-1.7,0.6-1.8,1.6
			c0,0.1,0,0.1,0,0.2c0,0.5,0,0.9,3.4,4.1c17.4,17.6,27.6,45.8,27.6,83c0,30.4-6.6,61.6-28.6,84c-2.3,2.1-2.3,2.5-2.3,3
			c0,0.9,0.7,1.7,1.6,1.8c0.1,0,0.1,0,0.2,0c1.8,0,17.8-12.1,28.2-34.6C1545,650.6,1547.1,630.9,1547.1,616"/>
	</g>
</g>
<g class="st3">
	<path class="st1" d="M95.5,112v52.6H78.3v-138h44c31.8,0,50.2,16,50.2,42.8c0,26.6-18.2,42.6-50.2,42.6H95.5z M122.3,96.4
		c23.4,0,33-10,33-27c0-17.2-9.6-27.2-33-27.2H95.5v54.2H122.3z"/>
</g>
<g class="st3">
	<path class="st1" d="M265.3,121c0,26-12.8,45.2-41.6,45.2c-26.6,0-41.6-17.6-41.6-45.2v-13.2c0-28.4,15.4-44.8,41.6-44.8
		c26.4,0,41.6,16.2,41.6,44.8V121z M249.3,121v-13.2c0-19-9.2-30.4-25.6-30.4c-16.4,0-25.6,11.6-25.6,30.4V121
		c0,17.2,7.2,30.8,25.6,30.8C240.7,151.8,249.3,138,249.3,121z"/>
	<path class="st1" d="M342.5,88c-5.4-7-11-10.2-24.8-10.2c-11.8,0-19.4,4.6-19.4,13.4c0,11.4,10,14.8,23.2,15.8
		c18.8,1.4,36,6.8,36,29.8c0,17.4-11.8,29.4-37.6,29.4c-20.4,0-31-6.2-38.6-16.6l11.8-8.4c5.4,7.2,12.6,10.2,27,10.2
		c13.4,0,21.4-5.2,21.4-14.2c0-10.8-6.4-14.6-25.8-16c-16.8-1.2-33.4-8-33.4-29.8c0-16.6,12-28.4,35.8-28.4
		c16.2,0,28.6,4.2,36.4,16.6L342.5,88z"/>
	<path class="st1" d="M370.7,64.6h12.8v-22h16v22h23V79h-23v50.8c0,13.8,1.6,19.6,15,19.6h8v15.2h-8.6c-23.6,0-30.4-10-30.4-30.8V79
		h-12.8V64.6z"/>
	<path class="st1" d="M515.3,149.4c-7,12.2-17.6,16.8-35,16.8c-26.8,0-42.8-17.4-42.8-45.2v-13.2c0-28.4,13.4-44.8,39.6-44.8
		c26.4,0,39.6,16.2,39.6,44.8v10.4h-63.2v2.8c0,17.2,8.2,30.8,25.6,30.8c13,0,19.6-3.8,23.8-11.2L515.3,149.4z M453.5,104.2h47
		c-0.8-16.8-8.2-26.8-23.4-26.8C461.7,77.4,454.5,87.6,453.5,104.2z"/>
	<path class="st1" d="M594.3,86.2c-4.2-5.8-9.4-8.4-16.8-8.4c-12.2,0-21.4,9.2-21.4,24.2v62.6h-16v-100h16v9.8
		c4.2-7,11-11.4,23.2-11.4c13.6,0,22.2,4.6,28.6,13.6L594.3,86.2z"/>
	<path class="st1" d="M620.9,26.6h18v18h-18V26.6z M621.9,64.6h16v100h-16V64.6z"/>
	<path class="st1" d="M745.1,121c0,26-12.8,45.2-41.6,45.2c-26.6,0-41.6-17.6-41.6-45.2v-13.2c0-28.4,15.4-44.8,41.6-44.8
		c26.4,0,41.6,16.2,41.6,44.8V121z M729.1,121v-13.2c0-19-9.2-30.4-25.6-30.4c-16.4,0-25.6,11.6-25.6,30.4V121
		c0,17.2,7.2,30.8,25.6,30.8C720.5,151.8,729.1,138,729.1,121z"/>
	<path class="st1" d="M820.3,86.2c-4.2-5.8-9.4-8.4-16.8-8.4c-12.2,0-21.4,9.2-21.4,24.2v62.6h-16v-100h16v9.8
		c4.2-7,11-11.4,23.2-11.4c13.6,0,22.2,4.6,28.6,13.6L820.3,86.2z"/>
	<path class="st1" d="M898.9,164.6v-138h44c30.6,0,50,17.2,50,61.8v14.4c0,44.6-19.4,61.8-50,61.8H898.9z M975.7,102.8V88.4
		c0-34.2-11.6-46.2-32.8-46.2h-26.8V149h26.8C964.1,149,975.7,137,975.7,102.8z"/>
	<path class="st1" d="M1017.9,26.6h18v18h-18V26.6z M1018.9,64.6h16v100h-16V64.6z"/>
	<path class="st1" d="M1120.1,88c-5.4-7-11-10.2-24.8-10.2c-11.8,0-19.4,4.6-19.4,13.4c0,11.4,10,14.8,23.2,15.8
		c18.8,1.4,36,6.8,36,29.8c0,17.4-11.8,29.4-37.6,29.4c-20.4,0-31-6.2-38.6-16.6l11.8-8.4c5.4,7.2,12.6,10.2,27,10.2
		c13.4,0,21.4-5.2,21.4-14.2c0-10.8-6.4-14.6-25.8-16c-16.8-1.2-33.4-8-33.4-29.8c0-16.6,12-28.4,35.8-28.4
		c16.2,0,28.6,4.2,36.4,16.6L1120.1,88z"/>
	<path class="st1" d="M1148.3,64.6h12.8v-22h16v22h23V79h-23v50.8c0,13.8,1.6,19.6,15,19.6h8v15.2h-8.6c-23.6,0-30.4-10-30.4-30.8
		V79h-12.8V64.6z"/>
	<path class="st1" d="M1274.3,86.2c-4.2-5.8-9.4-8.4-16.8-8.4c-12.2,0-21.4,9.2-21.4,24.2v62.6h-16v-100h16v9.8
		c4.2-7,11-11.4,23.2-11.4c13.6,0,22.2,4.6,28.6,13.6L1274.3,86.2z"/>
	<path class="st1" d="M1300.9,26.6h18v18h-18V26.6z M1301.9,64.6h16v100h-16V64.6z"/>
	<path class="st1" d="M1362.9,74.6c5.4-7.4,14-11.6,27.2-11.6c24.8,0,40,16.2,40,44.8V121c0,26-12.8,45.2-40,45.2
		c-13.4,0-21.8-3.4-27.2-10.4v8.8h-16v-138h16V74.6z M1414.1,121v-13.2c0-19-9.2-30.4-25.6-30.4c-16,0-25.6,11-25.6,29V121
		c0,17.2,7.2,30.8,25.6,30.8C1405.5,151.8,1414.1,138,1414.1,121z"/>
	<path class="st1" d="M1530.3,164.6h-16v-9.8c-5,7.6-12,11.4-26.8,11.4c-21.4,0-36.4-11.2-36.4-39.2V64.6h16v62.2
		c0,20.2,11,24.6,22.8,24.6c15,0,24.4-10.6,24.4-24.4V64.6h16V164.6z"/>
	<path class="st1" d="M1547.5,64.6h12.8v-22h16v22h23V79h-23v50.8c0,13.8,1.6,19.6,15,19.6h8v15.2h-8.6c-23.6,0-30.4-10-30.4-30.8
		V79h-12.8V64.6z"/>
	<path class="st1" d="M1621.3,26.6h18v18h-18V26.6z M1622.3,64.6h16v100h-16V64.6z"/>
	<path class="st1" d="M1745.5,121c0,26-12.8,45.2-41.6,45.2c-26.6,0-41.6-17.6-41.6-45.2v-13.2c0-28.4,15.4-44.8,41.6-44.8
		c26.4,0,41.6,16.2,41.6,44.8V121z M1729.5,121v-13.2c0-19-9.2-30.4-25.6-30.4c-16.4,0-25.6,11.6-25.6,30.4V121
		c0,17.2,7.2,30.8,25.6,30.8C1720.9,151.8,1729.5,138,1729.5,121z"/>
	<path class="st1" d="M1766.5,64.6h16v9.8c5-7.6,12-11.4,26.8-11.4c21.4,0,36.4,11.2,36.4,39.2v62.4h-16v-62.2
		c0-20.2-11-24.6-22.8-24.6c-15,0-24.4,10.6-24.4,24.4v62.4h-16V64.6z"/>
</g>
<g class="st3">
	<path class="st1" d="M313.2,781.4v7.8h-21v61.2h-8.6v-61.2h-21v-7.8H313.2z"/>
	<path class="st1" d="M320.2,781.4h8v23.9c2.5-3.8,6-5.7,13.4-5.7c10.7,0,18.2,5.6,18.2,19.6v31.2h-8v-31.1
		c0-10.1-5.5-12.3-11.4-12.3c-7.5,0-12.2,5.3-12.2,12.2v31.2h-8V781.4z"/>
	<path class="st1" d="M409.2,842.8c-3.5,6.1-8.8,8.4-17.5,8.4c-13.4,0-21.4-8.7-21.4-22.6V822c0-14.2,6.7-22.4,19.8-22.4
		c13.2,0,19.8,8.1,19.8,22.4v5.2h-31.6v1.4c0,8.6,4.1,15.4,12.8,15.4c6.5,0,9.8-1.9,11.9-5.6L409.2,842.8z M378.3,820.2h23.5
		c-0.4-8.4-4.1-13.4-11.7-13.4C382.4,806.8,378.8,811.9,378.3,820.2z"/>
	<path class="st1" d="M468.2,799.6c12.4,0,20,8.1,20,22.4v6.6c0,13-6.4,22.6-20,22.6c-6.6,0-10.9-2.1-13.6-5.8v24h-8v-69h8v5
		C457.3,801.7,461.6,799.6,468.2,799.6z M480.2,828.6V822c0-9.5-4.6-15.2-12.8-15.2c-8,0-12.8,5.5-12.8,14.5v7.3
		c0,8.6,3.6,15.4,12.8,15.4C475.9,844,480.2,837.1,480.2,828.6z"/>
	<path class="st1" d="M525.8,811.2c-2.1-2.9-4.7-4.2-8.4-4.2c-6.1,0-10.7,4.6-10.7,12.1v31.3h-8v-50h8v4.9c2.1-3.5,5.5-5.7,11.6-5.7
		c6.8,0,11.1,2.3,14.3,6.8L525.8,811.2z"/>
	<path class="st1" d="M577.2,828.6c0,13-6.4,22.6-20.8,22.6c-13.3,0-20.8-8.8-20.8-22.6V822c0-14.2,7.7-22.4,20.8-22.4
		c13.2,0,20.8,8.1,20.8,22.4V828.6z M569.2,828.6V822c0-9.5-4.6-15.2-12.8-15.2c-8.2,0-12.8,5.8-12.8,15.2v6.6
		c0,8.6,3.6,15.4,12.8,15.4C564.9,844,569.2,837.1,569.2,828.6z"/>
	<path class="st1" d="M595.7,805.4c2.7-3.7,7-5.8,13.6-5.8c12.4,0,20,8.1,20,22.4v6.6c0,13-6.4,22.6-20,22.6
		c-6.7,0-10.9-1.7-13.6-5.2v4.4h-8v-69h8V805.4z M621.3,828.6V822c0-9.5-4.6-15.2-12.8-15.2c-8,0-12.8,5.5-12.8,14.5v7.3
		c0,8.6,3.6,15.4,12.8,15.4C617,844,621.3,837.1,621.3,828.6z"/>
	<path class="st1" d="M656,821.5h11.9v-5.8c0-7.1-3.3-8.7-11.1-8.7c-6,0-9.2,0.5-12,5.1l-6-4.2c3.5-5.8,8.6-8.3,18.1-8.3
		c12.7,0,19,4.1,19,16.1v34.7h-8v-4.9c-2.8,4.6-6.2,5.7-12.7,5.7c-11.6,0-17.9-5.7-17.9-15.4C637.3,825,645,821.5,656,821.5z
		 M667.9,828.3H656c-7.9,0-10.7,2.7-10.7,7.7c0,5.6,4,7.8,9.9,7.8c7.4,0,12.7-1.4,12.7-12.6V828.3z"/>
	<path class="st1" d="M696.9,805.4c2.7-3.7,7-5.8,13.6-5.8c12.4,0,20,8.1,20,22.4v6.6c0,13-6.4,22.6-20,22.6
		c-6.7,0-10.9-1.7-13.6-5.2v4.4h-8v-69h8V805.4z M722.5,828.6V822c0-9.5-4.6-15.2-12.8-15.2c-8,0-12.8,5.5-12.8,14.5v7.3
		c0,8.6,3.6,15.4,12.8,15.4C718.2,844,722.5,837.1,722.5,828.6z"/>
	<path class="st1" d="M742,781.4h9v9h-9V781.4z M742.5,800.4h8v50h-8V800.4z"/>
	<path class="st1" d="M765,781.4h8V833c0,5.4,0.3,10,8.5,10v7.4c-12.6,0-16.5-5-16.5-15.4V781.4z"/>
	<path class="st1" d="M793.4,781.4h9v9h-9V781.4z M793.9,800.4h8v50h-8V800.4z"/>
	<path class="st1" d="M812,800.4h6.4v-11h8v11h11.5v7.2h-11.5V833c0,6.9,0.8,9.8,7.5,9.8h4v7.6h-4.3c-11.8,0-15.2-5-15.2-15.4v-27.4
		H812V800.4z"/>
	<path class="st1" d="M861.5,850.9l-19.6-50.5h8.6l14.9,38.8l13.1-38.8h8.5L869.4,852c-4.1,12-6.8,17.4-20.8,17.4v-7.8
		c6.6,0,9.7-1.1,12.7-10L861.5,850.9z"/>
	<path class="st1" d="M958.6,828.6c0,13-6.4,22.6-20.8,22.6c-13.3,0-20.8-8.8-20.8-22.6V822c0-14.2,7.7-22.4,20.8-22.4
		c13.2,0,20.8,8.1,20.8,22.4V828.6z M950.6,828.6V822c0-9.5-4.6-15.2-12.8-15.2c-8.2,0-12.8,5.8-12.8,15.2v6.6
		c0,8.6,3.6,15.4,12.8,15.4C946.3,844,950.6,837.1,950.6,828.6z"/>
	<path class="st1" d="M971,800.4v-3.6c0-10.4,3.4-15.4,15.2-15.4h2.3v7.6h-2c-6.7,0-7.5,2.9-7.5,9.8v1.6h9.5v7.2H979v42.8h-8v-42.8
		h-6.4v-7.2H971z"/>
	<path class="st1" d="M1038.7,821.5h11.9v-5.8c0-7.1-3.3-8.7-11.1-8.7c-6,0-9.2,0.5-12,5.1l-6-4.2c3.5-5.8,8.6-8.3,18.1-8.3
		c12.7,0,19,4.1,19,16.1v34.7h-8v-4.9c-2.8,4.6-6.2,5.7-12.7,5.7c-11.6,0-17.9-5.7-17.9-15.4C1020,825,1027.7,821.5,1038.7,821.5z
		 M1050.6,828.3h-11.9c-7.9,0-10.7,2.7-10.7,7.7c0,5.6,4,7.8,9.9,7.8c7.4,0,12.7-1.4,12.7-12.6V828.3z"/>
	<path class="st1" d="M1139.5,800.4l-20,50h-8l-20.4-50h9l15.2,39.8l15.2-39.8H1139.5z"/>
	<path class="st1" d="M1183.4,842.8c-3.5,6.1-8.8,8.4-17.5,8.4c-13.4,0-21.4-8.7-21.4-22.6V822c0-14.2,6.7-22.4,19.8-22.4
		c13.2,0,19.8,8.1,19.8,22.4v5.2h-31.6v1.4c0,8.6,4.1,15.4,12.8,15.4c6.5,0,9.8-1.9,11.9-5.6L1183.4,842.8z M1152.5,820.2h23.5
		c-0.4-8.4-4.1-13.4-11.7-13.4C1156.6,806.8,1153,811.9,1152.5,820.2z"/>
	<path class="st1" d="M1195.8,781.4h8V833c0,5.4,0.3,10,8.5,10v7.4c-12.6,0-16.5-5-16.5-15.4V781.4z"/>
	<path class="st1" d="M1262.3,828.6c0,13-6.4,22.6-20.8,22.6c-13.3,0-20.8-8.8-20.8-22.6V822c0-14.2,7.7-22.4,20.8-22.4
		c13.2,0,20.8,8.1,20.8,22.4V828.6z M1254.3,828.6V822c0-9.5-4.6-15.2-12.8-15.2c-8.2,0-12.8,5.8-12.8,15.2v6.6
		c0,8.6,3.6,15.4,12.8,15.4C1250,844,1254.3,837.1,1254.3,828.6z"/>
	<path class="st1" d="M1309.2,842.8c-3.1,5.8-9.2,8.4-17.3,8.4c-13.7,0-21.6-8.8-21.6-22.6V822c0-14.2,8.1-22.4,21.6-22.4
		c7.5,0,13.7,2.7,17.3,7.8l-6.3,4.4c-2.2-3.2-6.4-5-11-5c-8.6,0-13.6,5.8-13.6,15.2v6.6c0,8.6,4,15.4,13.6,15.4
		c4.7,0,9-1.6,11.1-5.6L1309.2,842.8z"/>
	<path class="st1" d="M1318.2,781.4h9v9h-9V781.4z M1318.7,800.4h8v50h-8V800.4z"/>
	<path class="st1" d="M1336.8,800.4h6.4v-11h8v11h11.5v7.2h-11.5V833c0,6.9,0.8,9.8,7.5,9.8h4v7.6h-4.3c-11.8,0-15.2-5-15.2-15.4
		v-27.4h-6.4V800.4z"/>
	<path class="st1" d="M1386.3,850.9l-19.6-50.5h8.6l14.9,38.8l13.1-38.8h8.5l-17.6,51.6c-4.1,12-6.8,17.4-20.8,17.4v-7.8
		c6.6,0,9.7-1.1,12.7-10L1386.3,850.9z"/>
	<path class="st1" d="M1444.3,800.4h8v4.9c2.2-3.4,6-5.7,12.4-5.7c6.7,0,11.8,2.7,14.6,7.9c3.4-5.3,8.9-7.9,15-7.9
		c10.7,0,17.2,6.6,17.2,19.6v31.2h-8v-31.1c0-9.1-4.5-12.3-10.4-12.3c-6.4,0-11.2,5.1-11.2,12.2v31.2h-8v-31.1
		c0-9.1-4.5-12.3-10.4-12.3c-6.5,0-11.2,5.3-11.2,12.2v31.2h-8V800.4z"/>
	<path class="st1" d="M1563.6,828.6c0,13-6.4,22.6-20.8,22.6c-13.3,0-20.8-8.8-20.8-22.6V822c0-14.2,7.7-22.4,20.8-22.4
		c13.2,0,20.8,8.1,20.8,22.4V828.6z M1555.6,828.6V822c0-9.5-4.6-15.2-12.8-15.2c-8.2,0-12.8,5.8-12.8,15.2v6.6
		c0,8.6,3.6,15.4,12.8,15.4C1551.3,844,1555.6,837.1,1555.6,828.6z"/>
	<path class="st1" d="M1605.2,781.4h8v69h-8V846c-2.7,3.5-7,5.2-13.6,5.2c-13.6,0-20-9.6-20-22.6V822c0-14.3,7.6-22.4,20-22.4
		c6.6,0,10.9,2.1,13.6,5.8V781.4z M1605.2,829.3V822c0-9.4-4.6-15.2-12.8-15.2c-8.2,0-12.8,5.7-12.8,15.2v6.6
		c0,8.5,4.3,15.4,12.8,15.4C1601.3,844,1605.2,837.6,1605.2,829.3z"/>
	<path class="st1" d="M1662.6,842.8c-3.5,6.1-8.8,8.4-17.5,8.4c-13.4,0-21.4-8.7-21.4-22.6V822c0-14.2,6.7-22.4,19.8-22.4
		c13.2,0,19.8,8.1,19.8,22.4v5.2h-31.6v1.4c0,8.6,4.1,15.4,12.8,15.4c6.5,0,9.8-1.9,11.9-5.6L1662.6,842.8z M1631.7,820.2h23.5
		c-0.4-8.4-4.1-13.4-11.7-13.4C1635.8,806.8,1632.2,811.9,1631.7,820.2z"/>
	<path class="st1" d="M1675,781.4h8V833c0,5.4,0.3,10,8.5,10v7.4c-12.6,0-16.5-5-16.5-15.4V781.4z"/>
</g>
<g class="st3">
	<path class="st1" d="M513.9,920.4h8v49c0,13.9-8,20.6-21.4,20.6c-8.7,0-14-2.3-17.5-8.4l6.2-4.4c2.1,3.7,5.4,5.6,11.9,5.6
		c8.7,0,12.8-4.8,12.8-13.4V966c-2.7,3.5-7,5.2-13.6,5.2c-13.6,0-20-9.6-20-22.6V942c0-14.3,7.6-22.4,20-22.4
		c6.6,0,10.9,2.1,13.6,5.8V920.4z M513.9,948.6V942c0-9.4-4.6-15.2-12.8-15.2c-8.2,0-12.8,5.7-12.8,15.2v6.6
		c0,8.5,4.3,15.4,12.8,15.4C510.3,964,513.9,957.2,513.9,948.6z"/>
	<path class="st1" d="M535.9,901.4h9v9h-9V901.4z M536.4,920.4h8v50h-8V920.4z"/>
	<path class="st1" d="M601.8,920.4l-20,50h-8l-20.4-50h9l15.2,39.8l15.2-39.8H601.8z"/>
	<path class="st1" d="M645.7,962.8c-3.5,6.1-8.8,8.4-17.5,8.4c-13.4,0-21.4-8.7-21.4-22.6V942c0-14.2,6.7-22.4,19.8-22.4
		c13.2,0,19.8,8.1,19.8,22.4v5.2h-31.6v1.4c0,8.6,4.1,15.4,12.8,15.4c6.5,0,9.8-1.9,11.9-5.6L645.7,962.8z M614.8,940.2h23.5
		c-0.4-8.4-4.1-13.4-11.7-13.4C618.9,926.8,615.3,931.9,614.8,940.2z"/>
	<path class="st1" d="M658.1,920.4h8v4.9c2.5-3.8,6-5.7,13.4-5.7c10.7,0,18.2,5.6,18.2,19.6v31.2h-8v-31.1
		c0-10.1-5.5-12.3-11.4-12.3c-7.5,0-12.2,5.3-12.2,12.2v31.2h-8V920.4z"/>
	<path class="st1" d="M731.3,920.4h6.4v-11h8v11h11.5v7.2h-11.5V953c0,6.9,0.8,9.8,7.5,9.8h4v7.6h-4.3c-11.8,0-15.2-5-15.2-15.4
		v-27.4h-6.4V920.4z"/>
	<path class="st1" d="M767.2,901.4h8v23.9c2.5-3.8,6-5.7,13.4-5.7c10.7,0,18.2,5.6,18.2,19.6v31.2h-8v-31.1
		c0-10.1-5.5-12.3-11.4-12.3c-7.5,0-12.2,5.3-12.2,12.2v31.2h-8V901.4z"/>
	<path class="st1" d="M856.2,962.8c-3.5,6.1-8.8,8.4-17.5,8.4c-13.4,0-21.4-8.7-21.4-22.6V942c0-14.2,6.7-22.4,19.8-22.4
		c13.2,0,19.8,8.1,19.8,22.4v5.2h-31.6v1.4c0,8.6,4.1,15.4,12.8,15.4c6.5,0,9.8-1.9,11.9-5.6L856.2,962.8z M825.3,940.2h23.5
		c-0.4-8.4-4.1-13.4-11.7-13.4C829.4,926.8,825.8,931.9,825.3,940.2z"/>
	<path class="st1" d="M932.7,948.6c0,13-6.4,22.6-20.8,22.6c-13.3,0-20.8-8.8-20.8-22.6V942c0-14.2,7.7-22.4,20.8-22.4
		c13.2,0,20.8,8.1,20.8,22.4V948.6z M924.7,948.6V942c0-9.5-4.6-15.2-12.8-15.2c-8.2,0-12.8,5.8-12.8,15.2v6.6
		c0,8.6,3.6,15.4,12.8,15.4C920.4,964,924.7,957.1,924.7,948.6z"/>
	<path class="st1" d="M951.2,925.4c2.7-3.7,7-5.8,13.6-5.8c12.4,0,20,8.1,20,22.4v6.6c0,13-6.4,22.6-20,22.6
		c-6.7,0-10.9-1.7-13.6-5.2v4.4h-8v-69h8V925.4z M976.8,948.6V942c0-9.5-4.6-15.2-12.8-15.2c-8,0-12.8,5.5-12.8,14.5v7.3
		c0,8.6,3.6,15.4,12.8,15.4C972.5,964,976.8,957.1,976.8,948.6z"/>
	<path class="st1" d="M1023.4,932.1c-2.7-3.5-5.5-5.1-12.4-5.1c-5.9,0-9.7,2.3-9.7,6.7c0,5.7,5,7.4,11.6,7.9c9.4,0.7,18,3.4,18,14.9
		c0,8.7-5.9,14.7-18.8,14.7c-10.2,0-15.5-3.1-19.3-8.3l5.9-4.2c2.7,3.6,6.3,5.1,13.5,5.1c6.7,0,10.7-2.6,10.7-7.1
		c0-5.4-3.2-7.3-12.9-8c-8.4-0.6-16.7-4-16.7-14.9c0-8.3,6-14.2,17.9-14.2c8.1,0,14.3,2.1,18.2,8.3L1023.4,932.1z"/>
	<path class="st1" d="M1078.3,962.8c-3.5,6.1-8.8,8.4-17.5,8.4c-13.4,0-21.4-8.7-21.4-22.6V942c0-14.2,6.7-22.4,19.8-22.4
		c13.2,0,19.8,8.1,19.8,22.4v5.2h-31.6v1.4c0,8.6,4.1,15.4,12.8,15.4c6.5,0,9.8-1.9,11.9-5.6L1078.3,962.8z M1047.4,940.2h23.5
		c-0.4-8.4-4.1-13.4-11.7-13.4C1051.5,926.8,1047.9,931.9,1047.4,940.2z"/>
	<path class="st1" d="M1117.8,931.2c-2.1-2.9-4.7-4.2-8.4-4.2c-6.1,0-10.7,4.6-10.7,12.1v31.3h-8v-50h8v4.9
		c2.1-3.5,5.5-5.7,11.6-5.7c6.8,0,11.1,2.3,14.3,6.8L1117.8,931.2z"/>
	<path class="st1" d="M1173,920.4l-20,50h-8l-20.4-50h9l15.2,39.8l15.2-39.8H1173z"/>
	<path class="st1" d="M1216.9,962.8c-3.5,6.1-8.8,8.4-17.5,8.4c-13.4,0-21.4-8.7-21.4-22.6V942c0-14.2,6.7-22.4,19.8-22.4
		c13.2,0,19.8,8.1,19.8,22.4v5.2H1186v1.4c0,8.6,4.1,15.4,12.8,15.4c6.5,0,9.8-1.9,11.9-5.6L1216.9,962.8z M1186,940.2h23.5
		c-0.4-8.4-4.1-13.4-11.7-13.4C1190.1,926.8,1186.5,931.9,1186,940.2z"/>
	<path class="st1" d="M1260.4,901.4h8v69h-8V966c-2.7,3.5-7,5.2-13.6,5.2c-13.6,0-20-9.6-20-22.6V942c0-14.3,7.6-22.4,20-22.4
		c6.6,0,10.9,2.1,13.6,5.8V901.4z M1260.4,949.3V942c0-9.4-4.6-15.2-12.8-15.2s-12.8,5.7-12.8,15.2v6.6c0,8.5,4.3,15.4,12.8,15.4
		C1256.5,964,1260.4,957.6,1260.4,949.3z"/>
	<path class="st1" d="M1337.5,901.4h8v69h-8V966c-2.7,3.5-7,5.2-13.6,5.2c-13.6,0-20-9.6-20-22.6V942c0-14.3,7.6-22.4,20-22.4
		c6.6,0,10.9,2.1,13.6,5.8V901.4z M1337.5,949.3V942c0-9.4-4.6-15.2-12.8-15.2s-12.8,5.7-12.8,15.2v6.6c0,8.5,4.3,15.4,12.8,15.4
		C1333.6,964,1337.5,957.6,1337.5,949.3z"/>
	<path class="st1" d="M1374.7,941.5h11.9v-5.8c0-7.1-3.3-8.7-11.1-8.7c-6,0-9.2,0.5-12,5.1l-6-4.2c3.5-5.8,8.6-8.3,18.1-8.3
		c12.7,0,19,4.1,19,16.1v34.7h-8v-4.9c-2.8,4.6-6.2,5.7-12.7,5.7c-11.6,0-17.9-5.7-17.9-15.4C1356,945,1363.7,941.5,1374.7,941.5z
		 M1386.6,948.3h-11.9c-7.9,0-10.7,2.7-10.7,7.7c0,5.6,4,7.8,9.9,7.8c7.4,0,12.7-1.4,12.7-12.6V948.3z"/>
	<path class="st1" d="M1403.2,920.4h6.4v-11h8v11h11.5v7.2h-11.5V953c0,6.9,0.8,9.8,7.5,9.8h4v7.6h-4.3c-11.8,0-15.2-5-15.2-15.4
		v-27.4h-6.4V920.4z"/>
	<path class="st1" d="M1455.3,941.5h11.9v-5.8c0-7.1-3.3-8.7-11.1-8.7c-6,0-9.2,0.5-12,5.1l-6-4.2c3.5-5.8,8.6-8.3,18.1-8.3
		c12.7,0,19,4.1,19,16.1v34.7h-8v-4.9c-2.8,4.6-6.2,5.7-12.7,5.7c-11.6,0-17.9-5.7-17.9-15.4C1436.6,945,1444.3,941.5,1455.3,941.5z
		 M1467.2,948.3h-11.9c-7.9,0-10.7,2.7-10.7,7.7c0,5.6,4,7.8,9.9,7.8c7.4,0,12.7-1.4,12.7-12.6V948.3z"/>
</g>
<line class="st4" x1="868" y1="495" x2="1869.5" y2="495"/>
</svg>
