<?xml version="1.0" encoding="utf-8"?>
<!-- Generator: Adobe Illustrator 24.3.0, SVG Export Plug-In . SVG Version: 6.00 Build 0)  -->
<svg version="1.1" id="Base" xmlns="http://www.w3.org/2000/svg" xmlns:xlink="http://www.w3.org/1999/xlink" x="0px" y="0px"
	 viewBox="0 0 1920 1080" style="enable-background:new 0 0 1920 1080;" xml:space="preserve">
<style type="text/css">
	.st0{clip-path:url(#SVGID_2_);}
	.st1{fill:none;stroke:#000000;stroke-width:7;stroke-linecap:round;stroke-miterlimit:10;}
</style>
<g>
	<defs>
		<rect id="SVGID_1_" x="76" y="276" width="1806" height="429.2"/>
	</defs>
	<clipPath id="SVGID_2_">
		<use xlink:href="#SVGID_1_"  style="overflow:visible;"/>
	</clipPath>
	<g class="st0">
		<path d="M119.5,472.6h20.1c-5.9,26.3-7.5,33.9-7.5,45.8c-0.1,4.5,0.4,9.1,1.4,13.5c1.8,7.8,3.7,8.9,6.4,8.9c3.5,0,7.3-3.2,7.3-6.8
			c0-1.1,0-1.4-1.1-3.9c-3.6-9.3-5.4-19.3-5.1-29.3c0.1-9.5,1.2-18.9,3.2-28.2h20.3c2.3,0,8.7,0,8.7-6.1c0-4.3-3.8-4.3-7.1-4.3
			h-59.5c-3.9,0-10.7,0-18.5,8.4c-6.2,6.9-10.8,15.1-10.8,16c0,0.2,0,1.8,2.1,1.8c1.4,0,1.8-0.7,2.8-2.1c8.7-13.7,19-13.7,22.5-13.7
			h10.1c-5.7,21.5-15.3,43-22.7,59.2c-1.4,2.7-1.4,3-1.4,4.2c0,3.4,2.8,4.8,5.1,4.8c5.3,0,6.8-5,8.9-11.5c2.5-8.2,2.5-8.5,4.8-17.4
			L119.5,472.6"/>
		<path d="M238.5,581.5c0-0.5,0-0.9-3-3.9c-22.2-22.4-27.9-56-27.9-83.1c0-30.9,6.8-61.8,28.6-84c2.3-2.1,2.3-2.5,2.3-3
			c0.1-0.9-0.5-1.7-1.4-1.8c-0.1,0-0.3,0-0.4,0c-1.8,0-17.8,12.1-28.3,34.6c-9.1,19.5-11.2,39.3-11.2,54.2c0,13.8,2,35.3,11.7,55.4
			c10.6,21.8,25.9,33.4,27.7,33.4c0.9,0.1,1.7-0.5,1.8-1.4C238.5,581.8,238.5,581.7,238.5,581.5"/>
		<path d="M309.5,480.1c-1.9,8.2-5.7,23.2-12.4,36c-6.2,12.1-13,20.8-20.6,20.8c-5.9,0-9.6-5.1-9.6-21.7c0-7.5,1.1-17.8,5.7-35.1
			L309.5,480.1 M274,474.4c3-11.4,6.6-25.6,13.7-38.2c4.8-8.7,11.4-18.6,19.4-18.6c8.7,0,9.8,11.4,9.8,21.5c0,8.7-1.4,17.8-5.7,35.3
			L274,474.4z M328.5,450c0-11.7-3.2-36.4-21.3-36.4c-24.7,0-52.1,50.1-52.1,90.8c0,16.7,5.1,36.4,21.3,36.4
			C301.5,540.8,328.5,489.8,328.5,450z"/>
		<path d="M363.5,412c0-3.2,0-6.4-3.5-6.4s-3.5,3.2-3.5,6.4v164.9c0,3.2,0,6.4,3.5,6.4s3.5-3.2,3.5-6.4V412"/>
		<path d="M452,429.8c1.6-6.2,2-6.7,9.6-6.7h19c17.4,0,32.1,9.4,32.1,32.9c0,8.7-3.5,37.8-18.6,57.4c-5.2,6.6-19.2,20.1-41,20.1h-20
			c-1.3,0.1-2.6,0-3.9-0.2c-1.8-0.2-2.3-0.4-2.3-1.8c0-0.5,0-0.9,0.9-4.1L452,429.8 M413.6,525c-1.8,6.9-2.1,8.3-16.2,8.3
			c-3,0-5,0-5,3.4c0,2.1,1.6,2.1,5,2.1h58.8c36.9,0,71.9-37.5,71.9-76.4c0-25-15.1-44.9-41.7-44.9h-59.7c-3.4,0-5.3,0-5.3,3.4
			c0,2.1,1.6,2.1,5.1,2.1c2.3,0,5.5,0.2,7.6,0.4c2.9,0.3,3.9,0.9,3.9,2.8c-0.1,1.2-0.3,2.3-0.7,3.4L413.6,525z"/>
		<path d="M588.7,494.5c0-13.9-2-35.4-11.7-55.4c-10.7-21.9-25.9-33.4-27.7-33.4c-0.9-0.1-1.7,0.6-1.8,1.6c0,0.1,0,0.1,0,0.2
			c0,0.5,0,0.9,3.4,4.1c17.4,17.6,27.5,45.8,27.5,83c0,30.4-6.6,61.6-28.6,84c-2.3,2.1-2.3,2.5-2.3,3c0,0.9,0.7,1.7,1.6,1.8
			c0.1,0,0.1,0,0.2,0c1.8,0,17.8-12.1,28.2-34.6C586.5,529,588.7,509.4,588.7,494.5"/>
		<path d="M781.1,515.2c2.5,0,5.9,0,5.9-3.5s-3.4-3.5-6-3.5H674.9c-2.7,0-6,0-6,3.5s3.4,3.5,5.9,3.5H781.1 M781,480.8
			c2.7,0,6,0,6-3.5s-3.4-3.5-5.9-3.5H674.7c-2.5,0-5.9,0-5.9,3.5s3.4,3.5,6,3.5H781z"/>
		<path d="M915.2,351h20.1c-5.9,26.3-7.5,33.9-7.5,45.8c-0.1,4.5,0.4,9.1,1.4,13.5c1.8,7.8,3.7,8.9,6.4,8.9c3.5,0,7.3-3.2,7.3-6.8
			c0-1.1,0-1.4-1.1-3.9c-3.6-9.3-5.4-19.3-5.1-29.3c0.1-9.5,1.2-18.9,3.2-28.2h20.3c2.3,0,8.7,0,8.7-6.1c0-4.2-3.8-4.2-7.1-4.2
			h-59.5c-3.9,0-10.7,0-18.5,8.4c-6.2,6.9-10.8,15.1-10.8,16c0,0.2,0,1.8,2.1,1.8c1.4,0,1.8-0.7,2.8-2.1c8.7-13.7,19-13.7,22.5-13.7
			h10.1c-5.7,21.5-15.3,43-22.7,59.1c-1.4,2.7-1.4,3-1.4,4.3c0,3.4,2.8,4.8,5.1,4.8c5.3,0,6.8-5,8.9-11.5c2.5-8.2,2.5-8.5,4.8-17.4
			L915.2,351"/>
		<path d="M1034.2,459.9c0-0.5,0-0.9-3-3.9c-22.2-22.4-27.9-56-27.9-83.1c0-30.9,6.8-61.8,28.6-84c2.3-2.1,2.3-2.5,2.3-3
			c0.1-0.9-0.5-1.7-1.4-1.8c-0.1,0-0.3,0-0.4,0c-1.8,0-17.8,12.1-28.3,34.6c-9.1,19.5-11.2,39.3-11.2,54.2c0,13.8,2,35.3,11.7,55.4
			c10.7,21.9,25.9,33.4,27.7,33.4c0.9,0.1,1.7-0.5,1.8-1.4C1034.2,460.2,1034.2,460,1034.2,459.9"/>
		<path d="M1110,308.2c1.6-6.2,2-6.7,9.6-6.7h19c17.4,0,32.1,9.4,32.1,32.9c0,8.7-3.6,37.8-18.6,57.4c-5.2,6.6-19.2,20.1-41,20.1
			H1091c-1.3,0.1-2.6,0-3.9-0.2c-1.8-0.2-2.3-0.4-2.3-1.8c0-0.5,0-0.9,0.9-4.1L1110,308.2 M1071.6,403.4c-1.8,6.9-2.1,8.4-16.2,8.4
			c-3,0-5,0-5,3.4c0,2.1,1.6,2.1,5,2.1h58.8c36.9,0,71.9-37.5,71.9-76.4c0-25-15.1-44.9-41.7-44.9h-59.7c-3.3,0-5.3,0-5.3,3.4
			c0,2.1,1.6,2.1,5.1,2.1c2.3,0,5.5,0.2,7.6,0.4c2.8,0.3,3.9,0.9,3.9,2.8c-0.1,1.1-0.3,2.3-0.7,3.4L1071.6,403.4z"/>
		<path d="M1223.6,290.4c0-3.2,0-6.4-3.6-6.4s-3.6,3.2-3.6,6.4v164.9c0,3.2,0,6.4,3.6,6.4s3.6-3.2,3.6-6.4V290.4"/>
		<path d="M1307.2,358.5c-1.9,8.1-5.7,23.2-12.4,36c-6.2,12.1-13,20.8-20.6,20.8c-5.9,0-9.6-5.1-9.6-21.7c0-7.5,1.1-17.7,5.7-35.1
			L1307.2,358.5 M1271.7,352.7c3-11.4,6.6-25.6,13.7-38.2c4.8-8.7,11.4-18.6,19.4-18.6c8.7,0,9.8,11.4,9.8,21.5
			c0,8.7-1.4,17.8-5.7,35.4H1271.7z M1326.3,328.4c0-11.7-3.2-36.4-21.3-36.4c-24.7,0-52,50.1-52,90.8c0,16.7,5.1,36.4,21.3,36.4
			C1299.2,419.2,1326.3,368.2,1326.3,328.4L1326.3,328.4z"/>
		<path d="M1384.4,372.9c0-13.9-1.9-35.4-11.7-55.4c-10.7-21.8-25.9-33.4-27.7-33.4c-0.9-0.1-1.7,0.6-1.8,1.6c0,0.1,0,0.1,0,0.2
			c0,0.5,0,0.9,3.4,4.1c17.4,17.6,27.6,45.8,27.6,83c0,30.4-6.6,61.6-28.6,84c-2.3,2.1-2.3,2.5-2.3,3c0,0.9,0.7,1.7,1.6,1.8
			c0.1,0,0.1,0,0.2,0c1.8,0,17.8-12.1,28.3-34.6C1382.2,407.5,1384.4,387.8,1384.4,372.9"/>
		<path d="M1479.8,372.9c0-5.2-4.2-9.4-9.4-9.4s-9.4,4.2-9.4,9.4s4.2,9.4,9.4,9.4c0,0,0,0,0,0
			C1475.6,382.2,1479.8,378.1,1479.8,372.9"/>
		<path d="M1580.4,351h20.1c-5.9,26.3-7.5,33.9-7.5,45.8c-0.1,4.5,0.4,9.1,1.4,13.5c1.8,7.8,3.7,8.9,6.4,8.9c3.6,0,7.3-3.2,7.3-6.8
			c0-1.1,0-1.4-1.1-3.9c-3.6-9.3-5.4-19.3-5.1-29.3c0.1-9.5,1.2-18.9,3.2-28.2h20.3c2.3,0,8.7,0,8.7-6.1c0-4.2-3.8-4.2-7.1-4.2
			h-59.5c-3.9,0-10.7,0-18.5,8.4c-6.2,6.9-10.8,15.1-10.8,16c0,0.2,0,1.8,2.1,1.8c1.4,0,1.8-0.7,2.8-2.1c8.7-13.7,19-13.7,22.5-13.7
			h10.1c-5.7,21.5-15.3,43-22.7,59.1c-1.4,2.7-1.4,3-1.4,4.3c0,3.4,2.8,4.8,5.1,4.8c5.3,0,6.8-5,8.9-11.5c2.5-8.2,2.5-8.5,4.8-17.4
			L1580.4,351"/>
		<path d="M1699.4,459.9c0-0.5,0-0.9-3-3.9c-22.2-22.4-27.9-56-27.9-83.1c0-30.9,6.8-61.8,28.6-84c2.3-2.1,2.3-2.5,2.3-3
			c0.1-0.9-0.5-1.7-1.4-1.8c-0.1,0-0.3,0-0.4,0c-1.8,0-17.8,12.1-28.3,34.6c-9.1,19.5-11.2,39.3-11.2,54.2c0,13.8,2,35.3,11.7,55.4
			c10.7,21.9,25.9,33.4,27.7,33.4c0.9,0.1,1.7-0.5,1.8-1.4C1699.4,460.2,1699.4,460,1699.4,459.9"/>
		<path d="M1770.4,358.5c-1.9,8.1-5.7,23.2-12.4,36c-6.2,12.1-13,20.8-20.6,20.8c-5.9,0-9.6-5.1-9.6-21.7c0-7.5,1.1-17.7,5.7-35.1
			L1770.4,358.5 M1734.8,352.7c3-11.4,6.6-25.6,13.7-38.2c4.8-8.7,11.4-18.6,19.4-18.6c8.7,0,9.8,11.4,9.8,21.5
			c0,8.7-1.4,17.8-5.7,35.4H1734.8z M1789.4,328.4c0-11.7-3.2-36.4-21.3-36.4c-24.7,0-52,50.1-52,90.8c0,16.7,5.1,36.4,21.3,36.4
			C1762.4,419.2,1789.4,368.2,1789.4,328.4L1789.4,328.4z"/>
		<path d="M1847.5,372.9c0-13.9-2-35.4-11.7-55.4c-10.7-21.8-25.9-33.4-27.7-33.4c-0.9-0.1-1.7,0.6-1.8,1.6c0,0.1,0,0.1,0,0.2
			c0,0.5,0,0.9,3.4,4.1c17.4,17.6,27.5,45.8,27.5,83c0,30.4-6.6,61.6-28.6,84c-2.3,2.1-2.3,2.5-2.3,3c0,0.9,0.7,1.7,1.6,1.8
			c0.1,0,0.1,0,0.2,0c1.8,0,17.8-12.1,28.3-34.6C1845.3,407.5,1847.5,387.8,1847.5,372.9"/>
		<path d="M1215.6,594.2h20.1c-5.9,26.3-7.5,33.9-7.5,45.8c-0.1,4.5,0.4,9.1,1.4,13.5c1.8,7.8,3.8,8.9,6.4,8.9
			c3.6,0,7.3-3.2,7.3-6.8c0-1.1,0-1.4-1.1-3.9c-3.6-9.3-5.4-19.3-5.1-29.3c0.1-9.5,1.2-18.9,3.2-28.2h20.3c2.3,0,8.7,0,8.7-6.1
			c0-4.3-3.7-4.3-7.1-4.3h-59.5c-3.9,0-10.7,0-18.5,8.4c-6.2,6.9-10.8,15.1-10.8,16c0,0.2,0,1.8,2.1,1.8c1.4,0,1.8-0.7,2.8-2.1
			c8.7-13.7,19-13.7,22.6-13.7h10.1c-5.7,21.5-15.3,43-22.7,59.2c-1.4,2.7-1.4,3-1.4,4.3c0,3.4,2.8,4.8,5.1,4.8
			c5.3,0,6.8-5,8.9-11.5c2.5-8.2,2.5-8.5,4.8-17.4L1215.6,594.2"/>
		<path d="M1334.6,703.1c0-0.5,0-0.9-3-3.9c-22.2-22.4-27.9-56-27.9-83.1c0-30.9,6.8-61.8,28.6-84c2.3-2.1,2.3-2.5,2.3-3
			c0.1-0.9-0.5-1.7-1.4-1.8c-0.1,0-0.3,0-0.4,0c-1.8,0-17.8,12.1-28.2,34.7c-9.1,19.5-11.2,39.3-11.2,54.2c0,13.8,2,35.3,11.7,55.4
			c10.6,21.8,25.9,33.4,27.7,33.4c0.9,0.1,1.7-0.5,1.8-1.4C1334.6,703.4,1334.6,703.3,1334.6,703.1"/>
		<path d="M1410.4,551.4c1.6-6.2,2-6.7,9.6-6.7h19c17.4,0,32.1,9.4,32.1,32.8c0,8.7-3.6,37.8-18.6,57.4c-5.2,6.6-19.2,20.1-41,20.1
			h-20.1c-1.3,0.1-2.6,0-3.9-0.2c-1.8-0.2-2.3-0.4-2.3-1.8c0-0.5,0-0.9,0.9-4.1L1410.4,551.4 M1372,646.6c-1.8,6.9-2.1,8.3-16.2,8.3
			c-3,0-5,0-5,3.4c0,2.1,1.6,2.1,5,2.1h58.8c36.9,0,71.9-37.5,71.9-76.4c0-25-15.1-44.9-41.7-44.9h-59.7c-3.4,0-5.3,0-5.3,3.4
			c0,2.1,1.6,2.1,5.1,2.1c2.3,0,5.5,0.2,7.6,0.4c2.8,0.3,3.9,0.9,3.9,2.8c-0.1,1.1-0.3,2.3-0.7,3.4L1372,646.6z"/>
		<path d="M1547.1,616c0-13.9-2-35.4-11.7-55.4c-10.7-21.8-25.9-33.4-27.7-33.4c-0.9-0.1-1.7,0.6-1.8,1.6c0,0.1,0,0.1,0,0.2
			c0,0.5,0,0.9,3.4,4.1c17.4,17.6,27.6,45.8,27.6,83c0,30.4-6.6,61.6-28.6,84c-2.3,2.1-2.3,2.5-2.3,3c0,0.9,0.7,1.7,1.6,1.8
			c0.1,0,0.1,0,0.2,0c1.8,0,17.8-12.1,28.2-34.6C1545,650.6,1547.1,630.9,1547.1,616"/>
	</g>
</g>
<line class="st1" x1="868" y1="495" x2="1869.5" y2="495"/>
</svg>
