<svg id="Model_Evidence" data-name="Model Evidence" xmlns="http://www.w3.org/2000/svg" xmlns:xlink="http://www.w3.org/1999/xlink" viewBox="0 0 1920 1080"><defs><style>.cls-1,.cls-6{fill:none;}.cls-2{clip-path:url(#clip-path);}.cls-3{fill:#231f20;}.cls-4,.cls-5{fill:#009ddc;}.cls-5{font-size:200px;font-family:DIN2014-Regular, "DIN 2014";}.cls-6{stroke:#000;stroke-linecap:round;stroke-miterlimit:10;stroke-width:7px;}</style><clipPath id="clip-path"><rect class="cls-1" x="76" y="276" width="1806" height="429.15"/></clipPath></defs><g class="cls-2"><path d="M119.5,472.61h20.06c-5.87,26.29-7.46,33.92-7.46,45.82a55.6,55.6,0,0,0,1.43,13.49c1.79,7.83,3.74,8.89,6.4,8.89,3.54,0,7.29-3.21,7.29-6.76,0-1.06,0-1.43-1.09-3.91A76.5,76.5,0,0,1,141,500.83a139.16,139.16,0,0,1,3.18-28.22h20.26c2.32,0,8.72,0,8.72-6.06,0-4.25-3.75-4.25-7.13-4.25H106.54c-3.91,0-10.68,0-18.5,8.35-6.2,6.93-10.81,15.09-10.81,16,0,.16,0,1.75,2.12,1.75,1.43,0,1.79-.69,2.85-2.12,8.69-13.66,19-13.66,22.55-13.66h10.11c-5.67,21.49-15.25,43-22.71,59.15-1.43,2.65-1.43,3-1.43,4.24,0,3.38,2.85,4.81,5.14,4.81,5.34,0,6.77-5,8.89-11.54,2.49-8.19,2.49-8.52,4.81-17.41l9.94-39.25"/><path d="M238.5,581.49c0-.53,0-.9-3-3.91-22.19-22.38-27.89-56-27.89-83.12,0-30.93,6.77-61.83,28.61-84,2.3-2.13,2.3-2.49,2.3-3a1.58,1.58,0,0,0-1.76-1.76c-1.79,0-17.77,12.07-28.25,34.64-9.05,19.53-11.21,39.26-11.21,54.18,0,13.83,2,35.34,11.74,55.4,10.64,21.85,25.93,33.39,27.72,33.39a1.58,1.58,0,0,0,1.76-1.76"/><path d="M309.46,480.07c-1.93,8.16-5.67,23.24-12.43,36-6.2,12.1-13,20.79-20.59,20.79-5.87,0-9.59-5.14-9.59-21.68,0-7.46,1.07-17.75,5.67-35.15h36.94M274,474.37c3-11.37,6.57-25.56,13.66-38.19,4.81-8.69,11.37-18.64,19.36-18.64,8.72,0,9.78,11.37,9.78,21.49,0,8.71-1.42,17.76-5.67,35.34ZM328.49,450c0-11.7-3.22-36.4-21.32-36.4-24.7,0-52.05,50.09-52.05,90.77,0,16.68,5.14,36.41,21.32,36.41C301.47,540.81,328.49,489.82,328.49,450Z"/><path d="M363.52,412c0-3.22,0-6.4-3.54-6.4s-3.55,3.18-3.55,6.4V576.88c0,3.18,0,6.37,3.55,6.37s3.54-3.19,3.54-6.37V412"/><path d="M452,429.78c1.6-6.2,2-6.74,9.58-6.74h19c17.41,0,32.13,9.42,32.13,32.86,0,8.72-3.55,37.83-18.63,57.39-5.17,6.56-19.2,20.06-41.05,20.06H433a20.49,20.49,0,0,1-3.91-.17c-1.79-.19-2.32-.36-2.32-1.79,0-.53,0-.89.9-4.08L452,429.78M413.59,525c-1.79,6.92-2.12,8.35-16.18,8.35-3,0-5,0-5,3.38,0,2.12,1.62,2.12,5,2.12h58.82c36.93,0,71.91-37.46,71.91-76.38,0-25-15.08-44.93-41.74-44.93H426.72c-3.35,0-5.31,0-5.31,3.38,0,2.12,1.6,2.12,5.15,2.12,2.31,0,5.5.17,7.62.37,2.85.33,3.91.86,3.91,2.82a14.5,14.5,0,0,1-.7,3.38Z"/><path d="M588.66,494.46c0-13.86-2-35.37-11.71-55.43-10.67-21.85-25.93-33.39-27.71-33.39a1.68,1.68,0,0,0-1.79,1.76c0,.53,0,.89,3.38,4.11,17.41,17.57,27.55,45.82,27.55,82.95,0,30.37-6.6,61.63-28.61,84-2.32,2.12-2.32,2.49-2.32,3a1.68,1.68,0,0,0,1.79,1.76c1.78,0,17.77-12.07,28.24-34.62,9.06-19.56,11.18-39.25,11.18-54.17"/><path d="M781.13,515.22c2.49,0,5.87,0,5.87-3.55s-3.38-3.55-6-3.55H674.91c-2.66,0-6,0-6,3.55s3.38,3.55,5.87,3.55H781.13M781,480.77c2.65,0,6,0,6-3.55s-3.38-3.55-5.87-3.55H674.74c-2.49,0-5.87,0-5.87,3.55s3.38,3.55,6,3.55Z"/><path class="cls-3" d="M915.21,351h20.07c-5.87,26.29-7.46,33.92-7.46,45.82a56,56,0,0,0,1.42,13.49c1.79,7.83,3.74,8.89,6.4,8.89,3.55,0,7.29-3.22,7.29-6.77,0-1.06,0-1.42-1.09-3.91a76.43,76.43,0,0,1-5.14-29.3A139.87,139.87,0,0,1,939.88,351h20.26c2.32,0,8.72,0,8.72-6.07,0-4.24-3.75-4.24-7.13-4.24H902.25c-3.91,0-10.67,0-18.5,8.35-6.2,6.93-10.81,15.09-10.81,16,0,.17,0,1.76,2.13,1.76,1.42,0,1.78-.69,2.85-2.12C886.6,351,896.91,351,900.46,351h10.12c-5.67,21.48-15.26,43-22.72,59.14-1.42,2.66-1.42,3-1.42,4.25,0,3.38,2.85,4.81,5.14,4.81,5.33,0,6.76-5,8.88-11.54,2.49-8.19,2.49-8.52,4.81-17.41L915.21,351"/><path class="cls-3" d="M1034.21,459.9c0-.53,0-.9-3-3.92-22.18-22.37-27.88-56-27.88-83.11,0-30.93,6.76-61.83,28.61-84.05,2.29-2.12,2.29-2.48,2.29-3a1.58,1.58,0,0,0-1.76-1.76c-1.79,0-17.77,12.07-28.25,34.64C995.15,338.22,993,358,993,372.87c0,13.83,2,35.34,11.73,55.4,10.65,21.85,25.93,33.39,27.72,33.39a1.58,1.58,0,0,0,1.76-1.76"/><path class="cls-3" d="M1110,308.19c1.59-6.21,2-6.74,9.58-6.74h19c17.41,0,32.13,9.42,32.13,32.86,0,8.72-3.55,37.83-18.64,57.39-5.16,6.56-19.19,20.06-41,20.06H1091a20.43,20.43,0,0,1-3.91-.17c-1.79-.2-2.32-.36-2.32-1.79,0-.53,0-.89.9-4.08L1110,308.19m-38.36,95.21c-1.79,6.93-2.13,8.36-16.18,8.36-3,0-5,0-5,3.38,0,2.12,1.62,2.12,5,2.12h58.82c36.93,0,71.91-37.47,71.91-76.39,0-25-15.09-44.92-41.74-44.92h-59.68c-3.35,0-5.31,0-5.31,3.38,0,2.12,1.6,2.12,5.14,2.12,2.32,0,5.51.17,7.63.37,2.85.33,3.91.86,3.91,2.82a15.21,15.21,0,0,1-.7,3.38Z"/><path class="cls-3" d="M1223.61,290.44c0-3.21,0-6.39-3.55-6.39s-3.55,3.18-3.55,6.39V455.29c0,3.18,0,6.37,3.55,6.37s3.55-3.19,3.55-6.37V290.44"/><path class="cls-3" d="M1307.23,358.48c-1.93,8.15-5.67,23.24-12.43,36-6.2,12.1-13,20.79-20.59,20.79-5.87,0-9.59-5.15-9.59-21.69,0-7.46,1.07-17.74,5.68-35.14h36.93m-35.51-5.7c3-11.37,6.57-25.57,13.66-38.2,4.81-8.68,11.37-18.63,19.37-18.63,8.71,0,9.77,11.37,9.77,21.48,0,8.72-1.42,17.77-5.67,35.35Zm54.54-24.34c0-11.7-3.22-36.4-21.32-36.4-24.7,0-52,50.09-52,90.77,0,16.68,5.14,36.41,21.32,36.41C1299.24,419.22,1326.26,368.23,1326.26,328.44Z"/><path class="cls-3" d="M1384.37,372.87c0-13.86-1.95-35.37-11.71-55.44-10.67-21.84-25.92-33.38-27.71-33.38a1.68,1.68,0,0,0-1.79,1.76c0,.53,0,.89,3.38,4.1,17.41,17.58,27.55,45.82,27.55,83,0,30.37-6.59,61.63-28.61,84-2.32,2.12-2.32,2.49-2.32,3a1.68,1.68,0,0,0,1.79,1.76c1.79,0,17.77-12.07,28.25-34.62,9-19.56,11.17-39.25,11.17-54.17"/><path d="M1479.81,372.87a9.42,9.42,0,1,0-9.41,9.41,9.47,9.47,0,0,0,9.41-9.41"/><path class="cls-3" d="M1580.39,351h20.07c-5.87,26.29-7.46,33.92-7.46,45.82a56,56,0,0,0,1.42,13.49c1.79,7.83,3.74,8.89,6.4,8.89,3.55,0,7.29-3.22,7.29-6.77,0-1.06,0-1.42-1.09-3.91a76.43,76.43,0,0,1-5.14-29.3,139.17,139.17,0,0,1,3.19-28.22h20.25c2.32,0,8.72,0,8.72-6.07,0-4.24-3.75-4.24-7.13-4.24h-59.48c-3.91,0-10.67,0-18.5,8.35-6.2,6.93-10.81,15.09-10.81,16,0,.17,0,1.76,2.13,1.76,1.42,0,1.78-.69,2.85-2.12,8.68-13.66,19-13.66,22.54-13.66h10.12c-5.67,21.48-15.26,43-22.72,59.14-1.42,2.66-1.42,3-1.42,4.25,0,3.38,2.85,4.81,5.14,4.81,5.33,0,6.76-5,8.88-11.54,2.49-8.19,2.49-8.52,4.81-17.41l9.94-39.25"/><path class="cls-3" d="M1699.39,459.9c0-.53,0-.9-3-3.92-22.18-22.37-27.88-56-27.88-83.11,0-30.93,6.76-61.83,28.61-84.05,2.29-2.12,2.29-2.48,2.29-3a1.58,1.58,0,0,0-1.76-1.76c-1.79,0-17.77,12.07-28.25,34.64-9.05,19.53-11.2,39.26-11.2,54.18,0,13.83,2,35.34,11.73,55.4,10.65,21.85,25.93,33.39,27.72,33.39a1.58,1.58,0,0,0,1.76-1.76"/><path class="cls-3" d="M1770.36,358.48c-1.93,8.15-5.68,23.24-12.44,36-6.2,12.1-13,20.79-20.59,20.79-5.87,0-9.58-5.15-9.58-21.69,0-7.46,1.06-17.74,5.67-35.14h36.94m-35.52-5.7c3-11.37,6.57-25.57,13.67-38.2,4.8-8.68,11.37-18.63,19.36-18.63,8.71,0,9.78,11.37,9.78,21.48,0,8.72-1.43,17.77-5.67,35.35Zm54.54-24.34c0-11.7-3.21-36.4-21.32-36.4-24.69,0-52,50.09-52,90.77,0,16.68,5.14,36.41,21.32,36.41C1762.36,419.22,1789.38,368.23,1789.38,328.44Z"/><path class="cls-3" d="M1847.49,372.87c0-13.86-2-35.37-11.7-55.44-10.67-21.84-25.93-33.38-27.72-33.38a1.68,1.68,0,0,0-1.79,1.76c0,.53,0,.89,3.39,4.1,17.4,17.58,27.54,45.82,27.54,83,0,30.37-6.59,61.63-28.61,84-2.32,2.12-2.32,2.49-2.32,3a1.68,1.68,0,0,0,1.79,1.76c1.79,0,17.77-12.07,28.25-34.62,9-19.56,11.17-39.25,11.17-54.17"/><path class="cls-4" d="M1215.62,594.2h20.06c-5.87,26.29-7.46,33.92-7.46,45.82a56.05,56.05,0,0,0,1.42,13.5c1.79,7.82,3.75,8.88,6.4,8.88,3.55,0,7.29-3.21,7.29-6.76,0-1.06,0-1.42-1.09-3.91a76.5,76.5,0,0,1-5.14-29.31,139.17,139.17,0,0,1,3.19-28.22h20.25c2.32,0,8.72,0,8.72-6.06,0-4.25-3.74-4.25-7.12-4.25h-59.49c-3.91,0-10.67,0-18.49,8.36-6.2,6.92-10.81,15.08-10.81,16,0,.16,0,1.76,2.12,1.76,1.42,0,1.79-.7,2.85-2.13,8.69-13.66,19-13.66,22.55-13.66H1211c-5.67,21.49-15.25,43-22.71,59.15-1.43,2.65-1.43,3-1.43,4.25,0,3.38,2.85,4.8,5.14,4.8,5.34,0,6.76-5,8.89-11.54,2.48-8.18,2.48-8.52,4.8-17.4l9.95-39.26"/><path class="cls-4" d="M1334.61,703.08c0-.53,0-.89-3-3.91-22.19-22.38-27.89-56-27.89-83.12,0-30.93,6.76-61.83,28.61-84,2.29-2.13,2.29-2.49,2.29-3a1.58,1.58,0,0,0-1.76-1.76c-1.79,0-17.77,12.07-28.24,34.65-9.06,19.53-11.21,39.25-11.21,54.17,0,13.83,2,35.34,11.74,55.4,10.64,21.85,25.92,33.39,27.71,33.39a1.58,1.58,0,0,0,1.76-1.76"/><path class="cls-4" d="M1410.38,551.37c1.6-6.2,2-6.73,9.59-6.73h19c17.41,0,32.13,9.41,32.13,32.85,0,8.72-3.55,37.83-18.63,57.39-5.17,6.57-19.2,20.06-41,20.06h-20.07a20.49,20.49,0,0,1-3.91-.17c-1.78-.19-2.31-.36-2.31-1.78,0-.54,0-.9.89-4.08l24.33-97.54M1372,646.59c-1.78,6.93-2.12,8.35-16.17,8.35-3,0-5,0-5,3.38,0,2.13,1.62,2.13,5,2.13h58.81c36.93,0,71.91-37.47,71.91-76.39,0-25-15.08-44.93-41.74-44.93h-59.67c-3.36,0-5.31,0-5.31,3.38,0,2.13,1.59,2.13,5.14,2.13,2.32,0,5.5.16,7.63.36,2.84.34,3.91.87,3.91,2.82a15.1,15.1,0,0,1-.7,3.38Z"/><path class="cls-4" d="M1547.09,616.05c0-13.86-2-35.37-11.71-55.43-10.67-21.85-25.92-33.39-27.71-33.39a1.68,1.68,0,0,0-1.79,1.76c0,.53,0,.89,3.38,4.11,17.41,17.57,27.55,45.82,27.55,82.95,0,30.37-6.59,61.63-28.61,84-2.32,2.13-2.32,2.49-2.32,3a1.68,1.68,0,0,0,1.79,1.76c1.79,0,17.77-12.07,28.24-34.62,9.06-19.55,11.18-39.25,11.18-54.17"/></g><text class="cls-5" transform="translate(325.71 164.56)">Model Evidence</text><path class="cls-4" d="M431.41,796.71c-3.7-4.8-7.7-8.3-16.4-8.3-8,0-13.4,3.6-13.4,10.8,0,8.2,6.2,11,16.3,12.8,13.3,2.3,21.4,7.1,21.4,19.9,0,9-6,19.3-23.2,19.3-11.2,0-19.4-3.8-24.6-11.3l7.1-4.9c4.5,5.3,8.5,8.4,17.5,8.4,11.3,0,14.6-5.2,14.6-11.1,0-6.5-3.3-10.9-16.3-12.9s-21.4-8.2-21.4-20.2c0-9.9,6.5-18.61,22.3-18.61,11,0,17.9,3.7,22.8,11.31Z"/><path class="cls-4" d="M466.81,821.51h11.9v-5.8c0-7.1-3.3-8.7-11.1-8.7-6,0-9.2.5-12,5.1l-6-4.2c3.5-5.8,8.6-8.3,18.1-8.3,12.7,0,19,4.1,19,16.1v34.7h-8v-4.9c-2.8,4.6-6.2,5.7-12.7,5.7-11.6,0-17.9-5.7-17.9-15.4C448.11,825,455.81,821.51,466.81,821.51Zm11.9,6.8h-11.9c-7.9,0-10.7,2.7-10.7,7.7,0,5.6,4,7.8,9.9,7.8,7.4,0,12.7-1.4,12.7-12.6Z"/><path class="cls-4" d="M499.71,800.41h8v4.9c2.2-3.4,6-5.7,12.4-5.7,6.7,0,11.8,2.7,14.6,7.9a17.22,17.22,0,0,1,15-7.9c10.71,0,17.21,6.6,17.21,19.6v31.2h-8v-31.1c0-9.1-4.5-12.3-10.41-12.3-6.4,0-11.2,5.1-11.2,12.2v31.2h-8v-31.1c0-9.1-4.5-12.3-10.4-12.3-6.5,0-11.2,5.3-11.2,12.2v31.2h-8Z"/><path class="cls-4" d="M616.31,842.81c-3.5,6.1-8.8,8.4-17.5,8.4-13.4,0-21.4-8.7-21.4-22.6V822c0-14.2,6.7-22.4,19.8-22.4S617,807.71,617,822v5.2h-31.6v1.4c0,8.6,4.1,15.4,12.8,15.4,6.5,0,9.8-1.9,11.9-5.6Zm-30.9-22.6h23.5c-.4-8.4-4.1-13.4-11.7-13.4S585.91,811.91,585.41,820.21Z"/><path class="cls-4" d="M655.71,800.41v-3.6c0-10.4,3.4-15.4,15.2-15.4h2.3V789h-2c-6.7,0-7.5,2.9-7.5,9.8v1.6h9.5v7.2h-9.5v42.8h-8v-42.8h-6.4v-7.2Z"/><path class="cls-4" d="M721.31,828.61c0,13-6.4,22.6-20.8,22.6-13.3,0-20.8-8.8-20.8-22.6V822c0-14.2,7.7-22.4,20.8-22.4s20.8,8.1,20.8,22.4Zm-8,0V822c0-9.5-4.6-15.2-12.8-15.2s-12.8,5.8-12.8,15.2v6.6c0,8.6,3.6,15.4,12.8,15.4C709,844,713.31,837.11,713.31,828.61Z"/><path class="cls-4" d="M758.91,811.21a9.5,9.5,0,0,0-8.4-4.2c-6.1,0-10.7,4.6-10.7,12.1v31.3h-8v-50h8v4.9c2.1-3.5,5.5-5.7,11.6-5.7,6.8,0,11.1,2.3,14.3,6.8Z"/><path class="cls-4" d="M812.41,821.51h11.9v-5.8c0-7.1-3.3-8.7-11.1-8.7-6,0-9.2.5-12,5.1l-6-4.2c3.5-5.8,8.6-8.3,18.1-8.3,12.7,0,19,4.1,19,16.1v34.7h-8v-4.9c-2.8,4.6-6.2,5.7-12.7,5.7-11.6,0-17.9-5.7-17.9-15.4C793.71,825,801.41,821.51,812.41,821.51Zm11.9,6.8h-11.9c-7.9,0-10.7,2.7-10.7,7.7,0,5.6,4,7.8,9.9,7.8,7.4,0,12.7-1.4,12.7-12.6Z"/><path class="cls-4" d="M845.31,781.41h8V833c0,5.4.3,10,8.5,10v7.4c-12.6,0-16.5-5-16.5-15.4Z"/><path class="cls-4" d="M872.71,781.41h8V833c0,5.4.3,10,8.5,10v7.4c-12.6,0-16.5-5-16.5-15.4Z"/><path class="cls-4" d="M968,800.41l-20,50h-8l-20.41-50h9l15.21,39.8,15.2-39.8Z"/><path class="cls-4" d="M1011.91,842.81c-3.5,6.1-8.8,8.4-17.5,8.4-13.41,0-21.41-8.7-21.41-22.6V822c0-14.2,6.7-22.4,19.8-22.4s19.81,8.1,19.81,22.4v5.2H981v1.4c0,8.6,4.1,15.4,12.8,15.4,6.51,0,9.81-1.9,11.91-5.6ZM981,820.21h23.51c-.4-8.4-4.1-13.4-11.71-13.4S981.5,811.91,981,820.21Z"/><path class="cls-4" d="M1024.3,781.41h8V833c0,5.4.3,10,8.5,10v7.4c-12.6,0-16.5-5-16.5-15.4Z"/><path class="cls-4" d="M1090.8,828.61c0,13-6.4,22.6-20.8,22.6-13.3,0-20.8-8.8-20.8-22.6V822c0-14.2,7.7-22.4,20.8-22.4s20.8,8.1,20.8,22.4Zm-8,0V822c0-9.5-4.6-15.2-12.8-15.2s-12.8,5.8-12.8,15.2v6.6c0,8.6,3.6,15.4,12.8,15.4C1078.5,844,1082.8,837.11,1082.8,828.61Z"/><path class="cls-4" d="M1137.7,842.81c-3.1,5.8-9.2,8.4-17.3,8.4-13.7,0-21.6-8.8-21.6-22.6V822c0-14.2,8.1-22.4,21.6-22.4,7.5,0,13.7,2.7,17.3,7.8l-6.3,4.4c-2.2-3.2-6.4-5-11-5-8.6,0-13.6,5.8-13.6,15.2v6.6c0,8.6,4,15.4,13.6,15.4,4.7,0,9-1.6,11.1-5.6Z"/><path class="cls-4" d="M1146.7,781.41h9v9h-9Zm.5,19h8v50h-8Z"/><path class="cls-4" d="M1165.3,800.41h6.4v-11h8v11h11.5v7.2h-11.5V833c0,6.9.8,9.8,7.5,9.8h4v7.6h-4.3c-11.8,0-15.2-5-15.2-15.4v-27.4h-6.4Z"/><path class="cls-4" d="M1214.8,850.91l-19.6-50.5h8.6l14.9,38.8,13.1-38.8h8.5L1222.7,852c-4.1,12-6.8,17.4-20.8,17.4v-7.8c6.6,0,9.7-1.1,12.7-10Z"/><path class="cls-4" d="M1272.79,800.41h8v4.9c2.2-3.4,6-5.7,12.4-5.7,6.7,0,11.8,2.7,14.6,7.9a17.22,17.22,0,0,1,15-7.9c10.7,0,17.2,6.6,17.2,19.6v31.2h-8v-31.1c0-9.1-4.5-12.3-10.4-12.3-6.4,0-11.2,5.1-11.2,12.2v31.2h-8v-31.1c0-9.1-4.5-12.3-10.4-12.3-6.5,0-11.2,5.3-11.2,12.2v31.2h-8Z"/><path class="cls-4" d="M1392.1,828.61c0,13-6.4,22.6-20.81,22.6-13.3,0-20.8-8.8-20.8-22.6V822c0-14.2,7.7-22.4,20.8-22.4s20.81,8.1,20.81,22.4Zm-8,0V822c0-9.5-4.6-15.2-12.81-15.2s-12.8,5.8-12.8,15.2v6.6c0,8.6,3.6,15.4,12.8,15.4C1379.79,844,1384.1,837.11,1384.1,828.61Z"/><path class="cls-4" d="M1433.69,781.41h8v69h-8V846c-2.7,3.5-7,5.2-13.6,5.2-13.6,0-20-9.6-20-22.6V822c0-14.3,7.6-22.4,20-22.4,6.6,0,10.9,2.1,13.6,5.8Zm0,47.9V822c0-9.4-4.6-15.2-12.8-15.2s-12.8,5.7-12.8,15.2v6.6c0,8.5,4.3,15.4,12.8,15.4C1429.79,844,1433.69,837.61,1433.69,829.31Z"/><path class="cls-4" d="M1491.09,842.81c-3.5,6.1-8.8,8.4-17.5,8.4-13.4,0-21.4-8.7-21.4-22.6V822c0-14.2,6.7-22.4,19.8-22.4s19.8,8.1,19.8,22.4v5.2h-31.6v1.4c0,8.6,4.1,15.4,12.8,15.4,6.5,0,9.8-1.9,11.9-5.6Zm-30.9-22.6h23.5c-.4-8.4-4.1-13.4-11.7-13.4S1460.69,811.91,1460.19,820.21Z"/><path class="cls-4" d="M1503.49,781.41h8V833c0,5.4.3,10,8.5,10v7.4c-12.6,0-16.5-5-16.5-15.4Z"/><path class="cls-4" d="M1559,812.11c-2.7-3.5-5.5-5.1-12.4-5.1-5.9,0-9.7,2.3-9.7,6.7,0,5.7,5,7.4,11.6,7.9,9.4.7,18,3.4,18,14.9,0,8.7-5.9,14.7-18.8,14.7-10.2,0-15.5-3.1-19.3-8.3l5.9-4.2c2.7,3.6,6.3,5.1,13.5,5.1,6.7,0,10.7-2.6,10.7-7.1,0-5.4-3.2-7.3-12.9-8-8.4-.6-16.7-4-16.7-14.9,0-8.3,6-14.2,17.9-14.2,8.1,0,14.3,2.1,18.2,8.3Z"/><path class="cls-4" d="M792.71,962.81c-3.1,5.8-9.2,8.4-17.3,8.4-13.7,0-21.6-8.8-21.6-22.6V942c0-14.2,8.1-22.4,21.6-22.4,7.5,0,13.7,2.7,17.3,7.8l-6.3,4.4c-2.2-3.2-6.4-5-11-5-8.6,0-13.6,5.8-13.6,15.2v6.6c0,8.6,4,15.4,13.6,15.4,4.7,0,9-1.6,11.1-5.6Z"/><path class="cls-4" d="M839.81,948.61c0,13-6.4,22.6-20.81,22.6-13.3,0-20.8-8.8-20.8-22.6V942c0-14.2,7.7-22.4,20.8-22.4s20.81,8.1,20.81,22.4Zm-8,0V942c0-9.5-4.6-15.2-12.81-15.2s-12.8,5.8-12.8,15.2v6.6c0,8.6,3.6,15.4,12.8,15.4C827.51,964,831.81,957.11,831.81,948.61Z"/><path class="cls-4" d="M850.3,920.41h8v4.9c2.5-3.8,6-5.7,13.4-5.7,10.7,0,18.2,5.6,18.2,19.6v31.2h-8v-31.1c0-10.1-5.5-12.3-11.4-12.3-7.5,0-12.2,5.3-12.2,12.2v31.2h-8Z"/><path class="cls-4" d="M931,932.11c-2.7-3.5-5.5-5.1-12.4-5.1-5.9,0-9.7,2.3-9.7,6.7,0,5.7,5,7.4,11.6,7.9,9.4.7,18,3.4,18,14.9,0,8.7-5.9,14.7-18.8,14.7-10.2,0-15.5-3.1-19.3-8.3l5.9-4.2c2.7,3.6,6.3,5.1,13.5,5.1,6.7,0,10.7-2.6,10.7-7.1,0-5.4-3.2-7.3-12.9-8-8.4-.6-16.7-4-16.7-14.9,0-8.3,6-14.2,17.9-14.2,8.1,0,14.3,2.1,18.2,8.3Z"/><path class="cls-4" d="M950.5,901.41h9v9h-9Zm.5,19h8v50h-8Z"/><path class="cls-4" d="M1004.6,901.41h8v69h-8V966c-2.7,3.5-7,5.2-13.6,5.2-13.6,0-20-9.6-20-22.6V942c0-14.3,7.6-22.4,20-22.4,6.6,0,10.9,2.1,13.6,5.8Zm0,47.9V942c0-9.4-4.6-15.2-12.8-15.2S979,932.51,979,942v6.6c0,8.5,4.3,15.4,12.8,15.4C1000.7,964,1004.6,957.61,1004.6,949.31Z"/><path class="cls-4" d="M1062,962.81c-3.5,6.1-8.8,8.4-17.5,8.4-13.4,0-21.4-8.7-21.4-22.6V942c0-14.2,6.7-22.4,19.8-22.4s19.8,8.1,19.8,22.4v5.2h-31.6v1.4c0,8.6,4.1,15.4,12.8,15.4,6.5,0,9.8-1.9,11.9-5.6Zm-30.9-22.6h23.5c-.4-8.4-4.1-13.4-11.7-13.4S1031.6,931.91,1031.1,940.21Z"/><path class="cls-4" d="M1101.5,931.21a9.5,9.5,0,0,0-8.4-4.2c-6.1,0-10.7,4.6-10.7,12.1v31.3h-8v-50h8v4.9c2.1-3.5,5.5-5.7,11.6-5.7,6.8,0,11.1,2.3,14.3,6.8Z"/><path class="cls-4" d="M1150.2,962.81c-3.5,6.1-8.8,8.4-17.5,8.4-13.4,0-21.4-8.7-21.4-22.6V942c0-14.2,6.7-22.4,19.8-22.4s19.8,8.1,19.8,22.4v5.2h-31.6v1.4c0,8.6,4.1,15.4,12.8,15.4,6.5,0,9.8-1.9,11.9-5.6Zm-30.9-22.6h23.5c-.4-8.4-4.1-13.4-11.7-13.4S1119.8,931.91,1119.3,940.21Z"/><path class="cls-4" d="M1193.7,901.41h8v69h-8V966c-2.7,3.5-7,5.2-13.6,5.2-13.6,0-20-9.6-20-22.6V942c0-14.3,7.61-22.4,20-22.4,6.6,0,10.9,2.1,13.6,5.8Zm0,47.9V942c0-9.4-4.6-15.2-12.8-15.2s-12.8,5.7-12.8,15.2v6.6c0,8.5,4.3,15.4,12.8,15.4C1189.8,964,1193.7,957.61,1193.7,949.31Z"/><line class="cls-6" x1="868" y1="495" x2="1869.51" y2="495"/></svg>