<?xml version="1.0" encoding="utf-8"?>
<!-- Generator: Adobe Illustrator 24.3.0, SVG Export Plug-In . SVG Version: 6.00 Build 0)  -->
<svg version="1.1" id="Model_Evidence" xmlns="http://www.w3.org/2000/svg" xmlns:xlink="http://www.w3.org/1999/xlink" x="0px"
	 y="0px" viewBox="0 0 1920 1080" style="enable-background:new 0 0 1920 1080;" xml:space="preserve">
<style type="text/css">
	.st0{clip-path:url(#SVGID_2_);}
	.st1{fill:#231F20;}
	.st2{fill:#009DDC;}
	.st3{enable-background:new    ;}
	.st4{fill:none;stroke:#000000;stroke-width:7;stroke-linecap:round;stroke-miterlimit:10;}
</style>
<g>
	<defs>
		<rect id="SVGID_1_" x="76" y="276" width="1806" height="429.2"/>
	</defs>
	<clipPath id="SVGID_2_">
		<use xlink:href="#SVGID_1_"  style="overflow:visible;"/>
	</clipPath>
	<g class="st0">
		<path d="M119.5,472.6h20.1c-5.9,26.3-7.5,33.9-7.5,45.8c-0.1,4.5,0.4,9.1,1.4,13.5c1.8,7.8,3.7,8.9,6.4,8.9c3.5,0,7.3-3.2,7.3-6.8
			c0-1.1,0-1.4-1.1-3.9c-3.6-9.3-5.4-19.3-5.1-29.3c0.1-9.5,1.2-18.9,3.2-28.2h20.3c2.3,0,8.7,0,8.7-6.1c0-4.3-3.8-4.3-7.1-4.3
			h-59.5c-3.9,0-10.7,0-18.5,8.4c-6.2,6.9-10.8,15.1-10.8,16c0,0.2,0,1.8,2.1,1.8c1.4,0,1.8-0.7,2.8-2.1c8.7-13.7,19-13.7,22.5-13.7
			h10.1c-5.7,21.5-15.3,43-22.7,59.2c-1.4,2.7-1.4,3-1.4,4.2c0,3.4,2.8,4.8,5.1,4.8c5.3,0,6.8-5,8.9-11.5c2.5-8.2,2.5-8.5,4.8-17.4
			L119.5,472.6"/>
		<path d="M238.5,581.5c0-0.5,0-0.9-3-3.9c-22.2-22.4-27.9-56-27.9-83.1c0-30.9,6.8-61.8,28.6-84c2.3-2.1,2.3-2.5,2.3-3
			c0.1-0.9-0.5-1.7-1.4-1.8c-0.1,0-0.3,0-0.4,0c-1.8,0-17.8,12.1-28.3,34.6c-9.1,19.5-11.2,39.3-11.2,54.2c0,13.8,2,35.3,11.7,55.4
			c10.6,21.8,25.9,33.4,27.7,33.4c0.9,0.1,1.7-0.5,1.8-1.4C238.5,581.8,238.5,581.7,238.5,581.5"/>
		<path d="M309.5,480.1c-1.9,8.2-5.7,23.2-12.4,36c-6.2,12.1-13,20.8-20.6,20.8c-5.9,0-9.6-5.1-9.6-21.7c0-7.5,1.1-17.8,5.7-35.1
			L309.5,480.1 M274,474.4c3-11.4,6.6-25.6,13.7-38.2c4.8-8.7,11.4-18.6,19.4-18.6c8.7,0,9.8,11.4,9.8,21.5c0,8.7-1.4,17.8-5.7,35.3
			L274,474.4z M328.5,450c0-11.7-3.2-36.4-21.3-36.4c-24.7,0-52.1,50.1-52.1,90.8c0,16.7,5.1,36.4,21.3,36.4
			C301.5,540.8,328.5,489.8,328.5,450z"/>
		<path d="M363.5,412c0-3.2,0-6.4-3.5-6.4s-3.5,3.2-3.5,6.4v164.9c0,3.2,0,6.4,3.5,6.4s3.5-3.2,3.5-6.4V412"/>
		<path d="M452,429.8c1.6-6.2,2-6.7,9.6-6.7h19c17.4,0,32.1,9.4,32.1,32.9c0,8.7-3.5,37.8-18.6,57.4c-5.2,6.6-19.2,20.1-41,20.1h-20
			c-1.3,0.1-2.6,0-3.9-0.2c-1.8-0.2-2.3-0.4-2.3-1.8c0-0.5,0-0.9,0.9-4.1L452,429.8 M413.6,525c-1.8,6.9-2.1,8.3-16.2,8.3
			c-3,0-5,0-5,3.4c0,2.1,1.6,2.1,5,2.1h58.8c36.9,0,71.9-37.5,71.9-76.4c0-25-15.1-44.9-41.7-44.9h-59.7c-3.4,0-5.3,0-5.3,3.4
			c0,2.1,1.6,2.1,5.1,2.1c2.3,0,5.5,0.2,7.6,0.4c2.9,0.3,3.9,0.9,3.9,2.8c-0.1,1.2-0.3,2.3-0.7,3.4L413.6,525z"/>
		<path d="M588.7,494.5c0-13.9-2-35.4-11.7-55.4c-10.7-21.9-25.9-33.4-27.7-33.4c-0.9-0.1-1.7,0.6-1.8,1.6c0,0.1,0,0.1,0,0.2
			c0,0.5,0,0.9,3.4,4.1c17.4,17.6,27.5,45.8,27.5,83c0,30.4-6.6,61.6-28.6,84c-2.3,2.1-2.3,2.5-2.3,3c0,0.9,0.7,1.7,1.6,1.8
			c0.1,0,0.1,0,0.2,0c1.8,0,17.8-12.1,28.2-34.6C586.5,529,588.7,509.4,588.7,494.5"/>
		<path d="M781.1,515.2c2.5,0,5.9,0,5.9-3.5s-3.4-3.5-6-3.5H674.9c-2.7,0-6,0-6,3.5s3.4,3.5,5.9,3.5H781.1 M781,480.8
			c2.7,0,6,0,6-3.5s-3.4-3.5-5.9-3.5H674.7c-2.5,0-5.9,0-5.9,3.5s3.4,3.5,6,3.5H781z"/>
		<path class="st1" d="M915.2,351h20.1c-5.9,26.3-7.5,33.9-7.5,45.8c-0.1,4.5,0.4,9.1,1.4,13.5c1.8,7.8,3.7,8.9,6.4,8.9
			c3.5,0,7.3-3.2,7.3-6.8c0-1.1,0-1.4-1.1-3.9c-3.6-9.3-5.4-19.3-5.1-29.3c0.1-9.5,1.2-18.9,3.2-28.2h20.3c2.3,0,8.7,0,8.7-6.1
			c0-4.2-3.8-4.2-7.1-4.2h-59.5c-3.9,0-10.7,0-18.5,8.4c-6.2,6.9-10.8,15.1-10.8,16c0,0.2,0,1.8,2.1,1.8c1.4,0,1.8-0.7,2.8-2.1
			c8.7-13.7,19-13.7,22.5-13.7h10.1c-5.7,21.5-15.3,43-22.7,59.1c-1.4,2.7-1.4,3-1.4,4.3c0,3.4,2.8,4.8,5.1,4.8
			c5.3,0,6.8-5,8.9-11.5c2.5-8.2,2.5-8.5,4.8-17.4L915.2,351"/>
		<path class="st1" d="M1034.2,459.9c0-0.5,0-0.9-3-3.9c-22.2-22.4-27.9-56-27.9-83.1c0-30.9,6.8-61.8,28.6-84
			c2.3-2.1,2.3-2.5,2.3-3c0.1-0.9-0.5-1.7-1.4-1.8c-0.1,0-0.3,0-0.4,0c-1.8,0-17.8,12.1-28.3,34.6c-9.1,19.5-11.2,39.3-11.2,54.2
			c0,13.8,2,35.3,11.7,55.4c10.7,21.9,25.9,33.4,27.7,33.4c0.9,0.1,1.7-0.5,1.8-1.4C1034.2,460.2,1034.2,460,1034.2,459.9"/>
		<path class="st1" d="M1110,308.2c1.6-6.2,2-6.7,9.6-6.7h19c17.4,0,32.1,9.4,32.1,32.9c0,8.7-3.6,37.8-18.6,57.4
			c-5.2,6.6-19.2,20.1-41,20.1H1091c-1.3,0.1-2.6,0-3.9-0.2c-1.8-0.2-2.3-0.4-2.3-1.8c0-0.5,0-0.9,0.9-4.1L1110,308.2 M1071.6,403.4
			c-1.8,6.9-2.1,8.4-16.2,8.4c-3,0-5,0-5,3.4c0,2.1,1.6,2.1,5,2.1h58.8c36.9,0,71.9-37.5,71.9-76.4c0-25-15.1-44.9-41.7-44.9h-59.7
			c-3.3,0-5.3,0-5.3,3.4c0,2.1,1.6,2.1,5.1,2.1c2.3,0,5.5,0.2,7.6,0.4c2.8,0.3,3.9,0.9,3.9,2.8c-0.1,1.1-0.3,2.3-0.7,3.4
			L1071.6,403.4z"/>
		<path class="st1" d="M1223.6,290.4c0-3.2,0-6.4-3.6-6.4s-3.6,3.2-3.6,6.4v164.9c0,3.2,0,6.4,3.6,6.4s3.6-3.2,3.6-6.4V290.4"/>
		<path class="st1" d="M1307.2,358.5c-1.9,8.1-5.7,23.2-12.4,36c-6.2,12.1-13,20.8-20.6,20.8c-5.9,0-9.6-5.1-9.6-21.7
			c0-7.5,1.1-17.7,5.7-35.1L1307.2,358.5 M1271.7,352.7c3-11.4,6.6-25.6,13.7-38.2c4.8-8.7,11.4-18.6,19.4-18.6
			c8.7,0,9.8,11.4,9.8,21.5c0,8.7-1.4,17.8-5.7,35.4H1271.7z M1326.3,328.4c0-11.7-3.2-36.4-21.3-36.4c-24.7,0-52,50.1-52,90.8
			c0,16.7,5.1,36.4,21.3,36.4C1299.2,419.2,1326.3,368.2,1326.3,328.4L1326.3,328.4z"/>
		<path class="st1" d="M1384.4,372.9c0-13.9-1.9-35.4-11.7-55.4c-10.7-21.8-25.9-33.4-27.7-33.4c-0.9-0.1-1.7,0.6-1.8,1.6
			c0,0.1,0,0.1,0,0.2c0,0.5,0,0.9,3.4,4.1c17.4,17.6,27.6,45.8,27.6,83c0,30.4-6.6,61.6-28.6,84c-2.3,2.1-2.3,2.5-2.3,3
			c0,0.9,0.7,1.7,1.6,1.8c0.1,0,0.1,0,0.2,0c1.8,0,17.8-12.1,28.3-34.6C1382.2,407.5,1384.4,387.8,1384.4,372.9"/>
		<path d="M1479.8,372.9c0-5.2-4.2-9.4-9.4-9.4s-9.4,4.2-9.4,9.4s4.2,9.4,9.4,9.4c0,0,0,0,0,0
			C1475.6,382.2,1479.8,378.1,1479.8,372.9"/>
		<path class="st1" d="M1580.4,351h20.1c-5.9,26.3-7.5,33.9-7.5,45.8c-0.1,4.5,0.4,9.1,1.4,13.5c1.8,7.8,3.7,8.9,6.4,8.9
			c3.6,0,7.3-3.2,7.3-6.8c0-1.1,0-1.4-1.1-3.9c-3.6-9.3-5.4-19.3-5.1-29.3c0.1-9.5,1.2-18.9,3.2-28.2h20.3c2.3,0,8.7,0,8.7-6.1
			c0-4.2-3.8-4.2-7.1-4.2h-59.5c-3.9,0-10.7,0-18.5,8.4c-6.2,6.9-10.8,15.1-10.8,16c0,0.2,0,1.8,2.1,1.8c1.4,0,1.8-0.7,2.8-2.1
			c8.7-13.7,19-13.7,22.5-13.7h10.1c-5.7,21.5-15.3,43-22.7,59.1c-1.4,2.7-1.4,3-1.4,4.3c0,3.4,2.8,4.8,5.1,4.8
			c5.3,0,6.8-5,8.9-11.5c2.5-8.2,2.5-8.5,4.8-17.4L1580.4,351"/>
		<path class="st1" d="M1699.4,459.9c0-0.5,0-0.9-3-3.9c-22.2-22.4-27.9-56-27.9-83.1c0-30.9,6.8-61.8,28.6-84
			c2.3-2.1,2.3-2.5,2.3-3c0.1-0.9-0.5-1.7-1.4-1.8c-0.1,0-0.3,0-0.4,0c-1.8,0-17.8,12.1-28.3,34.6c-9.1,19.5-11.2,39.3-11.2,54.2
			c0,13.8,2,35.3,11.7,55.4c10.7,21.9,25.9,33.4,27.7,33.4c0.9,0.1,1.7-0.5,1.8-1.4C1699.4,460.2,1699.4,460,1699.4,459.9"/>
		<path class="st1" d="M1770.4,358.5c-1.9,8.1-5.7,23.2-12.4,36c-6.2,12.1-13,20.8-20.6,20.8c-5.9,0-9.6-5.1-9.6-21.7
			c0-7.5,1.1-17.7,5.7-35.1L1770.4,358.5 M1734.8,352.7c3-11.4,6.6-25.6,13.7-38.2c4.8-8.7,11.4-18.6,19.4-18.6
			c8.7,0,9.8,11.4,9.8,21.5c0,8.7-1.4,17.8-5.7,35.4H1734.8z M1789.4,328.4c0-11.7-3.2-36.4-21.3-36.4c-24.7,0-52,50.1-52,90.8
			c0,16.7,5.1,36.4,21.3,36.4C1762.4,419.2,1789.4,368.2,1789.4,328.4L1789.4,328.4z"/>
		<path class="st1" d="M1847.5,372.9c0-13.9-2-35.4-11.7-55.4c-10.7-21.8-25.9-33.4-27.7-33.4c-0.9-0.1-1.7,0.6-1.8,1.6
			c0,0.1,0,0.1,0,0.2c0,0.5,0,0.9,3.4,4.1c17.4,17.6,27.5,45.8,27.5,83c0,30.4-6.6,61.6-28.6,84c-2.3,2.1-2.3,2.5-2.3,3
			c0,0.9,0.7,1.7,1.6,1.8c0.1,0,0.1,0,0.2,0c1.8,0,17.8-12.1,28.3-34.6C1845.3,407.5,1847.5,387.8,1847.5,372.9"/>
		<path class="st2" d="M1215.6,594.2h20.1c-5.9,26.3-7.5,33.9-7.5,45.8c-0.1,4.5,0.4,9.1,1.4,13.5c1.8,7.8,3.8,8.9,6.4,8.9
			c3.6,0,7.3-3.2,7.3-6.8c0-1.1,0-1.4-1.1-3.9c-3.6-9.3-5.4-19.3-5.1-29.3c0.1-9.5,1.2-18.9,3.2-28.2h20.3c2.3,0,8.7,0,8.7-6.1
			c0-4.3-3.7-4.3-7.1-4.3h-59.5c-3.9,0-10.7,0-18.5,8.4c-6.2,6.9-10.8,15.1-10.8,16c0,0.2,0,1.8,2.1,1.8c1.4,0,1.8-0.7,2.8-2.1
			c8.7-13.7,19-13.7,22.6-13.7h10.1c-5.7,21.5-15.3,43-22.7,59.2c-1.4,2.7-1.4,3-1.4,4.3c0,3.4,2.8,4.8,5.1,4.8
			c5.3,0,6.8-5,8.9-11.5c2.5-8.2,2.5-8.5,4.8-17.4L1215.6,594.2"/>
		<path class="st2" d="M1334.6,703.1c0-0.5,0-0.9-3-3.9c-22.2-22.4-27.9-56-27.9-83.1c0-30.9,6.8-61.8,28.6-84
			c2.3-2.1,2.3-2.5,2.3-3c0.1-0.9-0.5-1.7-1.4-1.8c-0.1,0-0.3,0-0.4,0c-1.8,0-17.8,12.1-28.2,34.7c-9.1,19.5-11.2,39.3-11.2,54.2
			c0,13.8,2,35.3,11.7,55.4c10.6,21.8,25.9,33.4,27.7,33.4c0.9,0.1,1.7-0.5,1.8-1.4C1334.6,703.4,1334.6,703.3,1334.6,703.1"/>
		<path class="st2" d="M1410.4,551.4c1.6-6.2,2-6.7,9.6-6.7h19c17.4,0,32.1,9.4,32.1,32.8c0,8.7-3.6,37.8-18.6,57.4
			c-5.2,6.6-19.2,20.1-41,20.1h-20.1c-1.3,0.1-2.6,0-3.9-0.2c-1.8-0.2-2.3-0.4-2.3-1.8c0-0.5,0-0.9,0.9-4.1L1410.4,551.4
			 M1372,646.6c-1.8,6.9-2.1,8.3-16.2,8.3c-3,0-5,0-5,3.4c0,2.1,1.6,2.1,5,2.1h58.8c36.9,0,71.9-37.5,71.9-76.4
			c0-25-15.1-44.9-41.7-44.9h-59.7c-3.4,0-5.3,0-5.3,3.4c0,2.1,1.6,2.1,5.1,2.1c2.3,0,5.5,0.2,7.6,0.4c2.8,0.3,3.9,0.9,3.9,2.8
			c-0.1,1.1-0.3,2.3-0.7,3.4L1372,646.6z"/>
		<path class="st2" d="M1547.1,616c0-13.9-2-35.4-11.7-55.4c-10.7-21.8-25.9-33.4-27.7-33.4c-0.9-0.1-1.7,0.6-1.8,1.6
			c0,0.1,0,0.1,0,0.2c0,0.5,0,0.9,3.4,4.1c17.4,17.6,27.6,45.8,27.6,83c0,30.4-6.6,61.6-28.6,84c-2.3,2.1-2.3,2.5-2.3,3
			c0,0.9,0.7,1.7,1.6,1.8c0.1,0,0.1,0,0.2,0c1.8,0,17.8-12.1,28.2-34.6C1545,650.6,1547.1,630.9,1547.1,616"/>
	</g>
</g>
<g class="st3">
	<path class="st2" d="M400.9,112.6l41.2-86h17v138h-17.2V63.4l-33.6,72.4h-15.4l-33-71.8v100.6h-17.2v-138h16.8L400.9,112.6z"/>
	<path class="st2" d="M567.3,121c0,26-12.8,45.2-41.6,45.2c-26.6,0-41.6-17.6-41.6-45.2v-13.2c0-28.4,15.4-44.8,41.6-44.8
		c26.4,0,41.6,16.2,41.6,44.8V121z M551.3,121v-13.2c0-19-9.2-30.4-25.6-30.4c-16.4,0-25.6,11.6-25.6,30.4V121
		c0,17.2,7.2,30.8,25.6,30.8C542.7,151.8,551.3,138,551.3,121z"/>
	<path class="st2" d="M650.5,26.6h16v138h-16v-8.8c-5.4,7-14,10.4-27.2,10.4c-27.2,0-40-19.2-40-45.2v-13.2
		c0-28.6,15.2-44.8,40-44.8c13.2,0,21.8,4.2,27.2,11.6V26.6z M650.5,122.4v-14.6c0-18.8-9.2-30.4-25.6-30.4
		c-16.4,0-25.6,11.4-25.6,30.4V121c0,17,8.6,30.8,25.6,30.8C642.7,151.8,650.5,139,650.5,122.4z"/>
	<path class="st2" d="M765.3,149.4c-7,12.2-17.6,16.8-35,16.8c-26.8,0-42.8-17.4-42.8-45.2v-13.2c0-28.4,13.4-44.8,39.6-44.8
		c26.4,0,39.6,16.2,39.6,44.8v10.4h-63.2v2.8c0,17.2,8.2,30.8,25.6,30.8c13,0,19.6-3.8,23.8-11.2L765.3,149.4z M703.5,104.2h47
		c-0.8-16.8-8.2-26.8-23.4-26.8C711.7,77.4,704.5,87.6,703.5,104.2z"/>
	<path class="st2" d="M790.1,26.6h16v103.2c0,10.8,0.6,20,17,20v14.8c-25.2,0-33-10-33-30.8V26.6z"/>
	<path class="st2" d="M982.1,26.6v15.6h-66v43.2h60V101h-60v48h66v15.6h-83.2v-138H982.1z"/>
	<path class="st2" d="M1088.9,64.6l-40,100h-16l-40.8-100h18l30.4,79.6l30.4-79.6H1088.9z"/>
	<path class="st2" d="M1105.9,26.6h18v18h-18V26.6z M1106.9,64.6h16v100h-16V64.6z"/>
	<path class="st2" d="M1214.1,26.6h16v138h-16v-8.8c-5.4,7-14,10.4-27.2,10.4c-27.2,0-40-19.2-40-45.2v-13.2
		c0-28.6,15.2-44.8,40-44.8c13.2,0,21.8,4.2,27.2,11.6V26.6z M1214.1,122.4v-14.6c0-18.8-9.2-30.4-25.6-30.4s-25.6,11.4-25.6,30.4
		V121c0,17,8.6,30.8,25.6,30.8C1206.3,151.8,1214.1,139,1214.1,122.4z"/>
	<path class="st2" d="M1328.9,149.4c-7,12.2-17.6,16.8-35,16.8c-26.8,0-42.8-17.4-42.8-45.2v-13.2c0-28.4,13.4-44.8,39.6-44.8
		c26.4,0,39.6,16.2,39.6,44.8v10.4h-63.2v2.8c0,17.2,8.2,30.8,25.6,30.8c13,0,19.6-3.8,23.8-11.2L1328.9,149.4z M1267.1,104.2h47
		c-0.8-16.8-8.2-26.8-23.4-26.8C1275.3,77.4,1268.1,87.6,1267.1,104.2z"/>
	<path class="st2" d="M1353.7,64.6h16v9.8c5-7.6,12-11.4,26.8-11.4c21.4,0,36.4,11.2,36.4,39.2v62.4h-16v-62.2
		c0-20.2-11-24.6-22.8-24.6c-15,0-24.4,10.6-24.4,24.4v62.4h-16V64.6z"/>
	<path class="st2" d="M1531.7,149.4c-6.2,11.6-18.4,16.8-34.6,16.8c-27.4,0-43.2-17.6-43.2-45.2v-13.2c0-28.4,16.2-44.8,43.2-44.8
		c15,0,27.4,5.4,34.6,15.6l-12.6,8.8c-4.4-6.4-12.8-10-22-10c-17.2,0-27.2,11.6-27.2,30.4V121c0,17.2,8,30.8,27.2,30.8
		c9.4,0,18-3.2,22.2-11.2L1531.7,149.4z"/>
	<path class="st2" d="M1620.5,149.4c-7,12.2-17.6,16.8-35,16.8c-26.8,0-42.8-17.4-42.8-45.2v-13.2c0-28.4,13.4-44.8,39.6-44.8
		c26.4,0,39.6,16.2,39.6,44.8v10.4h-63.2v2.8c0,17.2,8.2,30.8,25.6,30.8c13,0,19.6-3.8,23.8-11.2L1620.5,149.4z M1558.7,104.2h47
		c-0.8-16.8-8.2-26.8-23.4-26.8C1566.9,77.4,1559.7,87.6,1558.7,104.2z"/>
</g>
<path class="st2" d="M431.4,796.7c-3.7-4.8-7.7-8.3-16.4-8.3c-8,0-13.4,3.6-13.4,10.8c0,8.2,6.2,11,16.3,12.8
	c13.3,2.3,21.4,7.1,21.4,19.9c0,9-6,19.3-23.2,19.3c-11.2,0-19.4-3.8-24.6-11.3l7.1-4.9c4.5,5.3,8.5,8.4,17.5,8.4
	c11.3,0,14.6-5.2,14.6-11.1c0-6.5-3.3-10.9-16.3-12.9s-21.4-8.2-21.4-20.2c0-9.9,6.5-18.6,22.3-18.6c11,0,17.9,3.7,22.8,11.3
	L431.4,796.7z"/>
<path class="st2" d="M466.8,821.5h11.9v-5.8c0-7.1-3.3-8.7-11.1-8.7c-6,0-9.2,0.5-12,5.1l-6-4.2c3.5-5.8,8.6-8.3,18.1-8.3
	c12.7,0,19,4.1,19,16.1v34.7h-8v-4.9c-2.8,4.6-6.2,5.7-12.7,5.7c-11.6,0-17.9-5.7-17.9-15.4C448.1,825,455.8,821.5,466.8,821.5z
	 M478.7,828.3h-11.9c-7.9,0-10.7,2.7-10.7,7.7c0,5.6,4,7.8,9.9,7.8c7.4,0,12.7-1.4,12.7-12.6V828.3z"/>
<path class="st2" d="M499.7,800.4h8v4.9c2.2-3.4,6-5.7,12.4-5.7c6.7,0,11.8,2.7,14.6,7.9c3.3-5.1,9-8.1,15-7.9
	c10.7,0,17.2,6.6,17.2,19.6v31.2h-8v-31.1c0-9.1-4.5-12.3-10.4-12.3c-6.4,0-11.2,5.1-11.2,12.2v31.2h-8v-31.1
	c0-9.1-4.5-12.3-10.4-12.3c-6.5,0-11.2,5.3-11.2,12.2v31.2h-8L499.7,800.4z"/>
<path class="st2" d="M616.3,842.8c-3.5,6.1-8.8,8.4-17.5,8.4c-13.4,0-21.4-8.7-21.4-22.6V822c0-14.2,6.7-22.4,19.8-22.4
	S617,807.7,617,822v5.2h-31.6v1.4c0,8.6,4.1,15.4,12.8,15.4c6.5,0,9.8-1.9,11.9-5.6L616.3,842.8z M585.4,820.2h23.5
	c-0.4-8.4-4.1-13.4-11.7-13.4S585.9,811.9,585.4,820.2z"/>
<path class="st2" d="M655.7,800.4v-3.6c0-10.4,3.4-15.4,15.2-15.4h2.3v7.6h-2c-6.7,0-7.5,2.9-7.5,9.8v1.6h9.5v7.2h-9.5v42.8h-8
	v-42.8h-6.4v-7.2L655.7,800.4z"/>
<path class="st2" d="M721.3,828.6c0,13-6.4,22.6-20.8,22.6c-13.3,0-20.8-8.8-20.8-22.6V822c0-14.2,7.7-22.4,20.8-22.4
	s20.8,8.1,20.8,22.4V828.6z M713.3,828.6V822c0-9.5-4.6-15.2-12.8-15.2s-12.8,5.8-12.8,15.2v6.6c0,8.6,3.6,15.4,12.8,15.4
	C709,844,713.3,837.1,713.3,828.6z"/>
<path class="st2" d="M758.9,811.2c-1.9-2.8-5.1-4.4-8.4-4.2c-6.1,0-10.7,4.6-10.7,12.1v31.3h-8v-50h8v4.9c2.1-3.5,5.5-5.7,11.6-5.7
	c6.8,0,11.1,2.3,14.3,6.8L758.9,811.2z"/>
<path class="st2" d="M812.4,821.5h11.9v-5.8c0-7.1-3.3-8.7-11.1-8.7c-6,0-9.2,0.5-12,5.1l-6-4.2c3.5-5.8,8.6-8.3,18.1-8.3
	c12.7,0,19,4.1,19,16.1v34.7h-8v-4.9c-2.8,4.6-6.2,5.7-12.7,5.7c-11.6,0-17.9-5.7-17.9-15.4C793.7,825,801.4,821.5,812.4,821.5z
	 M824.3,828.3h-11.9c-7.9,0-10.7,2.7-10.7,7.7c0,5.6,4,7.8,9.9,7.8c7.4,0,12.7-1.4,12.7-12.6V828.3z"/>
<path class="st2" d="M845.3,781.4h8V833c0,5.4,0.3,10,8.5,10v7.4c-12.6,0-16.5-5-16.5-15.4V781.4z"/>
<path class="st2" d="M872.7,781.4h8V833c0,5.4,0.3,10,8.5,10v7.4c-12.6,0-16.5-5-16.5-15.4V781.4z"/>
<path class="st2" d="M968,800.4l-20,50h-8l-20.4-50h9l15.2,39.8l15.2-39.8H968z"/>
<path class="st2" d="M1011.9,842.8c-3.5,6.1-8.8,8.4-17.5,8.4c-13.4,0-21.4-8.7-21.4-22.6V822c0-14.2,6.7-22.4,19.8-22.4
	s19.8,8.1,19.8,22.4v5.2H981v1.4c0,8.6,4.1,15.4,12.8,15.4c6.5,0,9.8-1.9,11.9-5.6L1011.9,842.8z M981,820.2h23.5
	c-0.4-8.4-4.1-13.4-11.7-13.4S981.5,811.9,981,820.2z"/>
<path class="st2" d="M1024.3,781.4h8V833c0,5.4,0.3,10,8.5,10v7.4c-12.6,0-16.5-5-16.5-15.4V781.4z"/>
<path class="st2" d="M1090.8,828.6c0,13-6.4,22.6-20.8,22.6c-13.3,0-20.8-8.8-20.8-22.6V822c0-14.2,7.7-22.4,20.8-22.4
	s20.8,8.1,20.8,22.4V828.6z M1082.8,828.6V822c0-9.5-4.6-15.2-12.8-15.2s-12.8,5.8-12.8,15.2v6.6c0,8.6,3.6,15.4,12.8,15.4
	C1078.5,844,1082.8,837.1,1082.8,828.6z"/>
<path class="st2" d="M1137.7,842.8c-3.1,5.8-9.2,8.4-17.3,8.4c-13.7,0-21.6-8.8-21.6-22.6V822c0-14.2,8.1-22.4,21.6-22.4
	c7.5,0,13.7,2.7,17.3,7.8l-6.3,4.4c-2.2-3.2-6.4-5-11-5c-8.6,0-13.6,5.8-13.6,15.2v6.6c0,8.6,4,15.4,13.6,15.4c4.7,0,9-1.6,11.1-5.6
	L1137.7,842.8z"/>
<path class="st2" d="M1146.7,781.4h9v9h-9V781.4z M1147.2,800.4h8v50h-8V800.4z"/>
<path class="st2" d="M1165.3,800.4h6.4v-11h8v11h11.5v7.2h-11.5V833c0,6.9,0.8,9.8,7.5,9.8h4v7.6h-4.3c-11.8,0-15.2-5-15.2-15.4
	v-27.4h-6.4V800.4z"/>
<path class="st2" d="M1214.8,850.9l-19.6-50.5h8.6l14.9,38.8l13.1-38.8h8.5l-17.6,51.6c-4.1,12-6.8,17.4-20.8,17.4v-7.8
	c6.6,0,9.7-1.1,12.7-10L1214.8,850.9z"/>
<path class="st2" d="M1272.8,800.4h8v4.9c2.2-3.4,6-5.7,12.4-5.7c6.7,0,11.8,2.7,14.6,7.9c3.3-5.1,9-8.1,15-7.9
	c10.7,0,17.2,6.6,17.2,19.6v31.2h-8v-31.1c0-9.1-4.5-12.3-10.4-12.3c-6.4,0-11.2,5.1-11.2,12.2v31.2h-8v-31.1
	c0-9.1-4.5-12.3-10.4-12.3c-6.5,0-11.2,5.3-11.2,12.2v31.2h-8V800.4z"/>
<path class="st2" d="M1392.1,828.6c0,13-6.4,22.6-20.8,22.6c-13.3,0-20.8-8.8-20.8-22.6V822c0-14.2,7.7-22.4,20.8-22.4
	s20.8,8.1,20.8,22.4V828.6z M1384.1,828.6V822c0-9.5-4.6-15.2-12.8-15.2s-12.8,5.8-12.8,15.2v6.6c0,8.6,3.6,15.4,12.8,15.4
	C1379.8,844,1384.1,837.1,1384.1,828.6z"/>
<path class="st2" d="M1433.7,781.4h8v69h-8V846c-2.7,3.5-7,5.2-13.6,5.2c-13.6,0-20-9.6-20-22.6V822c0-14.3,7.6-22.4,20-22.4
	c6.6,0,10.9,2.1,13.6,5.8V781.4z M1433.7,829.3V822c0-9.4-4.6-15.2-12.8-15.2s-12.8,5.7-12.8,15.2v6.6c0,8.5,4.3,15.4,12.8,15.4
	C1429.8,844,1433.7,837.6,1433.7,829.3z"/>
<path class="st2" d="M1491.1,842.8c-3.5,6.1-8.8,8.4-17.5,8.4c-13.4,0-21.4-8.7-21.4-22.6V822c0-14.2,6.7-22.4,19.8-22.4
	s19.8,8.1,19.8,22.4v5.2h-31.6v1.4c0,8.6,4.1,15.4,12.8,15.4c6.5,0,9.8-1.9,11.9-5.6L1491.1,842.8z M1460.2,820.2h23.5
	c-0.4-8.4-4.1-13.4-11.7-13.4S1460.7,811.9,1460.2,820.2z"/>
<path class="st2" d="M1503.5,781.4h8V833c0,5.4,0.3,10,8.5,10v7.4c-12.6,0-16.5-5-16.5-15.4V781.4z"/>
<path class="st2" d="M1559,812.1c-2.7-3.5-5.5-5.1-12.4-5.1c-5.9,0-9.7,2.3-9.7,6.7c0,5.7,5,7.4,11.6,7.9c9.4,0.7,18,3.4,18,14.9
	c0,8.7-5.9,14.7-18.8,14.7c-10.2,0-15.5-3.1-19.3-8.3l5.9-4.2c2.7,3.6,6.3,5.1,13.5,5.1c6.7,0,10.7-2.6,10.7-7.1
	c0-5.4-3.2-7.3-12.9-8c-8.4-0.6-16.7-4-16.7-14.9c0-8.3,6-14.2,17.9-14.2c8.1,0,14.3,2.1,18.2,8.3L1559,812.1z"/>
<path class="st2" d="M792.7,962.8c-3.1,5.8-9.2,8.4-17.3,8.4c-13.7,0-21.6-8.8-21.6-22.6V942c0-14.2,8.1-22.4,21.6-22.4
	c7.5,0,13.7,2.7,17.3,7.8l-6.3,4.4c-2.2-3.2-6.4-5-11-5c-8.6,0-13.6,5.8-13.6,15.2v6.6c0,8.6,4,15.4,13.6,15.4c4.7,0,9-1.6,11.1-5.6
	L792.7,962.8z"/>
<path class="st2" d="M839.8,948.6c0,13-6.4,22.6-20.8,22.6c-13.3,0-20.8-8.8-20.8-22.6V942c0-14.2,7.7-22.4,20.8-22.4
	s20.8,8.1,20.8,22.4V948.6z M831.8,948.6V942c0-9.5-4.6-15.2-12.8-15.2s-12.8,5.8-12.8,15.2v6.6c0,8.6,3.6,15.4,12.8,15.4
	C827.5,964,831.8,957.1,831.8,948.6z"/>
<path class="st2" d="M850.3,920.4h8v4.9c2.5-3.8,6-5.7,13.4-5.7c10.7,0,18.2,5.6,18.2,19.6v31.2h-8v-31.1c0-10.1-5.5-12.3-11.4-12.3
	c-7.5,0-12.2,5.3-12.2,12.2v31.2h-8V920.4z"/>
<path class="st2" d="M931,932.1c-2.7-3.5-5.5-5.1-12.4-5.1c-5.9,0-9.7,2.3-9.7,6.7c0,5.7,5,7.4,11.6,7.9c9.4,0.7,18,3.4,18,14.9
	c0,8.7-5.9,14.7-18.8,14.7c-10.2,0-15.5-3.1-19.3-8.3l5.9-4.2c2.7,3.6,6.3,5.1,13.5,5.1c6.7,0,10.7-2.6,10.7-7.1
	c0-5.4-3.2-7.3-12.9-8c-8.4-0.6-16.7-4-16.7-14.9c0-8.3,6-14.2,17.9-14.2c8.1,0,14.3,2.1,18.2,8.3L931,932.1z"/>
<path class="st2" d="M950.5,901.4h9v9h-9V901.4z M951,920.4h8v50h-8V920.4z"/>
<path class="st2" d="M1004.6,901.4h8v69h-8V966c-2.7,3.5-7,5.2-13.6,5.2c-13.6,0-20-9.6-20-22.6V942c0-14.3,7.6-22.4,20-22.4
	c6.6,0,10.9,2.1,13.6,5.8V901.4z M1004.6,949.3V942c0-9.4-4.6-15.2-12.8-15.2S979,932.5,979,942v6.6c0,8.5,4.3,15.4,12.8,15.4
	C1000.7,964,1004.6,957.6,1004.6,949.3z"/>
<path class="st2" d="M1062,962.8c-3.5,6.1-8.8,8.4-17.5,8.4c-13.4,0-21.4-8.7-21.4-22.6V942c0-14.2,6.7-22.4,19.8-22.4
	s19.8,8.1,19.8,22.4v5.2h-31.6v1.4c0,8.6,4.1,15.4,12.8,15.4c6.5,0,9.8-1.9,11.9-5.6L1062,962.8z M1031.1,940.2h23.5
	c-0.4-8.4-4.1-13.4-11.7-13.4S1031.6,931.9,1031.1,940.2z"/>
<path class="st2" d="M1101.5,931.2c-1.9-2.8-5.1-4.4-8.4-4.2c-6.1,0-10.7,4.6-10.7,12.1v31.3h-8v-50h8v4.9c2.1-3.5,5.5-5.7,11.6-5.7
	c6.8,0,11.1,2.3,14.3,6.8L1101.5,931.2z"/>
<path class="st2" d="M1150.2,962.8c-3.5,6.1-8.8,8.4-17.5,8.4c-13.4,0-21.4-8.7-21.4-22.6V942c0-14.2,6.7-22.4,19.8-22.4
	s19.8,8.1,19.8,22.4v5.2h-31.6v1.4c0,8.6,4.1,15.4,12.8,15.4c6.5,0,9.8-1.9,11.9-5.6L1150.2,962.8z M1119.3,940.2h23.5
	c-0.4-8.4-4.1-13.4-11.7-13.4S1119.8,931.9,1119.3,940.2L1119.3,940.2z"/>
<path class="st2" d="M1193.7,901.4h8v69h-8V966c-2.7,3.5-7,5.2-13.6,5.2c-13.6,0-20-9.6-20-22.6V942c0-14.3,7.6-22.4,20-22.4
	c6.6,0,10.9,2.1,13.6,5.8V901.4z M1193.7,949.3V942c0-9.4-4.6-15.2-12.8-15.2s-12.8,5.7-12.8,15.2v6.6c0,8.5,4.3,15.4,12.8,15.4
	C1189.8,964,1193.7,957.6,1193.7,949.3z"/>
<line class="st4" x1="868" y1="495" x2="1869.5" y2="495"/>
</svg>
