<?xml version="1.0" encoding="utf-8"?>
<!-- Generator: Adobe Illustrator 24.3.0, SVG Export Plug-In . SVG Version: 6.00 Build 0)  -->
<svg version="1.1" id="Likelihood" xmlns="http://www.w3.org/2000/svg" xmlns:xlink="http://www.w3.org/1999/xlink" x="0px" y="0px"
	 viewBox="0 0 1920 1080" style="enable-background:new 0 0 1920 1080;" xml:space="preserve">
<style type="text/css">
	.st0{clip-path:url(#SVGID_2_);}
	.st1{fill:#18AE4B;}
	.st2{fill:#231F20;}
	.st3{enable-background:new    ;}
	.st4{fill:none;stroke:#000000;stroke-width:7;stroke-linecap:round;stroke-miterlimit:10;}
</style>
<g>
	<defs>
		<rect id="SVGID_1_" x="76" y="276" width="1806" height="429.2"/>
	</defs>
	<clipPath id="SVGID_2_">
		<use xlink:href="#SVGID_1_"  style="overflow:visible;"/>
	</clipPath>
	<g class="st0">
		<path d="M119.5,472.6h20.1c-5.9,26.3-7.5,33.9-7.5,45.8c-0.1,4.5,0.4,9.1,1.4,13.5c1.8,7.8,3.7,8.9,6.4,8.9c3.5,0,7.3-3.2,7.3-6.8
			c0-1.1,0-1.4-1.1-3.9c-3.6-9.3-5.4-19.3-5.1-29.3c0.1-9.5,1.2-18.9,3.2-28.2h20.3c2.3,0,8.7,0,8.7-6.1c0-4.3-3.8-4.3-7.1-4.3
			h-59.5c-3.9,0-10.7,0-18.5,8.4c-6.2,6.9-10.8,15.1-10.8,16c0,0.2,0,1.8,2.1,1.8c1.4,0,1.8-0.7,2.8-2.1c8.7-13.7,19-13.7,22.5-13.7
			h10.1c-5.7,21.5-15.3,43-22.7,59.2c-1.4,2.7-1.4,3-1.4,4.2c0,3.4,2.8,4.8,5.1,4.8c5.3,0,6.8-5,8.9-11.5c2.5-8.2,2.5-8.5,4.8-17.4
			L119.5,472.6"/>
		<path d="M238.5,581.5c0-0.5,0-0.9-3-3.9c-22.2-22.4-27.9-56-27.9-83.1c0-30.9,6.8-61.8,28.6-84c2.3-2.1,2.3-2.5,2.3-3
			c0.1-0.9-0.5-1.7-1.4-1.8c-0.1,0-0.3,0-0.4,0c-1.8,0-17.8,12.1-28.3,34.6c-9.1,19.5-11.2,39.3-11.2,54.2c0,13.8,2,35.3,11.7,55.4
			c10.6,21.8,25.9,33.4,27.7,33.4c0.9,0.1,1.7-0.5,1.8-1.4C238.5,581.8,238.5,581.7,238.5,581.5"/>
		<path d="M309.5,480.1c-1.9,8.2-5.7,23.2-12.4,36c-6.2,12.1-13,20.8-20.6,20.8c-5.9,0-9.6-5.1-9.6-21.7c0-7.5,1.1-17.8,5.7-35.1
			L309.5,480.1 M274,474.4c3-11.4,6.6-25.6,13.7-38.2c4.8-8.7,11.4-18.6,19.4-18.6c8.7,0,9.8,11.4,9.8,21.5c0,8.7-1.4,17.8-5.7,35.3
			L274,474.4z M328.5,450c0-11.7-3.2-36.4-21.3-36.4c-24.7,0-52.1,50.1-52.1,90.8c0,16.7,5.1,36.4,21.3,36.4
			C301.5,540.8,328.5,489.8,328.5,450z"/>
		<path d="M363.5,412c0-3.2,0-6.4-3.5-6.4s-3.5,3.2-3.5,6.4v164.9c0,3.2,0,6.4,3.5,6.4s3.5-3.2,3.5-6.4V412"/>
		<path d="M452,429.8c1.6-6.2,2-6.7,9.6-6.7h19c17.4,0,32.1,9.4,32.1,32.9c0,8.7-3.5,37.8-18.6,57.4c-5.2,6.6-19.2,20.1-41,20.1h-20
			c-1.3,0.1-2.6,0-3.9-0.2c-1.8-0.2-2.3-0.4-2.3-1.8c0-0.5,0-0.9,0.9-4.1L452,429.8 M413.6,525c-1.8,6.9-2.1,8.3-16.2,8.3
			c-3,0-5,0-5,3.4c0,2.1,1.6,2.1,5,2.1h58.8c36.9,0,71.9-37.5,71.9-76.4c0-25-15.1-44.9-41.7-44.9h-59.7c-3.4,0-5.3,0-5.3,3.4
			c0,2.1,1.6,2.1,5.1,2.1c2.3,0,5.5,0.2,7.6,0.4c2.9,0.3,3.9,0.9,3.9,2.8c-0.1,1.2-0.3,2.3-0.7,3.4L413.6,525z"/>
		<path d="M588.7,494.5c0-13.9-2-35.4-11.7-55.4c-10.7-21.9-25.9-33.4-27.7-33.4c-0.9-0.1-1.7,0.6-1.8,1.6c0,0.1,0,0.1,0,0.2
			c0,0.5,0,0.9,3.4,4.1c17.4,17.6,27.5,45.8,27.5,83c0,30.4-6.6,61.6-28.6,84c-2.3,2.1-2.3,2.5-2.3,3c0,0.9,0.7,1.7,1.6,1.8
			c0.1,0,0.1,0,0.2,0c1.8,0,17.8-12.1,28.2-34.6C586.5,529,588.7,509.4,588.7,494.5"/>
		<path d="M781.1,515.2c2.5,0,5.9,0,5.9-3.5s-3.4-3.5-6-3.5H674.9c-2.7,0-6,0-6,3.5s3.4,3.5,5.9,3.5H781.1 M781,480.8
			c2.7,0,6,0,6-3.5s-3.4-3.5-5.9-3.5H674.7c-2.5,0-5.9,0-5.9,3.5s3.4,3.5,6,3.5H781z"/>
		<path class="st1" d="M915.2,351h20.1c-5.9,26.3-7.5,33.9-7.5,45.8c-0.1,4.5,0.4,9.1,1.4,13.5c1.8,7.8,3.7,8.9,6.4,8.9
			c3.5,0,7.3-3.2,7.3-6.8c0-1.1,0-1.4-1.1-3.9c-3.6-9.3-5.4-19.3-5.1-29.3c0.1-9.5,1.2-18.9,3.2-28.2h20.3c2.3,0,8.7,0,8.7-6.1
			c0-4.2-3.8-4.2-7.1-4.2h-59.5c-3.9,0-10.7,0-18.5,8.4c-6.2,6.9-10.8,15.1-10.8,16c0,0.2,0,1.8,2.1,1.8c1.4,0,1.8-0.7,2.8-2.1
			c8.7-13.7,19-13.7,22.5-13.7h10.1c-5.7,21.5-15.3,43-22.7,59.1c-1.4,2.7-1.4,3-1.4,4.3c0,3.4,2.8,4.8,5.1,4.8
			c5.3,0,6.8-5,8.9-11.5c2.5-8.2,2.5-8.5,4.8-17.4L915.2,351"/>
		<path class="st1" d="M1034.2,459.9c0-0.5,0-0.9-3-3.9c-22.2-22.4-27.9-56-27.9-83.1c0-30.9,6.8-61.8,28.6-84
			c2.3-2.1,2.3-2.5,2.3-3c0.1-0.9-0.5-1.7-1.4-1.8c-0.1,0-0.3,0-0.4,0c-1.8,0-17.8,12.1-28.3,34.6c-9.1,19.5-11.2,39.3-11.2,54.2
			c0,13.8,2,35.3,11.7,55.4c10.7,21.9,25.9,33.4,27.7,33.4c0.9,0.1,1.7-0.5,1.8-1.4C1034.2,460.2,1034.2,460,1034.2,459.9"/>
		<path class="st1" d="M1110,308.2c1.6-6.2,2-6.7,9.6-6.7h19c17.4,0,32.1,9.4,32.1,32.9c0,8.7-3.6,37.8-18.6,57.4
			c-5.2,6.6-19.2,20.1-41,20.1H1091c-1.3,0.1-2.6,0-3.9-0.2c-1.8-0.2-2.3-0.4-2.3-1.8c0-0.5,0-0.9,0.9-4.1L1110,308.2 M1071.6,403.4
			c-1.8,6.9-2.1,8.4-16.2,8.4c-3,0-5,0-5,3.4c0,2.1,1.6,2.1,5,2.1h58.8c36.9,0,71.9-37.5,71.9-76.4c0-25-15.1-44.9-41.7-44.9h-59.7
			c-3.3,0-5.3,0-5.3,3.4c0,2.1,1.6,2.1,5.1,2.1c2.3,0,5.5,0.2,7.6,0.4c2.8,0.3,3.9,0.9,3.9,2.8c-0.1,1.1-0.3,2.3-0.7,3.4
			L1071.6,403.4z"/>
		<path class="st1" d="M1223.6,290.4c0-3.2,0-6.4-3.6-6.4s-3.6,3.2-3.6,6.4v164.9c0,3.2,0,6.4,3.6,6.4s3.6-3.2,3.6-6.4V290.4"/>
		<path class="st1" d="M1307.2,358.5c-1.9,8.1-5.7,23.2-12.4,36c-6.2,12.1-13,20.8-20.6,20.8c-5.9,0-9.6-5.1-9.6-21.7
			c0-7.5,1.1-17.7,5.7-35.1L1307.2,358.5 M1271.7,352.7c3-11.4,6.6-25.6,13.7-38.2c4.8-8.7,11.4-18.6,19.4-18.6
			c8.7,0,9.8,11.4,9.8,21.5c0,8.7-1.4,17.8-5.7,35.4H1271.7z M1326.3,328.4c0-11.7-3.2-36.4-21.3-36.4c-24.7,0-52,50.1-52,90.8
			c0,16.7,5.1,36.4,21.3,36.4C1299.2,419.2,1326.3,368.2,1326.3,328.4L1326.3,328.4z"/>
		<path class="st1" d="M1384.4,372.9c0-13.9-1.9-35.4-11.7-55.4c-10.7-21.8-25.9-33.4-27.7-33.4c-0.9-0.1-1.7,0.6-1.8,1.6
			c0,0.1,0,0.1,0,0.2c0,0.5,0,0.9,3.4,4.1c17.4,17.6,27.6,45.8,27.6,83c0,30.4-6.6,61.6-28.6,84c-2.3,2.1-2.3,2.5-2.3,3
			c0,0.9,0.7,1.7,1.6,1.8c0.1,0,0.1,0,0.2,0c1.8,0,17.8-12.1,28.3-34.6C1382.2,407.5,1384.4,387.8,1384.4,372.9"/>
		<path d="M1479.8,372.9c0-5.2-4.2-9.4-9.4-9.4s-9.4,4.2-9.4,9.4s4.2,9.4,9.4,9.4c0,0,0,0,0,0
			C1475.6,382.2,1479.8,378.1,1479.8,372.9"/>
		<path class="st2" d="M1580.4,351h20.1c-5.9,26.3-7.5,33.9-7.5,45.8c-0.1,4.5,0.4,9.1,1.4,13.5c1.8,7.8,3.7,8.9,6.4,8.9
			c3.6,0,7.3-3.2,7.3-6.8c0-1.1,0-1.4-1.1-3.9c-3.6-9.3-5.4-19.3-5.1-29.3c0.1-9.5,1.2-18.9,3.2-28.2h20.3c2.3,0,8.7,0,8.7-6.1
			c0-4.2-3.8-4.2-7.1-4.2h-59.5c-3.9,0-10.7,0-18.5,8.4c-6.2,6.9-10.8,15.1-10.8,16c0,0.2,0,1.8,2.1,1.8c1.4,0,1.8-0.7,2.8-2.1
			c8.7-13.7,19-13.7,22.5-13.7h10.1c-5.7,21.5-15.3,43-22.7,59.1c-1.4,2.7-1.4,3-1.4,4.3c0,3.4,2.8,4.8,5.1,4.8
			c5.3,0,6.8-5,8.9-11.5c2.5-8.2,2.5-8.5,4.8-17.4L1580.4,351"/>
		<path class="st2" d="M1699.4,459.9c0-0.5,0-0.9-3-3.9c-22.2-22.4-27.9-56-27.9-83.1c0-30.9,6.8-61.8,28.6-84
			c2.3-2.1,2.3-2.5,2.3-3c0.1-0.9-0.5-1.7-1.4-1.8c-0.1,0-0.3,0-0.4,0c-1.8,0-17.8,12.1-28.3,34.6c-9.1,19.5-11.2,39.3-11.2,54.2
			c0,13.8,2,35.3,11.7,55.4c10.7,21.9,25.9,33.4,27.7,33.4c0.9,0.1,1.7-0.5,1.8-1.4C1699.4,460.2,1699.4,460,1699.4,459.9"/>
		<path class="st2" d="M1770.4,358.5c-1.9,8.1-5.7,23.2-12.4,36c-6.2,12.1-13,20.8-20.6,20.8c-5.9,0-9.6-5.1-9.6-21.7
			c0-7.5,1.1-17.7,5.7-35.1L1770.4,358.5 M1734.8,352.7c3-11.4,6.6-25.6,13.7-38.2c4.8-8.7,11.4-18.6,19.4-18.6
			c8.7,0,9.8,11.4,9.8,21.5c0,8.7-1.4,17.8-5.7,35.4H1734.8z M1789.4,328.4c0-11.7-3.2-36.4-21.3-36.4c-24.7,0-52,50.1-52,90.8
			c0,16.7,5.1,36.4,21.3,36.4C1762.4,419.2,1789.4,368.2,1789.4,328.4L1789.4,328.4z"/>
		<path class="st2" d="M1847.5,372.9c0-13.9-2-35.4-11.7-55.4c-10.7-21.8-25.9-33.4-27.7-33.4c-0.9-0.1-1.7,0.6-1.8,1.6
			c0,0.1,0,0.1,0,0.2c0,0.5,0,0.9,3.4,4.1c17.4,17.6,27.5,45.8,27.5,83c0,30.4-6.6,61.6-28.6,84c-2.3,2.1-2.3,2.5-2.3,3
			c0,0.9,0.7,1.7,1.6,1.8c0.1,0,0.1,0,0.2,0c1.8,0,17.8-12.1,28.3-34.6C1845.3,407.5,1847.5,387.8,1847.5,372.9"/>
		<path d="M1215.6,594.2h20.1c-5.9,26.3-7.5,33.9-7.5,45.8c-0.1,4.5,0.4,9.1,1.4,13.5c1.8,7.8,3.8,8.9,6.4,8.9
			c3.6,0,7.3-3.2,7.3-6.8c0-1.1,0-1.4-1.1-3.9c-3.6-9.3-5.4-19.3-5.1-29.3c0.1-9.5,1.2-18.9,3.2-28.2h20.3c2.3,0,8.7,0,8.7-6.1
			c0-4.3-3.7-4.3-7.1-4.3h-59.5c-3.9,0-10.7,0-18.5,8.4c-6.2,6.9-10.8,15.1-10.8,16c0,0.2,0,1.8,2.1,1.8c1.4,0,1.8-0.7,2.8-2.1
			c8.7-13.7,19-13.7,22.6-13.7h10.1c-5.7,21.5-15.3,43-22.7,59.2c-1.4,2.7-1.4,3-1.4,4.3c0,3.4,2.8,4.8,5.1,4.8
			c5.3,0,6.8-5,8.9-11.5c2.5-8.2,2.5-8.5,4.8-17.4L1215.6,594.2"/>
		<path d="M1334.6,703.1c0-0.5,0-0.9-3-3.9c-22.2-22.4-27.9-56-27.9-83.1c0-30.9,6.8-61.8,28.6-84c2.3-2.1,2.3-2.5,2.3-3
			c0.1-0.9-0.5-1.7-1.4-1.8c-0.1,0-0.3,0-0.4,0c-1.8,0-17.8,12.1-28.2,34.7c-9.1,19.5-11.2,39.3-11.2,54.2c0,13.8,2,35.3,11.7,55.4
			c10.6,21.8,25.9,33.4,27.7,33.4c0.9,0.1,1.7-0.5,1.8-1.4C1334.6,703.4,1334.6,703.3,1334.6,703.1"/>
		<path d="M1410.4,551.4c1.6-6.2,2-6.7,9.6-6.7h19c17.4,0,32.1,9.4,32.1,32.8c0,8.7-3.6,37.8-18.6,57.4c-5.2,6.6-19.2,20.1-41,20.1
			h-20.1c-1.3,0.1-2.6,0-3.9-0.2c-1.8-0.2-2.3-0.4-2.3-1.8c0-0.5,0-0.9,0.9-4.1L1410.4,551.4 M1372,646.6c-1.8,6.9-2.1,8.3-16.2,8.3
			c-3,0-5,0-5,3.4c0,2.1,1.6,2.1,5,2.1h58.8c36.9,0,71.9-37.5,71.9-76.4c0-25-15.1-44.9-41.7-44.9h-59.7c-3.4,0-5.3,0-5.3,3.4
			c0,2.1,1.6,2.1,5.1,2.1c2.3,0,5.5,0.2,7.6,0.4c2.8,0.3,3.9,0.9,3.9,2.8c-0.1,1.1-0.3,2.3-0.7,3.4L1372,646.6z"/>
		<path d="M1547.1,616c0-13.9-2-35.4-11.7-55.4c-10.7-21.8-25.9-33.4-27.7-33.4c-0.9-0.1-1.7,0.6-1.8,1.6c0,0.1,0,0.1,0,0.2
			c0,0.5,0,0.9,3.4,4.1c17.4,17.6,27.6,45.8,27.6,83c0,30.4-6.6,61.6-28.6,84c-2.3,2.1-2.3,2.5-2.3,3c0,0.9,0.7,1.7,1.6,1.8
			c0.1,0,0.1,0,0.2,0c1.8,0,17.8-12.1,28.2-34.6C1545,650.6,1547.1,630.9,1547.1,616"/>
	</g>
</g>
<g class="st3">
	<path class="st1" d="M202.2,149h66v15.6H185v-138h17.2V149z"/>
	<path class="st1" d="M283.2,26.6h18v18h-18V26.6z M284.2,64.6h16v100h-16V64.6z"/>
</g>
<g class="st3">
	<path class="st1" d="M406.4,64.6l-43.2,44.2l49.4,55.8h-20.8L351.4,121l-6.2,6.6v37h-16v-138h16v78.8l40.4-40.8H406.4z"/>
</g>
<g class="st3">
	<path class="st1" d="M493.4,149.4c-7,12.2-17.6,16.8-35,16.8c-26.8,0-42.8-17.4-42.8-45.2v-13.2c0-28.4,13.4-44.8,39.6-44.8
		c26.4,0,39.6,16.2,39.6,44.8v10.4h-63.2v2.8c0,17.2,8.2,30.8,25.6,30.8c13,0,19.6-3.8,23.8-11.2L493.4,149.4z M431.6,104.2h47
		c-0.8-16.8-8.2-26.8-23.4-26.8C439.8,77.4,432.6,87.6,431.6,104.2z"/>
	<path class="st1" d="M518.2,26.6h16v103.2c0,10.8,0.6,20,17,20v14.8c-25.2,0-33-10-33-30.8V26.6z"/>
	<path class="st1" d="M575,26.6h18v18h-18V26.6z M576,64.6h16v100h-16V64.6z"/>
	<path class="st1" d="M621,26.6h16v47.8c5-7.6,12-11.4,26.8-11.4c21.4,0,36.4,11.2,36.4,39.2v62.4h-16v-62.2
		c0-20.2-11-24.6-22.8-24.6c-15,0-24.4,10.6-24.4,24.4v62.4h-16V26.6z"/>
	<path class="st1" d="M804.3,121c0,26-12.8,45.2-41.6,45.2c-26.6,0-41.6-17.6-41.6-45.2v-13.2c0-28.4,15.4-44.8,41.6-44.8
		c26.4,0,41.6,16.2,41.6,44.8V121z M788.3,121v-13.2c0-19-9.2-30.4-25.6-30.4c-16.4,0-25.6,11.6-25.6,30.4V121
		c0,17.2,7.2,30.8,25.6,30.8C779.8,151.8,788.3,138,788.3,121z"/>
	<path class="st1" d="M903.5,121c0,26-12.8,45.2-41.6,45.2c-26.6,0-41.6-17.6-41.6-45.2v-13.2c0-28.4,15.4-44.8,41.6-44.8
		c26.4,0,41.6,16.2,41.6,44.8V121z M887.5,121v-13.2c0-19-9.2-30.4-25.6-30.4c-16.4,0-25.6,11.6-25.6,30.4V121
		c0,17.2,7.2,30.8,25.6,30.8C878.9,151.8,887.5,138,887.5,121z"/>
	<path class="st1" d="M986.7,26.6h16v138h-16v-8.8c-5.4,7-14,10.4-27.2,10.4c-27.2,0-40-19.2-40-45.2v-13.2
		c0-28.6,15.2-44.8,40-44.8c13.2,0,21.8,4.2,27.2,11.6V26.6z M986.7,122.4v-14.6c0-18.8-9.2-30.4-25.6-30.4s-25.6,11.4-25.6,30.4
		V121c0,17,8.6,30.8,25.6,30.8C978.9,151.8,986.7,139,986.7,122.4z"/>
	<path class="st1" d="M1165.9,26.6v15.6h-66v46.4h60v15.6h-60v60.4h-17.2v-138H1165.9z"/>
	<path class="st1" d="M1264.1,164.6h-16v-9.8c-5,7.6-12,11.4-26.8,11.4c-21.4,0-36.4-11.2-36.4-39.2V64.6h16v62.2
		c0,20.2,11,24.6,22.8,24.6c15,0,24.4-10.6,24.4-24.4V64.6h16V164.6z"/>
	<path class="st1" d="M1290.1,64.6h16v9.8c5-7.6,12-11.4,26.8-11.4c21.4,0,36.4,11.2,36.4,39.2v62.4h-16v-62.2
		c0-20.2-11-24.6-22.8-24.6c-15,0-24.4,10.6-24.4,24.4v62.4h-16V64.6z"/>
	<path class="st1" d="M1468.1,149.4c-6.2,11.6-18.4,16.8-34.6,16.8c-27.4,0-43.2-17.6-43.2-45.2v-13.2c0-28.4,16.2-44.8,43.2-44.8
		c15,0,27.4,5.4,34.6,15.6l-12.6,8.8c-4.4-6.4-12.8-10-22-10c-17.2,0-27.2,11.6-27.2,30.4V121c0,17.2,8,30.8,27.2,30.8
		c9.4,0,18-3.2,22.2-11.2L1468.1,149.4z"/>
	<path class="st1" d="M1475.3,64.6h12.8v-22h16v22h23V79h-23v50.8c0,13.8,1.6,19.6,15,19.6h8v15.2h-8.6c-23.6,0-30.4-10-30.4-30.8
		V79h-12.8V64.6z"/>
	<path class="st1" d="M1549.1,26.6h18v18h-18V26.6z M1550.1,64.6h16v100h-16V64.6z"/>
	<path class="st1" d="M1673.3,121c0,26-12.8,45.2-41.6,45.2c-26.6,0-41.6-17.6-41.6-45.2v-13.2c0-28.4,15.4-44.8,41.6-44.8
		c26.4,0,41.6,16.2,41.6,44.8V121z M1657.3,121v-13.2c0-19-9.2-30.4-25.6-30.4c-16.4,0-25.6,11.6-25.6,30.4V121
		c0,17.2,7.2,30.8,25.6,30.8C1648.7,151.8,1657.3,138,1657.3,121z"/>
	<path class="st1" d="M1694.3,64.6h16v9.8c5-7.6,12-11.4,26.8-11.4c21.4,0,36.4,11.2,36.4,39.2v62.4h-16v-62.2
		c0-20.2-11-24.6-22.8-24.6c-15,0-24.4,10.6-24.4,24.4v62.4h-16V64.6z"/>
</g>
<path class="st1" d="M338.7,824.4l20.6-43h8.5v69h-8.6v-50.6L342.4,836h-7.7l-16.5-35.9v50.3h-8.6v-69h8.4L338.7,824.4z"/>
<path class="st1" d="M419.2,842.8c-3.5,6.1-8.8,8.4-17.5,8.4c-13.4,0-21.4-8.7-21.4-22.6V822c0-14.2,6.7-22.4,19.8-22.4
	s19.8,8.1,19.8,22.4v5.2h-31.6v1.4c0,8.6,4.1,15.4,12.8,15.4c6.5,0,9.8-1.9,11.9-5.6L419.2,842.8z M388.3,820.2h23.5
	c-0.4-8.4-4.1-13.4-11.7-13.4S388.8,811.9,388.3,820.2z"/>
<path class="st1" d="M447.8,821.5h11.9v-5.8c0-7.1-3.3-8.7-11.1-8.7c-6,0-9.2,0.5-12,5.1l-6-4.2c3.5-5.8,8.6-8.3,18.1-8.3
	c12.7,0,19,4.1,19,16.1v34.7h-8v-4.9c-2.8,4.6-6.2,5.7-12.7,5.7c-11.6,0-17.9-5.7-17.9-15.4C429.1,825,436.8,821.5,447.8,821.5z
	 M459.7,828.3h-11.9c-7.9,0-10.7,2.7-10.7,7.7c0,5.6,4,7.8,9.9,7.8c7.4,0,12.7-1.4,12.7-12.6V828.3z"/>
<path class="st1" d="M508.8,812.1c-2.7-3.5-5.5-5.1-12.4-5.1c-5.9,0-9.7,2.3-9.7,6.7c0,5.7,5,7.4,11.6,7.9c9.4,0.7,18,3.4,18,14.9
	c0,8.7-5.9,14.7-18.8,14.7c-10.2,0-15.5-3.1-19.3-8.3l5.9-4.2c2.7,3.6,6.3,5.1,13.5,5.1c6.7,0,10.7-2.6,10.7-7.1
	c0-5.4-3.2-7.3-12.9-8c-8.4-0.6-16.7-4-16.7-14.9c0-8.3,6-14.2,17.9-14.2c8.1,0,14.3,2.1,18.2,8.3L508.8,812.1z"/>
<path class="st1" d="M566.9,850.4h-8v-4.9c-2.5,3.8-6,5.7-13.4,5.7c-10.7,0-18.2-5.6-18.2-19.6v-31.2h8v31.1
	c0,10.1,5.5,12.3,11.4,12.3c7.5,0,12.2-5.3,12.2-12.2v-31.2h8V850.4z"/>
<path class="st1" d="M607,811.2c-1.9-2.8-5.1-4.4-8.4-4.2c-6.1,0-10.7,4.6-10.7,12.1v31.3h-8v-50h8v4.9c2.1-3.5,5.5-5.7,11.6-5.7
	c6.8,0,11.1,2.3,14.3,6.8L607,811.2z"/>
<path class="st1" d="M655.7,842.8c-3.5,6.1-8.8,8.4-17.5,8.4c-13.4,0-21.4-8.7-21.4-22.6V822c0-14.2,6.7-22.4,19.8-22.4
	s19.8,8.1,19.8,22.4v5.2h-31.6v1.4c0,8.6,4.1,15.4,12.8,15.4c6.5,0,9.8-1.9,11.9-5.6L655.7,842.8z M624.8,820.2h23.5
	c-0.4-8.4-4.1-13.4-11.7-13.4S625.3,811.9,624.8,820.2L624.8,820.2z"/>
<path class="st1" d="M696.2,812.1c-2.7-3.5-5.5-5.1-12.4-5.1c-5.9,0-9.7,2.3-9.7,6.7c0,5.7,5,7.4,11.6,7.9c9.4,0.7,18,3.4,18,14.9
	c0,8.7-5.9,14.7-18.8,14.7c-10.2,0-15.5-3.1-19.3-8.3l5.9-4.2c2.7,3.6,6.3,5.1,13.5,5.1c6.7,0,10.7-2.6,10.7-7.1
	c0-5.4-3.2-7.3-12.9-8c-8.4-0.6-16.7-4-16.7-14.9c0-8.3,6-14.2,17.9-14.2c8.1,0,14.3,2.1,18.2,8.3L696.2,812.1z"/>
<path class="st1" d="M735.3,800.4h6.4v-11h8v11h11.5v7.2h-11.5V833c0,6.9,0.8,9.8,7.5,9.8h4v7.6h-4.3c-11.8,0-15.2-5-15.2-15.4
	v-27.4h-6.4V800.4z"/>
<path class="st1" d="M771.2,781.4h8v23.9c2.5-3.8,6-5.7,13.4-5.7c10.7,0,18.2,5.6,18.2,19.6v31.2h-8v-31.1
	c0-10.1-5.5-12.3-11.4-12.3c-7.5,0-12.2,5.3-12.2,12.2v31.2h-8V781.4z"/>
<path class="st1" d="M860.2,842.8c-3.5,6.1-8.8,8.4-17.5,8.4c-13.4,0-21.4-8.7-21.4-22.6V822c0-14.2,6.7-22.4,19.8-22.4
	s19.8,8.1,19.8,22.4v5.2h-31.6v1.4c0,8.6,4.1,15.4,12.8,15.4c6.5,0,9.8-1.9,11.9-5.6L860.2,842.8z M829.3,820.2h23.5
	c-0.4-8.4-4.1-13.4-11.7-13.4S829.8,811.9,829.3,820.2z"/>
<path class="st1" d="M897.5,800.4h8v4.9c2.2-3.4,6-5.7,12.4-5.7c6.7,0,11.8,2.7,14.6,7.9c3.3-5.1,9-8.1,15-7.9
	c10.7,0,17.2,6.6,17.2,19.6v31.2h-8v-31.1c0-9.1-4.5-12.3-10.4-12.3c-6.4,0-11.2,5.1-11.2,12.2v31.2h-8v-31.1
	c0-9.1-4.5-12.3-10.4-12.3c-6.5,0-11.2,5.3-11.2,12.2v31.2h-8L897.5,800.4z"/>
<path class="st1" d="M978.8,781.4h9v9h-9V781.4z M979.3,800.4h8v50h-8V800.4z"/>
<path class="st1" d="M1029.8,812.1c-2.7-3.5-5.5-5.1-12.4-5.1c-5.9,0-9.7,2.3-9.7,6.7c0,5.7,5,7.4,11.6,7.9c9.4,0.7,18,3.4,18,14.9
	c0,8.7-5.9,14.7-18.8,14.7c-10.2,0-15.5-3.1-19.3-8.3l5.9-4.2c2.7,3.6,6.3,5.1,13.5,5.1c6.7,0,10.7-2.6,10.7-7.1
	c0-5.4-3.2-7.3-12.9-8c-8.4-0.6-16.7-4-16.7-14.9c0-8.3,6-14.2,17.9-14.2c8.1,0,14.3,2.1,18.2,8.3L1029.8,812.1z"/>
<path class="st1" d="M1050.3,800.4v-3.6c0-10.4,3.4-15.4,15.2-15.4h2.3v7.6h-2c-6.7,0-7.5,2.9-7.5,9.8v1.6h23.5v50h-8v-42.8h-15.5
	v42.8h-8v-42.8h-6.3v-7.2L1050.3,800.4z"/>
<path class="st1" d="M1090.4,800.4h6.4v-11h8v11h11.5v7.2h-11.5V833c0,6.9,0.8,9.8,7.5,9.8h4v7.6h-4.3c-11.8,0-15.2-5-15.2-15.4
	v-27.4h-6.4V800.4z"/>
<path class="st1" d="M1159.3,805.4c2.7-3.7,7-5.8,13.6-5.8c12.4,0,20,8.1,20,22.4v6.6c0,13-6.4,22.6-20,22.6
	c-6.7,0-10.9-1.7-13.6-5.2v4.4h-8v-69h8V805.4z M1184.9,828.6V822c0-9.5-4.6-15.2-12.8-15.2c-8,0-12.8,5.5-12.8,14.5v7.3
	c0,8.6,3.6,15.4,12.8,15.4C1180.7,844,1185,837.1,1184.9,828.6L1184.9,828.6z"/>
<path class="st1" d="M1239.8,842.8c-3.5,6.1-8.8,8.4-17.5,8.4c-13.4,0-21.4-8.7-21.4-22.6V822c0-14.2,6.7-22.4,19.8-22.4
	s19.8,8.1,19.8,22.4v5.2H1209v1.4c0,8.6,4.1,15.4,12.8,15.4c6.5,0,9.8-1.9,11.9-5.6L1239.8,842.8z M1208.9,820.2h23.5
	c-0.4-8.4-4.1-13.4-11.7-13.4S1209.4,811.9,1208.9,820.2L1208.9,820.2z"/>
<path class="st1" d="M1247.8,800.4h6.4v-11h8v11h11.5v7.2h-11.5V833c0,6.9,0.8,9.8,7.5,9.8h4v7.6h-4.3c-11.8,0-15.2-5-15.2-15.4
	v-27.4h-6.4V800.4z"/>
<path class="st1" d="M1299.8,850.4h-7l-14.5-50h8.5l10,35.1l12.6-35.1h6.7l13.3,35.4l10-35.4h8.5l-14.5,50h-7L1313,813L1299.8,850.4
	z"/>
<path class="st1" d="M1391.8,842.8c-3.5,6.1-8.8,8.4-17.5,8.4c-13.4,0-21.4-8.7-21.4-22.6V822c0-14.2,6.7-22.4,19.8-22.4
	s19.8,8.1,19.8,22.4v5.2h-31.6v1.4c0,8.6,4.1,15.4,12.8,15.4c6.5,0,9.8-1.9,11.9-5.6L1391.8,842.8z M1360.8,820.2h23.5
	c-0.4-8.4-4.1-13.4-11.7-13.4S1361.3,811.9,1360.8,820.2z"/>
<path class="st1" d="M1440.5,842.8c-3.5,6.1-8.8,8.4-17.5,8.4c-13.4,0-21.4-8.7-21.4-22.6V822c0-14.2,6.7-22.4,19.8-22.4
	s19.8,8.1,19.8,22.4v5.2h-31.6v1.4c0,8.6,4.1,15.4,12.8,15.4c6.5,0,9.8-1.9,11.9-5.6L1440.5,842.8z M1409.6,820.2h23.5
	c-0.4-8.4-4.1-13.4-11.7-13.4S1410.1,811.9,1409.6,820.2z"/>
<path class="st1" d="M1452.9,800.4h8v4.9c2.5-3.8,6-5.7,13.4-5.7c10.7,0,18.2,5.6,18.2,19.6v31.2h-8v-31.1
	c0-10.1-5.5-12.3-11.4-12.3c-7.5,0-12.2,5.3-12.2,12.2v31.2h-8V800.4z"/>
<path class="st1" d="M1526.1,800.4h6.4v-11h8v11h11.5v7.2h-11.5V833c0,6.9,0.8,9.8,7.5,9.8h4v7.6h-4.3c-11.8,0-15.2-5-15.2-15.4
	v-27.4h-6.4L1526.1,800.4z"/>
<path class="st1" d="M1562,781.4h8v23.9c2.5-3.8,6-5.7,13.4-5.7c10.7,0,18.2,5.6,18.2,19.6v31.2h-8v-31.1c0-10.1-5.5-12.3-11.4-12.3
	c-7.5,0-12.2,5.3-12.2,12.2v31.2h-8V781.4z"/>
<path class="st1" d="M1651,842.8c-3.5,6.1-8.8,8.4-17.5,8.4c-13.4,0-21.4-8.7-21.4-22.6V822c0-14.2,6.7-22.4,19.8-22.4
	s19.8,8.1,19.8,22.4v5.2h-31.6v1.4c0,8.6,4.1,15.4,12.8,15.4c6.5,0,9.8-1.9,11.9-5.6L1651,842.8z M1620.1,820.2h23.5
	c-0.4-8.4-4.1-13.4-11.7-13.4S1620.6,811.9,1620.1,820.2L1620.1,820.2z"/>
<path class="st1" d="M236.9,948.6c0,13-6.4,22.6-20.8,22.6c-13.3,0-20.8-8.8-20.8-22.6V942c0-14.2,7.7-22.4,20.8-22.4
	s20.8,8.1,20.8,22.4V948.6z M228.9,948.6V942c0-9.5-4.6-15.2-12.8-15.2s-12.8,5.8-12.8,15.2v6.6c0,8.6,3.6,15.4,12.8,15.4
	C224.6,964,228.9,957.1,228.9,948.6L228.9,948.6z"/>
<path class="st1" d="M255.4,925.4c2.7-3.7,7-5.8,13.6-5.8c12.4,0,20,8.1,20,22.4v6.6c0,13-6.4,22.6-20,22.6
	c-6.7,0-10.9-1.7-13.6-5.2v4.4h-8v-69h8V925.4z M281,948.6V942c0-9.5-4.6-15.2-12.8-15.2c-8,0-12.8,5.5-12.8,14.5v7.3
	c0,8.6,3.6,15.4,12.8,15.4C276.7,964,281,957.1,281,948.6L281,948.6z"/>
<path class="st1" d="M327.6,932.1c-2.7-3.5-5.5-5.1-12.4-5.1c-5.9,0-9.7,2.3-9.7,6.7c0,5.7,5,7.4,11.6,7.9c9.4,0.7,18,3.4,18,14.9
	c0,8.7-5.9,14.7-18.8,14.7c-10.2,0-15.5-3.1-19.3-8.3l5.9-4.2c2.7,3.6,6.3,5.1,13.5,5.1c6.7,0,10.7-2.6,10.7-7.1
	c0-5.4-3.2-7.3-12.9-8c-8.4-0.6-16.7-4-16.7-14.9c0-8.3,6-14.2,17.9-14.2c8.1,0,14.3,2.1,18.2,8.3L327.6,932.1z"/>
<path class="st1" d="M382.5,962.8c-3.5,6.1-8.8,8.4-17.5,8.4c-13.4,0-21.4-8.7-21.4-22.6V942c0-14.2,6.7-22.4,19.8-22.4
	s19.8,8.1,19.8,22.4v5.2h-31.6v1.4c0,8.6,4.1,15.4,12.8,15.4c6.5,0,9.8-1.9,11.9-5.6L382.5,962.8z M351.6,940.2h23.5
	c-0.4-8.4-4.1-13.4-11.7-13.4S352.1,931.9,351.6,940.2L351.6,940.2z"/>
<path class="st1" d="M422,931.2c-1.9-2.8-5.1-4.4-8.4-4.2c-6.1,0-10.7,4.6-10.7,12.1v31.3h-8v-50h8v4.9c2.1-3.5,5.5-5.7,11.6-5.7
	c6.8,0,11.1,2.3,14.3,6.8L422,931.2z"/>
<path class="st1" d="M477.2,920.4l-20,50h-8l-20.4-50h9l15.2,39.8l15.2-39.8H477.2z"/>
<path class="st1" d="M521.1,962.8c-3.5,6.1-8.8,8.4-17.5,8.4c-13.4,0-21.4-8.7-21.4-22.6V942c0-14.2,6.7-22.4,19.8-22.4
	c13.1,0,19.8,8.1,19.8,22.4v5.2h-31.6v1.4c0,8.6,4.1,15.4,12.8,15.4c6.5,0,9.8-1.9,11.9-5.6L521.1,962.8z M490.2,940.2h23.5
	c-0.4-8.4-4.1-13.4-11.7-13.4S490.7,931.9,490.2,940.2z"/>
<path class="st1" d="M564.6,901.4h8v69h-8V966c-2.7,3.5-7,5.2-13.6,5.2c-13.6,0-20-9.6-20-22.6V942c0-14.3,7.6-22.4,20-22.4
	c6.6,0,10.9,2.1,13.6,5.8V901.4z M564.6,949.3V942c0-9.4-4.6-15.2-12.8-15.2S539,932.5,539,942v6.6c0,8.5,4.3,15.4,12.8,15.4
	C560.7,964,564.6,957.6,564.6,949.3z"/>
<path class="st1" d="M641.7,901.4h8v69h-8V966c-2.7,3.5-7,5.2-13.6,5.2c-13.6,0-20-9.6-20-22.6V942c0-14.3,7.6-22.4,20-22.4
	c6.6,0,10.9,2.1,13.6,5.8V901.4z M641.7,949.3V942c0-9.4-4.6-15.2-12.8-15.2s-12.8,5.7-12.8,15.2v6.6c0,8.5,4.3,15.4,12.8,15.4
	C637.8,964,641.7,957.6,641.7,949.3z"/>
<path class="st1" d="M678.9,941.5h11.9v-5.8c0-7.1-3.3-8.7-11.1-8.7c-6,0-9.2,0.5-12,5.1l-6-4.2c3.5-5.8,8.6-8.3,18.1-8.3
	c12.7,0,19,4.1,19,16.1v34.7h-8v-4.9c-2.8,4.6-6.2,5.7-12.7,5.7c-11.6,0-17.9-5.7-17.9-15.4C660.2,945,667.9,941.5,678.9,941.5z
	 M690.8,948.3h-11.9c-7.9,0-10.7,2.7-10.7,7.7c0,5.6,4,7.8,9.9,7.8c7.4,0,12.7-1.4,12.7-12.6V948.3z"/>
<path class="st1" d="M707.4,920.4h6.4v-11h8v11h11.5v7.2h-11.5V953c0,6.9,0.8,9.8,7.5,9.8h4v7.6H729c-11.8,0-15.2-5-15.2-15.4v-27.4
	h-6.4L707.4,920.4z"/>
<path class="st1" d="M759.5,941.5h11.9v-5.8c0-7.1-3.3-8.7-11.1-8.7c-6,0-9.2,0.5-12,5.1l-6-4.2c3.5-5.8,8.6-8.3,18.1-8.3
	c12.7,0,19,4.1,19,16.1v34.7h-8v-4.9c-2.8,4.6-6.2,5.7-12.7,5.7c-11.6,0-17.9-5.7-17.9-15.4C740.8,945,748.5,941.5,759.5,941.5z
	 M771.4,948.3h-11.9c-7.9,0-10.7,2.7-10.7,7.7c0,5.6,4,7.8,9.9,7.8c7.4,0,12.7-1.4,12.7-12.6V948.3z"/>
<path class="st1" d="M833.6,941.5h11.9v-5.8c0-7.1-3.3-8.7-11.1-8.7c-6,0-9.2,0.5-12,5.1l-6-4.2c3.5-5.8,8.6-8.3,18.1-8.3
	c12.7,0,19,4.1,19,16.1v34.7h-8v-4.9c-2.8,4.6-6.2,5.7-12.7,5.7c-11.6,0-17.9-5.7-17.9-15.4C814.9,945,822.6,941.5,833.6,941.5z
	 M845.5,948.3h-11.9c-7.9,0-10.7,2.7-10.7,7.7c0,5.6,4,7.8,9.9,7.8c7.4,0,12.7-1.4,12.7-12.6V948.3z"/>
<path class="st1" d="M866.5,920.4h8v4.9c2.5-3.8,6-5.7,13.4-5.7c10.7,0,18.2,5.6,18.2,19.6v31.2h-8v-31.1c0-10.1-5.5-12.3-11.4-12.3
	c-7.5,0-12.2,5.3-12.2,12.2v31.2h-8V920.4z"/>
<path class="st1" d="M950.2,901.4h8v69h-8V966c-2.7,3.5-7,5.2-13.6,5.2c-13.6,0-20-9.6-20-22.6V942c0-14.3,7.6-22.4,20-22.4
	c6.6,0,10.9,2.1,13.6,5.8V901.4z M950.2,949.3V942c0-9.4-4.6-15.2-12.8-15.2s-12.8,5.7-12.8,15.2v6.6c0,8.5,4.3,15.4,12.8,15.4
	C946.3,964,950.2,957.6,950.2,949.3z"/>
<path class="st1" d="M991.8,920.4h6.4v-11h8v11h11.5v7.2h-11.5V953c0,6.9,0.8,9.8,7.5,9.8h4v7.6h-4.3c-11.8,0-15.2-5-15.2-15.4
	v-27.4h-6.4V920.4z"/>
<path class="st1" d="M1027.7,901.4h8v23.9c2.5-3.8,6-5.7,13.4-5.7c10.7,0,18.2,5.6,18.2,19.6v31.2h-8v-31.1
	c0-10.1-5.5-12.3-11.4-12.3c-7.5,0-12.2,5.3-12.2,12.2v31.2h-8V901.4z"/>
<path class="st1" d="M1116.7,962.8c-3.5,6.1-8.8,8.4-17.5,8.4c-13.4,0-21.4-8.7-21.4-22.6V942c0-14.2,6.7-22.4,19.8-22.4
	s19.8,8.1,19.8,22.4v5.2h-31.6v1.4c0,8.6,4.1,15.4,12.8,15.4c6.5,0,9.8-1.9,11.9-5.6L1116.7,962.8z M1085.8,940.2h23.5
	c-0.4-8.4-4.1-13.4-11.7-13.4S1086.3,931.9,1085.8,940.2L1085.8,940.2z"/>
<path class="st1" d="M1182.2,932.1c-2.7-3.5-5.5-5.1-12.4-5.1c-5.9,0-9.7,2.3-9.7,6.7c0,5.7,5,7.4,11.6,7.9c9.4,0.7,18,3.4,18,14.9
	c0,8.7-5.9,14.7-18.8,14.7c-10.2,0-15.5-3.1-19.3-8.3l5.9-4.2c2.7,3.6,6.3,5.1,13.5,5.1c6.7,0,10.7-2.6,10.7-7.1
	c0-5.4-3.2-7.3-12.9-8c-8.4-0.6-16.7-4-16.7-14.9c0-8.3,6-14.2,17.9-14.2c8.1,0,14.3,2.1,18.2,8.3L1182.2,932.1z"/>
<path class="st1" d="M1201.7,901.4h9v9h-9V901.4z M1202.2,920.4h8v50h-8V920.4z"/>
<path class="st1" d="M1224.7,920.4h8v4.9c2.2-3.4,6-5.7,12.4-5.7c6.7,0,11.8,2.7,14.6,7.9c3.3-5.1,9-8.1,15-7.9
	c10.7,0,17.2,6.6,17.2,19.6v31.2h-8v-31.1c0-9.1-4.5-12.3-10.4-12.3c-6.4,0-11.2,5.1-11.2,12.2v31.2h-8v-31.1
	c0-9.1-4.5-12.3-10.4-12.3c-6.5,0-11.2,5.3-11.2,12.2v31.2h-8V920.4z"/>
<path class="st1" d="M1344.5,970.4h-8v-4.9c-2.5,3.8-6,5.7-13.4,5.7c-10.7,0-18.2-5.6-18.2-19.6v-31.2h8v31.1
	c0,10.1,5.5,12.3,11.4,12.3c7.5,0,12.2-5.3,12.2-12.2v-31.2h8L1344.5,970.4z"/>
<path class="st1" d="M1357.5,901.4h8V953c0,5.4,0.3,10,8.5,10v7.4c-12.6,0-16.5-5-16.5-15.4V901.4z"/>
<path class="st1" d="M1401.1,941.5h11.9v-5.8c0-7.1-3.3-8.7-11.1-8.7c-6,0-9.2,0.5-12,5.1l-6-4.2c3.5-5.8,8.6-8.3,18.1-8.3
	c12.7,0,19,4.1,19,16.1v34.7h-8v-4.9c-2.8,4.6-6.2,5.7-12.7,5.7c-11.6,0-17.9-5.7-17.9-15.4C1382.4,945,1390.1,941.5,1401.1,941.5z
	 M1413,948.3h-11.9c-7.9,0-10.7,2.7-10.7,7.7c0,5.6,4,7.8,9.9,7.8c7.4,0,12.7-1.4,12.7-12.6V948.3z"/>
<path class="st1" d="M1429.6,920.4h6.4v-11h8v11h11.5v7.2H1444V953c0,6.9,0.8,9.8,7.5,9.8h4v7.6h-4.3c-11.8,0-15.2-5-15.2-15.4
	v-27.4h-6.4L1429.6,920.4z"/>
<path class="st1" d="M1501.9,962.8c-3.5,6.1-8.8,8.4-17.5,8.4c-13.4,0-21.4-8.7-21.4-22.6V942c0-14.2,6.7-22.4,19.8-22.4
	s19.8,8.1,19.8,22.4v5.2H1471v1.4c0,8.6,4.1,15.4,12.8,15.4c6.5,0,9.8-1.9,11.9-5.6L1501.9,962.8z M1471,940.2h23.5
	c-0.4-8.4-4.1-13.4-11.7-13.4S1471.5,931.9,1471,940.2L1471,940.2z"/>
<path class="st1" d="M1545.4,901.4h8v69h-8V966c-2.7,3.5-7,5.2-13.6,5.2c-13.6,0-20-9.6-20-22.6V942c0-14.3,7.6-22.4,20-22.4
	c6.6,0,10.9,2.1,13.6,5.8V901.4z M1545.4,949.3V942c0-9.4-4.6-15.2-12.8-15.2s-12.8,5.7-12.8,15.2v6.6c0,8.5,4.3,15.4,12.8,15.4
	C1541.5,964,1545.4,957.6,1545.4,949.3z"/>
<path class="st1" d="M1622.5,901.4h8v69h-8V966c-2.7,3.5-7,5.2-13.6,5.2c-13.6,0-20-9.6-20-22.6V942c0-14.3,7.6-22.4,20-22.4
	c6.6,0,10.9,2.1,13.6,5.8V901.4z M1622.5,949.3V942c0-9.4-4.6-15.2-12.8-15.2s-12.8,5.7-12.8,15.2v6.6c0,8.5,4.3,15.4,12.8,15.4
	C1618.6,964,1622.5,957.6,1622.5,949.3z"/>
<path class="st1" d="M1659.7,941.5h11.9v-5.8c0-7.1-3.3-8.7-11.1-8.7c-6,0-9.2,0.5-12,5.1l-6-4.2c3.5-5.8,8.6-8.3,18.1-8.3
	c12.7,0,19,4.1,19,16.1v34.7h-8v-4.9c-2.8,4.6-6.2,5.7-12.7,5.7c-11.6,0-17.9-5.7-17.9-15.4C1641,945,1648.7,941.5,1659.7,941.5z
	 M1671.6,948.3h-11.9c-7.9,0-10.7,2.7-10.7,7.7c0,5.6,4,7.8,9.9,7.8c7.4,0,12.7-1.4,12.7-12.6V948.3z"/>
<path class="st1" d="M1688.2,920.4h6.4v-11h8v11h11.5v7.2h-11.5V953c0,6.9,0.8,9.8,7.5,9.8h4v7.6h-4.3c-11.8,0-15.2-5-15.2-15.4
	v-27.4h-6.4V920.4z"/>
<path class="st1" d="M1740.3,941.5h11.9v-5.8c0-7.1-3.3-8.7-11.1-8.7c-6,0-9.2,0.5-12,5.1l-6-4.2c3.5-5.8,8.6-8.3,18.1-8.3
	c12.7,0,19,4.1,19,16.1v34.7h-8v-4.9c-2.8,4.6-6.2,5.7-12.7,5.7c-11.6,0-17.9-5.7-17.9-15.4C1721.6,945,1729.3,941.5,1740.3,941.5z
	 M1752.2,948.3h-11.9c-7.9,0-10.7,2.7-10.7,7.7c0,5.6,4,7.8,9.9,7.8c7.4,0,12.7-1.4,12.7-12.6V948.3z"/>
<line class="st4" x1="868" y1="495" x2="1869.5" y2="495"/>
</svg>
